<svg height="405" width="605" xmlns="http://www.w3.org/2000/svg" xmlns:xlink="http://www.w3.org/1999/xlink"><style>svg {
  font-family: ui-monospace, SFMono-Regular, Menlo, Monaco, Consolas, "Liberation Mono", "Courier New", monospace;
}
text {
  fill: #2f3337;
  font-size: 14px;
}
rect {
  fill: #ffffff;
  stroke: #3a3d40;
  stroke-width: 2;
}
rect.terminal {
  fill: #ffffff;
}
rect.nonterminal {
  fill: #ffffff;
}
text.terminal {
  fill: #2f3337;
  font-weight: 600;
}
text.nonterminal {
  fill: #2563eb;
}
a text.nonterminal {
  text-decoration: underline;
}
path.line {
  fill: none;
  stroke: #3a3d40;
  stroke-width: 2;
}
polygon {
  fill: #2f3337;
  stroke: #2f3337;
}</style>
<polygon points="9 61 1 57 1 65"></polygon>
<polygon points="17 61 9 57 9 65"></polygon>
<rect height="32" rx="10" width="80" x="31" y="47"></rect>
<rect class="terminal" height="32" rx="10" width="80" x="29" y="45"></rect>
<text class="terminal" x="39" y="65">EXPLAIN</text>
<rect height="32" rx="10" width="26" x="151" y="47"></rect>
<rect class="terminal" height="32" rx="10" width="26" x="149" y="45"></rect>
<text class="terminal" x="159" y="65">(</text>
<rect height="32" rx="10" width="84" x="237" y="47"></rect>
<rect class="terminal" height="32" rx="10" width="84" x="235" y="45"></rect>
<text class="terminal" x="245" y="65">VERBOSE</text>
<rect height="32" rx="10" width="62" x="237" y="91"></rect>
<rect class="terminal" height="32" rx="10" width="62" x="235" y="89"></rect>
<text class="terminal" x="245" y="109">TYPES</text>
<rect height="32" rx="10" width="48" x="237" y="135"></rect>
<rect class="terminal" height="32" rx="10" width="48" x="235" y="133"></rect>
<text class="terminal" x="245" y="153">OPT</text>
<rect height="32" rx="10" width="46" x="237" y="179"></rect>
<rect class="terminal" height="32" rx="10" width="46" x="235" y="177"></rect>
<text class="terminal" x="245" y="197">ENV</text>
<rect height="32" rx="10" width="62" x="237" y="223"></rect>
<rect class="terminal" height="32" rx="10" width="62" x="235" y="221"></rect>
<text class="terminal" x="245" y="241">MEMO</text>
<rect height="32" rx="10" width="74" x="237" y="267"></rect>
<rect class="terminal" height="32" rx="10" width="74" x="235" y="265"></rect>
<text class="terminal" x="245" y="285">REDACT</text>
<rect height="32" rx="10" width="82" x="237" y="311"></rect>
<rect class="terminal" height="32" rx="10" width="82" x="235" y="309"></rect>
<text class="terminal" x="245" y="329">DISTSQL</text>
<rect height="32" rx="10" width="46" x="237" y="355"></rect>
<rect class="terminal" height="32" rx="10" width="46" x="235" y="353"></rect>
<text class="terminal" x="245" y="373">VEC</text>
<rect height="32" rx="10" width="24" x="217" y="3"></rect>
<rect class="terminal" height="32" rx="10" width="24" x="215" y="1"></rect>
<text class="terminal" x="225" y="21">,</text>
<rect height="32" rx="10" width="26" x="381" y="47"></rect>
<rect class="terminal" height="32" rx="10" width="26" x="379" y="45"></rect>
<text class="terminal" x="389" y="65">)</text><a xlink:href="/docs/v23.2/sql-grammar#explainable_stmt" xlink:title="explainable_stmt">
<rect height="32" width="130" x="447" y="47"></rect>
<rect class="nonterminal" height="32" width="130" x="445" y="45"></rect>
<text lengthAdjust="spacingAndGlyphs" textLength="106" font-size="10" class="nonterminal" x="457" y="65">explainable_stmt</text></a><path class="line" d="m17 61 h2 m0 0 h10 m80 0 h10 m20 0 h10 m26 0 h10 m40 0 h10 m84 0 h10 m-124 0 h20 m104 0 h20 m-144 0 q10 0 10 10 m124 0 q0 -10 10 -10 m-134 10 v24 m124 0 v-24 m-124 24 q0 10 10 10 m104 0 q10 0 10 -10 m-114 10 h10 m62 0 h10 m0 0 h22 m-114 -10 v20 m124 0 v-20 m-124 20 v24 m124 0 v-24 m-124 24 q0 10 10 10 m104 0 q10 0 10 -10 m-114 10 h10 m48 0 h10 m0 0 h36 m-114 -10 v20 m124 0 v-20 m-124 20 v24 m124 0 v-24 m-124 24 q0 10 10 10 m104 0 q10 0 10 -10 m-114 10 h10 m46 0 h10 m0 0 h38 m-114 -10 v20 m124 0 v-20 m-124 20 v24 m124 0 v-24 m-124 24 q0 10 10 10 m104 0 q10 0 10 -10 m-114 10 h10 m62 0 h10 m0 0 h22 m-114 -10 v20 m124 0 v-20 m-124 20 v24 m124 0 v-24 m-124 24 q0 10 10 10 m104 0 q10 0 10 -10 m-114 10 h10 m74 0 h10 m0 0 h10 m-114 -10 v20 m124 0 v-20 m-124 20 v24 m124 0 v-24 m-124 24 q0 10 10 10 m104 0 q10 0 10 -10 m-114 10 h10 m82 0 h10 m0 0 h2 m-114 -10 v20 m124 0 v-20 m-124 20 v24 m124 0 v-24 m-124 24 q0 10 10 10 m104 0 q10 0 10 -10 m-114 10 h10 m46 0 h10 m0 0 h38 m-144 -308 l20 0 m-1 0 q-9 0 -9 -10 l0 -24 q0 -10 10 -10 m144 44 l20 0 m-20 0 q10 0 10 -10 l0 -24 q0 -10 -10 -10 m-144 0 h10 m24 0 h10 m0 0 h100 m20 44 h10 m26 0 h10 m-296 0 h20 m276 0 h20 m-316 0 q10 0 10 10 m296 0 q0 -10 10 -10 m-306 10 v322 m296 0 v-322 m-296 322 q0 10 10 10 m276 0 q10 0 10 -10 m-286 10 h10 m0 0 h266 m20 -342 h10 m130 0 h10 m3 0 h-3"></path>
<polygon points="595 61 603 57 603 65"></polygon>
<polygon points="595 61 587 57 587 65"></polygon></svg>