<svg width="8" height="8" viewBox="0 0 8 8" fill="none" xmlns="http://www.w3.org/2000/svg">
<path d="M4.72736 0L5.84964 1.12228C4.77863 2.19329 2.5057 4.46659 2.39478 4.57714C2.11076 4.86117 2.11076 5.32157 2.39478 5.6056C2.67881 5.88962 3.13921 5.88962 3.42324 5.6056C3.53379 5.49468 5.80673 3.22175 6.8781 2.15074L8.00038 3.27302V0H4.72736Z" fill="#394455"/>
<path d="M6.90972 4.36423C6.70861 4.36423 6.54605 4.52679 6.54605 4.7279V7.27358H0.727338V1.45488H3.27302C3.47377 1.45488 3.63669 1.29232 3.63669 1.09121C3.63669 0.890099 3.47377 0.727539 3.27302 0.727539H0.727338C0.325848 0.727539 0 1.05302 0 1.45488V7.27358C0 7.67544 0.325848 8.00092 0.727338 8.00092H6.54605C6.94754 8.00092 7.27338 7.67544 7.27338 7.27358V4.7279C7.27338 4.52679 7.11082 4.36423 6.90972 4.36423Z" fill="#394455"/>
</svg>
