<svg width="18" height="18" viewBox="0 0 18 18" fill="none" xmlns="http://www.w3.org/2000/svg">
<path fill-rule="evenodd" clip-rule="evenodd" d="M7.39995 1.79995C4.30738 1.79995 1.79995 4.30738 1.79995 7.39995C1.79995 10.4925 4.30738 13 7.39995 13C10.4925 13 13 10.4925 13 7.39995C13 4.30738 10.4925 1.79995 7.39995 1.79995ZM0.199951 7.39995C0.199951 3.42372 3.42372 0.199951 7.39995 0.199951C11.3762 0.199951 14.6 3.42372 14.6 7.39995C14.6 11.3762 11.3762 14.6 7.39995 14.6C3.42372 14.6 0.199951 11.3762 0.199951 7.39995Z" fill="#C0C6D9"/>
<path fill-rule="evenodd" clip-rule="evenodd" d="M11.6343 11.6342C11.9468 11.3218 12.4533 11.3218 12.7657 11.6342L17.5657 16.4342C17.8781 16.7466 17.8781 17.2532 17.5657 17.5656C17.2533 17.878 16.7468 17.878 16.4343 17.5656L11.6343 12.7656C11.3219 12.4532 11.3219 11.9466 11.6343 11.6342Z" fill="#C0C6D9"/>
</svg>
