<svg height="37" width="427" xmlns="http://www.w3.org/2000/svg" xmlns:xlink="http://www.w3.org/1999/xlink"><style>svg {
  font-family: ui-monospace, SFMono-Regular, Menlo, Monaco, Consolas, "Liberation Mono", "Courier New", monospace;
}
text {
  fill: #2f3337;
  font-size: 14px;
}
rect {
  fill: #ffffff;
  stroke: #3a3d40;
  stroke-width: 2;
}
rect.terminal {
  fill: #ffffff;
}
rect.nonterminal {
  fill: #ffffff;
}
text.terminal {
  fill: #2f3337;
  font-weight: 600;
}
text.nonterminal {
  fill: #2563eb;
}
a text.nonterminal {
  text-decoration: underline;
}
path.line {
  fill: none;
  stroke: #3a3d40;
  stroke-width: 2;
}
polygon {
  fill: #2f3337;
  stroke: #2f3337;
}</style>
<polygon points="9 17 1 13 1 21"></polygon>
<polygon points="17 17 9 13 9 21"></polygon>
<rect height="32" rx="10" width="62" x="31" y="3"></rect>
<rect class="terminal" height="32" rx="10" width="62" x="29" y="1"></rect>
<text class="terminal" x="39" y="21">RESET</text>
<rect height="32" rx="10" width="82" x="113" y="3"></rect>
<rect class="terminal" height="32" rx="10" width="82" x="111" y="1"></rect>
<text class="terminal" x="121" y="21">CLUSTER</text>
<rect height="32" rx="10" width="80" x="215" y="3"></rect>
<rect class="terminal" height="32" rx="10" width="80" x="213" y="1"></rect>
<text class="terminal" x="223" y="21">SETTING</text><a xlink:href="/docs/v24.3/sql-grammar#var_name" xlink:title="var_name">
<rect height="32" width="84" x="315" y="3"></rect>
<rect class="nonterminal" height="32" width="84" x="313" y="1"></rect>
<text lengthAdjust="spacingAndGlyphs" textLength="60" font-size="12" class="nonterminal" x="325" y="21">var_name</text></a><path class="line" d="m17 17 h2 m0 0 h10 m62 0 h10 m0 0 h10 m82 0 h10 m0 0 h10 m80 0 h10 m0 0 h10 m84 0 h10 m3 0 h-3"></path>
<polygon points="417 17 425 13 425 21"></polygon>
<polygon points="417 17 409 13 409 21"></polygon></svg>