<svg width="13" height="12" viewBox="0 0 13 12" fill="none" xmlns="http://www.w3.org/2000/svg">
<path fill-rule="evenodd" clip-rule="evenodd" d="M11.6071 6.91837C12.1003 6.91837 12.5 6.5072 12.5 6C12.5 5.4928 12.1003 5.08163 11.6071 5.08163L0.892857 5.08163C0.399746 5.08163 -1.24627e-07 5.4928 -8.02863e-08 6C-3.59454e-08 6.5072 0.399746 6.91837 0.892858 6.91837L11.6071 6.91837Z" fill="white"/>
<path fill-rule="evenodd" clip-rule="evenodd" d="M6.25766 9.66948C5.86801 10.0104 5.82852 10.6027 6.16947 10.9924C6.51042 11.382 7.1027 11.4215 7.49236 11.0806L12.4924 6.70556C12.6958 6.52754 12.8125 6.27036 12.8125 6.00002C12.8125 5.72968 12.6958 5.4725 12.4924 5.29448L7.49236 0.919476C7.1027 0.578525 6.51042 0.61801 6.16947 1.00767C5.82852 1.39733 5.868 1.98961 6.25766 2.33056L10.4513 6.00002L6.25766 9.66948Z" fill="white"/>
</svg>
