<svg width="28" height="28" xmlns="http://www.w3.org/2000/svg" viewBox="0 0 28 21"><defs><style>.cls-1{fill:#fff;}.cls-2{fill:#f7f7f7;}.cls-3,.cls-4{fill:none;stroke:#152849;}.cls-3{stroke-width:1.5px;}.cls-5{mask:url(#mask);}.cls-6{fill:#152849;}</style><mask id="mask" x="2" y="10.66" width="22" height="14" maskUnits="userSpaceOnUse"><g id="path-6-inside-1"><path class="cls-1" d="M6.09,23.15a3,3,0,0,1,0-6,3.36,3.36,0,0,1,3.42-2.49A4,4,0,0,1,11,15a4.51,4.51,0,0,1,8.69,1.47,3.38,3.38,0,0,1-.68,6.71h-13Z"/></g></mask></defs><title>docs-managed</title><g id="Layer_2" data-name="Layer 2"><g id="Layer_1-2" data-name="Layer 1"><path class="cls-2" d="M1.75.75H8.88l5,4.75V17.56a1,1,0,0,1-1,1H1.75a1,1,0,0,1-1-1V1.75A1,1,0,0,1,1.75.75Z"/><path class="cls-3" d="M8.88.75H1.75a1,1,0,0,0-1,1V17.56a1,1,0,0,0,1,1H12.88a1,1,0,0,0,1-1V5.5M8.88.75l5,4.75M8.88.75V4.5a1,1,0,0,0,1,1h4"/><line class="cls-4" x1="3.25" y1="9.16" x2="10.75" y2="9.16"/><line class="cls-4" x1="3.25" y1="11.53" x2="10.75" y2="11.53"/><line class="cls-4" x1="3.25" y1="13.91" x2="9.5" y2="13.91"/><path class="cls-2" d="M6.09,23.15a3,3,0,0,1,0-6,3.36,3.36,0,0,1,3.42-2.49A4,4,0,0,1,11,15a4.51,4.51,0,0,1,8.69,1.47,3.38,3.38,0,0,1-.68,6.71h-13Z"/><g class="cls-5"><path class="cls-6" d="M6.09,23.15h1.5V21.76L6.2,21.65Zm0-6,.09,1.5,1.17-.07.22-1.15ZM11,15l-.57,1.39,1.4.58.56-1.41Zm8.69,1.47-1.5.06,0,1.18,1.17.24Zm-.68,6.71v-1.5h0Zm-12.76,0v1.5h0Zm-.2,0H4.59v1.5h1.5Zm.11-1.51A1.41,1.41,0,0,1,5,20.17H2a4.4,4.4,0,0,0,4,4.47ZM5,20.17a1.42,1.42,0,0,1,1.22-1.49l-.17-3a4.39,4.39,0,0,0-4,4.48Zm2.61-2.71a1.86,1.86,0,0,1,1.94-1.27v-3a4.84,4.84,0,0,0-4.89,3.72Zm1.94-1.27a2.43,2.43,0,0,1,.92.18l1.14-2.77a5.48,5.48,0,0,0-2.06-.41Zm2.88-.65a3,3,0,0,1,2.8-1.88v-3a6,6,0,0,0-5.59,3.77Zm2.8-1.88a3,3,0,0,1,3,2.85l3-.11a6,6,0,0,0-6-5.74Zm4.21,4.27A1.9,1.9,0,0,1,21,19.77h3A4.91,4.91,0,0,0,20,15ZM21,19.77a1.93,1.93,0,0,1-1.95,1.89v3A4.92,4.92,0,0,0,24,19.77Zm-1.95,1.89H6.29v3H19.05Zm-12.76,0h-.2v3h.2Zm1.3,1.5h0Z"/></g></g></g></svg>