<?xml version="1.0" encoding="UTF-8"?>
<svg width="14px" height="10px" viewBox="0 0 14 10" version="1.1" xmlns="http://www.w3.org/2000/svg" xmlns:xlink="http://www.w3.org/1999/xlink">
    <!-- Generator: Sketch 48.2 (47327) - http://www.bohemiancoding.com/sketch -->
    <title>menu-left</title>
    <desc>Created with Sketch.</desc>
    <defs></defs>
    <g id="Information-architecture-E-1" stroke="none" stroke-width="1" fill="none" fill-rule="evenodd" transform="translate(-438.000000, -298.000000)">
        <g id="menu-left" transform="translate(438.000000, 298.000000)" fill="#152849" fill-rule="nonzero">
            <path d="M6.66666667,10 L0.833333333,10 C0.373333333,10 0,9.62666667 0,9.16666667 C0,8.70666667 0.373333333,8.33333333 0.833333333,8.33333333 L6.66666667,8.33333333 C7.12666667,8.33333333 7.5,8.70666667 7.5,9.16666667 C7.5,9.62666667 7.12666667,10 6.66666667,10 Z" id="Shape"></path>
            <path d="M12.5,1.66666667 L0.833333333,1.66666667 C0.373333333,1.66666667 0,1.29333333 0,0.833333333 C0,0.373333333 0.373333333,0 0.833333333,0 L12.5,0 C12.96,0 13.3333333,0.373333333 13.3333333,0.833333333 C13.3333333,1.29333333 12.96,1.66666667 12.5,1.66666667 Z" id="Shape"></path>
            <path d="M12.5,5.83333333 L0.833333333,5.83333333 C0.373333333,5.83333333 0,5.46 0,5 C0,4.54 0.373333333,4.16666667 0.833333333,4.16666667 L12.5,4.16666667 C12.96,4.16666667 13.3333333,4.54 13.3333333,5 C13.3333333,5.46 12.96,5.83333333 12.5,5.83333333 Z" id="Shape"></path>
        </g>
    </g>
</svg>
