<svg height="873" width="1567" xmlns="http://www.w3.org/2000/svg"><style>svg {
  font-family: ui-monospace, SFMono-Regular, Menlo, Monaco, Consolas, "Liberation Mono", "Courier New", monospace;
}
text {
  fill: #2f3337;
  font-size: 14px;
}
rect {
  fill: #ffffff;
  stroke: #3a3d40;
  stroke-width: 2;
}
rect.terminal {
  fill: #ffffff;
}
rect.nonterminal {
  fill: #ffffff;
}
text.terminal {
  fill: #2f3337;
  font-weight: 600;
}
text.nonterminal {
  fill: #2563eb;
}
a text.nonterminal {
  text-decoration: underline;
}
path.line {
  fill: none;
  stroke: #3a3d40;
  stroke-width: 2;
}
polygon {
  fill: #2f3337;
  stroke: #2f3337;
}</style>
<polygon points="11 17 3 13 3 21"></polygon>
<polygon points="19 17 11 13 11 21"></polygon>
<rect height="32" rx="10" width="62" x="33" y="3"></rect>
<rect class="terminal" height="32" rx="10" width="62" x="31" y="1"></rect>
<text class="terminal" x="41" y="21">ALTER</text>
<rect height="32" rx="10" width="80" x="115" y="3"></rect>
<rect class="terminal" height="32" rx="10" width="80" x="113" y="1"></rect>
<text class="terminal" x="123" y="21">VIRTUAL</text>
<rect height="32" rx="10" width="82" x="215" y="3"></rect>
<rect class="terminal" height="32" rx="10" width="82" x="213" y="1"></rect>
<text class="terminal" x="223" y="21">CLUSTER</text>
<rect height="32" width="148" x="317" y="3"></rect>
<rect class="nonterminal" height="32" width="148" x="315" y="1"></rect>
<text lengthAdjust="spacingAndGlyphs" textLength="124" font-size="10" class="nonterminal" x="327" y="21">virtual_cluster_spec</text>
<rect height="32" rx="10" width="64" x="65" y="69"></rect>
<rect class="terminal" height="32" rx="10" width="64" x="63" y="67"></rect>
<text class="terminal" x="73" y="87">PAUSE</text>
<rect height="32" rx="10" width="76" x="65" y="113"></rect>
<rect class="terminal" height="32" rx="10" width="76" x="63" y="111"></rect>
<text class="terminal" x="73" y="131">RESUME</text>
<rect height="32" rx="10" width="114" x="181" y="69"></rect>
<rect class="terminal" height="32" rx="10" width="114" x="179" y="67"></rect>
<text class="terminal" x="189" y="87">REPLICATION</text>
<rect height="32" rx="10" width="92" x="45" y="157"></rect>
<rect class="terminal" height="32" rx="10" width="92" x="43" y="155"></rect>
<text class="terminal" x="53" y="175">COMPLETE</text>
<rect height="32" rx="10" width="114" x="157" y="157"></rect>
<rect class="terminal" height="32" rx="10" width="114" x="155" y="155"></rect>
<text class="terminal" x="165" y="175">REPLICATION</text>
<rect height="32" rx="10" width="38" x="291" y="157"></rect>
<rect class="terminal" height="32" rx="10" width="38" x="289" y="155"></rect>
<text class="terminal" x="299" y="175">TO</text>
<rect height="32" rx="10" width="74" x="369" y="157"></rect>
<rect class="terminal" height="32" rx="10" width="74" x="367" y="155"></rect>
<text class="terminal" x="377" y="175">SYSTEM</text>
<rect height="32" rx="10" width="54" x="463" y="157"></rect>
<rect class="terminal" height="32" rx="10" width="54" x="461" y="155"></rect>
<text class="terminal" x="471" y="175">TIME</text>
<rect height="32" width="88" x="537" y="157"></rect>
<rect class="nonterminal" height="32" width="88" x="535" y="155"></rect>
<text lengthAdjust="spacingAndGlyphs" textLength="64" font-size="11" class="nonterminal" x="547" y="175">timestamp</text>
<rect height="32" rx="10" width="70" x="369" y="201"></rect>
<rect class="terminal" height="32" rx="10" width="70" x="367" y="199"></rect>
<text class="terminal" x="377" y="219">LATEST</text>
<rect height="32" rx="10" width="44" x="45" y="289"></rect>
<rect class="terminal" height="32" rx="10" width="44" x="43" y="287"></rect>
<text class="terminal" x="53" y="307">SET</text>
<rect height="32" rx="10" width="114" x="109" y="289"></rect>
<rect class="terminal" height="32" rx="10" width="114" x="107" y="287"></rect>
<text class="terminal" x="117" y="307">REPLICATION</text>
<rect height="32" rx="10" width="100" x="283" y="289"></rect>
<rect class="terminal" height="32" rx="10" width="100" x="281" y="287"></rect>
<text class="terminal" x="291" y="307">RETENTION</text>
<rect height="32" rx="10" width="106" x="283" y="333"></rect>
<rect class="terminal" height="32" rx="10" width="106" x="281" y="331"></rect>
<text class="terminal" x="291" y="351">EXPIRATION</text>
<rect height="32" rx="10" width="86" x="409" y="333"></rect>
<rect class="terminal" height="32" rx="10" width="86" x="407" y="331"></rect>
<text class="terminal" x="417" y="351">WINDOW</text>
<rect height="32" rx="10" width="30" x="535" y="289"></rect>
<rect class="terminal" height="32" rx="10" width="30" x="533" y="287"></rect>
<text class="terminal" x="543" y="307">=</text>
<rect height="32" width="72" x="585" y="289"></rect>
<rect class="nonterminal" height="32" width="72" x="583" y="287"></rect>
<text lengthAdjust="spacingAndGlyphs" textLength="48" font-size="10" class="nonterminal" x="595" y="307">duration</text>
<rect height="32" rx="10" width="24" x="263" y="245"></rect>
<rect class="terminal" height="32" rx="10" width="24" x="261" y="243"></rect>
<text class="terminal" x="271" y="263">,</text>
<rect height="32" rx="10" width="64" x="45" y="421"></rect>
<rect class="terminal" height="32" rx="10" width="64" x="43" y="419"></rect>
<text class="terminal" x="53" y="439">START</text>
<rect height="32" rx="10" width="114" x="149" y="421"></rect>
<rect class="terminal" height="32" rx="10" width="114" x="147" y="419"></rect>
<text class="terminal" x="157" y="439">REPLICATION</text>
<rect height="32" rx="10" width="38" x="283" y="421"></rect>
<rect class="terminal" height="32" rx="10" width="38" x="281" y="419"></rect>
<text class="terminal" x="291" y="439">OF</text>
<rect height="32" width="148" x="341" y="421"></rect>
<rect class="nonterminal" height="32" width="148" x="339" y="419"></rect>
<text lengthAdjust="spacingAndGlyphs" textLength="124" font-size="10" class="nonterminal" x="351" y="439">virtual_cluster_spec</text>
<rect height="32" rx="10" width="40" x="509" y="421"></rect>
<rect class="terminal" height="32" rx="10" width="40" x="507" y="419"></rect>
<text class="terminal" x="517" y="439">ON</text>
<rect height="32" width="122" x="569" y="421"></rect>
<rect class="nonterminal" height="32" width="122" x="567" y="419"></rect>
<text lengthAdjust="spacingAndGlyphs" textLength="98" font-size="10" class="nonterminal" x="579" y="439">physical_cluster</text>
<rect height="32" rx="10" width="58" x="731" y="421"></rect>
<rect class="terminal" height="32" rx="10" width="58" x="729" y="419"></rect>
<text class="terminal" x="739" y="439">WITH</text>
<rect height="32" rx="10" width="100" x="869" y="421"></rect>
<rect class="terminal" height="32" rx="10" width="100" x="867" y="419"></rect>
<text class="terminal" x="877" y="439">RETENTION</text>
<rect height="32" rx="10" width="106" x="869" y="465"></rect>
<rect class="terminal" height="32" rx="10" width="106" x="867" y="463"></rect>
<text class="terminal" x="877" y="483">EXPIRATION</text>
<rect height="32" rx="10" width="86" x="995" y="465"></rect>
<rect class="terminal" height="32" rx="10" width="86" x="993" y="463"></rect>
<text class="terminal" x="1003" y="483">WINDOW</text>
<rect height="32" rx="10" width="30" x="1121" y="421"></rect>
<rect class="terminal" height="32" rx="10" width="30" x="1119" y="419"></rect>
<text class="terminal" x="1129" y="439">=</text>
<rect height="32" width="72" x="1171" y="421"></rect>
<rect class="nonterminal" height="32" width="72" x="1169" y="419"></rect>
<text lengthAdjust="spacingAndGlyphs" textLength="48" font-size="10" class="nonterminal" x="1181" y="439">duration</text>
<rect height="32" rx="10" width="24" x="849" y="377"></rect>
<rect class="terminal" height="32" rx="10" width="24" x="847" y="375"></rect>
<text class="terminal" x="857" y="395">,</text>
<rect height="32" rx="10" width="84" x="829" y="553"></rect>
<rect class="terminal" height="32" rx="10" width="84" x="827" y="551"></rect>
<text class="terminal" x="837" y="571">OPTIONS</text>
<rect height="32" rx="10" width="26" x="933" y="553"></rect>
<rect class="terminal" height="32" rx="10" width="26" x="931" y="551"></rect>
<text class="terminal" x="941" y="571">(</text>
<rect height="32" rx="10" width="100" x="1019" y="553"></rect>
<rect class="terminal" height="32" rx="10" width="100" x="1017" y="551"></rect>
<text class="terminal" x="1027" y="571">RETENTION</text>
<rect height="32" rx="10" width="106" x="1019" y="597"></rect>
<rect class="terminal" height="32" rx="10" width="106" x="1017" y="595"></rect>
<text class="terminal" x="1027" y="615">EXPIRATION</text>
<rect height="32" rx="10" width="86" x="1145" y="597"></rect>
<rect class="terminal" height="32" rx="10" width="86" x="1143" y="595"></rect>
<text class="terminal" x="1153" y="615">WINDOW</text>
<rect height="32" rx="10" width="30" x="1271" y="553"></rect>
<rect class="terminal" height="32" rx="10" width="30" x="1269" y="551"></rect>
<text class="terminal" x="1279" y="571">=</text>
<rect height="32" width="72" x="1321" y="553"></rect>
<rect class="nonterminal" height="32" width="72" x="1319" y="551"></rect>
<text lengthAdjust="spacingAndGlyphs" textLength="48" font-size="10" class="nonterminal" x="1331" y="571">duration</text>
<rect height="32" rx="10" width="24" x="999" y="509"></rect>
<rect class="terminal" height="32" rx="10" width="24" x="997" y="507"></rect>
<text class="terminal" x="1007" y="527">,</text>
<rect height="32" rx="10" width="26" x="1433" y="553"></rect>
<rect class="terminal" height="32" rx="10" width="26" x="1431" y="551"></rect>
<text class="terminal" x="1441" y="571">)</text>
<rect height="32" rx="10" width="78" x="149" y="663"></rect>
<rect class="terminal" height="32" rx="10" width="78" x="147" y="661"></rect>
<text class="terminal" x="157" y="681">SERVICE</text>
<rect height="32" rx="10" width="76" x="247" y="663"></rect>
<rect class="terminal" height="32" rx="10" width="76" x="245" y="661"></rect>
<text class="terminal" x="255" y="681">SHARED</text>
<rect height="32" rx="10" width="76" x="45" y="707"></rect>
<rect class="terminal" height="32" rx="10" width="76" x="43" y="705"></rect>
<text class="terminal" x="53" y="725">RENAME</text>
<rect height="32" rx="10" width="38" x="141" y="707"></rect>
<rect class="terminal" height="32" rx="10" width="38" x="139" y="705"></rect>
<text class="terminal" x="149" y="725">TO</text>
<rect height="32" width="148" x="199" y="707"></rect>
<rect class="nonterminal" height="32" width="148" x="197" y="705"></rect>
<text lengthAdjust="spacingAndGlyphs" textLength="124" font-size="10" class="nonterminal" x="209" y="725">virtual_cluster_spec</text>
<rect height="32" rx="10" width="56" x="45" y="751"></rect>
<rect class="terminal" height="32" rx="10" width="56" x="43" y="749"></rect>
<text class="terminal" x="53" y="769">STOP</text>
<rect height="32" rx="10" width="78" x="121" y="751"></rect>
<rect class="terminal" height="32" rx="10" width="78" x="119" y="749"></rect>
<text class="terminal" x="129" y="769">SERVICE</text>
<rect height="32" rx="10" width="66" x="65" y="795"></rect>
<rect class="terminal" height="32" rx="10" width="66" x="63" y="793"></rect>
<text class="terminal" x="73" y="813">GRANT</text>
<rect height="32" rx="10" width="74" x="65" y="839"></rect>
<rect class="terminal" height="32" rx="10" width="74" x="63" y="837"></rect>
<text class="terminal" x="73" y="857">REVOKE</text>
<rect height="32" rx="10" width="44" x="199" y="795"></rect>
<rect class="terminal" height="32" rx="10" width="44" x="197" y="793"></rect>
<text class="terminal" x="207" y="813">ALL</text>
<rect height="32" rx="10" width="118" x="263" y="795"></rect>
<rect class="terminal" height="32" rx="10" width="118" x="261" y="793"></rect>
<text class="terminal" x="271" y="813">CAPABILITIES</text>
<rect height="32" rx="10" width="104" x="199" y="839"></rect>
<rect class="terminal" height="32" rx="10" width="104" x="197" y="837"></rect>
<text class="terminal" x="207" y="857">CAPABILITY</text>
<rect height="32" width="204" x="323" y="839"></rect>
<rect class="nonterminal" height="32" width="204" x="321" y="837"></rect>
<text lengthAdjust="spacingAndGlyphs" textLength="180" font-size="10" class="nonterminal" x="333" y="857">virtual_cluster_capability_list</text>
<path class="line" d="m19 17 h2 m0 0 h10 m62 0 h10 m0 0 h10 m80 0 h10 m0 0 h10 m82 0 h10 m0 0 h10 m148 0 h10 m2 0 l2 0 m2 0 l2 0 m2 0 l2 0 m-484 66 l2 0 m2 0 l2 0 m2 0 l2 0 m42 0 h10 m64 0 h10 m0 0 h12 m-116 0 h20 m96 0 h20 m-136 0 q10 0 10 10 m116 0 q0 -10 10 -10 m-126 10 v24 m116 0 v-24 m-116 24 q0 10 10 10 m96 0 q10 0 10 -10 m-106 10 h10 m76 0 h10 m20 -44 h10 m114 0 h10 m0 0 h1224 m-1514 0 h20 m1494 0 h20 m-1534 0 q10 0 10 10 m1514 0 q0 -10 10 -10 m-1524 10 v68 m1514 0 v-68 m-1514 68 q0 10 10 10 m1494 0 q10 0 10 -10 m-1504 10 h10 m92 0 h10 m0 0 h10 m114 0 h10 m0 0 h10 m38 0 h10 m20 0 h10 m74 0 h10 m0 0 h10 m54 0 h10 m0 0 h10 m88 0 h10 m-296 0 h20 m276 0 h20 m-316 0 q10 0 10 10 m296 0 q0 -10 10 -10 m-306 10 v24 m296 0 v-24 m-296 24 q0 10 10 10 m276 0 q10 0 10 -10 m-286 10 h10 m70 0 h10 m0 0 h186 m20 -44 h874 m-1504 -10 v20 m1514 0 v-20 m-1514 20 v112 m1514 0 v-112 m-1514 112 q0 10 10 10 m1494 0 q10 0 10 -10 m-1504 10 h10 m44 0 h10 m0 0 h10 m114 0 h10 m40 0 h10 m100 0 h10 m0 0 h112 m-252 0 h20 m232 0 h20 m-272 0 q10 0 10 10 m252 0 q0 -10 10 -10 m-262 10 v24 m252 0 v-24 m-252 24 q0 10 10 10 m232 0 q10 0 10 -10 m-242 10 h10 m106 0 h10 m0 0 h10 m86 0 h10 m20 -44 h10 m30 0 h10 m0 0 h10 m72 0 h10 m-434 0 l20 0 m-1 0 q-9 0 -9 -10 l0 -24 q0 -10 10 -10 m414 44 l20 0 m-20 0 q10 0 10 -10 l0 -24 q0 -10 -10 -10 m-414 0 h10 m24 0 h10 m0 0 h370 m20 44 h842 m-1504 -10 v20 m1514 0 v-20 m-1514 20 v112 m1514 0 v-112 m-1514 112 q0 10 10 10 m1494 0 q10 0 10 -10 m-1504 10 h10 m64 0 h10 m20 0 h10 m114 0 h10 m0 0 h10 m38 0 h10 m0 0 h10 m148 0 h10 m0 0 h10 m40 0 h10 m0 0 h10 m122 0 h10 m20 0 h10 m58 0 h10 m60 0 h10 m100 0 h10 m0 0 h112 m-252 0 h20 m232 0 h20 m-272 0 q10 0 10 10 m252 0 q0 -10 10 -10 m-262 10 v24 m252 0 v-24 m-252 24 q0 10 10 10 m232 0 q10 0 10 -10 m-242 10 h10 m106 0 h10 m0 0 h10 m86 0 h10 m20 -44 h10 m30 0 h10 m0 0 h10 m72 0 h10 m-434 0 l20 0 m-1 0 q-9 0 -9 -10 l0 -24 q0 -10 10 -10 m414 44 l20 0 m-20 0 q10 0 10 -10 l0 -24 q0 -10 -10 -10 m-414 0 h10 m24 0 h10 m0 0 h370 m20 44 h196 m-670 0 h20 m650 0 h20 m-690 0 q10 0 10 10 m670 0 q0 -10 10 -10 m-680 10 v112 m670 0 v-112 m-670 112 q0 10 10 10 m650 0 q10 0 10 -10 m-660 10 h10 m84 0 h10 m0 0 h10 m26 0 h10 m40 0 h10 m100 0 h10 m0 0 h112 m-252 0 h20 m232 0 h20 m-272 0 q10 0 10 10 m252 0 q0 -10 10 -10 m-262 10 v24 m252 0 v-24 m-252 24 q0 10 10 10 m232 0 q10 0 10 -10 m-242 10 h10 m106 0 h10 m0 0 h10 m86 0 h10 m20 -44 h10 m30 0 h10 m0 0 h10 m72 0 h10 m-434 0 l20 0 m-1 0 q-9 0 -9 -10 l0 -24 q0 -10 10 -10 m414 44 l20 0 m-20 0 q10 0 10 -10 l0 -24 q0 -10 -10 -10 m-414 0 h10 m24 0 h10 m0 0 h370 m20 44 h10 m26 0 h10 m-768 -132 h20 m768 0 h20 m-808 0 q10 0 10 10 m788 0 q0 -10 10 -10 m-798 10 v190 m788 0 v-190 m-788 190 q0 10 10 10 m768 0 q10 0 10 -10 m-778 10 h10 m0 0 h758 m-1370 -210 h20 m1370 0 h20 m-1410 0 q10 0 10 10 m1390 0 q0 -10 10 -10 m-1400 10 v222 m1390 0 v-222 m-1390 222 q0 10 10 10 m1370 0 q10 0 10 -10 m-1380 10 h10 m78 0 h10 m0 0 h10 m76 0 h10 m0 0 h1176 m-1484 -252 v20 m1514 0 v-20 m-1514 20 v266 m1514 0 v-266 m-1514 266 q0 10 10 10 m1494 0 q10 0 10 -10 m-1504 10 h10 m76 0 h10 m0 0 h10 m38 0 h10 m0 0 h10 m148 0 h10 m0 0 h1172 m-1504 -10 v20 m1514 0 v-20 m-1514 20 v24 m1514 0 v-24 m-1514 24 q0 10 10 10 m1494 0 q10 0 10 -10 m-1504 10 h10 m56 0 h10 m0 0 h10 m78 0 h10 m0 0 h1320 m-1504 -10 v20 m1514 0 v-20 m-1514 20 v24 m1514 0 v-24 m-1514 24 q0 10 10 10 m1494 0 q10 0 10 -10 m-1484 10 h10 m66 0 h10 m0 0 h8 m-114 0 h20 m94 0 h20 m-134 0 q10 0 10 10 m114 0 q0 -10 10 -10 m-124 10 v24 m114 0 v-24 m-114 24 q0 10 10 10 m94 0 q10 0 10 -10 m-104 10 h10 m74 0 h10 m40 -44 h10 m44 0 h10 m0 0 h10 m118 0 h10 m0 0 h146 m-368 0 h20 m348 0 h20 m-388 0 q10 0 10 10 m368 0 q0 -10 10 -10 m-378 10 v24 m368 0 v-24 m-368 24 q0 10 10 10 m348 0 q10 0 10 -10 m-358 10 h10 m104 0 h10 m0 0 h10 m204 0 h10 m20 -44 h972 m23 -726 h-3"></path>
<polygon points="1557 83 1565 79 1565 87"></polygon>
<polygon points="1557 83 1549 79 1549 87"></polygon>
</svg>