<?xml version="1.0" encoding="UTF-8" standalone="no"?>
<svg
   xmlns:dc="http://purl.org/dc/elements/1.1/"
   xmlns:cc="http://creativecommons.org/ns#"
   xmlns:rdf="http://www.w3.org/1999/02/22-rdf-syntax-ns#"
   xmlns:svg="http://www.w3.org/2000/svg"
   xmlns="http://www.w3.org/2000/svg"
   height="1506"
   width="2480"
   xml:space="preserve"
   enable-background="new 0 0 1506 2480"
   viewBox="0 0 2480 1506"
   y="0px"
   x="0px"
   id="Layer_1"
   version="1.1"><metadata
     id="metadata68"><rdf:RDF><cc:Work
         rdf:about=""><dc:format>image/svg+xml</dc:format><dc:type
           rdf:resource="http://purl.org/dc/dcmitype/StillImage" /><dc:title></dc:title></cc:Work></rdf:RDF></metadata><defs
     id="defs66" /><g
     transform="matrix(0,1,-1,0,2480,0)"
     id="g3"><path
       style="clip-rule:evenodd;fill:#242424;fill-rule:evenodd"
       id="path5"
       d="m 111,0 1284,0 c 61.3,0 111,49.7 111,111 l 0,2258 c 0,61.3 -49.7,111 -111,111 l -1284,0 C 49.7,2480 0,2430.3 0,2369 L 0,111 C 0,49.7 49.7,0 111,0 Z" /><g
       id="g7"><g
         id="g9"><linearGradient
           y2="1.446972e-05"
           x2="753"
           y1="2480"
           x1="753"
           gradientUnits="userSpaceOnUse"
           id="SVGID_1_"><stop
             id="stop12"
             style="stop-color:#010101"
             offset="0" /><stop
             id="stop14"
             style="stop-color:#231F20"
             offset="1" /></linearGradient><path
           style="clip-rule:evenodd;fill:url(#SVGID_1_);fill-rule:evenodd"
           id="path16"
           d="M 1395,0 111,0 C 49.7,0 0,49.7 0,111 l 0,2258 c 0,61.3 49.7,111 111,111 l 1284,0 c 61.3,0 111,-49.7 111,-111 l 0,-2258 C 1506,49.7 1456.3,0 1395,0 Z m 102,2369 c 0,56.3 -45.7,102 -102,102 l -1284,0 C 54.7,2471 9,2425.3 9,2369 L 9,111 C 9,54.7 54.7,9 111,9 l 1284,0 c 56.3,0 102,45.7 102,102 l 0,2258 z" /></g></g><linearGradient
       y2="2497.696"
       x2="753.00012"
       y1="-2.6400001"
       x1="753.00012"
       gradientUnits="userSpaceOnUse"
       id="SVGID_2_"><stop
         id="stop19"
         style="stop-color:#010101"
         offset="0" /><stop
         id="stop21"
         style="stop-color:#231F20"
         offset="0.1216" /><stop
         id="stop23"
         style="stop-color:#424143"
         offset="0.4191" /><stop
         id="stop25"
         style="stop-color:#231F20"
         offset="0.5939" /><stop
         id="stop27"
         style="stop-color:#595A5C"
         offset="0.7351" /><stop
         id="stop29"
         style="stop-color:#231F20"
         offset="0.8599" /><stop
         id="stop31"
         style="stop-color:#818285"
         offset="0.9995" /></linearGradient><path
       style="fill:url(#SVGID_2_)"
       id="path33"
       d="m 1395,2473.5 -1284,0 C 53.4,2473.5 6.5,2426.6 6.5,2369 L 6.5,111 C 6.5,53.4 53.4,6.5 111,6.5 l 1284,0 c 57.6,0 104.5,46.9 104.5,104.5 l 0,2258 c 0,57.6 -46.9,104.5 -104.5,104.5 z M 111,11.5 C 56.1,11.5 11.5,56.1 11.5,111 l 0,2258 c 0,54.9 44.6,99.5 99.5,99.5 l 1284,0 c 54.9,0 99.5,-44.6 99.5,-99.5 l 0,-2258 c 0,-54.9 -44.6,-99.5 -99.5,-99.5 l -1284,0 z" /><linearGradient
       y2="2419.9075"
       x2="753"
       y1="31.058201"
       x1="753"
       gradientUnits="userSpaceOnUse"
       id="SVGID_3_"><stop
         id="stop36"
         style="stop-color:#010101"
         offset="0" /><stop
         id="stop38"
         style="stop-color:#231F20"
         offset="1" /></linearGradient><path
       style="clip-rule:evenodd;fill:url(#SVGID_3_);fill-rule:evenodd"
       id="path40"
       d="m 111,13 1284,0 c 54.1,0 98,43.9 98,98 l 0,2258 c 0,54.1 -43.9,98 -98,98 l -1284,0 c -54.1,0 -98,-43.9 -98,-98 L 13,111 C 13,56.9 56.9,13 111,13 Z" /><path
       style="clip-rule:evenodd;fill:#131313;fill-rule:evenodd"
       id="path42"
       d="m 153,280 1200,0 0,1920 -1200,0 0,-1920 z" /><radialGradient
       gradientUnits="userSpaceOnUse"
       r="20"
       cy="2334.2866"
       cx="753"
       id="SVGID_4_"><stop
         id="stop45"
         style="stop-color:#FFFFFF"
         offset="0" /><stop
         id="stop47"
         style="stop-color:#FFFFFF;stop-opacity:0"
         offset="1" /></radialGradient><path
       style="clip-rule:evenodd;opacity:0.5;fill:url(#SVGID_4_);fill-rule:evenodd"
       id="path49"
       d="m 753,2314.3 c 11,0 20,9 20,20 0,11 -9,20 -20,20 -11,0 -20,-9 -20,-20 0,-11 9,-20 20,-20 z" /><g
       id="g51"><path
         style="clip-rule:evenodd;opacity:0.2;fill:#ffffff;fill-rule:evenodd"
         id="path53"
         d="m 1214,177.5 c 11.6,0 21,9.4 21,21 0,11.6 -9.4,21 -21,21 -11.6,0 -21,-9.4 -21,-21 0,-11.6 9.4,-21 21,-21 z" /><radialGradient
         gradientUnits="userSpaceOnUse"
         r="21"
         cy="196.7729"
         cx="1214"
         id="SVGID_5_"><stop
           id="stop56"
           style="stop-color:#1E1E1E"
           offset="0.8601" /><stop
           id="stop58"
           style="stop-color:#010101"
           offset="1" /></radialGradient><path
         style="clip-rule:evenodd;fill:url(#SVGID_5_);fill-rule:evenodd"
         id="path60"
         d="m 1214,175.8 c 11.6,0 21,9.4 21,21 0,11.6 -9.4,21 -21,21 -11.6,0 -21,-9.4 -21,-21 0,-11.6 9.4,-21 21,-21 z" /></g><path
       style="clip-rule:evenodd;fill:#ffffff;fill-rule:evenodd"
       id="path62"
       d="m 1038.5,2138.5 0,-20 -47,0 0,-4 51,0 0,24 -4,0 z m -7,9 -55,0 0,-23 55,0 0,23 z m -4,-19 -47,0 0,15 47,0 0,-15 z m -311,19 0,-24 34,-12 36,12 0,24 -70,0 z m 66,-20 -32,-11 -30,11 0,16 62,0 0,-16 z m -266,20 c -0.3,0 -0.7,0 -1,0 l 0,0 -23,0 0,-4 23,0 0,0 c 0.2,0 0.3,0 0.5,0 4.1,0 7.5,-3.4 7.5,-7.5 0,-4.1 -3.4,-7.5 -7.5,-7.5 -0.2,0 -0.3,0 -0.5,0 l 0,0 -45.3,0 8.3,10 -5,0 -10,-12 10,-12 5,0 -8.3,10 45.3,0 0,0 c 0.3,0 0.7,0 1,0 6.1,0 11,5.1 11,11.5 0,6.4 -4.9,11.5 -11,11.5 z" /></g></svg>