<svg height="245" width="459" xmlns="http://www.w3.org/2000/svg"><style>svg {
  font-family: ui-monospace, SFMono-Regular, Menlo, Monaco, Consolas, "Liberation Mono", "Courier New", monospace;
}
text {
  fill: #2f3337;
  font-size: 14px;
}
rect {
  fill: #ffffff;
  stroke: #3a3d40;
  stroke-width: 2;
}
rect.terminal {
  fill: #ffffff;
}
rect.nonterminal {
  fill: #ffffff;
}
text.terminal {
  fill: #2f3337;
  font-weight: 600;
}
text.nonterminal {
  fill: #2563eb;
}
a text.nonterminal {
  text-decoration: underline;
}
path.line {
  fill: none;
  stroke: #3a3d40;
  stroke-width: 2;
}
polygon {
  fill: #2f3337;
  stroke: #2f3337;
}</style>
<polygon points="9 33 1 29 1 37"></polygon>
<polygon points="17 33 9 29 9 37"></polygon>
<rect height="32" rx="10" width="100" x="91" y="19"></rect>
<rect class="terminal" height="32" rx="10" width="100" x="89" y="17"></rect>
<text class="terminal" x="99" y="37">INCLUDING</text>
<rect height="32" rx="10" width="100" x="91" y="63"></rect>
<rect class="terminal" height="32" rx="10" width="100" x="89" y="61"></rect>
<text class="terminal" x="99" y="81">EXCLUDING</text>
<rect height="32" rx="10" width="120" x="251" y="19"></rect>
<rect class="terminal" height="32" rx="10" width="120" x="249" y="17"></rect>
<text class="terminal" x="259" y="37">CONSTRAINTS</text>
<rect height="32" rx="10" width="90" x="251" y="63"></rect>
<rect class="terminal" height="32" rx="10" width="90" x="249" y="61"></rect>
<text class="terminal" x="259" y="81">DEFAULTS</text>
<rect height="32" rx="10" width="100" x="251" y="107"></rect>
<rect class="terminal" height="32" rx="10" width="100" x="249" y="105"></rect>
<text class="terminal" x="259" y="125">GENERATED</text>
<rect height="32" rx="10" width="80" x="251" y="151"></rect>
<rect class="terminal" height="32" rx="10" width="80" x="249" y="149"></rect>
<text class="terminal" x="259" y="169">INDEXES</text>
<rect height="32" rx="10" width="44" x="251" y="195"></rect>
<rect class="terminal" height="32" rx="10" width="44" x="249" y="193"></rect>
<text class="terminal" x="259" y="213">ALL</text>
<path class="line" d="m17 33 h2 m60 0 h10 m100 0 h10 m-140 0 h20 m120 0 h20 m-160 0 q10 0 10 10 m140 0 q0 -10 10 -10 m-150 10 v24 m140 0 v-24 m-140 24 q0 10 10 10 m120 0 q10 0 10 -10 m-130 10 h10 m100 0 h10 m40 -44 h10 m120 0 h10 m-160 0 h20 m140 0 h20 m-180 0 q10 0 10 10 m160 0 q0 -10 10 -10 m-170 10 v24 m160 0 v-24 m-160 24 q0 10 10 10 m140 0 q10 0 10 -10 m-150 10 h10 m90 0 h10 m0 0 h30 m-150 -10 v20 m160 0 v-20 m-160 20 v24 m160 0 v-24 m-160 24 q0 10 10 10 m140 0 q10 0 10 -10 m-150 10 h10 m100 0 h10 m0 0 h20 m-150 -10 v20 m160 0 v-20 m-160 20 v24 m160 0 v-24 m-160 24 q0 10 10 10 m140 0 q10 0 10 -10 m-150 10 h10 m80 0 h10 m0 0 h40 m-150 -10 v20 m160 0 v-20 m-160 20 v24 m160 0 v-24 m-160 24 q0 10 10 10 m140 0 q10 0 10 -10 m-150 10 h10 m44 0 h10 m0 0 h76 m-340 -176 l20 0 m-1 0 q-9 0 -9 -10 l0 -12 q0 -10 10 -10 m340 32 l20 0 m-20 0 q10 0 10 -10 l0 -12 q0 -10 -10 -10 m-340 0 h10 m0 0 h330 m-380 32 h20 m380 0 h20 m-420 0 q10 0 10 10 m400 0 q0 -10 10 -10 m-410 10 v190 m400 0 v-190 m-400 190 q0 10 10 10 m380 0 q10 0 10 -10 m-390 10 h10 m0 0 h370 m23 -210 h-3"></path>
<polygon points="449 33 457 29 457 37"></polygon>
<polygon points="449 33 441 29 441 37"></polygon></svg>