<svg height="69" width="839" xmlns="http://www.w3.org/2000/svg"><style>svg {
  font-family: ui-monospace, SFMono-Regular, Menlo, Monaco, Consolas, "Liberation Mono", "Courier New", monospace;
}
text {
  fill: #2f3337;
  font-size: 14px;
}
rect {
  fill: #ffffff;
  stroke: #3a3d40;
  stroke-width: 2;
}
rect.terminal {
  fill: #ffffff;
}
rect.nonterminal {
  fill: #ffffff;
}
text.terminal {
  fill: #2f3337;
  font-weight: 600;
}
text.nonterminal {
  fill: #2563eb;
}
a text.nonterminal {
  text-decoration: underline;
}
path.line {
  fill: none;
  stroke: #3a3d40;
  stroke-width: 2;
}
polygon {
  fill: #2f3337;
  stroke: #2f3337;
}</style>
<polygon points="9 17 1 13 1 21"></polygon>
<polygon points="17 17 9 13 9 21"></polygon>
<rect height="32" rx="10" width="64" x="31" y="3"></rect>
<rect class="terminal" height="32" rx="10" width="64" x="29" y="1"></rect>
<text class="terminal" x="39" y="21">SHOW</text>
<rect height="32" rx="10" width="82" x="115" y="3"></rect>
<rect class="terminal" height="32" rx="10" width="82" x="113" y="1"></rect>
<text class="terminal" x="123" y="21">LOGICAL</text>
<rect height="32" rx="10" width="114" x="217" y="3"></rect>
<rect class="terminal" height="32" rx="10" width="114" x="215" y="1"></rect>
<text class="terminal" x="225" y="21">REPLICATION</text>
<rect height="32" rx="10" width="56" x="351" y="3"></rect>
<rect class="terminal" height="32" rx="10" width="56" x="349" y="1"></rect>
<text class="terminal" x="359" y="21">JOBS</text>
<rect height="32" rx="10" width="58" x="447" y="35"></rect>
<rect class="terminal" height="32" rx="10" width="58" x="445" y="33"></rect>
<text class="terminal" x="455" y="53">WITH</text>
<rect height="32" width="266" x="525" y="35"></rect>
<rect class="nonterminal" height="32" width="266" x="523" y="33"></rect>
<text lengthAdjust="spacingAndGlyphs" textLength="242" font-size="10" class="nonterminal" x="535" y="53">show_logical_replication_jobs_options</text>
<path class="line" d="m17 17 h2 m0 0 h10 m64 0 h10 m0 0 h10 m82 0 h10 m0 0 h10 m114 0 h10 m0 0 h10 m56 0 h10 m20 0 h10 m0 0 h354 m-384 0 h20 m364 0 h20 m-404 0 q10 0 10 10 m384 0 q0 -10 10 -10 m-394 10 v12 m384 0 v-12 m-384 12 q0 10 10 10 m364 0 q10 0 10 -10 m-374 10 h10 m58 0 h10 m0 0 h10 m266 0 h10 m23 -32 h-3"></path>
<polygon points="829 17 837 13 837 21"></polygon>
<polygon points="829 17 821 13 821 21"></polygon>
</svg>