<svg height="69" width="317" xmlns="http://www.w3.org/2000/svg"><style>svg {
  font-family: ui-monospace, SFMono-Regular, Menlo, Monaco, Consolas, "Liberation Mono", "Courier New", monospace;
}
text {
  fill: #2f3337;
  font-size: 14px;
}
rect {
  fill: #ffffff;
  stroke: #3a3d40;
  stroke-width: 2;
}
rect.terminal {
  fill: #ffffff;
}
rect.nonterminal {
  fill: #ffffff;
}
text.terminal {
  fill: #2f3337;
  font-weight: 600;
}
text.nonterminal {
  fill: #2563eb;
}
a text.nonterminal {
  text-decoration: underline;
}
path.line {
  fill: none;
  stroke: #3a3d40;
  stroke-width: 2;
}
polygon {
  fill: #2f3337;
  stroke: #2f3337;
}</style>
<polygon points="9 17 1 13 1 21"></polygon>
<polygon points="17 17 9 13 9 21"></polygon>
<rect height="32" rx="10" width="78" x="31" y="3"></rect>
<rect class="terminal" height="32" rx="10" width="78" x="29" y="1"></rect>
<text class="terminal" x="39" y="21">COMMIT</text>
<rect height="32" rx="10" width="120" x="149" y="35"></rect>
<rect class="terminal" height="32" rx="10" width="120" x="147" y="33"></rect>
<text class="terminal" x="157" y="53">TRANSACTION</text>
<path class="line" d="m17 17 h2 m0 0 h10 m78 0 h10 m20 0 h10 m0 0 h130 m-160 0 h20 m140 0 h20 m-180 0 q10 0 10 10 m160 0 q0 -10 10 -10 m-170 10 v12 m160 0 v-12 m-160 12 q0 10 10 10 m140 0 q10 0 10 -10 m-150 10 h10 m120 0 h10 m23 -32 h-3"></path>
<polygon points="307 17 315 13 315 21"></polygon>
<polygon points="307 17 299 13 299 21"></polygon></svg>