<svg xmlns="http://www.w3.org/2000/svg" version="1.1" width="477" height="144">
<path d="M 2.878906 52.319336 L 2.878906 45.412109 L 6.729980 45.412109 L 6.729980 46.335938 L 3.738281 46.335938 L 3.738281 52.319336 Z " fill="rgb(0, 0, 0)" fill-opacity="1.000000" />
<path d="M 2.878906 65.319336 L 2.878906 51.300781 L 3.738281 51.300781 L 3.738281 65.319336 Z " fill="rgb(0, 0, 0)" fill-opacity="1.000000" />
<path d="M 2.878906 78.319336 L 2.878906 64.300781 L 3.738281 64.300781 L 3.738281 78.319336 Z " fill="rgb(0, 0, 0)" fill-opacity="1.000000" />
<path d="M 2.878906 91.319336 L 2.878906 77.300781 L 3.738281 77.300781 L 3.738281 91.319336 Z " fill="rgb(0, 0, 0)" fill-opacity="1.000000" />
<path d="M 2.878906 98.335938 L 2.878906 90.300781 L 3.738281 90.300781 L 3.738281 97.412109 L 6.729980 97.412109 L 6.729980 98.335938 Z " fill="rgb(0, 0, 0)" fill-opacity="1.000000" />
<path d="M 282.878906 117.319336 L 282.878906 103.300781 L 283.738281 103.300781 L 283.738281 117.319336 Z " fill="rgb(0, 0, 0)" fill-opacity="1.000000" />
<path d="M 282.878906 130.319336 L 282.878906 116.300781 L 283.738281 116.300781 L 283.738281 130.319336 Z " fill="rgb(0, 0, 0)" fill-opacity="1.000000" />
<path d="M 282.878906 137.335938 L 282.878906 129.300781 L 283.738281 129.300781 L 283.738281 136.412109 L 286.729980 136.412109 L 286.729980 137.335938 Z " fill="rgb(0, 0, 0)" fill-opacity="1.000000" />
<path d="M 286.892578 137.335938 L 286.892578 136.412109 L 293.729980 136.412109 L 293.729980 137.335938 Z " fill="rgb(0, 0, 0)" fill-opacity="1.000000" />
<path d="M 293.892578 137.335938 L 293.892578 136.412109 L 300.729980 136.412109 L 300.729980 137.335938 Z " fill="rgb(0, 0, 0)" fill-opacity="1.000000" />
<path d="M 300.892578 137.335938 L 300.892578 136.412109 L 307.729980 136.412109 L 307.729980 137.335938 Z " fill="rgb(0, 0, 0)" fill-opacity="1.000000" />
<path d="M 307.892578 137.335938 L 307.892578 136.412109 L 314.729980 136.412109 L 314.729980 137.335938 Z " fill="rgb(0, 0, 0)" fill-opacity="1.000000" />
<path d="M 314.892578 137.335938 L 314.892578 136.412109 L 321.729980 136.412109 L 321.729980 137.335938 Z " fill="rgb(0, 0, 0)" fill-opacity="1.000000" />
<path d="M 321.892578 137.335938 L 321.892578 136.412109 L 328.729980 136.412109 L 328.729980 137.335938 Z " fill="rgb(0, 0, 0)" fill-opacity="1.000000" />
<path d="M 328.892578 137.335938 L 328.892578 136.412109 L 335.729980 136.412109 L 335.729980 137.335938 Z " fill="rgb(0, 0, 0)" fill-opacity="1.000000" />
<path d="M 335.892578 137.335938 L 335.892578 136.412109 L 342.729980 136.412109 L 342.729980 137.335938 Z " fill="rgb(0, 0, 0)" fill-opacity="1.000000" />
<path d="M 342.892578 137.335938 L 342.892578 136.412109 L 349.729980 136.412109 L 349.729980 137.335938 Z " fill="rgb(0, 0, 0)" fill-opacity="1.000000" />
<path d="M 349.892578 137.335938 L 349.892578 136.412109 L 356.729980 136.412109 L 356.729980 137.335938 Z " fill="rgb(0, 0, 0)" fill-opacity="1.000000" />
<path d="M 356.892578 137.335938 L 356.892578 136.412109 L 363.729980 136.412109 L 363.729980 137.335938 Z " fill="rgb(0, 0, 0)" fill-opacity="1.000000" />
<path d="M 363.892578 137.335938 L 363.892578 136.412109 L 370.729980 136.412109 L 370.729980 137.335938 Z " fill="rgb(0, 0, 0)" fill-opacity="1.000000" />
<path d="M 370.892578 137.335938 L 370.892578 136.412109 L 377.729980 136.412109 L 377.729980 137.335938 Z " fill="rgb(0, 0, 0)" fill-opacity="1.000000" />
<path d="M 377.892578 137.335938 L 377.892578 136.412109 L 380.878906 136.412109 L 380.878906 129.300781 L 381.738281 129.300781 L 381.738281 137.335938 Z " fill="rgb(0, 0, 0)" fill-opacity="1.000000" />
<path d="M 308.252441 105.980957 L 314.370117 105.980957 L 314.370117 106.894043 L 311.861816 106.894043 L 311.861816 114.000000 L 310.771484 114.000000 L 310.771484 106.894043 L 308.252441 106.894043 Z " fill="rgb(0, 0, 0)" fill-opacity="1.000000" />
<path d="M 380.878906 130.319336 L 380.878906 116.300781 L 381.738281 116.300781 L 381.738281 130.319336 Z " fill="rgb(0, 0, 0)" fill-opacity="1.000000" />
<path d="M 318.770508 110.976074 L 318.442871 110.976074 Q 317.578125 110.976074 317.140381 111.279541 Q 316.702637 111.583008 316.702637 112.184570 Q 316.702637 112.727051 317.030273 113.027832 Q 317.357910 113.328613 317.937988 113.328613 Q 318.754395 113.328613 319.221680 112.761963 Q 319.688965 112.195312 319.694336 111.196289 L 319.694336 110.976074 Z M 320.687988 110.567871 L 320.687988 114.000000 L 319.694336 114.000000 L 319.694336 113.108398 Q 319.377441 113.645508 318.896729 113.900635 Q 318.416016 114.155762 317.728516 114.155762 Q 316.810059 114.155762 316.262207 113.637451 Q 315.714355 113.119141 315.714355 112.249023 Q 315.714355 111.244629 316.388428 110.723633 Q 317.062500 110.202637 318.367676 110.202637 L 319.694336 110.202637 L 319.694336 110.046875 Q 319.688965 109.327148 319.329102 109.002197 Q 318.969238 108.677246 318.179688 108.677246 Q 317.674805 108.677246 317.159180 108.822266 Q 316.643555 108.967285 316.154785 109.246582 L 316.154785 108.258301 Q 316.702637 108.048828 317.204834 107.944092 Q 317.707031 107.839355 318.179688 107.839355 Q 318.926270 107.839355 319.455322 108.059570 Q 319.984375 108.279785 320.312012 108.720215 Q 320.516113 108.988770 320.602051 109.383545 Q 320.687988 109.778320 320.687988 110.567871 Z " fill="rgb(0, 0, 0)" fill-opacity="1.000000" />
<path d="M 328.203613 109.225098 Q 327.886719 108.978027 327.559082 108.865234 Q 327.231445 108.752441 326.839355 108.752441 Q 325.915527 108.752441 325.426758 109.332520 Q 324.937988 109.912598 324.937988 111.008301 L 324.937988 114.000000 L 323.944336 114.000000 L 323.944336 107.984375 L 324.937988 107.984375 L 324.937988 109.160645 Q 325.185059 108.521484 325.697998 108.180420 Q 326.210938 107.839355 326.914551 107.839355 Q 327.279785 107.839355 327.596680 107.930664 Q 327.913574 108.021973 328.203613 108.215332 Z " fill="rgb(0, 0, 0)" fill-opacity="1.000000" />
<path d="M 333.608398 110.943848 Q 333.608398 109.832031 333.245850 109.254639 Q 332.883301 108.677246 332.190430 108.677246 Q 331.465332 108.677246 331.083984 109.254639 Q 330.702637 109.832031 330.702637 110.943848 Q 330.702637 112.055664 331.086670 112.638428 Q 331.470703 113.221191 332.201172 113.221191 Q 332.883301 113.221191 333.245850 112.635742 Q 333.608398 112.050293 333.608398 110.943848 Z M 334.596680 113.613281 Q 334.596680 114.966797 333.957520 115.665039 Q 333.318359 116.363281 332.077637 116.363281 Q 331.669434 116.363281 331.223633 116.288086 Q 330.777832 116.212891 330.332031 116.067871 L 330.332031 115.090332 Q 330.858398 115.337402 331.288086 115.455566 Q 331.717773 115.573730 332.077637 115.573730 Q 332.877930 115.573730 333.243164 115.138672 Q 333.608398 114.703613 333.608398 113.758301 L 333.608398 113.715332 L 333.608398 113.043945 Q 333.372070 113.548828 332.963867 113.795898 Q 332.555664 114.042969 331.970215 114.042969 Q 330.917480 114.042969 330.289062 113.199707 Q 329.660645 112.356445 329.660645 110.943848 Q 329.660645 109.525879 330.289062 108.682617 Q 330.917480 107.839355 331.970215 107.839355 Q 332.550293 107.839355 332.953125 108.070312 Q 333.355957 108.301270 333.608398 108.784668 L 333.608398 108.005859 L 334.596680 108.005859 Z " fill="rgb(0, 0, 0)" fill-opacity="1.000000" />
<path d="M 342.015625 110.498047 L 342.015625 110.981445 L 337.734863 110.981445 L 337.734863 111.013672 Q 337.691895 112.243652 338.204834 112.780762 Q 338.717773 113.317871 339.652344 113.317871 Q 340.125000 113.317871 340.640625 113.167480 Q 341.156250 113.017090 341.741699 112.710938 L 341.741699 113.693848 Q 341.177734 113.924805 340.654053 114.040283 Q 340.130371 114.155762 339.641602 114.155762 Q 338.239746 114.155762 337.450195 113.315186 Q 336.660645 112.474609 336.660645 110.997559 Q 336.660645 109.558105 337.434082 108.698730 Q 338.207520 107.839355 339.496582 107.839355 Q 340.645996 107.839355 341.309326 108.618164 Q 341.972656 109.396973 342.015625 110.498047 Z M 341.027344 110.208008 Q 340.962891 109.584961 340.573486 109.131104 Q 340.184082 108.677246 339.453613 108.677246 Q 338.739258 108.677246 338.277344 109.149902 Q 337.815430 109.622559 337.772461 110.213379 Z " fill="rgb(0, 0, 0)" fill-opacity="1.000000" />
<path d="M 346.297852 106.276367 L 346.297852 107.984375 L 348.542969 107.984375 L 348.542969 108.752441 L 346.297852 108.752441 L 346.297852 112.018066 Q 346.297852 112.684082 346.550293 112.947266 Q 346.802734 113.210449 347.431152 113.210449 L 348.542969 113.210449 L 348.542969 114.000000 L 347.334473 114.000000 Q 346.222656 114.000000 345.766113 113.554199 Q 345.309570 113.108398 345.309570 112.018066 L 345.309570 108.752441 L 343.703613 108.752441 L 343.703613 107.984375 L 345.309570 107.984375 L 345.309570 106.276367 Z " fill="rgb(0, 0, 0)" fill-opacity="1.000000" />
<path d="M 380.878906 117.319336 L 380.878906 103.300781 L 381.738281 103.300781 L 381.738281 117.319336 Z " fill="rgb(0, 0, 0)" fill-opacity="1.000000" />
<path d="M 385.032227 111.142578 L 391.590332 107.866211 L 391.590332 114.418945 Z " fill="rgb(0, 0, 0)" fill-opacity="1.000000" />
<path d="M 391.892578 111.335938 L 391.892578 110.412109 L 398.729980 110.412109 L 398.729980 111.335938 Z " fill="rgb(0, 0, 0)" fill-opacity="1.000000" />
<path d="M 398.892578 111.335938 L 398.892578 110.412109 L 405.729980 110.412109 L 405.729980 111.335938 Z " fill="rgb(0, 0, 0)" fill-opacity="1.000000" />
<path d="M 405.892578 111.335938 L 405.892578 110.412109 L 408.878906 110.412109 L 408.878906 103.300781 L 409.738281 103.300781 L 409.738281 111.335938 Z " fill="rgb(0, 0, 0)" fill-opacity="1.000000" />
<path d="M 6.892578 98.335938 L 6.892578 97.412109 L 13.729980 97.412109 L 13.729980 98.335938 Z " fill="rgb(0, 0, 0)" fill-opacity="1.000000" />
<path d="M 13.892578 98.335938 L 13.892578 97.412109 L 20.729980 97.412109 L 20.729980 98.335938 Z " fill="rgb(0, 0, 0)" fill-opacity="1.000000" />
<path d="M 20.892578 98.335938 L 20.892578 97.412109 L 27.729980 97.412109 L 27.729980 98.335938 Z " fill="rgb(0, 0, 0)" fill-opacity="1.000000" />
<path d="M 27.892578 98.335938 L 27.892578 97.412109 L 34.729980 97.412109 L 34.729980 98.335938 Z " fill="rgb(0, 0, 0)" fill-opacity="1.000000" />
<path d="M 34.892578 98.335938 L 34.892578 97.412109 L 41.729980 97.412109 L 41.729980 98.335938 Z " fill="rgb(0, 0, 0)" fill-opacity="1.000000" />
<path d="M 41.892578 98.335938 L 41.892578 97.412109 L 48.729980 97.412109 L 48.729980 98.335938 Z " fill="rgb(0, 0, 0)" fill-opacity="1.000000" />
<path d="M 48.892578 98.335938 L 48.892578 97.412109 L 55.729980 97.412109 L 55.729980 98.335938 Z " fill="rgb(0, 0, 0)" fill-opacity="1.000000" />
<path d="M 55.892578 98.335938 L 55.892578 97.412109 L 62.729980 97.412109 L 62.729980 98.335938 Z " fill="rgb(0, 0, 0)" fill-opacity="1.000000" />
<path d="M 62.892578 98.335938 L 62.892578 97.412109 L 69.729980 97.412109 L 69.729980 98.335938 Z " fill="rgb(0, 0, 0)" fill-opacity="1.000000" />
<path d="M 69.892578 98.335938 L 69.892578 97.412109 L 76.729980 97.412109 L 76.729980 98.335938 Z " fill="rgb(0, 0, 0)" fill-opacity="1.000000" />
<path d="M 76.892578 98.335938 L 76.892578 97.412109 L 83.729980 97.412109 L 83.729980 98.335938 Z " fill="rgb(0, 0, 0)" fill-opacity="1.000000" />
<path d="M 83.892578 98.335938 L 83.892578 97.412109 L 90.729980 97.412109 L 90.729980 98.335938 Z " fill="rgb(0, 0, 0)" fill-opacity="1.000000" />
<path d="M 90.892578 98.335938 L 90.892578 97.412109 L 97.729980 97.412109 L 97.729980 98.335938 Z " fill="rgb(0, 0, 0)" fill-opacity="1.000000" />
<path d="M 97.892578 98.335938 L 97.892578 97.412109 L 100.878906 97.412109 L 100.878906 90.300781 L 101.738281 90.300781 L 101.738281 98.335938 Z " fill="rgb(0, 0, 0)" fill-opacity="1.000000" />
<path d="M 149.878906 98.335938 L 149.878906 90.300781 L 150.738281 90.300781 L 150.738281 97.412109 L 153.729980 97.412109 L 153.729980 98.335938 Z " fill="rgb(0, 0, 0)" fill-opacity="1.000000" />
<path d="M 153.892578 98.335938 L 153.892578 97.412109 L 160.729980 97.412109 L 160.729980 98.335938 Z " fill="rgb(0, 0, 0)" fill-opacity="1.000000" />
<path d="M 160.892578 98.335938 L 160.892578 97.412109 L 167.729980 97.412109 L 167.729980 98.335938 Z " fill="rgb(0, 0, 0)" fill-opacity="1.000000" />
<path d="M 167.892578 98.335938 L 167.892578 97.412109 L 174.729980 97.412109 L 174.729980 98.335938 Z " fill="rgb(0, 0, 0)" fill-opacity="1.000000" />
<path d="M 174.892578 98.335938 L 174.892578 97.412109 L 181.729980 97.412109 L 181.729980 98.335938 Z " fill="rgb(0, 0, 0)" fill-opacity="1.000000" />
<path d="M 181.892578 98.335938 L 181.892578 97.412109 L 188.729980 97.412109 L 188.729980 98.335938 Z " fill="rgb(0, 0, 0)" fill-opacity="1.000000" />
<path d="M 188.892578 98.335938 L 188.892578 97.412109 L 191.878906 97.412109 L 191.878906 90.300781 L 192.738281 90.300781 L 192.738281 98.335938 Z " fill="rgb(0, 0, 0)" fill-opacity="1.000000" />
<path d="M 282.878906 104.319336 L 282.878906 90.300781 L 283.738281 90.300781 L 283.738281 104.319336 Z " fill="rgb(0, 0, 0)" fill-opacity="1.000000" />
<path d="M 380.878906 104.319336 L 380.878906 90.300781 L 381.738281 90.300781 L 381.738281 104.319336 Z " fill="rgb(0, 0, 0)" fill-opacity="1.000000" />
<path d="M 408.878906 104.319336 L 408.878906 90.300781 L 409.738281 90.300781 L 409.738281 104.319336 Z " fill="rgb(0, 0, 0)" fill-opacity="1.000000" />
<path d="M 17.308594 67.937012 L 16.164551 72.040527 L 18.452637 72.040527 Z M 16.653320 66.980957 L 17.969238 66.980957 L 20.423828 75.000000 L 19.301270 75.000000 L 18.710449 72.910645 L 15.901367 72.910645 L 15.321289 75.000000 L 14.198730 75.000000 Z " fill="rgb(0, 0, 0)" fill-opacity="1.000000" />
<path d="M 100.878906 91.319336 L 100.878906 77.300781 L 101.738281 77.300781 L 101.738281 91.319336 Z " fill="rgb(0, 0, 0)" fill-opacity="1.000000" />
<path d="M 149.878906 91.319336 L 149.878906 77.300781 L 150.738281 77.300781 L 150.738281 91.319336 Z " fill="rgb(0, 0, 0)" fill-opacity="1.000000" />
<path d="M 191.878906 91.319336 L 191.878906 77.300781 L 192.738281 77.300781 L 192.738281 91.319336 Z " fill="rgb(0, 0, 0)" fill-opacity="1.000000" />
<path d="M 282.878906 91.319336 L 282.878906 84.412109 L 286.729980 84.412109 L 286.729980 85.335938 L 283.738281 85.335938 L 283.738281 91.319336 Z " fill="rgb(0, 0, 0)" fill-opacity="1.000000" />
<path d="M 286.892578 85.335938 L 286.892578 84.412109 L 293.729980 84.412109 L 293.729980 85.335938 Z " fill="rgb(0, 0, 0)" fill-opacity="1.000000" />
<path d="M 293.892578 85.335938 L 293.892578 84.412109 L 300.729980 84.412109 L 300.729980 85.335938 Z " fill="rgb(0, 0, 0)" fill-opacity="1.000000" />
<path d="M 300.892578 85.335938 L 300.892578 84.412109 L 307.729980 84.412109 L 307.729980 85.335938 Z " fill="rgb(0, 0, 0)" fill-opacity="1.000000" />
<path d="M 307.892578 85.335938 L 307.892578 84.412109 L 314.729980 84.412109 L 314.729980 85.335938 Z " fill="rgb(0, 0, 0)" fill-opacity="1.000000" />
<path d="M 314.892578 85.335938 L 314.892578 84.412109 L 321.729980 84.412109 L 321.729980 85.335938 Z " fill="rgb(0, 0, 0)" fill-opacity="1.000000" />
<path d="M 321.892578 85.335938 L 321.892578 84.412109 L 328.729980 84.412109 L 328.729980 85.335938 Z " fill="rgb(0, 0, 0)" fill-opacity="1.000000" />
<path d="M 328.892578 85.335938 L 328.892578 84.412109 L 335.729980 84.412109 L 335.729980 85.335938 Z " fill="rgb(0, 0, 0)" fill-opacity="1.000000" />
<path d="M 335.892578 85.335938 L 335.892578 84.412109 L 342.729980 84.412109 L 342.729980 85.335938 Z " fill="rgb(0, 0, 0)" fill-opacity="1.000000" />
<path d="M 342.892578 85.335938 L 342.892578 84.412109 L 349.729980 84.412109 L 349.729980 85.335938 Z " fill="rgb(0, 0, 0)" fill-opacity="1.000000" />
<path d="M 349.892578 85.335938 L 349.892578 84.412109 L 356.729980 84.412109 L 356.729980 85.335938 Z " fill="rgb(0, 0, 0)" fill-opacity="1.000000" />
<path d="M 356.892578 85.335938 L 356.892578 84.412109 L 363.729980 84.412109 L 363.729980 85.335938 Z " fill="rgb(0, 0, 0)" fill-opacity="1.000000" />
<path d="M 363.892578 85.335938 L 363.892578 84.412109 L 370.729980 84.412109 L 370.729980 85.335938 Z " fill="rgb(0, 0, 0)" fill-opacity="1.000000" />
<path d="M 370.892578 85.335938 L 370.892578 84.412109 L 377.729980 84.412109 L 377.729980 85.335938 Z " fill="rgb(0, 0, 0)" fill-opacity="1.000000" />
<path d="M 380.878906 91.319336 L 380.878906 85.335938 L 377.892578 85.335938 L 377.892578 84.412109 L 381.738281 84.412109 L 381.738281 91.319336 Z " fill="rgb(0, 0, 0)" fill-opacity="1.000000" />
<path d="M 408.878906 91.319336 L 408.878906 77.300781 L 409.738281 77.300781 L 409.738281 91.319336 Z " fill="rgb(0, 0, 0)" fill-opacity="1.000000" />
<path d="M 23.014160 74.242676 L 23.014160 77.288086 L 22.020508 77.288086 L 22.020508 68.984375 L 23.014160 68.984375 L 23.014160 69.752441 Q 23.261230 69.306641 23.672119 69.072998 Q 24.083008 68.839355 24.620117 68.839355 Q 25.710449 68.839355 26.330811 69.682617 Q 26.951172 70.525879 26.951172 72.019043 Q 26.951172 73.485352 26.328125 74.320557 Q 25.705078 75.155762 24.620117 75.155762 Q 24.072266 75.155762 23.661377 74.922119 Q 23.250488 74.688477 23.014160 74.242676 Z M 25.914551 71.997559 Q 25.914551 70.848145 25.552002 70.262695 Q 25.189453 69.677246 24.475098 69.677246 Q 23.755371 69.677246 23.384766 70.265381 Q 23.014160 70.853516 23.014160 71.997559 Q 23.014160 73.136230 23.384766 73.727051 Q 23.755371 74.317871 24.475098 74.317871 Q 25.189453 74.317871 25.552002 73.732422 Q 25.914551 73.146973 25.914551 71.997559 Z " fill="rgb(0, 0, 0)" fill-opacity="1.000000" />
<path d="M 30.014160 74.242676 L 30.014160 77.288086 L 29.020508 77.288086 L 29.020508 68.984375 L 30.014160 68.984375 L 30.014160 69.752441 Q 30.261230 69.306641 30.672119 69.072998 Q 31.083008 68.839355 31.620117 68.839355 Q 32.710449 68.839355 33.330811 69.682617 Q 33.951172 70.525879 33.951172 72.019043 Q 33.951172 73.485352 33.328125 74.320557 Q 32.705078 75.155762 31.620117 75.155762 Q 31.072266 75.155762 30.661377 74.922119 Q 30.250488 74.688477 30.014160 74.242676 Z M 32.914551 71.997559 Q 32.914551 70.848145 32.552002 70.262695 Q 32.189453 69.677246 31.475098 69.677246 Q 30.755371 69.677246 30.384766 70.265381 Q 30.014160 70.853516 30.014160 71.997559 Q 30.014160 73.136230 30.384766 73.727051 Q 30.755371 74.317871 31.475098 74.317871 Q 32.189453 74.317871 32.552002 73.732422 Q 32.914551 73.146973 32.914551 71.997559 Z " fill="rgb(0, 0, 0)" fill-opacity="1.000000" />
<path d="M 38.861816 72.824707 Q 38.861816 73.490723 39.106201 73.829102 Q 39.350586 74.167480 39.828613 74.167480 L 40.983398 74.167480 L 40.983398 75.000000 L 39.731934 75.000000 Q 38.845703 75.000000 38.359619 74.433350 Q 37.873535 73.866699 37.873535 72.824707 L 37.873535 67.383789 L 36.289062 67.383789 L 36.289062 66.610352 L 38.861816 66.610352 Z " fill="rgb(0, 0, 0)" fill-opacity="1.000000" />
<path d="M 43.697266 69.005859 L 46.227051 69.005859 L 46.227051 74.231934 L 48.187500 74.231934 L 48.187500 75.000000 L 43.278320 75.000000 L 43.278320 74.231934 L 45.238770 74.231934 L 45.238770 69.773926 L 43.697266 69.773926 Z M 45.238770 66.669434 L 46.227051 66.669434 L 46.227051 67.915527 L 45.238770 67.915527 Z " fill="rgb(0, 0, 0)" fill-opacity="1.000000" />
<path d="M 54.698730 74.693848 Q 54.301270 74.924805 53.879639 75.040283 Q 53.458008 75.155762 53.017578 75.155762 Q 51.621094 75.155762 50.834229 74.317871 Q 50.047363 73.479980 50.047363 71.997559 Q 50.047363 70.515137 50.834229 69.677246 Q 51.621094 68.839355 53.017578 68.839355 Q 53.452637 68.839355 53.866211 68.952148 Q 54.279785 69.064941 54.698730 69.301270 L 54.698730 70.337891 Q 54.306641 69.988770 53.911865 69.833008 Q 53.517090 69.677246 53.017578 69.677246 Q 52.088379 69.677246 51.588867 70.278809 Q 51.089355 70.880371 51.089355 71.997559 Q 51.089355 73.109375 51.591553 73.713623 Q 52.093750 74.317871 53.017578 74.317871 Q 53.533203 74.317871 53.941406 74.159424 Q 54.349609 74.000977 54.698730 73.667969 Z " fill="rgb(0, 0, 0)" fill-opacity="1.000000" />
<path d="M 59.770508 71.976074 L 59.442871 71.976074 Q 58.578125 71.976074 58.140381 72.279541 Q 57.702637 72.583008 57.702637 73.184570 Q 57.702637 73.727051 58.030273 74.027832 Q 58.357910 74.328613 58.937988 74.328613 Q 59.754395 74.328613 60.221680 73.761963 Q 60.688965 73.195312 60.694336 72.196289 L 60.694336 71.976074 Z M 61.687988 71.567871 L 61.687988 75.000000 L 60.694336 75.000000 L 60.694336 74.108398 Q 60.377441 74.645508 59.896729 74.900635 Q 59.416016 75.155762 58.728516 75.155762 Q 57.810059 75.155762 57.262207 74.637451 Q 56.714355 74.119141 56.714355 73.249023 Q 56.714355 72.244629 57.388428 71.723633 Q 58.062500 71.202637 59.367676 71.202637 L 60.694336 71.202637 L 60.694336 71.046875 Q 60.688965 70.327148 60.329102 70.002197 Q 59.969238 69.677246 59.179688 69.677246 Q 58.674805 69.677246 58.159180 69.822266 Q 57.643555 69.967285 57.154785 70.246582 L 57.154785 69.258301 Q 57.702637 69.048828 58.204834 68.944092 Q 58.707031 68.839355 59.179688 68.839355 Q 59.926270 68.839355 60.455322 69.059570 Q 60.984375 69.279785 61.312012 69.720215 Q 61.516113 69.988770 61.602051 70.383545 Q 61.687988 70.778320 61.687988 71.567871 Z " fill="rgb(0, 0, 0)" fill-opacity="1.000000" />
<path d="M 66.297852 67.276367 L 66.297852 68.984375 L 68.542969 68.984375 L 68.542969 69.752441 L 66.297852 69.752441 L 66.297852 73.018066 Q 66.297852 73.684082 66.550293 73.947266 Q 66.802734 74.210449 67.431152 74.210449 L 68.542969 74.210449 L 68.542969 75.000000 L 67.334473 75.000000 Q 66.222656 75.000000 65.766113 74.554199 Q 65.309570 74.108398 65.309570 73.018066 L 65.309570 69.752441 L 63.703613 69.752441 L 63.703613 68.984375 L 65.309570 68.984375 L 65.309570 67.276367 Z " fill="rgb(0, 0, 0)" fill-opacity="1.000000" />
<path d="M 71.697266 69.005859 L 74.227051 69.005859 L 74.227051 74.231934 L 76.187500 74.231934 L 76.187500 75.000000 L 71.278320 75.000000 L 71.278320 74.231934 L 73.238770 74.231934 L 73.238770 69.773926 L 71.697266 69.773926 Z M 73.238770 66.669434 L 74.227051 66.669434 L 74.227051 67.915527 L 73.238770 67.915527 Z " fill="rgb(0, 0, 0)" fill-opacity="1.000000" />
<path d="M 80.308594 69.677246 Q 79.556641 69.677246 79.169922 70.262695 Q 78.783203 70.848145 78.783203 71.997559 Q 78.783203 73.141602 79.169922 73.729736 Q 79.556641 74.317871 80.308594 74.317871 Q 81.065918 74.317871 81.452637 73.729736 Q 81.839355 73.141602 81.839355 71.997559 Q 81.839355 70.848145 81.452637 70.262695 Q 81.065918 69.677246 80.308594 69.677246 Z M 80.308594 68.839355 Q 81.560059 68.839355 82.223389 69.650391 Q 82.886719 70.461426 82.886719 71.997559 Q 82.886719 73.539062 82.226074 74.347412 Q 81.565430 75.155762 80.308594 75.155762 Q 79.057129 75.155762 78.396484 74.347412 Q 77.735840 73.539062 77.735840 71.997559 Q 77.735840 70.461426 78.396484 69.650391 Q 79.057129 68.839355 80.308594 68.839355 Z " fill="rgb(0, 0, 0)" fill-opacity="1.000000" />
<path d="M 89.645020 71.272461 L 89.645020 75.000000 L 88.651367 75.000000 L 88.651367 71.272461 Q 88.651367 70.461426 88.366699 70.080078 Q 88.082031 69.698730 87.475098 69.698730 Q 86.782227 69.698730 86.408936 70.190186 Q 86.035645 70.681641 86.035645 71.600098 L 86.035645 75.000000 L 85.047363 75.000000 L 85.047363 68.984375 L 86.035645 68.984375 L 86.035645 69.886719 Q 86.298828 69.371094 86.750000 69.105225 Q 87.201172 68.839355 87.818848 68.839355 Q 88.737305 68.839355 89.191162 69.443604 Q 89.645020 70.047852 89.645020 71.272461 Z " fill="rgb(0, 0, 0)" fill-opacity="1.000000" />
<path d="M 100.878906 78.319336 L 100.878906 64.300781 L 101.738281 64.300781 L 101.738281 71.412109 L 104.729980 71.412109 L 104.729980 72.335938 L 101.738281 72.335938 L 101.738281 78.319336 Z " fill="rgb(0, 0, 0)" fill-opacity="1.000000" />
<path d="M 104.892578 72.335938 L 104.892578 71.412109 L 111.729980 71.412109 L 111.729980 72.335938 Z " fill="rgb(0, 0, 0)" fill-opacity="1.000000" />
<path d="M 111.892578 72.335938 L 111.892578 71.412109 L 118.729980 71.412109 L 118.729980 72.335938 Z " fill="rgb(0, 0, 0)" fill-opacity="1.000000" />
<path d="M 118.892578 72.335938 L 118.892578 71.412109 L 125.729980 71.412109 L 125.729980 72.335938 Z " fill="rgb(0, 0, 0)" fill-opacity="1.000000" />
<path d="M 125.892578 72.335938 L 125.892578 71.412109 L 132.729980 71.412109 L 132.729980 72.335938 Z " fill="rgb(0, 0, 0)" fill-opacity="1.000000" />
<path d="M 132.892578 72.335938 L 132.892578 71.412109 L 139.729980 71.412109 L 139.729980 72.335938 Z " fill="rgb(0, 0, 0)" fill-opacity="1.000000" />
<path d="M 140.032227 75.418945 L 140.032227 68.866211 L 146.590332 72.142578 Z " fill="rgb(0, 0, 0)" fill-opacity="1.000000" />
<path d="M 149.878906 78.319336 L 149.878906 64.300781 L 150.738281 64.300781 L 150.738281 78.319336 Z " fill="rgb(0, 0, 0)" fill-opacity="1.000000" />
<path d="M 162.154785 66.980957 L 163.245117 66.980957 L 163.245117 74.086914 L 167.117676 74.086914 L 167.117676 75.000000 L 162.154785 75.000000 Z " fill="rgb(0, 0, 0)" fill-opacity="1.000000" />
<path d="M 168.193359 67.007812 L 169.643555 67.007812 L 171.029297 71.079102 L 172.425781 67.007812 L 173.881348 67.007812 L 173.881348 75.000000 L 172.876953 75.000000 L 172.876953 67.937012 L 171.448242 72.147949 L 170.626465 72.147949 L 169.192383 67.937012 L 169.192383 75.000000 L 168.193359 75.000000 Z " fill="rgb(0, 0, 0)" fill-opacity="1.000000" />
<path d="M 180.435547 67.254883 L 180.435547 68.355957 Q 179.941406 68.039062 179.444580 67.877930 Q 178.947754 67.716797 178.442871 67.716797 Q 177.674805 67.716797 177.229004 68.073975 Q 176.783203 68.431152 176.783203 69.038086 Q 176.783203 69.569824 177.075928 69.849121 Q 177.368652 70.128418 178.168945 70.316406 L 178.738281 70.445312 Q 179.866211 70.708496 180.381836 71.272461 Q 180.897461 71.836426 180.897461 72.808594 Q 180.897461 73.952637 180.188477 74.554199 Q 179.479492 75.155762 178.125977 75.155762 Q 177.562012 75.155762 176.992676 75.034912 Q 176.423340 74.914062 175.848633 74.672363 L 175.848633 73.517578 Q 176.466309 73.909668 177.016846 74.092285 Q 177.567383 74.274902 178.125977 74.274902 Q 178.947754 74.274902 179.404297 73.906982 Q 179.860840 73.539062 179.860840 72.878418 Q 179.860840 72.276855 179.546631 71.959961 Q 179.232422 71.643066 178.453613 71.471191 L 177.873535 71.336914 Q 176.756348 71.084473 176.251465 70.574219 Q 175.746582 70.063965 175.746582 69.204590 Q 175.746582 68.130371 176.468994 67.483154 Q 177.191406 66.835938 178.389160 66.835938 Q 178.851074 66.835938 179.361328 66.940674 Q 179.871582 67.045410 180.435547 67.254883 Z " fill="rgb(0, 0, 0)" fill-opacity="1.000000" />
<path d="M 191.878906 78.319336 L 191.878906 64.300781 L 192.738281 64.300781 L 192.738281 71.412109 L 195.729980 71.412109 L 195.729980 72.335938 L 192.738281 72.335938 L 192.738281 78.319336 Z " fill="rgb(0, 0, 0)" fill-opacity="1.000000" />
<path d="M 195.892578 72.335938 L 195.892578 71.412109 L 202.729980 71.412109 L 202.729980 72.335938 Z " fill="rgb(0, 0, 0)" fill-opacity="1.000000" />
<path d="M 202.892578 72.335938 L 202.892578 71.412109 L 209.729980 71.412109 L 209.729980 72.335938 Z " fill="rgb(0, 0, 0)" fill-opacity="1.000000" />
<path d="M 209.892578 72.335938 L 209.892578 71.412109 L 216.729980 71.412109 L 216.729980 72.335938 Z " fill="rgb(0, 0, 0)" fill-opacity="1.000000" />
<path d="M 216.892578 72.335938 L 216.892578 71.412109 L 223.729980 71.412109 L 223.729980 72.335938 Z " fill="rgb(0, 0, 0)" fill-opacity="1.000000" />
<path d="M 223.892578 72.335938 L 223.892578 71.412109 L 230.729980 71.412109 L 230.729980 72.335938 Z " fill="rgb(0, 0, 0)" fill-opacity="1.000000" />
<path d="M 230.892578 72.335938 L 230.892578 71.412109 L 233.878906 71.412109 L 233.878906 64.300781 L 234.738281 64.300781 L 234.738281 72.335938 Z " fill="rgb(0, 0, 0)" fill-opacity="1.000000" />
<path d="M 403.082031 71.213379 Q 403.500977 71.320801 403.796387 71.618896 Q 404.091797 71.916992 404.532227 72.808594 L 405.622559 75.000000 L 404.457031 75.000000 L 403.500977 72.975098 Q 403.087402 72.110352 402.757080 71.860596 Q 402.426758 71.610840 401.895020 71.610840 L 400.858398 71.610840 L 400.858398 75.000000 L 399.768066 75.000000 L 399.768066 66.980957 L 402.002441 66.980957 Q 403.323730 66.980957 404.027344 67.577148 Q 404.730957 68.173340 404.730957 69.301270 Q 404.730957 70.096191 404.298584 70.598389 Q 403.866211 71.100586 403.082031 71.213379 Z M 400.858398 67.872559 L 400.858398 70.719238 L 402.045410 70.719238 Q 402.824219 70.719238 403.205566 70.370117 Q 403.586914 70.020996 403.586914 69.301270 Q 403.586914 68.608398 403.181396 68.240479 Q 402.775879 67.872559 402.002441 67.872559 Z " fill="rgb(0, 0, 0)" fill-opacity="1.000000" />
<path d="M 412.015625 71.498047 L 412.015625 71.981445 L 407.734863 71.981445 L 407.734863 72.013672 Q 407.691895 73.243652 408.204834 73.780762 Q 408.717773 74.317871 409.652344 74.317871 Q 410.125000 74.317871 410.640625 74.167480 Q 411.156250 74.017090 411.741699 73.710938 L 411.741699 74.693848 Q 411.177734 74.924805 410.654053 75.040283 Q 410.130371 75.155762 409.641602 75.155762 Q 408.239746 75.155762 407.450195 74.315186 Q 406.660645 73.474609 406.660645 71.997559 Q 406.660645 70.558105 407.434082 69.698730 Q 408.207520 68.839355 409.496582 68.839355 Q 410.645996 68.839355 411.309326 69.618164 Q 411.972656 70.396973 412.015625 71.498047 Z M 411.027344 71.208008 Q 410.962891 70.584961 410.573486 70.131104 Q 410.184082 69.677246 409.453613 69.677246 Q 408.739258 69.677246 408.277344 70.149902 Q 407.815430 70.622559 407.772461 71.213379 Z " fill="rgb(0, 0, 0)" fill-opacity="1.000000" />
<path d="M 415.014160 74.242676 L 415.014160 77.288086 L 414.020508 77.288086 L 414.020508 68.984375 L 415.014160 68.984375 L 415.014160 69.752441 Q 415.261230 69.306641 415.672119 69.072998 Q 416.083008 68.839355 416.620117 68.839355 Q 417.710449 68.839355 418.330811 69.682617 Q 418.951172 70.525879 418.951172 72.019043 Q 418.951172 73.485352 418.328125 74.320557 Q 417.705078 75.155762 416.620117 75.155762 Q 416.072266 75.155762 415.661377 74.922119 Q 415.250488 74.688477 415.014160 74.242676 Z M 417.914551 71.997559 Q 417.914551 70.848145 417.552002 70.262695 Q 417.189453 69.677246 416.475098 69.677246 Q 415.755371 69.677246 415.384766 70.265381 Q 415.014160 70.853516 415.014160 71.997559 Q 415.014160 73.136230 415.384766 73.727051 Q 415.755371 74.317871 416.475098 74.317871 Q 417.189453 74.317871 417.552002 73.732422 Q 417.914551 73.146973 417.914551 71.997559 Z " fill="rgb(0, 0, 0)" fill-opacity="1.000000" />
<path d="M 423.861816 72.824707 Q 423.861816 73.490723 424.106201 73.829102 Q 424.350586 74.167480 424.828613 74.167480 L 425.983398 74.167480 L 425.983398 75.000000 L 424.731934 75.000000 Q 423.845703 75.000000 423.359619 74.433350 Q 422.873535 73.866699 422.873535 72.824707 L 422.873535 67.383789 L 421.289062 67.383789 L 421.289062 66.610352 L 423.861816 66.610352 Z " fill="rgb(0, 0, 0)" fill-opacity="1.000000" />
<path d="M 428.697266 69.005859 L 431.227051 69.005859 L 431.227051 74.231934 L 433.187500 74.231934 L 433.187500 75.000000 L 428.278320 75.000000 L 428.278320 74.231934 L 430.238770 74.231934 L 430.238770 69.773926 L 428.697266 69.773926 Z M 430.238770 66.669434 L 431.227051 66.669434 L 431.227051 67.915527 L 430.238770 67.915527 Z " fill="rgb(0, 0, 0)" fill-opacity="1.000000" />
<path d="M 439.698730 74.693848 Q 439.301270 74.924805 438.879639 75.040283 Q 438.458008 75.155762 438.017578 75.155762 Q 436.621094 75.155762 435.834229 74.317871 Q 435.047363 73.479980 435.047363 71.997559 Q 435.047363 70.515137 435.834229 69.677246 Q 436.621094 68.839355 438.017578 68.839355 Q 438.452637 68.839355 438.866211 68.952148 Q 439.279785 69.064941 439.698730 69.301270 L 439.698730 70.337891 Q 439.306641 69.988770 438.911865 69.833008 Q 438.517090 69.677246 438.017578 69.677246 Q 437.088379 69.677246 436.588867 70.278809 Q 436.089355 70.880371 436.089355 71.997559 Q 436.089355 73.109375 436.591553 73.713623 Q 437.093750 74.317871 438.017578 74.317871 Q 438.533203 74.317871 438.941406 74.159424 Q 439.349609 74.000977 439.698730 73.667969 Z " fill="rgb(0, 0, 0)" fill-opacity="1.000000" />
<path d="M 444.770508 71.976074 L 444.442871 71.976074 Q 443.578125 71.976074 443.140381 72.279541 Q 442.702637 72.583008 442.702637 73.184570 Q 442.702637 73.727051 443.030273 74.027832 Q 443.357910 74.328613 443.937988 74.328613 Q 444.754395 74.328613 445.221680 73.761963 Q 445.688965 73.195312 445.694336 72.196289 L 445.694336 71.976074 Z M 446.687988 71.567871 L 446.687988 75.000000 L 445.694336 75.000000 L 445.694336 74.108398 Q 445.377441 74.645508 444.896729 74.900635 Q 444.416016 75.155762 443.728516 75.155762 Q 442.810059 75.155762 442.262207 74.637451 Q 441.714355 74.119141 441.714355 73.249023 Q 441.714355 72.244629 442.388428 71.723633 Q 443.062500 71.202637 444.367676 71.202637 L 445.694336 71.202637 L 445.694336 71.046875 Q 445.688965 70.327148 445.329102 70.002197 Q 444.969238 69.677246 444.179688 69.677246 Q 443.674805 69.677246 443.159180 69.822266 Q 442.643555 69.967285 442.154785 70.246582 L 442.154785 69.258301 Q 442.702637 69.048828 443.204834 68.944092 Q 443.707031 68.839355 444.179688 68.839355 Q 444.926270 68.839355 445.455322 69.059570 Q 445.984375 69.279785 446.312012 69.720215 Q 446.516113 69.988770 446.602051 70.383545 Q 446.687988 70.778320 446.687988 71.567871 Z " fill="rgb(0, 0, 0)" fill-opacity="1.000000" />
<path d="M 451.297852 67.276367 L 451.297852 68.984375 L 453.542969 68.984375 L 453.542969 69.752441 L 451.297852 69.752441 L 451.297852 73.018066 Q 451.297852 73.684082 451.550293 73.947266 Q 451.802734 74.210449 452.431152 74.210449 L 453.542969 74.210449 L 453.542969 75.000000 L 452.334473 75.000000 Q 451.222656 75.000000 450.766113 74.554199 Q 450.309570 74.108398 450.309570 73.018066 L 450.309570 69.752441 L 448.703613 69.752441 L 448.703613 68.984375 L 450.309570 68.984375 L 450.309570 67.276367 Z " fill="rgb(0, 0, 0)" fill-opacity="1.000000" />
<path d="M 456.697266 69.005859 L 459.227051 69.005859 L 459.227051 74.231934 L 461.187500 74.231934 L 461.187500 75.000000 L 456.278320 75.000000 L 456.278320 74.231934 L 458.238770 74.231934 L 458.238770 69.773926 L 456.697266 69.773926 Z M 458.238770 66.669434 L 459.227051 66.669434 L 459.227051 67.915527 L 458.238770 67.915527 Z " fill="rgb(0, 0, 0)" fill-opacity="1.000000" />
<path d="M 465.308594 69.677246 Q 464.556641 69.677246 464.169922 70.262695 Q 463.783203 70.848145 463.783203 71.997559 Q 463.783203 73.141602 464.169922 73.729736 Q 464.556641 74.317871 465.308594 74.317871 Q 466.065918 74.317871 466.452637 73.729736 Q 466.839355 73.141602 466.839355 71.997559 Q 466.839355 70.848145 466.452637 70.262695 Q 466.065918 69.677246 465.308594 69.677246 Z M 465.308594 68.839355 Q 466.560059 68.839355 467.223389 69.650391 Q 467.886719 70.461426 467.886719 71.997559 Q 467.886719 73.539062 467.226074 74.347412 Q 466.565430 75.155762 465.308594 75.155762 Q 464.057129 75.155762 463.396484 74.347412 Q 462.735840 73.539062 462.735840 71.997559 Q 462.735840 70.461426 463.396484 69.650391 Q 464.057129 68.839355 465.308594 68.839355 Z " fill="rgb(0, 0, 0)" fill-opacity="1.000000" />
<path d="M 474.645020 71.272461 L 474.645020 75.000000 L 473.651367 75.000000 L 473.651367 71.272461 Q 473.651367 70.461426 473.366699 70.080078 Q 473.082031 69.698730 472.475098 69.698730 Q 471.782227 69.698730 471.408936 70.190186 Q 471.035645 70.681641 471.035645 71.600098 L 471.035645 75.000000 L 470.047363 75.000000 L 470.047363 68.984375 L 471.035645 68.984375 L 471.035645 69.886719 Q 471.298828 69.371094 471.750000 69.105225 Q 472.201172 68.839355 472.818848 68.839355 Q 473.737305 68.839355 474.191162 69.443604 Q 474.645020 70.047852 474.645020 71.272461 Z " fill="rgb(0, 0, 0)" fill-opacity="1.000000" />
<path d="M 100.878906 65.319336 L 100.878906 51.300781 L 101.738281 51.300781 L 101.738281 65.319336 Z " fill="rgb(0, 0, 0)" fill-opacity="1.000000" />
<path d="M 149.878906 65.319336 L 149.878906 51.300781 L 150.738281 51.300781 L 150.738281 65.319336 Z " fill="rgb(0, 0, 0)" fill-opacity="1.000000" />
<path d="M 191.878906 65.319336 L 191.878906 51.300781 L 192.738281 51.300781 L 192.738281 65.319336 Z " fill="rgb(0, 0, 0)" fill-opacity="1.000000" />
<path d="M 233.878906 65.319336 L 233.878906 51.300781 L 234.738281 51.300781 L 234.738281 65.319336 Z " fill="rgb(0, 0, 0)" fill-opacity="1.000000" />
<path d="M 282.878906 59.335938 L 282.878906 51.300781 L 283.738281 51.300781 L 283.738281 58.412109 L 286.729980 58.412109 L 286.729980 59.335938 Z " fill="rgb(0, 0, 0)" fill-opacity="1.000000" />
<path d="M 286.892578 59.335938 L 286.892578 58.412109 L 293.729980 58.412109 L 293.729980 59.335938 Z " fill="rgb(0, 0, 0)" fill-opacity="1.000000" />
<path d="M 293.892578 59.335938 L 293.892578 58.412109 L 300.729980 58.412109 L 300.729980 59.335938 Z " fill="rgb(0, 0, 0)" fill-opacity="1.000000" />
<path d="M 300.892578 59.335938 L 300.892578 58.412109 L 307.729980 58.412109 L 307.729980 59.335938 Z " fill="rgb(0, 0, 0)" fill-opacity="1.000000" />
<path d="M 307.892578 59.335938 L 307.892578 58.412109 L 314.729980 58.412109 L 314.729980 59.335938 Z " fill="rgb(0, 0, 0)" fill-opacity="1.000000" />
<path d="M 314.892578 59.335938 L 314.892578 58.412109 L 321.729980 58.412109 L 321.729980 59.335938 Z " fill="rgb(0, 0, 0)" fill-opacity="1.000000" />
<path d="M 321.892578 59.335938 L 321.892578 58.412109 L 328.729980 58.412109 L 328.729980 59.335938 Z " fill="rgb(0, 0, 0)" fill-opacity="1.000000" />
<path d="M 328.892578 59.335938 L 328.892578 58.412109 L 335.729980 58.412109 L 335.729980 59.335938 Z " fill="rgb(0, 0, 0)" fill-opacity="1.000000" />
<path d="M 335.892578 59.335938 L 335.892578 58.412109 L 342.729980 58.412109 L 342.729980 59.335938 Z " fill="rgb(0, 0, 0)" fill-opacity="1.000000" />
<path d="M 342.892578 59.335938 L 342.892578 58.412109 L 349.729980 58.412109 L 349.729980 59.335938 Z " fill="rgb(0, 0, 0)" fill-opacity="1.000000" />
<path d="M 349.892578 59.335938 L 349.892578 58.412109 L 356.729980 58.412109 L 356.729980 59.335938 Z " fill="rgb(0, 0, 0)" fill-opacity="1.000000" />
<path d="M 356.892578 59.335938 L 356.892578 58.412109 L 363.729980 58.412109 L 363.729980 59.335938 Z " fill="rgb(0, 0, 0)" fill-opacity="1.000000" />
<path d="M 363.892578 59.335938 L 363.892578 58.412109 L 370.729980 58.412109 L 370.729980 59.335938 Z " fill="rgb(0, 0, 0)" fill-opacity="1.000000" />
<path d="M 370.892578 59.335938 L 370.892578 58.412109 L 377.729980 58.412109 L 377.729980 59.335938 Z " fill="rgb(0, 0, 0)" fill-opacity="1.000000" />
<path d="M 377.892578 59.335938 L 377.892578 58.412109 L 380.878906 58.412109 L 380.878906 51.300781 L 381.738281 51.300781 L 381.738281 59.335938 Z " fill="rgb(0, 0, 0)" fill-opacity="1.000000" />
<path d="M 408.878906 65.319336 L 408.878906 51.300781 L 409.738281 51.300781 L 409.738281 65.319336 Z " fill="rgb(0, 0, 0)" fill-opacity="1.000000" />
<path d="M 6.892578 46.335938 L 6.892578 45.412109 L 13.729980 45.412109 L 13.729980 46.335938 Z " fill="rgb(0, 0, 0)" fill-opacity="1.000000" />
<path d="M 13.892578 46.335938 L 13.892578 45.412109 L 20.729980 45.412109 L 20.729980 46.335938 Z " fill="rgb(0, 0, 0)" fill-opacity="1.000000" />
<path d="M 20.892578 46.335938 L 20.892578 45.412109 L 27.729980 45.412109 L 27.729980 46.335938 Z " fill="rgb(0, 0, 0)" fill-opacity="1.000000" />
<path d="M 27.892578 46.335938 L 27.892578 45.412109 L 34.729980 45.412109 L 34.729980 46.335938 Z " fill="rgb(0, 0, 0)" fill-opacity="1.000000" />
<path d="M 34.892578 46.335938 L 34.892578 45.412109 L 41.729980 45.412109 L 41.729980 46.335938 Z " fill="rgb(0, 0, 0)" fill-opacity="1.000000" />
<path d="M 41.892578 46.335938 L 41.892578 45.412109 L 48.729980 45.412109 L 48.729980 46.335938 Z " fill="rgb(0, 0, 0)" fill-opacity="1.000000" />
<path d="M 48.892578 46.335938 L 48.892578 45.412109 L 55.729980 45.412109 L 55.729980 46.335938 Z " fill="rgb(0, 0, 0)" fill-opacity="1.000000" />
<path d="M 55.892578 46.335938 L 55.892578 45.412109 L 62.729980 45.412109 L 62.729980 46.335938 Z " fill="rgb(0, 0, 0)" fill-opacity="1.000000" />
<path d="M 62.892578 46.335938 L 62.892578 45.412109 L 69.729980 45.412109 L 69.729980 46.335938 Z " fill="rgb(0, 0, 0)" fill-opacity="1.000000" />
<path d="M 69.892578 46.335938 L 69.892578 45.412109 L 76.729980 45.412109 L 76.729980 46.335938 Z " fill="rgb(0, 0, 0)" fill-opacity="1.000000" />
<path d="M 76.892578 46.335938 L 76.892578 45.412109 L 83.729980 45.412109 L 83.729980 46.335938 Z " fill="rgb(0, 0, 0)" fill-opacity="1.000000" />
<path d="M 83.892578 46.335938 L 83.892578 45.412109 L 90.729980 45.412109 L 90.729980 46.335938 Z " fill="rgb(0, 0, 0)" fill-opacity="1.000000" />
<path d="M 90.892578 46.335938 L 90.892578 45.412109 L 97.729980 45.412109 L 97.729980 46.335938 Z " fill="rgb(0, 0, 0)" fill-opacity="1.000000" />
<path d="M 100.878906 52.319336 L 100.878906 46.335938 L 97.892578 46.335938 L 97.892578 45.412109 L 101.738281 45.412109 L 101.738281 52.319336 Z " fill="rgb(0, 0, 0)" fill-opacity="1.000000" />
<path d="M 149.878906 52.319336 L 149.878906 45.412109 L 153.729980 45.412109 L 153.729980 46.335938 L 150.738281 46.335938 L 150.738281 52.319336 Z " fill="rgb(0, 0, 0)" fill-opacity="1.000000" />
<path d="M 153.892578 46.335938 L 153.892578 45.412109 L 160.729980 45.412109 L 160.729980 46.335938 Z " fill="rgb(0, 0, 0)" fill-opacity="1.000000" />
<path d="M 160.892578 46.335938 L 160.892578 45.412109 L 167.729980 45.412109 L 167.729980 46.335938 Z " fill="rgb(0, 0, 0)" fill-opacity="1.000000" />
<path d="M 167.892578 46.335938 L 167.892578 45.412109 L 174.729980 45.412109 L 174.729980 46.335938 Z " fill="rgb(0, 0, 0)" fill-opacity="1.000000" />
<path d="M 174.892578 46.335938 L 174.892578 45.412109 L 181.729980 45.412109 L 181.729980 46.335938 Z " fill="rgb(0, 0, 0)" fill-opacity="1.000000" />
<path d="M 181.892578 46.335938 L 181.892578 45.412109 L 188.729980 45.412109 L 188.729980 46.335938 Z " fill="rgb(0, 0, 0)" fill-opacity="1.000000" />
<path d="M 191.878906 52.319336 L 191.878906 46.335938 L 188.892578 46.335938 L 188.892578 45.412109 L 192.738281 45.412109 L 192.738281 52.319336 Z " fill="rgb(0, 0, 0)" fill-opacity="1.000000" />
<path d="M 233.878906 52.319336 L 233.878906 38.300781 L 234.738281 38.300781 L 234.738281 52.319336 Z " fill="rgb(0, 0, 0)" fill-opacity="1.000000" />
<path d="M 282.878906 52.319336 L 282.878906 38.300781 L 283.738281 38.300781 L 283.738281 52.319336 Z " fill="rgb(0, 0, 0)" fill-opacity="1.000000" />
<path d="M 380.878906 52.319336 L 380.878906 38.300781 L 381.738281 38.300781 L 381.738281 52.319336 Z " fill="rgb(0, 0, 0)" fill-opacity="1.000000" />
<path d="M 408.878906 52.319336 L 408.878906 38.300781 L 409.738281 38.300781 L 409.738281 52.319336 Z " fill="rgb(0, 0, 0)" fill-opacity="1.000000" />
<path d="M 51.878906 13.319336 L 51.878906 6.412109 L 55.729980 6.412109 L 55.729980 7.335938 L 52.738281 7.335938 L 52.738281 13.319336 Z " fill="rgb(0, 127, 0)" fill-opacity="1.000000" />
<path d="M 51.878906 26.319336 L 51.878906 12.300781 L 52.738281 12.300781 L 52.738281 26.319336 Z " fill="rgb(0, 127, 0)" fill-opacity="1.000000" />
<path d="M 52.308594 36.418945 L 49.032227 29.866211 L 55.590332 29.866211 Z " fill="rgb(0, 127, 0)" fill-opacity="1.000000" />
<path d="M 233.878906 39.319336 L 233.878906 32.412109 L 237.729980 32.412109 L 237.729980 33.335938 L 234.738281 33.335938 L 234.738281 39.319336 Z " fill="rgb(0, 0, 0)" fill-opacity="1.000000" />
<path d="M 237.892578 33.335938 L 237.892578 32.412109 L 244.729980 32.412109 L 244.729980 33.335938 Z " fill="rgb(0, 0, 0)" fill-opacity="1.000000" />
<path d="M 244.892578 33.335938 L 244.892578 32.412109 L 251.729980 32.412109 L 251.729980 33.335938 Z " fill="rgb(0, 0, 0)" fill-opacity="1.000000" />
<path d="M 251.892578 33.335938 L 251.892578 32.412109 L 258.729980 32.412109 L 258.729980 33.335938 Z " fill="rgb(0, 0, 0)" fill-opacity="1.000000" />
<path d="M 258.892578 33.335938 L 258.892578 32.412109 L 265.729980 32.412109 L 265.729980 33.335938 Z " fill="rgb(0, 0, 0)" fill-opacity="1.000000" />
<path d="M 265.892578 33.335938 L 265.892578 32.412109 L 272.729980 32.412109 L 272.729980 33.335938 Z " fill="rgb(0, 0, 0)" fill-opacity="1.000000" />
<path d="M 273.032227 36.418945 L 273.032227 29.866211 L 279.590332 33.142578 Z " fill="rgb(0, 0, 0)" fill-opacity="1.000000" />
<path d="M 282.878906 39.319336 L 282.878906 25.300781 L 283.738281 25.300781 L 283.738281 39.319336 Z " fill="rgb(0, 0, 0)" fill-opacity="1.000000" />
<path d="M 313.435547 28.254883 L 313.435547 29.355957 Q 312.941406 29.039062 312.444580 28.877930 Q 311.947754 28.716797 311.442871 28.716797 Q 310.674805 28.716797 310.229004 29.073975 Q 309.783203 29.431152 309.783203 30.038086 Q 309.783203 30.569824 310.075928 30.849121 Q 310.368652 31.128418 311.168945 31.316406 L 311.738281 31.445312 Q 312.866211 31.708496 313.381836 32.272461 Q 313.897461 32.836426 313.897461 33.808594 Q 313.897461 34.952637 313.188477 35.554199 Q 312.479492 36.155762 311.125977 36.155762 Q 310.562012 36.155762 309.992676 36.034912 Q 309.423340 35.914062 308.848633 35.672363 L 308.848633 34.517578 Q 309.466309 34.909668 310.016846 35.092285 Q 310.567383 35.274902 311.125977 35.274902 Q 311.947754 35.274902 312.404297 34.906982 Q 312.860840 34.539062 312.860840 33.878418 Q 312.860840 33.276855 312.546631 32.959961 Q 312.232422 32.643066 311.453613 32.471191 L 310.873535 32.336914 Q 309.756348 32.084473 309.251465 31.574219 Q 308.746582 31.063965 308.746582 30.204590 Q 308.746582 29.130371 309.468994 28.483154 Q 310.191406 27.835938 311.389160 27.835938 Q 311.851074 27.835938 312.361328 27.940674 Q 312.871582 28.045410 313.435547 28.254883 Z " fill="rgb(0, 0, 0)" fill-opacity="1.000000" />
<path d="M 318.308594 30.677246 Q 317.556641 30.677246 317.169922 31.262695 Q 316.783203 31.848145 316.783203 32.997559 Q 316.783203 34.141602 317.169922 34.729736 Q 317.556641 35.317871 318.308594 35.317871 Q 319.065918 35.317871 319.452637 34.729736 Q 319.839355 34.141602 319.839355 32.997559 Q 319.839355 31.848145 319.452637 31.262695 Q 319.065918 30.677246 318.308594 30.677246 Z M 318.308594 29.839355 Q 319.560059 29.839355 320.223389 30.650391 Q 320.886719 31.461426 320.886719 32.997559 Q 320.886719 34.539062 320.226074 35.347412 Q 319.565430 36.155762 318.308594 36.155762 Q 317.057129 36.155762 316.396484 35.347412 Q 315.735840 34.539062 315.735840 32.997559 Q 315.735840 31.461426 316.396484 30.650391 Q 317.057129 29.839355 318.308594 29.839355 Z " fill="rgb(0, 0, 0)" fill-opacity="1.000000" />
<path d="M 323.047363 33.722656 L 323.047363 29.995117 L 324.035645 29.995117 L 324.035645 33.722656 Q 324.035645 34.533691 324.322998 34.915039 Q 324.610352 35.296387 325.211914 35.296387 Q 325.910156 35.296387 326.280762 34.804932 Q 326.651367 34.313477 326.651367 33.395020 L 326.651367 29.995117 L 327.645020 29.995117 L 327.645020 36.000000 L 326.651367 36.000000 L 326.651367 35.097656 Q 326.388184 35.618652 325.934326 35.887207 Q 325.480469 36.155762 324.873535 36.155762 Q 323.949707 36.155762 323.498535 35.551514 Q 323.047363 34.947266 323.047363 33.722656 Z " fill="rgb(0, 0, 0)" fill-opacity="1.000000" />
<path d="M 335.203613 31.225098 Q 334.886719 30.978027 334.559082 30.865234 Q 334.231445 30.752441 333.839355 30.752441 Q 332.915527 30.752441 332.426758 31.332520 Q 331.937988 31.912598 331.937988 33.008301 L 331.937988 36.000000 L 330.944336 36.000000 L 330.944336 29.984375 L 331.937988 29.984375 L 331.937988 31.160645 Q 332.185059 30.521484 332.697998 30.180420 Q 333.210938 29.839355 333.914551 29.839355 Q 334.279785 29.839355 334.596680 29.930664 Q 334.913574 30.021973 335.203613 30.215332 Z " fill="rgb(0, 0, 0)" fill-opacity="1.000000" />
<path d="M 341.698730 35.693848 Q 341.301270 35.924805 340.879639 36.040283 Q 340.458008 36.155762 340.017578 36.155762 Q 338.621094 36.155762 337.834229 35.317871 Q 337.047363 34.479980 337.047363 32.997559 Q 337.047363 31.515137 337.834229 30.677246 Q 338.621094 29.839355 340.017578 29.839355 Q 340.452637 29.839355 340.866211 29.952148 Q 341.279785 30.064941 341.698730 30.301270 L 341.698730 31.337891 Q 341.306641 30.988770 340.911865 30.833008 Q 340.517090 30.677246 340.017578 30.677246 Q 339.088379 30.677246 338.588867 31.278809 Q 338.089355 31.880371 338.089355 32.997559 Q 338.089355 34.109375 338.591553 34.713623 Q 339.093750 35.317871 340.017578 35.317871 Q 340.533203 35.317871 340.941406 35.159424 Q 341.349609 35.000977 341.698730 34.667969 Z " fill="rgb(0, 0, 0)" fill-opacity="1.000000" />
<path d="M 349.015625 32.498047 L 349.015625 32.981445 L 344.734863 32.981445 L 344.734863 33.013672 Q 344.691895 34.243652 345.204834 34.780762 Q 345.717773 35.317871 346.652344 35.317871 Q 347.125000 35.317871 347.640625 35.167480 Q 348.156250 35.017090 348.741699 34.710938 L 348.741699 35.693848 Q 348.177734 35.924805 347.654053 36.040283 Q 347.130371 36.155762 346.641602 36.155762 Q 345.239746 36.155762 344.450195 35.315186 Q 343.660645 34.474609 343.660645 32.997559 Q 343.660645 31.558105 344.434082 30.698730 Q 345.207520 29.839355 346.496582 29.839355 Q 347.645996 29.839355 348.309326 30.618164 Q 348.972656 31.396973 349.015625 32.498047 Z M 348.027344 32.208008 Q 347.962891 31.584961 347.573486 31.131104 Q 347.184082 30.677246 346.453613 30.677246 Q 345.739258 30.677246 345.277344 31.149902 Q 344.815430 31.622559 344.772461 32.213379 Z " fill="rgb(0, 0, 0)" fill-opacity="1.000000" />
<path d="M 380.878906 39.319336 L 380.878906 25.300781 L 381.738281 25.300781 L 381.738281 32.412109 L 384.729980 32.412109 L 384.729980 33.335938 L 381.738281 33.335938 L 381.738281 39.319336 Z " fill="rgb(0, 0, 0)" fill-opacity="1.000000" />
<path d="M 384.892578 33.335938 L 384.892578 32.412109 L 391.729980 32.412109 L 391.729980 33.335938 Z " fill="rgb(0, 0, 0)" fill-opacity="1.000000" />
<path d="M 391.892578 33.335938 L 391.892578 32.412109 L 398.729980 32.412109 L 398.729980 33.335938 Z " fill="rgb(0, 0, 0)" fill-opacity="1.000000" />
<path d="M 398.892578 33.335938 L 398.892578 32.412109 L 405.729980 32.412109 L 405.729980 33.335938 Z " fill="rgb(0, 0, 0)" fill-opacity="1.000000" />
<path d="M 408.878906 39.319336 L 408.878906 33.335938 L 405.892578 33.335938 L 405.892578 32.412109 L 409.738281 32.412109 L 409.738281 39.319336 Z " fill="rgb(0, 0, 0)" fill-opacity="1.000000" />
<path d="M 233.878906 26.319336 L 233.878906 12.300781 L 234.738281 12.300781 L 234.738281 26.319336 Z " fill="rgb(0, 127, 0)" fill-opacity="1.000000" />
<path d="M 282.878906 26.319336 L 282.878906 12.300781 L 283.738281 12.300781 L 283.738281 26.319336 Z " fill="rgb(0, 0, 0)" fill-opacity="1.000000" />
<path d="M 380.878906 26.319336 L 380.878906 12.300781 L 381.738281 12.300781 L 381.738281 26.319336 Z " fill="rgb(0, 0, 0)" fill-opacity="1.000000" />
<path d="M 55.892578 7.335938 L 55.892578 6.412109 L 62.729980 6.412109 L 62.729980 7.335938 Z " fill="rgb(0, 127, 0)" fill-opacity="1.000000" />
<path d="M 62.892578 7.335938 L 62.892578 6.412109 L 69.729980 6.412109 L 69.729980 7.335938 Z " fill="rgb(0, 127, 0)" fill-opacity="1.000000" />
<path d="M 69.892578 7.335938 L 69.892578 6.412109 L 76.729980 6.412109 L 76.729980 7.335938 Z " fill="rgb(0, 127, 0)" fill-opacity="1.000000" />
<path d="M 76.892578 7.335938 L 76.892578 6.412109 L 83.729980 6.412109 L 83.729980 7.335938 Z " fill="rgb(0, 127, 0)" fill-opacity="1.000000" />
<path d="M 83.892578 7.335938 L 83.892578 6.412109 L 90.729980 6.412109 L 90.729980 7.335938 Z " fill="rgb(0, 127, 0)" fill-opacity="1.000000" />
<path d="M 90.892578 7.335938 L 90.892578 6.412109 L 97.729980 6.412109 L 97.729980 7.335938 Z " fill="rgb(0, 127, 0)" fill-opacity="1.000000" />
<path d="M 97.892578 7.335938 L 97.892578 6.412109 L 104.729980 6.412109 L 104.729980 7.335938 Z " fill="rgb(0, 127, 0)" fill-opacity="1.000000" />
<path d="M 108.518066 10.145020 Q 108.480469 10.145020 108.410645 10.150391 Q 108.340820 10.155762 108.297852 10.155762 Q 106.955078 10.155762 106.291748 9.124512 Q 105.628418 8.093262 105.628418 5.998535 Q 105.628418 3.898438 106.291748 2.867188 Q 106.955078 1.835938 108.308594 1.835938 Q 109.667480 1.835938 110.330811 2.867188 Q 110.994141 3.898438 110.994141 5.998535 Q 110.994141 7.577637 110.626221 8.541748 Q 110.258301 9.505859 109.511719 9.892578 L 110.585938 10.913086 L 109.774902 11.450195 Z M 109.860840 5.998535 Q 109.860840 4.231445 109.498291 3.474121 Q 109.135742 2.716797 108.308594 2.716797 Q 107.486816 2.716797 107.124268 3.474121 Q 106.761719 4.231445 106.761719 5.998535 Q 106.761719 7.760254 107.124268 8.517578 Q 107.486816 9.274902 108.308594 9.274902 Q 109.135742 9.274902 109.498291 8.520264 Q 109.860840 7.765625 109.860840 5.998535 Z " fill="rgb(0, 0, 0)" fill-opacity="1.000000" />
<path d="M 113.047363 7.722656 L 113.047363 3.995117 L 114.035645 3.995117 L 114.035645 7.722656 Q 114.035645 8.533691 114.322998 8.915039 Q 114.610352 9.296387 115.211914 9.296387 Q 115.910156 9.296387 116.280762 8.804932 Q 116.651367 8.313477 116.651367 7.395020 L 116.651367 3.995117 L 117.645020 3.995117 L 117.645020 10.000000 L 116.651367 10.000000 L 116.651367 9.097656 Q 116.388184 9.618652 115.934326 9.887207 Q 115.480469 10.155762 114.873535 10.155762 Q 113.949707 10.155762 113.498535 9.551514 Q 113.047363 8.947266 113.047363 7.722656 Z " fill="rgb(0, 0, 0)" fill-opacity="1.000000" />
<path d="M 125.015625 6.498047 L 125.015625 6.981445 L 120.734863 6.981445 L 120.734863 7.013672 Q 120.691895 8.243652 121.204834 8.780762 Q 121.717773 9.317871 122.652344 9.317871 Q 123.125000 9.317871 123.640625 9.167480 Q 124.156250 9.017090 124.741699 8.710938 L 124.741699 9.693848 Q 124.177734 9.924805 123.654053 10.040283 Q 123.130371 10.155762 122.641602 10.155762 Q 121.239746 10.155762 120.450195 9.315186 Q 119.660645 8.474609 119.660645 6.997559 Q 119.660645 5.558105 120.434082 4.698730 Q 121.207520 3.839355 122.496582 3.839355 Q 123.645996 3.839355 124.309326 4.618164 Q 124.972656 5.396973 125.015625 6.498047 Z M 124.027344 6.208008 Q 123.962891 5.584961 123.573486 5.131104 Q 123.184082 4.677246 122.453613 4.677246 Q 121.739258 4.677246 121.277344 5.149902 Q 120.815430 5.622559 120.772461 6.213379 Z " fill="rgb(0, 0, 0)" fill-opacity="1.000000" />
<path d="M 132.203613 5.225098 Q 131.886719 4.978027 131.559082 4.865234 Q 131.231445 4.752441 130.839355 4.752441 Q 129.915527 4.752441 129.426758 5.332520 Q 128.937988 5.912598 128.937988 7.008301 L 128.937988 10.000000 L 127.944336 10.000000 L 127.944336 3.984375 L 128.937988 3.984375 L 128.937988 5.160645 Q 129.185059 4.521484 129.697998 4.180420 Q 130.210938 3.839355 130.914551 3.839355 Q 131.279785 3.839355 131.596680 3.930664 Q 131.913574 4.021973 132.203613 4.215332 Z " fill="rgb(0, 0, 0)" fill-opacity="1.000000" />
<path d="M 137.608398 8.066406 Q 137.361328 8.694824 136.979980 9.720703 Q 136.448242 11.138672 136.265625 11.450195 Q 136.018555 11.869141 135.647949 12.078613 Q 135.277344 12.288086 134.783203 12.288086 L 133.988281 12.288086 L 133.988281 11.460938 L 134.573730 11.460938 Q 135.008789 11.460938 135.255859 11.208496 Q 135.502930 10.956055 135.884277 9.903320 L 133.558594 3.984375 L 134.605957 3.984375 L 136.389160 8.689453 L 138.145508 3.984375 L 139.192871 3.984375 Z " fill="rgb(0, 0, 0)" fill-opacity="1.000000" />
<path d="M 153.203613 5.225098 Q 152.886719 4.978027 152.559082 4.865234 Q 152.231445 4.752441 151.839355 4.752441 Q 150.915527 4.752441 150.426758 5.332520 Q 149.937988 5.912598 149.937988 7.008301 L 149.937988 10.000000 L 148.944336 10.000000 L 148.944336 3.984375 L 149.937988 3.984375 L 149.937988 5.160645 Q 150.185059 4.521484 150.697998 4.180420 Q 151.210938 3.839355 151.914551 3.839355 Q 152.279785 3.839355 152.596680 3.930664 Q 152.913574 4.021973 153.203613 4.215332 Z " fill="rgb(0, 0, 0)" fill-opacity="1.000000" />
<path d="M 160.015625 6.498047 L 160.015625 6.981445 L 155.734863 6.981445 L 155.734863 7.013672 Q 155.691895 8.243652 156.204834 8.780762 Q 156.717773 9.317871 157.652344 9.317871 Q 158.125000 9.317871 158.640625 9.167480 Q 159.156250 9.017090 159.741699 8.710938 L 159.741699 9.693848 Q 159.177734 9.924805 158.654053 10.040283 Q 158.130371 10.155762 157.641602 10.155762 Q 156.239746 10.155762 155.450195 9.315186 Q 154.660645 8.474609 154.660645 6.997559 Q 154.660645 5.558105 155.434082 4.698730 Q 156.207520 3.839355 157.496582 3.839355 Q 158.645996 3.839355 159.309326 4.618164 Q 159.972656 5.396973 160.015625 6.498047 Z M 159.027344 6.208008 Q 158.962891 5.584961 158.573486 5.131104 Q 158.184082 4.677246 157.453613 4.677246 Q 156.739258 4.677246 156.277344 5.149902 Q 155.815430 5.622559 155.772461 6.213379 Z " fill="rgb(0, 0, 0)" fill-opacity="1.000000" />
<path d="M 166.226074 4.193848 L 166.226074 5.160645 Q 165.801758 4.913574 165.372070 4.790039 Q 164.942383 4.666504 164.496582 4.666504 Q 163.825195 4.666504 163.494873 4.884033 Q 163.164551 5.101562 163.164551 5.547363 Q 163.164551 5.950195 163.411621 6.148926 Q 163.658691 6.347656 164.641602 6.535645 L 165.039062 6.610840 Q 165.774902 6.750488 166.153564 7.169434 Q 166.532227 7.588379 166.532227 8.259766 Q 166.532227 9.151367 165.898438 9.653564 Q 165.264648 10.155762 164.136719 10.155762 Q 163.690918 10.155762 163.202148 10.061768 Q 162.713379 9.967773 162.144043 9.779785 L 162.144043 8.759277 Q 162.697266 9.043945 163.202148 9.186279 Q 163.707031 9.328613 164.158203 9.328613 Q 164.813477 9.328613 165.173340 9.062744 Q 165.533203 8.796875 165.533203 8.318848 Q 165.533203 7.631348 164.217285 7.368164 L 164.174316 7.357422 L 163.803711 7.282227 Q 162.949707 7.115723 162.557617 6.720947 Q 162.165527 6.326172 162.165527 5.644043 Q 162.165527 4.779297 162.750977 4.309326 Q 163.336426 3.839355 164.421387 3.839355 Q 164.904785 3.839355 165.350586 3.927979 Q 165.796387 4.016602 166.226074 4.193848 Z " fill="rgb(0, 0, 0)" fill-opacity="1.000000" />
<path d="M 169.047363 7.722656 L 169.047363 3.995117 L 170.035645 3.995117 L 170.035645 7.722656 Q 170.035645 8.533691 170.322998 8.915039 Q 170.610352 9.296387 171.211914 9.296387 Q 171.910156 9.296387 172.280762 8.804932 Q 172.651367 8.313477 172.651367 7.395020 L 172.651367 3.995117 L 173.645020 3.995117 L 173.645020 10.000000 L 172.651367 10.000000 L 172.651367 9.097656 Q 172.388184 9.618652 171.934326 9.887207 Q 171.480469 10.155762 170.873535 10.155762 Q 169.949707 10.155762 169.498535 9.551514 Q 169.047363 8.947266 169.047363 7.722656 Z " fill="rgb(0, 0, 0)" fill-opacity="1.000000" />
<path d="M 178.861816 7.824707 Q 178.861816 8.490723 179.106201 8.829102 Q 179.350586 9.167480 179.828613 9.167480 L 180.983398 9.167480 L 180.983398 10.000000 L 179.731934 10.000000 Q 178.845703 10.000000 178.359619 9.433350 Q 177.873535 8.866699 177.873535 7.824707 L 177.873535 2.383789 L 176.289062 2.383789 L 176.289062 1.610352 L 178.861816 1.610352 Z " fill="rgb(0, 0, 0)" fill-opacity="1.000000" />
<path d="M 185.297852 2.276367 L 185.297852 3.984375 L 187.542969 3.984375 L 187.542969 4.752441 L 185.297852 4.752441 L 185.297852 8.018066 Q 185.297852 8.684082 185.550293 8.947266 Q 185.802734 9.210449 186.431152 9.210449 L 187.542969 9.210449 L 187.542969 10.000000 L 186.334473 10.000000 Q 185.222656 10.000000 184.766113 9.554199 Q 184.309570 9.108398 184.309570 8.018066 L 184.309570 4.752441 L 182.703613 4.752441 L 182.703613 3.984375 L 184.309570 3.984375 L 184.309570 2.276367 Z " fill="rgb(0, 0, 0)" fill-opacity="1.000000" />
<path d="M 188.892578 7.335938 L 188.892578 6.412109 L 195.729980 6.412109 L 195.729980 7.335938 Z " fill="rgb(0, 127, 0)" fill-opacity="1.000000" />
<path d="M 195.892578 7.335938 L 195.892578 6.412109 L 202.729980 6.412109 L 202.729980 7.335938 Z " fill="rgb(0, 127, 0)" fill-opacity="1.000000" />
<path d="M 202.892578 7.335938 L 202.892578 6.412109 L 209.729980 6.412109 L 209.729980 7.335938 Z " fill="rgb(0, 127, 0)" fill-opacity="1.000000" />
<path d="M 209.892578 7.335938 L 209.892578 6.412109 L 216.729980 6.412109 L 216.729980 7.335938 Z " fill="rgb(0, 127, 0)" fill-opacity="1.000000" />
<path d="M 216.892578 7.335938 L 216.892578 6.412109 L 223.729980 6.412109 L 223.729980 7.335938 Z " fill="rgb(0, 127, 0)" fill-opacity="1.000000" />
<path d="M 223.892578 7.335938 L 223.892578 6.412109 L 230.729980 6.412109 L 230.729980 7.335938 Z " fill="rgb(0, 127, 0)" fill-opacity="1.000000" />
<path d="M 233.878906 13.319336 L 233.878906 7.335938 L 230.892578 7.335938 L 230.892578 6.412109 L 234.738281 6.412109 L 234.738281 13.319336 Z " fill="rgb(0, 127, 0)" fill-opacity="1.000000" />
<path d="M 282.878906 13.319336 L 282.878906 6.412109 L 286.729980 6.412109 L 286.729980 7.335938 L 283.738281 7.335938 L 283.738281 13.319336 Z " fill="rgb(0, 0, 0)" fill-opacity="1.000000" />
<path d="M 286.892578 7.335938 L 286.892578 6.412109 L 293.729980 6.412109 L 293.729980 7.335938 Z " fill="rgb(0, 0, 0)" fill-opacity="1.000000" />
<path d="M 293.892578 7.335938 L 293.892578 6.412109 L 300.729980 6.412109 L 300.729980 7.335938 Z " fill="rgb(0, 0, 0)" fill-opacity="1.000000" />
<path d="M 300.892578 7.335938 L 300.892578 6.412109 L 307.729980 6.412109 L 307.729980 7.335938 Z " fill="rgb(0, 0, 0)" fill-opacity="1.000000" />
<path d="M 307.892578 7.335938 L 307.892578 6.412109 L 314.729980 6.412109 L 314.729980 7.335938 Z " fill="rgb(0, 0, 0)" fill-opacity="1.000000" />
<path d="M 314.892578 7.335938 L 314.892578 6.412109 L 321.729980 6.412109 L 321.729980 7.335938 Z " fill="rgb(0, 0, 0)" fill-opacity="1.000000" />
<path d="M 321.892578 7.335938 L 321.892578 6.412109 L 328.729980 6.412109 L 328.729980 7.335938 Z " fill="rgb(0, 0, 0)" fill-opacity="1.000000" />
<path d="M 328.892578 7.335938 L 328.892578 6.412109 L 335.729980 6.412109 L 335.729980 7.335938 Z " fill="rgb(0, 0, 0)" fill-opacity="1.000000" />
<path d="M 335.892578 7.335938 L 335.892578 6.412109 L 342.729980 6.412109 L 342.729980 7.335938 Z " fill="rgb(0, 0, 0)" fill-opacity="1.000000" />
<path d="M 342.892578 7.335938 L 342.892578 6.412109 L 349.729980 6.412109 L 349.729980 7.335938 Z " fill="rgb(0, 0, 0)" fill-opacity="1.000000" />
<path d="M 349.892578 7.335938 L 349.892578 6.412109 L 356.729980 6.412109 L 356.729980 7.335938 Z " fill="rgb(0, 0, 0)" fill-opacity="1.000000" />
<path d="M 356.892578 7.335938 L 356.892578 6.412109 L 363.729980 6.412109 L 363.729980 7.335938 Z " fill="rgb(0, 0, 0)" fill-opacity="1.000000" />
<path d="M 363.892578 7.335938 L 363.892578 6.412109 L 370.729980 6.412109 L 370.729980 7.335938 Z " fill="rgb(0, 0, 0)" fill-opacity="1.000000" />
<path d="M 370.892578 7.335938 L 370.892578 6.412109 L 377.729980 6.412109 L 377.729980 7.335938 Z " fill="rgb(0, 0, 0)" fill-opacity="1.000000" />
<path d="M 380.878906 13.319336 L 380.878906 7.335938 L 377.892578 7.335938 L 377.892578 6.412109 L 381.738281 6.412109 L 381.738281 13.319336 Z " fill="rgb(0, 0, 0)" fill-opacity="1.000000" />
</svg>