<svg height="97" width="397" xmlns="http://www.w3.org/2000/svg"><style>svg {
  font-family: ui-monospace, SFMono-Regular, Menlo, Monaco, Consolas, "Liberation Mono", "Courier New", monospace;
}
text {
  fill: #2f3337;
  font-size: 14px;
}
rect {
  fill: #ffffff;
  stroke: #3a3d40;
  stroke-width: 2;
}
rect.terminal {
  fill: #ffffff;
}
rect.nonterminal {
  fill: #ffffff;
}
text.terminal {
  fill: #2f3337;
  font-weight: 600;
}
text.nonterminal {
  fill: #2563eb;
}
a text.nonterminal {
  text-decoration: underline;
}
path.line {
  fill: none;
  stroke: #3a3d40;
  stroke-width: 2;
}
polygon {
  fill: #2f3337;
  stroke: #2f3337;
}</style>
<polygon points="9 33 1 29 1 37"></polygon>
<polygon points="17 33 9 29 9 37"></polygon>
<rect height="32" rx="10" width="40" x="31" y="19"></rect>
<rect class="terminal" height="32" rx="10" width="40" x="29" y="17"></rect>
<text class="terminal" x="39" y="37">DO</text>
<rect height="32" rx="10" width="94" x="131" y="19"></rect>
<rect class="terminal" height="32" rx="10" width="94" x="129" y="17"></rect>
<text class="terminal" x="139" y="37">LANGUAGE</text>
<rect height="32" rx="10" width="84" x="245" y="19"></rect>
<rect class="terminal" height="32" rx="10" width="84" x="243" y="17"></rect>
<text class="terminal" x="253" y="37">PLPGSQL</text>
<rect height="32" width="130" x="131" y="63"></rect>
<rect class="nonterminal" height="32" width="130" x="129" y="61"></rect>
<text lengthAdjust="spacingAndGlyphs" textLength="106" font-size="10" class="nonterminal" x="141" y="81">routine_body_str</text><path class="line" d="m17 33 h2 m0 0 h10 m40 0 h10 m40 0 h10 m94 0 h10 m0 0 h10 m84 0 h10 m-238 0 h20 m218 0 h20 m-258 0 q10 0 10 10 m238 0 q0 -10 10 -10 m-248 10 v24 m238 0 v-24 m-238 24 q0 10 10 10 m218 0 q10 0 10 -10 m-228 10 h10 m130 0 h10 m0 0 h68 m-258 -44 l20 0 m-1 0 q-9 0 -9 -10 l0 -12 q0 -10 10 -10 m258 32 l20 0 m-20 0 q10 0 10 -10 l0 -12 q0 -10 -10 -10 m-258 0 h10 m0 0 h248 m23 32 h-3"></path>
<polygon points="387 33 395 29 395 37"></polygon>
<polygon points="387 33 379 29 379 37"></polygon></svg>