<svg height="125" width="531" xmlns="http://www.w3.org/2000/svg" xmlns:xlink="http://www.w3.org/1999/xlink"><style>svg {
  font-family: ui-monospace, SFMono-Regular, Menlo, Monaco, Consolas, "Liberation Mono", "Courier New", monospace;
}
text {
  fill: #2f3337;
  font-size: 14px;
}
rect {
  fill: #ffffff;
  stroke: #3a3d40;
  stroke-width: 2;
}
rect.terminal {
  fill: #ffffff;
}
rect.nonterminal {
  fill: #ffffff;
}
text.terminal {
  fill: #2f3337;
  font-weight: 600;
}
text.nonterminal {
  fill: #2563eb;
}
a text.nonterminal {
  text-decoration: underline;
}
path.line {
  fill: none;
  stroke: #3a3d40;
  stroke-width: 2;
}
polygon {
  fill: #2f3337;
  stroke: #2f3337;
}</style>
<polygon points="9 61 1 57 1 65"></polygon>
<polygon points="17 61 9 57 9 65"></polygon>
<rect height="32" rx="10" width="44" x="31" y="47"></rect>
<rect class="terminal" height="32" rx="10" width="44" x="29" y="45"></rect>
<text class="terminal" x="39" y="65">SET</text>
<rect height="32" rx="10" width="64" x="95" y="47"></rect>
<rect class="terminal" height="32" rx="10" width="64" x="93" y="45"></rect>
<text class="terminal" x="103" y="65">LOCAL</text><a xlink:href="/docs/v24.1/sql-grammar#var_name" xlink:title="var_name">
<rect height="32" width="84" x="179" y="47"></rect>
<rect class="nonterminal" height="32" width="84" x="177" y="45"></rect>
<text lengthAdjust="spacingAndGlyphs" textLength="60" font-size="12" class="nonterminal" x="189" y="65">var_name</text></a><rect height="32" rx="10" width="30" x="303" y="47"></rect>
<rect class="terminal" height="32" rx="10" width="30" x="301" y="45"></rect>
<text class="terminal" x="311" y="65">=</text>
<rect height="32" rx="10" width="38" x="303" y="91"></rect>
<rect class="terminal" height="32" rx="10" width="38" x="301" y="89"></rect>
<text class="terminal" x="311" y="109">TO</text><a xlink:href="/docs/v24.1/sql-grammar#var_value" xlink:title="var_value">
<rect height="32" width="82" x="401" y="47"></rect>
<rect class="nonterminal" height="32" width="82" x="399" y="45"></rect>
<text lengthAdjust="spacingAndGlyphs" textLength="58" font-size="10" class="nonterminal" x="411" y="65">var_value</text></a><rect height="32" rx="10" width="24" x="401" y="3"></rect>
<rect class="terminal" height="32" rx="10" width="24" x="399" y="1"></rect>
<text class="terminal" x="409" y="21">,</text>
<path class="line" d="m17 61 h2 m0 0 h10 m44 0 h10 m0 0 h10 m64 0 h10 m0 0 h10 m84 0 h10 m20 0 h10 m30 0 h10 m0 0 h8 m-78 0 h20 m58 0 h20 m-98 0 q10 0 10 10 m78 0 q0 -10 10 -10 m-88 10 v24 m78 0 v-24 m-78 24 q0 10 10 10 m58 0 q10 0 10 -10 m-68 10 h10 m38 0 h10 m40 -44 h10 m82 0 h10 m-122 0 l20 0 m-1 0 q-9 0 -9 -10 l0 -24 q0 -10 10 -10 m102 44 l20 0 m-20 0 q10 0 10 -10 l0 -24 q0 -10 -10 -10 m-102 0 h10 m24 0 h10 m0 0 h58 m23 44 h-3"></path>
<polygon points="521 61 529 57 529 65"></polygon>
<polygon points="521 61 513 57 513 65"></polygon></svg>