<svg height="823" width="735" xmlns="http://www.w3.org/2000/svg" xmlns:xlink="http://www.w3.org/1999/xlink"><style>svg {
  font-family: ui-monospace, SFMono-Regular, Menlo, Monaco, Consolas, "Liberation Mono", "Courier New", monospace;
}
text {
  fill: #2f3337;
  font-size: 14px;
}
rect {
  fill: #ffffff;
  stroke: #3a3d40;
  stroke-width: 2;
}
rect.terminal {
  fill: #ffffff;
}
rect.nonterminal {
  fill: #ffffff;
}
text.terminal {
  fill: #2f3337;
  font-weight: 600;
}
text.nonterminal {
  fill: #2563eb;
}
a text.nonterminal {
  text-decoration: underline;
}
path.line {
  fill: none;
  stroke: #3a3d40;
  stroke-width: 2;
}
polygon {
  fill: #2f3337;
  stroke: #2f3337;
}</style>
<polygon points="9 17 1 13 1 21"></polygon>
<polygon points="17 17 9 13 9 21"></polygon>
<rect height="32" rx="10" width="72" x="31" y="3"></rect>
<rect class="terminal" height="32" rx="10" width="72" x="29" y="1"></rect>
<text class="terminal" x="39" y="21">CREATE</text><a xlink:href="/docs/v23.2/sql-grammar#opt_temp" xlink:title="opt_temp">
<rect height="32" width="82" x="123" y="3"></rect>
<rect class="nonterminal" height="32" width="82" x="121" y="1"></rect>
<text lengthAdjust="spacingAndGlyphs" textLength="58" font-size="11" class="nonterminal" x="133" y="21">opt_temp</text></a><rect height="32" rx="10" width="92" x="225" y="3"></rect>
<rect class="terminal" height="32" rx="10" width="92" x="223" y="1"></rect>
<text class="terminal" x="233" y="21">SEQUENCE</text>
<rect height="32" rx="10" width="34" x="357" y="35"></rect>
<rect class="terminal" height="32" rx="10" width="34" x="355" y="33"></rect>
<text class="terminal" x="365" y="53">IF</text>
<rect height="32" rx="10" width="48" x="411" y="35"></rect>
<rect class="terminal" height="32" rx="10" width="48" x="409" y="33"></rect>
<text class="terminal" x="419" y="53">NOT</text>
<rect height="32" rx="10" width="70" x="479" y="35"></rect>
<rect class="terminal" height="32" rx="10" width="70" x="477" y="33"></rect>
<text class="terminal" x="487" y="53">EXISTS</text>
<rect height="32" width="124" x="589" y="3"></rect>
<rect class="nonterminal" height="32" width="124" x="587" y="1"></rect>
<text lengthAdjust="spacingAndGlyphs" textLength="100" font-size="12" class="nonterminal" x="599" y="21">sequence_name</text><rect height="32" rx="10" width="38" x="323" y="117"></rect>
<rect class="terminal" height="32" rx="10" width="38" x="321" y="115"></rect>
<text class="terminal" x="331" y="135">AS</text><a xlink:href="/docs/v23.2/sql-grammar#typename" xlink:title="typename">
<rect height="32" width="84" x="381" y="117"></rect>
<rect class="nonterminal" height="32" width="84" x="379" y="115"></rect>
<text lengthAdjust="spacingAndGlyphs" textLength="60" font-size="12" class="nonterminal" x="391" y="135">typename</text></a><rect height="32" rx="10" width="40" x="323" y="161"></rect>
<rect class="terminal" height="32" rx="10" width="40" x="321" y="159"></rect>
<text class="terminal" x="331" y="179">NO</text>
<rect height="32" rx="10" width="62" x="403" y="161"></rect>
<rect class="terminal" height="32" rx="10" width="62" x="401" y="159"></rect>
<text class="terminal" x="411" y="179">CYCLE</text>
<rect height="32" rx="10" width="92" x="403" y="205"></rect>
<rect class="terminal" height="32" rx="10" width="92" x="401" y="203"></rect>
<text class="terminal" x="411" y="223">MINVALUE</text>
<rect height="32" rx="10" width="94" x="403" y="249"></rect>
<rect class="terminal" height="32" rx="10" width="94" x="401" y="247"></rect>
<text class="terminal" x="411" y="267">MAXVALUE</text>
<rect height="32" rx="10" width="72" x="323" y="293"></rect>
<rect class="terminal" height="32" rx="10" width="72" x="321" y="291"></rect>
<text class="terminal" x="331" y="311">OWNED</text>
<rect height="32" rx="10" width="38" x="415" y="293"></rect>
<rect class="terminal" height="32" rx="10" width="38" x="413" y="291"></rect>
<text class="terminal" x="423" y="311">BY</text>
<rect height="32" rx="10" width="58" x="493" y="293"></rect>
<rect class="terminal" height="32" rx="10" width="58" x="491" y="291"></rect>
<text class="terminal" x="501" y="311">NONE</text><a xlink:href="/docs/v23.2/sql-grammar#column_name" xlink:title="column_name">
<rect height="32" width="108" x="493" y="337"></rect>
<rect class="nonterminal" height="32" width="108" x="491" y="335"></rect>
<text lengthAdjust="spacingAndGlyphs" textLength="84" font-size="12" class="nonterminal" x="503" y="355">column_name</text></a><rect height="32" rx="10" width="66" x="343" y="381"></rect>
<rect class="terminal" height="32" rx="10" width="66" x="341" y="379"></rect>
<text class="terminal" x="351" y="399">CACHE</text>
<rect height="32" rx="10" width="92" x="343" y="425"></rect>
<rect class="terminal" height="32" rx="10" width="92" x="341" y="423"></rect>
<text class="terminal" x="351" y="443">MINVALUE</text>
<rect height="32" rx="10" width="94" x="343" y="469"></rect>
<rect class="terminal" height="32" rx="10" width="94" x="341" y="467"></rect>
<text class="terminal" x="351" y="487">MAXVALUE</text>
<rect height="32" rx="10" width="100" x="343" y="513"></rect>
<rect class="terminal" height="32" rx="10" width="100" x="341" y="511"></rect>
<text class="terminal" x="351" y="531">INCREMENT</text>
<rect height="32" rx="10" width="38" x="483" y="545"></rect>
<rect class="terminal" height="32" rx="10" width="38" x="481" y="543"></rect>
<text class="terminal" x="491" y="563">BY</text>
<rect height="32" rx="10" width="64" x="343" y="589"></rect>
<rect class="terminal" height="32" rx="10" width="64" x="341" y="587"></rect>
<text class="terminal" x="351" y="607">START</text>
<rect height="32" rx="10" width="58" x="447" y="621"></rect>
<rect class="terminal" height="32" rx="10" width="58" x="445" y="619"></rect>
<text class="terminal" x="455" y="639">WITH</text>
<rect height="32" width="64" x="581" y="381"></rect>
<rect class="nonterminal" height="32" width="64" x="579" y="379"></rect>
<text lengthAdjust="spacingAndGlyphs" textLength="40" font-size="10" class="nonterminal" x="591" y="399">integer</text><rect height="32" rx="10" width="82" x="323" y="665"></rect>
<rect class="terminal" height="32" rx="10" width="82" x="321" y="663"></rect>
<text class="terminal" x="331" y="683">RESTART</text>
<rect height="32" rx="10" width="58" x="465" y="729"></rect>
<rect class="terminal" height="32" rx="10" width="58" x="463" y="727"></rect>
<text class="terminal" x="473" y="747">WITH</text>
<rect height="32" width="64" x="563" y="697"></rect>
<rect class="nonterminal" height="32" width="64" x="561" y="695"></rect>
<text lengthAdjust="spacingAndGlyphs" textLength="40" font-size="10" class="nonterminal" x="573" y="715">integer</text><rect height="32" rx="10" width="80" x="323" y="773"></rect>
<rect class="terminal" height="32" rx="10" width="80" x="321" y="771"></rect>
<text class="terminal" x="331" y="791">VIRTUAL</text>
<path class="line" d="m17 17 h2 m0 0 h10 m72 0 h10 m0 0 h10 m82 0 h10 m0 0 h10 m92 0 h10 m20 0 h10 m0 0 h202 m-232 0 h20 m212 0 h20 m-252 0 q10 0 10 10 m232 0 q0 -10 10 -10 m-242 10 v12 m232 0 v-12 m-232 12 q0 10 10 10 m212 0 q10 0 10 -10 m-222 10 h10 m34 0 h10 m0 0 h10 m48 0 h10 m0 0 h10 m70 0 h10 m20 -32 h10 m124 0 h10 m2 0 l2 0 m2 0 l2 0 m2 0 l2 0 m-494 114 l2 0 m2 0 l2 0 m2 0 l2 0 m62 0 h10 m38 0 h10 m0 0 h10 m84 0 h10 m0 0 h182 m-364 0 h20 m344 0 h20 m-384 0 q10 0 10 10 m364 0 q0 -10 10 -10 m-374 10 v24 m364 0 v-24 m-364 24 q0 10 10 10 m344 0 q10 0 10 -10 m-354 10 h10 m40 0 h10 m20 0 h10 m62 0 h10 m0 0 h32 m-134 0 h20 m114 0 h20 m-154 0 q10 0 10 10 m134 0 q0 -10 10 -10 m-144 10 v24 m134 0 v-24 m-134 24 q0 10 10 10 m114 0 q10 0 10 -10 m-124 10 h10 m92 0 h10 m0 0 h2 m-124 -10 v20 m134 0 v-20 m-134 20 v24 m134 0 v-24 m-134 24 q0 10 10 10 m114 0 q10 0 10 -10 m-124 10 h10 m94 0 h10 m20 -88 h130 m-354 -10 v20 m364 0 v-20 m-364 20 v112 m364 0 v-112 m-364 112 q0 10 10 10 m344 0 q10 0 10 -10 m-354 10 h10 m72 0 h10 m0 0 h10 m38 0 h10 m20 0 h10 m58 0 h10 m0 0 h50 m-148 0 h20 m128 0 h20 m-168 0 q10 0 10 10 m148 0 q0 -10 10 -10 m-158 10 v24 m148 0 v-24 m-148 24 q0 10 10 10 m128 0 q10 0 10 -10 m-138 10 h10 m108 0 h10 m20 -44 h26 m-354 -10 v20 m364 0 v-20 m-364 20 v68 m364 0 v-68 m-364 68 q0 10 10 10 m344 0 q10 0 10 -10 m-334 10 h10 m66 0 h10 m0 0 h132 m-238 0 h20 m218 0 h20 m-258 0 q10 0 10 10 m238 0 q0 -10 10 -10 m-248 10 v24 m238 0 v-24 m-238 24 q0 10 10 10 m218 0 q10 0 10 -10 m-228 10 h10 m92 0 h10 m0 0 h106 m-228 -10 v20 m238 0 v-20 m-238 20 v24 m238 0 v-24 m-238 24 q0 10 10 10 m218 0 q10 0 10 -10 m-228 10 h10 m94 0 h10 m0 0 h104 m-228 -10 v20 m238 0 v-20 m-238 20 v24 m238 0 v-24 m-238 24 q0 10 10 10 m218 0 q10 0 10 -10 m-228 10 h10 m100 0 h10 m20 0 h10 m0 0 h48 m-78 0 h20 m58 0 h20 m-98 0 q10 0 10 10 m78 0 q0 -10 10 -10 m-88 10 v12 m78 0 v-12 m-78 12 q0 10 10 10 m58 0 q10 0 10 -10 m-68 10 h10 m38 0 h10 m-208 -42 v20 m238 0 v-20 m-238 20 v56 m238 0 v-56 m-238 56 q0 10 10 10 m218 0 q10 0 10 -10 m-228 10 h10 m64 0 h10 m20 0 h10 m0 0 h68 m-98 0 h20 m78 0 h20 m-118 0 q10 0 10 10 m98 0 q0 -10 10 -10 m-108 10 v12 m98 0 v-12 m-98 12 q0 10 10 10 m78 0 q10 0 10 -10 m-88 10 h10 m58 0 h10 m20 -32 h16 m20 -208 h10 m64 0 h10 m0 0 h2 m-354 -10 v20 m364 0 v-20 m-364 20 v264 m364 0 v-264 m-364 264 q0 10 10 10 m344 0 q10 0 10 -10 m-354 10 h10 m82 0 h10 m20 0 h10 m0 0 h192 m-222 0 h20 m202 0 h20 m-242 0 q10 0 10 10 m222 0 q0 -10 10 -10 m-232 10 v12 m222 0 v-12 m-222 12 q0 10 10 10 m202 0 q10 0 10 -10 m-192 10 h10 m0 0 h68 m-98 0 h20 m78 0 h20 m-118 0 q10 0 10 10 m98 0 q0 -10 10 -10 m-108 10 v12 m98 0 v-12 m-98 12 q0 10 10 10 m78 0 q10 0 10 -10 m-88 10 h10 m58 0 h10 m20 -32 h10 m64 0 h10 m-334 -42 v20 m364 0 v-20 m-364 20 v88 m364 0 v-88 m-364 88 q0 10 10 10 m344 0 q10 0 10 -10 m-354 10 h10 m80 0 h10 m0 0 h244 m-384 -656 l20 0 m-1 0 q-9 0 -9 -10 l0 -12 q0 -10 10 -10 m384 32 l20 0 m-20 0 q10 0 10 -10 l0 -12 q0 -10 -10 -10 m-384 0 h10 m0 0 h374 m-424 32 h20 m424 0 h20 m-464 0 q10 0 10 10 m444 0 q0 -10 10 -10 m-454 10 v670 m444 0 v-670 m-444 670 q0 10 10 10 m424 0 q10 0 10 -10 m-434 10 h10 m0 0 h414 m23 -690 h-3"></path>
<polygon points="725 131 733 127 733 135"></polygon>
<polygon points="725 131 717 127 717 135"></polygon></svg>