<svg height="499" width="1231" xmlns="http://www.w3.org/2000/svg" xmlns:xlink="http://www.w3.org/1999/xlink"><style>svg {
  font-family: ui-monospace, SFMono-Regular, Menlo, Monaco, Consolas, "Liberation Mono", "Courier New", monospace;
}
text {
  fill: #2f3337;
  font-size: 14px;
}
rect {
  fill: #ffffff;
  stroke: #3a3d40;
  stroke-width: 2;
}
rect.terminal {
  fill: #ffffff;
}
rect.nonterminal {
  fill: #ffffff;
}
text.terminal {
  fill: #2f3337;
  font-weight: 600;
}
text.nonterminal {
  fill: #2563eb;
}
a text.nonterminal {
  text-decoration: underline;
}
path.line {
  fill: none;
  stroke: #3a3d40;
  stroke-width: 2;
}
polygon {
  fill: #2f3337;
  stroke: #2f3337;
}</style>
<polygon points="11 17 3 13 3 21"></polygon>
<polygon points="19 17 11 13 11 21"></polygon>
<rect height="32" rx="10" width="64" x="33" y="3"></rect>
<rect class="terminal" height="32" rx="10" width="64" x="31" y="1"></rect>
<text class="terminal" x="41" y="21">SHOW</text>
<rect height="32" rx="10" width="58" x="45" y="69"></rect>
<rect class="terminal" height="32" rx="10" width="58" x="43" y="67"></rect>
<text class="terminal" x="53" y="87">ZONE</text>
<rect height="32" rx="10" width="138" x="143" y="69"></rect>
<rect class="terminal" height="32" rx="10" width="138" x="141" y="67"></rect>
<text class="terminal" x="151" y="87">CONFIGURATION</text>
<rect height="32" rx="10" width="60" x="301" y="69"></rect>
<rect class="terminal" height="32" rx="10" width="60" x="299" y="67"></rect>
<text class="terminal" x="309" y="87">FROM</text>
<rect height="32" rx="10" width="66" x="401" y="69"></rect>
<rect class="terminal" height="32" rx="10" width="66" x="399" y="67"></rect>
<text class="terminal" x="409" y="87">RANGE</text><a xlink:href="/docs/v23.2/sql-grammar#zone_name" xlink:title="zone_name">
<rect height="32" width="94" x="487" y="69"></rect>
<rect class="nonterminal" height="32" width="94" x="485" y="67"></rect>
<text lengthAdjust="spacingAndGlyphs" textLength="70" font-size="12" class="nonterminal" x="497" y="87">zone_name</text></a><rect height="32" rx="10" width="92" x="401" y="113"></rect>
<rect class="terminal" height="32" rx="10" width="92" x="399" y="111"></rect>
<text class="terminal" x="409" y="131">DATABASE</text><a xlink:href="/docs/v23.2/sql-grammar#database_name" xlink:title="database_name">
<rect height="32" width="124" x="513" y="113"></rect>
<rect class="nonterminal" height="32" width="124" x="511" y="111"></rect>
<text lengthAdjust="spacingAndGlyphs" textLength="100" font-size="12" class="nonterminal" x="523" y="131">database_name</text></a><rect height="32" rx="10" width="62" x="421" y="157"></rect>
<rect class="terminal" height="32" rx="10" width="62" x="419" y="155"></rect>
<text class="terminal" x="429" y="175">TABLE</text><a xlink:href="/docs/v23.2/sql-grammar#table_name" xlink:title="table_name">
<rect height="32" width="96" x="503" y="157"></rect>
<rect class="nonterminal" height="32" width="96" x="501" y="155"></rect>
<text lengthAdjust="spacingAndGlyphs" textLength="72" font-size="11" class="nonterminal" x="513" y="175">table_name</text></a><rect height="32" rx="10" width="64" x="421" y="201"></rect>
<rect class="terminal" height="32" rx="10" width="64" x="419" y="199"></rect>
<text class="terminal" x="429" y="219">INDEX</text><a xlink:href="/docs/v23.2/sql-grammar#table_name" xlink:title="table_name">
<rect height="32" width="96" x="525" y="201"></rect>
<rect class="nonterminal" height="32" width="96" x="523" y="199"></rect>
<text lengthAdjust="spacingAndGlyphs" textLength="72" font-size="11" class="nonterminal" x="535" y="219">table_name</text></a><rect height="32" rx="10" width="32" x="641" y="201"></rect>
<rect class="terminal" height="32" rx="10" width="32" x="639" y="199"></rect>
<text class="terminal" x="649" y="219">@</text><a xlink:href="/docs/v23.2/sql-grammar#index_name" xlink:title="index_name">
<rect height="32" width="98" x="693" y="201"></rect>
<rect class="nonterminal" height="32" width="98" x="691" y="199"></rect>
<text lengthAdjust="spacingAndGlyphs" textLength="74" font-size="11" class="nonterminal" x="703" y="219">index_name</text></a><a xlink:href="/docs/v23.2/sql-grammar#standalone_index_name" xlink:title="standalone_index_name">
<rect height="32" width="176" x="525" y="245"></rect>
<rect class="nonterminal" height="32" width="176" x="523" y="243"></rect>
<text lengthAdjust="spacingAndGlyphs" textLength="152" font-size="11" class="nonterminal" x="535" y="263">standalone_index_name</text></a><rect height="32" rx="10" width="98" x="871" y="189"></rect>
<rect class="terminal" height="32" rx="10" width="98" x="869" y="187"></rect>
<text class="terminal" x="879" y="207">PARTITION</text><a xlink:href="/docs/v23.2/sql-grammar#partition_name" xlink:title="partition_name">
<rect height="32" width="116" x="989" y="189"></rect>
<rect class="nonterminal" height="32" width="116" x="987" y="187"></rect>
<text lengthAdjust="spacingAndGlyphs" textLength="92" font-size="10" class="nonterminal" x="999" y="207">partition_name</text></a><rect height="32" rx="10" width="98" x="401" y="289"></rect>
<rect class="terminal" height="32" rx="10" width="98" x="399" y="287"></rect>
<text class="terminal" x="409" y="307">PARTITION</text><a xlink:href="/docs/v23.2/sql-grammar#partition_name" xlink:title="partition_name">
<rect height="32" width="116" x="519" y="289"></rect>
<rect class="nonterminal" height="32" width="116" x="517" y="287"></rect>
<text lengthAdjust="spacingAndGlyphs" textLength="92" font-size="10" class="nonterminal" x="529" y="307">partition_name</text></a><rect height="32" rx="10" width="38" x="655" y="289"></rect>
<rect class="terminal" height="32" rx="10" width="38" x="653" y="287"></rect>
<text class="terminal" x="663" y="307">OF</text>
<rect height="32" rx="10" width="62" x="733" y="289"></rect>
<rect class="terminal" height="32" rx="10" width="62" x="731" y="287"></rect>
<text class="terminal" x="741" y="307">TABLE</text><a xlink:href="/docs/v23.2/sql-grammar#table_name" xlink:title="table_name">
<rect height="32" width="96" x="815" y="289"></rect>
<rect class="nonterminal" height="32" width="96" x="813" y="287"></rect>
<text lengthAdjust="spacingAndGlyphs" textLength="72" font-size="11" class="nonterminal" x="825" y="307">table_name</text></a><rect height="32" rx="10" width="64" x="733" y="333"></rect>
<rect class="terminal" height="32" rx="10" width="64" x="731" y="331"></rect>
<text class="terminal" x="741" y="351">INDEX</text><a xlink:href="/docs/v23.2/sql-grammar#table_name" xlink:title="table_name">
<rect height="32" width="96" x="837" y="333"></rect>
<rect class="nonterminal" height="32" width="96" x="835" y="331"></rect>
<text lengthAdjust="spacingAndGlyphs" textLength="72" font-size="11" class="nonterminal" x="847" y="351">table_name</text></a><rect height="32" rx="10" width="32" x="953" y="333"></rect>
<rect class="terminal" height="32" rx="10" width="32" x="951" y="331"></rect>
<text class="terminal" x="961" y="351">@</text><a xlink:href="/docs/v23.2/sql-grammar#index_name" xlink:title="index_name">
<rect height="32" width="98" x="1005" y="333"></rect>
<rect class="nonterminal" height="32" width="98" x="1003" y="331"></rect>
<text lengthAdjust="spacingAndGlyphs" textLength="74" font-size="11" class="nonterminal" x="1015" y="351">index_name</text></a><a xlink:href="/docs/v23.2/sql-grammar#standalone_index_name" xlink:title="standalone_index_name">
<rect height="32" width="176" x="837" y="377"></rect>
<rect class="nonterminal" height="32" width="176" x="835" y="375"></rect>
<text lengthAdjust="spacingAndGlyphs" textLength="152" font-size="11" class="nonterminal" x="847" y="395">standalone_index_name</text></a><rect height="32" rx="10" width="148" x="143" y="421"></rect>
<rect class="terminal" height="32" rx="10" width="148" x="141" y="419"></rect>
<text class="terminal" x="151" y="439">CONFIGURATIONS</text>
<rect height="32" rx="10" width="44" x="45" y="465"></rect>
<rect class="terminal" height="32" rx="10" width="44" x="43" y="463"></rect>
<text class="terminal" x="53" y="483">ALL</text>
<rect height="32" rx="10" width="58" x="109" y="465"></rect>
<rect class="terminal" height="32" rx="10" width="58" x="107" y="463"></rect>
<text class="terminal" x="117" y="483">ZONE</text>
<rect height="32" rx="10" width="148" x="187" y="465"></rect>
<rect class="terminal" height="32" rx="10" width="148" x="185" y="463"></rect>
<text class="terminal" x="195" y="483">CONFIGURATIONS</text>
<path class="line" d="m19 17 h2 m0 0 h10 m64 0 h10 m2 0 l2 0 m2 0 l2 0 m2 0 l2 0 m-116 66 l2 0 m2 0 l2 0 m2 0 l2 0 m22 0 h10 m58 0 h10 m20 0 h10 m138 0 h10 m0 0 h10 m60 0 h10 m20 0 h10 m66 0 h10 m0 0 h10 m94 0 h10 m0 0 h562 m-782 0 h20 m762 0 h20 m-802 0 q10 0 10 10 m782 0 q0 -10 10 -10 m-792 10 v24 m782 0 v-24 m-782 24 q0 10 10 10 m762 0 q10 0 10 -10 m-772 10 h10 m92 0 h10 m0 0 h10 m124 0 h10 m0 0 h506 m-772 -10 v20 m782 0 v-20 m-782 20 v24 m782 0 v-24 m-782 24 q0 10 10 10 m762 0 q10 0 10 -10 m-752 10 h10 m62 0 h10 m0 0 h10 m96 0 h10 m0 0 h212 m-430 0 h20 m410 0 h20 m-450 0 q10 0 10 10 m430 0 q0 -10 10 -10 m-440 10 v24 m430 0 v-24 m-430 24 q0 10 10 10 m410 0 q10 0 10 -10 m-420 10 h10 m64 0 h10 m20 0 h10 m96 0 h10 m0 0 h10 m32 0 h10 m0 0 h10 m98 0 h10 m-306 0 h20 m286 0 h20 m-326 0 q10 0 10 10 m306 0 q0 -10 10 -10 m-316 10 v24 m306 0 v-24 m-306 24 q0 10 10 10 m286 0 q10 0 10 -10 m-296 10 h10 m176 0 h10 m0 0 h90 m60 -88 h10 m0 0 h244 m-274 0 h20 m254 0 h20 m-294 0 q10 0 10 10 m274 0 q0 -10 10 -10 m-284 10 v12 m274 0 v-12 m-274 12 q0 10 10 10 m254 0 q10 0 10 -10 m-264 10 h10 m98 0 h10 m0 0 h10 m116 0 h10 m20 -32 h18 m-772 -10 v20 m782 0 v-20 m-782 20 v112 m782 0 v-112 m-782 112 q0 10 10 10 m762 0 q10 0 10 -10 m-772 10 h10 m98 0 h10 m0 0 h10 m116 0 h10 m0 0 h10 m38 0 h10 m20 0 h10 m62 0 h10 m0 0 h10 m96 0 h10 m0 0 h212 m-430 0 h20 m410 0 h20 m-450 0 q10 0 10 10 m430 0 q0 -10 10 -10 m-440 10 v24 m430 0 v-24 m-430 24 q0 10 10 10 m410 0 q10 0 10 -10 m-420 10 h10 m64 0 h10 m20 0 h10 m96 0 h10 m0 0 h10 m32 0 h10 m0 0 h10 m98 0 h10 m-306 0 h20 m286 0 h20 m-326 0 q10 0 10 10 m306 0 q0 -10 10 -10 m-316 10 v24 m306 0 v-24 m-306 24 q0 10 10 10 m286 0 q10 0 10 -10 m-296 10 h10 m176 0 h10 m0 0 h90 m-1000 -308 h20 m1040 0 h20 m-1080 0 q10 0 10 10 m1060 0 q0 -10 10 -10 m-1070 10 v332 m1060 0 v-332 m-1060 332 q0 10 10 10 m1040 0 q10 0 10 -10 m-1050 10 h10 m148 0 h10 m0 0 h872 m-1158 -352 h20 m1158 0 h20 m-1198 0 q10 0 10 10 m1178 0 q0 -10 10 -10 m-1188 10 v376 m1178 0 v-376 m-1178 376 q0 10 10 10 m1158 0 q10 0 10 -10 m-1168 10 h10 m44 0 h10 m0 0 h10 m58 0 h10 m0 0 h10 m148 0 h10 m0 0 h848 m23 -396 h-3"></path>
<polygon points="1221 83 1229 79 1229 87"></polygon>
<polygon points="1221 83 1213 79 1213 87"></polygon></svg>