<svg height="145" width="573" xmlns="http://www.w3.org/2000/svg" xmlns:xlink="http://www.w3.org/1999/xlink"><style>svg {
  font-family: ui-monospace, SFMono-Regular, Menlo, Monaco, Consolas, "Liberation Mono", "Courier New", monospace;
}
text {
  fill: #2f3337;
  font-size: 14px;
}
rect {
  fill: #ffffff;
  stroke: #3a3d40;
  stroke-width: 2;
}
rect.terminal {
  fill: #ffffff;
}
rect.nonterminal {
  fill: #ffffff;
}
text.terminal {
  fill: #2f3337;
  font-weight: 600;
}
text.nonterminal {
  fill: #2563eb;
}
a text.nonterminal {
  text-decoration: underline;
}
path.line {
  fill: none;
  stroke: #3a3d40;
  stroke-width: 2;
}
polygon {
  fill: #2f3337;
  stroke: #2f3337;
}</style>
<polygon points="9 17 1 13 1 21"></polygon>
<polygon points="17 17 9 13 9 21"></polygon>
<rect height="32" rx="10" width="74" x="31" y="3"></rect>
<rect class="terminal" height="32" rx="10" width="74" x="29" y="1"></rect>
<text class="terminal" x="39" y="21">CANCEL</text>
<rect height="32" rx="10" width="66" x="145" y="3"></rect>
<rect class="terminal" height="32" rx="10" width="66" x="143" y="1"></rect>
<text class="terminal" x="153" y="21">QUERY</text>
<rect height="32" rx="10" width="34" x="251" y="35"></rect>
<rect class="terminal" height="32" rx="10" width="34" x="249" y="33"></rect>
<text class="terminal" x="259" y="53">IF</text>
<rect height="32" rx="10" width="70" x="305" y="35"></rect>
<rect class="terminal" height="32" rx="10" width="70" x="303" y="33"></rect>
<text class="terminal" x="313" y="53">EXISTS</text>
<rect height="32" width="76" x="415" y="3"></rect>
<rect class="nonterminal" height="32" width="76" x="413" y="1"></rect>
<text lengthAdjust="spacingAndGlyphs" textLength="52" font-size="10" class="nonterminal" x="425" y="21">query_id</text><rect height="32" rx="10" width="82" x="145" y="79"></rect>
<rect class="terminal" height="32" rx="10" width="82" x="143" y="77"></rect>
<text class="terminal" x="153" y="97">QUERIES</text>
<rect height="32" rx="10" width="34" x="267" y="111"></rect>
<rect class="terminal" height="32" rx="10" width="34" x="265" y="109"></rect>
<text class="terminal" x="275" y="129">IF</text>
<rect height="32" rx="10" width="70" x="321" y="111"></rect>
<rect class="terminal" height="32" rx="10" width="70" x="319" y="109"></rect>
<text class="terminal" x="329" y="129">EXISTS</text><a xlink:href="/docs/stable/sql-grammar#select_stmt" xlink:title="select_stmt">
<rect height="32" width="94" x="431" y="79"></rect>
<rect class="nonterminal" height="32" width="94" x="429" y="77"></rect>
<text lengthAdjust="spacingAndGlyphs" textLength="70" font-size="10" class="nonterminal" x="441" y="97">select_stmt</text></a><path class="line" d="m17 17 h2 m0 0 h10 m74 0 h10 m20 0 h10 m66 0 h10 m20 0 h10 m0 0 h134 m-164 0 h20 m144 0 h20 m-184 0 q10 0 10 10 m164 0 q0 -10 10 -10 m-174 10 v12 m164 0 v-12 m-164 12 q0 10 10 10 m144 0 q10 0 10 -10 m-154 10 h10 m34 0 h10 m0 0 h10 m70 0 h10 m20 -32 h10 m76 0 h10 m0 0 h34 m-420 0 h20 m400 0 h20 m-440 0 q10 0 10 10 m420 0 q0 -10 10 -10 m-430 10 v56 m420 0 v-56 m-420 56 q0 10 10 10 m400 0 q10 0 10 -10 m-410 10 h10 m82 0 h10 m20 0 h10 m0 0 h134 m-164 0 h20 m144 0 h20 m-184 0 q10 0 10 10 m164 0 q0 -10 10 -10 m-174 10 v12 m164 0 v-12 m-164 12 q0 10 10 10 m144 0 q10 0 10 -10 m-154 10 h10 m34 0 h10 m0 0 h10 m70 0 h10 m20 -32 h10 m94 0 h10 m23 -76 h-3"></path>
<polygon points="563 17 571 13 571 21"></polygon>
<polygon points="563 17 555 13 555 21"></polygon></svg>