<svg height="103" width="649" xmlns="http://www.w3.org/2000/svg" xmlns:xlink="http://www.w3.org/1999/xlink"><style>svg {
  font-family: ui-monospace, SFMono-Regular, Menlo, Monaco, Consolas, "Liberation Mono", "Courier New", monospace;
}
text {
  fill: #2f3337;
  font-size: 14px;
}
rect {
  fill: #ffffff;
  stroke: #3a3d40;
  stroke-width: 2;
}
rect.terminal {
  fill: #ffffff;
}
rect.nonterminal {
  fill: #ffffff;
}
text.terminal {
  fill: #2f3337;
  font-weight: 600;
}
text.nonterminal {
  fill: #2563eb;
}
a text.nonterminal {
  text-decoration: underline;
}
path.line {
  fill: none;
  stroke: #3a3d40;
  stroke-width: 2;
}
polygon {
  fill: #2f3337;
  stroke: #2f3337;
}</style>
<polygon points="9 17 1 13 1 21"></polygon>
<polygon points="17 17 9 13 9 21"></polygon>
<rect height="32" rx="10" width="64" x="31" y="3"></rect>
<rect class="terminal" height="32" rx="10" width="64" x="29" y="1"></rect>
<text class="terminal" x="39" y="21">SHOW</text>
<rect height="32" rx="10" width="80" x="115" y="3"></rect>
<rect class="terminal" height="32" rx="10" width="80" x="113" y="1"></rect>
<text class="terminal" x="123" y="21">INSPECT</text>
<rect height="32" rx="10" width="76" x="215" y="3"></rect>
<rect class="terminal" height="32" rx="10" width="76" x="213" y="1"></rect>
<text class="terminal" x="223" y="21">ERRORS</text><a xlink:href="/docs/stable/sql-grammar#opt_for_table_clause" xlink:title="opt_for_table_clause">
<rect height="32" width="154" x="311" y="3"></rect>
<rect class="nonterminal" height="32" width="154" x="309" y="1"></rect>
<text lengthAdjust="spacingAndGlyphs" textLength="130" font-size="10" class="nonterminal" x="321" y="21">opt_for_table_clause</text></a><a xlink:href="/docs/stable/sql-grammar#opt_for_job_clause" xlink:title="opt_for_job_clause">
<rect height="32" width="142" x="485" y="3"></rect>
<rect class="nonterminal" height="32" width="142" x="483" y="1"></rect>
<text lengthAdjust="spacingAndGlyphs" textLength="118" font-size="10" class="nonterminal" x="495" y="21">opt_for_job_clause</text></a><a xlink:href="/docs/stable/sql-grammar#opt_with_details" xlink:title="opt_with_details">
<rect height="32" width="126" x="495" y="69"></rect>
<rect class="nonterminal" height="32" width="126" x="493" y="67"></rect>
<text lengthAdjust="spacingAndGlyphs" textLength="102" font-size="10" class="nonterminal" x="505" y="87">opt_with_details</text></a><path class="line" d="m17 17 h2 m0 0 h10 m64 0 h10 m0 0 h10 m80 0 h10 m0 0 h10 m76 0 h10 m0 0 h10 m154 0 h10 m0 0 h10 m142 0 h10 m2 0 l2 0 m2 0 l2 0 m2 0 l2 0 m-176 66 l2 0 m2 0 l2 0 m2 0 l2 0 m2 0 h10 m126 0 h10 m3 0 h-3"></path>
<polygon points="639 83 647 79 647 87"></polygon>
<polygon points="639 83 631 79 631 87"></polygon></svg>