<?xml version="1.0" encoding="UTF-8"?>
<svg width="419px" height="60px" viewBox="0 0 419 60" version="1.1" xmlns="http://www.w3.org/2000/svg" xmlns:xlink="http://www.w3.org/1999/xlink">
    <!-- Generator: Sketch 46.2 (44496) - http://www.bohemiancoding.com/sketch -->
    <title>CL_Logo</title>
    <desc>Created with Sketch.</desc>
    <defs>
        <polygon id="path-1" points="0.000305090692 59.94 317.006 59.94 317.006 0 0.000305090692 0"></polygon>
    </defs>
    <g id="Symbols" stroke="none" stroke-width="1" fill="none" fill-rule="evenodd">
        <g id="CL_Logo">
            <g>
                <path d="M97.216,48.747 C94.303,50.525 89.365,51.462 84.872,51.462 C72.578,51.462 67.541,44.303 67.541,32.849 C67.541,22.331 73.615,14.481 85.909,14.481 C90.007,14.481 94.401,15.518 97.118,17.295 L97.118,26.972 L91.686,26.529 L90.896,21.691 C90.798,21.196 90.6,20.949 90.106,20.801 C89.02,20.455 87.341,20.209 85.712,20.209 C79.441,20.209 75.441,24.454 75.441,32.849 C75.441,41.588 79.243,45.834 85.366,45.834 C86.996,45.834 89.02,45.587 90.303,45.192 C90.896,45.045 91.044,44.895 91.192,44.155 L91.933,39.564 L97.216,39.564 L97.216,48.747" id="Fill-1" fill="#152849"></path>
                <path d="M118.201,37.885 C118.201,32.058 116.424,29.985 113.215,29.985 C109.956,29.985 107.783,32.01 107.783,37.933 C107.783,43.908 109.709,46.279 113.018,46.279 C116.227,46.279 118.201,44.056 118.201,37.885 L118.201,37.885 Z M99.982,38.181 C99.982,29.985 104.278,24.652 113.314,24.652 C122.448,24.652 126.003,30.084 126.003,37.638 C126.003,46.032 121.757,51.462 112.672,51.462 C103.636,51.462 99.982,45.932 99.982,38.181 L99.982,38.181 Z" id="Fill-2" fill="#152849"></path>
                <path d="M151.136,49.044 C148.865,50.426 145.36,51.462 141.756,51.462 C132.818,51.462 128.819,45.884 128.819,38.378 C128.819,29.145 134.448,24.652 142.348,24.652 C146.199,24.652 149.606,25.738 151.136,26.727 L151.136,34.478 L145.854,34.231 L145.261,30.972 C145.212,30.626 145.113,30.331 144.669,30.182 C144.076,29.985 143.138,29.837 142.151,29.837 C139.188,29.837 136.67,31.861 136.67,37.638 C136.67,44.056 139.534,45.884 143.039,45.884 C145.508,45.884 147.73,45.093 149.211,44.451 L151.136,49.044" id="Fill-3" fill="#152849"></path>
                <path d="M172.617,50.87 L166.346,38.28 L163.679,41.193 L163.679,45.637 C163.679,46.426 163.729,46.526 164.469,46.624 L167.432,46.97 L167.432,50.87 L152.965,50.87 L152.965,46.97 L155.434,46.624 C156.125,46.526 156.224,46.377 156.224,45.637 L156.224,19.567 C156.224,19.023 156.076,18.678 155.582,18.531 L152.866,17.592 L153.409,13.592 L163.679,13.592 L163.679,34.676 L172.715,25.146 L179.529,25.146 L179.529,29.047 L176.961,29.54 C176.319,29.639 176.171,29.787 175.727,30.281 L172.221,33.984 L178.541,45.784 C178.887,46.476 179.233,46.574 180.022,46.674 L182.195,47.019 L182.195,50.87 L172.617,50.87" id="Fill-4" fill="#152849"></path>
                <path d="M184.468,50.87 L184.468,46.871 L186.69,46.574 C187.381,46.476 187.48,46.328 187.48,45.587 L187.48,31.121 C187.48,30.577 187.332,30.232 186.838,30.084 L184.172,29.145 L184.715,25.146 L193.405,25.146 L193.997,29.095 L194.294,29.095 C195.923,26.577 198.095,24.652 201.255,24.652 C202.391,24.652 204.662,24.85 205.551,25.096 L205.551,34.083 L199.626,33.886 L199.133,31.268 C199.034,30.824 198.886,30.726 198.491,30.726 C197.207,30.726 195.676,31.811 194.935,32.453 L194.935,45.537 C194.935,46.328 194.985,46.476 195.726,46.526 L200.614,46.921 L200.614,50.87 L184.468,50.87" id="Fill-5" fill="#152849"></path>
                <path d="M225.993,37.885 C225.993,32.058 224.216,29.985 221.007,29.985 C217.748,29.985 215.575,32.01 215.575,37.933 C215.575,43.908 217.501,46.279 220.81,46.279 C224.019,46.279 225.993,44.056 225.993,37.885 L225.993,37.885 Z M207.774,38.181 C207.774,29.985 212.07,24.652 221.106,24.652 C230.24,24.652 233.795,30.084 233.795,37.638 C233.795,46.032 229.549,51.462 220.464,51.462 C211.428,51.462 207.774,45.932 207.774,38.181 L207.774,38.181 Z" id="Fill-6" fill="#152849"></path>
                <path d="M250.781,40.254 L247.424,40.501 C244.51,40.699 243.473,41.44 243.473,43.414 C243.473,45.39 244.659,46.13 246.288,46.13 C247.967,46.13 249.646,45.192 250.781,44.353 L250.781,40.254 L250.781,40.254 Z M252.114,50.87 L251.621,48.204 L251.373,48.155 C249.497,49.981 247.029,51.462 243.079,51.462 C236.857,51.462 235.87,47.216 235.87,44.155 C235.87,39.217 238.931,36.946 245.103,36.552 L250.781,36.157 L250.781,33.441 C250.781,31.121 250.534,29.54 247.473,29.54 C245.103,29.54 243.869,29.887 243.869,32.849 L236.907,32.255 C236.907,25.59 242.98,24.652 247.523,24.652 C255.028,24.652 258.039,26.677 258.039,33.589 L258.039,45.587 C258.039,46.377 258.089,46.476 258.83,46.574 L261.199,46.97 L261.199,50.87 L252.114,50.87 L252.114,50.87 Z" id="Fill-7" fill="#152849"></path>
                <path d="M284.604,49.044 C282.334,50.426 278.828,51.462 275.224,51.462 C266.287,51.462 262.287,45.884 262.287,38.378 C262.287,29.145 267.916,24.652 275.816,24.652 C279.667,24.652 283.074,25.738 284.604,26.727 L284.604,34.478 L279.322,34.231 L278.729,30.972 C278.68,30.626 278.581,30.331 278.137,30.182 C277.545,29.985 276.606,29.837 275.619,29.837 C272.656,29.837 270.138,31.861 270.138,37.638 C270.138,44.056 273.002,45.884 276.507,45.884 C278.976,45.884 281.198,45.093 282.679,44.451 L284.604,49.044" id="Fill-8" fill="#152849"></path>
                <g id="Group-12">
                    <mask id="mask-2" fill="white">
                        <use xlink:href="#path-1"></use>
                    </mask>
                    <g id="Clip-10"></g>
                    <path d="M306.292,50.87 L306.292,34.773 C306.292,33.292 306.143,30.577 303.675,30.577 C301.848,30.577 299.775,31.516 298.54,32.405 L298.54,45.637 C298.54,46.426 298.589,46.526 299.33,46.624 L301.7,46.97 L301.7,50.87 L288.073,50.87 L288.073,46.97 L290.295,46.624 C290.985,46.526 291.084,46.377 291.084,45.637 L291.084,19.567 C291.084,19.023 290.936,18.678 290.442,18.531 L287.727,17.592 L288.27,13.592 L298.441,13.592 L298.441,27.566 L298.688,27.614 C300.91,25.788 303.478,24.652 306.588,24.652 C311.821,24.652 313.747,27.516 313.747,32.65 L313.747,45.637 C313.747,46.426 313.797,46.526 314.538,46.624 L317.006,46.97 L317.006,50.87 L306.292,50.87" id="Fill-9" fill="#152849" mask="url(#mask-2)"></path>
                    <path d="M36.414,17.194 C34.304,17.688 32.097,17.944 29.837,17.944 C27.577,17.944 25.37,17.688 23.251,17.194 C25.016,14.395 27.25,11.905 29.837,9.857 C32.424,11.914 34.648,14.395 36.414,17.194 L36.414,17.194 Z M56.306,1.076 C53.653,0.368 50.856,0 47.979,0 C41.275,0 35.036,2.017 29.829,5.485 C24.63,2.017 18.392,0 11.678,0 C8.801,0 6.004,0.368 3.351,1.076 C2.231,1.36 1.145,1.719 0.083,2.12 C0.014,2.146 -0.019,2.228 0.012,2.295 C0.476,3.303 0.993,4.28 1.551,5.225 C1.581,5.278 1.645,5.3 1.702,5.28 C2.809,4.883 3.941,4.545 5.099,4.275 C7.214,3.782 9.419,3.532 11.678,3.532 C17.217,3.532 22.398,5.082 26.826,7.753 C24.02,10.128 21.618,12.97 19.745,16.152 C19.378,16.761 19.046,17.38 18.723,18.007 C18.508,18.428 18.302,18.859 18.096,19.307 C17.8,19.979 17.513,20.651 17.262,21.341 C15.936,24.9 15.21,28.754 15.21,32.761 C15.21,42.037 19.091,50.427 25.311,56.397 C25.795,56.872 26.297,57.32 26.826,57.759 C27.238,58.117 27.651,58.449 28.081,58.772 C28.623,59.202 29.189,59.599 29.757,59.978 C29.8,60.008 29.857,60.007 29.9,59.978 C30.467,59.59 31.026,59.193 31.567,58.772 C32.007,58.449 32.419,58.117 32.831,57.759 C33.351,57.32 33.871,56.863 34.355,56.397 C40.566,50.427 44.448,42.029 44.448,32.761 C44.448,28.754 43.722,24.909 42.395,21.35 C42.135,20.66 41.857,19.979 41.553,19.307 C41.355,18.859 41.149,18.428 40.943,18.007 C40.611,17.38 40.28,16.761 39.912,16.152 C38.03,12.97 35.637,10.128 32.831,7.753 C37.259,5.082 42.44,3.532 47.979,3.532 C50.238,3.532 52.443,3.782 54.558,4.275 C55.716,4.545 56.857,4.883 57.956,5.28 C58.013,5.3 58.076,5.277 58.107,5.225 C58.663,4.28 59.173,3.303 59.644,2.296 C59.676,2.228 59.643,2.146 59.573,2.12 C58.503,1.719 57.417,1.36 56.306,1.076 L56.306,1.076 Z" id="Fill-11" fill="#152849" mask="url(#mask-2)"></path>
                </g>
                <polyline id="Fill-13" fill="#54B30E" points="331.056 25.197 336.713 25.197 336.713 45.649 347.193 45.649 347.193 50.87 331.056 50.87 331.056 25.197"></polyline>
                <path d="M362.096,32.667 L358.978,40.644 L365.251,40.644 L362.096,32.667 L362.096,32.667 Z M359.92,25.197 L364.598,25.197 L375.767,50.87 L369.384,50.87 L367.173,45.43 L357.2,45.43 L355.061,50.87 L348.824,50.87 L359.92,25.197 L359.92,25.197 Z" id="Fill-14" fill="#54B30E"></path>
                <path d="M383.744,46.084 L388.821,46.084 C389.257,46.084 389.697,46.036 390.145,45.938 C390.592,45.842 390.997,45.673 391.359,45.43 C391.722,45.189 392.018,44.876 392.248,44.488 C392.478,44.101 392.592,43.63 392.592,43.074 C392.592,42.469 392.441,41.981 392.139,41.606 C391.836,41.231 391.456,40.947 390.997,40.753 C390.537,40.56 390.042,40.427 389.511,40.354 C388.978,40.281 388.482,40.245 388.023,40.245 L383.744,40.245 L383.744,46.084 L383.744,46.084 Z M383.744,35.459 L387.842,35.459 C388.277,35.459 388.706,35.411 389.129,35.314 C389.552,35.218 389.933,35.06 390.272,34.843 C390.61,34.624 390.882,34.335 391.087,33.972 C391.292,33.61 391.396,33.175 391.396,32.667 C391.396,32.135 391.281,31.693 391.051,31.344 C390.822,30.993 390.525,30.721 390.163,30.527 C389.801,30.334 389.389,30.195 388.93,30.11 C388.471,30.025 388.023,29.983 387.588,29.983 L383.744,29.983 L383.744,35.459 L383.744,35.459 Z M378.087,25.197 L387.661,25.197 C388.772,25.197 389.891,25.275 391.015,25.432 C392.139,25.59 393.148,25.904 394.043,26.375 C394.937,26.847 395.662,27.506 396.219,28.351 C396.775,29.198 397.053,30.322 397.053,31.723 C397.053,33.175 396.647,34.377 395.838,35.333 C395.028,36.288 393.958,36.971 392.629,37.38 L392.629,37.453 C393.474,37.575 394.242,37.81 394.932,38.161 C395.62,38.511 396.212,38.958 396.708,39.502 C397.203,40.046 397.585,40.681 397.85,41.405 C398.116,42.132 398.249,42.905 398.249,43.726 C398.249,45.081 397.959,46.211 397.379,47.117 C396.799,48.024 396.049,48.755 395.131,49.311 C394.212,49.867 393.178,50.266 392.03,50.507 C390.882,50.75 389.74,50.87 388.603,50.87 L378.087,50.87 L378.087,25.197 L378.087,25.197 Z" id="Fill-15" fill="#54B30E"></path>
                <path d="M414.459,31.47 C413.999,30.89 413.377,30.461 412.591,30.182 C411.805,29.905 411.062,29.766 410.362,29.766 C409.95,29.766 409.528,29.814 409.092,29.911 C408.657,30.007 408.246,30.159 407.859,30.364 C407.472,30.569 407.158,30.842 406.916,31.18 C406.674,31.518 406.554,31.93 406.554,32.412 C406.554,33.187 406.844,33.779 407.424,34.19 C408.004,34.602 408.735,34.951 409.618,35.241 C410.5,35.531 411.449,35.821 412.464,36.112 C413.48,36.401 414.428,36.812 415.311,37.344 C416.193,37.876 416.925,38.59 417.505,39.484 C418.085,40.379 418.375,41.576 418.375,43.074 C418.375,44.501 418.109,45.745 417.577,46.809 C417.045,47.873 416.327,48.755 415.42,49.457 C414.513,50.157 413.461,50.677 412.265,51.015 C411.068,51.354 409.805,51.523 408.476,51.523 C406.808,51.523 405.26,51.27 403.834,50.762 C402.407,50.254 401.078,49.433 399.845,48.295 L403.871,43.872 C404.451,44.645 405.182,45.243 406.064,45.667 C406.946,46.09 407.859,46.301 408.802,46.301 C409.261,46.301 409.726,46.247 410.198,46.139 C410.67,46.028 411.092,45.866 411.467,45.649 C411.842,45.43 412.143,45.153 412.374,44.814 C412.603,44.476 412.718,44.077 412.718,43.618 C412.718,42.844 412.422,42.234 411.83,41.787 C411.237,41.339 410.494,40.959 409.6,40.644 C408.705,40.331 407.738,40.016 406.699,39.701 C405.659,39.388 404.692,38.964 403.798,38.432 C402.903,37.9 402.16,37.2 401.568,36.329 C400.975,35.459 400.679,34.311 400.679,32.884 C400.679,31.507 400.951,30.298 401.495,29.258 C402.039,28.218 402.765,27.349 403.671,26.647 C404.577,25.946 405.623,25.42 406.808,25.069 C407.992,24.719 409.213,24.545 410.47,24.545 C411.92,24.545 413.323,24.75 414.677,25.161 C416.03,25.572 417.251,26.261 418.339,27.227 L414.459,31.47" id="Fill-16" fill="#54B30E"></path>
                <path d="M40.916,32.763 C40.916,40.515 37.885,47.566 32.938,52.803 C32.069,50.024 31.596,47.075 31.596,44.025 C31.596,36.273 34.627,29.209 39.574,23.985 C40.444,26.758 40.916,29.707 40.916,32.763" id="Fill-17" fill="#338C03"></path>
                <path d="M28.061,44.025 C28.061,47.075 27.594,50.024 26.718,52.803 C21.771,47.566 18.74,40.515 18.74,32.763 C18.74,29.707 19.219,26.758 20.095,23.985 C25.042,29.209 28.061,36.273 28.061,44.025" id="Fill-18" fill="#82CC00"></path>
            </g>
        </g>
    </g>
</svg>