<svg width="62" height="58" viewBox="0 0 62 58" fill="none" xmlns="http://www.w3.org/2000/svg">
<path d="M31.6404 37.2279V30.627H30.1171V37.2279H8.08008V45.3522H9.60338V38.7512H30.1171V45.3522H31.6404V38.7512H52.2557V45.3522H53.779V37.2279H31.6404Z" fill="url(#paint0_linear)"/>
<path d="M30.9296 31.4395C26.5628 31.4395 19.1494 30.6271 19.1494 27.6821V4.32485C19.1494 1.68447 25.2426 0.567383 30.9296 0.567383C35.2964 0.567383 42.7098 1.37981 42.7098 4.32485V27.6821C42.7098 30.2209 36.6166 31.4395 30.9296 31.4395ZM30.9296 1.98913C24.2271 1.98913 20.6727 3.61398 20.6727 4.2233V27.5805C20.6727 28.393 24.3286 29.8147 30.9296 29.8147C37.6321 29.8147 41.1865 28.1898 41.1865 27.5805V4.2233C41.1865 3.51242 37.5305 1.98913 30.9296 1.98913Z" fill="black"/>
<path d="M30.9296 7.77748C25.2426 7.77748 19.251 6.55884 19.251 3.91846H20.7743C20.7743 4.62933 24.2271 6.25418 30.9296 6.25418C37.6321 6.25418 41.0849 4.62933 41.0849 3.91846H42.6082C42.6082 6.55884 36.515 7.77748 30.9296 7.77748Z" fill="black"/>
<path d="M30.9296 15.5973C25.9535 15.5973 21.5867 14.7849 19.4541 13.4647L20.2665 12.1445C22.0945 13.2616 26.2582 13.9725 30.9296 13.9725C35.6011 13.9725 39.7647 13.2616 41.5927 12.1445L42.4051 13.4647C40.2725 14.8865 35.9057 15.5973 30.9296 15.5973Z" fill="black"/>
<path d="M30.9296 23.5182C25.9535 23.5182 21.5867 22.7058 19.4541 21.3856L20.2665 20.0654C22.0945 21.1825 26.2582 21.8934 30.9296 21.8934C35.6011 21.8934 39.7647 21.1825 41.5927 20.0654L42.4051 21.3856C40.2725 22.7058 35.9057 23.5182 30.9296 23.5182Z" fill="black"/>
<path d="M16.9153 57.2342H0.666748V44.6416H16.9153V57.2342ZM2.19005 55.7109H15.392V46.1649H2.19005V55.7109Z" fill="black"/>
<path d="M39.0539 57.2342H22.8054V44.6416H39.0539V57.2342ZM24.3287 55.7109H37.5306V46.1649H24.3287V55.7109Z" fill="black"/>
<path d="M61.1924 57.2342H44.9438V44.6416H61.1924V57.2342ZM46.4671 55.7109H59.6691V46.1649H46.4671V55.7109Z" fill="black"/>
<defs>
<linearGradient id="paint0_linear" x1="8.03875" y1="38.0096" x2="53.7962" y2="38.0096" gradientUnits="userSpaceOnUse">
<stop stop-color="#1BF8EC"/>
<stop offset="0.33" stop-color="#6933FF"/>
<stop offset="1" stop-color="#0037A5"/>
</linearGradient>
</defs>
</svg>
