<svg width="25" height="26" viewBox="0 0 25 26" fill="none" xmlns="http://www.w3.org/2000/svg">
<path fill-rule="evenodd" clip-rule="evenodd" d="M19.9615 0.0956124C20.5624 0.352717 20.8407 1.04747 20.5832 1.64738L17.7394 8.27259H23.0462C23.5403 8.27259 23.9825 8.57908 24.1552 9.04133C24.3279 9.50359 24.1948 10.0243 23.8214 10.3474L6.06677 25.7107C5.57277 26.1382 4.82524 26.0849 4.3971 25.5916C3.96897 25.0984 4.02237 24.352 4.51637 23.9246L19.8732 10.6362H15.9443C15.5465 10.6362 15.1752 10.4366 14.9562 10.1049C14.7372 9.7733 14.6997 9.35398 14.8564 8.98885L18.4073 0.716319C18.6648 0.116407 19.3607 -0.161492 19.9615 0.0956124Z" fill="url(#paint0_linear)"/>
<path fill-rule="evenodd" clip-rule="evenodd" d="M8.1468 0.105988C8.74191 0.376071 9.00506 1.0767 8.73455 1.67088L3.57701 12.9997H8.84064C9.22112 12.9997 9.5784 13.1824 9.80086 13.4905C10.0233 13.7987 10.0839 14.1949 9.96354 14.5553L6.41263 25.1914C6.20591 25.8106 5.53559 26.1452 4.91543 25.9388C4.29527 25.7324 3.96011 25.0631 4.16683 24.4439L7.19844 15.3633H1.73882C1.33638 15.3633 0.961517 15.1592 0.743644 14.8213C0.525772 14.4835 0.494744 14.0583 0.661272 13.6925L6.57946 0.692822C6.84997 0.09864 7.55169 -0.164094 8.1468 0.105988Z" fill="url(#paint1_linear)"/>
<defs>
<linearGradient id="paint0_linear" x1="4.10791" y1="-0.000244141" x2="29.595" y2="4.43093" gradientUnits="userSpaceOnUse">
<stop offset="0.313546" stop-color="#37A806"/>
<stop offset="1" stop-color="#0788FF"/>
</linearGradient>
<linearGradient id="paint1_linear" x1="0.555176" y1="-0.000228882" x2="12.8294" y2="1.00399" gradientUnits="userSpaceOnUse">
<stop offset="0.313546" stop-color="#37A806"/>
<stop offset="1" stop-color="#0788FF"/>
</linearGradient>
</defs>
</svg>
