<svg height="71" width="453" xmlns="http://www.w3.org/2000/svg" xmlns:xlink="http://www.w3.org/1999/xlink"><style>svg {
  font-family: ui-monospace, SFMono-Regular, Menlo, Monaco, Consolas, "Liberation Mono", "Courier New", monospace;
}
text {
  fill: #2f3337;
  font-size: 14px;
}
rect {
  fill: #ffffff;
  stroke: #3a3d40;
  stroke-width: 2;
}
rect.terminal {
  fill: #ffffff;
}
rect.nonterminal {
  fill: #ffffff;
}
text.terminal {
  fill: #2f3337;
  font-weight: 600;
}
text.nonterminal {
  fill: #2563eb;
}
a text.nonterminal {
  text-decoration: underline;
}
path.line {
  fill: none;
  stroke: #3a3d40;
  stroke-width: 2;
}
polygon {
  fill: #2f3337;
  stroke: #2f3337;
}</style>
<polygon points="9 51 1 47 1 55"></polygon>
<polygon points="17 51 9 47 9 55"></polygon><a xlink:href="/docs/v25.2/sql-grammar#column_name" xlink:title="column_name">
<rect height="32" width="108" x="31" y="37"></rect>
<rect class="nonterminal" height="32" width="108" x="29" y="35"></rect>
<text lengthAdjust="spacingAndGlyphs" textLength="84" font-size="12" class="nonterminal" x="41" y="55">column_name</text></a><a xlink:href="/docs/v25.2/sql-grammar#typename" xlink:title="typename">
<rect height="32" width="84" x="159" y="37"></rect>
<rect class="nonterminal" height="32" width="84" x="157" y="35"></rect>
<text lengthAdjust="spacingAndGlyphs" textLength="60" font-size="12" class="nonterminal" x="169" y="55">typename</text></a><a xlink:href="/docs/v25.2/sql-grammar#col_qualification" xlink:title="col_qualification">
<rect height="32" width="122" x="283" y="3"></rect>
<rect class="nonterminal" height="32" width="122" x="281" y="1"></rect>
<text lengthAdjust="spacingAndGlyphs" textLength="98" font-size="10" class="nonterminal" x="293" y="21">col_qualification</text></a><path class="line" d="m17 51 h2 m0 0 h10 m108 0 h10 m0 0 h10 m84 0 h10 m20 0 h10 m0 0 h132 m-162 0 l20 0 m-1 0 q-9 0 -9 -10 l0 -14 q0 -10 10 -10 m142 34 l20 0 m-20 0 q10 0 10 -10 l0 -14 q0 -10 -10 -10 m-142 0 h10 m122 0 h10 m23 34 h-3"></path>
<polygon points="443 51 451 47 451 55"></polygon>
<polygon points="443 51 435 47 435 55"></polygon></svg>