<svg height="37" width="713" xmlns="http://www.w3.org/2000/svg" xmlns:xlink="http://www.w3.org/1999/xlink"><style>svg {
  font-family: ui-monospace, SFMono-Regular, Menlo, Monaco, Consolas, "Liberation Mono", "Courier New", monospace;
}
text {
  fill: #2f3337;
  font-size: 14px;
}
rect {
  fill: #ffffff;
  stroke: #3a3d40;
  stroke-width: 2;
}
rect.terminal {
  fill: #ffffff;
}
rect.nonterminal {
  fill: #ffffff;
}
text.terminal {
  fill: #2f3337;
  font-weight: 600;
}
text.nonterminal {
  fill: #2563eb;
}
a text.nonterminal {
  text-decoration: underline;
}
path.line {
  fill: none;
  stroke: #3a3d40;
  stroke-width: 2;
}
polygon {
  fill: #2f3337;
  stroke: #2f3337;
}</style>
<polygon points="9 17 1 13 1 21"></polygon>
<polygon points="17 17 9 13 9 21"></polygon>
<rect height="32" rx="10" width="84" x="31" y="3"></rect>
<rect class="terminal" height="32" rx="10" width="84" x="29" y="1"></rect>
<text class="terminal" x="39" y="21">PRIMARY</text>
<rect height="32" rx="10" width="46" x="135" y="3"></rect>
<rect class="terminal" height="32" rx="10" width="46" x="133" y="1"></rect>
<text class="terminal" x="143" y="21">KEY</text>
<rect height="32" rx="10" width="26" x="201" y="3"></rect>
<rect class="terminal" height="32" rx="10" width="26" x="199" y="1"></rect>
<text class="terminal" x="209" y="21">(</text><a xlink:href="/docs/stable/sql-grammar#create_as_params" xlink:title="create_as_params">
<rect height="32" width="138" x="247" y="3"></rect>
<rect class="nonterminal" height="32" width="138" x="245" y="1"></rect>
<text lengthAdjust="spacingAndGlyphs" textLength="114" font-size="11" class="nonterminal" x="257" y="21">create_as_params</text></a><rect height="32" rx="10" width="26" x="405" y="3"></rect>
<rect class="terminal" height="32" rx="10" width="26" x="403" y="1"></rect>
<text class="terminal" x="413" y="21">)</text><a xlink:href="/docs/stable/sql-grammar#opt_with_storage_parameter_list" xlink:title="opt_with_storage_parameter_list">
<rect height="32" width="234" x="451" y="3"></rect>
<rect class="nonterminal" height="32" width="234" x="449" y="1"></rect>
<text lengthAdjust="spacingAndGlyphs" textLength="210" font-size="10" class="nonterminal" x="461" y="21">opt_with_storage_parameter_list</text></a><path class="line" d="m17 17 h2 m0 0 h10 m84 0 h10 m0 0 h10 m46 0 h10 m0 0 h10 m26 0 h10 m0 0 h10 m138 0 h10 m0 0 h10 m26 0 h10 m0 0 h10 m234 0 h10 m3 0 h-3"></path>
<polygon points="703 17 711 13 711 21"></polygon>
<polygon points="703 17 695 13 695 21"></polygon></svg>