<svg height="169" width="631" xmlns="http://www.w3.org/2000/svg" xmlns:xlink="http://www.w3.org/1999/xlink"><style>svg {
  font-family: ui-monospace, SFMono-Regular, Menlo, Monaco, Consolas, "Liberation Mono", "Courier New", monospace;
}
text {
  fill: #2f3337;
  font-size: 14px;
}
rect {
  fill: #ffffff;
  stroke: #3a3d40;
  stroke-width: 2;
}
rect.terminal {
  fill: #ffffff;
}
rect.nonterminal {
  fill: #ffffff;
}
text.terminal {
  fill: #2f3337;
  font-weight: 600;
}
text.nonterminal {
  fill: #2563eb;
}
a text.nonterminal {
  text-decoration: underline;
}
path.line {
  fill: none;
  stroke: #3a3d40;
  stroke-width: 2;
}
polygon {
  fill: #2f3337;
  stroke: #2f3337;
}</style>
<polygon points="9 17 1 13 1 21"></polygon>
<polygon points="17 17 9 13 9 21"></polygon>
<rect height="32" rx="10" width="64" x="31" y="3"></rect>
<rect class="terminal" height="32" rx="10" width="64" x="29" y="1"></rect>
<text class="terminal" x="39" y="21">SHOW</text>
<rect height="32" rx="10" width="72" x="115" y="3"></rect>
<rect class="terminal" height="32" rx="10" width="72" x="113" y="1"></rect>
<text class="terminal" x="123" y="21">CREATE</text>
<rect height="32" width="102" x="227" y="3"></rect>
<rect class="nonterminal" height="32" width="102" x="225" y="1"></rect>
<text lengthAdjust="spacingAndGlyphs" textLength="78" font-size="11" class="nonterminal" x="237" y="21">object_name</text><a xlink:href="/docs/v24.1/sql-grammar#opt_show_create_format_options" xlink:title="opt_show_create_format_options">
<rect height="32" width="234" x="349" y="3"></rect>
<rect class="nonterminal" height="32" width="234" x="347" y="1"></rect>
<text lengthAdjust="spacingAndGlyphs" textLength="210" font-size="11" class="nonterminal" x="359" y="21">opt_show_create_format_options</text></a><rect height="32" rx="10" width="44" x="227" y="47"></rect>
<rect class="terminal" height="32" rx="10" width="44" x="225" y="45"></rect>
<text class="terminal" x="235" y="65">ALL</text>
<rect height="32" rx="10" width="86" x="311" y="47"></rect>
<rect class="terminal" height="32" rx="10" width="86" x="309" y="45"></rect>
<text class="terminal" x="319" y="65">SCHEMAS</text>
<rect height="32" rx="10" width="72" x="311" y="91"></rect>
<rect class="terminal" height="32" rx="10" width="72" x="309" y="89"></rect>
<text class="terminal" x="319" y="109">TABLES</text>
<rect height="32" rx="10" width="62" x="311" y="135"></rect>
<rect class="terminal" height="32" rx="10" width="62" x="309" y="133"></rect>
<text class="terminal" x="319" y="153">TYPES</text>
<path class="line" d="m17 17 h2 m0 0 h10 m64 0 h10 m0 0 h10 m72 0 h10 m20 0 h10 m102 0 h10 m0 0 h10 m234 0 h10 m-396 0 h20 m376 0 h20 m-416 0 q10 0 10 10 m396 0 q0 -10 10 -10 m-406 10 v24 m396 0 v-24 m-396 24 q0 10 10 10 m376 0 q10 0 10 -10 m-386 10 h10 m44 0 h10 m20 0 h10 m86 0 h10 m-126 0 h20 m106 0 h20 m-146 0 q10 0 10 10 m126 0 q0 -10 10 -10 m-136 10 v24 m126 0 v-24 m-126 24 q0 10 10 10 m106 0 q10 0 10 -10 m-116 10 h10 m72 0 h10 m0 0 h14 m-116 -10 v20 m126 0 v-20 m-126 20 v24 m126 0 v-24 m-126 24 q0 10 10 10 m106 0 q10 0 10 -10 m-116 10 h10 m62 0 h10 m0 0 h24 m20 -88 h166 m23 -44 h-3"></path>
<polygon points="621 17 629 13 629 21"></polygon>
<polygon points="621 17 613 13 613 21"></polygon></svg>