<svg height="223" width="1171" xmlns="http://www.w3.org/2000/svg" xmlns:xlink="http://www.w3.org/1999/xlink"><style>svg {
  font-family: ui-monospace, SFMono-Regular, Menlo, Monaco, Consolas, "Liberation Mono", "Courier New", monospace;
}
text {
  fill: #2f3337;
  font-size: 14px;
}
rect {
  fill: #ffffff;
  stroke: #3a3d40;
  stroke-width: 2;
}
rect.terminal {
  fill: #ffffff;
}
rect.nonterminal {
  fill: #ffffff;
}
text.terminal {
  fill: #2f3337;
  font-weight: 600;
}
text.nonterminal {
  fill: #2563eb;
}
a text.nonterminal {
  text-decoration: underline;
}
path.line {
  fill: none;
  stroke: #3a3d40;
  stroke-width: 2;
}
polygon {
  fill: #2f3337;
  stroke: #2f3337;
}</style>
<polygon points="11 17 3 13 3 21"></polygon>
<polygon points="19 17 11 13 11 21"></polygon>
<rect height="32" rx="10" width="64" x="33" y="3"></rect>
<rect class="terminal" height="32" rx="10" width="64" x="31" y="1"></rect>
<text class="terminal" x="41" y="21">SHOW</text>
<rect height="32" rx="10" width="84" x="45" y="69"></rect>
<rect class="terminal" height="32" rx="10" width="84" x="43" y="67"></rect>
<text class="terminal" x="53" y="87">BACKUPS</text>
<rect height="32" rx="10" width="36" x="149" y="69"></rect>
<rect class="terminal" height="32" rx="10" width="36" x="147" y="67"></rect>
<text class="terminal" x="157" y="87">IN</text>
<rect height="32" width="102" x="205" y="69"></rect>
<rect class="nonterminal" height="32" width="102" x="203" y="67"></rect>
<text lengthAdjust="spacingAndGlyphs" textLength="78" font-size="10" class="nonterminal" x="215" y="87">collectionURI</text>
<rect height="32" rx="10" width="74" x="45" y="113"></rect>
<rect class="terminal" height="32" rx="10" width="74" x="43" y="111"></rect>
<text class="terminal" x="53" y="131">BACKUP</text>
<rect height="32" rx="10" width="86" x="159" y="145"></rect>
<rect class="terminal" height="32" rx="10" width="86" x="157" y="143"></rect>
<text class="terminal" x="167" y="163">SCHEMAS</text>
<rect height="32" rx="10" width="60" x="285" y="113"></rect>
<rect class="terminal" height="32" rx="10" width="60" x="283" y="111"></rect>
<text class="terminal" x="293" y="131">FROM</text>
<rect height="32" width="98" x="365" y="113"></rect>
<rect class="nonterminal" height="32" width="98" x="363" y="111"></rect>
<text lengthAdjust="spacingAndGlyphs" textLength="74" font-size="10" class="nonterminal" x="375" y="131">subdirectory</text><rect height="32" rx="10" width="36" x="483" y="113"></rect>
<rect class="terminal" height="32" rx="10" width="36" x="481" y="111"></rect>
<text class="terminal" x="491" y="131">IN</text>
<rect height="32" width="102" x="539" y="113"></rect>
<rect class="nonterminal" height="32" width="102" x="537" y="111"></rect>
<text lengthAdjust="spacingAndGlyphs" textLength="78" font-size="10" class="nonterminal" x="549" y="131">collectionURI</text><rect height="32" rx="10" width="58" x="681" y="145"></rect>
<rect class="terminal" height="32" rx="10" width="58" x="679" y="143"></rect>
<text class="terminal" x="689" y="163">WITH</text><a xlink:href="/docs/v24.1/sql-grammar#kv_option_list" xlink:title="kv_option_list" xmlns:xlink="http://www.w3.org/1999/xlink">
<rect height="32" width="108" x="779" y="145"></rect>
<rect class="nonterminal" height="32" width="108" x="777" y="143"></rect>
<text lengthAdjust="spacingAndGlyphs" textLength="84" font-size="10" class="nonterminal" x="789" y="163">kv_option_list</text></a><rect height="32" rx="10" width="84" x="779" y="189"></rect>
<rect class="terminal" height="32" rx="10" width="84" x="777" y="187"></rect>
<text class="terminal" x="787" y="207">OPTIONS</text>
<rect height="32" rx="10" width="26" x="883" y="189"></rect>
<rect class="terminal" height="32" rx="10" width="26" x="881" y="187"></rect>
<text class="terminal" x="891" y="207">(</text><a xlink:href="/docs/v24.1/sql-grammar#kv_option_list" xlink:title="kv_option_list" xmlns:xlink="http://www.w3.org/1999/xlink">
<rect height="32" width="108" x="929" y="189"></rect>
<rect class="nonterminal" height="32" width="108" x="927" y="187"></rect>
<text lengthAdjust="spacingAndGlyphs" textLength="84" font-size="10" class="nonterminal" x="939" y="207">kv_option_list</text></a><rect height="32" rx="10" width="26" x="1057" y="189"></rect>
<rect class="terminal" height="32" rx="10" width="26" x="1055" y="187"></rect>
<text class="terminal" x="1065" y="207">)</text>
<path class="line" d="m19 17 h2 m0 0 h10 m64 0 h10 m2 0 l2 0 m2 0 l2 0 m2 0 l2 0 m-116 66 l2 0 m2 0 l2 0 m2 0 l2 0 m22 0 h10 m84 0 h10 m0 0 h10 m36 0 h10 m0 0 h10 m102 0 h10 m0 0 h816 m-1118 0 h20 m1098 0 h20 m-1138 0 q10 0 10 10 m1118 0 q0 -10 10 -10 m-1128 10 v24 m1118 0 v-24 m-1118 24 q0 10 10 10 m1098 0 q10 0 10 -10 m-1108 10 h10 m74 0 h10 m20 0 h10 m0 0 h96 m-126 0 h20 m106 0 h20 m-146 0 q10 0 10 10 m126 0 q0 -10 10 -10 m-136 10 v12 m126 0 v-12 m-126 12 q0 10 10 10 m106 0 q10 0 10 -10 m-116 10 h10 m86 0 h10 m20 -32 h10 m60 0 h10 m0 0 h10 m98 0 h10 m0 0 h10 m36 0 h10 m0 0 h10 m102 0 h10 m20 0 h10 m0 0 h432 m-462 0 h20 m442 0 h20 m-482 0 q10 0 10 10 m462 0 q0 -10 10 -10 m-472 10 v12 m462 0 v-12 m-462 12 q0 10 10 10 m442 0 q10 0 10 -10 m-452 10 h10 m58 0 h10 m20 0 h10 m108 0 h10 m0 0 h196 m-344 0 h20 m324 0 h20 m-364 0 q10 0 10 10 m344 0 q0 -10 10 -10 m-354 10 v24 m344 0 v-24 m-344 24 q0 10 10 10 m324 0 q10 0 10 -10 m-334 10 h10 m84 0 h10 m0 0 h10 m26 0 h10 m0 0 h10 m108 0 h10 m0 0 h10 m26 0 h10 m63 -120 h-3" xmlns:svg="http://www.w3.org/2000/svg"></path>
<polygon points="1161 83 1169 79 1169 87"></polygon>
<polygon points="1161 83 1153 79 1153 87"></polygon></svg>