<svg height="301" width="923" xmlns="http://www.w3.org/2000/svg"><style>svg {
  font-family: ui-monospace, SFMono-Regular, Menlo, Monaco, Consolas, "Liberation Mono", "Courier New", monospace;
}
text {
  fill: #2f3337;
  font-size: 14px;
}
rect {
  fill: #ffffff;
  stroke: #3a3d40;
  stroke-width: 2;
}
rect.terminal {
  fill: #ffffff;
}
rect.nonterminal {
  fill: #ffffff;
}
text.terminal {
  fill: #2f3337;
  font-weight: 600;
}
text.nonterminal {
  fill: #2563eb;
}
a text.nonterminal {
  text-decoration: underline;
}
path.line {
  fill: none;
  stroke: #3a3d40;
  stroke-width: 2;
}
polygon {
  fill: #2f3337;
  stroke: #2f3337;
}</style>
<polygon points="9 17 1 13 1 21"></polygon>
<polygon points="17 17 9 13 9 21"></polygon>
<rect height="32" rx="10" width="72" x="31" y="3"></rect>
<rect class="terminal" height="32" rx="10" width="72" x="29" y="1"></rect>
<text class="terminal" x="39" y="21">CREATE</text>
<rect height="32" rx="10" width="98" x="123" y="3"></rect>
<rect class="terminal" height="32" rx="10" width="98" x="121" y="1"></rect>
<text class="terminal" x="131" y="21">LOGICALLY</text>
<rect height="32" rx="10" width="106" x="241" y="3"></rect>
<rect class="terminal" height="32" rx="10" width="106" x="239" y="1"></rect>
<text class="terminal" x="249" y="21">REPLICATED</text>
<rect height="32" rx="10" width="62" x="387" y="3"></rect>
<rect class="terminal" height="32" rx="10" width="62" x="385" y="1"></rect>
<text class="terminal" x="395" y="21">TABLE</text>
<rect height="32" width="126" x="469" y="3"></rect>
<rect class="nonterminal" height="32" width="126" x="467" y="1"></rect>
<text lengthAdjust="spacingAndGlyphs" textLength="102" font-size="11" class="nonterminal" x="479" y="21">db_object_name</text>
<rect height="32" rx="10" width="72" x="387" y="47"></rect>
<rect class="terminal" height="32" rx="10" width="72" x="385" y="45"></rect>
<text class="terminal" x="395" y="65">TABLES</text>
<rect height="32" rx="10" width="26" x="479" y="47"></rect>
<rect class="terminal" height="32" rx="10" width="26" x="477" y="45"></rect>
<text class="terminal" x="487" y="65">(</text>
<rect height="32" width="230" x="525" y="47"></rect>
<rect class="nonterminal" height="32" width="230" x="523" y="45"></rect>
<text lengthAdjust="spacingAndGlyphs" textLength="206" font-size="10" class="nonterminal" x="535" y="65">logical_replication_resources_list</text>
<rect height="32" rx="10" width="26" x="775" y="47"></rect>
<rect class="terminal" height="32" rx="10" width="26" x="773" y="45"></rect>
<text class="terminal" x="783" y="65">)</text>
<rect height="32" rx="10" width="60" x="841" y="3"></rect>
<rect class="terminal" height="32" rx="10" width="60" x="839" y="1"></rect>
<text class="terminal" x="849" y="21">FROM</text>
<rect height="32" rx="10" width="62" x="86" y="113"></rect>
<rect class="terminal" height="32" rx="10" width="62" x="84" y="111"></rect>
<text class="terminal" x="94" y="131">TABLE</text>
<rect height="32" width="126" x="168" y="113"></rect>
<rect class="nonterminal" height="32" width="126" x="166" y="111"></rect>
<text lengthAdjust="spacingAndGlyphs" textLength="102" font-size="11" class="nonterminal" x="178" y="131">db_object_name</text>
<rect height="32" rx="10" width="72" x="86" y="157"></rect>
<rect class="terminal" height="32" rx="10" width="72" x="84" y="155"></rect>
<text class="terminal" x="94" y="175">TABLES</text>
<rect height="32" rx="10" width="26" x="178" y="157"></rect>
<rect class="terminal" height="32" rx="10" width="26" x="176" y="155"></rect>
<text class="terminal" x="186" y="175">(</text>
<rect height="32" width="230" x="224" y="157"></rect>
<rect class="nonterminal" height="32" width="230" x="222" y="155"></rect>
<text lengthAdjust="spacingAndGlyphs" textLength="206" font-size="10" class="nonterminal" x="234" y="175">logical_replication_resources_list</text>
<rect height="32" rx="10" width="26" x="474" y="157"></rect>
<rect class="terminal" height="32" rx="10" width="26" x="472" y="155"></rect>
<text class="terminal" x="482" y="175">)</text>
<rect height="32" rx="10" width="40" x="540" y="113"></rect>
<rect class="terminal" height="32" rx="10" width="40" x="538" y="111"></rect>
<text class="terminal" x="548" y="131">ON</text>
<rect height="32" width="182" x="600" y="113"></rect>
<rect class="nonterminal" height="32" width="182" x="598" y="111"></rect>
<text lengthAdjust="spacingAndGlyphs" textLength="158" font-size="10" class="nonterminal" x="610" y="131">source_connection_string</text>
<rect height="32" rx="10" width="58" x="802" y="113"></rect>
<rect class="terminal" height="32" rx="10" width="58" x="800" y="111"></rect>
<text class="terminal" x="810" y="131">WITH</text>
<rect height="32" width="278" x="597" y="267"></rect>
<rect class="nonterminal" height="32" width="278" x="595" y="265"></rect>
<text lengthAdjust="spacingAndGlyphs" textLength="254" font-size="10" class="nonterminal" x="607" y="285">logical_replication_create_table_options</text>
<rect height="32" rx="10" width="24" x="597" y="223"></rect>
<rect class="terminal" height="32" rx="10" width="24" x="595" y="221"></rect>
<text class="terminal" x="605" y="241">,</text>
<path class="line" d="m17 17 h2 m0 0 h10 m72 0 h10 m0 0 h10 m98 0 h10 m0 0 h10 m106 0 h10 m20 0 h10 m62 0 h10 m0 0 h10 m126 0 h10 m0 0 h206 m-454 0 h20 m434 0 h20 m-474 0 q10 0 10 10 m454 0 q0 -10 10 -10 m-464 10 v24 m454 0 v-24 m-454 24 q0 10 10 10 m434 0 q10 0 10 -10 m-444 10 h10 m72 0 h10 m0 0 h10 m26 0 h10 m0 0 h10 m230 0 h10 m0 0 h10 m26 0 h10 m20 -44 h10 m60 0 h10 m2 0 l2 0 m2 0 l2 0 m2 0 l2 0 m-879 110 l2 0 m2 0 l2 0 m2 0 l2 0 m22 0 h10 m62 0 h10 m0 0 h10 m126 0 h10 m0 0 h206 m-454 0 h20 m434 0 h20 m-474 0 q10 0 10 10 m454 0 q0 -10 10 -10 m-464 10 v24 m454 0 v-24 m-454 24 q0 10 10 10 m434 0 q10 0 10 -10 m-444 10 h10 m72 0 h10 m0 0 h10 m26 0 h10 m0 0 h10 m230 0 h10 m0 0 h10 m26 0 h10 m20 -44 h10 m40 0 h10 m0 0 h10 m182 0 h10 m0 0 h10 m58 0 h10 m2 0 l2 0 m2 0 l2 0 m2 0 l2 0 m-327 154 l2 0 m2 0 l2 0 m2 0 l2 0 m22 0 h10 m278 0 h10 m-318 0 l20 0 m-1 0 q-9 0 -9 -10 l0 -24 q0 -10 10 -10 m298 44 l20 0 m-20 0 q10 0 10 -10 l0 -24 q0 -10 -10 -10 m-298 0 h10 m24 0 h10 m0 0 h254 m23 44 h-3"></path>
<polygon points="913 281 921 277 921 285"></polygon>
<polygon points="913 281 905 277 905 285"></polygon>
</svg>