<svg height="427" width="1145" xmlns="http://www.w3.org/2000/svg" xmlns:xlink="http://www.w3.org/1999/xlink"><style>svg {
  font-family: ui-monospace, SFMono-Regular, Menlo, Monaco, Consolas, "Liberation Mono", "Courier New", monospace;
}
text {
  fill: #2f3337;
  font-size: 14px;
}
rect {
  fill: #ffffff;
  stroke: #3a3d40;
  stroke-width: 2;
}
rect.terminal {
  fill: #ffffff;
}
rect.nonterminal {
  fill: #ffffff;
}
text.terminal {
  fill: #2f3337;
  font-weight: 600;
}
text.nonterminal {
  fill: #2563eb;
}
a text.nonterminal {
  text-decoration: underline;
}
path.line {
  fill: none;
  stroke: #3a3d40;
  stroke-width: 2;
}
polygon {
  fill: #2f3337;
  stroke: #2f3337;
}</style>
<polygon points="11 17 3 13 3 21"></polygon>
<polygon points="19 17 11 13 11 21"></polygon>
<rect height="32" rx="10" width="62" x="33" y="3"></rect>
<rect class="terminal" height="32" rx="10" width="62" x="31" y="1"></rect>
<text class="terminal" x="41" y="21">ALTER</text>
<rect height="32" rx="10" width="98" x="115" y="3"></rect>
<rect class="terminal" height="32" rx="10" width="98" x="113" y="1"></rect>
<text class="terminal" x="123" y="21">PARTITION</text><a xlink:href="/docs/v25.4/sql-grammar#partition_name" xlink:title="partition_name">
<rect height="32" width="116" x="233" y="3"></rect>
<rect class="nonterminal" height="32" width="116" x="231" y="1"></rect>
<text lengthAdjust="spacingAndGlyphs" textLength="92" font-size="10" class="nonterminal" x="243" y="21">partition_name</text></a><rect height="32" rx="10" width="38" x="369" y="3"></rect>
<rect class="terminal" height="32" rx="10" width="38" x="367" y="1"></rect>
<text class="terminal" x="377" y="21">OF</text>
<rect height="32" rx="10" width="62" x="260" y="69"></rect>
<rect class="terminal" height="32" rx="10" width="62" x="258" y="67"></rect>
<text class="terminal" x="268" y="87">TABLE</text><a xlink:href="/docs/v25.4/sql-grammar#table_name" xlink:title="table_name">
<rect height="32" width="96" x="342" y="69"></rect>
<rect class="nonterminal" height="32" width="96" x="340" y="67"></rect>
<text lengthAdjust="spacingAndGlyphs" textLength="72" font-size="11" class="nonterminal" x="352" y="87">table_name</text></a><rect height="32" rx="10" width="64" x="260" y="113"></rect>
<rect class="terminal" height="32" rx="10" width="64" x="258" y="111"></rect>
<text class="terminal" x="268" y="131">INDEX</text><a xlink:href="/docs/v25.4/sql-grammar#table_name" xlink:title="table_name">
<rect height="32" width="96" x="364" y="113"></rect>
<rect class="nonterminal" height="32" width="96" x="362" y="111"></rect>
<text lengthAdjust="spacingAndGlyphs" textLength="72" font-size="11" class="nonterminal" x="374" y="131">table_name</text></a><rect height="32" rx="10" width="32" x="480" y="113"></rect>
<rect class="terminal" height="32" rx="10" width="32" x="478" y="111"></rect>
<text class="terminal" x="488" y="131">@</text><a xlink:href="/docs/v25.4/sql-grammar#index_name" xlink:title="index_name">
<rect height="32" width="98" x="552" y="113"></rect>
<rect class="nonterminal" height="32" width="98" x="550" y="111"></rect>
<text lengthAdjust="spacingAndGlyphs" textLength="74" font-size="11" class="nonterminal" x="562" y="131">index_name</text></a><rect height="32" rx="10" width="28" x="552" y="157"></rect>
<rect class="terminal" height="32" rx="10" width="28" x="550" y="155"></rect>
<text class="terminal" x="560" y="175">*</text><a xlink:href="/docs/v25.4/sql-grammar#index_name" xlink:title="index_name">
<rect height="32" width="98" x="364" y="201"></rect>
<rect class="nonterminal" height="32" width="98" x="362" y="199"></rect>
<text lengthAdjust="spacingAndGlyphs" textLength="74" font-size="11" class="nonterminal" x="374" y="219">index_name</text></a><rect height="32" rx="10" width="102" x="730" y="69"></rect>
<rect class="terminal" height="32" rx="10" width="102" x="728" y="67"></rect>
<text class="terminal" x="738" y="87">CONFIGURE</text>
<rect height="32" rx="10" width="58" x="852" y="69"></rect>
<rect class="terminal" height="32" rx="10" width="58" x="850" y="67"></rect>
<text class="terminal" x="860" y="87">ZONE</text>
<rect height="32" rx="10" width="64" x="45" y="283"></rect>
<rect class="terminal" height="32" rx="10" width="64" x="43" y="281"></rect>
<text class="terminal" x="53" y="301">USING</text>
<rect height="32" width="70" x="129" y="283"></rect>
<rect class="nonterminal" height="32" width="70" x="127" y="281"></rect>
<text lengthAdjust="spacingAndGlyphs" textLength="46" font-size="10" class="nonterminal" x="139" y="301">variable</text><rect height="32" rx="10" width="30" x="219" y="283"></rect>
<rect class="terminal" height="32" rx="10" width="30" x="217" y="281"></rect>
<text class="terminal" x="227" y="301">=</text>
<rect height="32" rx="10" width="58" x="289" y="283"></rect>
<rect class="terminal" height="32" rx="10" width="58" x="287" y="281"></rect>
<text class="terminal" x="297" y="301">COPY</text>
<rect height="32" rx="10" width="60" x="367" y="283"></rect>
<rect class="terminal" height="32" rx="10" width="60" x="365" y="281"></rect>
<text class="terminal" x="375" y="301">FROM</text>
<rect height="32" rx="10" width="74" x="447" y="283"></rect>
<rect class="terminal" height="32" rx="10" width="74" x="445" y="281"></rect>
<text class="terminal" x="455" y="301">PARENT</text>
<rect height="32" width="54" x="289" y="327"></rect>
<rect class="nonterminal" height="32" width="54" x="287" y="325"></rect>
<text lengthAdjust="spacingAndGlyphs" textLength="30" font-size="10" class="nonterminal" x="299" y="345">value</text><rect height="32" rx="10" width="24" x="601" y="283"></rect>
<rect class="terminal" height="32" rx="10" width="24" x="599" y="281"></rect>
<text class="terminal" x="609" y="301">,</text>
<rect height="32" width="70" x="645" y="283"></rect>
<rect class="nonterminal" height="32" width="70" x="643" y="281"></rect>
<text lengthAdjust="spacingAndGlyphs" textLength="46" font-size="10" class="nonterminal" x="655" y="301">variable</text><rect height="32" rx="10" width="30" x="735" y="283"></rect>
<rect class="terminal" height="32" rx="10" width="30" x="733" y="281"></rect>
<text class="terminal" x="743" y="301">=</text>
<rect height="32" width="54" x="805" y="283"></rect>
<rect class="nonterminal" height="32" width="54" x="803" y="281"></rect>
<text lengthAdjust="spacingAndGlyphs" textLength="30" font-size="10" class="nonterminal" x="815" y="301">value</text><rect height="32" rx="10" width="58" x="805" y="327"></rect>
<rect class="terminal" height="32" rx="10" width="58" x="803" y="325"></rect>
<text class="terminal" x="813" y="345">COPY</text>
<rect height="32" rx="10" width="60" x="883" y="327"></rect>
<rect class="terminal" height="32" rx="10" width="60" x="881" y="325"></rect>
<text class="terminal" x="891" y="345">FROM</text>
<rect height="32" rx="10" width="74" x="963" y="327"></rect>
<rect class="terminal" height="32" rx="10" width="74" x="961" y="325"></rect>
<text class="terminal" x="971" y="345">PARENT</text>
<rect height="32" rx="10" width="82" x="45" y="393"></rect>
<rect class="terminal" height="32" rx="10" width="82" x="43" y="391"></rect>
<text class="terminal" x="53" y="411">DISCARD</text>
<path class="line" d="m19 17 h2 m0 0 h10 m62 0 h10 m0 0 h10 m98 0 h10 m0 0 h10 m116 0 h10 m0 0 h10 m38 0 h10 m2 0 l2 0 m2 0 l2 0 m2 0 l2 0 m-211 66 l2 0 m2 0 l2 0 m2 0 l2 0 m22 0 h10 m62 0 h10 m0 0 h10 m96 0 h10 m0 0 h252 m-470 0 h20 m450 0 h20 m-490 0 q10 0 10 10 m470 0 q0 -10 10 -10 m-480 10 v24 m470 0 v-24 m-470 24 q0 10 10 10 m450 0 q10 0 10 -10 m-460 10 h10 m64 0 h10 m20 0 h10 m96 0 h10 m0 0 h10 m32 0 h10 m20 0 h10 m98 0 h10 m-138 0 h20 m118 0 h20 m-158 0 q10 0 10 10 m138 0 q0 -10 10 -10 m-148 10 v24 m138 0 v-24 m-138 24 q0 10 10 10 m118 0 q10 0 10 -10 m-128 10 h10 m28 0 h10 m0 0 h70 m-326 -44 h20 m326 0 h20 m-366 0 q10 0 10 10 m346 0 q0 -10 10 -10 m-356 10 v68 m346 0 v-68 m-346 68 q0 10 10 10 m326 0 q10 0 10 -10 m-336 10 h10 m98 0 h10 m0 0 h208 m40 -132 h10 m102 0 h10 m0 0 h10 m58 0 h10 m2 0 l2 0 m2 0 l2 0 m2 0 l2 0 m-929 214 l2 0 m2 0 l2 0 m2 0 l2 0 m22 0 h10 m64 0 h10 m0 0 h10 m70 0 h10 m0 0 h10 m30 0 h10 m20 0 h10 m58 0 h10 m0 0 h10 m60 0 h10 m0 0 h10 m74 0 h10 m-272 0 h20 m252 0 h20 m-292 0 q10 0 10 10 m272 0 q0 -10 10 -10 m-282 10 v24 m272 0 v-24 m-272 24 q0 10 10 10 m252 0 q10 0 10 -10 m-262 10 h10 m54 0 h10 m0 0 h178 m60 -44 h10 m24 0 h10 m0 0 h10 m70 0 h10 m0 0 h10 m30 0 h10 m20 0 h10 m54 0 h10 m0 0 h178 m-272 0 h20 m252 0 h20 m-292 0 q10 0 10 10 m272 0 q0 -10 10 -10 m-282 10 v24 m272 0 v-24 m-272 24 q0 10 10 10 m252 0 q10 0 10 -10 m-262 10 h10 m58 0 h10 m0 0 h10 m60 0 h10 m0 0 h10 m74 0 h10 m-476 -44 l20 0 m-1 0 q-9 0 -9 -10 l0 -12 q0 -10 10 -10 m476 32 l20 0 m-20 0 q10 0 10 -10 l0 -12 q0 -10 -10 -10 m-476 0 h10 m0 0 h466 m-516 32 h20 m516 0 h20 m-556 0 q10 0 10 10 m536 0 q0 -10 10 -10 m-546 10 v58 m536 0 v-58 m-536 58 q0 10 10 10 m516 0 q10 0 10 -10 m-526 10 h10 m0 0 h506 m-1072 -78 h20 m1072 0 h20 m-1112 0 q10 0 10 10 m1092 0 q0 -10 10 -10 m-1102 10 v90 m1092 0 v-90 m-1092 90 q0 10 10 10 m1072 0 q10 0 10 -10 m-1082 10 h10 m82 0 h10 m0 0 h970 m23 -110 h-3"></path>
<polygon points="1135 297 1143 293 1143 301"></polygon>
<polygon points="1135 297 1127 293 1127 301"></polygon></svg>