<svg height="125" width="513" xmlns="http://www.w3.org/2000/svg" xmlns:xlink="http://www.w3.org/1999/xlink"><style>svg {
  font-family: ui-monospace, SFMono-Regular, Menlo, Monaco, Consolas, "Liberation Mono", "Courier New", monospace;
}
text {
  fill: #2f3337;
  font-size: 14px;
}
rect {
  fill: #ffffff;
  stroke: #3a3d40;
  stroke-width: 2;
}
rect.terminal {
  fill: #ffffff;
}
rect.nonterminal {
  fill: #ffffff;
}
text.terminal {
  fill: #2f3337;
  font-weight: 600;
}
text.nonterminal {
  fill: #2563eb;
}
a text.nonterminal {
  text-decoration: underline;
}
path.line {
  fill: none;
  stroke: #3a3d40;
  stroke-width: 2;
}
polygon {
  fill: #2f3337;
  stroke: #2f3337;
}</style>
<polygon points="9 17 1 13 1 21"></polygon>
<polygon points="17 17 9 13 9 21"></polygon>
<rect height="32" rx="10" width="62" x="51" y="3"></rect>
<rect class="terminal" height="32" rx="10" width="62" x="49" y="1"></rect>
<text class="terminal" x="59" y="21">TABLE</text><a xlink:href="#db_object_name" xlink:title="db_object_name">
<rect height="32" width="126" x="133" y="3"></rect>
<rect class="nonterminal" height="32" width="126" x="131" y="1"></rect>
<text lengthAdjust="spacingAndGlyphs" textLength="102" font-size="11" class="nonterminal" x="143" y="21">db_object_name</text></a><rect height="32" rx="10" width="72" x="51" y="47"></rect>
<rect class="terminal" height="32" rx="10" width="72" x="49" y="45"></rect>
<text class="terminal" x="59" y="65">TABLES</text>
<rect height="32" rx="10" width="26" x="143" y="47"></rect>
<rect class="terminal" height="32" rx="10" width="26" x="141" y="45"></rect>
<text class="terminal" x="151" y="65">(</text><a xlink:href="#logical_replication_resources_list" xlink:title="logical_replication_resources_list">
<rect height="32" width="230" x="189" y="47"></rect>
<rect class="nonterminal" height="32" width="230" x="187" y="45"></rect>
<text lengthAdjust="spacingAndGlyphs" textLength="206" font-size="10" class="nonterminal" x="199" y="65">logical_replication_resources_list</text></a><rect height="32" rx="10" width="26" x="439" y="47"></rect>
<rect class="terminal" height="32" rx="10" width="26" x="437" y="45"></rect>
<text class="terminal" x="447" y="65">)</text>
<rect height="32" rx="10" width="92" x="51" y="91"></rect>
<rect class="terminal" height="32" rx="10" width="92" x="49" y="89"></rect>
<text class="terminal" x="59" y="109">DATABASE</text><a xlink:href="#database_name" xlink:title="database_name">
<rect height="32" width="124" x="163" y="91"></rect>
<rect class="nonterminal" height="32" width="124" x="161" y="89"></rect>
<text lengthAdjust="spacingAndGlyphs" textLength="100" font-size="12" class="nonterminal" x="173" y="109">database_name</text></a><path class="line" d="m17 17 h2 m20 0 h10 m62 0 h10 m0 0 h10 m126 0 h10 m0 0 h206 m-454 0 h20 m434 0 h20 m-474 0 q10 0 10 10 m454 0 q0 -10 10 -10 m-464 10 v24 m454 0 v-24 m-454 24 q0 10 10 10 m434 0 q10 0 10 -10 m-444 10 h10 m72 0 h10 m0 0 h10 m26 0 h10 m0 0 h10 m230 0 h10 m0 0 h10 m26 0 h10 m-444 -10 v20 m454 0 v-20 m-454 20 v24 m454 0 v-24 m-454 24 q0 10 10 10 m434 0 q10 0 10 -10 m-444 10 h10 m92 0 h10 m0 0 h10 m124 0 h10 m0 0 h178 m23 -88 h-3"></path>
<polygon points="503 17 511 13 511 21"></polygon>
<polygon points="503 17 495 13 495 21"></polygon></svg>