<svg height="103" width="741" xmlns="http://www.w3.org/2000/svg" xmlns:xlink="http://www.w3.org/1999/xlink"><style>svg {
  font-family: ui-monospace, SFMono-Regular, Menlo, Monaco, Consolas, "Liberation Mono", "Courier New", monospace;
}
text {
  fill: #2f3337;
  font-size: 14px;
}
rect {
  fill: #ffffff;
  stroke: #3a3d40;
  stroke-width: 2;
}
rect.terminal {
  fill: #ffffff;
}
rect.nonterminal {
  fill: #ffffff;
}
text.terminal {
  fill: #2f3337;
  font-weight: 600;
}
text.nonterminal {
  fill: #2563eb;
}
a text.nonterminal {
  text-decoration: underline;
}
path.line {
  fill: none;
  stroke: #3a3d40;
  stroke-width: 2;
}
polygon {
  fill: #2f3337;
  stroke: #2f3337;
}</style>
<polygon points="9 17 1 13 1 21"></polygon>
<polygon points="17 17 9 13 9 21"></polygon>
<rect height="32" rx="10" width="74" x="31" y="3"></rect>
<rect class="terminal" height="32" rx="10" width="74" x="29" y="1"></rect>
<text class="terminal" x="39" y="21">EXPORT</text>
<rect height="32" rx="10" width="56" x="125" y="3"></rect>
<rect class="terminal" height="32" rx="10" width="56" x="123" y="1"></rect>
<text class="terminal" x="133" y="21">INTO</text><a xlink:href="#import_format" xlink:title="import_format">
<rect height="32" width="110" x="201" y="3"></rect>
<rect class="nonterminal" height="32" width="110" x="199" y="1"></rect>
<text lengthAdjust="spacingAndGlyphs" textLength="86" font-size="10" class="nonterminal" x="211" y="21">import_format</text></a><a xlink:href="#string_or_placeholder" xlink:title="string_or_placeholder">
<rect height="32" width="158" x="331" y="3"></rect>
<rect class="nonterminal" height="32" width="158" x="329" y="1"></rect>
<text lengthAdjust="spacingAndGlyphs" textLength="134" font-size="10" class="nonterminal" x="341" y="21">string_or_placeholder</text></a><a xlink:href="#opt_with_options" xlink:title="opt_with_options">
<rect height="32" width="130" x="509" y="3"></rect>
<rect class="nonterminal" height="32" width="130" x="507" y="1"></rect>
<text lengthAdjust="spacingAndGlyphs" textLength="106" font-size="10" class="nonterminal" x="519" y="21">opt_with_options</text></a><rect height="32" rx="10" width="60" x="659" y="3"></rect>
<rect class="terminal" height="32" rx="10" width="60" x="657" y="1"></rect>
<text class="terminal" x="667" y="21">FROM</text><a xlink:href="#select_stmt" xlink:title="select_stmt">
<rect height="32" width="94" x="619" y="69"></rect>
<rect class="nonterminal" height="32" width="94" x="617" y="67"></rect>
<text lengthAdjust="spacingAndGlyphs" textLength="70" font-size="10" class="nonterminal" x="629" y="87">select_stmt</text></a><path class="line" d="m17 17 h2 m0 0 h10 m74 0 h10 m0 0 h10 m56 0 h10 m0 0 h10 m110 0 h10 m0 0 h10 m158 0 h10 m0 0 h10 m130 0 h10 m0 0 h10 m60 0 h10 m2 0 l2 0 m2 0 l2 0 m2 0 l2 0 m-144 66 l2 0 m2 0 l2 0 m2 0 l2 0 m2 0 h10 m94 0 h10 m3 0 h-3"></path>
<polygon points="731 83 739 79 739 87"></polygon>
<polygon points="731 83 723 79 723 87"></polygon></svg>