<svg height="37" width="235" xmlns="http://www.w3.org/2000/svg" xmlns:xlink="http://www.w3.org/1999/xlink"><style>svg {
  font-family: ui-monospace, SFMono-Regular, Menlo, Monaco, Consolas, "Liberation Mono", "Courier New", monospace;
}
text {
  fill: #2f3337;
  font-size: 14px;
}
rect {
  fill: #ffffff;
  stroke: #3a3d40;
  stroke-width: 2;
}
rect.terminal {
  fill: #ffffff;
}
rect.nonterminal {
  fill: #ffffff;
}
text.terminal {
  fill: #2f3337;
  font-weight: 600;
}
text.nonterminal {
  fill: #2563eb;
}
a text.nonterminal {
  text-decoration: underline;
}
path.line {
  fill: none;
  stroke: #3a3d40;
  stroke-width: 2;
}
polygon {
  fill: #2f3337;
  stroke: #2f3337;
}</style>
<polygon points="9 17 1 13 1 21"></polygon>
<polygon points="17 17 9 13 9 21"></polygon>
<rect height="32" rx="10" width="100" x="31" y="3"></rect>
<rect class="terminal" height="32" rx="10" width="100" x="29" y="1"></rect>
<text class="terminal" x="39" y="21">SAVEPOINT</text><a xlink:href="#name" xlink:title="name">
<rect height="32" width="56" x="151" y="3"></rect>
<rect class="nonterminal" height="32" width="56" x="149" y="1"></rect>
<text lengthAdjust="spacingAndGlyphs" textLength="32" font-size="12" class="nonterminal" x="161" y="21">name</text></a><path class="line" d="m17 17 h2 m0 0 h10 m100 0 h10 m0 0 h10 m56 0 h10 m3 0 h-3"></path>
<polygon points="225 17 233 13 233 21"></polygon>
<polygon points="225 17 217 13 217 21"></polygon></svg>