<svg height="189" width="399" xmlns="http://www.w3.org/2000/svg"><style>svg {
  font-family: ui-monospace, SFMono-Regular, Menlo, Monaco, Consolas, "Liberation Mono", "Courier New", monospace;
}
text {
  fill: #2f3337;
  font-size: 14px;
}
rect {
  fill: #ffffff;
  stroke: #3a3d40;
  stroke-width: 2;
}
rect.terminal {
  fill: #ffffff;
}
rect.nonterminal {
  fill: #ffffff;
}
text.terminal {
  fill: #2f3337;
  font-weight: 600;
}
text.nonterminal {
  fill: #2563eb;
}
a text.nonterminal {
  text-decoration: underline;
}
path.line {
  fill: none;
  stroke: #3a3d40;
  stroke-width: 2;
}
polygon {
  fill: #2f3337;
  stroke: #2f3337;
}</style>
<polygon points="9 5 1 1 1 9"></polygon>
<polygon points="17 5 9 1 9 9"></polygon>
<rect height="32" rx="10" width="82" x="51" y="23"></rect>
<rect class="terminal" height="32" rx="10" width="82" x="49" y="21"></rect>
<text class="terminal" x="59" y="41">EXCLUDE</text>
<rect height="32" rx="10" width="84" x="173" y="23"></rect>
<rect class="terminal" height="32" rx="10" width="84" x="171" y="21"></rect>
<text class="terminal" x="181" y="41">CURRENT</text>
<rect height="32" rx="10" width="54" x="277" y="23"></rect>
<rect class="terminal" height="32" rx="10" width="54" x="275" y="21"></rect>
<text class="terminal" x="285" y="41">ROW</text>
<rect height="32" rx="10" width="68" x="173" y="67"></rect>
<rect class="terminal" height="32" rx="10" width="68" x="171" y="65"></rect>
<text class="terminal" x="181" y="85">GROUP</text>
<rect height="32" rx="10" width="52" x="173" y="111"></rect>
<rect class="terminal" height="32" rx="10" width="52" x="171" y="109"></rect>
<text class="terminal" x="181" y="129">TIES</text>
<rect height="32" rx="10" width="40" x="173" y="155"></rect>
<rect class="terminal" height="32" rx="10" width="40" x="171" y="153"></rect>
<text class="terminal" x="181" y="173">NO</text>
<rect height="32" rx="10" width="76" x="233" y="155"></rect>
<rect class="terminal" height="32" rx="10" width="76" x="231" y="153"></rect>
<text class="terminal" x="241" y="173">OTHERS</text>
<path class="line" d="m17 5 h2 m20 0 h10 m0 0 h310 m-340 0 h20 m320 0 h20 m-360 0 q10 0 10 10 m340 0 q0 -10 10 -10 m-350 10 v12 m340 0 v-12 m-340 12 q0 10 10 10 m320 0 q10 0 10 -10 m-330 10 h10 m82 0 h10 m20 0 h10 m84 0 h10 m0 0 h10 m54 0 h10 m-198 0 h20 m178 0 h20 m-218 0 q10 0 10 10 m198 0 q0 -10 10 -10 m-208 10 v24 m198 0 v-24 m-198 24 q0 10 10 10 m178 0 q10 0 10 -10 m-188 10 h10 m68 0 h10 m0 0 h90 m-188 -10 v20 m198 0 v-20 m-198 20 v24 m198 0 v-24 m-198 24 q0 10 10 10 m178 0 q10 0 10 -10 m-188 10 h10 m52 0 h10 m0 0 h106 m-188 -10 v20 m198 0 v-20 m-198 20 v24 m198 0 v-24 m-198 24 q0 10 10 10 m178 0 q10 0 10 -10 m-188 10 h10 m40 0 h10 m0 0 h10 m76 0 h10 m0 0 h22 m43 -164 h-3"></path>
<polygon points="389 5 397 1 397 9"></polygon>
<polygon points="389 5 381 1 381 9"></polygon></svg>