<svg height="125" width="191" xmlns="http://www.w3.org/2000/svg"><style>svg {
  font-family: ui-monospace, SFMono-Regular, Menlo, Monaco, Consolas, "Liberation Mono", "Courier New", monospace;
}
text {
  fill: #2f3337;
  font-size: 14px;
}
rect {
  fill: #ffffff;
  stroke: #3a3d40;
  stroke-width: 2;
}
rect.terminal {
  fill: #ffffff;
}
rect.nonterminal {
  fill: #ffffff;
}
text.terminal {
  fill: #2f3337;
  font-weight: 600;
}
text.nonterminal {
  fill: #2563eb;
}
a text.nonterminal {
  text-decoration: underline;
}
path.line {
  fill: none;
  stroke: #3a3d40;
  stroke-width: 2;
}
polygon {
  fill: #2f3337;
  stroke: #2f3337;
}</style>
<polygon points="9 17 1 13 1 21"></polygon>
<polygon points="17 17 9 13 9 21"></polygon>
<rect height="32" rx="10" width="92" x="51" y="3"></rect>
<rect class="terminal" height="32" rx="10" width="92" x="49" y="1"></rect>
<text class="terminal" x="59" y="21">COVERING</text>
<rect height="32" rx="10" width="84" x="51" y="47"></rect>
<rect class="terminal" height="32" rx="10" width="84" x="49" y="45"></rect>
<text class="terminal" x="59" y="65">STORING</text>
<rect height="32" rx="10" width="80" x="51" y="91"></rect>
<rect class="terminal" height="32" rx="10" width="80" x="49" y="89"></rect>
<text class="terminal" x="59" y="109">INCLUDE</text>
<path class="line" d="m17 17 h2 m20 0 h10 m92 0 h10 m-132 0 h20 m112 0 h20 m-152 0 q10 0 10 10 m132 0 q0 -10 10 -10 m-142 10 v24 m132 0 v-24 m-132 24 q0 10 10 10 m112 0 q10 0 10 -10 m-122 10 h10 m84 0 h10 m0 0 h8 m-122 -10 v20 m132 0 v-20 m-132 20 v24 m132 0 v-24 m-132 24 q0 10 10 10 m112 0 q10 0 10 -10 m-122 10 h10 m80 0 h10 m0 0 h12 m23 -88 h-3"></path>
<polygon points="181 17 189 13 189 21"></polygon>
<polygon points="181 17 173 13 173 21"></polygon></svg>