<svg height="101" width="607" xmlns="http://www.w3.org/2000/svg" xmlns:xlink="http://www.w3.org/1999/xlink"><style>svg {
  font-family: ui-monospace, SFMono-Regular, Menlo, Monaco, Consolas, "Liberation Mono", "Courier New", monospace;
}
text {
  fill: #2f3337;
  font-size: 14px;
}
rect {
  fill: #ffffff;
  stroke: #3a3d40;
  stroke-width: 2;
}
rect.terminal {
  fill: #ffffff;
}
rect.nonterminal {
  fill: #ffffff;
}
text.terminal {
  fill: #2f3337;
  font-weight: 600;
}
text.nonterminal {
  fill: #2563eb;
}
a text.nonterminal {
  text-decoration: underline;
}
path.line {
  fill: none;
  stroke: #3a3d40;
  stroke-width: 2;
}
polygon {
  fill: #2f3337;
  stroke: #2f3337;
}</style>
<polygon points="9 5 1 1 1 9"></polygon>
<polygon points="17 5 9 1 9 9"></polygon>
<rect height="32" rx="10" width="58" x="51" y="23"></rect>
<rect class="terminal" height="32" rx="10" width="58" x="49" y="21"></rect>
<text class="terminal" x="59" y="41">WITH</text><a xlink:href="#show_backups_options_list" xlink:title="show_backups_options_list">
<rect height="32" width="194" x="149" y="23"></rect>
<rect class="nonterminal" height="32" width="194" x="147" y="21"></rect>
<text lengthAdjust="spacingAndGlyphs" textLength="170" font-size="10" class="nonterminal" x="159" y="41">show_backups_options_list</text></a><rect height="32" rx="10" width="84" x="149" y="67"></rect>
<rect class="terminal" height="32" rx="10" width="84" x="147" y="65"></rect>
<text class="terminal" x="157" y="85">OPTIONS</text>
<rect height="32" rx="10" width="26" x="253" y="67"></rect>
<rect class="terminal" height="32" rx="10" width="26" x="251" y="65"></rect>
<text class="terminal" x="261" y="85">(</text><a xlink:href="#show_backups_options_list" xlink:title="show_backups_options_list">
<rect height="32" width="194" x="299" y="67"></rect>
<rect class="nonterminal" height="32" width="194" x="297" y="65"></rect>
<text lengthAdjust="spacingAndGlyphs" textLength="170" font-size="10" class="nonterminal" x="309" y="85">show_backups_options_list</text></a><rect height="32" rx="10" width="26" x="513" y="67"></rect>
<rect class="terminal" height="32" rx="10" width="26" x="511" y="65"></rect>
<text class="terminal" x="521" y="85">)</text>
<path class="line" d="m17 5 h2 m20 0 h10 m0 0 h518 m-548 0 h20 m528 0 h20 m-568 0 q10 0 10 10 m548 0 q0 -10 10 -10 m-558 10 v12 m548 0 v-12 m-548 12 q0 10 10 10 m528 0 q10 0 10 -10 m-538 10 h10 m58 0 h10 m20 0 h10 m194 0 h10 m0 0 h196 m-430 0 h20 m410 0 h20 m-450 0 q10 0 10 10 m430 0 q0 -10 10 -10 m-440 10 v24 m430 0 v-24 m-430 24 q0 10 10 10 m410 0 q10 0 10 -10 m-420 10 h10 m84 0 h10 m0 0 h10 m26 0 h10 m0 0 h10 m194 0 h10 m0 0 h10 m26 0 h10 m43 -76 h-3"></path>
<polygon points="597 5 605 1 605 9"></polygon>
<polygon points="597 5 589 1 589 9"></polygon></svg>