<svg height="135" width="667" xmlns="http://www.w3.org/2000/svg" xmlns:xlink="http://www.w3.org/1999/xlink"><style>svg {
  font-family: ui-monospace, SFMono-Regular, Menlo, Monaco, Consolas, "Liberation Mono", "Courier New", monospace;
}
text {
  fill: #2f3337;
  font-size: 14px;
}
rect {
  fill: #ffffff;
  stroke: #3a3d40;
  stroke-width: 2;
}
rect.terminal {
  fill: #ffffff;
}
rect.nonterminal {
  fill: #ffffff;
}
text.terminal {
  fill: #2f3337;
  font-weight: 600;
}
text.nonterminal {
  fill: #2563eb;
}
a text.nonterminal {
  text-decoration: underline;
}
path.line {
  fill: none;
  stroke: #3a3d40;
  stroke-width: 2;
}
polygon {
  fill: #2f3337;
  stroke: #2f3337;
}</style>
<polygon points="9 17 1 13 1 21"></polygon>
<polygon points="17 17 9 13 9 21"></polygon>
<rect height="32" rx="10" width="72" x="31" y="3"></rect>
<rect class="terminal" height="32" rx="10" width="72" x="29" y="1"></rect>
<text class="terminal" x="39" y="21">CREATE</text><a xlink:href="#role_or_group_or_user" xlink:title="role_or_group_or_user">
<rect height="32" width="168" x="123" y="3"></rect>
<rect class="nonterminal" height="32" width="168" x="121" y="1"></rect>
<text lengthAdjust="spacingAndGlyphs" textLength="144" font-size="11" class="nonterminal" x="133" y="21">role_or_group_or_user</text></a><rect height="32" rx="10" width="34" x="331" y="35"></rect>
<rect class="terminal" height="32" rx="10" width="34" x="329" y="33"></rect>
<text class="terminal" x="339" y="53">IF</text>
<rect height="32" rx="10" width="48" x="385" y="35"></rect>
<rect class="terminal" height="32" rx="10" width="48" x="383" y="33"></rect>
<text class="terminal" x="393" y="53">NOT</text>
<rect height="32" rx="10" width="70" x="453" y="35"></rect>
<rect class="terminal" height="32" rx="10" width="70" x="451" y="33"></rect>
<text class="terminal" x="461" y="53">EXISTS</text><a xlink:href="#role_spec" xlink:title="role_spec">
<rect height="32" width="82" x="563" y="3"></rect>
<rect class="nonterminal" height="32" width="82" x="561" y="1"></rect>
<text lengthAdjust="spacingAndGlyphs" textLength="58" font-size="10" class="nonterminal" x="573" y="21">role_spec</text></a><a xlink:href="#opt_role_options" xlink:title="opt_role_options">
<rect height="32" width="128" x="511" y="101"></rect>
<rect class="nonterminal" height="32" width="128" x="509" y="99"></rect>
<text lengthAdjust="spacingAndGlyphs" textLength="104" font-size="10" class="nonterminal" x="521" y="119">opt_role_options</text></a><path class="line" d="m17 17 h2 m0 0 h10 m72 0 h10 m0 0 h10 m168 0 h10 m20 0 h10 m0 0 h202 m-232 0 h20 m212 0 h20 m-252 0 q10 0 10 10 m232 0 q0 -10 10 -10 m-242 10 v12 m232 0 v-12 m-232 12 q0 10 10 10 m212 0 q10 0 10 -10 m-222 10 h10 m34 0 h10 m0 0 h10 m48 0 h10 m0 0 h10 m70 0 h10 m20 -32 h10 m82 0 h10 m2 0 l2 0 m2 0 l2 0 m2 0 l2 0 m-178 98 l2 0 m2 0 l2 0 m2 0 l2 0 m2 0 h10 m128 0 h10 m3 0 h-3"></path>
<polygon points="657 115 665 111 665 119"></polygon>
<polygon points="657 115 649 111 649 119"></polygon></svg>