<svg height="101" width="283" xmlns="http://www.w3.org/2000/svg"><style>svg {
  font-family: ui-monospace, SFMono-Regular, Menlo, Monaco, Consolas, "Liberation Mono", "Courier New", monospace;
}
text {
  fill: #2f3337;
  font-size: 14px;
}
rect {
  fill: #ffffff;
  stroke: #3a3d40;
  stroke-width: 2;
}
rect.terminal {
  fill: #ffffff;
}
rect.nonterminal {
  fill: #ffffff;
}
text.terminal {
  fill: #2f3337;
  font-weight: 600;
}
text.nonterminal {
  fill: #2563eb;
}
a text.nonterminal {
  text-decoration: underline;
}
path.line {
  fill: none;
  stroke: #3a3d40;
  stroke-width: 2;
}
polygon {
  fill: #2f3337;
  stroke: #2f3337;
}</style>
<polygon points="9 5 1 1 1 9"></polygon>
<polygon points="17 5 9 1 9 9"></polygon>
<rect height="32" rx="10" width="64" x="51" y="23"></rect>
<rect class="terminal" height="32" rx="10" width="64" x="49" y="21"></rect>
<text class="terminal" x="59" y="41">NULLS</text>
<rect height="32" rx="10" width="60" x="155" y="23"></rect>
<rect class="terminal" height="32" rx="10" width="60" x="153" y="21"></rect>
<text class="terminal" x="163" y="41">FIRST</text>
<rect height="32" rx="10" width="54" x="155" y="67"></rect>
<rect class="terminal" height="32" rx="10" width="54" x="153" y="65"></rect>
<text class="terminal" x="163" y="85">LAST</text>
<path class="line" d="m17 5 h2 m20 0 h10 m0 0 h194 m-224 0 h20 m204 0 h20 m-244 0 q10 0 10 10 m224 0 q0 -10 10 -10 m-234 10 v12 m224 0 v-12 m-224 12 q0 10 10 10 m204 0 q10 0 10 -10 m-214 10 h10 m64 0 h10 m20 0 h10 m60 0 h10 m-100 0 h20 m80 0 h20 m-120 0 q10 0 10 10 m100 0 q0 -10 10 -10 m-110 10 v24 m100 0 v-24 m-100 24 q0 10 10 10 m80 0 q10 0 10 -10 m-90 10 h10 m54 0 h10 m0 0 h6 m43 -76 h-3"></path>
<polygon points="273 5 281 1 281 9"></polygon>
<polygon points="273 5 265 1 265 9"></polygon></svg>