<svg height="37" width="579" xmlns="http://www.w3.org/2000/svg" xmlns:xlink="http://www.w3.org/1999/xlink"><style>svg {
  font-family: ui-monospace, SFMono-Regular, Menlo, Monaco, Consolas, "Liberation Mono", "Courier New", monospace;
}
text {
  fill: #2f3337;
  font-size: 14px;
}
rect {
  fill: #ffffff;
  stroke: #3a3d40;
  stroke-width: 2;
}
rect.terminal {
  fill: #ffffff;
}
rect.nonterminal {
  fill: #ffffff;
}
text.terminal {
  fill: #2f3337;
  font-weight: 600;
}
text.nonterminal {
  fill: #2563eb;
}
a text.nonterminal {
  text-decoration: underline;
}
path.line {
  fill: none;
  stroke: #3a3d40;
  stroke-width: 2;
}
polygon {
  fill: #2f3337;
  stroke: #2f3337;
}</style>
<polygon points="9 17 1 13 1 21"></polygon>
<polygon points="17 17 9 13 9 21"></polygon><a xlink:href="#transition_is_new" xlink:title="transition_is_new">
<rect height="32" width="132" x="31" y="3"></rect>
<rect class="nonterminal" height="32" width="132" x="29" y="1"></rect>
<text lengthAdjust="spacingAndGlyphs" textLength="108" font-size="10" class="nonterminal" x="41" y="21">transition_is_new</text></a><a xlink:href="#transition_is_row" xlink:title="transition_is_row">
<rect height="32" width="130" x="183" y="3"></rect>
<rect class="nonterminal" height="32" width="130" x="181" y="1"></rect>
<text lengthAdjust="spacingAndGlyphs" textLength="106" font-size="10" class="nonterminal" x="193" y="21">transition_is_row</text></a><a xlink:href="#opt_as" xlink:title="opt_as">
<rect height="32" width="64" x="333" y="3"></rect>
<rect class="nonterminal" height="32" width="64" x="331" y="1"></rect>
<text lengthAdjust="spacingAndGlyphs" textLength="40" font-size="10" class="nonterminal" x="343" y="21">opt_as</text></a><a xlink:href="#table_alias_name" xlink:title="table_alias_name">
<rect height="32" width="134" x="417" y="3"></rect>
<rect class="nonterminal" height="32" width="134" x="415" y="1"></rect>
<text lengthAdjust="spacingAndGlyphs" textLength="110" font-size="11" class="nonterminal" x="427" y="21">table_alias_name</text></a><path class="line" d="m17 17 h2 m0 0 h10 m132 0 h10 m0 0 h10 m130 0 h10 m0 0 h10 m64 0 h10 m0 0 h10 m134 0 h10 m3 0 h-3"></path>
<polygon points="569 17 577 13 577 21"></polygon>
<polygon points="569 17 561 13 561 21"></polygon></svg>