<svg height="81" width="247" xmlns="http://www.w3.org/2000/svg"><style>svg {
  font-family: ui-monospace, SFMono-Regular, Menlo, Monaco, Consolas, "Liberation Mono", "Courier New", monospace;
}
text {
  fill: #2f3337;
  font-size: 14px;
}
rect {
  fill: #ffffff;
  stroke: #3a3d40;
  stroke-width: 2;
}
rect.terminal {
  fill: #ffffff;
}
rect.nonterminal {
  fill: #ffffff;
}
text.terminal {
  fill: #2f3337;
  font-weight: 600;
}
text.nonterminal {
  fill: #2563eb;
}
a text.nonterminal {
  text-decoration: underline;
}
path.line {
  fill: none;
  stroke: #3a3d40;
  stroke-width: 2;
}
polygon {
  fill: #2f3337;
  stroke: #2f3337;
}</style>
<polygon points="9 17 1 13 1 21"></polygon>
<polygon points="17 17 9 13 9 21"></polygon>
<rect height="32" rx="10" width="54" x="51" y="3"></rect>
<rect class="terminal" height="32" rx="10" width="54" x="49" y="1"></rect>
<text class="terminal" x="59" y="21">SKIP</text>
<rect height="32" rx="10" width="74" x="125" y="3"></rect>
<rect class="terminal" height="32" rx="10" width="74" x="123" y="1"></rect>
<text class="terminal" x="133" y="21">LOCKED</text>
<rect height="32" rx="10" width="78" x="51" y="47"></rect>
<rect class="terminal" height="32" rx="10" width="78" x="49" y="45"></rect>
<text class="terminal" x="59" y="65">NOWAIT</text>
<path class="line" d="m17 17 h2 m20 0 h10 m54 0 h10 m0 0 h10 m74 0 h10 m-188 0 h20 m168 0 h20 m-208 0 q10 0 10 10 m188 0 q0 -10 10 -10 m-198 10 v24 m188 0 v-24 m-188 24 q0 10 10 10 m168 0 q10 0 10 -10 m-178 10 h10 m78 0 h10 m0 0 h70 m23 -44 h-3"></path>
<polygon points="237 17 245 13 245 21"></polygon>
<polygon points="237 17 229 13 229 21"></polygon></svg>