<svg height="89" width="329" xmlns="http://www.w3.org/2000/svg"><style>svg {
  font-family: ui-monospace, SFMono-Regular, Menlo, Monaco, Consolas, "Liberation Mono", "Courier New", monospace;
}
text {
  fill: #2f3337;
  font-size: 14px;
}
rect {
  fill: #ffffff;
  stroke: #3a3d40;
  stroke-width: 2;
}
rect.terminal {
  fill: #ffffff;
}
rect.nonterminal {
  fill: #ffffff;
}
text.terminal {
  fill: #2f3337;
  font-weight: 600;
}
text.nonterminal {
  fill: #2563eb;
}
a text.nonterminal {
  text-decoration: underline;
}
path.line {
  fill: none;
  stroke: #3a3d40;
  stroke-width: 2;
}
polygon {
  fill: #2f3337;
  stroke: #2f3337;
}</style>
<polygon points="9 5 1 1 1 9"></polygon>
<polygon points="17 5 9 1 9 9"></polygon>
<rect height="32" rx="10" width="48" x="71" y="55"></rect>
<rect class="terminal" height="32" rx="10" width="48" x="69" y="53"></rect>
<text class="terminal" x="79" y="73">NOT</text>
<rect height="32" rx="10" width="122" x="159" y="23"></rect>
<rect class="terminal" height="32" rx="10" width="122" x="157" y="21"></rect>
<text class="terminal" x="167" y="41">MATERIALIZED</text>
<path class="line" d="m17 5 h2 m20 0 h10 m0 0 h240 m-270 0 h20 m250 0 h20 m-290 0 q10 0 10 10 m270 0 q0 -10 10 -10 m-280 10 v12 m270 0 v-12 m-270 12 q0 10 10 10 m250 0 q10 0 10 -10 m-240 10 h10 m0 0 h58 m-88 0 h20 m68 0 h20 m-108 0 q10 0 10 10 m88 0 q0 -10 10 -10 m-98 10 v12 m88 0 v-12 m-88 12 q0 10 10 10 m68 0 q10 0 10 -10 m-78 10 h10 m48 0 h10 m20 -32 h10 m122 0 h10 m23 -32 h-3"></path>
<polygon points="319 5 327 1 327 9"></polygon>
<polygon points="319 5 311 1 311 9"></polygon></svg>