<svg height="81" width="675" xmlns="http://www.w3.org/2000/svg" xmlns:xlink="http://www.w3.org/1999/xlink"><style>svg {
  font-family: ui-monospace, SFMono-Regular, Menlo, Monaco, Consolas, "Liberation Mono", "Courier New", monospace;
}
text {
  fill: #2f3337;
  font-size: 14px;
}
rect {
  fill: #ffffff;
  stroke: #3a3d40;
  stroke-width: 2;
}
rect.terminal {
  fill: #ffffff;
}
rect.nonterminal {
  fill: #ffffff;
}
text.terminal {
  fill: #2f3337;
  font-weight: 600;
}
text.nonterminal {
  fill: #2563eb;
}
a text.nonterminal {
  text-decoration: underline;
}
path.line {
  fill: none;
  stroke: #3a3d40;
  stroke-width: 2;
}
polygon {
  fill: #2f3337;
  stroke: #2f3337;
}</style>
<polygon points="9 17 1 13 1 21"></polygon>
<polygon points="17 17 9 13 9 21"></polygon>
<rect height="32" rx="10" width="64" x="31" y="3"></rect>
<rect class="terminal" height="32" rx="10" width="64" x="29" y="1"></rect>
<text class="terminal" x="39" y="21">SHOW</text>
<rect height="32" rx="10" width="72" x="115" y="3"></rect>
<rect class="terminal" height="32" rx="10" width="72" x="113" y="1"></rect>
<text class="terminal" x="123" y="21">CREATE</text>
<rect height="32" rx="10" width="44" x="227" y="3"></rect>
<rect class="terminal" height="32" rx="10" width="44" x="225" y="1"></rect>
<text class="terminal" x="235" y="21">ALL</text>
<rect height="32" rx="10" width="90" x="291" y="3"></rect>
<rect class="terminal" height="32" rx="10" width="90" x="289" y="1"></rect>
<text class="terminal" x="299" y="21">EXTERNAL</text>
<rect height="32" rx="10" width="122" x="401" y="3"></rect>
<rect class="terminal" height="32" rx="10" width="122" x="399" y="1"></rect>
<text class="terminal" x="409" y="21">CONNECTIONS</text>
<rect height="32" rx="10" width="90" x="227" y="47"></rect>
<rect class="terminal" height="32" rx="10" width="90" x="225" y="45"></rect>
<text class="terminal" x="235" y="65">EXTERNAL</text>
<rect height="32" rx="10" width="112" x="337" y="47"></rect>
<rect class="terminal" height="32" rx="10" width="112" x="335" y="45"></rect>
<text class="terminal" x="345" y="65">CONNECTION</text><a xlink:href="#string_or_placeholder" xlink:title="string_or_placeholder">
<rect height="32" width="158" x="469" y="47"></rect>
<rect class="nonterminal" height="32" width="158" x="467" y="45"></rect>
<text lengthAdjust="spacingAndGlyphs" textLength="134" font-size="10" class="nonterminal" x="479" y="65">string_or_placeholder</text></a><path class="line" d="m17 17 h2 m0 0 h10 m64 0 h10 m0 0 h10 m72 0 h10 m20 0 h10 m44 0 h10 m0 0 h10 m90 0 h10 m0 0 h10 m122 0 h10 m0 0 h104 m-440 0 h20 m420 0 h20 m-460 0 q10 0 10 10 m440 0 q0 -10 10 -10 m-450 10 v24 m440 0 v-24 m-440 24 q0 10 10 10 m420 0 q10 0 10 -10 m-430 10 h10 m90 0 h10 m0 0 h10 m112 0 h10 m0 0 h10 m158 0 h10 m23 -44 h-3"></path>
<polygon points="665 17 673 13 673 21"></polygon>
<polygon points="665 17 657 13 657 21"></polygon></svg>