<svg height="145" width="733" xmlns="http://www.w3.org/2000/svg" xmlns:xlink="http://www.w3.org/1999/xlink"><style>svg {
  font-family: ui-monospace, SFMono-Regular, Menlo, Monaco, Consolas, "Liberation Mono", "Courier New", monospace;
}
text {
  fill: #2f3337;
  font-size: 14px;
}
rect {
  fill: #ffffff;
  stroke: #3a3d40;
  stroke-width: 2;
}
rect.terminal {
  fill: #ffffff;
}
rect.nonterminal {
  fill: #ffffff;
}
text.terminal {
  fill: #2f3337;
  font-weight: 600;
}
text.nonterminal {
  fill: #2563eb;
}
a text.nonterminal {
  text-decoration: underline;
}
path.line {
  fill: none;
  stroke: #3a3d40;
  stroke-width: 2;
}
polygon {
  fill: #2f3337;
  stroke: #2f3337;
}</style>
<polygon points="9 17 1 13 1 21"></polygon>
<polygon points="17 17 9 13 9 21"></polygon>
<rect height="32" rx="10" width="104" x="71" y="3"></rect>
<rect class="terminal" height="32" rx="10" width="104" x="69" y="1"></rect>
<text class="terminal" x="79" y="21">GEOGRAPHY</text>
<rect height="32" rx="10" width="94" x="71" y="47"></rect>
<rect class="terminal" height="32" rx="10" width="94" x="69" y="45"></rect>
<text class="terminal" x="79" y="65">GEOMETRY</text>
<rect height="32" rx="10" width="26" x="235" y="35"></rect>
<rect class="terminal" height="32" rx="10" width="26" x="233" y="33"></rect>
<text class="terminal" x="243" y="53">(</text><a xlink:href="#geo_shape_type" xlink:title="geo_shape_type">
<rect height="32" width="126" x="281" y="35"></rect>
<rect class="nonterminal" height="32" width="126" x="279" y="33"></rect>
<text lengthAdjust="spacingAndGlyphs" textLength="102" font-size="11" class="nonterminal" x="291" y="53">geo_shape_type</text></a><rect height="32" rx="10" width="24" x="447" y="67"></rect>
<rect class="terminal" height="32" rx="10" width="24" x="445" y="65"></rect>
<text class="terminal" x="455" y="85">,</text><a xlink:href="#signed_iconst" xlink:title="signed_iconst">
<rect height="32" width="108" x="491" y="67"></rect>
<rect class="nonterminal" height="32" width="108" x="489" y="65"></rect>
<text lengthAdjust="spacingAndGlyphs" textLength="84" font-size="10" class="nonterminal" x="501" y="85">signed_iconst</text></a><rect height="32" rx="10" width="26" x="639" y="35"></rect>
<rect class="terminal" height="32" rx="10" width="26" x="637" y="33"></rect>
<text class="terminal" x="647" y="53">)</text>
<rect height="32" rx="10" width="68" x="51" y="111"></rect>
<rect class="terminal" height="32" rx="10" width="68" x="49" y="109"></rect>
<text class="terminal" x="59" y="129">BOX2D</text>
<path class="line" d="m17 17 h2 m40 0 h10 m104 0 h10 m-144 0 h20 m124 0 h20 m-164 0 q10 0 10 10 m144 0 q0 -10 10 -10 m-154 10 v24 m144 0 v-24 m-144 24 q0 10 10 10 m124 0 q10 0 10 -10 m-134 10 h10 m94 0 h10 m0 0 h10 m40 -44 h10 m0 0 h440 m-470 0 h20 m450 0 h20 m-490 0 q10 0 10 10 m470 0 q0 -10 10 -10 m-480 10 v12 m470 0 v-12 m-470 12 q0 10 10 10 m450 0 q10 0 10 -10 m-460 10 h10 m26 0 h10 m0 0 h10 m126 0 h10 m20 0 h10 m0 0 h162 m-192 0 h20 m172 0 h20 m-212 0 q10 0 10 10 m192 0 q0 -10 10 -10 m-202 10 v12 m192 0 v-12 m-192 12 q0 10 10 10 m172 0 q10 0 10 -10 m-182 10 h10 m24 0 h10 m0 0 h10 m108 0 h10 m20 -32 h10 m26 0 h10 m-654 -32 h20 m654 0 h20 m-694 0 q10 0 10 10 m674 0 q0 -10 10 -10 m-684 10 v88 m674 0 v-88 m-674 88 q0 10 10 10 m654 0 q10 0 10 -10 m-664 10 h10 m68 0 h10 m0 0 h566 m23 -108 h-3"></path>
<polygon points="723 17 731 13 731 21"></polygon>
<polygon points="723 17 715 13 715 21"></polygon></svg>