<svg height="81" width="225" xmlns="http://www.w3.org/2000/svg" xmlns:xlink="http://www.w3.org/1999/xlink"><style>svg {
  font-family: ui-monospace, SFMono-Regular, Menlo, Monaco, Consolas, "Liberation Mono", "Courier New", monospace;
}
text {
  fill: #2f3337;
  font-size: 14px;
}
rect {
  fill: #ffffff;
  stroke: #3a3d40;
  stroke-width: 2;
}
rect.terminal {
  fill: #ffffff;
}
rect.nonterminal {
  fill: #ffffff;
}
text.terminal {
  fill: #2f3337;
  font-weight: 600;
}
text.nonterminal {
  fill: #2563eb;
}
a text.nonterminal {
  text-decoration: underline;
}
path.line {
  fill: none;
  stroke: #3a3d40;
  stroke-width: 2;
}
polygon {
  fill: #2f3337;
  stroke: #2f3337;
}</style>
<polygon points="9 61 1 57 1 65"></polygon>
<polygon points="17 61 9 57 9 65"></polygon><a xlink:href="#alter_index_cmd" xlink:title="alter_index_cmd">
<rect height="32" width="126" x="51" y="47"></rect>
<rect class="nonterminal" height="32" width="126" x="49" y="45"></rect>
<text lengthAdjust="spacingAndGlyphs" textLength="102" font-size="10" class="nonterminal" x="61" y="65">alter_index_cmd</text></a><rect height="32" rx="10" width="24" x="51" y="3"></rect>
<rect class="terminal" height="32" rx="10" width="24" x="49" y="1"></rect>
<text class="terminal" x="59" y="21">,</text>
<path class="line" d="m17 61 h2 m20 0 h10 m126 0 h10 m-166 0 l20 0 m-1 0 q-9 0 -9 -10 l0 -24 q0 -10 10 -10 m146 44 l20 0 m-20 0 q10 0 10 -10 l0 -24 q0 -10 -10 -10 m-146 0 h10 m24 0 h10 m0 0 h102 m23 44 h-3"></path>
<polygon points="215 61 223 57 223 65"></polygon>
<polygon points="215 61 207 57 207 65"></polygon></svg>