<svg height="37" width="713" xmlns="http://www.w3.org/2000/svg" xmlns:xlink="http://www.w3.org/1999/xlink"><style>svg {
  font-family: ui-monospace, SFMono-Regular, Menlo, Monaco, Consolas, "Liberation Mono", "Courier New", monospace;
}
text {
  fill: #2f3337;
  font-size: 14px;
}
rect {
  fill: #ffffff;
  stroke: #3a3d40;
  stroke-width: 2;
}
rect.terminal {
  fill: #ffffff;
}
rect.nonterminal {
  fill: #ffffff;
}
text.terminal {
  fill: #2f3337;
  font-weight: 600;
}
text.nonterminal {
  fill: #2563eb;
}
a text.nonterminal {
  text-decoration: underline;
}
path.line {
  fill: none;
  stroke: #3a3d40;
  stroke-width: 2;
}
polygon {
  fill: #2f3337;
  stroke: #2f3337;
}</style>
<polygon points="9 17 1 13 1 21"></polygon>
<polygon points="17 17 9 13 9 21"></polygon>
<rect height="32" rx="10" width="62" x="31" y="3"></rect>
<rect class="terminal" height="32" rx="10" width="62" x="29" y="1"></rect>
<text class="terminal" x="39" y="21">ALTER</text>
<rect height="32" rx="10" width="92" x="113" y="3"></rect>
<rect class="terminal" height="32" rx="10" width="92" x="111" y="1"></rect>
<text class="terminal" x="121" y="21">FUNCTION</text><a xlink:href="#function_with_paramtypes" xlink:title="function_with_paramtypes">
<rect height="32" width="188" x="225" y="3"></rect>
<rect class="nonterminal" height="32" width="188" x="223" y="1"></rect>
<text lengthAdjust="spacingAndGlyphs" textLength="164" font-size="11" class="nonterminal" x="235" y="21">function_with_paramtypes</text></a><a xlink:href="#alter_func_opt_list" xlink:title="alter_func_opt_list">
<rect height="32" width="138" x="433" y="3"></rect>
<rect class="nonterminal" height="32" width="138" x="431" y="1"></rect>
<text lengthAdjust="spacingAndGlyphs" textLength="114" font-size="10" class="nonterminal" x="443" y="21">alter_func_opt_list</text></a><a xlink:href="#opt_restrict" xlink:title="opt_restrict">
<rect height="32" width="94" x="591" y="3"></rect>
<rect class="nonterminal" height="32" width="94" x="589" y="1"></rect>
<text lengthAdjust="spacingAndGlyphs" textLength="70" font-size="10" class="nonterminal" x="601" y="21">opt_restrict</text></a><path class="line" d="m17 17 h2 m0 0 h10 m62 0 h10 m0 0 h10 m92 0 h10 m0 0 h10 m188 0 h10 m0 0 h10 m138 0 h10 m0 0 h10 m94 0 h10 m3 0 h-3"></path>
<polygon points="703 17 711 13 711 21"></polygon>
<polygon points="703 17 695 13 695 21"></polygon></svg>