<svg height="89" width="495" xmlns="http://www.w3.org/2000/svg" xmlns:xlink="http://www.w3.org/1999/xlink"><style>svg {
  font-family: ui-monospace, SFMono-Regular, Menlo, Monaco, Consolas, "Liberation Mono", "Courier New", monospace;
}
text {
  fill: #2f3337;
  font-size: 14px;
}
rect {
  fill: #ffffff;
  stroke: #3a3d40;
  stroke-width: 2;
}
rect.terminal {
  fill: #ffffff;
}
rect.nonterminal {
  fill: #ffffff;
}
text.terminal {
  fill: #2f3337;
  font-weight: 600;
}
text.nonterminal {
  fill: #2563eb;
}
a text.nonterminal {
  text-decoration: underline;
}
path.line {
  fill: none;
  stroke: #3a3d40;
  stroke-width: 2;
}
polygon {
  fill: #2f3337;
  stroke: #2f3337;
}</style>
<polygon points="9 5 1 1 1 9"></polygon>
<polygon points="17 5 9 1 9 9"></polygon>
<rect height="32" rx="10" width="58" x="71" y="55"></rect>
<rect class="terminal" height="32" rx="10" width="58" x="69" y="53"></rect>
<text class="terminal" x="79" y="73">WITH</text>
<rect height="32" rx="10" width="84" x="149" y="55"></rect>
<rect class="terminal" height="32" rx="10" width="84" x="147" y="53"></rect>
<text class="terminal" x="157" y="73">OPTIONS</text><a xlink:href="#create_stats_option_list" xlink:title="create_stats_option_list">
<rect height="32" width="174" x="273" y="23"></rect>
<rect class="nonterminal" height="32" width="174" x="271" y="21"></rect>
<text lengthAdjust="spacingAndGlyphs" textLength="150" font-size="10" class="nonterminal" x="283" y="41">create_stats_option_list</text></a><path class="line" d="m17 5 h2 m20 0 h10 m0 0 h406 m-436 0 h20 m416 0 h20 m-456 0 q10 0 10 10 m436 0 q0 -10 10 -10 m-446 10 v12 m436 0 v-12 m-436 12 q0 10 10 10 m416 0 q10 0 10 -10 m-406 10 h10 m0 0 h172 m-202 0 h20 m182 0 h20 m-222 0 q10 0 10 10 m202 0 q0 -10 10 -10 m-212 10 v12 m202 0 v-12 m-202 12 q0 10 10 10 m182 0 q10 0 10 -10 m-192 10 h10 m58 0 h10 m0 0 h10 m84 0 h10 m20 -32 h10 m174 0 h10 m23 -32 h-3"></path>
<polygon points="485 5 493 1 493 9"></polygon>
<polygon points="485 5 477 1 477 9"></polygon></svg>