<svg height="81" width="503" xmlns="http://www.w3.org/2000/svg" xmlns:xlink="http://www.w3.org/1999/xlink"><style>svg {
  font-family: ui-monospace, SFMono-Regular, Menlo, Monaco, Consolas, "Liberation Mono", "Courier New", monospace;
}
text {
  fill: #2f3337;
  font-size: 14px;
}
rect {
  fill: #ffffff;
  stroke: #3a3d40;
  stroke-width: 2;
}
rect.terminal {
  fill: #ffffff;
}
rect.nonterminal {
  fill: #ffffff;
}
text.terminal {
  fill: #2f3337;
  font-weight: 600;
}
text.nonterminal {
  fill: #2563eb;
}
a text.nonterminal {
  text-decoration: underline;
}
path.line {
  fill: none;
  stroke: #3a3d40;
  stroke-width: 2;
}
polygon {
  fill: #2f3337;
  stroke: #2f3337;
}</style>
<polygon points="9 17 1 13 1 21"></polygon>
<polygon points="17 17 9 13 9 21"></polygon>
<rect height="32" rx="10" width="162" x="51" y="3"></rect>
<rect class="terminal" height="32" rx="10" width="162" x="49" y="1"></rect>
<text class="terminal" x="59" y="21">EXECUTE_SCHEDULE</text>
<rect height="32" rx="10" width="92" x="233" y="3"></rect>
<rect class="terminal" height="32" rx="10" width="92" x="231" y="1"></rect>
<text class="terminal" x="241" y="21">SCHEDULE</text><a xlink:href="#a_expr" xlink:title="a_expr">
<rect height="32" width="64" x="345" y="3"></rect>
<rect class="nonterminal" height="32" width="64" x="343" y="1"></rect>
<text lengthAdjust="spacingAndGlyphs" textLength="40" font-size="10" class="nonterminal" x="355" y="21">a_expr</text></a><rect height="32" rx="10" width="170" x="51" y="47"></rect>
<rect class="terminal" height="32" rx="10" width="170" x="49" y="45"></rect>
<text class="terminal" x="59" y="65">EXECUTE_SCHEDULES</text>
<rect height="32" rx="10" width="100" x="241" y="47"></rect>
<rect class="terminal" height="32" rx="10" width="100" x="239" y="45"></rect>
<text class="terminal" x="249" y="65">SCHEDULES</text><a xlink:href="#select_stmt" xlink:title="select_stmt">
<rect height="32" width="94" x="361" y="47"></rect>
<rect class="nonterminal" height="32" width="94" x="359" y="45"></rect>
<text lengthAdjust="spacingAndGlyphs" textLength="70" font-size="10" class="nonterminal" x="371" y="65">select_stmt</text></a><path class="line" d="m17 17 h2 m20 0 h10 m162 0 h10 m0 0 h10 m92 0 h10 m0 0 h10 m64 0 h10 m0 0 h46 m-444 0 h20 m424 0 h20 m-464 0 q10 0 10 10 m444 0 q0 -10 10 -10 m-454 10 v24 m444 0 v-24 m-444 24 q0 10 10 10 m424 0 q10 0 10 -10 m-434 10 h10 m170 0 h10 m0 0 h10 m100 0 h10 m0 0 h10 m94 0 h10 m23 -44 h-3"></path>
<polygon points="493 17 501 13 501 21"></polygon>
<polygon points="493 17 485 13 485 21"></polygon></svg>