<svg height="37" width="629" xmlns="http://www.w3.org/2000/svg" xmlns:xlink="http://www.w3.org/1999/xlink"><style>svg {
  font-family: ui-monospace, SFMono-Regular, Menlo, Monaco, Consolas, "Liberation Mono", "Courier New", monospace;
}
text {
  fill: #2f3337;
  font-size: 14px;
}
rect {
  fill: #ffffff;
  stroke: #3a3d40;
  stroke-width: 2;
}
rect.terminal {
  fill: #ffffff;
}
rect.nonterminal {
  fill: #ffffff;
}
text.terminal {
  fill: #2f3337;
  font-weight: 600;
}
text.nonterminal {
  fill: #2563eb;
}
a text.nonterminal {
  text-decoration: underline;
}
path.line {
  fill: none;
  stroke: #3a3d40;
  stroke-width: 2;
}
polygon {
  fill: #2f3337;
  stroke: #2f3337;
}</style>
<polygon points="9 17 1 13 1 21"></polygon>
<polygon points="17 17 9 13 9 21"></polygon>
<rect height="32" rx="10" width="62" x="31" y="3"></rect>
<rect class="terminal" height="32" rx="10" width="62" x="29" y="1"></rect>
<text class="terminal" x="39" y="21">ALTER</text>
<rect height="32" rx="10" width="92" x="113" y="3"></rect>
<rect class="terminal" height="32" rx="10" width="92" x="111" y="1"></rect>
<text class="terminal" x="121" y="21">DATABASE</text><a xlink:href="#database_name" xlink:title="database_name">
<rect height="32" width="124" x="225" y="3"></rect>
<rect class="nonterminal" height="32" width="124" x="223" y="1"></rect>
<text lengthAdjust="spacingAndGlyphs" textLength="100" font-size="12" class="nonterminal" x="235" y="21">database_name</text></a><rect height="32" rx="10" width="72" x="369" y="3"></rect>
<rect class="terminal" height="32" rx="10" width="72" x="367" y="1"></rect>
<text class="terminal" x="377" y="21">OWNER</text>
<rect height="32" rx="10" width="38" x="461" y="3"></rect>
<rect class="terminal" height="32" rx="10" width="38" x="459" y="1"></rect>
<text class="terminal" x="469" y="21">TO</text><a xlink:href="#role_spec" xlink:title="role_spec">
<rect height="32" width="82" x="519" y="3"></rect>
<rect class="nonterminal" height="32" width="82" x="517" y="1"></rect>
<text lengthAdjust="spacingAndGlyphs" textLength="58" font-size="10" class="nonterminal" x="529" y="21">role_spec</text></a><path class="line" d="m17 17 h2 m0 0 h10 m62 0 h10 m0 0 h10 m92 0 h10 m0 0 h10 m124 0 h10 m0 0 h10 m72 0 h10 m0 0 h10 m38 0 h10 m0 0 h10 m82 0 h10 m3 0 h-3"></path>
<polygon points="619 17 627 13 627 21"></polygon>
<polygon points="619 17 611 13 611 21"></polygon></svg>