<svg height="157" width="575" xmlns="http://www.w3.org/2000/svg" xmlns:xlink="http://www.w3.org/1999/xlink"><style>svg {
  font-family: ui-monospace, SFMono-Regular, Menlo, Monaco, Consolas, "Liberation Mono", "Courier New", monospace;
}
text {
  fill: #2f3337;
  font-size: 14px;
}
rect {
  fill: #ffffff;
  stroke: #3a3d40;
  stroke-width: 2;
}
rect.terminal {
  fill: #ffffff;
}
rect.nonterminal {
  fill: #ffffff;
}
text.terminal {
  fill: #2f3337;
  font-weight: 600;
}
text.nonterminal {
  fill: #2563eb;
}
a text.nonterminal {
  text-decoration: underline;
}
path.line {
  fill: none;
  stroke: #3a3d40;
  stroke-width: 2;
}
polygon {
  fill: #2f3337;
  stroke: #2f3337;
}</style>
<polygon points="9 17 1 13 1 21"></polygon>
<polygon points="17 17 9 13 9 21"></polygon><a xlink:href="#alias_clause" xlink:title="alias_clause">
<rect height="32" width="98" x="51" y="3"></rect>
<rect class="nonterminal" height="32" width="98" x="49" y="1"></rect>
<text lengthAdjust="spacingAndGlyphs" textLength="74" font-size="10" class="nonterminal" x="61" y="21">alias_clause</text></a><rect height="32" rx="10" width="38" x="71" y="47"></rect>
<rect class="terminal" height="32" rx="10" width="38" x="69" y="45"></rect>
<text class="terminal" x="79" y="65">AS</text><a xlink:href="#table_alias_name" xlink:title="table_alias_name">
<rect height="32" width="134" x="149" y="79"></rect>
<rect class="nonterminal" height="32" width="134" x="147" y="77"></rect>
<text lengthAdjust="spacingAndGlyphs" textLength="110" font-size="11" class="nonterminal" x="159" y="97">table_alias_name</text></a><a xlink:href="#table_alias_name" xlink:title="table_alias_name">
<rect height="32" width="134" x="71" y="123"></rect>
<rect class="nonterminal" height="32" width="134" x="69" y="121"></rect>
<text lengthAdjust="spacingAndGlyphs" textLength="110" font-size="11" class="nonterminal" x="81" y="141">table_alias_name</text></a><rect height="32" rx="10" width="26" x="343" y="47"></rect>
<rect class="terminal" height="32" rx="10" width="26" x="341" y="45"></rect>
<text class="terminal" x="351" y="65">(</text><a xlink:href="#col_def_list" xlink:title="col_def_list">
<rect height="32" width="92" x="389" y="47"></rect>
<rect class="nonterminal" height="32" width="92" x="387" y="45"></rect>
<text lengthAdjust="spacingAndGlyphs" textLength="68" font-size="10" class="nonterminal" x="399" y="65">col_def_list</text></a><rect height="32" rx="10" width="26" x="501" y="47"></rect>
<rect class="terminal" height="32" rx="10" width="26" x="499" y="45"></rect>
<text class="terminal" x="509" y="65">)</text>
<path class="line" d="m17 17 h2 m20 0 h10 m98 0 h10 m0 0 h378 m-516 0 h20 m496 0 h20 m-536 0 q10 0 10 10 m516 0 q0 -10 10 -10 m-526 10 v24 m516 0 v-24 m-516 24 q0 10 10 10 m496 0 q10 0 10 -10 m-486 10 h10 m38 0 h10 m20 0 h10 m0 0 h144 m-174 0 h20 m154 0 h20 m-194 0 q10 0 10 10 m174 0 q0 -10 10 -10 m-184 10 v12 m174 0 v-12 m-174 12 q0 10 10 10 m154 0 q10 0 10 -10 m-164 10 h10 m134 0 h10 m-252 -32 h20 m252 0 h20 m-292 0 q10 0 10 10 m272 0 q0 -10 10 -10 m-282 10 v56 m272 0 v-56 m-272 56 q0 10 10 10 m252 0 q10 0 10 -10 m-262 10 h10 m134 0 h10 m0 0 h98 m20 -76 h10 m26 0 h10 m0 0 h10 m92 0 h10 m0 0 h10 m26 0 h10 m23 -44 h-3"></path>
<polygon points="565 17 573 13 573 21"></polygon>
<polygon points="565 17 557 13 557 21"></polygon></svg>