<svg height="101" width="513" xmlns="http://www.w3.org/2000/svg" xmlns:xlink="http://www.w3.org/1999/xlink"><style>svg {
  font-family: ui-monospace, SFMono-Regular, Menlo, Monaco, Consolas, "Liberation Mono", "Courier New", monospace;
}
text {
  fill: #2f3337;
  font-size: 14px;
}
rect {
  fill: #ffffff;
  stroke: #3a3d40;
  stroke-width: 2;
}
rect.terminal {
  fill: #ffffff;
}
rect.nonterminal {
  fill: #ffffff;
}
text.terminal {
  fill: #2f3337;
  font-weight: 600;
}
text.nonterminal {
  fill: #2563eb;
}
a text.nonterminal {
  text-decoration: underline;
}
path.line {
  fill: none;
  stroke: #3a3d40;
  stroke-width: 2;
}
polygon {
  fill: #2f3337;
  stroke: #2f3337;
}</style>
<polygon points="9 5 1 1 1 9"></polygon>
<polygon points="17 5 9 1 9 9"></polygon><a xlink:href="#routine_return_stmt" xlink:title="routine_return_stmt">
<rect height="32" width="148" x="51" y="23"></rect>
<rect class="nonterminal" height="32" width="148" x="49" y="21"></rect>
<text lengthAdjust="spacingAndGlyphs" textLength="124" font-size="10" class="nonterminal" x="61" y="41">routine_return_stmt</text></a><rect height="32" rx="10" width="64" x="51" y="67"></rect>
<rect class="terminal" height="32" rx="10" width="64" x="49" y="65"></rect>
<text class="terminal" x="59" y="85">BEGIN</text>
<rect height="32" rx="10" width="74" x="135" y="67"></rect>
<rect class="terminal" height="32" rx="10" width="74" x="133" y="65"></rect>
<text class="terminal" x="143" y="85">ATOMIC</text><a xlink:href="#routine_body_stmt_list" xlink:title="routine_body_stmt_list">
<rect height="32" width="168" x="229" y="67"></rect>
<rect class="nonterminal" height="32" width="168" x="227" y="65"></rect>
<text lengthAdjust="spacingAndGlyphs" textLength="144" font-size="10" class="nonterminal" x="239" y="85">routine_body_stmt_list</text></a><rect height="32" rx="10" width="48" x="417" y="67"></rect>
<rect class="terminal" height="32" rx="10" width="48" x="415" y="65"></rect>
<text class="terminal" x="425" y="85">END</text>
<path class="line" d="m17 5 h2 m20 0 h10 m0 0 h424 m-454 0 h20 m434 0 h20 m-474 0 q10 0 10 10 m454 0 q0 -10 10 -10 m-464 10 v12 m454 0 v-12 m-454 12 q0 10 10 10 m434 0 q10 0 10 -10 m-444 10 h10 m148 0 h10 m0 0 h266 m-444 -10 v20 m454 0 v-20 m-454 20 v24 m454 0 v-24 m-454 24 q0 10 10 10 m434 0 q10 0 10 -10 m-444 10 h10 m64 0 h10 m0 0 h10 m74 0 h10 m0 0 h10 m168 0 h10 m0 0 h10 m48 0 h10 m23 -76 h-3"></path>
<polygon points="503 5 511 1 511 9"></polygon>
<polygon points="503 5 495 1 495 9"></polygon></svg>