<svg height="57" width="393" xmlns="http://www.w3.org/2000/svg" xmlns:xlink="http://www.w3.org/1999/xlink"><style>svg {
  font-family: ui-monospace, SFMono-Regular, Menlo, Monaco, Consolas, "Liberation Mono", "Courier New", monospace;
}
text {
  fill: #2f3337;
  font-size: 14px;
}
rect {
  fill: #ffffff;
  stroke: #3a3d40;
  stroke-width: 2;
}
rect.terminal {
  fill: #ffffff;
}
rect.nonterminal {
  fill: #ffffff;
}
text.terminal {
  fill: #2f3337;
  font-weight: 600;
}
text.nonterminal {
  fill: #2563eb;
}
a text.nonterminal {
  text-decoration: underline;
}
path.line {
  fill: none;
  stroke: #3a3d40;
  stroke-width: 2;
}
polygon {
  fill: #2f3337;
  stroke: #2f3337;
}</style>
<polygon points="9 5 1 1 1 9"></polygon>
<polygon points="17 5 9 1 9 9"></polygon>
<rect height="32" rx="10" width="116" x="51" y="23"></rect>
<rect class="terminal" height="32" rx="10" width="116" x="49" y="21"></rect>
<text class="terminal" x="59" y="41">REFERENCING</text><a xlink:href="#trigger_transition_list" xlink:title="trigger_transition_list">
<rect height="32" width="158" x="187" y="23"></rect>
<rect class="nonterminal" height="32" width="158" x="185" y="21"></rect>
<text lengthAdjust="spacingAndGlyphs" textLength="134" font-size="10" class="nonterminal" x="197" y="41">trigger_transition_list</text></a><path class="line" d="m17 5 h2 m20 0 h10 m0 0 h304 m-334 0 h20 m314 0 h20 m-354 0 q10 0 10 10 m334 0 q0 -10 10 -10 m-344 10 v12 m334 0 v-12 m-334 12 q0 10 10 10 m314 0 q10 0 10 -10 m-324 10 h10 m116 0 h10 m0 0 h10 m158 0 h10 m23 -32 h-3"></path>
<polygon points="383 5 391 1 391 9"></polygon>
<polygon points="383 5 375 1 375 9"></polygon></svg>