<svg height="157" width="243" xmlns="http://www.w3.org/2000/svg"><style>svg {
  font-family: ui-monospace, SFMono-Regular, Menlo, Monaco, Consolas, "Liberation Mono", "Courier New", monospace;
}
text {
  fill: #2f3337;
  font-size: 14px;
}
rect {
  fill: #ffffff;
  stroke: #3a3d40;
  stroke-width: 2;
}
rect.terminal {
  fill: #ffffff;
}
rect.nonterminal {
  fill: #ffffff;
}
text.terminal {
  fill: #2f3337;
  font-weight: 600;
}
text.nonterminal {
  fill: #2563eb;
}
a text.nonterminal {
  text-decoration: underline;
}
path.line {
  fill: none;
  stroke: #3a3d40;
  stroke-width: 2;
}
polygon {
  fill: #2f3337;
  stroke: #2f3337;
}</style>
<polygon points="9 17 1 13 1 21"></polygon>
<polygon points="17 17 9 13 9 21"></polygon>
<rect height="32" rx="10" width="36" x="51" y="3"></rect>
<rect class="terminal" height="32" rx="10" width="36" x="49" y="1"></rect>
<text class="terminal" x="59" y="21">IN</text>
<rect height="32" rx="10" width="48" x="127" y="35"></rect>
<rect class="terminal" height="32" rx="10" width="48" x="125" y="33"></rect>
<text class="terminal" x="135" y="53">OUT</text>
<rect height="32" rx="10" width="48" x="51" y="79"></rect>
<rect class="terminal" height="32" rx="10" width="48" x="49" y="77"></rect>
<text class="terminal" x="59" y="97">OUT</text>
<rect height="32" rx="10" width="66" x="51" y="123"></rect>
<rect class="terminal" height="32" rx="10" width="66" x="49" y="121"></rect>
<text class="terminal" x="59" y="141">INOUT</text>
<path class="line" d="m17 17 h2 m20 0 h10 m36 0 h10 m20 0 h10 m0 0 h58 m-88 0 h20 m68 0 h20 m-108 0 q10 0 10 10 m88 0 q0 -10 10 -10 m-98 10 v12 m88 0 v-12 m-88 12 q0 10 10 10 m68 0 q10 0 10 -10 m-78 10 h10 m48 0 h10 m-164 -32 h20 m164 0 h20 m-204 0 q10 0 10 10 m184 0 q0 -10 10 -10 m-194 10 v56 m184 0 v-56 m-184 56 q0 10 10 10 m164 0 q10 0 10 -10 m-174 10 h10 m48 0 h10 m0 0 h96 m-174 -10 v20 m184 0 v-20 m-184 20 v24 m184 0 v-24 m-184 24 q0 10 10 10 m164 0 q10 0 10 -10 m-174 10 h10 m66 0 h10 m0 0 h78 m23 -120 h-3"></path>
<polygon points="233 17 241 13 241 21"></polygon>
<polygon points="233 17 225 13 225 21"></polygon></svg>