<svg height="37" width="565" xmlns="http://www.w3.org/2000/svg" xmlns:xlink="http://www.w3.org/1999/xlink"><style>svg {
  font-family: ui-monospace, SFMono-Regular, Menlo, Monaco, Consolas, "Liberation Mono", "Courier New", monospace;
}
text {
  fill: #2f3337;
  font-size: 14px;
}
rect {
  fill: #ffffff;
  stroke: #3a3d40;
  stroke-width: 2;
}
rect.terminal {
  fill: #ffffff;
}
rect.nonterminal {
  fill: #ffffff;
}
text.terminal {
  fill: #2f3337;
  font-weight: 600;
}
text.nonterminal {
  fill: #2563eb;
}
a text.nonterminal {
  text-decoration: underline;
}
path.line {
  fill: none;
  stroke: #3a3d40;
  stroke-width: 2;
}
polygon {
  fill: #2f3337;
  stroke: #2f3337;
}</style>
<polygon points="9 17 1 13 1 21"></polygon>
<polygon points="17 17 9 13 9 21"></polygon>
<rect height="32" rx="10" width="92" x="31" y="3"></rect>
<rect class="terminal" height="32" rx="10" width="92" x="29" y="1"></rect>
<text class="terminal" x="39" y="21">TRUNCATE</text><a xlink:href="#opt_table" xlink:title="opt_table">
<rect height="32" width="80" x="143" y="3"></rect>
<rect class="nonterminal" height="32" width="80" x="141" y="1"></rect>
<text lengthAdjust="spacingAndGlyphs" textLength="56" font-size="10" class="nonterminal" x="153" y="21">opt_table</text></a><a xlink:href="#relation_expr_list" xlink:title="relation_expr_list">
<rect height="32" width="132" x="243" y="3"></rect>
<rect class="nonterminal" height="32" width="132" x="241" y="1"></rect>
<text lengthAdjust="spacingAndGlyphs" textLength="108" font-size="10" class="nonterminal" x="253" y="21">relation_expr_list</text></a><a xlink:href="#opt_drop_behavior" xlink:title="opt_drop_behavior">
<rect height="32" width="142" x="395" y="3"></rect>
<rect class="nonterminal" height="32" width="142" x="393" y="1"></rect>
<text lengthAdjust="spacingAndGlyphs" textLength="118" font-size="11" class="nonterminal" x="405" y="21">opt_drop_behavior</text></a><path class="line" d="m17 17 h2 m0 0 h10 m92 0 h10 m0 0 h10 m80 0 h10 m0 0 h10 m132 0 h10 m0 0 h10 m142 0 h10 m3 0 h-3"></path>
<polygon points="555 17 563 13 563 21"></polygon>
<polygon points="555 17 547 13 547 21"></polygon></svg>