<svg height="81" width="311" xmlns="http://www.w3.org/2000/svg"><style>svg {
  font-family: ui-monospace, SFMono-Regular, Menlo, Monaco, Consolas, "Liberation Mono", "Courier New", monospace;
}
text {
  fill: #2f3337;
  font-size: 14px;
}
rect {
  fill: #ffffff;
  stroke: #3a3d40;
  stroke-width: 2;
}
rect.terminal {
  fill: #ffffff;
}
rect.nonterminal {
  fill: #ffffff;
}
text.terminal {
  fill: #2f3337;
  font-weight: 600;
}
text.nonterminal {
  fill: #2563eb;
}
a text.nonterminal {
  text-decoration: underline;
}
path.line {
  fill: none;
  stroke: #3a3d40;
  stroke-width: 2;
}
polygon {
  fill: #2f3337;
  stroke: #2f3337;
}</style>
<polygon points="9 17 1 13 1 21"></polygon>
<polygon points="17 17 9 13 9 21"></polygon>
<rect height="32" rx="10" width="100" x="51" y="3"></rect>
<rect class="terminal" height="32" rx="10" width="100" x="49" y="1"></rect>
<text class="terminal" x="59" y="21">EXECUTION</text>
<rect height="32" rx="10" width="78" x="171" y="3"></rect>
<rect class="terminal" height="32" rx="10" width="78" x="169" y="1"></rect>
<text class="terminal" x="179" y="21">DETAILS</text>
<rect height="32" rx="10" width="92" x="51" y="47"></rect>
<rect class="terminal" height="32" rx="10" width="92" x="49" y="45"></rect>
<text class="terminal" x="59" y="65">RESOLVED</text>
<rect height="32" rx="10" width="100" x="163" y="47"></rect>
<rect class="terminal" height="32" rx="10" width="100" x="161" y="45"></rect>
<text class="terminal" x="171" y="65">TIMESTAMP</text>
<path class="line" d="m17 17 h2 m20 0 h10 m100 0 h10 m0 0 h10 m78 0 h10 m0 0 h14 m-252 0 h20 m232 0 h20 m-272 0 q10 0 10 10 m252 0 q0 -10 10 -10 m-262 10 v24 m252 0 v-24 m-252 24 q0 10 10 10 m232 0 q10 0 10 -10 m-242 10 h10 m92 0 h10 m0 0 h10 m100 0 h10 m23 -44 h-3"></path>
<polygon points="301 17 309 13 309 21"></polygon>
<polygon points="301 17 293 13 293 21"></polygon></svg>