<svg height="81" width="273" xmlns="http://www.w3.org/2000/svg" xmlns:xlink="http://www.w3.org/1999/xlink"><style>svg {
  font-family: ui-monospace, SFMono-Regular, Menlo, Monaco, Consolas, "Liberation Mono", "Courier New", monospace;
}
text {
  fill: #2f3337;
  font-size: 14px;
}
rect {
  fill: #ffffff;
  stroke: #3a3d40;
  stroke-width: 2;
}
rect.terminal {
  fill: #ffffff;
}
rect.nonterminal {
  fill: #ffffff;
}
text.terminal {
  fill: #2f3337;
  font-weight: 600;
}
text.nonterminal {
  fill: #2563eb;
}
a text.nonterminal {
  text-decoration: underline;
}
path.line {
  fill: none;
  stroke: #3a3d40;
  stroke-width: 2;
}
polygon {
  fill: #2f3337;
  stroke: #2f3337;
}</style>
<polygon points="9 17 1 13 1 21"></polygon>
<polygon points="17 17 9 13 9 21"></polygon><a xlink:href="#select_with_parens" xlink:title="select_with_parens">
<rect height="32" width="144" x="51" y="3"></rect>
<rect class="nonterminal" height="32" width="144" x="49" y="1"></rect>
<text lengthAdjust="spacingAndGlyphs" textLength="120" font-size="10" class="nonterminal" x="61" y="21">select_with_parens</text></a><a xlink:href="#expr_tuple1_ambiguous" xlink:title="expr_tuple1_ambiguous">
<rect height="32" width="174" x="51" y="47"></rect>
<rect class="nonterminal" height="32" width="174" x="49" y="45"></rect>
<text lengthAdjust="spacingAndGlyphs" textLength="150" font-size="11" class="nonterminal" x="61" y="65">expr_tuple1_ambiguous</text></a><path class="line" d="m17 17 h2 m20 0 h10 m144 0 h10 m0 0 h30 m-214 0 h20 m194 0 h20 m-234 0 q10 0 10 10 m214 0 q0 -10 10 -10 m-224 10 v24 m214 0 v-24 m-214 24 q0 10 10 10 m194 0 q10 0 10 -10 m-204 10 h10 m174 0 h10 m23 -44 h-3"></path>
<polygon points="263 17 271 13 271 21"></polygon>
<polygon points="263 17 255 13 255 21"></polygon></svg>