<svg height="157" width="265" xmlns="http://www.w3.org/2000/svg"><style>svg {
  font-family: ui-monospace, SFMono-Regular, Menlo, Monaco, Consolas, "Liberation Mono", "Courier New", monospace;
}
text {
  fill: #2f3337;
  font-size: 14px;
}
rect {
  fill: #ffffff;
  stroke: #3a3d40;
  stroke-width: 2;
}
rect.terminal {
  fill: #ffffff;
}
rect.nonterminal {
  fill: #ffffff;
}
text.terminal {
  fill: #2f3337;
  font-weight: 600;
}
text.nonterminal {
  fill: #2563eb;
}
a text.nonterminal {
  text-decoration: underline;
}
path.line {
  fill: none;
  stroke: #3a3d40;
  stroke-width: 2;
}
polygon {
  fill: #2f3337;
  stroke: #2f3337;
}</style>
<polygon points="9 17 1 13 1 21"></polygon>
<polygon points="17 17 9 13 9 21"></polygon>
<rect height="32" rx="10" width="72" x="51" y="3"></rect>
<rect class="terminal" height="32" rx="10" width="72" x="49" y="1"></rect>
<text class="terminal" x="59" y="21">ENABLE</text>
<rect height="32" rx="10" width="80" x="51" y="47"></rect>
<rect class="terminal" height="32" rx="10" width="80" x="49" y="45"></rect>
<text class="terminal" x="59" y="65">DISABLE</text>
<rect height="32" rx="10" width="40" x="71" y="123"></rect>
<rect class="terminal" height="32" rx="10" width="40" x="69" y="121"></rect>
<text class="terminal" x="79" y="141">NO</text>
<rect height="32" rx="10" width="66" x="151" y="91"></rect>
<rect class="terminal" height="32" rx="10" width="66" x="149" y="89"></rect>
<text class="terminal" x="159" y="109">FORCE</text>
<path class="line" d="m17 17 h2 m20 0 h10 m72 0 h10 m0 0 h94 m-206 0 h20 m186 0 h20 m-226 0 q10 0 10 10 m206 0 q0 -10 10 -10 m-216 10 v24 m206 0 v-24 m-206 24 q0 10 10 10 m186 0 q10 0 10 -10 m-196 10 h10 m80 0 h10 m0 0 h86 m-196 -10 v20 m206 0 v-20 m-206 20 v24 m206 0 v-24 m-206 24 q0 10 10 10 m186 0 q10 0 10 -10 m-176 10 h10 m0 0 h50 m-80 0 h20 m60 0 h20 m-100 0 q10 0 10 10 m80 0 q0 -10 10 -10 m-90 10 v12 m80 0 v-12 m-80 12 q0 10 10 10 m60 0 q10 0 10 -10 m-70 10 h10 m40 0 h10 m20 -32 h10 m66 0 h10 m23 -88 h-3"></path>
<polygon points="255 17 263 13 263 21"></polygon>
<polygon points="255 17 247 13 247 21"></polygon></svg>