<svg height="1401" width="303" xmlns="http://www.w3.org/2000/svg"><style>svg {
  font-family: ui-monospace, SFMono-Regular, Menlo, Monaco, Consolas, "Liberation Mono", "Courier New", monospace;
}
text {
  fill: #2f3337;
  font-size: 14px;
}
rect {
  fill: #ffffff;
  stroke: #3a3d40;
  stroke-width: 2;
}
rect.terminal {
  fill: #ffffff;
}
rect.nonterminal {
  fill: #ffffff;
}
text.terminal {
  fill: #2f3337;
  font-weight: 600;
}
text.nonterminal {
  fill: #2563eb;
}
a text.nonterminal {
  text-decoration: underline;
}
path.line {
  fill: none;
  stroke: #3a3d40;
  stroke-width: 2;
}
polygon {
  fill: #2f3337;
  stroke: #2f3337;
}</style>
<polygon points="9 17 1 13 1 21"></polygon>
<polygon points="17 17 9 13 9 21"></polygon>
<rect height="32" rx="10" width="64" x="51" y="3"></rect>
<rect class="terminal" height="32" rx="10" width="64" x="49" y="1"></rect>
<text class="terminal" x="59" y="21">POINT</text>
<rect height="32" rx="10" width="76" x="51" y="47"></rect>
<rect class="terminal" height="32" rx="10" width="76" x="49" y="45"></rect>
<text class="terminal" x="59" y="65">POINTM</text>
<rect height="32" rx="10" width="72" x="51" y="91"></rect>
<rect class="terminal" height="32" rx="10" width="72" x="49" y="89"></rect>
<text class="terminal" x="59" y="109">POINTZ</text>
<rect height="32" rx="10" width="84" x="51" y="135"></rect>
<rect class="terminal" height="32" rx="10" width="84" x="49" y="133"></rect>
<text class="terminal" x="59" y="153">POINTZM</text>
<rect height="32" rx="10" width="106" x="51" y="179"></rect>
<rect class="terminal" height="32" rx="10" width="106" x="49" y="177"></rect>
<text class="terminal" x="59" y="197">LINESTRING</text>
<rect height="32" rx="10" width="116" x="51" y="223"></rect>
<rect class="terminal" height="32" rx="10" width="116" x="49" y="221"></rect>
<text class="terminal" x="59" y="241">LINESTRINGM</text>
<rect height="32" rx="10" width="114" x="51" y="267"></rect>
<rect class="terminal" height="32" rx="10" width="114" x="49" y="265"></rect>
<text class="terminal" x="59" y="285">LINESTRINGZ</text>
<rect height="32" rx="10" width="124" x="51" y="311"></rect>
<rect class="terminal" height="32" rx="10" width="124" x="49" y="309"></rect>
<text class="terminal" x="59" y="329">LINESTRINGZM</text>
<rect height="32" rx="10" width="88" x="51" y="355"></rect>
<rect class="terminal" height="32" rx="10" width="88" x="49" y="353"></rect>
<text class="terminal" x="59" y="373">POLYGON</text>
<rect height="32" rx="10" width="98" x="51" y="399"></rect>
<rect class="terminal" height="32" rx="10" width="98" x="49" y="397"></rect>
<text class="terminal" x="59" y="417">POLYGONM</text>
<rect height="32" rx="10" width="96" x="51" y="443"></rect>
<rect class="terminal" height="32" rx="10" width="96" x="49" y="441"></rect>
<text class="terminal" x="59" y="461">POLYGONZ</text>
<rect height="32" rx="10" width="106" x="51" y="487"></rect>
<rect class="terminal" height="32" rx="10" width="106" x="49" y="485"></rect>
<text class="terminal" x="59" y="505">POLYGONZM</text>
<rect height="32" rx="10" width="108" x="51" y="531"></rect>
<rect class="terminal" height="32" rx="10" width="108" x="49" y="529"></rect>
<text class="terminal" x="59" y="549">MULTIPOINT</text>
<rect height="32" rx="10" width="120" x="51" y="575"></rect>
<rect class="terminal" height="32" rx="10" width="120" x="49" y="573"></rect>
<text class="terminal" x="59" y="593">MULTIPOINTM</text>
<rect height="32" rx="10" width="116" x="51" y="619"></rect>
<rect class="terminal" height="32" rx="10" width="116" x="49" y="617"></rect>
<text class="terminal" x="59" y="637">MULTIPOINTZ</text>
<rect height="32" rx="10" width="128" x="51" y="663"></rect>
<rect class="terminal" height="32" rx="10" width="128" x="49" y="661"></rect>
<text class="terminal" x="59" y="681">MULTIPOINTZM</text>
<rect height="32" rx="10" width="150" x="51" y="707"></rect>
<rect class="terminal" height="32" rx="10" width="150" x="49" y="705"></rect>
<text class="terminal" x="59" y="725">MULTILINESTRING</text>
<rect height="32" rx="10" width="160" x="51" y="751"></rect>
<rect class="terminal" height="32" rx="10" width="160" x="49" y="749"></rect>
<text class="terminal" x="59" y="769">MULTILINESTRINGM</text>
<rect height="32" rx="10" width="158" x="51" y="795"></rect>
<rect class="terminal" height="32" rx="10" width="158" x="49" y="793"></rect>
<text class="terminal" x="59" y="813">MULTILINESTRINGZ</text>
<rect height="32" rx="10" width="168" x="51" y="839"></rect>
<rect class="terminal" height="32" rx="10" width="168" x="49" y="837"></rect>
<text class="terminal" x="59" y="857">MULTILINESTRINGZM</text>
<rect height="32" rx="10" width="130" x="51" y="883"></rect>
<rect class="terminal" height="32" rx="10" width="130" x="49" y="881"></rect>
<text class="terminal" x="59" y="901">MULTIPOLYGON</text>
<rect height="32" rx="10" width="142" x="51" y="927"></rect>
<rect class="terminal" height="32" rx="10" width="142" x="49" y="925"></rect>
<text class="terminal" x="59" y="945">MULTIPOLYGONM</text>
<rect height="32" rx="10" width="140" x="51" y="971"></rect>
<rect class="terminal" height="32" rx="10" width="140" x="49" y="969"></rect>
<text class="terminal" x="59" y="989">MULTIPOLYGONZ</text>
<rect height="32" rx="10" width="150" x="51" y="1015"></rect>
<rect class="terminal" height="32" rx="10" width="150" x="49" y="1013"></rect>
<text class="terminal" x="59" y="1033">MULTIPOLYGONZM</text>
<rect height="32" rx="10" width="184" x="51" y="1059"></rect>
<rect class="terminal" height="32" rx="10" width="184" x="49" y="1057"></rect>
<text class="terminal" x="59" y="1077">GEOMETRYCOLLECTION</text>
<rect height="32" rx="10" width="194" x="51" y="1103"></rect>
<rect class="terminal" height="32" rx="10" width="194" x="49" y="1101"></rect>
<text class="terminal" x="59" y="1121">GEOMETRYCOLLECTIONM</text>
<rect height="32" rx="10" width="192" x="51" y="1147"></rect>
<rect class="terminal" height="32" rx="10" width="192" x="49" y="1145"></rect>
<text class="terminal" x="59" y="1165">GEOMETRYCOLLECTIONZ</text>
<rect height="32" rx="10" width="204" x="51" y="1191"></rect>
<rect class="terminal" height="32" rx="10" width="204" x="49" y="1189"></rect>
<text class="terminal" x="59" y="1209">GEOMETRYCOLLECTIONZM</text>
<rect height="32" rx="10" width="94" x="51" y="1235"></rect>
<rect class="terminal" height="32" rx="10" width="94" x="49" y="1233"></rect>
<text class="terminal" x="59" y="1253">GEOMETRY</text>
<rect height="32" rx="10" width="106" x="51" y="1279"></rect>
<rect class="terminal" height="32" rx="10" width="106" x="49" y="1277"></rect>
<text class="terminal" x="59" y="1297">GEOMETRYM</text>
<rect height="32" rx="10" width="102" x="51" y="1323"></rect>
<rect class="terminal" height="32" rx="10" width="102" x="49" y="1321"></rect>
<text class="terminal" x="59" y="1341">GEOMETRYZ</text>
<rect height="32" rx="10" width="114" x="51" y="1367"></rect>
<rect class="terminal" height="32" rx="10" width="114" x="49" y="1365"></rect>
<text class="terminal" x="59" y="1385">GEOMETRYZM</text>
<path class="line" d="m17 17 h2 m20 0 h10 m64 0 h10 m0 0 h140 m-244 0 h20 m224 0 h20 m-264 0 q10 0 10 10 m244 0 q0 -10 10 -10 m-254 10 v24 m244 0 v-24 m-244 24 q0 10 10 10 m224 0 q10 0 10 -10 m-234 10 h10 m76 0 h10 m0 0 h128 m-234 -10 v20 m244 0 v-20 m-244 20 v24 m244 0 v-24 m-244 24 q0 10 10 10 m224 0 q10 0 10 -10 m-234 10 h10 m72 0 h10 m0 0 h132 m-234 -10 v20 m244 0 v-20 m-244 20 v24 m244 0 v-24 m-244 24 q0 10 10 10 m224 0 q10 0 10 -10 m-234 10 h10 m84 0 h10 m0 0 h120 m-234 -10 v20 m244 0 v-20 m-244 20 v24 m244 0 v-24 m-244 24 q0 10 10 10 m224 0 q10 0 10 -10 m-234 10 h10 m106 0 h10 m0 0 h98 m-234 -10 v20 m244 0 v-20 m-244 20 v24 m244 0 v-24 m-244 24 q0 10 10 10 m224 0 q10 0 10 -10 m-234 10 h10 m116 0 h10 m0 0 h88 m-234 -10 v20 m244 0 v-20 m-244 20 v24 m244 0 v-24 m-244 24 q0 10 10 10 m224 0 q10 0 10 -10 m-234 10 h10 m114 0 h10 m0 0 h90 m-234 -10 v20 m244 0 v-20 m-244 20 v24 m244 0 v-24 m-244 24 q0 10 10 10 m224 0 q10 0 10 -10 m-234 10 h10 m124 0 h10 m0 0 h80 m-234 -10 v20 m244 0 v-20 m-244 20 v24 m244 0 v-24 m-244 24 q0 10 10 10 m224 0 q10 0 10 -10 m-234 10 h10 m88 0 h10 m0 0 h116 m-234 -10 v20 m244 0 v-20 m-244 20 v24 m244 0 v-24 m-244 24 q0 10 10 10 m224 0 q10 0 10 -10 m-234 10 h10 m98 0 h10 m0 0 h106 m-234 -10 v20 m244 0 v-20 m-244 20 v24 m244 0 v-24 m-244 24 q0 10 10 10 m224 0 q10 0 10 -10 m-234 10 h10 m96 0 h10 m0 0 h108 m-234 -10 v20 m244 0 v-20 m-244 20 v24 m244 0 v-24 m-244 24 q0 10 10 10 m224 0 q10 0 10 -10 m-234 10 h10 m106 0 h10 m0 0 h98 m-234 -10 v20 m244 0 v-20 m-244 20 v24 m244 0 v-24 m-244 24 q0 10 10 10 m224 0 q10 0 10 -10 m-234 10 h10 m108 0 h10 m0 0 h96 m-234 -10 v20 m244 0 v-20 m-244 20 v24 m244 0 v-24 m-244 24 q0 10 10 10 m224 0 q10 0 10 -10 m-234 10 h10 m120 0 h10 m0 0 h84 m-234 -10 v20 m244 0 v-20 m-244 20 v24 m244 0 v-24 m-244 24 q0 10 10 10 m224 0 q10 0 10 -10 m-234 10 h10 m116 0 h10 m0 0 h88 m-234 -10 v20 m244 0 v-20 m-244 20 v24 m244 0 v-24 m-244 24 q0 10 10 10 m224 0 q10 0 10 -10 m-234 10 h10 m128 0 h10 m0 0 h76 m-234 -10 v20 m244 0 v-20 m-244 20 v24 m244 0 v-24 m-244 24 q0 10 10 10 m224 0 q10 0 10 -10 m-234 10 h10 m150 0 h10 m0 0 h54 m-234 -10 v20 m244 0 v-20 m-244 20 v24 m244 0 v-24 m-244 24 q0 10 10 10 m224 0 q10 0 10 -10 m-234 10 h10 m160 0 h10 m0 0 h44 m-234 -10 v20 m244 0 v-20 m-244 20 v24 m244 0 v-24 m-244 24 q0 10 10 10 m224 0 q10 0 10 -10 m-234 10 h10 m158 0 h10 m0 0 h46 m-234 -10 v20 m244 0 v-20 m-244 20 v24 m244 0 v-24 m-244 24 q0 10 10 10 m224 0 q10 0 10 -10 m-234 10 h10 m168 0 h10 m0 0 h36 m-234 -10 v20 m244 0 v-20 m-244 20 v24 m244 0 v-24 m-244 24 q0 10 10 10 m224 0 q10 0 10 -10 m-234 10 h10 m130 0 h10 m0 0 h74 m-234 -10 v20 m244 0 v-20 m-244 20 v24 m244 0 v-24 m-244 24 q0 10 10 10 m224 0 q10 0 10 -10 m-234 10 h10 m142 0 h10 m0 0 h62 m-234 -10 v20 m244 0 v-20 m-244 20 v24 m244 0 v-24 m-244 24 q0 10 10 10 m224 0 q10 0 10 -10 m-234 10 h10 m140 0 h10 m0 0 h64 m-234 -10 v20 m244 0 v-20 m-244 20 v24 m244 0 v-24 m-244 24 q0 10 10 10 m224 0 q10 0 10 -10 m-234 10 h10 m150 0 h10 m0 0 h54 m-234 -10 v20 m244 0 v-20 m-244 20 v24 m244 0 v-24 m-244 24 q0 10 10 10 m224 0 q10 0 10 -10 m-234 10 h10 m184 0 h10 m0 0 h20 m-234 -10 v20 m244 0 v-20 m-244 20 v24 m244 0 v-24 m-244 24 q0 10 10 10 m224 0 q10 0 10 -10 m-234 10 h10 m194 0 h10 m0 0 h10 m-234 -10 v20 m244 0 v-20 m-244 20 v24 m244 0 v-24 m-244 24 q0 10 10 10 m224 0 q10 0 10 -10 m-234 10 h10 m192 0 h10 m0 0 h12 m-234 -10 v20 m244 0 v-20 m-244 20 v24 m244 0 v-24 m-244 24 q0 10 10 10 m224 0 q10 0 10 -10 m-234 10 h10 m204 0 h10 m-234 -10 v20 m244 0 v-20 m-244 20 v24 m244 0 v-24 m-244 24 q0 10 10 10 m224 0 q10 0 10 -10 m-234 10 h10 m94 0 h10 m0 0 h110 m-234 -10 v20 m244 0 v-20 m-244 20 v24 m244 0 v-24 m-244 24 q0 10 10 10 m224 0 q10 0 10 -10 m-234 10 h10 m106 0 h10 m0 0 h98 m-234 -10 v20 m244 0 v-20 m-244 20 v24 m244 0 v-24 m-244 24 q0 10 10 10 m224 0 q10 0 10 -10 m-234 10 h10 m102 0 h10 m0 0 h102 m-234 -10 v20 m244 0 v-20 m-244 20 v24 m244 0 v-24 m-244 24 q0 10 10 10 m224 0 q10 0 10 -10 m-234 10 h10 m114 0 h10 m0 0 h90 m23 -1364 h-3"></path>
<polygon points="293 17 301 13 301 21"></polygon>
<polygon points="293 17 285 13 285 21"></polygon></svg>