<svg height="125" width="177" xmlns="http://www.w3.org/2000/svg"><style>svg {
  font-family: ui-monospace, SFMono-Regular, Menlo, Monaco, Consolas, "Liberation Mono", "Courier New", monospace;
}
text {
  fill: #2f3337;
  font-size: 14px;
}
rect {
  fill: #ffffff;
  stroke: #3a3d40;
  stroke-width: 2;
}
rect.terminal {
  fill: #ffffff;
}
rect.nonterminal {
  fill: #ffffff;
}
text.terminal {
  fill: #2f3337;
  font-weight: 600;
}
text.nonterminal {
  fill: #2563eb;
}
a text.nonterminal {
  text-decoration: underline;
}
path.line {
  fill: none;
  stroke: #3a3d40;
  stroke-width: 2;
}
polygon {
  fill: #2f3337;
  stroke: #2f3337;
}</style>
<polygon points="9 17 1 13 1 21"></polygon>
<polygon points="17 17 9 13 9 21"></polygon>
<rect height="32" rx="10" width="52" x="51" y="3"></rect>
<rect class="terminal" height="32" rx="10" width="52" x="49" y="1"></rect>
<text class="terminal" x="59" y="21">LOW</text>
<rect height="32" rx="10" width="78" x="51" y="47"></rect>
<rect class="terminal" height="32" rx="10" width="78" x="49" y="45"></rect>
<text class="terminal" x="59" y="65">NORMAL</text>
<rect height="32" rx="10" width="56" x="51" y="91"></rect>
<rect class="terminal" height="32" rx="10" width="56" x="49" y="89"></rect>
<text class="terminal" x="59" y="109">HIGH</text>
<path class="line" d="m17 17 h2 m20 0 h10 m52 0 h10 m0 0 h26 m-118 0 h20 m98 0 h20 m-138 0 q10 0 10 10 m118 0 q0 -10 10 -10 m-128 10 v24 m118 0 v-24 m-118 24 q0 10 10 10 m98 0 q10 0 10 -10 m-108 10 h10 m78 0 h10 m-108 -10 v20 m118 0 v-20 m-118 20 v24 m118 0 v-24 m-118 24 q0 10 10 10 m98 0 q10 0 10 -10 m-108 10 h10 m56 0 h10 m0 0 h22 m23 -88 h-3"></path>
<polygon points="167 17 175 13 175 21"></polygon>
<polygon points="167 17 159 13 159 21"></polygon></svg>