<svg height="57" width="267" xmlns="http://www.w3.org/2000/svg" xmlns:xlink="http://www.w3.org/1999/xlink"><style>svg {
  font-family: ui-monospace, SFMono-Regular, Menlo, Monaco, Consolas, "Liberation Mono", "Courier New", monospace;
}
text {
  fill: #2f3337;
  font-size: 14px;
}
rect {
  fill: #ffffff;
  stroke: #3a3d40;
  stroke-width: 2;
}
rect.terminal {
  fill: #ffffff;
}
rect.nonterminal {
  fill: #ffffff;
}
text.terminal {
  fill: #2f3337;
  font-weight: 600;
}
text.nonterminal {
  fill: #2563eb;
}
a text.nonterminal {
  text-decoration: underline;
}
path.line {
  fill: none;
  stroke: #3a3d40;
  stroke-width: 2;
}
polygon {
  fill: #2f3337;
  stroke: #2f3337;
}</style>
<polygon points="9 5 1 1 1 9"></polygon>
<polygon points="17 5 9 1 9 9"></polygon><a xlink:href="#create_routine_opt_list" xlink:title="create_routine_opt_list">
<rect height="32" width="168" x="51" y="23"></rect>
<rect class="nonterminal" height="32" width="168" x="49" y="21"></rect>
<text lengthAdjust="spacingAndGlyphs" textLength="144" font-size="10" class="nonterminal" x="61" y="41">create_routine_opt_list</text></a><path class="line" d="m17 5 h2 m20 0 h10 m0 0 h178 m-208 0 h20 m188 0 h20 m-228 0 q10 0 10 10 m208 0 q0 -10 10 -10 m-218 10 v12 m208 0 v-12 m-208 12 q0 10 10 10 m188 0 q10 0 10 -10 m-198 10 h10 m168 0 h10 m23 -32 h-3"></path>
<polygon points="257 5 265 1 265 9"></polygon>
<polygon points="257 5 249 1 249 9"></polygon></svg>