<svg height="135" width="533" xmlns="http://www.w3.org/2000/svg" xmlns:xlink="http://www.w3.org/1999/xlink"><style>svg {
  font-family: ui-monospace, SFMono-Regular, Menlo, Monaco, Consolas, "Liberation Mono", "Courier New", monospace;
}
text {
  fill: #2f3337;
  font-size: 14px;
}
rect {
  fill: #ffffff;
  stroke: #3a3d40;
  stroke-width: 2;
}
rect.terminal {
  fill: #ffffff;
}
rect.nonterminal {
  fill: #ffffff;
}
text.terminal {
  fill: #2f3337;
  font-weight: 600;
}
text.nonterminal {
  fill: #2563eb;
}
a text.nonterminal {
  text-decoration: underline;
}
path.line {
  fill: none;
  stroke: #3a3d40;
  stroke-width: 2;
}
polygon {
  fill: #2f3337;
  stroke: #2f3337;
}</style>
<polygon points="9 17 1 13 1 21"></polygon>
<polygon points="17 17 9 13 9 21"></polygon>
<rect height="32" rx="10" width="62" x="31" y="3"></rect>
<rect class="terminal" height="32" rx="10" width="62" x="29" y="1"></rect>
<text class="terminal" x="39" y="21">ALTER</text>
<rect height="32" rx="10" width="92" x="113" y="3"></rect>
<rect class="terminal" height="32" rx="10" width="92" x="111" y="1"></rect>
<text class="terminal" x="121" y="21">DATABASE</text><a xlink:href="#database_name" xlink:title="database_name">
<rect height="32" width="124" x="225" y="3"></rect>
<rect class="nonterminal" height="32" width="124" x="223" y="1"></rect>
<text lengthAdjust="spacingAndGlyphs" textLength="100" font-size="12" class="nonterminal" x="235" y="21">database_name</text></a><rect height="32" rx="10" width="48" x="369" y="3"></rect>
<rect class="terminal" height="32" rx="10" width="48" x="367" y="1"></rect>
<text class="terminal" x="377" y="21">ADD</text>
<rect height="32" rx="10" width="74" x="437" y="3"></rect>
<rect class="terminal" height="32" rx="10" width="74" x="435" y="1"></rect>
<text class="terminal" x="445" y="21">REGION</text>
<rect height="32" rx="10" width="34" x="169" y="101"></rect>
<rect class="terminal" height="32" rx="10" width="34" x="167" y="99"></rect>
<text class="terminal" x="177" y="119">IF</text>
<rect height="32" rx="10" width="48" x="223" y="101"></rect>
<rect class="terminal" height="32" rx="10" width="48" x="221" y="99"></rect>
<text class="terminal" x="231" y="119">NOT</text>
<rect height="32" rx="10" width="70" x="291" y="101"></rect>
<rect class="terminal" height="32" rx="10" width="70" x="289" y="99"></rect>
<text class="terminal" x="299" y="119">EXISTS</text><a xlink:href="#region_name" xlink:title="region_name">
<rect height="32" width="104" x="401" y="69"></rect>
<rect class="nonterminal" height="32" width="104" x="399" y="67"></rect>
<text lengthAdjust="spacingAndGlyphs" textLength="80" font-size="11" class="nonterminal" x="411" y="87">region_name</text></a><path class="line" d="m17 17 h2 m0 0 h10 m62 0 h10 m0 0 h10 m92 0 h10 m0 0 h10 m124 0 h10 m0 0 h10 m48 0 h10 m0 0 h10 m74 0 h10 m2 0 l2 0 m2 0 l2 0 m2 0 l2 0 m-406 66 l2 0 m2 0 l2 0 m2 0 l2 0 m22 0 h10 m0 0 h202 m-232 0 h20 m212 0 h20 m-252 0 q10 0 10 10 m232 0 q0 -10 10 -10 m-242 10 v12 m232 0 v-12 m-232 12 q0 10 10 10 m212 0 q10 0 10 -10 m-222 10 h10 m34 0 h10 m0 0 h10 m48 0 h10 m0 0 h10 m70 0 h10 m20 -32 h10 m104 0 h10 m3 0 h-3"></path>
<polygon points="523 83 531 79 531 87"></polygon>
<polygon points="523 83 515 79 515 87"></polygon></svg>