<svg height="101" width="377" xmlns="http://www.w3.org/2000/svg" xmlns:xlink="http://www.w3.org/1999/xlink"><style>svg {
  font-family: ui-monospace, SFMono-Regular, Menlo, Monaco, Consolas, "Liberation Mono", "Courier New", monospace;
}
text {
  fill: #2f3337;
  font-size: 14px;
}
rect {
  fill: #ffffff;
  stroke: #3a3d40;
  stroke-width: 2;
}
rect.terminal {
  fill: #ffffff;
}
rect.nonterminal {
  fill: #ffffff;
}
text.terminal {
  fill: #2f3337;
  font-weight: 600;
}
text.nonterminal {
  fill: #2563eb;
}
a text.nonterminal {
  text-decoration: underline;
}
path.line {
  fill: none;
  stroke: #3a3d40;
  stroke-width: 2;
}
polygon {
  fill: #2f3337;
  stroke: #2f3337;
}</style>
<polygon points="9 17 1 13 1 21"></polygon>
<polygon points="17 17 9 13 9 21"></polygon><a xlink:href="#a_expr" xlink:title="a_expr">
<rect height="32" width="64" x="71" y="67"></rect>
<rect class="nonterminal" height="32" width="64" x="69" y="65"></rect>
<text lengthAdjust="spacingAndGlyphs" textLength="40" font-size="10" class="nonterminal" x="81" y="85">a_expr</text></a><rect height="32" rx="10" width="60" x="175" y="35"></rect>
<rect class="terminal" height="32" rx="10" width="60" x="173" y="33"></rect>
<text class="terminal" x="183" y="53">FROM</text><a xlink:href="#expr_list" xlink:title="expr_list">
<rect height="32" width="74" x="275" y="3"></rect>
<rect class="nonterminal" height="32" width="74" x="273" y="1"></rect>
<text lengthAdjust="spacingAndGlyphs" textLength="50" font-size="10" class="nonterminal" x="285" y="21">expr_list</text></a><path class="line" d="m17 17 h2 m20 0 h10 m0 0 h194 m-224 0 h20 m204 0 h20 m-244 0 q10 0 10 10 m224 0 q0 -10 10 -10 m-234 10 v12 m224 0 v-12 m-224 12 q0 10 10 10 m204 0 q10 0 10 -10 m-194 10 h10 m0 0 h74 m-104 0 h20 m84 0 h20 m-124 0 q10 0 10 10 m104 0 q0 -10 10 -10 m-114 10 v12 m104 0 v-12 m-104 12 q0 10 10 10 m84 0 q10 0 10 -10 m-94 10 h10 m64 0 h10 m20 -32 h10 m60 0 h10 m20 -32 h10 m74 0 h10 m3 0 h-3"></path>
<polygon points="367 17 375 13 375 21"></polygon>
<polygon points="367 17 359 13 359 21"></polygon></svg>