<svg height="147" width="459" xmlns="http://www.w3.org/2000/svg" xmlns:xlink="http://www.w3.org/1999/xlink"><style>svg {
  font-family: ui-monospace, SFMono-Regular, Menlo, Monaco, Consolas, "Liberation Mono", "Courier New", monospace;
}
text {
  fill: #2f3337;
  font-size: 14px;
}
rect {
  fill: #ffffff;
  stroke: #3a3d40;
  stroke-width: 2;
}
rect.terminal {
  fill: #ffffff;
}
rect.nonterminal {
  fill: #ffffff;
}
text.terminal {
  fill: #2f3337;
  font-weight: 600;
}
text.nonterminal {
  fill: #2563eb;
}
a text.nonterminal {
  text-decoration: underline;
}
path.line {
  fill: none;
  stroke: #3a3d40;
  stroke-width: 2;
}
polygon {
  fill: #2f3337;
  stroke: #2f3337;
}</style>
<polygon points="9 17 1 13 1 21"></polygon>
<polygon points="17 17 9 13 9 21"></polygon>
<rect height="32" rx="10" width="62" x="31" y="3"></rect>
<rect class="terminal" height="32" rx="10" width="62" x="29" y="1"></rect>
<text class="terminal" x="39" y="21">ALTER</text>
<rect height="32" rx="10" width="72" x="113" y="3"></rect>
<rect class="terminal" height="32" rx="10" width="72" x="111" y="1"></rect>
<text class="terminal" x="121" y="21">POLICY</text><a xlink:href="#name" xlink:title="name">
<rect height="32" width="56" x="205" y="3"></rect>
<rect class="nonterminal" height="32" width="56" x="203" y="1"></rect>
<text lengthAdjust="spacingAndGlyphs" textLength="32" font-size="12" class="nonterminal" x="215" y="21">name</text></a><rect height="32" rx="10" width="40" x="281" y="3"></rect>
<rect class="terminal" height="32" rx="10" width="40" x="279" y="1"></rect>
<text class="terminal" x="289" y="21">ON</text><a xlink:href="#table_name" xlink:title="table_name">
<rect height="32" width="96" x="341" y="3"></rect>
<rect class="nonterminal" height="32" width="96" x="339" y="1"></rect>
<text lengthAdjust="spacingAndGlyphs" textLength="72" font-size="11" class="nonterminal" x="351" y="21">table_name</text></a><rect height="32" rx="10" width="76" x="139" y="69"></rect>
<rect class="terminal" height="32" rx="10" width="76" x="137" y="67"></rect>
<text class="terminal" x="147" y="87">RENAME</text>
<rect height="32" rx="10" width="38" x="235" y="69"></rect>
<rect class="terminal" height="32" rx="10" width="38" x="233" y="67"></rect>
<text class="terminal" x="243" y="87">TO</text><a xlink:href="#name" xlink:title="name">
<rect height="32" width="56" x="293" y="69"></rect>
<rect class="nonterminal" height="32" width="56" x="291" y="67"></rect>
<text lengthAdjust="spacingAndGlyphs" textLength="32" font-size="12" class="nonterminal" x="303" y="87">name</text></a><a xlink:href="#opt_policy_roles" xlink:title="opt_policy_roles">
<rect height="32" width="124" x="139" y="113"></rect>
<rect class="nonterminal" height="32" width="124" x="137" y="111"></rect>
<text lengthAdjust="spacingAndGlyphs" textLength="100" font-size="10" class="nonterminal" x="149" y="131">opt_policy_roles</text></a><a xlink:href="#opt_policy_exprs" xlink:title="opt_policy_exprs">
<rect height="32" width="128" x="283" y="113"></rect>
<rect class="nonterminal" height="32" width="128" x="281" y="111"></rect>
<text lengthAdjust="spacingAndGlyphs" textLength="104" font-size="10" class="nonterminal" x="293" y="131">opt_policy_exprs</text></a><path class="line" d="m17 17 h2 m0 0 h10 m62 0 h10 m0 0 h10 m72 0 h10 m0 0 h10 m56 0 h10 m0 0 h10 m40 0 h10 m0 0 h10 m96 0 h10 m2 0 l2 0 m2 0 l2 0 m2 0 l2 0 m-362 66 l2 0 m2 0 l2 0 m2 0 l2 0 m22 0 h10 m76 0 h10 m0 0 h10 m38 0 h10 m0 0 h10 m56 0 h10 m0 0 h62 m-312 0 h20 m292 0 h20 m-332 0 q10 0 10 10 m312 0 q0 -10 10 -10 m-322 10 v24 m312 0 v-24 m-312 24 q0 10 10 10 m292 0 q10 0 10 -10 m-302 10 h10 m124 0 h10 m0 0 h10 m128 0 h10 m23 -44 h-3"></path>
<polygon points="449 83 457 79 457 87"></polygon>
<polygon points="449 83 441 79 441 87"></polygon></svg>