<svg height="465" width="639" xmlns="http://www.w3.org/2000/svg" xmlns:xlink="http://www.w3.org/1999/xlink"><style>svg {
  font-family: ui-monospace, SFMono-Regular, Menlo, Monaco, Consolas, "Liberation Mono", "Courier New", monospace;
}
text {
  fill: #2f3337;
  font-size: 14px;
}
rect {
  fill: #ffffff;
  stroke: #3a3d40;
  stroke-width: 2;
}
rect.terminal {
  fill: #ffffff;
}
rect.nonterminal {
  fill: #ffffff;
}
text.terminal {
  fill: #2f3337;
  font-weight: 600;
}
text.nonterminal {
  fill: #2563eb;
}
a text.nonterminal {
  text-decoration: underline;
}
path.line {
  fill: none;
  stroke: #3a3d40;
  stroke-width: 2;
}
polygon {
  fill: #2f3337;
  stroke: #2f3337;
}</style>
<polygon points="9 17 1 13 1 21"></polygon>
<polygon points="17 17 9 13 9 21"></polygon>
<rect height="32" rx="10" width="210" x="71" y="3"></rect>
<rect class="terminal" height="32" rx="10" width="210" x="69" y="1"></rect>
<text class="terminal" x="79" y="21">ENCRYPTION_PASSPHRASE</text>
<rect height="32" rx="10" width="100" x="71" y="47"></rect>
<rect class="terminal" height="32" rx="10" width="100" x="69" y="45"></rect>
<text class="terminal" x="79" y="65">EXECUTION</text>
<rect height="32" rx="10" width="88" x="191" y="47"></rect>
<rect class="terminal" height="32" rx="10" width="88" x="189" y="45"></rect>
<text class="terminal" x="199" y="65">LOCALITY</text>
<rect height="32" rx="10" width="30" x="321" y="3"></rect>
<rect class="terminal" height="32" rx="10" width="30" x="319" y="1"></rect>
<text class="terminal" x="329" y="21">=</text><a xlink:href="#string_or_placeholder" xlink:title="string_or_placeholder">
<rect height="32" width="158" x="371" y="3"></rect>
<rect class="nonterminal" height="32" width="158" x="369" y="1"></rect>
<text lengthAdjust="spacingAndGlyphs" textLength="134" font-size="10" class="nonterminal" x="381" y="21">string_or_placeholder</text></a><rect height="32" rx="10" width="162" x="71" y="91"></rect>
<rect class="terminal" height="32" rx="10" width="162" x="69" y="89"></rect>
<text class="terminal" x="79" y="109">REVISION_HISTORY</text>
<rect height="32" rx="10" width="326" x="71" y="135"></rect>
<rect class="terminal" height="32" rx="10" width="326" x="69" y="133"></rect>
<text class="terminal" x="79" y="153">UPDATES_CLUSTER_MONITORING_METRICS</text>
<rect height="32" rx="10" width="30" x="457" y="123"></rect>
<rect class="terminal" height="32" rx="10" width="30" x="455" y="121"></rect>
<text class="terminal" x="465" y="141">=</text><a xlink:href="#a_expr" xlink:title="a_expr">
<rect height="32" width="64" x="507" y="123"></rect>
<rect class="nonterminal" height="32" width="64" x="505" y="121"></rect>
<text lengthAdjust="spacingAndGlyphs" textLength="40" font-size="10" class="nonterminal" x="517" y="141">a_expr</text></a><rect height="32" rx="10" width="92" x="51" y="179"></rect>
<rect class="terminal" height="32" rx="10" width="92" x="49" y="177"></rect>
<text class="terminal" x="59" y="197">DETACHED</text>
<rect height="32" rx="10" width="30" x="183" y="211"></rect>
<rect class="terminal" height="32" rx="10" width="30" x="181" y="209"></rect>
<text class="terminal" x="191" y="229">=</text>
<rect height="32" rx="10" width="56" x="253" y="211"></rect>
<rect class="terminal" height="32" rx="10" width="56" x="251" y="209"></rect>
<text class="terminal" x="261" y="229">TRUE</text>
<rect height="32" rx="10" width="62" x="253" y="255"></rect>
<rect class="terminal" height="32" rx="10" width="62" x="251" y="253"></rect>
<text class="terminal" x="261" y="273">FALSE</text>
<rect height="32" rx="10" width="50" x="71" y="299"></rect>
<rect class="terminal" height="32" rx="10" width="50" x="69" y="297"></rect>
<text class="terminal" x="79" y="317">KMS</text>
<rect height="32" rx="10" width="200" x="71" y="343"></rect>
<rect class="terminal" height="32" rx="10" width="200" x="69" y="341"></rect>
<text class="terminal" x="79" y="361">INCREMENTAL_LOCATION</text>
<rect height="32" rx="10" width="30" x="311" y="299"></rect>
<rect class="terminal" height="32" rx="10" width="30" x="309" y="297"></rect>
<text class="terminal" x="319" y="317">=</text><a xlink:href="#string_or_placeholder_opt_list" xlink:title="string_or_placeholder_opt_list">
<rect height="32" width="214" x="361" y="299"></rect>
<rect class="nonterminal" height="32" width="214" x="359" y="297"></rect>
<text lengthAdjust="spacingAndGlyphs" textLength="190" font-size="10" class="nonterminal" x="371" y="317">string_or_placeholder_opt_list</text></a><rect height="32" rx="10" width="264" x="51" y="387"></rect>
<rect class="terminal" height="32" rx="10" width="264" x="49" y="385"></rect>
<text class="terminal" x="59" y="405">INCLUDE_ALL_VIRTUAL_CLUSTERS</text>
<rect height="32" rx="10" width="30" x="335" y="387"></rect>
<rect class="terminal" height="32" rx="10" width="30" x="333" y="385"></rect>
<text class="terminal" x="343" y="405">=</text><a xlink:href="#a_expr" xlink:title="a_expr">
<rect height="32" width="64" x="385" y="387"></rect>
<rect class="nonterminal" height="32" width="64" x="383" y="385"></rect>
<text lengthAdjust="spacingAndGlyphs" textLength="40" font-size="10" class="nonterminal" x="395" y="405">a_expr</text></a><rect height="32" rx="10" width="70" x="51" y="431"></rect>
<rect class="terminal" height="32" rx="10" width="70" x="49" y="429"></rect>
<text class="terminal" x="59" y="449">STRICT</text>
<rect height="32" rx="10" width="84" x="141" y="431"></rect>
<rect class="terminal" height="32" rx="10" width="84" x="139" y="429"></rect>
<text class="terminal" x="149" y="449">STORAGE</text>
<rect height="32" rx="10" width="88" x="245" y="431"></rect>
<rect class="terminal" height="32" rx="10" width="88" x="243" y="429"></rect>
<text class="terminal" x="253" y="449">LOCALITY</text>
<path class="line" d="m17 17 h2 m40 0 h10 m210 0 h10 m-250 0 h20 m230 0 h20 m-270 0 q10 0 10 10 m250 0 q0 -10 10 -10 m-260 10 v24 m250 0 v-24 m-250 24 q0 10 10 10 m230 0 q10 0 10 -10 m-240 10 h10 m100 0 h10 m0 0 h10 m88 0 h10 m0 0 h2 m20 -44 h10 m30 0 h10 m0 0 h10 m158 0 h10 m0 0 h62 m-580 0 h20 m560 0 h20 m-600 0 q10 0 10 10 m580 0 q0 -10 10 -10 m-590 10 v68 m580 0 v-68 m-580 68 q0 10 10 10 m560 0 q10 0 10 -10 m-550 10 h10 m162 0 h10 m0 0 h164 m-366 0 h20 m346 0 h20 m-386 0 q10 0 10 10 m366 0 q0 -10 10 -10 m-376 10 v24 m366 0 v-24 m-366 24 q0 10 10 10 m346 0 q10 0 10 -10 m-356 10 h10 m326 0 h10 m40 -44 h10 m0 0 h124 m-154 0 h20 m134 0 h20 m-174 0 q10 0 10 10 m154 0 q0 -10 10 -10 m-164 10 v12 m154 0 v-12 m-154 12 q0 10 10 10 m134 0 q10 0 10 -10 m-144 10 h10 m30 0 h10 m0 0 h10 m64 0 h10 m-550 -42 v20 m580 0 v-20 m-580 20 v68 m580 0 v-68 m-580 68 q0 10 10 10 m560 0 q10 0 10 -10 m-570 10 h10 m92 0 h10 m20 0 h10 m0 0 h162 m-192 0 h20 m172 0 h20 m-212 0 q10 0 10 10 m192 0 q0 -10 10 -10 m-202 10 v12 m192 0 v-12 m-192 12 q0 10 10 10 m172 0 q10 0 10 -10 m-182 10 h10 m30 0 h10 m20 0 h10 m56 0 h10 m0 0 h6 m-102 0 h20 m82 0 h20 m-122 0 q10 0 10 10 m102 0 q0 -10 10 -10 m-112 10 v24 m102 0 v-24 m-102 24 q0 10 10 10 m82 0 q10 0 10 -10 m-92 10 h10 m62 0 h10 m40 -76 h236 m-570 -10 v20 m580 0 v-20 m-580 20 v100 m580 0 v-100 m-580 100 q0 10 10 10 m560 0 q10 0 10 -10 m-550 10 h10 m50 0 h10 m0 0 h150 m-240 0 h20 m220 0 h20 m-260 0 q10 0 10 10 m240 0 q0 -10 10 -10 m-250 10 v24 m240 0 v-24 m-240 24 q0 10 10 10 m220 0 q10 0 10 -10 m-230 10 h10 m200 0 h10 m20 -44 h10 m30 0 h10 m0 0 h10 m214 0 h10 m0 0 h16 m-570 -10 v20 m580 0 v-20 m-580 20 v68 m580 0 v-68 m-580 68 q0 10 10 10 m560 0 q10 0 10 -10 m-570 10 h10 m264 0 h10 m0 0 h10 m30 0 h10 m0 0 h10 m64 0 h10 m0 0 h142 m-570 -10 v20 m580 0 v-20 m-580 20 v24 m580 0 v-24 m-580 24 q0 10 10 10 m560 0 q10 0 10 -10 m-570 10 h10 m70 0 h10 m0 0 h10 m84 0 h10 m0 0 h10 m88 0 h10 m0 0 h258 m23 -428 h-3"></path>
<polygon points="629 17 637 13 637 21"></polygon>
<polygon points="629 17 621 13 621 21"></polygon></svg>