<svg height="101" width="309" xmlns="http://www.w3.org/2000/svg"><style>svg {
  font-family: ui-monospace, SFMono-Regular, Menlo, Monaco, Consolas, "Liberation Mono", "Courier New", monospace;
}
text {
  fill: #2f3337;
  font-size: 14px;
}
rect {
  fill: #ffffff;
  stroke: #3a3d40;
  stroke-width: 2;
}
rect.terminal {
  fill: #ffffff;
}
rect.nonterminal {
  fill: #ffffff;
}
text.terminal {
  fill: #2f3337;
  font-weight: 600;
}
text.nonterminal {
  fill: #2563eb;
}
a text.nonterminal {
  text-decoration: underline;
}
path.line {
  fill: none;
  stroke: #3a3d40;
  stroke-width: 2;
}
polygon {
  fill: #2f3337;
  stroke: #2f3337;
}</style>
<polygon points="9 5 1 1 1 9"></polygon>
<polygon points="17 5 9 1 9 9"></polygon>
<rect height="32" rx="10" width="38" x="51" y="23"></rect>
<rect class="terminal" height="32" rx="10" width="38" x="49" y="21"></rect>
<text class="terminal" x="59" y="41">AS</text>
<rect height="32" rx="10" width="106" x="129" y="23"></rect>
<rect class="terminal" height="32" rx="10" width="106" x="127" y="21"></rect>
<text class="terminal" x="137" y="41">PERMISSIVE</text>
<rect height="32" rx="10" width="112" x="129" y="67"></rect>
<rect class="terminal" height="32" rx="10" width="112" x="127" y="65"></rect>
<text class="terminal" x="137" y="85">RESTRICTIVE</text>
<path class="line" d="m17 5 h2 m20 0 h10 m0 0 h220 m-250 0 h20 m230 0 h20 m-270 0 q10 0 10 10 m250 0 q0 -10 10 -10 m-260 10 v12 m250 0 v-12 m-250 12 q0 10 10 10 m230 0 q10 0 10 -10 m-240 10 h10 m38 0 h10 m20 0 h10 m106 0 h10 m0 0 h6 m-152 0 h20 m132 0 h20 m-172 0 q10 0 10 10 m152 0 q0 -10 10 -10 m-162 10 v24 m152 0 v-24 m-152 24 q0 10 10 10 m132 0 q10 0 10 -10 m-142 10 h10 m112 0 h10 m43 -76 h-3"></path>
<polygon points="299 5 307 1 307 9"></polygon>
<polygon points="299 5 291 1 291 9"></polygon></svg>