<svg height="57" width="391" xmlns="http://www.w3.org/2000/svg" xmlns:xlink="http://www.w3.org/1999/xlink"><style>svg {
  font-family: ui-monospace, SFMono-Regular, Menlo, Monaco, Consolas, "Liberation Mono", "Courier New", monospace;
}
text {
  fill: #2f3337;
  font-size: 14px;
}
rect {
  fill: #ffffff;
  stroke: #3a3d40;
  stroke-width: 2;
}
rect.terminal {
  fill: #ffffff;
}
rect.nonterminal {
  fill: #ffffff;
}
text.terminal {
  fill: #2f3337;
  font-weight: 600;
}
text.nonterminal {
  fill: #2563eb;
}
a text.nonterminal {
  text-decoration: underline;
}
path.line {
  fill: none;
  stroke: #3a3d40;
  stroke-width: 2;
}
polygon {
  fill: #2f3337;
  stroke: #2f3337;
}</style>
<polygon points="9 5 1 1 1 9"></polygon>
<polygon points="17 5 9 1 9 9"></polygon>
<rect height="32" rx="10" width="36" x="51" y="23"></rect>
<rect class="terminal" height="32" rx="10" width="36" x="49" y="21"></rect>
<text class="terminal" x="59" y="41">IN</text>
<rect height="32" rx="10" width="92" x="107" y="23"></rect>
<rect class="terminal" height="32" rx="10" width="92" x="105" y="21"></rect>
<text class="terminal" x="115" y="41">DATABASE</text><a xlink:href="#database_name" xlink:title="database_name">
<rect height="32" width="124" x="219" y="23"></rect>
<rect class="nonterminal" height="32" width="124" x="217" y="21"></rect>
<text lengthAdjust="spacingAndGlyphs" textLength="100" font-size="12" class="nonterminal" x="229" y="41">database_name</text></a><path class="line" d="m17 5 h2 m20 0 h10 m0 0 h302 m-332 0 h20 m312 0 h20 m-352 0 q10 0 10 10 m332 0 q0 -10 10 -10 m-342 10 v12 m332 0 v-12 m-332 12 q0 10 10 10 m312 0 q10 0 10 -10 m-322 10 h10 m36 0 h10 m0 0 h10 m92 0 h10 m0 0 h10 m124 0 h10 m23 -32 h-3"></path>
<polygon points="381 5 389 1 389 9"></polygon>
<polygon points="381 5 373 1 373 9"></polygon></svg>