<svg height="37" width="713" xmlns="http://www.w3.org/2000/svg" xmlns:xlink="http://www.w3.org/1999/xlink"><style>svg {
  font-family: ui-monospace, SFMono-Regular, Menlo, Monaco, Consolas, "Liberation Mono", "Courier New", monospace;
}
text {
  fill: #2f3337;
  font-size: 14px;
}
rect {
  fill: #ffffff;
  stroke: #3a3d40;
  stroke-width: 2;
}
rect.terminal {
  fill: #ffffff;
}
rect.nonterminal {
  fill: #ffffff;
}
text.terminal {
  fill: #2f3337;
  font-weight: 600;
}
text.nonterminal {
  fill: #2563eb;
}
a text.nonterminal {
  text-decoration: underline;
}
path.line {
  fill: none;
  stroke: #3a3d40;
  stroke-width: 2;
}
polygon {
  fill: #2f3337;
  stroke: #2f3337;
}</style>
<polygon points="9 17 1 13 1 21"></polygon>
<polygon points="17 17 9 13 9 21"></polygon>
<rect height="32" rx="10" width="64" x="31" y="3"></rect>
<rect class="terminal" height="32" rx="10" width="64" x="29" y="1"></rect>
<text class="terminal" x="39" y="21">SHOW</text>
<rect height="32" rx="10" width="102" x="115" y="3"></rect>
<rect class="terminal" height="32" rx="10" width="102" x="113" y="1"></rect>
<text class="terminal" x="123" y="21">STATISTICS</text>
<rect height="32" rx="10" width="100" x="237" y="3"></rect>
<rect class="terminal" height="32" rx="10" width="100" x="235" y="1"></rect>
<text class="terminal" x="245" y="21">FOR_TABLE</text>
<rect height="32" rx="10" width="62" x="357" y="3"></rect>
<rect class="terminal" height="32" rx="10" width="62" x="355" y="1"></rect>
<text class="terminal" x="365" y="21">TABLE</text><a xlink:href="/docs/stable/sql-grammar#table_name" xlink:title="table_name">
<rect height="32" width="96" x="439" y="3"></rect>
<rect class="nonterminal" height="32" width="96" x="437" y="1"></rect>
<text lengthAdjust="spacingAndGlyphs" textLength="72" font-size="11" class="nonterminal" x="449" y="21">table_name</text></a><a xlink:href="/docs/stable/sql-grammar#opt_with_options" xlink:title="opt_with_options">
<rect height="32" width="130" x="555" y="3"></rect>
<rect class="nonterminal" height="32" width="130" x="553" y="1"></rect>
<text lengthAdjust="spacingAndGlyphs" textLength="106" font-size="10" class="nonterminal" x="565" y="21">opt_with_options</text></a><path class="line" d="m17 17 h2 m0 0 h10 m64 0 h10 m0 0 h10 m102 0 h10 m0 0 h10 m100 0 h10 m0 0 h10 m62 0 h10 m0 0 h10 m96 0 h10 m0 0 h10 m130 0 h10 m3 0 h-3"></path>
<polygon points="703 17 711 13 711 21"></polygon>
<polygon points="703 17 695 13 695 21"></polygon></svg>