<svg height="69" width="621" xmlns="http://www.w3.org/2000/svg"><style>svg {
  font-family: ui-monospace, SFMono-Regular, Menlo, Monaco, Consolas, "Liberation Mono", "Courier New", monospace;
}
text {
  fill: #2f3337;
  font-size: 14px;
}
rect {
  fill: #ffffff;
  stroke: #3a3d40;
  stroke-width: 2;
}
rect.terminal {
  fill: #ffffff;
}
rect.nonterminal {
  fill: #ffffff;
}
text.terminal {
  fill: #2f3337;
  font-weight: 600;
}
text.nonterminal {
  fill: #2563eb;
}
a text.nonterminal {
  text-decoration: underline;
}
path.line {
  fill: none;
  stroke: #3a3d40;
  stroke-width: 2;
}
polygon {
  fill: #2f3337;
  stroke: #2f3337;
}</style>
<polygon points="9 17 1 13 1 21"></polygon>
<polygon points="17 17 9 13 9 21"></polygon>
<rect height="32" rx="10" width="64" x="31" y="3"></rect>
<rect class="terminal" height="32" rx="10" width="64" x="29" y="1"></rect>
<text class="terminal" x="39" y="21">SHOW</text>
<rect height="32" rx="10" width="86" x="135" y="35"></rect>
<rect class="terminal" height="32" rx="10" width="86" x="133" y="33"></rect>
<text class="terminal" x="143" y="53">COMPACT</text>
<rect height="32" rx="10" width="38" x="281" y="35"></rect>
<rect class="terminal" height="32" rx="10" width="38" x="279" y="33"></rect>
<text class="terminal" x="289" y="53">KV</text>
<rect height="32" rx="10" width="64" x="359" y="3"></rect>
<rect class="terminal" height="32" rx="10" width="64" x="357" y="1"></rect>
<text class="terminal" x="367" y="21">TRACE</text>
<rect height="32" rx="10" width="48" x="443" y="3"></rect>
<rect class="terminal" height="32" rx="10" width="48" x="441" y="1"></rect>
<text class="terminal" x="451" y="21">FOR</text>
<rect height="32" rx="10" width="82" x="511" y="3"></rect>
<rect class="terminal" height="32" rx="10" width="82" x="509" y="1"></rect>
<text class="terminal" x="519" y="21">SESSION</text>
<path class="line" d="m17 17 h2 m0 0 h10 m64 0 h10 m20 0 h10 m0 0 h96 m-126 0 h20 m106 0 h20 m-146 0 q10 0 10 10 m126 0 q0 -10 10 -10 m-136 10 v12 m126 0 v-12 m-126 12 q0 10 10 10 m106 0 q10 0 10 -10 m-116 10 h10 m86 0 h10 m40 -32 h10 m0 0 h48 m-78 0 h20 m58 0 h20 m-98 0 q10 0 10 10 m78 0 q0 -10 10 -10 m-88 10 v12 m78 0 v-12 m-78 12 q0 10 10 10 m58 0 q10 0 10 -10 m-68 10 h10 m38 0 h10 m20 -32 h10 m64 0 h10 m0 0 h10 m48 0 h10 m0 0 h10 m82 0 h10 m3 0 h-3"></path>
<polygon points="611 17 619 13 619 21"></polygon>
<polygon points="611 17 603 13 603 21"></polygon></svg>