<svg height="301" width="875" xmlns="http://www.w3.org/2000/svg"><style>svg {
  font-family: ui-monospace, SFMono-Regular, Menlo, Monaco, Consolas, "Liberation Mono", "Courier New", monospace;
}
text {
  fill: #2f3337;
  font-size: 14px;
}
rect {
  fill: #ffffff;
  stroke: #3a3d40;
  stroke-width: 2;
}
rect.terminal {
  fill: #ffffff;
}
rect.nonterminal {
  fill: #ffffff;
}
text.terminal {
  fill: #2f3337;
  font-weight: 600;
}
text.nonterminal {
  fill: #2563eb;
}
a text.nonterminal {
  text-decoration: underline;
}
path.line {
  fill: none;
  stroke: #3a3d40;
  stroke-width: 2;
}
polygon {
  fill: #2f3337;
  stroke: #2f3337;
}</style>
<polygon points="11 17 3 13 3 21"></polygon>
<polygon points="19 17 11 13 11 21"></polygon>
<rect height="32" rx="10" width="72" x="33" y="3"></rect>
<rect class="terminal" height="32" rx="10" width="72" x="31" y="1"></rect>
<text class="terminal" x="41" y="21">CREATE</text>
<rect height="32" rx="10" width="82" x="125" y="3"></rect>
<rect class="terminal" height="32" rx="10" width="82" x="123" y="1"></rect>
<text class="terminal" x="133" y="21">LOGICAL</text>
<rect height="32" rx="10" width="114" x="227" y="3"></rect>
<rect class="terminal" height="32" rx="10" width="114" x="225" y="1"></rect>
<text class="terminal" x="235" y="21">REPLICATION</text>
<rect height="32" rx="10" width="76" x="361" y="3"></rect>
<rect class="terminal" height="32" rx="10" width="76" x="359" y="1"></rect>
<text class="terminal" x="369" y="21">STREAM</text>
<rect height="32" rx="10" width="60" x="457" y="3"></rect>
<rect class="terminal" height="32" rx="10" width="60" x="455" y="1"></rect>
<text class="terminal" x="465" y="21">FROM</text>
<rect height="32" rx="10" width="62" x="64" y="69"></rect>
<rect class="terminal" height="32" rx="10" width="62" x="62" y="67"></rect>
<text class="terminal" x="72" y="87">TABLE</text>
<rect height="32" width="126" x="146" y="69"></rect>
<rect class="nonterminal" height="32" width="126" x="144" y="67"></rect>
<text lengthAdjust="spacingAndGlyphs" textLength="102" font-size="11" class="nonterminal" x="156" y="87">db_object_name</text>
<rect height="32" rx="10" width="72" x="64" y="113"></rect>
<rect class="terminal" height="32" rx="10" width="72" x="62" y="111"></rect>
<text class="terminal" x="72" y="131">TABLES</text>
<rect height="32" rx="10" width="26" x="156" y="113"></rect>
<rect class="terminal" height="32" rx="10" width="26" x="154" y="111"></rect>
<text class="terminal" x="164" y="131">(</text>
<rect height="32" width="230" x="202" y="113"></rect>
<rect class="nonterminal" height="32" width="230" x="200" y="111"></rect>
<text lengthAdjust="spacingAndGlyphs" textLength="206" font-size="10" class="nonterminal" x="212" y="131">logical_replication_resources_list</text>
<rect height="32" rx="10" width="26" x="452" y="113"></rect>
<rect class="terminal" height="32" rx="10" width="26" x="450" y="111"></rect>
<text class="terminal" x="460" y="131">)</text>
<rect height="32" rx="10" width="40" x="518" y="69"></rect>
<rect class="terminal" height="32" rx="10" width="40" x="516" y="67"></rect>
<text class="terminal" x="526" y="87">ON</text>
<rect height="32" width="182" x="578" y="69"></rect>
<rect class="nonterminal" height="32" width="182" x="576" y="67"></rect>
<text lengthAdjust="spacingAndGlyphs" textLength="158" font-size="10" class="nonterminal" x="588" y="87">source_connection_string</text>
<rect height="32" rx="10" width="56" x="780" y="69"></rect>
<rect class="terminal" height="32" rx="10" width="56" x="778" y="67"></rect>
<text class="terminal" x="788" y="87">INTO</text>
<rect height="32" rx="10" width="62" x="45" y="223"></rect>
<rect class="terminal" height="32" rx="10" width="62" x="43" y="221"></rect>
<text class="terminal" x="53" y="241">TABLE</text>
<rect height="32" width="126" x="127" y="223"></rect>
<rect class="nonterminal" height="32" width="126" x="125" y="221"></rect>
<text lengthAdjust="spacingAndGlyphs" textLength="102" font-size="11" class="nonterminal" x="137" y="241">db_object_name</text>
<rect height="32" rx="10" width="72" x="45" y="267"></rect>
<rect class="terminal" height="32" rx="10" width="72" x="43" y="265"></rect>
<text class="terminal" x="53" y="285">TABLES</text>
<rect height="32" rx="10" width="26" x="137" y="267"></rect>
<rect class="terminal" height="32" rx="10" width="26" x="135" y="265"></rect>
<text class="terminal" x="145" y="285">(</text>
<rect height="32" width="230" x="183" y="267"></rect>
<rect class="nonterminal" height="32" width="230" x="181" y="265"></rect>
<text lengthAdjust="spacingAndGlyphs" textLength="206" font-size="10" class="nonterminal" x="193" y="285">logical_replication_resources_list</text>
<rect height="32" rx="10" width="26" x="433" y="267"></rect>
<rect class="terminal" height="32" rx="10" width="26" x="431" y="265"></rect>
<text class="terminal" x="441" y="285">)</text>
<rect height="32" rx="10" width="58" x="519" y="223"></rect>
<rect class="terminal" height="32" rx="10" width="58" x="517" y="221"></rect>
<text class="terminal" x="527" y="241">WITH</text>
<rect height="32" width="190" x="617" y="223"></rect>
<rect class="nonterminal" height="32" width="190" x="615" y="221"></rect>
<text lengthAdjust="spacingAndGlyphs" textLength="166" font-size="10" class="nonterminal" x="627" y="241">logical_replication_options</text>
<rect height="32" rx="10" width="24" x="617" y="179"></rect>
<rect class="terminal" height="32" rx="10" width="24" x="615" y="177"></rect>
<text class="terminal" x="625" y="197">,</text>
<path class="line" d="m19 17 h2 m0 0 h10 m72 0 h10 m0 0 h10 m82 0 h10 m0 0 h10 m114 0 h10 m0 0 h10 m76 0 h10 m0 0 h10 m60 0 h10 m2 0 l2 0 m2 0 l2 0 m2 0 l2 0 m-517 66 l2 0 m2 0 l2 0 m2 0 l2 0 m22 0 h10 m62 0 h10 m0 0 h10 m126 0 h10 m0 0 h206 m-454 0 h20 m434 0 h20 m-474 0 q10 0 10 10 m454 0 q0 -10 10 -10 m-464 10 v24 m454 0 v-24 m-454 24 q0 10 10 10 m434 0 q10 0 10 -10 m-444 10 h10 m72 0 h10 m0 0 h10 m26 0 h10 m0 0 h10 m230 0 h10 m0 0 h10 m26 0 h10 m20 -44 h10 m40 0 h10 m0 0 h10 m182 0 h10 m0 0 h10 m56 0 h10 m2 0 l2 0 m2 0 l2 0 m2 0 l2 0 m-855 154 l2 0 m2 0 l2 0 m2 0 l2 0 m22 0 h10 m62 0 h10 m0 0 h10 m126 0 h10 m0 0 h206 m-454 0 h20 m434 0 h20 m-474 0 q10 0 10 10 m454 0 q0 -10 10 -10 m-464 10 v24 m454 0 v-24 m-454 24 q0 10 10 10 m434 0 q10 0 10 -10 m-444 10 h10 m72 0 h10 m0 0 h10 m26 0 h10 m0 0 h10 m230 0 h10 m0 0 h10 m26 0 h10 m40 -44 h10 m58 0 h10 m20 0 h10 m190 0 h10 m-230 0 l20 0 m-1 0 q-9 0 -9 -10 l0 -24 q0 -10 10 -10 m210 44 l20 0 m-20 0 q10 0 10 -10 l0 -24 q0 -10 -10 -10 m-210 0 h10 m24 0 h10 m0 0 h166 m-328 44 h20 m328 0 h20 m-368 0 q10 0 10 10 m348 0 q0 -10 10 -10 m-358 10 v14 m348 0 v-14 m-348 14 q0 10 10 10 m328 0 q10 0 10 -10 m-338 10 h10 m0 0 h318 m23 -34 h-3"></path>
<polygon points="865 237 873 233 873 241"></polygon>
<polygon points="865 237 857 233 857 241"></polygon>
</svg>