<svg height="157" width="405" xmlns="http://www.w3.org/2000/svg" xmlns:xlink="http://www.w3.org/1999/xlink"><style>svg {
  font-family: ui-monospace, SFMono-Regular, Menlo, Monaco, Consolas, "Liberation Mono", "Courier New", monospace;
}
text {
  fill: #2f3337;
  font-size: 14px;
}
rect {
  fill: #ffffff;
  stroke: #3a3d40;
  stroke-width: 2;
}
rect.terminal {
  fill: #ffffff;
}
rect.nonterminal {
  fill: #ffffff;
}
text.terminal {
  fill: #2f3337;
  font-weight: 600;
}
text.nonterminal {
  fill: #2563eb;
}
a text.nonterminal {
  text-decoration: underline;
}
path.line {
  fill: none;
  stroke: #3a3d40;
  stroke-width: 2;
}
polygon {
  fill: #2f3337;
  stroke: #2f3337;
}</style>
<polygon points="9 17 1 13 1 21"></polygon>
<polygon points="17 17 9 13 9 21"></polygon><a xlink:href="#table_name" xlink:title="table_name">
<rect height="32" width="96" x="51" y="3"></rect>
<rect class="nonterminal" height="32" width="96" x="49" y="1"></rect>
<text lengthAdjust="spacingAndGlyphs" textLength="72" font-size="11" class="nonterminal" x="61" y="21">table_name</text></a><rect height="32" rx="10" width="28" x="187" y="35"></rect>
<rect class="terminal" height="32" rx="10" width="28" x="185" y="33"></rect>
<text class="terminal" x="195" y="53">*</text>
<rect height="32" rx="10" width="58" x="51" y="79"></rect>
<rect class="terminal" height="32" rx="10" width="58" x="49" y="77"></rect>
<text class="terminal" x="59" y="97">ONLY</text><a xlink:href="#table_name" xlink:title="table_name">
<rect height="32" width="96" x="149" y="79"></rect>
<rect class="nonterminal" height="32" width="96" x="147" y="77"></rect>
<text lengthAdjust="spacingAndGlyphs" textLength="72" font-size="11" class="nonterminal" x="159" y="97">table_name</text></a><rect height="32" rx="10" width="26" x="149" y="123"></rect>
<rect class="terminal" height="32" rx="10" width="26" x="147" y="121"></rect>
<text class="terminal" x="157" y="141">(</text><a xlink:href="#table_name" xlink:title="table_name">
<rect height="32" width="96" x="195" y="123"></rect>
<rect class="nonterminal" height="32" width="96" x="193" y="121"></rect>
<text lengthAdjust="spacingAndGlyphs" textLength="72" font-size="11" class="nonterminal" x="205" y="141">table_name</text></a><rect height="32" rx="10" width="26" x="311" y="123"></rect>
<rect class="terminal" height="32" rx="10" width="26" x="309" y="121"></rect>
<text class="terminal" x="319" y="141">)</text>
<path class="line" d="m17 17 h2 m20 0 h10 m96 0 h10 m20 0 h10 m0 0 h38 m-68 0 h20 m48 0 h20 m-88 0 q10 0 10 10 m68 0 q0 -10 10 -10 m-78 10 v12 m68 0 v-12 m-68 12 q0 10 10 10 m48 0 q10 0 10 -10 m-58 10 h10 m28 0 h10 m20 -32 h122 m-346 0 h20 m326 0 h20 m-366 0 q10 0 10 10 m346 0 q0 -10 10 -10 m-356 10 v56 m346 0 v-56 m-346 56 q0 10 10 10 m326 0 q10 0 10 -10 m-336 10 h10 m58 0 h10 m20 0 h10 m96 0 h10 m0 0 h92 m-228 0 h20 m208 0 h20 m-248 0 q10 0 10 10 m228 0 q0 -10 10 -10 m-238 10 v24 m228 0 v-24 m-228 24 q0 10 10 10 m208 0 q10 0 10 -10 m-218 10 h10 m26 0 h10 m0 0 h10 m96 0 h10 m0 0 h10 m26 0 h10 m43 -120 h-3"></path>
<polygon points="395 17 403 13 403 21"></polygon>
<polygon points="395 17 387 13 387 21"></polygon></svg>