<svg height="169" width="259" xmlns="http://www.w3.org/2000/svg" xmlns:xlink="http://www.w3.org/1999/xlink"><style>svg {
  font-family: ui-monospace, SFMono-Regular, Menlo, Monaco, Consolas, "Liberation Mono", "Courier New", monospace;
}
text {
  fill: #2f3337;
  font-size: 14px;
}
rect {
  fill: #ffffff;
  stroke: #3a3d40;
  stroke-width: 2;
}
rect.terminal {
  fill: #ffffff;
}
rect.nonterminal {
  fill: #ffffff;
}
text.terminal {
  fill: #2f3337;
  font-weight: 600;
}
text.nonterminal {
  fill: #2563eb;
}
a text.nonterminal {
  text-decoration: underline;
}
path.line {
  fill: none;
  stroke: #3a3d40;
  stroke-width: 2;
}
polygon {
  fill: #2f3337;
  stroke: #2f3337;
}</style>
<polygon points="9 17 1 13 1 21"></polygon>
<polygon points="17 17 9 13 9 21"></polygon><a xlink:href="#cancel_jobs_stmt" xlink:title="cancel_jobs_stmt">
<rect height="32" width="130" x="51" y="3"></rect>
<rect class="nonterminal" height="32" width="130" x="49" y="1"></rect>
<text lengthAdjust="spacingAndGlyphs" textLength="106" font-size="10" class="nonterminal" x="61" y="21">cancel_jobs_stmt</text></a><a xlink:href="#cancel_queries_stmt" xlink:title="cancel_queries_stmt">
<rect height="32" width="152" x="51" y="47"></rect>
<rect class="nonterminal" height="32" width="152" x="49" y="45"></rect>
<text lengthAdjust="spacingAndGlyphs" textLength="128" font-size="10" class="nonterminal" x="61" y="65">cancel_queries_stmt</text></a><a xlink:href="#cancel_sessions_stmt" xlink:title="cancel_sessions_stmt">
<rect height="32" width="160" x="51" y="91"></rect>
<rect class="nonterminal" height="32" width="160" x="49" y="89"></rect>
<text lengthAdjust="spacingAndGlyphs" textLength="136" font-size="10" class="nonterminal" x="61" y="109">cancel_sessions_stmt</text></a><a xlink:href="#cancel_all_jobs_stmt" xlink:title="cancel_all_jobs_stmt">
<rect height="32" width="154" x="51" y="135"></rect>
<rect class="nonterminal" height="32" width="154" x="49" y="133"></rect>
<text lengthAdjust="spacingAndGlyphs" textLength="130" font-size="10" class="nonterminal" x="61" y="153">cancel_all_jobs_stmt</text></a><path class="line" d="m17 17 h2 m20 0 h10 m130 0 h10 m0 0 h30 m-200 0 h20 m180 0 h20 m-220 0 q10 0 10 10 m200 0 q0 -10 10 -10 m-210 10 v24 m200 0 v-24 m-200 24 q0 10 10 10 m180 0 q10 0 10 -10 m-190 10 h10 m152 0 h10 m0 0 h8 m-190 -10 v20 m200 0 v-20 m-200 20 v24 m200 0 v-24 m-200 24 q0 10 10 10 m180 0 q10 0 10 -10 m-190 10 h10 m160 0 h10 m-190 -10 v20 m200 0 v-20 m-200 20 v24 m200 0 v-24 m-200 24 q0 10 10 10 m180 0 q10 0 10 -10 m-190 10 h10 m154 0 h10 m0 0 h6 m23 -132 h-3"></path>
<polygon points="249 17 257 13 257 21"></polygon>
<polygon points="249 17 241 13 241 21"></polygon></svg>