<svg height="89" width="273" xmlns="http://www.w3.org/2000/svg"><style>svg {
  font-family: ui-monospace, SFMono-Regular, Menlo, Monaco, Consolas, "Liberation Mono", "Courier New", monospace;
}
text {
  fill: #2f3337;
  font-size: 14px;
}
rect {
  fill: #ffffff;
  stroke: #3a3d40;
  stroke-width: 2;
}
rect.terminal {
  fill: #ffffff;
}
rect.nonterminal {
  fill: #ffffff;
}
text.terminal {
  fill: #2f3337;
  font-weight: 600;
}
text.nonterminal {
  fill: #2563eb;
}
a text.nonterminal {
  text-decoration: underline;
}
path.line {
  fill: none;
  stroke: #3a3d40;
  stroke-width: 2;
}
polygon {
  fill: #2f3337;
  stroke: #2f3337;
}</style>
<polygon points="9 5 1 1 1 9"></polygon>
<polygon points="17 5 9 1 9 9"></polygon>
<rect height="32" rx="10" width="40" x="71" y="55"></rect>
<rect class="terminal" height="32" rx="10" width="40" x="69" y="53"></rect>
<text class="terminal" x="79" y="73">NO</text>
<rect height="32" rx="10" width="74" x="151" y="23"></rect>
<rect class="terminal" height="32" rx="10" width="74" x="149" y="21"></rect>
<text class="terminal" x="159" y="41">SCROLL</text>
<path class="line" d="m17 5 h2 m20 0 h10 m0 0 h184 m-214 0 h20 m194 0 h20 m-234 0 q10 0 10 10 m214 0 q0 -10 10 -10 m-224 10 v12 m214 0 v-12 m-214 12 q0 10 10 10 m194 0 q10 0 10 -10 m-184 10 h10 m0 0 h50 m-80 0 h20 m60 0 h20 m-100 0 q10 0 10 10 m80 0 q0 -10 10 -10 m-90 10 v12 m80 0 v-12 m-80 12 q0 10 10 10 m60 0 q10 0 10 -10 m-70 10 h10 m40 0 h10 m20 -32 h10 m74 0 h10 m23 -32 h-3"></path>
<polygon points="263 5 271 1 271 9"></polygon>
<polygon points="263 5 255 1 255 9"></polygon></svg>