<svg height="89" width="443" xmlns="http://www.w3.org/2000/svg"><style>svg {
  font-family: ui-monospace, SFMono-Regular, Menlo, Monaco, Consolas, "Liberation Mono", "Courier New", monospace;
}
text {
  fill: #2f3337;
  font-size: 14px;
}
rect {
  fill: #ffffff;
  stroke: #3a3d40;
  stroke-width: 2;
}
rect.terminal {
  fill: #ffffff;
}
rect.nonterminal {
  fill: #ffffff;
}
text.terminal {
  fill: #2f3337;
  font-weight: 600;
}
text.nonterminal {
  fill: #2563eb;
}
a text.nonterminal {
  text-decoration: underline;
}
path.line {
  fill: none;
  stroke: #3a3d40;
  stroke-width: 2;
}
polygon {
  fill: #2f3337;
  stroke: #2f3337;
}</style>
<polygon points="9 5 1 1 1 9"></polygon>
<polygon points="17 5 9 1 9 9"></polygon>
<rect height="32" rx="10" width="26" x="51" y="23"></rect>
<rect class="terminal" height="32" rx="10" width="26" x="49" y="21"></rect>
<text class="terminal" x="59" y="41">(</text>
<rect height="32" rx="10" width="74" x="97" y="23"></rect>
<rect class="terminal" height="32" rx="10" width="74" x="95" y="21"></rect>
<text class="terminal" x="105" y="41">ICONST</text>
<rect height="32" rx="10" width="24" x="211" y="55"></rect>
<rect class="terminal" height="32" rx="10" width="24" x="209" y="53"></rect>
<text class="terminal" x="219" y="73">,</text>
<rect height="32" rx="10" width="74" x="255" y="55"></rect>
<rect class="terminal" height="32" rx="10" width="74" x="253" y="53"></rect>
<text class="terminal" x="263" y="73">ICONST</text>
<rect height="32" rx="10" width="26" x="369" y="23"></rect>
<rect class="terminal" height="32" rx="10" width="26" x="367" y="21"></rect>
<text class="terminal" x="377" y="41">)</text>
<path class="line" d="m17 5 h2 m20 0 h10 m0 0 h354 m-384 0 h20 m364 0 h20 m-404 0 q10 0 10 10 m384 0 q0 -10 10 -10 m-394 10 v12 m384 0 v-12 m-384 12 q0 10 10 10 m364 0 q10 0 10 -10 m-374 10 h10 m26 0 h10 m0 0 h10 m74 0 h10 m20 0 h10 m0 0 h128 m-158 0 h20 m138 0 h20 m-178 0 q10 0 10 10 m158 0 q0 -10 10 -10 m-168 10 v12 m158 0 v-12 m-158 12 q0 10 10 10 m138 0 q10 0 10 -10 m-148 10 h10 m24 0 h10 m0 0 h10 m74 0 h10 m20 -32 h10 m26 0 h10 m23 -32 h-3"></path>
<polygon points="433 5 441 1 441 9"></polygon>
<polygon points="433 5 425 1 425 9"></polygon></svg>