<svg height="69" width="713" xmlns="http://www.w3.org/2000/svg" xmlns:xlink="http://www.w3.org/1999/xlink"><style>svg {
  font-family: ui-monospace, SFMono-Regular, Menlo, Monaco, Consolas, "Liberation Mono", "Courier New", monospace;
}
text {
  fill: #2f3337;
  font-size: 14px;
}
rect {
  fill: #ffffff;
  stroke: #3a3d40;
  stroke-width: 2;
}
rect.terminal {
  fill: #ffffff;
}
rect.nonterminal {
  fill: #ffffff;
}
text.terminal {
  fill: #2f3337;
  font-weight: 600;
}
text.nonterminal {
  fill: #2563eb;
}
a text.nonterminal {
  text-decoration: underline;
}
path.line {
  fill: none;
  stroke: #3a3d40;
  stroke-width: 2;
}
polygon {
  fill: #2f3337;
  stroke: #2f3337;
}</style>
<polygon points="9 17 1 13 1 21"></polygon>
<polygon points="17 17 9 13 9 21"></polygon><a xlink:href="#db_object_name_component" xlink:title="db_object_name_component">
<rect height="32" width="206" x="31" y="3"></rect>
<rect class="nonterminal" height="32" width="206" x="29" y="1"></rect>
<text lengthAdjust="spacingAndGlyphs" textLength="182" font-size="12" class="nonterminal" x="41" y="21">db_object_name_component</text></a><rect height="32" rx="10" width="24" x="257" y="3"></rect>
<rect class="terminal" height="32" rx="10" width="24" x="255" y="1"></rect>
<text class="terminal" x="265" y="21">.</text><a xlink:href="#unrestricted_name" xlink:title="unrestricted_name">
<rect height="32" width="140" x="301" y="3"></rect>
<rect class="nonterminal" height="32" width="140" x="299" y="1"></rect>
<text lengthAdjust="spacingAndGlyphs" textLength="116" font-size="11" class="nonterminal" x="311" y="21">unrestricted_name</text></a><rect height="32" rx="10" width="24" x="481" y="35"></rect>
<rect class="terminal" height="32" rx="10" width="24" x="479" y="33"></rect>
<text class="terminal" x="489" y="53">.</text><a xlink:href="#unrestricted_name" xlink:title="unrestricted_name">
<rect height="32" width="140" x="525" y="35"></rect>
<rect class="nonterminal" height="32" width="140" x="523" y="33"></rect>
<text lengthAdjust="spacingAndGlyphs" textLength="116" font-size="11" class="nonterminal" x="535" y="53">unrestricted_name</text></a><path class="line" d="m17 17 h2 m0 0 h10 m206 0 h10 m0 0 h10 m24 0 h10 m0 0 h10 m140 0 h10 m20 0 h10 m0 0 h194 m-224 0 h20 m204 0 h20 m-244 0 q10 0 10 10 m224 0 q0 -10 10 -10 m-234 10 v12 m224 0 v-12 m-224 12 q0 10 10 10 m204 0 q10 0 10 -10 m-214 10 h10 m24 0 h10 m0 0 h10 m140 0 h10 m23 -32 h-3"></path>
<polygon points="703 17 711 13 711 21"></polygon>
<polygon points="703 17 695 13 695 21"></polygon></svg>