<svg height="157" width="291" xmlns="http://www.w3.org/2000/svg"><style>svg {
  font-family: ui-monospace, SFMono-Regular, Menlo, Monaco, Consolas, "Liberation Mono", "Courier New", monospace;
}
text {
  fill: #2f3337;
  font-size: 14px;
}
rect {
  fill: #ffffff;
  stroke: #3a3d40;
  stroke-width: 2;
}
rect.terminal {
  fill: #ffffff;
}
rect.nonterminal {
  fill: #ffffff;
}
text.terminal {
  fill: #2f3337;
  font-weight: 600;
}
text.nonterminal {
  fill: #2563eb;
}
a text.nonterminal {
  text-decoration: underline;
}
path.line {
  fill: none;
  stroke: #3a3d40;
  stroke-width: 2;
}
polygon {
  fill: #2f3337;
  stroke: #2f3337;
}</style>
<polygon points="9 17 1 13 1 21"></polygon>
<polygon points="17 17 9 13 9 21"></polygon>
<rect height="32" rx="10" width="48" x="71" y="35"></rect>
<rect class="terminal" height="32" rx="10" width="48" x="69" y="33"></rect>
<text class="terminal" x="79" y="53">NOT</text>
<rect height="32" rx="10" width="76" x="159" y="3"></rect>
<rect class="terminal" height="32" rx="10" width="76" x="157" y="1"></rect>
<text class="terminal" x="167" y="21">VISIBLE</text>
<rect height="32" rx="10" width="92" x="51" y="79"></rect>
<rect class="terminal" height="32" rx="10" width="92" x="49" y="77"></rect>
<text class="terminal" x="59" y="97">INVISIBLE</text>
<rect height="32" rx="10" width="98" x="51" y="123"></rect>
<rect class="terminal" height="32" rx="10" width="98" x="49" y="121"></rect>
<text class="terminal" x="59" y="141">VISIBILITY</text>
<rect height="32" rx="10" width="74" x="169" y="123"></rect>
<rect class="terminal" height="32" rx="10" width="74" x="167" y="121"></rect>
<text class="terminal" x="177" y="141">FCONST</text>
<path class="line" d="m17 17 h2 m40 0 h10 m0 0 h58 m-88 0 h20 m68 0 h20 m-108 0 q10 0 10 10 m88 0 q0 -10 10 -10 m-98 10 v12 m88 0 v-12 m-88 12 q0 10 10 10 m68 0 q10 0 10 -10 m-78 10 h10 m48 0 h10 m20 -32 h10 m76 0 h10 m0 0 h8 m-232 0 h20 m212 0 h20 m-252 0 q10 0 10 10 m232 0 q0 -10 10 -10 m-242 10 v56 m232 0 v-56 m-232 56 q0 10 10 10 m212 0 q10 0 10 -10 m-222 10 h10 m92 0 h10 m0 0 h100 m-222 -10 v20 m232 0 v-20 m-232 20 v24 m232 0 v-24 m-232 24 q0 10 10 10 m212 0 q10 0 10 -10 m-222 10 h10 m98 0 h10 m0 0 h10 m74 0 h10 m23 -120 h-3"></path>
<polygon points="281 17 289 13 289 21"></polygon>
<polygon points="281 17 273 13 273 21"></polygon></svg>