<svg height="301" width="281" xmlns="http://www.w3.org/2000/svg" xmlns:xlink="http://www.w3.org/1999/xlink"><style>svg {
  font-family: ui-monospace, SFMono-Regular, Menlo, Monaco, Consolas, "Liberation Mono", "Courier New", monospace;
}
text {
  fill: #2f3337;
  font-size: 14px;
}
rect {
  fill: #ffffff;
  stroke: #3a3d40;
  stroke-width: 2;
}
rect.terminal {
  fill: #ffffff;
}
rect.nonterminal {
  fill: #ffffff;
}
text.terminal {
  fill: #2f3337;
  font-weight: 600;
}
text.nonterminal {
  fill: #2563eb;
}
a text.nonterminal {
  text-decoration: underline;
}
path.line {
  fill: none;
  stroke: #3a3d40;
  stroke-width: 2;
}
polygon {
  fill: #2f3337;
  stroke: #2f3337;
}</style>
<polygon points="9 17 1 13 1 21"></polygon>
<polygon points="17 17 9 13 9 21"></polygon><a xlink:href="#numeric" xlink:title="numeric">
<rect height="32" width="70" x="51" y="3"></rect>
<rect class="nonterminal" height="32" width="70" x="49" y="1"></rect>
<text lengthAdjust="spacingAndGlyphs" textLength="46" font-size="10" class="nonterminal" x="61" y="21">numeric</text></a><a xlink:href="#bit_without_length" xlink:title="bit_without_length">
<rect height="32" width="140" x="51" y="47"></rect>
<rect class="nonterminal" height="32" width="140" x="49" y="45"></rect>
<text lengthAdjust="spacingAndGlyphs" textLength="116" font-size="10" class="nonterminal" x="61" y="65">bit_without_length</text></a><a xlink:href="#bit_with_length" xlink:title="bit_with_length">
<rect height="32" width="118" x="51" y="91"></rect>
<rect class="nonterminal" height="32" width="118" x="49" y="89"></rect>
<text lengthAdjust="spacingAndGlyphs" textLength="94" font-size="10" class="nonterminal" x="61" y="109">bit_with_length</text></a><a xlink:href="#character_without_length" xlink:title="character_without_length">
<rect height="32" width="182" x="51" y="135"></rect>
<rect class="nonterminal" height="32" width="182" x="49" y="133"></rect>
<text lengthAdjust="spacingAndGlyphs" textLength="158" font-size="10" class="nonterminal" x="61" y="153">character_without_length</text></a><a xlink:href="#character_with_length" xlink:title="character_with_length">
<rect height="32" width="162" x="51" y="179"></rect>
<rect class="nonterminal" height="32" width="162" x="49" y="177"></rect>
<text lengthAdjust="spacingAndGlyphs" textLength="138" font-size="10" class="nonterminal" x="61" y="197">character_with_length</text></a><a xlink:href="#const_datetime" xlink:title="const_datetime">
<rect height="32" width="118" x="51" y="223"></rect>
<rect class="nonterminal" height="32" width="118" x="49" y="221"></rect>
<text lengthAdjust="spacingAndGlyphs" textLength="94" font-size="10" class="nonterminal" x="61" y="241">const_datetime</text></a><a xlink:href="#const_geo" xlink:title="const_geo">
<rect height="32" width="86" x="51" y="267"></rect>
<rect class="nonterminal" height="32" width="86" x="49" y="265"></rect>
<text lengthAdjust="spacingAndGlyphs" textLength="62" font-size="11" class="nonterminal" x="61" y="285">const_geo</text></a><path class="line" d="m17 17 h2 m20 0 h10 m70 0 h10 m0 0 h112 m-222 0 h20 m202 0 h20 m-242 0 q10 0 10 10 m222 0 q0 -10 10 -10 m-232 10 v24 m222 0 v-24 m-222 24 q0 10 10 10 m202 0 q10 0 10 -10 m-212 10 h10 m140 0 h10 m0 0 h42 m-212 -10 v20 m222 0 v-20 m-222 20 v24 m222 0 v-24 m-222 24 q0 10 10 10 m202 0 q10 0 10 -10 m-212 10 h10 m118 0 h10 m0 0 h64 m-212 -10 v20 m222 0 v-20 m-222 20 v24 m222 0 v-24 m-222 24 q0 10 10 10 m202 0 q10 0 10 -10 m-212 10 h10 m182 0 h10 m-212 -10 v20 m222 0 v-20 m-222 20 v24 m222 0 v-24 m-222 24 q0 10 10 10 m202 0 q10 0 10 -10 m-212 10 h10 m162 0 h10 m0 0 h20 m-212 -10 v20 m222 0 v-20 m-222 20 v24 m222 0 v-24 m-222 24 q0 10 10 10 m202 0 q10 0 10 -10 m-212 10 h10 m118 0 h10 m0 0 h64 m-212 -10 v20 m222 0 v-20 m-222 20 v24 m222 0 v-24 m-222 24 q0 10 10 10 m202 0 q10 0 10 -10 m-212 10 h10 m86 0 h10 m0 0 h96 m23 -264 h-3"></path>
<polygon points="271 17 279 13 279 21"></polygon>
<polygon points="271 17 263 13 263 21"></polygon></svg>