<svg height="37" width="717" xmlns="http://www.w3.org/2000/svg" xmlns:xlink="http://www.w3.org/1999/xlink"><style>svg {
  font-family: ui-monospace, SFMono-Regular, Menlo, Monaco, Consolas, "Liberation Mono", "Courier New", monospace;
}
text {
  fill: #2f3337;
  font-size: 14px;
}
rect {
  fill: #ffffff;
  stroke: #3a3d40;
  stroke-width: 2;
}
rect.terminal {
  fill: #ffffff;
}
rect.nonterminal {
  fill: #ffffff;
}
text.terminal {
  fill: #2f3337;
  font-weight: 600;
}
text.nonterminal {
  fill: #2563eb;
}
a text.nonterminal {
  text-decoration: underline;
}
path.line {
  fill: none;
  stroke: #3a3d40;
  stroke-width: 2;
}
polygon {
  fill: #2f3337;
  stroke: #2f3337;
}</style>
<polygon points="9 17 1 13 1 21"></polygon>
<polygon points="17 17 9 13 9 21"></polygon>
<rect height="32" rx="10" width="72" x="31" y="3"></rect>
<rect class="terminal" height="32" rx="10" width="72" x="29" y="1"></rect>
<text class="terminal" x="39" y="21">CREATE</text>
<rect height="32" rx="10" width="90" x="123" y="3"></rect>
<rect class="terminal" height="32" rx="10" width="90" x="121" y="1"></rect>
<text class="terminal" x="131" y="21">EXTERNAL</text>
<rect height="32" rx="10" width="112" x="233" y="3"></rect>
<rect class="terminal" height="32" rx="10" width="112" x="231" y="1"></rect>
<text class="terminal" x="241" y="21">CONNECTION</text><a xlink:href="#label_spec" xlink:title="label_spec">
<rect height="32" width="88" x="365" y="3"></rect>
<rect class="nonterminal" height="32" width="88" x="363" y="1"></rect>
<text lengthAdjust="spacingAndGlyphs" textLength="64" font-size="10" class="nonterminal" x="375" y="21">label_spec</text></a><rect height="32" rx="10" width="38" x="473" y="3"></rect>
<rect class="terminal" height="32" rx="10" width="38" x="471" y="1"></rect>
<text class="terminal" x="481" y="21">AS</text><a xlink:href="#string_or_placeholder" xlink:title="string_or_placeholder">
<rect height="32" width="158" x="531" y="3"></rect>
<rect class="nonterminal" height="32" width="158" x="529" y="1"></rect>
<text lengthAdjust="spacingAndGlyphs" textLength="134" font-size="10" class="nonterminal" x="541" y="21">string_or_placeholder</text></a><path class="line" d="m17 17 h2 m0 0 h10 m72 0 h10 m0 0 h10 m90 0 h10 m0 0 h10 m112 0 h10 m0 0 h10 m88 0 h10 m0 0 h10 m38 0 h10 m0 0 h10 m158 0 h10 m3 0 h-3"></path>
<polygon points="707 17 715 13 715 21"></polygon>
<polygon points="707 17 699 13 699 21"></polygon></svg>