<svg height="53" width="265" xmlns="http://www.w3.org/2000/svg" xmlns:xlink="http://www.w3.org/1999/xlink"><style>svg {
  font-family: ui-monospace, SFMono-Regular, Menlo, Monaco, Consolas, "Liberation Mono", "Courier New", monospace;
}
text {
  fill: #2f3337;
  font-size: 14px;
}
rect {
  fill: #ffffff;
  stroke: #3a3d40;
  stroke-width: 2;
}
rect.terminal {
  fill: #ffffff;
}
rect.nonterminal {
  fill: #ffffff;
}
text.terminal {
  fill: #2f3337;
  font-weight: 600;
}
text.nonterminal {
  fill: #2563eb;
}
a text.nonterminal {
  text-decoration: underline;
}
path.line {
  fill: none;
  stroke: #3a3d40;
  stroke-width: 2;
}
polygon {
  fill: #2f3337;
  stroke: #2f3337;
}</style>
<polygon points="9 33 1 29 1 37"></polygon>
<polygon points="17 33 9 29 9 37"></polygon><a xlink:href="#alter_changefeed_cmd" xlink:title="alter_changefeed_cmd">
<rect height="32" width="166" x="51" y="19"></rect>
<rect class="nonterminal" height="32" width="166" x="49" y="17"></rect>
<text lengthAdjust="spacingAndGlyphs" textLength="142" font-size="11" class="nonterminal" x="61" y="37">alter_changefeed_cmd</text></a><path class="line" d="m17 33 h2 m20 0 h10 m166 0 h10 m-206 0 l20 0 m-1 0 q-9 0 -9 -10 l0 -12 q0 -10 10 -10 m186 32 l20 0 m-20 0 q10 0 10 -10 l0 -12 q0 -10 -10 -10 m-186 0 h10 m0 0 h176 m23 32 h-3"></path>
<polygon points="255 33 263 29 263 37"></polygon>
<polygon points="255 33 247 29 247 37"></polygon></svg>