<svg height="125" width="577" xmlns="http://www.w3.org/2000/svg" xmlns:xlink="http://www.w3.org/1999/xlink"><style>svg {
  font-family: ui-monospace, SFMono-Regular, Menlo, Monaco, Consolas, "Liberation Mono", "Courier New", monospace;
}
text {
  fill: #2f3337;
  font-size: 14px;
}
rect {
  fill: #ffffff;
  stroke: #3a3d40;
  stroke-width: 2;
}
rect.terminal {
  fill: #ffffff;
}
rect.nonterminal {
  fill: #ffffff;
}
text.terminal {
  fill: #2f3337;
  font-weight: 600;
}
text.nonterminal {
  fill: #2563eb;
}
a text.nonterminal {
  text-decoration: underline;
}
path.line {
  fill: none;
  stroke: #3a3d40;
  stroke-width: 2;
}
polygon {
  fill: #2f3337;
  stroke: #2f3337;
}</style>
<polygon points="9 17 1 13 1 21"></polygon>
<polygon points="17 17 9 13 9 21"></polygon><a xlink:href="#select_clause" xlink:title="select_clause">
<rect height="32" width="106" x="31" y="3"></rect>
<rect class="nonterminal" height="32" width="106" x="29" y="1"></rect>
<text lengthAdjust="spacingAndGlyphs" textLength="82" font-size="10" class="nonterminal" x="41" y="21">select_clause</text></a><rect height="32" rx="10" width="66" x="177" y="3"></rect>
<rect class="terminal" height="32" rx="10" width="66" x="175" y="1"></rect>
<text class="terminal" x="185" y="21">UNION</text>
<rect height="32" rx="10" width="96" x="177" y="47"></rect>
<rect class="terminal" height="32" rx="10" width="96" x="175" y="45"></rect>
<text class="terminal" x="185" y="65">INTERSECT</text>
<rect height="32" rx="10" width="72" x="177" y="91"></rect>
<rect class="terminal" height="32" rx="10" width="72" x="175" y="89"></rect>
<text class="terminal" x="185" y="109">EXCEPT</text><a xlink:href="#all_or_distinct" xlink:title="all_or_distinct">
<rect height="32" width="110" x="313" y="3"></rect>
<rect class="nonterminal" height="32" width="110" x="311" y="1"></rect>
<text lengthAdjust="spacingAndGlyphs" textLength="86" font-size="10" class="nonterminal" x="323" y="21">all_or_distinct</text></a><a xlink:href="#select_clause" xlink:title="select_clause">
<rect height="32" width="106" x="443" y="3"></rect>
<rect class="nonterminal" height="32" width="106" x="441" y="1"></rect>
<text lengthAdjust="spacingAndGlyphs" textLength="82" font-size="10" class="nonterminal" x="453" y="21">select_clause</text></a><path class="line" d="m17 17 h2 m0 0 h10 m106 0 h10 m20 0 h10 m66 0 h10 m0 0 h30 m-136 0 h20 m116 0 h20 m-156 0 q10 0 10 10 m136 0 q0 -10 10 -10 m-146 10 v24 m136 0 v-24 m-136 24 q0 10 10 10 m116 0 q10 0 10 -10 m-126 10 h10 m96 0 h10 m-126 -10 v20 m136 0 v-20 m-136 20 v24 m136 0 v-24 m-136 24 q0 10 10 10 m116 0 q10 0 10 -10 m-126 10 h10 m72 0 h10 m0 0 h24 m20 -88 h10 m110 0 h10 m0 0 h10 m106 0 h10 m3 0 h-3"></path>
<polygon points="567 17 575 13 575 21"></polygon>
<polygon points="567 17 559 13 559 21"></polygon></svg>