<svg height="37" width="405" xmlns="http://www.w3.org/2000/svg" xmlns:xlink="http://www.w3.org/1999/xlink"><style>svg {
  font-family: ui-monospace, SFMono-Regular, Menlo, Monaco, Consolas, "Liberation Mono", "Courier New", monospace;
}
text {
  fill: #2f3337;
  font-size: 14px;
}
rect {
  fill: #ffffff;
  stroke: #3a3d40;
  stroke-width: 2;
}
rect.terminal {
  fill: #ffffff;
}
rect.nonterminal {
  fill: #ffffff;
}
text.terminal {
  fill: #2f3337;
  font-weight: 600;
}
text.nonterminal {
  fill: #2563eb;
}
a text.nonterminal {
  text-decoration: underline;
}
path.line {
  fill: none;
  stroke: #3a3d40;
  stroke-width: 2;
}
polygon {
  fill: #2f3337;
  stroke: #2f3337;
}</style>
<polygon points="9 17 1 13 1 21"></polygon>
<polygon points="17 17 9 13 9 21"></polygon><a xlink:href="#opt_class" xlink:title="opt_class">
<rect height="32" width="80" x="31" y="3"></rect>
<rect class="nonterminal" height="32" width="80" x="29" y="1"></rect>
<text lengthAdjust="spacingAndGlyphs" textLength="56" font-size="10" class="nonterminal" x="41" y="21">opt_class</text></a><a xlink:href="#opt_asc_desc" xlink:title="opt_asc_desc">
<rect height="32" width="106" x="131" y="3"></rect>
<rect class="nonterminal" height="32" width="106" x="129" y="1"></rect>
<text lengthAdjust="spacingAndGlyphs" textLength="82" font-size="11" class="nonterminal" x="141" y="21">opt_asc_desc</text></a><a xlink:href="#opt_nulls_order" xlink:title="opt_nulls_order">
<rect height="32" width="120" x="257" y="3"></rect>
<rect class="nonterminal" height="32" width="120" x="255" y="1"></rect>
<text lengthAdjust="spacingAndGlyphs" textLength="96" font-size="10" class="nonterminal" x="267" y="21">opt_nulls_order</text></a><path class="line" d="m17 17 h2 m0 0 h10 m80 0 h10 m0 0 h10 m106 0 h10 m0 0 h10 m120 0 h10 m3 0 h-3"></path>
<polygon points="395 17 403 13 403 21"></polygon>
<polygon points="395 17 387 13 387 21"></polygon></svg>