<svg height="301" width="535" xmlns="http://www.w3.org/2000/svg" xmlns:xlink="http://www.w3.org/1999/xlink"><style>svg {
  font-family: ui-monospace, SFMono-Regular, Menlo, Monaco, Consolas, "Liberation Mono", "Courier New", monospace;
}
text {
  fill: #2f3337;
  font-size: 14px;
}
rect {
  fill: #ffffff;
  stroke: #3a3d40;
  stroke-width: 2;
}
rect.terminal {
  fill: #ffffff;
}
rect.nonterminal {
  fill: #ffffff;
}
text.terminal {
  fill: #2f3337;
  font-weight: 600;
}
text.nonterminal {
  fill: #2563eb;
}
a text.nonterminal {
  text-decoration: underline;
}
path.line {
  fill: none;
  stroke: #3a3d40;
  stroke-width: 2;
}
polygon {
  fill: #2f3337;
  stroke: #2f3337;
}</style>
<polygon points="9 17 1 13 1 21"></polygon>
<polygon points="17 17 9 13 9 21"></polygon>
<rect height="32" rx="10" width="44" x="31" y="3"></rect>
<rect class="terminal" height="32" rx="10" width="44" x="29" y="1"></rect>
<text class="terminal" x="39" y="21">SET</text>
<rect height="32" rx="10" width="62" x="115" y="3"></rect>
<rect class="terminal" height="32" rx="10" width="62" x="113" y="1"></rect>
<text class="terminal" x="123" y="21">LABEL</text><a xlink:href="#string_or_placeholder" xlink:title="string_or_placeholder">
<rect height="32" width="158" x="197" y="3"></rect>
<rect class="nonterminal" height="32" width="158" x="195" y="1"></rect>
<text lengthAdjust="spacingAndGlyphs" textLength="134" font-size="10" class="nonterminal" x="207" y="21">string_or_placeholder</text></a><rect height="32" rx="10" width="56" x="115" y="47"></rect>
<rect class="terminal" height="32" rx="10" width="56" x="113" y="45"></rect>
<text class="terminal" x="123" y="65">INTO</text><a xlink:href="#string_or_placeholder_opt_list" xlink:title="string_or_placeholder_opt_list">
<rect height="32" width="214" x="191" y="47"></rect>
<rect class="nonterminal" height="32" width="214" x="189" y="45"></rect>
<text lengthAdjust="spacingAndGlyphs" textLength="190" font-size="10" class="nonterminal" x="201" y="65">string_or_placeholder_opt_list</text></a><rect height="32" rx="10" width="58" x="115" y="91"></rect>
<rect class="terminal" height="32" rx="10" width="58" x="113" y="89"></rect>
<text class="terminal" x="123" y="109">WITH</text><a xlink:href="#backup_options" xlink:title="backup_options">
<rect height="32" width="120" x="193" y="91"></rect>
<rect class="nonterminal" height="32" width="120" x="191" y="89"></rect>
<text lengthAdjust="spacingAndGlyphs" textLength="96" font-size="11" class="nonterminal" x="203" y="109">backup_options</text></a><a xlink:href="#cron_expr" xlink:title="cron_expr">
<rect height="32" width="84" x="115" y="135"></rect>
<rect class="nonterminal" height="32" width="84" x="113" y="133"></rect>
<text lengthAdjust="spacingAndGlyphs" textLength="60" font-size="10" class="nonterminal" x="125" y="153">cron_expr</text></a><rect height="32" rx="10" width="54" x="115" y="179"></rect>
<rect class="terminal" height="32" rx="10" width="54" x="113" y="177"></rect>
<text class="terminal" x="123" y="197">FULL</text>
<rect height="32" rx="10" width="74" x="189" y="179"></rect>
<rect class="terminal" height="32" rx="10" width="74" x="187" y="177"></rect>
<text class="terminal" x="197" y="197">BACKUP</text>
<rect height="32" rx="10" width="78" x="303" y="179"></rect>
<rect class="terminal" height="32" rx="10" width="78" x="301" y="177"></rect>
<text class="terminal" x="311" y="197">ALWAYS</text><a xlink:href="#sconst_or_placeholder" xlink:title="sconst_or_placeholder">
<rect height="32" width="164" x="303" y="223"></rect>
<rect class="nonterminal" height="32" width="164" x="301" y="221"></rect>
<text lengthAdjust="spacingAndGlyphs" textLength="140" font-size="10" class="nonterminal" x="313" y="241">sconst_or_placeholder</text></a><rect height="32" rx="10" width="92" x="115" y="267"></rect>
<rect class="terminal" height="32" rx="10" width="92" x="113" y="265"></rect>
<text class="terminal" x="123" y="285">SCHEDULE</text>
<rect height="32" rx="10" width="76" x="227" y="267"></rect>
<rect class="terminal" height="32" rx="10" width="76" x="225" y="265"></rect>
<text class="terminal" x="235" y="285">OPTION</text><a xlink:href="#kv_option" xlink:title="kv_option">
<rect height="32" width="82" x="323" y="267"></rect>
<rect class="nonterminal" height="32" width="82" x="321" y="265"></rect>
<text lengthAdjust="spacingAndGlyphs" textLength="58" font-size="10" class="nonterminal" x="333" y="285">kv_option</text></a><path class="line" d="m17 17 h2 m0 0 h10 m44 0 h10 m20 0 h10 m62 0 h10 m0 0 h10 m158 0 h10 m0 0 h132 m-412 0 h20 m392 0 h20 m-432 0 q10 0 10 10 m412 0 q0 -10 10 -10 m-422 10 v24 m412 0 v-24 m-412 24 q0 10 10 10 m392 0 q10 0 10 -10 m-402 10 h10 m56 0 h10 m0 0 h10 m214 0 h10 m0 0 h82 m-402 -10 v20 m412 0 v-20 m-412 20 v24 m412 0 v-24 m-412 24 q0 10 10 10 m392 0 q10 0 10 -10 m-402 10 h10 m58 0 h10 m0 0 h10 m120 0 h10 m0 0 h174 m-402 -10 v20 m412 0 v-20 m-412 20 v24 m412 0 v-24 m-412 24 q0 10 10 10 m392 0 q10 0 10 -10 m-402 10 h10 m84 0 h10 m0 0 h288 m-402 -10 v20 m412 0 v-20 m-412 20 v24 m412 0 v-24 m-412 24 q0 10 10 10 m392 0 q10 0 10 -10 m-402 10 h10 m54 0 h10 m0 0 h10 m74 0 h10 m20 0 h10 m78 0 h10 m0 0 h86 m-204 0 h20 m184 0 h20 m-224 0 q10 0 10 10 m204 0 q0 -10 10 -10 m-214 10 v24 m204 0 v-24 m-204 24 q0 10 10 10 m184 0 q10 0 10 -10 m-194 10 h10 m164 0 h10 m-382 -54 v20 m412 0 v-20 m-412 20 v68 m412 0 v-68 m-412 68 q0 10 10 10 m392 0 q10 0 10 -10 m-402 10 h10 m92 0 h10 m0 0 h10 m76 0 h10 m0 0 h10 m82 0 h10 m0 0 h82 m23 -264 h-3"></path>
<polygon points="525 17 533 13 533 21"></polygon>
<polygon points="525 17 517 13 517 21"></polygon></svg>