<svg height="169" width="233" xmlns="http://www.w3.org/2000/svg" xmlns:xlink="http://www.w3.org/1999/xlink"><style>svg {
  font-family: ui-monospace, SFMono-Regular, Menlo, Monaco, Consolas, "Liberation Mono", "Courier New", monospace;
}
text {
  fill: #2f3337;
  font-size: 14px;
}
rect {
  fill: #ffffff;
  stroke: #3a3d40;
  stroke-width: 2;
}
rect.terminal {
  fill: #ffffff;
}
rect.nonterminal {
  fill: #ffffff;
}
text.terminal {
  fill: #2f3337;
  font-weight: 600;
}
text.nonterminal {
  fill: #2563eb;
}
a text.nonterminal {
  text-decoration: underline;
}
path.line {
  fill: none;
  stroke: #3a3d40;
  stroke-width: 2;
}
polygon {
  fill: #2f3337;
  stroke: #2f3337;
}</style>
<polygon points="9 17 1 13 1 21"></polygon>
<polygon points="17 17 9 13 9 21"></polygon><a xlink:href="#set_session_stmt" xlink:title="set_session_stmt">
<rect height="32" width="132" x="51" y="3"></rect>
<rect class="nonterminal" height="32" width="132" x="49" y="1"></rect>
<text lengthAdjust="spacingAndGlyphs" textLength="108" font-size="10" class="nonterminal" x="61" y="21">set_session_stmt</text></a><a xlink:href="#set_local_stmt" xlink:title="set_local_stmt">
<rect height="32" width="112" x="51" y="47"></rect>
<rect class="nonterminal" height="32" width="112" x="49" y="45"></rect>
<text lengthAdjust="spacingAndGlyphs" textLength="88" font-size="10" class="nonterminal" x="61" y="65">set_local_stmt</text></a><a xlink:href="#set_csetting_stmt" xlink:title="set_csetting_stmt">
<rect height="32" width="134" x="51" y="91"></rect>
<rect class="nonterminal" height="32" width="134" x="49" y="89"></rect>
<text lengthAdjust="spacingAndGlyphs" textLength="110" font-size="10" class="nonterminal" x="61" y="109">set_csetting_stmt</text></a><a xlink:href="#use_stmt" xlink:title="use_stmt">
<rect height="32" width="80" x="51" y="135"></rect>
<rect class="nonterminal" height="32" width="80" x="49" y="133"></rect>
<text lengthAdjust="spacingAndGlyphs" textLength="56" font-size="11" class="nonterminal" x="61" y="153">use_stmt</text></a><path class="line" d="m17 17 h2 m20 0 h10 m132 0 h10 m0 0 h2 m-174 0 h20 m154 0 h20 m-194 0 q10 0 10 10 m174 0 q0 -10 10 -10 m-184 10 v24 m174 0 v-24 m-174 24 q0 10 10 10 m154 0 q10 0 10 -10 m-164 10 h10 m112 0 h10 m0 0 h22 m-164 -10 v20 m174 0 v-20 m-174 20 v24 m174 0 v-24 m-174 24 q0 10 10 10 m154 0 q10 0 10 -10 m-164 10 h10 m134 0 h10 m-164 -10 v20 m174 0 v-20 m-174 20 v24 m174 0 v-24 m-174 24 q0 10 10 10 m154 0 q10 0 10 -10 m-164 10 h10 m80 0 h10 m0 0 h54 m23 -132 h-3"></path>
<polygon points="223 17 231 13 231 21"></polygon>
<polygon points="223 17 215 13 215 21"></polygon></svg>