<svg height="69" width="307" xmlns="http://www.w3.org/2000/svg"><style>svg {
  font-family: ui-monospace, SFMono-Regular, Menlo, Monaco, Consolas, "Liberation Mono", "Courier New", monospace;
}
text {
  fill: #2f3337;
  font-size: 14px;
}
rect {
  fill: #ffffff;
  stroke: #3a3d40;
  stroke-width: 2;
}
rect.terminal {
  fill: #ffffff;
}
rect.nonterminal {
  fill: #ffffff;
}
text.terminal {
  fill: #2f3337;
  font-weight: 600;
}
text.nonterminal {
  fill: #2563eb;
}
a text.nonterminal {
  text-decoration: underline;
}
path.line {
  fill: none;
  stroke: #3a3d40;
  stroke-width: 2;
}
polygon {
  fill: #2f3337;
  stroke: #2f3337;
}</style>
<polygon points="9 17 1 13 1 21"></polygon>
<polygon points="17 17 9 13 9 21"></polygon>
<rect height="32" rx="10" width="44" x="31" y="3"></rect>
<rect class="terminal" height="32" rx="10" width="44" x="29" y="1"></rect>
<text class="terminal" x="39" y="21">SET</text>
<rect height="32" rx="10" width="48" x="115" y="35"></rect>
<rect class="terminal" height="32" rx="10" width="48" x="113" y="33"></rect>
<text class="terminal" x="123" y="53">NOT</text>
<rect height="32" rx="10" width="76" x="203" y="3"></rect>
<rect class="terminal" height="32" rx="10" width="76" x="201" y="1"></rect>
<text class="terminal" x="211" y="21">VISIBLE</text>
<path class="line" d="m17 17 h2 m0 0 h10 m44 0 h10 m20 0 h10 m0 0 h58 m-88 0 h20 m68 0 h20 m-108 0 q10 0 10 10 m88 0 q0 -10 10 -10 m-98 10 v12 m88 0 v-12 m-88 12 q0 10 10 10 m68 0 q10 0 10 -10 m-78 10 h10 m48 0 h10 m20 -32 h10 m76 0 h10 m3 0 h-3"></path>
<polygon points="297 17 305 13 305 21"></polygon>
<polygon points="297 17 289 13 289 21"></polygon></svg>