<svg height="37" width="533" xmlns="http://www.w3.org/2000/svg" xmlns:xlink="http://www.w3.org/1999/xlink"><style>svg {
  font-family: ui-monospace, SFMono-Regular, Menlo, Monaco, Consolas, "Liberation Mono", "Courier New", monospace;
}
text {
  fill: #2f3337;
  font-size: 14px;
}
rect {
  fill: #ffffff;
  stroke: #3a3d40;
  stroke-width: 2;
}
rect.terminal {
  fill: #ffffff;
}
rect.nonterminal {
  fill: #ffffff;
}
text.terminal {
  fill: #2f3337;
  font-weight: 600;
}
text.nonterminal {
  fill: #2563eb;
}
a text.nonterminal {
  text-decoration: underline;
}
path.line {
  fill: none;
  stroke: #3a3d40;
  stroke-width: 2;
}
polygon {
  fill: #2f3337;
  stroke: #2f3337;
}</style>
<polygon points="9 17 1 13 1 21"></polygon>
<polygon points="17 17 9 13 9 21"></polygon><a xlink:href="#opt_only" xlink:title="opt_only">
<rect height="32" width="74" x="31" y="3"></rect>
<rect class="nonterminal" height="32" width="74" x="29" y="1"></rect>
<text lengthAdjust="spacingAndGlyphs" textLength="50" font-size="10" class="nonterminal" x="41" y="21">opt_only</text></a><a xlink:href="#table_name" xlink:title="table_name">
<rect height="32" width="96" x="125" y="3"></rect>
<rect class="nonterminal" height="32" width="96" x="123" y="1"></rect>
<text lengthAdjust="spacingAndGlyphs" textLength="72" font-size="11" class="nonterminal" x="135" y="21">table_name</text></a><a xlink:href="#opt_index_flags" xlink:title="opt_index_flags">
<rect height="32" width="122" x="241" y="3"></rect>
<rect class="nonterminal" height="32" width="122" x="239" y="1"></rect>
<text lengthAdjust="spacingAndGlyphs" textLength="98" font-size="10" class="nonterminal" x="251" y="21">opt_index_flags</text></a><a xlink:href="#opt_descendant" xlink:title="opt_descendant">
<rect height="32" width="122" x="383" y="3"></rect>
<rect class="nonterminal" height="32" width="122" x="381" y="1"></rect>
<text lengthAdjust="spacingAndGlyphs" textLength="98" font-size="11" class="nonterminal" x="393" y="21">opt_descendant</text></a><path class="line" d="m17 17 h2 m0 0 h10 m74 0 h10 m0 0 h10 m96 0 h10 m0 0 h10 m122 0 h10 m0 0 h10 m122 0 h10 m3 0 h-3"></path>
<polygon points="523 17 531 13 531 21"></polygon>
<polygon points="523 17 515 13 515 21"></polygon></svg>