<svg height="145" width="407" xmlns="http://www.w3.org/2000/svg"><style>svg {
  font-family: ui-monospace, SFMono-Regular, Menlo, Monaco, Consolas, "Liberation Mono", "Courier New", monospace;
}
text {
  fill: #2f3337;
  font-size: 14px;
}
rect {
  fill: #ffffff;
  stroke: #3a3d40;
  stroke-width: 2;
}
rect.terminal {
  fill: #ffffff;
}
rect.nonterminal {
  fill: #ffffff;
}
text.terminal {
  fill: #2f3337;
  font-weight: 600;
}
text.nonterminal {
  fill: #2563eb;
}
a text.nonterminal {
  text-decoration: underline;
}
path.line {
  fill: none;
  stroke: #3a3d40;
  stroke-width: 2;
}
polygon {
  fill: #2f3337;
  stroke: #2f3337;
}</style>
<polygon points="9 17 1 13 1 21"></polygon>
<polygon points="17 17 9 13 9 21"></polygon>
<rect height="32" rx="10" width="48" x="31" y="3"></rect>
<rect class="terminal" height="32" rx="10" width="48" x="29" y="1"></rect>
<text class="terminal" x="39" y="21">FOR</text>
<rect height="32" rx="10" width="40" x="139" y="35"></rect>
<rect class="terminal" height="32" rx="10" width="40" x="137" y="33"></rect>
<text class="terminal" x="147" y="53">NO</text>
<rect height="32" rx="10" width="46" x="199" y="35"></rect>
<rect class="terminal" height="32" rx="10" width="46" x="197" y="33"></rect>
<text class="terminal" x="207" y="53">KEY</text>
<rect height="32" rx="10" width="74" x="285" y="3"></rect>
<rect class="terminal" height="32" rx="10" width="74" x="283" y="1"></rect>
<text class="terminal" x="293" y="21">UPDATE</text>
<rect height="32" rx="10" width="46" x="139" y="111"></rect>
<rect class="terminal" height="32" rx="10" width="46" x="137" y="109"></rect>
<text class="terminal" x="147" y="129">KEY</text>
<rect height="32" rx="10" width="66" x="225" y="79"></rect>
<rect class="terminal" height="32" rx="10" width="66" x="223" y="77"></rect>
<text class="terminal" x="233" y="97">SHARE</text>
<path class="line" d="m17 17 h2 m0 0 h10 m48 0 h10 m40 0 h10 m0 0 h116 m-146 0 h20 m126 0 h20 m-166 0 q10 0 10 10 m146 0 q0 -10 10 -10 m-156 10 v12 m146 0 v-12 m-146 12 q0 10 10 10 m126 0 q10 0 10 -10 m-136 10 h10 m40 0 h10 m0 0 h10 m46 0 h10 m20 -32 h10 m74 0 h10 m-280 0 h20 m260 0 h20 m-300 0 q10 0 10 10 m280 0 q0 -10 10 -10 m-290 10 v56 m280 0 v-56 m-280 56 q0 10 10 10 m260 0 q10 0 10 -10 m-250 10 h10 m0 0 h56 m-86 0 h20 m66 0 h20 m-106 0 q10 0 10 10 m86 0 q0 -10 10 -10 m-96 10 v12 m86 0 v-12 m-86 12 q0 10 10 10 m66 0 q10 0 10 -10 m-76 10 h10 m46 0 h10 m20 -32 h10 m66 0 h10 m0 0 h68 m23 -76 h-3"></path>
<polygon points="397 17 405 13 405 21"></polygon>
<polygon points="397 17 389 13 389 21"></polygon></svg>