<svg height="125" width="265" xmlns="http://www.w3.org/2000/svg" xmlns:xlink="http://www.w3.org/1999/xlink"><style>svg {
  font-family: ui-monospace, SFMono-Regular, Menlo, Monaco, Consolas, "Liberation Mono", "Courier New", monospace;
}
text {
  fill: #2f3337;
  font-size: 14px;
}
rect {
  fill: #ffffff;
  stroke: #3a3d40;
  stroke-width: 2;
}
rect.terminal {
  fill: #ffffff;
}
rect.nonterminal {
  fill: #ffffff;
}
text.terminal {
  fill: #2f3337;
  font-weight: 600;
}
text.nonterminal {
  fill: #2563eb;
}
a text.nonterminal {
  text-decoration: underline;
}
path.line {
  fill: none;
  stroke: #3a3d40;
  stroke-width: 2;
}
polygon {
  fill: #2f3337;
  stroke: #2f3337;
}</style>
<polygon points="9 17 1 13 1 21"></polygon>
<polygon points="17 17 9 13 9 21"></polygon><a xlink:href="#pause_jobs_stmt" xlink:title="pause_jobs_stmt">
<rect height="32" width="130" x="51" y="3"></rect>
<rect class="nonterminal" height="32" width="130" x="49" y="1"></rect>
<text lengthAdjust="spacingAndGlyphs" textLength="106" font-size="11" class="nonterminal" x="61" y="21">pause_jobs_stmt</text></a><a xlink:href="#pause_schedules_stmt" xlink:title="pause_schedules_stmt">
<rect height="32" width="166" x="51" y="47"></rect>
<rect class="nonterminal" height="32" width="166" x="49" y="45"></rect>
<text lengthAdjust="spacingAndGlyphs" textLength="142" font-size="11" class="nonterminal" x="61" y="65">pause_schedules_stmt</text></a><a xlink:href="#pause_all_jobs_stmt" xlink:title="pause_all_jobs_stmt">
<rect height="32" width="152" x="51" y="91"></rect>
<rect class="nonterminal" height="32" width="152" x="49" y="89"></rect>
<text lengthAdjust="spacingAndGlyphs" textLength="128" font-size="10" class="nonterminal" x="61" y="109">pause_all_jobs_stmt</text></a><path class="line" d="m17 17 h2 m20 0 h10 m130 0 h10 m0 0 h36 m-206 0 h20 m186 0 h20 m-226 0 q10 0 10 10 m206 0 q0 -10 10 -10 m-216 10 v24 m206 0 v-24 m-206 24 q0 10 10 10 m186 0 q10 0 10 -10 m-196 10 h10 m166 0 h10 m-196 -10 v20 m206 0 v-20 m-206 20 v24 m206 0 v-24 m-206 24 q0 10 10 10 m186 0 q10 0 10 -10 m-196 10 h10 m152 0 h10 m0 0 h14 m23 -88 h-3"></path>
<polygon points="255 17 263 13 263 21"></polygon>
<polygon points="255 17 247 13 247 21"></polygon></svg>