<svg height="125" width="483" xmlns="http://www.w3.org/2000/svg" xmlns:xlink="http://www.w3.org/1999/xlink"><style>svg {
  font-family: ui-monospace, SFMono-Regular, Menlo, Monaco, Consolas, "Liberation Mono", "Courier New", monospace;
}
text {
  fill: #2f3337;
  font-size: 14px;
}
rect {
  fill: #ffffff;
  stroke: #3a3d40;
  stroke-width: 2;
}
rect.terminal {
  fill: #ffffff;
}
rect.nonterminal {
  fill: #ffffff;
}
text.terminal {
  fill: #2f3337;
  font-weight: 600;
}
text.nonterminal {
  fill: #2563eb;
}
a text.nonterminal {
  text-decoration: underline;
}
path.line {
  fill: none;
  stroke: #3a3d40;
  stroke-width: 2;
}
polygon {
  fill: #2f3337;
  stroke: #2f3337;
}</style>
<polygon points="9 17 1 13 1 21"></polygon>
<polygon points="17 17 9 13 9 21"></polygon>
<rect height="32" rx="10" width="64" x="71" y="3"></rect>
<rect class="terminal" height="32" rx="10" width="64" x="69" y="1"></rect>
<text class="terminal" x="79" y="21">INDEX</text>
<rect height="32" rx="10" width="110" x="71" y="47"></rect>
<rect class="terminal" height="32" rx="10" width="110" x="69" y="45"></rect>
<text class="terminal" x="79" y="65">CONSTRAINT</text>
<rect height="32" rx="10" width="44" x="241" y="3"></rect>
<rect class="terminal" height="32" rx="10" width="44" x="239" y="1"></rect>
<text class="terminal" x="249" y="21">ALL</text>
<rect height="32" rx="10" width="26" x="241" y="47"></rect>
<rect class="terminal" height="32" rx="10" width="26" x="239" y="45"></rect>
<text class="terminal" x="249" y="65">(</text><a xlink:href="#name_list" xlink:title="name_list">
<rect height="32" width="82" x="287" y="47"></rect>
<rect class="nonterminal" height="32" width="82" x="285" y="45"></rect>
<text lengthAdjust="spacingAndGlyphs" textLength="58" font-size="10" class="nonterminal" x="297" y="65">name_list</text></a><rect height="32" rx="10" width="26" x="389" y="47"></rect>
<rect class="terminal" height="32" rx="10" width="26" x="387" y="45"></rect>
<text class="terminal" x="397" y="65">)</text>
<rect height="32" rx="10" width="90" x="51" y="91"></rect>
<rect class="terminal" height="32" rx="10" width="90" x="49" y="89"></rect>
<text class="terminal" x="59" y="109">PHYSICAL</text>
<path class="line" d="m17 17 h2 m40 0 h10 m64 0 h10 m0 0 h46 m-150 0 h20 m130 0 h20 m-170 0 q10 0 10 10 m150 0 q0 -10 10 -10 m-160 10 v24 m150 0 v-24 m-150 24 q0 10 10 10 m130 0 q10 0 10 -10 m-140 10 h10 m110 0 h10 m40 -44 h10 m44 0 h10 m0 0 h130 m-214 0 h20 m194 0 h20 m-234 0 q10 0 10 10 m214 0 q0 -10 10 -10 m-224 10 v24 m214 0 v-24 m-214 24 q0 10 10 10 m194 0 q10 0 10 -10 m-204 10 h10 m26 0 h10 m0 0 h10 m82 0 h10 m0 0 h10 m26 0 h10 m-404 -44 h20 m404 0 h20 m-444 0 q10 0 10 10 m424 0 q0 -10 10 -10 m-434 10 v68 m424 0 v-68 m-424 68 q0 10 10 10 m404 0 q10 0 10 -10 m-414 10 h10 m90 0 h10 m0 0 h294 m23 -88 h-3"></path>
<polygon points="473 17 481 13 481 21"></polygon>
<polygon points="473 17 465 13 465 21"></polygon></svg>