<svg height="509" width="433" xmlns="http://www.w3.org/2000/svg" xmlns:xlink="http://www.w3.org/1999/xlink"><style>svg {
  font-family: ui-monospace, SFMono-Regular, Menlo, Monaco, Consolas, "Liberation Mono", "Courier New", monospace;
}
text {
  fill: #2f3337;
  font-size: 14px;
}
rect {
  fill: #ffffff;
  stroke: #3a3d40;
  stroke-width: 2;
}
rect.terminal {
  fill: #ffffff;
}
rect.nonterminal {
  fill: #ffffff;
}
text.terminal {
  fill: #2f3337;
  font-weight: 600;
}
text.nonterminal {
  fill: #2563eb;
}
a text.nonterminal {
  text-decoration: underline;
}
path.line {
  fill: none;
  stroke: #3a3d40;
  stroke-width: 2;
}
polygon {
  fill: #2f3337;
  stroke: #2f3337;
}</style>
<polygon points="9 17 1 13 1 21"></polygon>
<polygon points="17 17 9 13 9 21"></polygon>
<rect height="32" rx="10" width="116" x="71" y="3"></rect>
<rect class="terminal" height="32" rx="10" width="116" x="69" y="1"></rect>
<text class="terminal" x="79" y="21">DESTINATION</text>
<rect height="32" rx="10" width="96" x="71" y="47"></rect>
<rect class="terminal" height="32" rx="10" width="96" x="69" y="45"></rect>
<text class="terminal" x="79" y="65">DELIMITER</text>
<rect height="32" rx="10" width="56" x="71" y="91"></rect>
<rect class="terminal" height="32" rx="10" width="56" x="69" y="89"></rect>
<text class="terminal" x="79" y="109">NULL</text><a xlink:href="#string_or_placeholder" xlink:title="string_or_placeholder">
<rect height="32" width="158" x="227" y="3"></rect>
<rect class="nonterminal" height="32" width="158" x="225" y="1"></rect>
<text lengthAdjust="spacingAndGlyphs" textLength="134" font-size="10" class="nonterminal" x="237" y="21">string_or_placeholder</text></a><rect height="32" rx="10" width="76" x="51" y="135"></rect>
<rect class="terminal" height="32" rx="10" width="76" x="49" y="133"></rect>
<text class="terminal" x="59" y="153">FORMAT</text>
<rect height="32" rx="10" width="72" x="167" y="135"></rect>
<rect class="terminal" height="32" rx="10" width="72" x="165" y="133"></rect>
<text class="terminal" x="175" y="153">BINARY</text>
<rect height="32" rx="10" width="46" x="167" y="179"></rect>
<rect class="terminal" height="32" rx="10" width="46" x="165" y="177"></rect>
<text class="terminal" x="175" y="197">CSV</text>
<rect height="32" rx="10" width="54" x="167" y="223"></rect>
<rect class="terminal" height="32" rx="10" width="54" x="165" y="221"></rect>
<text class="terminal" x="175" y="241">TEXT</text>
<rect height="32" rx="10" width="76" x="167" y="267"></rect>
<rect class="terminal" height="32" rx="10" width="76" x="165" y="265"></rect>
<text class="terminal" x="175" y="285">SCONST</text>
<rect height="32" rx="10" width="74" x="51" y="311"></rect>
<rect class="terminal" height="32" rx="10" width="74" x="49" y="309"></rect>
<text class="terminal" x="59" y="329">HEADER</text>
<rect height="32" rx="10" width="56" x="165" y="343"></rect>
<rect class="terminal" height="32" rx="10" width="56" x="163" y="341"></rect>
<text class="terminal" x="173" y="361">TRUE</text>
<rect height="32" rx="10" width="62" x="165" y="387"></rect>
<rect class="terminal" height="32" rx="10" width="62" x="163" y="385"></rect>
<text class="terminal" x="173" y="405">FALSE</text>
<rect height="32" rx="10" width="68" x="71" y="431"></rect>
<rect class="terminal" height="32" rx="10" width="68" x="69" y="429"></rect>
<text class="terminal" x="79" y="449">QUOTE</text>
<rect height="32" rx="10" width="72" x="71" y="475"></rect>
<rect class="terminal" height="32" rx="10" width="72" x="69" y="473"></rect>
<text class="terminal" x="79" y="493">ESCAPE</text>
<rect height="32" rx="10" width="76" x="183" y="431"></rect>
<rect class="terminal" height="32" rx="10" width="76" x="181" y="429"></rect>
<text class="terminal" x="191" y="449">SCONST</text>
<path class="line" d="m17 17 h2 m40 0 h10 m116 0 h10 m-156 0 h20 m136 0 h20 m-176 0 q10 0 10 10 m156 0 q0 -10 10 -10 m-166 10 v24 m156 0 v-24 m-156 24 q0 10 10 10 m136 0 q10 0 10 -10 m-146 10 h10 m96 0 h10 m0 0 h20 m-146 -10 v20 m156 0 v-20 m-156 20 v24 m156 0 v-24 m-156 24 q0 10 10 10 m136 0 q10 0 10 -10 m-146 10 h10 m56 0 h10 m0 0 h60 m20 -88 h10 m158 0 h10 m-374 0 h20 m354 0 h20 m-394 0 q10 0 10 10 m374 0 q0 -10 10 -10 m-384 10 v112 m374 0 v-112 m-374 112 q0 10 10 10 m354 0 q10 0 10 -10 m-364 10 h10 m76 0 h10 m20 0 h10 m72 0 h10 m0 0 h4 m-116 0 h20 m96 0 h20 m-136 0 q10 0 10 10 m116 0 q0 -10 10 -10 m-126 10 v24 m116 0 v-24 m-116 24 q0 10 10 10 m96 0 q10 0 10 -10 m-106 10 h10 m46 0 h10 m0 0 h30 m-106 -10 v20 m116 0 v-20 m-116 20 v24 m116 0 v-24 m-116 24 q0 10 10 10 m96 0 q10 0 10 -10 m-106 10 h10 m54 0 h10 m0 0 h22 m-106 -10 v20 m116 0 v-20 m-116 20 v24 m116 0 v-24 m-116 24 q0 10 10 10 m96 0 q10 0 10 -10 m-106 10 h10 m76 0 h10 m20 -132 h122 m-364 -10 v20 m374 0 v-20 m-374 20 v156 m374 0 v-156 m-374 156 q0 10 10 10 m354 0 q10 0 10 -10 m-364 10 h10 m74 0 h10 m20 0 h10 m0 0 h72 m-102 0 h20 m82 0 h20 m-122 0 q10 0 10 10 m102 0 q0 -10 10 -10 m-112 10 v12 m102 0 v-12 m-102 12 q0 10 10 10 m82 0 q10 0 10 -10 m-92 10 h10 m56 0 h10 m0 0 h6 m-92 -10 v20 m102 0 v-20 m-102 20 v24 m102 0 v-24 m-102 24 q0 10 10 10 m82 0 q10 0 10 -10 m-92 10 h10 m62 0 h10 m20 -76 h138 m-364 -10 v20 m374 0 v-20 m-374 20 v100 m374 0 v-100 m-374 100 q0 10 10 10 m354 0 q10 0 10 -10 m-344 10 h10 m68 0 h10 m0 0 h4 m-112 0 h20 m92 0 h20 m-132 0 q10 0 10 10 m112 0 q0 -10 10 -10 m-122 10 v24 m112 0 v-24 m-112 24 q0 10 10 10 m92 0 q10 0 10 -10 m-102 10 h10 m72 0 h10 m20 -44 h10 m76 0 h10 m0 0 h126 m23 -428 h-3"></path>
<polygon points="423 17 431 13 431 21"></polygon>
<polygon points="423 17 415 13 415 21"></polygon></svg>