<svg height="169" width="321" xmlns="http://www.w3.org/2000/svg" xmlns:xlink="http://www.w3.org/1999/xlink"><style>svg {
  font-family: ui-monospace, SFMono-Regular, Menlo, Monaco, Consolas, "Liberation Mono", "Courier New", monospace;
}
text {
  fill: #2f3337;
  font-size: 14px;
}
rect {
  fill: #ffffff;
  stroke: #3a3d40;
  stroke-width: 2;
}
rect.terminal {
  fill: #ffffff;
}
rect.nonterminal {
  fill: #ffffff;
}
text.terminal {
  fill: #2f3337;
  font-weight: 600;
}
text.nonterminal {
  fill: #2563eb;
}
a text.nonterminal {
  text-decoration: underline;
}
path.line {
  fill: none;
  stroke: #3a3d40;
  stroke-width: 2;
}
polygon {
  fill: #2f3337;
  stroke: #2f3337;
}</style>
<polygon points="9 17 1 13 1 21"></polygon>
<polygon points="17 17 9 13 9 21"></polygon><a xlink:href="#drop_ddl_stmt" xlink:title="drop_ddl_stmt">
<rect height="32" width="112" x="51" y="3"></rect>
<rect class="nonterminal" height="32" width="112" x="49" y="1"></rect>
<text lengthAdjust="spacingAndGlyphs" textLength="88" font-size="10" class="nonterminal" x="61" y="21">drop_ddl_stmt</text></a><a xlink:href="#drop_role_stmt" xlink:title="drop_role_stmt">
<rect height="32" width="118" x="51" y="47"></rect>
<rect class="nonterminal" height="32" width="118" x="49" y="45"></rect>
<text lengthAdjust="spacingAndGlyphs" textLength="94" font-size="10" class="nonterminal" x="61" y="65">drop_role_stmt</text></a><a xlink:href="#drop_schedule_stmt" xlink:title="drop_schedule_stmt">
<rect height="32" width="150" x="51" y="91"></rect>
<rect class="nonterminal" height="32" width="150" x="49" y="89"></rect>
<text lengthAdjust="spacingAndGlyphs" textLength="126" font-size="11" class="nonterminal" x="61" y="109">drop_schedule_stmt</text></a><a xlink:href="#drop_external_connection_stmt" xlink:title="drop_external_connection_stmt">
<rect height="32" width="222" x="51" y="135"></rect>
<rect class="nonterminal" height="32" width="222" x="49" y="133"></rect>
<text lengthAdjust="spacingAndGlyphs" textLength="198" font-size="11" class="nonterminal" x="61" y="153">drop_external_connection_stmt</text></a><path class="line" d="m17 17 h2 m20 0 h10 m112 0 h10 m0 0 h110 m-262 0 h20 m242 0 h20 m-282 0 q10 0 10 10 m262 0 q0 -10 10 -10 m-272 10 v24 m262 0 v-24 m-262 24 q0 10 10 10 m242 0 q10 0 10 -10 m-252 10 h10 m118 0 h10 m0 0 h104 m-252 -10 v20 m262 0 v-20 m-262 20 v24 m262 0 v-24 m-262 24 q0 10 10 10 m242 0 q10 0 10 -10 m-252 10 h10 m150 0 h10 m0 0 h72 m-252 -10 v20 m262 0 v-20 m-262 20 v24 m262 0 v-24 m-262 24 q0 10 10 10 m242 0 q10 0 10 -10 m-252 10 h10 m222 0 h10 m23 -132 h-3"></path>
<polygon points="311 17 319 13 319 21"></polygon>
<polygon points="311 17 303 13 303 21"></polygon></svg>