<svg height="103" width="673" xmlns="http://www.w3.org/2000/svg" xmlns:xlink="http://www.w3.org/1999/xlink"><style>svg {
  font-family: ui-monospace, SFMono-Regular, Menlo, Monaco, Consolas, "Liberation Mono", "Courier New", monospace;
}
text {
  fill: #2f3337;
  font-size: 14px;
}
rect {
  fill: #ffffff;
  stroke: #3a3d40;
  stroke-width: 2;
}
rect.terminal {
  fill: #ffffff;
}
rect.nonterminal {
  fill: #ffffff;
}
text.terminal {
  fill: #2f3337;
  font-weight: 600;
}
text.nonterminal {
  fill: #2563eb;
}
a text.nonterminal {
  text-decoration: underline;
}
path.line {
  fill: none;
  stroke: #3a3d40;
  stroke-width: 2;
}
polygon {
  fill: #2f3337;
  stroke: #2f3337;
}</style>
<polygon points="9 17 1 13 1 21"></polygon>
<polygon points="17 17 9 13 9 21"></polygon>
<rect height="32" rx="10" width="26" x="31" y="3"></rect>
<rect class="terminal" height="32" rx="10" width="26" x="29" y="1"></rect>
<text class="terminal" x="39" y="21">(</text><a xlink:href="#opt_existing_window_name" xlink:title="opt_existing_window_name">
<rect height="32" width="196" x="77" y="3"></rect>
<rect class="nonterminal" height="32" width="196" x="75" y="1"></rect>
<text lengthAdjust="spacingAndGlyphs" textLength="172" font-size="11" class="nonterminal" x="87" y="21">opt_existing_window_name</text></a><a xlink:href="#opt_partition_clause" xlink:title="opt_partition_clause">
<rect height="32" width="150" x="293" y="3"></rect>
<rect class="nonterminal" height="32" width="150" x="291" y="1"></rect>
<text lengthAdjust="spacingAndGlyphs" textLength="126" font-size="10" class="nonterminal" x="303" y="21">opt_partition_clause</text></a><a xlink:href="#opt_sort_clause_no_index" xlink:title="opt_sort_clause_no_index">
<rect height="32" width="188" x="463" y="3"></rect>
<rect class="nonterminal" height="32" width="188" x="461" y="1"></rect>
<text lengthAdjust="spacingAndGlyphs" textLength="164" font-size="11" class="nonterminal" x="473" y="21">opt_sort_clause_no_index</text></a><a xlink:href="#opt_frame_clause" xlink:title="opt_frame_clause">
<rect height="32" width="134" x="465" y="69"></rect>
<rect class="nonterminal" height="32" width="134" x="463" y="67"></rect>
<text lengthAdjust="spacingAndGlyphs" textLength="110" font-size="11" class="nonterminal" x="475" y="87">opt_frame_clause</text></a><rect height="32" rx="10" width="26" x="619" y="69"></rect>
<rect class="terminal" height="32" rx="10" width="26" x="617" y="67"></rect>
<text class="terminal" x="627" y="87">)</text>
<path class="line" d="m17 17 h2 m0 0 h10 m26 0 h10 m0 0 h10 m196 0 h10 m0 0 h10 m150 0 h10 m0 0 h10 m188 0 h10 m2 0 l2 0 m2 0 l2 0 m2 0 l2 0 m-230 66 l2 0 m2 0 l2 0 m2 0 l2 0 m2 0 h10 m134 0 h10 m0 0 h10 m26 0 h10 m3 0 h-3"></path>
<polygon points="663 83 671 79 671 87"></polygon>
<polygon points="663 83 655 79 655 87"></polygon></svg>