<svg height="69" width="323" xmlns="http://www.w3.org/2000/svg" xmlns:xlink="http://www.w3.org/1999/xlink"><style>svg {
  font-family: ui-monospace, SFMono-Regular, Menlo, Monaco, Consolas, "Liberation Mono", "Courier New", monospace;
}
text {
  fill: #2f3337;
  font-size: 14px;
}
rect {
  fill: #ffffff;
  stroke: #3a3d40;
  stroke-width: 2;
}
rect.terminal {
  fill: #ffffff;
}
rect.nonterminal {
  fill: #ffffff;
}
text.terminal {
  fill: #2f3337;
  font-weight: 600;
}
text.nonterminal {
  fill: #2563eb;
}
a text.nonterminal {
  text-decoration: underline;
}
path.line {
  fill: none;
  stroke: #3a3d40;
  stroke-width: 2;
}
polygon {
  fill: #2f3337;
  stroke: #2f3337;
}</style>
<polygon points="9 33 1 29 1 37"></polygon>
<polygon points="17 33 9 29 9 37"></polygon><a xlink:href="#routine_body_stmt" xlink:title="routine_body_stmt">
<rect height="32" width="140" x="71" y="19"></rect>
<rect class="nonterminal" height="32" width="140" x="69" y="17"></rect>
<text lengthAdjust="spacingAndGlyphs" textLength="116" font-size="11" class="nonterminal" x="81" y="37">routine_body_stmt</text></a><rect height="32" rx="10" width="24" x="231" y="19"></rect>
<rect class="terminal" height="32" rx="10" width="24" x="229" y="17"></rect>
<text class="terminal" x="239" y="37">;</text>
<path class="line" d="m17 33 h2 m40 0 h10 m140 0 h10 m0 0 h10 m24 0 h10 m-224 0 l20 0 m-1 0 q-9 0 -9 -10 l0 -12 q0 -10 10 -10 m204 32 l20 0 m-20 0 q10 0 10 -10 l0 -12 q0 -10 -10 -10 m-204 0 h10 m0 0 h194 m-244 32 h20 m244 0 h20 m-284 0 q10 0 10 10 m264 0 q0 -10 10 -10 m-274 10 v14 m264 0 v-14 m-264 14 q0 10 10 10 m244 0 q10 0 10 -10 m-254 10 h10 m0 0 h234 m23 -34 h-3"></path>
<polygon points="313 33 321 29 321 37"></polygon>
<polygon points="313 33 305 29 305 37"></polygon></svg>