<svg height="135" width="685" xmlns="http://www.w3.org/2000/svg" xmlns:xlink="http://www.w3.org/1999/xlink"><style>svg {
  font-family: ui-monospace, SFMono-Regular, Menlo, Monaco, Consolas, "Liberation Mono", "Courier New", monospace;
}
text {
  fill: #2f3337;
  font-size: 14px;
}
rect {
  fill: #ffffff;
  stroke: #3a3d40;
  stroke-width: 2;
}
rect.terminal {
  fill: #ffffff;
}
rect.nonterminal {
  fill: #ffffff;
}
text.terminal {
  fill: #2f3337;
  font-weight: 600;
}
text.nonterminal {
  fill: #2563eb;
}
a text.nonterminal {
  text-decoration: underline;
}
path.line {
  fill: none;
  stroke: #3a3d40;
  stroke-width: 2;
}
polygon {
  fill: #2f3337;
  stroke: #2f3337;
}</style>
<polygon points="9 17 1 13 1 21"></polygon>
<polygon points="17 17 9 13 9 21"></polygon>
<rect height="32" rx="10" width="62" x="31" y="3"></rect>
<rect class="terminal" height="32" rx="10" width="62" x="29" y="1"></rect>
<text class="terminal" x="39" y="21">ALTER</text>
<rect height="32" rx="10" width="92" x="113" y="3"></rect>
<rect class="terminal" height="32" rx="10" width="92" x="111" y="1"></rect>
<text class="terminal" x="121" y="21">SEQUENCE</text>
<rect height="32" rx="10" width="34" x="245" y="35"></rect>
<rect class="terminal" height="32" rx="10" width="34" x="243" y="33"></rect>
<text class="terminal" x="253" y="53">IF</text>
<rect height="32" rx="10" width="70" x="299" y="35"></rect>
<rect class="terminal" height="32" rx="10" width="70" x="297" y="33"></rect>
<text class="terminal" x="307" y="53">EXISTS</text><a xlink:href="#relation_expr" xlink:title="relation_expr">
<rect height="32" width="104" x="409" y="3"></rect>
<rect class="nonterminal" height="32" width="104" x="407" y="1"></rect>
<text lengthAdjust="spacingAndGlyphs" textLength="80" font-size="10" class="nonterminal" x="419" y="21">relation_expr</text></a><rect height="32" rx="10" width="72" x="533" y="3"></rect>
<rect class="terminal" height="32" rx="10" width="72" x="531" y="1"></rect>
<text class="terminal" x="541" y="21">OWNER</text>
<rect height="32" rx="10" width="38" x="625" y="3"></rect>
<rect class="terminal" height="32" rx="10" width="38" x="623" y="1"></rect>
<text class="terminal" x="633" y="21">TO</text><a xlink:href="#role_spec" xlink:title="role_spec">
<rect height="32" width="82" x="575" y="101"></rect>
<rect class="nonterminal" height="32" width="82" x="573" y="99"></rect>
<text lengthAdjust="spacingAndGlyphs" textLength="58" font-size="10" class="nonterminal" x="585" y="119">role_spec</text></a><path class="line" d="m17 17 h2 m0 0 h10 m62 0 h10 m0 0 h10 m92 0 h10 m20 0 h10 m0 0 h134 m-164 0 h20 m144 0 h20 m-184 0 q10 0 10 10 m164 0 q0 -10 10 -10 m-174 10 v12 m164 0 v-12 m-164 12 q0 10 10 10 m144 0 q10 0 10 -10 m-154 10 h10 m34 0 h10 m0 0 h10 m70 0 h10 m20 -32 h10 m104 0 h10 m0 0 h10 m72 0 h10 m0 0 h10 m38 0 h10 m2 0 l2 0 m2 0 l2 0 m2 0 l2 0 m-132 98 l2 0 m2 0 l2 0 m2 0 l2 0 m2 0 h10 m82 0 h10 m3 0 h-3"></path>
<polygon points="675 115 683 111 683 119"></polygon>
<polygon points="675 115 667 111 667 119"></polygon></svg>