<svg height="213" width="339" xmlns="http://www.w3.org/2000/svg"><style>svg {
  font-family: ui-monospace, SFMono-Regular, Menlo, Monaco, Consolas, "Liberation Mono", "Courier New", monospace;
}
text {
  fill: #2f3337;
  font-size: 14px;
}
rect {
  fill: #ffffff;
  stroke: #3a3d40;
  stroke-width: 2;
}
rect.terminal {
  fill: #ffffff;
}
rect.nonterminal {
  fill: #ffffff;
}
text.terminal {
  fill: #2f3337;
  font-weight: 600;
}
text.nonterminal {
  fill: #2563eb;
}
a text.nonterminal {
  text-decoration: underline;
}
path.line {
  fill: none;
  stroke: #3a3d40;
  stroke-width: 2;
}
polygon {
  fill: #2f3337;
  stroke: #2f3337;
}</style>
<polygon points="9 17 1 13 1 21"></polygon>
<polygon points="17 17 9 13 9 21"></polygon>
<rect height="32" rx="10" width="56" x="51" y="3"></rect>
<rect class="terminal" height="32" rx="10" width="56" x="49" y="1"></rect>
<text class="terminal" x="59" y="21">READ</text>
<rect height="32" rx="10" width="124" x="147" y="3"></rect>
<rect class="terminal" height="32" rx="10" width="124" x="145" y="1"></rect>
<text class="terminal" x="155" y="21">UNCOMMITTED</text>
<rect height="32" rx="10" width="104" x="147" y="47"></rect>
<rect class="terminal" height="32" rx="10" width="104" x="145" y="45"></rect>
<text class="terminal" x="155" y="65">COMMITTED</text>
<rect height="32" rx="10" width="96" x="51" y="91"></rect>
<rect class="terminal" height="32" rx="10" width="96" x="49" y="89"></rect>
<text class="terminal" x="59" y="109">SNAPSHOT</text>
<rect height="32" rx="10" width="106" x="51" y="135"></rect>
<rect class="terminal" height="32" rx="10" width="106" x="49" y="133"></rect>
<text class="terminal" x="59" y="153">REPEATABLE</text>
<rect height="32" rx="10" width="56" x="177" y="135"></rect>
<rect class="terminal" height="32" rx="10" width="56" x="175" y="133"></rect>
<text class="terminal" x="185" y="153">READ</text>
<rect height="32" rx="10" width="120" x="51" y="179"></rect>
<rect class="terminal" height="32" rx="10" width="120" x="49" y="177"></rect>
<text class="terminal" x="59" y="197">SERIALIZABLE</text>
<path class="line" d="m17 17 h2 m20 0 h10 m56 0 h10 m20 0 h10 m124 0 h10 m-164 0 h20 m144 0 h20 m-184 0 q10 0 10 10 m164 0 q0 -10 10 -10 m-174 10 v24 m164 0 v-24 m-164 24 q0 10 10 10 m144 0 q10 0 10 -10 m-154 10 h10 m104 0 h10 m0 0 h20 m-260 -44 h20 m260 0 h20 m-300 0 q10 0 10 10 m280 0 q0 -10 10 -10 m-290 10 v68 m280 0 v-68 m-280 68 q0 10 10 10 m260 0 q10 0 10 -10 m-270 10 h10 m96 0 h10 m0 0 h144 m-270 -10 v20 m280 0 v-20 m-280 20 v24 m280 0 v-24 m-280 24 q0 10 10 10 m260 0 q10 0 10 -10 m-270 10 h10 m106 0 h10 m0 0 h10 m56 0 h10 m0 0 h58 m-270 -10 v20 m280 0 v-20 m-280 20 v24 m280 0 v-24 m-280 24 q0 10 10 10 m260 0 q10 0 10 -10 m-270 10 h10 m120 0 h10 m0 0 h120 m23 -176 h-3"></path>
<polygon points="329 17 337 13 337 21"></polygon>
<polygon points="329 17 321 13 321 21"></polygon></svg>