<svg height="37" width="403" xmlns="http://www.w3.org/2000/svg" xmlns:xlink="http://www.w3.org/1999/xlink"><style>svg {
  font-family: ui-monospace, SFMono-Regular, Menlo, Monaco, Consolas, "Liberation Mono", "Courier New", monospace;
}
text {
  fill: #2f3337;
  font-size: 14px;
}
rect {
  fill: #ffffff;
  stroke: #3a3d40;
  stroke-width: 2;
}
rect.terminal {
  fill: #ffffff;
}
rect.nonterminal {
  fill: #ffffff;
}
text.terminal {
  fill: #2f3337;
  font-weight: 600;
}
text.nonterminal {
  fill: #2563eb;
}
a text.nonterminal {
  text-decoration: underline;
}
path.line {
  fill: none;
  stroke: #3a3d40;
  stroke-width: 2;
}
polygon {
  fill: #2f3337;
  stroke: #2f3337;
}</style>
<polygon points="9 17 1 13 1 21"></polygon>
<polygon points="17 17 9 13 9 21"></polygon><a xlink:href="#func_expr_windowless" xlink:title="func_expr_windowless">
<rect height="32" width="162" x="31" y="3"></rect>
<rect class="nonterminal" height="32" width="162" x="29" y="1"></rect>
<text lengthAdjust="spacingAndGlyphs" textLength="138" font-size="11" class="nonterminal" x="41" y="21">func_expr_windowless</text></a><a xlink:href="#opt_func_alias_clause" xlink:title="opt_func_alias_clause">
<rect height="32" width="162" x="213" y="3"></rect>
<rect class="nonterminal" height="32" width="162" x="211" y="1"></rect>
<text lengthAdjust="spacingAndGlyphs" textLength="138" font-size="10" class="nonterminal" x="223" y="21">opt_func_alias_clause</text></a><path class="line" d="m17 17 h2 m0 0 h10 m162 0 h10 m0 0 h10 m162 0 h10 m3 0 h-3"></path>
<polygon points="393 17 401 13 401 21"></polygon>
<polygon points="393 17 385 13 385 21"></polygon></svg>