<svg height="113" width="285" xmlns="http://www.w3.org/2000/svg"><style>svg {
  font-family: ui-monospace, SFMono-Regular, Menlo, Monaco, Consolas, "Liberation Mono", "Courier New", monospace;
}
text {
  fill: #2f3337;
  font-size: 14px;
}
rect {
  fill: #ffffff;
  stroke: #3a3d40;
  stroke-width: 2;
}
rect.terminal {
  fill: #ffffff;
}
rect.nonterminal {
  fill: #ffffff;
}
text.terminal {
  fill: #2f3337;
  font-weight: 600;
}
text.nonterminal {
  fill: #2563eb;
}
a text.nonterminal {
  text-decoration: underline;
}
path.line {
  fill: none;
  stroke: #3a3d40;
  stroke-width: 2;
}
polygon {
  fill: #2f3337;
  stroke: #2f3337;
}</style>
<polygon points="9 17 1 13 1 21"></polygon>
<polygon points="17 17 9 13 9 21"></polygon>
<rect height="32" rx="10" width="44" x="51" y="3"></rect>
<rect class="terminal" height="32" rx="10" width="44" x="49" y="1"></rect>
<text class="terminal" x="59" y="21">BIT</text>
<rect height="32" rx="10" width="82" x="135" y="35"></rect>
<rect class="terminal" height="32" rx="10" width="82" x="133" y="33"></rect>
<text class="terminal" x="143" y="53">VARYING</text>
<rect height="32" rx="10" width="72" x="51" y="79"></rect>
<rect class="terminal" height="32" rx="10" width="72" x="49" y="77"></rect>
<text class="terminal" x="59" y="97">VARBIT</text>
<path class="line" d="m17 17 h2 m20 0 h10 m44 0 h10 m20 0 h10 m0 0 h92 m-122 0 h20 m102 0 h20 m-142 0 q10 0 10 10 m122 0 q0 -10 10 -10 m-132 10 v12 m122 0 v-12 m-122 12 q0 10 10 10 m102 0 q10 0 10 -10 m-112 10 h10 m82 0 h10 m-206 -32 h20 m206 0 h20 m-246 0 q10 0 10 10 m226 0 q0 -10 10 -10 m-236 10 v56 m226 0 v-56 m-226 56 q0 10 10 10 m206 0 q10 0 10 -10 m-216 10 h10 m72 0 h10 m0 0 h114 m23 -76 h-3"></path>
<polygon points="275 17 283 13 283 21"></polygon>
<polygon points="275 17 267 13 267 21"></polygon></svg>