<svg height="57" width="351" xmlns="http://www.w3.org/2000/svg" xmlns:xlink="http://www.w3.org/1999/xlink"><style>svg {
  font-family: ui-monospace, SFMono-Regular, Menlo, Monaco, Consolas, "Liberation Mono", "Courier New", monospace;
}
text {
  fill: #2f3337;
  font-size: 14px;
}
rect {
  fill: #ffffff;
  stroke: #3a3d40;
  stroke-width: 2;
}
rect.terminal {
  fill: #ffffff;
}
rect.nonterminal {
  fill: #ffffff;
}
text.terminal {
  fill: #2f3337;
  font-weight: 600;
}
text.nonterminal {
  fill: #2563eb;
}
a text.nonterminal {
  text-decoration: underline;
}
path.line {
  fill: none;
  stroke: #3a3d40;
  stroke-width: 2;
}
polygon {
  fill: #2f3337;
  stroke: #2f3337;
}</style>
<polygon points="9 5 1 1 1 9"></polygon>
<polygon points="17 5 9 1 9 9"></polygon>
<rect height="32" rx="10" width="68" x="51" y="23"></rect>
<rect class="terminal" height="32" rx="10" width="68" x="49" y="21"></rect>
<text class="terminal" x="59" y="41">GROUP</text>
<rect height="32" rx="10" width="38" x="139" y="23"></rect>
<rect class="terminal" height="32" rx="10" width="38" x="137" y="21"></rect>
<text class="terminal" x="147" y="41">BY</text><a xlink:href="#group_by_list" xlink:title="group_by_list">
<rect height="32" width="106" x="197" y="23"></rect>
<rect class="nonterminal" height="32" width="106" x="195" y="21"></rect>
<text lengthAdjust="spacingAndGlyphs" textLength="82" font-size="10" class="nonterminal" x="207" y="41">group_by_list</text></a><path class="line" d="m17 5 h2 m20 0 h10 m0 0 h262 m-292 0 h20 m272 0 h20 m-312 0 q10 0 10 10 m292 0 q0 -10 10 -10 m-302 10 v12 m292 0 v-12 m-292 12 q0 10 10 10 m272 0 q10 0 10 -10 m-282 10 h10 m68 0 h10 m0 0 h10 m38 0 h10 m0 0 h10 m106 0 h10 m23 -32 h-3"></path>
<polygon points="341 5 349 1 349 9"></polygon>
<polygon points="341 5 333 1 333 9"></polygon></svg>