<svg height="57" width="549" xmlns="http://www.w3.org/2000/svg" xmlns:xlink="http://www.w3.org/1999/xlink"><style>svg {
  font-family: ui-monospace, SFMono-Regular, Menlo, Monaco, Consolas, "Liberation Mono", "Courier New", monospace;
}
text {
  fill: #2f3337;
  font-size: 14px;
}
rect {
  fill: #ffffff;
  stroke: #3a3d40;
  stroke-width: 2;
}
rect.terminal {
  fill: #ffffff;
}
rect.nonterminal {
  fill: #ffffff;
}
text.terminal {
  fill: #2f3337;
  font-weight: 600;
}
text.nonterminal {
  fill: #2563eb;
}
a text.nonterminal {
  text-decoration: underline;
}
path.line {
  fill: none;
  stroke: #3a3d40;
  stroke-width: 2;
}
polygon {
  fill: #2f3337;
  stroke: #2f3337;
}</style>
<polygon points="9 5 1 1 1 9"></polygon>
<polygon points="17 5 9 1 9 9"></polygon>
<rect height="32" rx="10" width="108" x="51" y="23"></rect>
<rect class="terminal" height="32" rx="10" width="108" x="49" y="21"></rect>
<text class="terminal" x="59" y="41">LC_COLLATE</text><a xlink:href="#opt_equal" xlink:title="opt_equal">
<rect height="32" width="84" x="179" y="23"></rect>
<rect class="nonterminal" height="32" width="84" x="177" y="21"></rect>
<text lengthAdjust="spacingAndGlyphs" textLength="60" font-size="10" class="nonterminal" x="189" y="41">opt_equal</text></a><a xlink:href="#non_reserved_word_or_sconst" xlink:title="non_reserved_word_or_sconst">
<rect height="32" width="218" x="283" y="23"></rect>
<rect class="nonterminal" height="32" width="218" x="281" y="21"></rect>
<text lengthAdjust="spacingAndGlyphs" textLength="194" font-size="11" class="nonterminal" x="293" y="41">non_reserved_word_or_sconst</text></a><path class="line" d="m17 5 h2 m20 0 h10 m0 0 h460 m-490 0 h20 m470 0 h20 m-510 0 q10 0 10 10 m490 0 q0 -10 10 -10 m-500 10 v12 m490 0 v-12 m-490 12 q0 10 10 10 m470 0 q10 0 10 -10 m-480 10 h10 m108 0 h10 m0 0 h10 m84 0 h10 m0 0 h10 m218 0 h10 m23 -32 h-3"></path>
<polygon points="539 5 547 1 547 9"></polygon>
<polygon points="539 5 531 1 531 9"></polygon></svg>