<svg height="81" width="325" xmlns="http://www.w3.org/2000/svg"><style>svg {
  font-family: ui-monospace, SFMono-Regular, Menlo, Monaco, Consolas, "Liberation Mono", "Courier New", monospace;
}
text {
  fill: #2f3337;
  font-size: 14px;
}
rect {
  fill: #ffffff;
  stroke: #3a3d40;
  stroke-width: 2;
}
rect.terminal {
  fill: #ffffff;
}
rect.nonterminal {
  fill: #ffffff;
}
text.terminal {
  fill: #2f3337;
  font-weight: 600;
}
text.nonterminal {
  fill: #2563eb;
}
a text.nonterminal {
  text-decoration: underline;
}
path.line {
  fill: none;
  stroke: #3a3d40;
  stroke-width: 2;
}
polygon {
  fill: #2f3337;
  stroke: #2f3337;
}</style>
<polygon points="9 17 1 13 1 21"></polygon>
<polygon points="17 17 9 13 9 21"></polygon>
<rect height="32" rx="10" width="100" x="31" y="3"></rect>
<rect class="terminal" height="32" rx="10" width="100" x="29" y="1"></rect>
<text class="terminal" x="39" y="21">PLACEMENT</text>
<rect height="32" rx="10" width="106" x="171" y="3"></rect>
<rect class="terminal" height="32" rx="10" width="106" x="169" y="1"></rect>
<text class="terminal" x="179" y="21">RESTRICTED</text>
<rect height="32" rx="10" width="80" x="171" y="47"></rect>
<rect class="terminal" height="32" rx="10" width="80" x="169" y="45"></rect>
<text class="terminal" x="179" y="65">DEFAULT</text>
<path class="line" d="m17 17 h2 m0 0 h10 m100 0 h10 m20 0 h10 m106 0 h10 m-146 0 h20 m126 0 h20 m-166 0 q10 0 10 10 m146 0 q0 -10 10 -10 m-156 10 v24 m146 0 v-24 m-146 24 q0 10 10 10 m126 0 q10 0 10 -10 m-136 10 h10 m80 0 h10 m0 0 h26 m23 -44 h-3"></path>
<polygon points="315 17 323 13 323 21"></polygon>
<polygon points="315 17 307 13 307 21"></polygon></svg>