<svg height="169" width="187" xmlns="http://www.w3.org/2000/svg"><style>svg {
  font-family: ui-monospace, SFMono-Regular, Menlo, Monaco, Consolas, "Liberation Mono", "Courier New", monospace;
}
text {
  fill: #2f3337;
  font-size: 14px;
}
rect {
  fill: #ffffff;
  stroke: #3a3d40;
  stroke-width: 2;
}
rect.terminal {
  fill: #ffffff;
}
rect.nonterminal {
  fill: #ffffff;
}
text.terminal {
  fill: #2f3337;
  font-weight: 600;
}
text.nonterminal {
  fill: #2563eb;
}
a text.nonterminal {
  text-decoration: underline;
}
path.line {
  fill: none;
  stroke: #3a3d40;
  stroke-width: 2;
}
polygon {
  fill: #2f3337;
  stroke: #2f3337;
}</style>
<polygon points="9 17 1 13 1 21"></polygon>
<polygon points="17 17 9 13 9 21"></polygon>
<rect height="32" rx="10" width="86" x="51" y="3"></rect>
<rect class="terminal" height="32" rx="10" width="86" x="49" y="1"></rect>
<text class="terminal" x="59" y="21">SCHEMAS</text>
<rect height="32" rx="10" width="60" x="51" y="47"></rect>
<rect class="terminal" height="32" rx="10" width="60" x="49" y="45"></rect>
<text class="terminal" x="59" y="65">FILES</text>
<rect height="32" rx="10" width="76" x="51" y="91"></rect>
<rect class="terminal" height="32" rx="10" width="76" x="49" y="89"></rect>
<text class="terminal" x="59" y="109">RANGES</text>
<rect height="32" rx="10" width="88" x="51" y="135"></rect>
<rect class="terminal" height="32" rx="10" width="88" x="49" y="133"></rect>
<text class="terminal" x="59" y="153">VALIDATE</text>
<path class="line" d="m17 17 h2 m20 0 h10 m86 0 h10 m0 0 h2 m-128 0 h20 m108 0 h20 m-148 0 q10 0 10 10 m128 0 q0 -10 10 -10 m-138 10 v24 m128 0 v-24 m-128 24 q0 10 10 10 m108 0 q10 0 10 -10 m-118 10 h10 m60 0 h10 m0 0 h28 m-118 -10 v20 m128 0 v-20 m-128 20 v24 m128 0 v-24 m-128 24 q0 10 10 10 m108 0 q10 0 10 -10 m-118 10 h10 m76 0 h10 m0 0 h12 m-118 -10 v20 m128 0 v-20 m-128 20 v24 m128 0 v-24 m-128 24 q0 10 10 10 m108 0 q10 0 10 -10 m-118 10 h10 m88 0 h10 m23 -132 h-3"></path>
<polygon points="177 17 185 13 185 21"></polygon>
<polygon points="177 17 169 13 169 21"></polygon></svg>