<svg height="81" width="223" xmlns="http://www.w3.org/2000/svg"><style>svg {
  font-family: ui-monospace, SFMono-Regular, Menlo, Monaco, Consolas, "Liberation Mono", "Courier New", monospace;
}
text {
  fill: #2f3337;
  font-size: 14px;
}
rect {
  fill: #ffffff;
  stroke: #3a3d40;
  stroke-width: 2;
}
rect.terminal {
  fill: #ffffff;
}
rect.nonterminal {
  fill: #ffffff;
}
text.terminal {
  fill: #2f3337;
  font-weight: 600;
}
text.nonterminal {
  fill: #2563eb;
}
a text.nonterminal {
  text-decoration: underline;
}
path.line {
  fill: none;
  stroke: #3a3d40;
  stroke-width: 2;
}
polygon {
  fill: #2f3337;
  stroke: #2f3337;
}</style>
<polygon points="9 17 1 13 1 21"></polygon>
<polygon points="17 17 9 13 9 21"></polygon>
<rect height="32" rx="10" width="30" x="51" y="3"></rect>
<rect class="terminal" height="32" rx="10" width="30" x="49" y="1"></rect>
<text class="terminal" x="59" y="21">+</text>
<rect height="32" rx="10" width="26" x="51" y="47"></rect>
<rect class="terminal" height="32" rx="10" width="26" x="49" y="45"></rect>
<text class="terminal" x="59" y="65">-</text>
<rect height="32" rx="10" width="74" x="121" y="3"></rect>
<rect class="terminal" height="32" rx="10" width="74" x="119" y="1"></rect>
<text class="terminal" x="129" y="21">ICONST</text>
<path class="line" d="m17 17 h2 m20 0 h10 m30 0 h10 m-70 0 h20 m50 0 h20 m-90 0 q10 0 10 10 m70 0 q0 -10 10 -10 m-80 10 v24 m70 0 v-24 m-70 24 q0 10 10 10 m50 0 q10 0 10 -10 m-60 10 h10 m26 0 h10 m0 0 h4 m20 -44 h10 m74 0 h10 m3 0 h-3"></path>
<polygon points="213 17 221 13 221 21"></polygon>
<polygon points="213 17 205 13 205 21"></polygon></svg>