<svg height="69" width="617" xmlns="http://www.w3.org/2000/svg" xmlns:xlink="http://www.w3.org/1999/xlink"><style>svg {
  font-family: ui-monospace, SFMono-Regular, Menlo, Monaco, Consolas, "Liberation Mono", "Courier New", monospace;
}
text {
  fill: #2f3337;
  font-size: 14px;
}
rect {
  fill: #ffffff;
  stroke: #3a3d40;
  stroke-width: 2;
}
rect.terminal {
  fill: #ffffff;
}
rect.nonterminal {
  fill: #ffffff;
}
text.terminal {
  fill: #2f3337;
  font-weight: 600;
}
text.nonterminal {
  fill: #2563eb;
}
a text.nonterminal {
  text-decoration: underline;
}
path.line {
  fill: none;
  stroke: #3a3d40;
  stroke-width: 2;
}
polygon {
  fill: #2f3337;
  stroke: #2f3337;
}</style>
<polygon points="9 17 1 13 1 21"></polygon>
<polygon points="17 17 9 13 9 21"></polygon>
<rect height="32" rx="10" width="58" x="31" y="3"></rect>
<rect class="terminal" height="32" rx="10" width="58" x="29" y="1"></rect>
<text class="terminal" x="39" y="21">DROP</text><a xlink:href="#role_or_group_or_user" xlink:title="role_or_group_or_user">
<rect height="32" width="168" x="109" y="3"></rect>
<rect class="nonterminal" height="32" width="168" x="107" y="1"></rect>
<text lengthAdjust="spacingAndGlyphs" textLength="144" font-size="11" class="nonterminal" x="119" y="21">role_or_group_or_user</text></a><rect height="32" rx="10" width="34" x="317" y="35"></rect>
<rect class="terminal" height="32" rx="10" width="34" x="315" y="33"></rect>
<text class="terminal" x="325" y="53">IF</text>
<rect height="32" rx="10" width="70" x="371" y="35"></rect>
<rect class="terminal" height="32" rx="10" width="70" x="369" y="33"></rect>
<text class="terminal" x="379" y="53">EXISTS</text><a xlink:href="#role_spec_list" xlink:title="role_spec_list">
<rect height="32" width="108" x="481" y="3"></rect>
<rect class="nonterminal" height="32" width="108" x="479" y="1"></rect>
<text lengthAdjust="spacingAndGlyphs" textLength="84" font-size="10" class="nonterminal" x="491" y="21">role_spec_list</text></a><path class="line" d="m17 17 h2 m0 0 h10 m58 0 h10 m0 0 h10 m168 0 h10 m20 0 h10 m0 0 h134 m-164 0 h20 m144 0 h20 m-184 0 q10 0 10 10 m164 0 q0 -10 10 -10 m-174 10 v12 m164 0 v-12 m-164 12 q0 10 10 10 m144 0 q10 0 10 -10 m-154 10 h10 m34 0 h10 m0 0 h10 m70 0 h10 m20 -32 h10 m108 0 h10 m3 0 h-3"></path>
<polygon points="607 17 615 13 615 21"></polygon>
<polygon points="607 17 599 13 599 21"></polygon></svg>