<svg height="81" width="381" xmlns="http://www.w3.org/2000/svg" xmlns:xlink="http://www.w3.org/1999/xlink"><style>svg {
  font-family: ui-monospace, SFMono-Regular, Menlo, Monaco, Consolas, "Liberation Mono", "Courier New", monospace;
}
text {
  fill: #2f3337;
  font-size: 14px;
}
rect {
  fill: #ffffff;
  stroke: #3a3d40;
  stroke-width: 2;
}
rect.terminal {
  fill: #ffffff;
}
rect.nonterminal {
  fill: #ffffff;
}
text.terminal {
  fill: #2f3337;
  font-weight: 600;
}
text.nonterminal {
  fill: #2563eb;
}
a text.nonterminal {
  text-decoration: underline;
}
path.line {
  fill: none;
  stroke: #3a3d40;
  stroke-width: 2;
}
polygon {
  fill: #2f3337;
  stroke: #2f3337;
}</style>
<polygon points="9 17 1 13 1 21"></polygon>
<polygon points="17 17 9 13 9 21"></polygon>
<rect height="32" rx="10" width="44" x="51" y="3"></rect>
<rect class="terminal" height="32" rx="10" width="44" x="49" y="1"></rect>
<text class="terminal" x="59" y="21">SET</text>
<rect height="32" rx="10" width="40" x="115" y="3"></rect>
<rect class="terminal" height="32" rx="10" width="40" x="113" y="1"></rect>
<text class="terminal" x="123" y="21">ON</text>
<rect height="32" rx="10" width="74" x="175" y="3"></rect>
<rect class="terminal" height="32" rx="10" width="74" x="173" y="1"></rect>
<text class="terminal" x="183" y="21">UPDATE</text><a xlink:href="#b_expr" xlink:title="b_expr">
<rect height="32" width="64" x="269" y="3"></rect>
<rect class="nonterminal" height="32" width="64" x="267" y="1"></rect>
<text lengthAdjust="spacingAndGlyphs" textLength="40" font-size="10" class="nonterminal" x="279" y="21">b_expr</text></a><rect height="32" rx="10" width="58" x="51" y="47"></rect>
<rect class="terminal" height="32" rx="10" width="58" x="49" y="45"></rect>
<text class="terminal" x="59" y="65">DROP</text>
<rect height="32" rx="10" width="40" x="129" y="47"></rect>
<rect class="terminal" height="32" rx="10" width="40" x="127" y="45"></rect>
<text class="terminal" x="137" y="65">ON</text>
<rect height="32" rx="10" width="74" x="189" y="47"></rect>
<rect class="terminal" height="32" rx="10" width="74" x="187" y="45"></rect>
<text class="terminal" x="197" y="65">UPDATE</text>
<path class="line" d="m17 17 h2 m20 0 h10 m44 0 h10 m0 0 h10 m40 0 h10 m0 0 h10 m74 0 h10 m0 0 h10 m64 0 h10 m-322 0 h20 m302 0 h20 m-342 0 q10 0 10 10 m322 0 q0 -10 10 -10 m-332 10 v24 m322 0 v-24 m-322 24 q0 10 10 10 m302 0 q10 0 10 -10 m-312 10 h10 m58 0 h10 m0 0 h10 m40 0 h10 m0 0 h10 m74 0 h10 m0 0 h70 m23 -44 h-3"></path>
<polygon points="371 17 379 13 379 21"></polygon>
<polygon points="371 17 363 13 363 21"></polygon></svg>