<svg width="11" height="11" viewBox="0 0 11 11" fill="none" xmlns="http://www.w3.org/2000/svg">
<path fill-rule="evenodd" clip-rule="evenodd" d="M1.75373 0.387174C1.37633 0.00977659 0.764449 0.00977659 0.387052 0.387174C0.00965453 0.764571 0.00965453 1.37645 0.387052 1.75385L3.73733 5.10413L0.387052 8.4544C0.00965451 8.8318 0.00965451 9.44368 0.387052 9.82108C0.764449 10.1985 1.37633 10.1985 1.75373 9.82108L5.104 6.4708L8.45428 9.82108C8.83168 10.1985 9.44356 10.1985 9.82096 9.82108C10.1984 9.44368 10.1984 8.8318 9.82096 8.4544L6.47068 5.10413L9.82096 1.75385C10.1984 1.37645 10.1984 0.764571 9.82096 0.387174C9.44356 0.00977658 8.83168 0.00977658 8.45428 0.387174L5.104 3.73745L1.75373 0.387174Z" fill="white"/>
</svg>
