<svg height="257" width="729" xmlns="http://www.w3.org/2000/svg" xmlns:xlink="http://www.w3.org/1999/xlink"><style>svg {
  font-family: ui-monospace, SFMono-Regular, Menlo, Monaco, Consolas, "Liberation Mono", "Courier New", monospace;
}
text {
  fill: #2f3337;
  font-size: 14px;
}
rect {
  fill: #ffffff;
  stroke: #3a3d40;
  stroke-width: 2;
}
rect.terminal {
  fill: #ffffff;
}
rect.nonterminal {
  fill: #ffffff;
}
text.terminal {
  fill: #2f3337;
  font-weight: 600;
}
text.nonterminal {
  fill: #2563eb;
}
a text.nonterminal {
  text-decoration: underline;
}
path.line {
  fill: none;
  stroke: #3a3d40;
  stroke-width: 2;
}
polygon {
  fill: #2f3337;
  stroke: #2f3337;
}</style>
<polygon points="9 17 1 13 1 21"></polygon>
<polygon points="17 17 9 13 9 21"></polygon>
<rect height="32" rx="10" width="72" x="31" y="3"></rect>
<rect class="terminal" height="32" rx="10" width="72" x="29" y="1"></rect>
<text class="terminal" x="39" y="21">CREATE</text>
<rect height="32" rx="10" width="90" x="143" y="35"></rect>
<rect class="terminal" height="32" rx="10" width="90" x="141" y="33"></rect>
<text class="terminal" x="151" y="53">INVERTED</text>
<rect height="32" rx="10" width="64" x="273" y="3"></rect>
<rect class="terminal" height="32" rx="10" width="64" x="271" y="1"></rect>
<text class="terminal" x="281" y="21">INDEX</text><a xlink:href="/docs/v24.3/sql-grammar#opt_index_name" xlink:title="opt_index_name">
<rect height="32" width="126" x="377" y="3"></rect>
<rect class="nonterminal" height="32" width="126" x="375" y="1"></rect>
<text lengthAdjust="spacingAndGlyphs" textLength="102" font-size="11" class="nonterminal" x="387" y="21">opt_index_name</text></a><rect height="32" rx="10" width="34" x="377" y="47"></rect>
<rect class="terminal" height="32" rx="10" width="34" x="375" y="45"></rect>
<text class="terminal" x="385" y="65">IF</text>
<rect height="32" rx="10" width="48" x="431" y="47"></rect>
<rect class="terminal" height="32" rx="10" width="48" x="429" y="45"></rect>
<text class="terminal" x="439" y="65">NOT</text>
<rect height="32" rx="10" width="70" x="499" y="47"></rect>
<rect class="terminal" height="32" rx="10" width="70" x="497" y="45"></rect>
<text class="terminal" x="507" y="65">EXISTS</text><a xlink:href="/docs/v24.3/sql-grammar#index_name" xlink:title="index_name">
<rect height="32" width="98" x="589" y="47"></rect>
<rect class="nonterminal" height="32" width="98" x="587" y="45"></rect>
<text lengthAdjust="spacingAndGlyphs" textLength="74" font-size="11" class="nonterminal" x="599" y="65">index_name</text></a><rect height="32" rx="10" width="40" x="115" y="113"></rect>
<rect class="terminal" height="32" rx="10" width="40" x="113" y="111"></rect>
<text class="terminal" x="123" y="131">ON</text><a xlink:href="/docs/v24.3/sql-grammar#table_name" xlink:title="table_name">
<rect height="32" width="96" x="175" y="113"></rect>
<rect class="nonterminal" height="32" width="96" x="173" y="111"></rect>
<text lengthAdjust="spacingAndGlyphs" textLength="72" font-size="11" class="nonterminal" x="185" y="131">table_name</text></a><rect height="32" rx="10" width="26" x="291" y="113"></rect>
<rect class="terminal" height="32" rx="10" width="26" x="289" y="111"></rect>
<text class="terminal" x="299" y="131">(</text><a xlink:href="/docs/v24.3/sql-grammar#index_params" xlink:title="index_params">
<rect height="32" width="110" x="337" y="113"></rect>
<rect class="nonterminal" height="32" width="110" x="335" y="111"></rect>
<text lengthAdjust="spacingAndGlyphs" textLength="86" font-size="11" class="nonterminal" x="347" y="131">index_params</text></a><rect height="32" rx="10" width="26" x="467" y="113"></rect>
<rect class="terminal" height="32" rx="10" width="26" x="465" y="111"></rect>
<text class="terminal" x="475" y="131">)</text>
<rect height="32" rx="10" width="58" x="513" y="113"></rect>
<rect class="terminal" height="32" rx="10" width="58" x="511" y="111"></rect>
<text class="terminal" x="521" y="131">WITH</text>
<rect height="32" rx="10" width="26" x="591" y="113"></rect>
<rect class="terminal" height="32" rx="10" width="26" x="589" y="111"></rect>
<text class="terminal" x="599" y="131">(</text><a xlink:href="/docs/v24.3/sql-grammar#storage_parameter_key" xlink:title="storage_parameter_key">
<rect height="32" width="174" x="159" y="223"></rect>
<rect class="nonterminal" height="32" width="174" x="157" y="221"></rect>
<text lengthAdjust="spacingAndGlyphs" textLength="150" font-size="11" class="nonterminal" x="169" y="241">storage_parameter_key</text></a><rect height="32" rx="10" width="30" x="353" y="223"></rect>
<rect class="terminal" height="32" rx="10" width="30" x="351" y="221"></rect>
<text class="terminal" x="361" y="241">=</text><a xlink:href="/docs/v24.3/sql-grammar#var_value" xlink:title="var_value">
<rect height="32" width="82" x="403" y="223"></rect>
<rect class="nonterminal" height="32" width="82" x="401" y="221"></rect>
<text lengthAdjust="spacingAndGlyphs" textLength="58" font-size="10" class="nonterminal" x="413" y="241">var_value</text></a><rect height="32" rx="10" width="24" x="159" y="179"></rect>
<rect class="terminal" height="32" rx="10" width="24" x="157" y="177"></rect>
<text class="terminal" x="167" y="197">,</text>
<rect height="32" rx="10" width="26" x="525" y="223"></rect>
<rect class="terminal" height="32" rx="10" width="26" x="523" y="221"></rect>
<text class="terminal" x="533" y="241">)</text><a xlink:href="/docs/v24.3/sql-grammar#opt_index_visible" xlink:title="opt_index_visible">
<rect height="32" width="130" x="571" y="223"></rect>
<rect class="nonterminal" height="32" width="130" x="569" y="221"></rect>
<text lengthAdjust="spacingAndGlyphs" textLength="106" font-size="10" class="nonterminal" x="581" y="241">opt_index_visible</text></a><path class="line" d="m17 17 h2 m0 0 h10 m72 0 h10 m20 0 h10 m0 0 h100 m-130 0 h20 m110 0 h20 m-150 0 q10 0 10 10 m130 0 q0 -10 10 -10 m-140 10 v12 m130 0 v-12 m-130 12 q0 10 10 10 m110 0 q10 0 10 -10 m-120 10 h10 m90 0 h10 m20 -32 h10 m64 0 h10 m20 0 h10 m126 0 h10 m0 0 h184 m-350 0 h20 m330 0 h20 m-370 0 q10 0 10 10 m350 0 q0 -10 10 -10 m-360 10 v24 m350 0 v-24 m-350 24 q0 10 10 10 m330 0 q10 0 10 -10 m-340 10 h10 m34 0 h10 m0 0 h10 m48 0 h10 m0 0 h10 m70 0 h10 m0 0 h10 m98 0 h10 m22 -44 l2 0 m2 0 l2 0 m2 0 l2 0 m-636 110 l2 0 m2 0 l2 0 m2 0 l2 0 m2 0 h10 m40 0 h10 m0 0 h10 m96 0 h10 m0 0 h10 m26 0 h10 m0 0 h10 m110 0 h10 m0 0 h10 m26 0 h10 m0 0 h10 m58 0 h10 m0 0 h10 m26 0 h10 m2 0 l2 0 m2 0 l2 0 m2 0 l2 0 m-522 110 l2 0 m2 0 l2 0 m2 0 l2 0 m22 0 h10 m174 0 h10 m0 0 h10 m30 0 h10 m0 0 h10 m82 0 h10 m-366 0 l20 0 m-1 0 q-9 0 -9 -10 l0 -24 q0 -10 10 -10 m346 44 l20 0 m-20 0 q10 0 10 -10 l0 -24 q0 -10 -10 -10 m-346 0 h10 m24 0 h10 m0 0 h302 m20 44 h10 m26 0 h10 m0 0 h10 m130 0 h10 m3 0 h-3"></path>
<polygon points="719 237 727 233 727 241"></polygon>
<polygon points="719 237 711 233 711 241"></polygon></svg>