<svg height="37" width="365" xmlns="http://www.w3.org/2000/svg"><style>svg {
  font-family: ui-monospace, SFMono-Regular, Menlo, Monaco, Consolas, "Liberation Mono", "Courier New", monospace;
}
text {
  fill: #2f3337;
  font-size: 14px;
}
rect {
  fill: #ffffff;
  stroke: #3a3d40;
  stroke-width: 2;
}
rect.terminal {
  fill: #ffffff;
}
rect.nonterminal {
  fill: #ffffff;
}
text.terminal {
  fill: #2f3337;
  font-weight: 600;
}
text.nonterminal {
  fill: #2563eb;
}
a text.nonterminal {
  text-decoration: underline;
}
path.line {
  fill: none;
  stroke: #3a3d40;
  stroke-width: 2;
}
polygon {
  fill: #2f3337;
  stroke: #2f3337;
}</style>
<polygon points="9 17 1 13 1 21"></polygon>
<polygon points="17 17 9 13 9 21"></polygon>
<rect height="32" rx="10" width="64" x="31" y="3"></rect>
<rect class="terminal" height="32" rx="10" width="64" x="29" y="1"></rect>
<text class="terminal" x="39" y="21">SHOW</text>
<rect height="32" rx="10" width="54" x="115" y="3"></rect>
<rect class="terminal" height="32" rx="10" width="54" x="113" y="1"></rect>
<text class="terminal" x="123" y="21">FULL</text>
<rect height="32" rx="10" width="62" x="189" y="3"></rect>
<rect class="terminal" height="32" rx="10" width="62" x="187" y="1"></rect>
<text class="terminal" x="197" y="21">TABLE</text>
<rect height="32" rx="10" width="66" x="271" y="3"></rect>
<rect class="terminal" height="32" rx="10" width="66" x="269" y="1"></rect>
<text class="terminal" x="279" y="21">SCANS</text>
<path class="line" d="m17 17 h2 m0 0 h10 m64 0 h10 m0 0 h10 m54 0 h10 m0 0 h10 m62 0 h10 m0 0 h10 m66 0 h10 m3 0 h-3"></path>
<polygon points="355 17 363 13 363 21"></polygon>
<polygon points="355 17 347 13 347 21"></polygon></svg>