<svg height="223" width="671" xmlns="http://www.w3.org/2000/svg" xmlns:xlink="http://www.w3.org/1999/xlink"><style>svg {
  font-family: ui-monospace, SFMono-Regular, Menlo, Monaco, Consolas, "Liberation Mono", "Courier New", monospace;
}
text {
  fill: #2f3337;
  font-size: 14px;
}
rect {
  fill: #ffffff;
  stroke: #3a3d40;
  stroke-width: 2;
}
rect.terminal {
  fill: #ffffff;
}
rect.nonterminal {
  fill: #ffffff;
}
text.terminal {
  fill: #2f3337;
  font-weight: 600;
}
text.nonterminal {
  fill: #2563eb;
}
a text.nonterminal {
  text-decoration: underline;
}
path.line {
  fill: none;
  stroke: #3a3d40;
  stroke-width: 2;
}
polygon {
  fill: #2f3337;
  stroke: #2f3337;
}</style>
<polygon points="9 17 1 13 1 21"></polygon>
<polygon points="17 17 9 13 9 21"></polygon>
<rect height="32" rx="10" width="62" x="31" y="3"></rect>
<rect class="terminal" height="32" rx="10" width="62" x="29" y="1"></rect>
<text class="terminal" x="39" y="21">ALTER</text>
<rect height="32" rx="10" width="122" x="133" y="35"></rect>
<rect class="terminal" height="32" rx="10" width="122" x="131" y="33"></rect>
<text class="terminal" x="141" y="53">MATERIALIZED</text>
<rect height="32" rx="10" width="58" x="295" y="3"></rect>
<rect class="terminal" height="32" rx="10" width="58" x="293" y="1"></rect>
<text class="terminal" x="303" y="21">VIEW</text>
<rect height="32" rx="10" width="34" x="393" y="35"></rect>
<rect class="terminal" height="32" rx="10" width="34" x="391" y="33"></rect>
<text class="terminal" x="401" y="53">IF</text>
<rect height="32" rx="10" width="70" x="447" y="35"></rect>
<rect class="terminal" height="32" rx="10" width="70" x="445" y="33"></rect>
<text class="terminal" x="455" y="53">EXISTS</text>
<rect height="32" width="92" x="557" y="3"></rect>
<rect class="nonterminal" height="32" width="92" x="555" y="1"></rect>
<text lengthAdjust="spacingAndGlyphs" textLength="68" font-size="12" class="nonterminal" x="567" y="21">view_name</text><rect height="32" rx="10" width="76" x="343" y="101"></rect>
<rect class="terminal" height="32" rx="10" width="76" x="341" y="99"></rect>
<text class="terminal" x="351" y="119">RENAME</text>
<rect height="32" rx="10" width="38" x="439" y="101"></rect>
<rect class="terminal" height="32" rx="10" width="38" x="437" y="99"></rect>
<text class="terminal" x="447" y="119">TO</text>
<rect height="32" width="126" x="497" y="101"></rect>
<rect class="nonterminal" height="32" width="126" x="495" y="99"></rect>
<text lengthAdjust="spacingAndGlyphs" textLength="102" font-size="12" class="nonterminal" x="507" y="119">view_new_name</text><rect height="32" rx="10" width="44" x="343" y="145"></rect>
<rect class="terminal" height="32" rx="10" width="44" x="341" y="143"></rect>
<text class="terminal" x="351" y="163">SET</text>
<rect height="32" rx="10" width="76" x="407" y="145"></rect>
<rect class="terminal" height="32" rx="10" width="76" x="405" y="143"></rect>
<text class="terminal" x="415" y="163">SCHEMA</text><a xlink:href="/docs/stable/sql-grammar#schema_name" xlink:title="schema_name">
<rect height="32" width="112" x="503" y="145"></rect>
<rect class="nonterminal" height="32" width="112" x="501" y="143"></rect>
<text lengthAdjust="spacingAndGlyphs" textLength="88" font-size="12" class="nonterminal" x="513" y="163">schema_name</text></a><rect height="32" rx="10" width="72" x="343" y="189"></rect>
<rect class="terminal" height="32" rx="10" width="72" x="341" y="187"></rect>
<text class="terminal" x="351" y="207">OWNER</text>
<rect height="32" rx="10" width="38" x="435" y="189"></rect>
<rect class="terminal" height="32" rx="10" width="38" x="433" y="187"></rect>
<text class="terminal" x="443" y="207">TO</text><a xlink:href="/docs/stable/sql-grammar#role_spec" xlink:title="role_spec">
<rect height="32" width="82" x="493" y="189"></rect>
<rect class="nonterminal" height="32" width="82" x="491" y="187"></rect>
<text lengthAdjust="spacingAndGlyphs" textLength="58" font-size="10" class="nonterminal" x="503" y="207">role_spec</text></a><path class="line" d="m17 17 h2 m0 0 h10 m62 0 h10 m20 0 h10 m0 0 h132 m-162 0 h20 m142 0 h20 m-182 0 q10 0 10 10 m162 0 q0 -10 10 -10 m-172 10 v12 m162 0 v-12 m-162 12 q0 10 10 10 m142 0 q10 0 10 -10 m-152 10 h10 m122 0 h10 m20 -32 h10 m58 0 h10 m20 0 h10 m0 0 h134 m-164 0 h20 m144 0 h20 m-184 0 q10 0 10 10 m164 0 q0 -10 10 -10 m-174 10 v12 m164 0 v-12 m-164 12 q0 10 10 10 m144 0 q10 0 10 -10 m-154 10 h10 m34 0 h10 m0 0 h10 m70 0 h10 m20 -32 h10 m92 0 h10 m2 0 l2 0 m2 0 l2 0 m2 0 l2 0 m-370 98 l2 0 m2 0 l2 0 m2 0 l2 0 m22 0 h10 m76 0 h10 m0 0 h10 m38 0 h10 m0 0 h10 m126 0 h10 m-320 0 h20 m300 0 h20 m-340 0 q10 0 10 10 m320 0 q0 -10 10 -10 m-330 10 v24 m320 0 v-24 m-320 24 q0 10 10 10 m300 0 q10 0 10 -10 m-310 10 h10 m44 0 h10 m0 0 h10 m76 0 h10 m0 0 h10 m112 0 h10 m0 0 h8 m-310 -10 v20 m320 0 v-20 m-320 20 v24 m320 0 v-24 m-320 24 q0 10 10 10 m300 0 q10 0 10 -10 m-310 10 h10 m72 0 h10 m0 0 h10 m38 0 h10 m0 0 h10 m82 0 h10 m0 0 h48 m23 -88 h-3"></path>
<polygon points="661 115 669 111 669 119"></polygon>
<polygon points="661 115 653 111 653 119"></polygon></svg>