<svg width="70" height="78" viewBox="0 0 70 78" fill="none" xmlns="http://www.w3.org/2000/svg">
<path d="M34.7432 62.2558C26.1157 62.2558 16.9052 60.5103 16.9052 56.7866V20.9459C16.9052 17.3385 25.8825 15.4767 34.7432 15.4767C43.3707 15.4767 52.5811 17.2222 52.5811 20.9459V56.7866C52.5811 60.3939 43.6038 62.2558 34.7432 62.2558ZM34.7432 17.2222C24.3669 17.2222 18.6541 19.6659 18.6541 20.9459V56.7866C18.6541 58.2993 24.7166 60.5103 34.7432 60.5103C45.1195 60.5103 50.8323 58.0666 50.8323 56.7866V20.9459C50.8323 19.4331 44.6531 17.2222 34.7432 17.2222Z" fill="black"/>
<path d="M34.7432 26.066C25.9991 26.066 17.0219 24.0878 17.0219 20.4805H18.7707C18.7707 22.1096 24.9498 24.3205 34.7432 24.3205C44.5366 24.3205 50.7157 21.9932 50.7157 20.4805H52.4645C52.4645 24.2042 43.4873 26.066 34.7432 26.066Z" fill="black"/>
<path d="M34.7432 38.1681C27.165 38.1681 20.5195 37.0044 17.3716 35.0262L18.3043 33.5134C21.1024 35.2589 27.6313 36.4226 34.7432 36.4226C41.855 36.4226 48.3839 35.2589 51.1821 33.5134L52.1148 35.0262C48.9669 36.888 42.3214 38.1681 34.7432 38.1681Z" fill="black"/>
<path d="M34.7432 50.2701C27.165 50.2701 20.5195 49.1064 17.3716 47.1282L18.3043 45.6155C21.1024 47.361 27.6313 48.5246 34.7432 48.5246C41.855 48.5246 48.3839 47.361 51.1821 45.6155L52.1148 47.1282C48.9669 48.9901 42.3214 50.2701 34.7432 50.2701Z" fill="black"/>
<path d="M69.4863 38.8662C69.4863 21.6441 56.7783 7.09832 39.7564 4.65464C39.5233 2.09459 37.3081 0 34.7432 0C32.0616 0 29.9631 1.97822 29.7299 4.65464C12.7081 7.09832 0 21.6441 0 38.8662C0 56.0884 12.7081 70.6341 29.6133 73.1942C29.8465 75.7542 32.0616 77.8488 34.6266 77.8488C37.1915 77.8488 39.4067 75.8706 39.6399 73.1942C56.7783 70.7505 69.4863 56.0884 69.4863 38.8662ZM34.7432 1.74549C36.6086 1.74549 38.1242 3.25825 38.1242 5.1201C38.1242 6.98195 36.6086 8.49471 34.7432 8.49471C32.8778 8.49471 31.3621 6.98195 31.3621 5.1201C31.3621 3.25825 32.8778 1.74549 34.7432 1.74549ZM34.7432 75.9869C32.8778 75.9869 31.3621 74.4742 31.3621 72.6123C31.3621 70.7505 32.8778 69.2377 34.7432 69.2377C36.6086 69.2377 38.1242 70.7505 38.1242 72.6123C38.1242 74.5905 36.6086 75.9869 34.7432 75.9869ZM39.6399 71.4487C39.0569 69.2377 37.0749 67.6086 34.7432 67.6086C32.4114 67.6086 30.3128 69.2377 29.8465 71.4487C13.7574 69.005 1.74882 55.1574 1.74882 38.8662C1.74882 22.575 13.7574 8.72744 29.8465 6.28376C30.4294 8.49471 32.4114 10.1238 34.7432 10.1238C37.0749 10.1238 39.1735 8.49471 39.6399 6.28376C55.729 8.72744 67.7375 22.575 67.7375 38.8662C67.7375 55.1574 55.729 69.005 39.6399 71.4487Z" fill="url(#paint0_linear)"/>
<defs>
<linearGradient id="paint0_linear" x1="10.5002" y1="63.0753" x2="57.9136" y2="15.5716" gradientUnits="userSpaceOnUse">
<stop stop-color="#1BF8EC"/>
<stop offset="0.33" stop-color="#6933FF"/>
<stop offset="1" stop-color="#0037A5"/>
</linearGradient>
</defs>
</svg>
