<svg height="37" width="445" xmlns="http://www.w3.org/2000/svg"><style>svg {
  font-family: ui-monospace, SFMono-Regular, Menlo, Monaco, Consolas, "Liberation Mono", "Courier New", monospace;
}
text {
  fill: #2f3337;
  font-size: 14px;
}
rect {
  fill: #ffffff;
  stroke: #3a3d40;
  stroke-width: 2;
}
rect.terminal {
  fill: #ffffff;
}
rect.nonterminal {
  fill: #ffffff;
}
text.terminal {
  fill: #2f3337;
  font-weight: 600;
}
text.nonterminal {
  fill: #2563eb;
}
a text.nonterminal {
  text-decoration: underline;
}
path.line {
  fill: none;
  stroke: #3a3d40;
  stroke-width: 2;
}
polygon {
  fill: #2f3337;
  stroke: #2f3337;
}</style>
<polygon points="9 17 1 13 1 21"></polygon>
<polygon points="17 17 9 13 9 21"></polygon>
<rect height="32" rx="10" width="54" x="31" y="3"></rect>
<rect class="terminal" height="32" rx="10" width="54" x="29" y="1"></rect>
<text class="terminal" x="39" y="21">CALL</text>
<rect height="32" width="90" x="105" y="3"></rect>
<rect class="nonterminal" height="32" width="90" x="103" y="1"></rect>
<text lengthAdjust="spacingAndGlyphs" textLength="66" font-size="11" class="nonterminal" x="115" y="21">proc_name</text><rect height="32" rx="10" width="26" x="215" y="3"></rect>
<rect class="terminal" height="32" rx="10" width="26" x="213" y="1"></rect>
<text class="terminal" x="223" y="21">(</text>
<rect height="32" width="110" x="261" y="3"></rect>
<rect class="nonterminal" height="32" width="110" x="259" y="1"></rect>
<text lengthAdjust="spacingAndGlyphs" textLength="86" font-size="11" class="nonterminal" x="271" y="21">param_values</text><rect height="32" rx="10" width="26" x="391" y="3"></rect>
<rect class="terminal" height="32" rx="10" width="26" x="389" y="1"></rect>
<text class="terminal" x="399" y="21">)</text>
<path class="line" d="m17 17 h2 m0 0 h10 m54 0 h10 m0 0 h10 m90 0 h10 m0 0 h10 m26 0 h10 m0 0 h10 m110 0 h10 m0 0 h10 m26 0 h10 m3 0 h-3"></path>
<polygon points="435 17 443 13 443 21"></polygon>
<polygon points="435 17 427 13 427 21"></polygon></svg>