<svg height="313" width="1341" xmlns="http://www.w3.org/2000/svg" xmlns:xlink="http://www.w3.org/1999/xlink"><style>svg {
  font-family: ui-monospace, SFMono-Regular, Menlo, Monaco, Consolas, "Liberation Mono", "Courier New", monospace;
}
text {
  fill: #2f3337;
  font-size: 14px;
}
rect {
  fill: #ffffff;
  stroke: #3a3d40;
  stroke-width: 2;
}
rect.terminal {
  fill: #ffffff;
}
rect.nonterminal {
  fill: #ffffff;
}
text.terminal {
  fill: #2f3337;
  font-weight: 600;
}
text.nonterminal {
  fill: #2563eb;
}
a text.nonterminal {
  text-decoration: underline;
}
path.line {
  fill: none;
  stroke: #3a3d40;
  stroke-width: 2;
}
polygon {
  fill: #2f3337;
  stroke: #2f3337;
}</style>
<polygon points="11 17 3 13 3 21"></polygon>
<polygon points="19 17 11 13 11 21"></polygon>
<rect height="32" rx="10" width="72" x="33" y="3"></rect>
<rect class="terminal" height="32" rx="10" width="72" x="31" y="1"></rect>
<text class="terminal" x="41" y="21">CREATE</text>
<rect height="32" rx="10" width="80" x="125" y="3"></rect>
<rect class="terminal" height="32" rx="10" width="80" x="123" y="1"></rect>
<text class="terminal" x="133" y="21">VIRTUAL</text>
<rect height="32" rx="10" width="82" x="225" y="3"></rect>
<rect class="terminal" height="32" rx="10" width="82" x="223" y="1"></rect>
<text class="terminal" x="233" y="21">CLUSTER</text>
<rect height="32" rx="10" width="34" x="347" y="35"></rect>
<rect class="terminal" height="32" rx="10" width="34" x="345" y="33"></rect>
<text class="terminal" x="355" y="53">IF</text>
<rect height="32" rx="10" width="48" x="401" y="35"></rect>
<rect class="terminal" height="32" rx="10" width="48" x="399" y="33"></rect>
<text class="terminal" x="409" y="53">NOT</text>
<rect height="32" rx="10" width="70" x="469" y="35"></rect>
<rect class="terminal" height="32" rx="10" width="70" x="467" y="33"></rect>
<text class="terminal" x="477" y="53">EXISTS</text>
<a xlink:title="virtual_cluster_name" xmlns:xlink="http://www.w3.org/1999/xlink">
<rect height="32" width="154" x="579" y="3"></rect>
<rect class="nonterminal" height="32" width="154" x="577" y="1"></rect>
<text lengthAdjust="spacingAndGlyphs" textLength="130" font-size="10" class="nonterminal" x="589" y="21">virtual_cluster_name</text>
</a>
<rect height="32" rx="10" width="52" x="563" y="117"></rect>
<rect class="terminal" height="32" rx="10" width="52" x="561" y="115"></rect>
<text class="terminal" x="571" y="135">LIKE</text>
<a xlink:title="virtual_cluster_spec" xmlns:xlink="http://www.w3.org/1999/xlink">
<rect height="32" width="148" x="635" y="117"></rect>
<rect class="nonterminal" height="32" width="148" x="633" y="115"></rect>
<text lengthAdjust="spacingAndGlyphs" textLength="124" font-size="10" class="nonterminal" x="645" y="135">virtual_cluster_spec</text>
</a>
<rect height="32" rx="10" width="60" x="45" y="203"></rect>
<rect class="terminal" height="32" rx="10" width="60" x="43" y="201"></rect>
<text class="terminal" x="53" y="221">FROM</text>
<rect height="32" rx="10" width="114" x="125" y="203"></rect>
<rect class="terminal" height="32" rx="10" width="114" x="123" y="201"></rect>
<text class="terminal" x="133" y="221">REPLICATION</text>
<rect height="32" rx="10" width="38" x="259" y="203"></rect>
<rect class="terminal" height="32" rx="10" width="38" x="257" y="201"></rect>
<text class="terminal" x="267" y="221">OF</text>
<a xlink:title="primary_virtual_cluster" xmlns:xlink="http://www.w3.org/1999/xlink">
<rect height="32" width="166" x="317" y="203"></rect>
<rect class="nonterminal" height="32" width="166" x="315" y="201"></rect>
<text lengthAdjust="spacingAndGlyphs" textLength="142" font-size="10" class="nonterminal" x="327" y="221">primary_virtual_cluster</text>
</a>
<rect height="32" rx="10" width="40" x="503" y="203"></rect>
<rect class="terminal" height="32" rx="10" width="40" x="501" y="201"></rect>
<text class="terminal" x="511" y="221">ON</text>
<a xlink:title="primary_connection_string" xmlns:xlink="http://www.w3.org/1999/xlink">
<rect height="32" width="188" x="563" y="203"></rect>
<rect class="nonterminal" height="32" width="188" x="561" y="201"></rect>
<text lengthAdjust="spacingAndGlyphs" textLength="164" font-size="10" class="nonterminal" x="573" y="221">primary_connection_string</text>
</a>
<rect height="32" rx="10" width="58" x="791" y="235"></rect>
<rect class="terminal" height="32" rx="10" width="58" x="789" y="233"></rect>
<text class="terminal" x="799" y="253">WITH</text>
<a xlink:title="replication_options_list" xmlns:xlink="http://www.w3.org/1999/xlink">
<rect height="32" width="168" x="889" y="235"></rect>
<rect class="nonterminal" height="32" width="168" x="887" y="233"></rect>
<text lengthAdjust="spacingAndGlyphs" textLength="144" font-size="10" class="nonterminal" x="899" y="253">replication_options_list</text>
</a>
<rect height="32" rx="10" width="84" x="889" y="279"></rect>
<rect class="terminal" height="32" rx="10" width="84" x="887" y="277"></rect>
<text class="terminal" x="897" y="297">OPTIONS</text>
<rect height="32" rx="10" width="26" x="993" y="279"></rect>
<rect class="terminal" height="32" rx="10" width="26" x="991" y="277"></rect>
<text class="terminal" x="1001" y="297">(</text>
<a xlink:title="replication_options_list" xmlns:xlink="http://www.w3.org/1999/xlink">
<rect height="32" width="168" x="1039" y="279"></rect>
<rect class="nonterminal" height="32" width="168" x="1037" y="277"></rect>
<text lengthAdjust="spacingAndGlyphs" textLength="144" font-size="10" class="nonterminal" x="1049" y="297">replication_options_list</text>
</a>
<rect height="32" rx="10" width="26" x="1227" y="279"></rect>
<rect class="terminal" height="32" rx="10" width="26" x="1225" y="277"></rect>
<text class="terminal" x="1235" y="297">)</text>
<path class="line" d="m19 17 h2 m0 0 h10 m72 0 h10 m0 0 h10 m80 0 h10 m0 0 h10 m82 0 h10 m20 0 h10 m0 0 h202 m-232 0 h20 m212 0 h20 m-252 0 q10 0 10 10 m232 0 q0 -10 10 -10 m-242 10 v12 m232 0 v-12 m-232 12 q0 10 10 10 m212 0 q10 0 10 -10 m-222 10 h10 m34 0 h10 m0 0 h10 m48 0 h10 m0 0 h10 m70 0 h10 m20 -32 h10 m154 0 h10 m2 0 l2 0 m2 0 l2 0 m2 0 l2 0 m-234 82 l2 0 m2 0 l2 0 m2 0 l2 0 m22 0 h10 m0 0 h230 m-260 0 h20 m240 0 h20 m-280 0 q10 0 10 10 m260 0 q0 -10 10 -10 m-270 10 v12 m260 0 v-12 m-260 12 q0 10 10 10 m240 0 q10 0 10 -10 m-250 10 h10 m52 0 h10 m0 0 h10 m148 0 h10 m22 -32 l2 0 m2 0 l2 0 m2 0 l2 0 m-822 86 l2 0 m2 0 l2 0 m2 0 l2 0 m22 0 h10 m0 0 h1258 m-1288 0 h20 m1268 0 h20 m-1308 0 q10 0 10 10 m1288 0 q0 -10 10 -10 m-1298 10 v12 m1288 0 v-12 m-1288 12 q0 10 10 10 m1268 0 q10 0 10 -10 m-1278 10 h10 m60 0 h10 m0 0 h10 m114 0 h10 m0 0 h10 m38 0 h10 m0 0 h10 m166 0 h10 m0 0 h10 m40 0 h10 m0 0 h10 m188 0 h10 m20 0 h10 m0 0 h492 m-522 0 h20 m502 0 h20 m-542 0 q10 0 10 10 m522 0 q0 -10 10 -10 m-532 10 v12 m522 0 v-12 m-522 12 q0 10 10 10 m502 0 q10 0 10 -10 m-512 10 h10 m58 0 h10 m20 0 h10 m168 0 h10 m0 0 h196 m-404 0 h20 m384 0 h20 m-424 0 q10 0 10 10 m404 0 q0 -10 10 -10 m-414 10 v24 m404 0 v-24 m-404 24 q0 10 10 10 m384 0 q10 0 10 -10 m-394 10 h10 m84 0 h10 m0 0 h10 m26 0 h10 m0 0 h10 m168 0 h10 m0 0 h10 m26 0 h10 m63 -108 h-3"></path>
<polygon points="1331 185 1339 181 1339 189"></polygon>
<polygon points="1331 185 1323 181 1323 189"></polygon>
</svg>