<svg height="557" width="1549" xmlns="http://www.w3.org/2000/svg" xmlns:xlink="http://www.w3.org/1999/xlink"><style>svg {
  font-family: ui-monospace, SFMono-Regular, Menlo, Monaco, Consolas, "Liberation Mono", "Courier New", monospace;
}
text {
  fill: #2f3337;
  font-size: 14px;
}
rect {
  fill: #ffffff;
  stroke: #3a3d40;
  stroke-width: 2;
}
rect.terminal {
  fill: #ffffff;
}
rect.nonterminal {
  fill: #ffffff;
}
text.terminal {
  fill: #2f3337;
  font-weight: 600;
}
text.nonterminal {
  fill: #2563eb;
}
a text.nonterminal {
  text-decoration: underline;
}
path.line {
  fill: none;
  stroke: #3a3d40;
  stroke-width: 2;
}
polygon {
  fill: #2f3337;
  stroke: #2f3337;
}</style>
<polygon points="11 17 3 13 3 21"></polygon>
<polygon points="19 17 11 13 11 21"></polygon>
<rect height="32" rx="10" width="62" x="33" y="3"></rect>
<rect class="terminal" height="32" rx="10" width="62" x="31" y="1"></rect>
<text class="terminal" x="41" y="21">ALTER</text>
<rect height="32" rx="10" width="66" x="115" y="3"></rect>
<rect class="terminal" height="32" rx="10" width="66" x="113" y="1"></rect>
<text class="terminal" x="123" y="21">RANGE</text>
<rect height="32" width="76" x="45" y="85"></rect>
<rect class="nonterminal" height="32" width="76" x="43" y="83"></rect>
<text lengthAdjust="spacingAndGlyphs" textLength="52" font-size="10" class="nonterminal" x="55" y="103">range_id</text><rect height="32" rx="10" width="102" x="161" y="85"></rect>
<rect class="terminal" height="32" rx="10" width="102" x="159" y="83"></rect>
<text class="terminal" x="169" y="103">CONFIGURE</text>
<rect height="32" rx="10" width="58" x="283" y="85"></rect>
<rect class="terminal" height="32" rx="10" width="58" x="281" y="83"></rect>
<text class="terminal" x="291" y="103">ZONE</text>
<rect height="32" rx="10" width="64" x="381" y="85"></rect>
<rect class="terminal" height="32" rx="10" width="64" x="379" y="83"></rect>
<text class="terminal" x="389" y="103">USING</text><a xlink:href="/docs/v24.1/sql-grammar#var_name" xlink:title="var_name">
<rect height="32" width="84" x="465" y="85"></rect>
<rect class="nonterminal" height="32" width="84" x="463" y="83"></rect>
<text lengthAdjust="spacingAndGlyphs" textLength="60" font-size="12" class="nonterminal" x="475" y="103">var_name</text></a><rect height="32" rx="10" width="30" x="569" y="85"></rect>
<rect class="terminal" height="32" rx="10" width="30" x="567" y="83"></rect>
<text class="terminal" x="577" y="103">=</text>
<rect height="32" rx="10" width="58" x="639" y="85"></rect>
<rect class="terminal" height="32" rx="10" width="58" x="637" y="83"></rect>
<text class="terminal" x="647" y="103">COPY</text>
<rect height="32" rx="10" width="60" x="717" y="85"></rect>
<rect class="terminal" height="32" rx="10" width="60" x="715" y="83"></rect>
<text class="terminal" x="725" y="103">FROM</text>
<rect height="32" rx="10" width="74" x="797" y="85"></rect>
<rect class="terminal" height="32" rx="10" width="74" x="795" y="83"></rect>
<text class="terminal" x="805" y="103">PARENT</text><a xlink:href="/docs/v24.1/sql-grammar#var_value" xlink:title="var_value">
<rect height="32" width="82" x="639" y="129"></rect>
<rect class="nonterminal" height="32" width="82" x="637" y="127"></rect>
<text lengthAdjust="spacingAndGlyphs" textLength="58" font-size="10" class="nonterminal" x="649" y="147">var_value</text></a><rect height="32" rx="10" width="24" x="951" y="85"></rect>
<rect class="terminal" height="32" rx="10" width="24" x="949" y="83"></rect>
<text class="terminal" x="959" y="103">,</text><a xlink:href="/docs/v24.1/sql-grammar#var_name" xlink:title="var_name">
<rect height="32" width="84" x="995" y="85"></rect>
<rect class="nonterminal" height="32" width="84" x="993" y="83"></rect>
<text lengthAdjust="spacingAndGlyphs" textLength="60" font-size="12" class="nonterminal" x="1005" y="103">var_name</text></a><rect height="32" rx="10" width="30" x="1099" y="85"></rect>
<rect class="terminal" height="32" rx="10" width="30" x="1097" y="83"></rect>
<text class="terminal" x="1107" y="103">=</text><a xlink:href="/docs/v24.1/sql-grammar#var_value" xlink:title="var_value">
<rect height="32" width="82" x="1169" y="85"></rect>
<rect class="nonterminal" height="32" width="82" x="1167" y="83"></rect>
<text lengthAdjust="spacingAndGlyphs" textLength="58" font-size="10" class="nonterminal" x="1179" y="103">var_value</text></a><rect height="32" rx="10" width="58" x="1169" y="129"></rect>
<rect class="terminal" height="32" rx="10" width="58" x="1167" y="127"></rect>
<text class="terminal" x="1177" y="147">COPY</text>
<rect height="32" rx="10" width="60" x="1247" y="129"></rect>
<rect class="terminal" height="32" rx="10" width="60" x="1245" y="127"></rect>
<text class="terminal" x="1255" y="147">FROM</text>
<rect height="32" rx="10" width="74" x="1327" y="129"></rect>
<rect class="terminal" height="32" rx="10" width="74" x="1325" y="127"></rect>
<text class="terminal" x="1335" y="147">PARENT</text>
<rect height="32" rx="10" width="82" x="381" y="195"></rect>
<rect class="terminal" height="32" rx="10" width="82" x="379" y="193"></rect>
<text class="terminal" x="389" y="213">DISCARD</text>
<rect height="32" rx="10" width="90" x="161" y="239"></rect>
<rect class="terminal" height="32" rx="10" width="90" x="159" y="237"></rect>
<text class="terminal" x="169" y="257">RELOCATE</text>
<rect height="32" rx="10" width="62" x="291" y="239"></rect>
<rect class="terminal" height="32" rx="10" width="62" x="289" y="237"></rect>
<text class="terminal" x="299" y="257">LEASE</text>
<rect height="32" rx="10" width="74" x="311" y="315"></rect>
<rect class="terminal" height="32" rx="10" width="74" x="309" y="313"></rect>
<text class="terminal" x="319" y="333">VOTERS</text>
<rect height="32" rx="10" width="106" x="311" y="359"></rect>
<rect class="terminal" height="32" rx="10" width="106" x="309" y="357"></rect>
<text class="terminal" x="319" y="377">NONVOTERS</text>
<rect height="32" rx="10" width="60" x="457" y="283"></rect>
<rect class="terminal" height="32" rx="10" width="60" x="455" y="281"></rect>
<text class="terminal" x="465" y="301">FROM</text><a xlink:href="/docs/v24.1/sql-grammar#a_expr" xlink:title="a_expr">
<rect height="32" width="64" x="537" y="283"></rect>
<rect class="nonterminal" height="32" width="64" x="535" y="281"></rect>
<text lengthAdjust="spacingAndGlyphs" textLength="40" font-size="10" class="nonterminal" x="547" y="301">a_expr</text></a><rect height="32" rx="10" width="38" x="641" y="239"></rect>
<rect class="terminal" height="32" rx="10" width="38" x="639" y="237"></rect>
<text class="terminal" x="649" y="257">TO</text><a xlink:href="/docs/v24.1/sql-grammar#a_expr" xlink:title="a_expr">
<rect height="32" width="64" x="699" y="239"></rect>
<rect class="nonterminal" height="32" width="64" x="697" y="237"></rect>
<text lengthAdjust="spacingAndGlyphs" textLength="40" font-size="10" class="nonterminal" x="709" y="257">a_expr</text></a><rect height="32" rx="10" width="90" x="45" y="403"></rect>
<rect class="terminal" height="32" rx="10" width="90" x="43" y="401"></rect>
<text class="terminal" x="53" y="421">RELOCATE</text>
<rect height="32" rx="10" width="62" x="175" y="403"></rect>
<rect class="terminal" height="32" rx="10" width="62" x="173" y="401"></rect>
<text class="terminal" x="183" y="421">LEASE</text>
<rect height="32" rx="10" width="74" x="195" y="479"></rect>
<rect class="terminal" height="32" rx="10" width="74" x="193" y="477"></rect>
<text class="terminal" x="203" y="497">VOTERS</text>
<rect height="32" rx="10" width="106" x="195" y="523"></rect>
<rect class="terminal" height="32" rx="10" width="106" x="193" y="521"></rect>
<text class="terminal" x="203" y="541">NONVOTERS</text>
<rect height="32" rx="10" width="60" x="341" y="447"></rect>
<rect class="terminal" height="32" rx="10" width="60" x="339" y="445"></rect>
<text class="terminal" x="349" y="465">FROM</text><a xlink:href="/docs/v24.1/sql-grammar#a_expr" xlink:title="a_expr">
<rect height="32" width="64" x="421" y="447"></rect>
<rect class="nonterminal" height="32" width="64" x="419" y="445"></rect>
<text lengthAdjust="spacingAndGlyphs" textLength="40" font-size="10" class="nonterminal" x="431" y="465">a_expr</text></a><rect height="32" rx="10" width="38" x="525" y="403"></rect>
<rect class="terminal" height="32" rx="10" width="38" x="523" y="401"></rect>
<text class="terminal" x="533" y="421">TO</text><a xlink:href="/docs/v24.1/sql-grammar#a_expr" xlink:title="a_expr">
<rect height="32" width="64" x="583" y="403"></rect>
<rect class="nonterminal" height="32" width="64" x="581" y="401"></rect>
<text lengthAdjust="spacingAndGlyphs" textLength="40" font-size="10" class="nonterminal" x="593" y="421">a_expr</text></a><rect height="32" rx="10" width="48" x="667" y="403"></rect>
<rect class="terminal" height="32" rx="10" width="48" x="665" y="401"></rect>
<text class="terminal" x="675" y="421">FOR</text><a xlink:href="/docs/v24.1/sql-grammar#select_stmt" xlink:title="select_stmt">
<rect height="32" width="94" x="735" y="403"></rect>
<rect class="nonterminal" height="32" width="94" x="733" y="401"></rect>
<text lengthAdjust="spacingAndGlyphs" textLength="70" font-size="10" class="nonterminal" x="745" y="421">select_stmt</text></a><path class="line" d="m19 17 h2 m0 0 h10 m62 0 h10 m0 0 h10 m66 0 h10 m2 0 l2 0 m2 0 l2 0 m2 0 l2 0 m-200 82 l2 0 m2 0 l2 0 m2 0 l2 0 m22 0 h10 m76 0 h10 m20 0 h10 m102 0 h10 m0 0 h10 m58 0 h10 m20 0 h10 m64 0 h10 m0 0 h10 m84 0 h10 m0 0 h10 m30 0 h10 m20 0 h10 m58 0 h10 m0 0 h10 m60 0 h10 m0 0 h10 m74 0 h10 m-272 0 h20 m252 0 h20 m-292 0 q10 0 10 10 m272 0 q0 -10 10 -10 m-282 10 v24 m272 0 v-24 m-272 24 q0 10 10 10 m252 0 q10 0 10 -10 m-262 10 h10 m82 0 h10 m0 0 h150 m60 -44 h10 m24 0 h10 m0 0 h10 m84 0 h10 m0 0 h10 m30 0 h10 m20 0 h10 m82 0 h10 m0 0 h150 m-272 0 h20 m252 0 h20 m-292 0 q10 0 10 10 m272 0 q0 -10 10 -10 m-282 10 v24 m272 0 v-24 m-272 24 q0 10 10 10 m252 0 q10 0 10 -10 m-262 10 h10 m58 0 h10 m0 0 h10 m60 0 h10 m0 0 h10 m74 0 h10 m-490 -44 l20 0 m-1 0 q-9 0 -9 -10 l0 -12 q0 -10 10 -10 m490 32 l20 0 m-20 0 q10 0 10 -10 l0 -12 q0 -10 -10 -10 m-490 0 h10 m0 0 h480 m-530 32 h20 m530 0 h20 m-570 0 q10 0 10 10 m550 0 q0 -10 10 -10 m-560 10 v58 m550 0 v-58 m-550 58 q0 10 10 10 m530 0 q10 0 10 -10 m-540 10 h10 m0 0 h520 m-1100 -78 h20 m1100 0 h20 m-1140 0 q10 0 10 10 m1120 0 q0 -10 10 -10 m-1130 10 v90 m1120 0 v-90 m-1120 90 q0 10 10 10 m1100 0 q10 0 10 -10 m-1110 10 h10 m82 0 h10 m0 0 h998 m-1340 -110 h20 m1340 0 h20 m-1380 0 q10 0 10 10 m1360 0 q0 -10 10 -10 m-1370 10 v134 m1360 0 v-134 m-1360 134 q0 10 10 10 m1340 0 q10 0 10 -10 m-1350 10 h10 m90 0 h10 m20 0 h10 m62 0 h10 m0 0 h248 m-350 0 h20 m330 0 h20 m-370 0 q10 0 10 10 m350 0 q0 -10 10 -10 m-360 10 v24 m350 0 v-24 m-350 24 q0 10 10 10 m330 0 q10 0 10 -10 m-320 10 h10 m0 0 h116 m-146 0 h20 m126 0 h20 m-166 0 q10 0 10 10 m146 0 q0 -10 10 -10 m-156 10 v12 m146 0 v-12 m-146 12 q0 10 10 10 m126 0 q10 0 10 -10 m-136 10 h10 m74 0 h10 m0 0 h32 m-136 -10 v20 m146 0 v-20 m-146 20 v24 m146 0 v-24 m-146 24 q0 10 10 10 m126 0 q10 0 10 -10 m-136 10 h10 m106 0 h10 m20 -76 h10 m60 0 h10 m0 0 h10 m64 0 h10 m20 -44 h10 m38 0 h10 m0 0 h10 m64 0 h10 m0 0 h718 m-1476 -154 h20 m1476 0 h20 m-1516 0 q10 0 10 10 m1496 0 q0 -10 10 -10 m-1506 10 v298 m1496 0 v-298 m-1496 298 q0 10 10 10 m1476 0 q10 0 10 -10 m-1486 10 h10 m90 0 h10 m20 0 h10 m62 0 h10 m0 0 h248 m-350 0 h20 m330 0 h20 m-370 0 q10 0 10 10 m350 0 q0 -10 10 -10 m-360 10 v24 m350 0 v-24 m-350 24 q0 10 10 10 m330 0 q10 0 10 -10 m-320 10 h10 m0 0 h116 m-146 0 h20 m126 0 h20 m-166 0 q10 0 10 10 m146 0 q0 -10 10 -10 m-156 10 v12 m146 0 v-12 m-146 12 q0 10 10 10 m126 0 q10 0 10 -10 m-136 10 h10 m74 0 h10 m0 0 h32 m-136 -10 v20 m146 0 v-20 m-146 20 v24 m146 0 v-24 m-146 24 q0 10 10 10 m126 0 q10 0 10 -10 m-136 10 h10 m106 0 h10 m20 -76 h10 m60 0 h10 m0 0 h10 m64 0 h10 m20 -44 h10 m38 0 h10 m0 0 h10 m64 0 h10 m0 0 h10 m48 0 h10 m0 0 h10 m94 0 h10 m0 0 h672 m23 -318 h-3"></path>
<polygon points="1539 99 1547 95 1547 103"></polygon>
<polygon points="1539 99 1531 95 1531 103"></polygon></svg>