<svg height="881" width="881" xmlns="http://www.w3.org/2000/svg" xmlns:xlink="http://www.w3.org/1999/xlink"><style>svg {
  font-family: ui-monospace, SFMono-Regular, Menlo, Monaco, Consolas, "Liberation Mono", "Courier New", monospace;
}
text {
  fill: #2f3337;
  font-size: 14px;
}
rect {
  fill: #ffffff;
  stroke: #3a3d40;
  stroke-width: 2;
}
rect.terminal {
  fill: #ffffff;
}
rect.nonterminal {
  fill: #ffffff;
}
text.terminal {
  fill: #2f3337;
  font-weight: 600;
}
text.nonterminal {
  fill: #2563eb;
}
a text.nonterminal {
  text-decoration: underline;
}
path.line {
  fill: none;
  stroke: #3a3d40;
  stroke-width: 2;
}
polygon {
  fill: #2f3337;
  stroke: #2f3337;
}</style>
<polygon points="9 61 1 57 1 65"></polygon>
<polygon points="17 61 9 57 9 65"></polygon>
<rect height="32" rx="10" width="58" x="51" y="47"></rect>
<rect class="terminal" height="32" rx="10" width="58" x="49" y="45"></rect>
<text class="terminal" x="59" y="65">WITH</text>
<rect height="32" rx="10" width="98" x="149" y="79"></rect>
<rect class="terminal" height="32" rx="10" width="98" x="147" y="77"></rect>
<text class="terminal" x="157" y="97">RECURSIVE</text><a xlink:href="/docs/stable/sql-grammar#common_table_expr" xlink:title="common_table_expr">
<rect height="32" width="150" x="307" y="47"></rect>
<rect class="nonterminal" height="32" width="150" x="305" y="45"></rect>
<text lengthAdjust="spacingAndGlyphs" textLength="126" font-size="11" class="nonterminal" x="317" y="65">common_table_expr</text></a><rect height="32" rx="10" width="24" x="307" y="3"></rect>
<rect class="terminal" height="32" rx="10" width="24" x="305" y="1"></rect>
<text class="terminal" x="315" y="21">,</text>
<rect height="32" rx="10" width="74" x="517" y="47"></rect>
<rect class="terminal" height="32" rx="10" width="74" x="515" y="45"></rect>
<text class="terminal" x="525" y="65">UPDATE</text>
<rect height="32" rx="10" width="58" x="631" y="79"></rect>
<rect class="terminal" height="32" rx="10" width="58" x="629" y="77"></rect>
<text class="terminal" x="639" y="97">ONLY</text><a xlink:href="/docs/stable/sql-grammar#relation_expr" xlink:title="relation_expr">
<rect height="32" width="96" x="101" y="161"></rect>
<rect class="nonterminal" height="32" width="96" x="99" y="159"></rect>
<text lengthAdjust="spacingAndGlyphs" textLength="72" font-size="11" class="nonterminal" x="111" y="179">table_name</text></a><a xlink:href="/docs/stable/sql-grammar#opt_index_flags" xlink:title="opt_index_flags">
<rect height="32" width="122" x="217" y="161"></rect>
<rect class="nonterminal" height="32" width="122" x="215" y="159"></rect>
<text lengthAdjust="spacingAndGlyphs" textLength="98" font-size="10" class="nonterminal" x="227" y="179">opt_index_flags</text></a><rect height="32" rx="10" width="28" x="379" y="193"></rect>
<rect class="terminal" height="32" rx="10" width="28" x="377" y="191"></rect>
<text class="terminal" x="387" y="211">*</text>
<rect height="32" rx="10" width="38" x="487" y="225"></rect>
<rect class="terminal" height="32" rx="10" width="38" x="485" y="223"></rect>
<text class="terminal" x="495" y="243">AS</text><a xlink:href="/docs/stable/sql-grammar#table_alias_name" xlink:title="table_alias_name">
<rect height="32" width="134" x="565" y="193"></rect>
<rect class="nonterminal" height="32" width="134" x="563" y="191"></rect>
<text lengthAdjust="spacingAndGlyphs" textLength="110" font-size="11" class="nonterminal" x="575" y="211">table_alias_name</text></a><rect height="32" rx="10" width="44" x="739" y="161"></rect>
<rect class="terminal" height="32" rx="10" width="44" x="737" y="159"></rect>
<text class="terminal" x="747" y="179">SET</text><a xlink:href="/docs/stable/sql-grammar#column_name" xlink:title="column_name">
<rect height="32" width="108" x="65" y="335"></rect>
<rect class="nonterminal" height="32" width="108" x="63" y="333"></rect>
<text lengthAdjust="spacingAndGlyphs" textLength="84" font-size="12" class="nonterminal" x="75" y="353">column_name</text></a><rect height="32" rx="10" width="30" x="193" y="335"></rect>
<rect class="terminal" height="32" rx="10" width="30" x="191" y="333"></rect>
<text class="terminal" x="201" y="353">=</text><a xlink:href="/docs/stable/sql-grammar#a_expr" xlink:title="a_expr">
<rect height="32" width="64" x="243" y="335"></rect>
<rect class="nonterminal" height="32" width="64" x="241" y="333"></rect>
<text lengthAdjust="spacingAndGlyphs" textLength="40" font-size="10" class="nonterminal" x="253" y="353">a_expr</text></a><rect height="32" rx="10" width="26" x="65" y="423"></rect>
<rect class="terminal" height="32" rx="10" width="26" x="63" y="421"></rect>
<text class="terminal" x="73" y="441">(</text><a xlink:href="/docs/stable/sql-grammar#column_name" xlink:title="column_name">
<rect height="32" width="108" x="131" y="423"></rect>
<rect class="nonterminal" height="32" width="108" x="129" y="421"></rect>
<text lengthAdjust="spacingAndGlyphs" textLength="84" font-size="12" class="nonterminal" x="141" y="441">column_name</text></a><rect height="32" rx="10" width="24" x="131" y="379"></rect>
<rect class="terminal" height="32" rx="10" width="24" x="129" y="377"></rect>
<text class="terminal" x="139" y="397">,</text>
<rect height="32" rx="10" width="26" x="279" y="423"></rect>
<rect class="terminal" height="32" rx="10" width="26" x="277" y="421"></rect>
<text class="terminal" x="287" y="441">)</text>
<rect height="32" rx="10" width="30" x="325" y="423"></rect>
<rect class="terminal" height="32" rx="10" width="30" x="323" y="421"></rect>
<text class="terminal" x="333" y="441">=</text>
<rect height="32" rx="10" width="26" x="375" y="423"></rect>
<rect class="terminal" height="32" rx="10" width="26" x="373" y="421"></rect>
<text class="terminal" x="383" y="441">(</text><a xlink:href="/docs/stable/sql-grammar#select_stmt" xlink:title="select_stmt">
<rect height="32" width="94" x="441" y="455"></rect>
<rect class="nonterminal" height="32" width="94" x="439" y="453"></rect>
<text lengthAdjust="spacingAndGlyphs" textLength="70" font-size="10" class="nonterminal" x="451" y="473">select_stmt</text></a><a xlink:href="/docs/stable/sql-grammar#a_expr" xlink:title="a_expr">
<rect height="32" width="64" x="441" y="543"></rect>
<rect class="nonterminal" height="32" width="64" x="439" y="541"></rect>
<text lengthAdjust="spacingAndGlyphs" textLength="40" font-size="10" class="nonterminal" x="451" y="561">a_expr</text></a><rect height="32" rx="10" width="24" x="545" y="543"></rect>
<rect class="terminal" height="32" rx="10" width="24" x="543" y="541"></rect>
<text class="terminal" x="553" y="561">,</text><a xlink:href="/docs/stable/sql-grammar#a_expr" xlink:title="a_expr">
<rect height="32" width="64" x="629" y="543"></rect>
<rect class="nonterminal" height="32" width="64" x="627" y="541"></rect>
<text lengthAdjust="spacingAndGlyphs" textLength="40" font-size="10" class="nonterminal" x="639" y="561">a_expr</text></a><rect height="32" rx="10" width="24" x="629" y="499"></rect>
<rect class="terminal" height="32" rx="10" width="24" x="627" y="497"></rect>
<text class="terminal" x="637" y="517">,</text>
<rect height="32" rx="10" width="26" x="793" y="423"></rect>
<rect class="terminal" height="32" rx="10" width="26" x="791" y="421"></rect>
<text class="terminal" x="801" y="441">)</text>
<rect height="32" rx="10" width="24" x="45" y="291"></rect>
<rect class="terminal" height="32" rx="10" width="24" x="43" y="289"></rect>
<text class="terminal" x="53" y="309">,</text>
<rect height="32" rx="10" width="60" x="159" y="685"></rect>
<rect class="terminal" height="32" rx="10" width="60" x="157" y="683"></rect>
<text class="terminal" x="167" y="703">FROM</text><a xlink:href="/docs/stable/sql-grammar#table_ref" xlink:title="table_ref">
<rect height="32" width="78" x="259" y="685"></rect>
<rect class="nonterminal" height="32" width="78" x="257" y="683"></rect>
<text lengthAdjust="spacingAndGlyphs" textLength="54" font-size="10" class="nonterminal" x="269" y="703">table_ref</text></a><rect height="32" rx="10" width="24" x="259" y="641"></rect>
<rect class="terminal" height="32" rx="10" width="24" x="257" y="639"></rect>
<text class="terminal" x="267" y="659">,</text>
<rect height="32" rx="10" width="70" x="417" y="717"></rect>
<rect class="terminal" height="32" rx="10" width="70" x="415" y="715"></rect>
<text class="terminal" x="425" y="735">WHERE</text><a xlink:href="/docs/stable/sql-grammar#a_expr" xlink:title="a_expr">
<rect height="32" width="64" x="507" y="717"></rect>
<rect class="nonterminal" height="32" width="64" x="505" y="715"></rect>
<text lengthAdjust="spacingAndGlyphs" textLength="40" font-size="10" class="nonterminal" x="517" y="735">a_expr</text></a><a xlink:href="/docs/stable/sql-grammar#sort_clause" xlink:title="sort_clause">
<rect height="32" width="94" x="631" y="717"></rect>
<rect class="nonterminal" height="32" width="94" x="629" y="715"></rect>
<text lengthAdjust="spacingAndGlyphs" textLength="70" font-size="10" class="nonterminal" x="641" y="735">sort_clause</text></a><a xlink:href="/docs/stable/sql-grammar#limit_clause" xlink:title="limit_clause">
<rect height="32" width="94" x="433" y="803"></rect>
<rect class="nonterminal" height="32" width="94" x="431" y="801"></rect>
<text lengthAdjust="spacingAndGlyphs" textLength="70" font-size="10" class="nonterminal" x="443" y="821">limit_clause</text></a><rect height="32" rx="10" width="100" x="587" y="803"></rect>
<rect class="terminal" height="32" rx="10" width="100" x="585" y="801"></rect>
<text class="terminal" x="595" y="821">RETURNING</text><a xlink:href="/docs/stable/sql-grammar#target_list" xlink:title="target_list">
<rect height="32" width="86" x="727" y="803"></rect>
<rect class="nonterminal" height="32" width="86" x="725" y="801"></rect>
<text lengthAdjust="spacingAndGlyphs" textLength="62" font-size="10" class="nonterminal" x="737" y="821">target_list</text></a><rect height="32" rx="10" width="86" x="727" y="847"></rect>
<rect class="terminal" height="32" rx="10" width="86" x="725" y="845"></rect>
<text class="terminal" x="735" y="865">NOTHING</text>
<path class="line" d="m17 61 h2 m20 0 h10 m58 0 h10 m20 0 h10 m0 0 h108 m-138 0 h20 m118 0 h20 m-158 0 q10 0 10 10 m138 0 q0 -10 10 -10 m-148 10 v12 m138 0 v-12 m-138 12 q0 10 10 10 m118 0 q10 0 10 -10 m-128 10 h10 m98 0 h10 m40 -32 h10 m150 0 h10 m-190 0 l20 0 m-1 0 q-9 0 -9 -10 l0 -24 q0 -10 10 -10 m170 44 l20 0 m-20 0 q10 0 10 -10 l0 -24 q0 -10 -10 -10 m-170 0 h10 m24 0 h10 m0 0 h126 m-446 44 h20 m446 0 h20 m-486 0 q10 0 10 10 m466 0 q0 -10 10 -10 m-476 10 v46 m466 0 v-46 m-466 46 q0 10 10 10 m446 0 q10 0 10 -10 m-456 10 h10 m0 0 h436 m20 -66 h10 m74 0 h10 m20 0 h10 m0 0 h68 m-98 0 h20 m78 0 h20 m-118 0 q10 0 10 10 m98 0 q0 -10 10 -10 m-108 10 v12 m98 0 v-12 m-98 12 q0 10 10 10 m78 0 q10 0 10 -10 m-88 10 h10 m58 0 h10 m22 -32 l2 0 m2 0 l2 0 m2 0 l2 0 m-652 114 l2 0 m2 0 l2 0 m2 0 l2 0 m2 0 h10 m96 0 h10 m0 0 h10 m122 0 h10 m20 0 h10 m0 0 h38 m-68 0 h20 m48 0 h20 m-88 0 q10 0 10 10 m68 0 q0 -10 10 -10 m-78 10 v12 m68 0 v-12 m-68 12 q0 10 10 10 m48 0 q10 0 10 -10 m-58 10 h10 m28 0 h10 m40 -32 h10 m0 0 h242 m-272 0 h20 m252 0 h20 m-292 0 q10 0 10 10 m272 0 q0 -10 10 -10 m-282 10 v12 m272 0 v-12 m-272 12 q0 10 10 10 m252 0 q10 0 10 -10 m-242 10 h10 m0 0 h48 m-78 0 h20 m58 0 h20 m-98 0 q10 0 10 10 m78 0 q0 -10 10 -10 m-88 10 v12 m78 0 v-12 m-78 12 q0 10 10 10 m58 0 q10 0 10 -10 m-68 10 h10 m38 0 h10 m20 -32 h10 m134 0 h10 m20 -32 h10 m44 0 h10 m2 0 l2 0 m2 0 l2 0 m2 0 l2 0 m-802 174 l2 0 m2 0 l2 0 m2 0 l2 0 m42 0 h10 m108 0 h10 m0 0 h10 m30 0 h10 m0 0 h10 m64 0 h10 m0 0 h512 m-794 0 h20 m774 0 h20 m-814 0 q10 0 10 10 m794 0 q0 -10 10 -10 m-804 10 v68 m794 0 v-68 m-794 68 q0 10 10 10 m774 0 q10 0 10 -10 m-784 10 h10 m26 0 h10 m20 0 h10 m108 0 h10 m-148 0 l20 0 m-1 0 q-9 0 -9 -10 l0 -24 q0 -10 10 -10 m128 44 l20 0 m-20 0 q10 0 10 -10 l0 -24 q0 -10 -10 -10 m-128 0 h10 m24 0 h10 m0 0 h84 m20 44 h10 m26 0 h10 m0 0 h10 m30 0 h10 m0 0 h10 m26 0 h10 m20 0 h10 m0 0 h322 m-352 0 h20 m332 0 h20 m-372 0 q10 0 10 10 m352 0 q0 -10 10 -10 m-362 10 v12 m352 0 v-12 m-352 12 q0 10 10 10 m332 0 q10 0 10 -10 m-342 10 h10 m94 0 h10 m0 0 h218 m-342 -10 v20 m352 0 v-20 m-352 20 v68 m352 0 v-68 m-352 68 q0 10 10 10 m332 0 q10 0 10 -10 m-342 10 h10 m64 0 h10 m20 0 h10 m24 0 h10 m40 0 h10 m64 0 h10 m-104 0 l20 0 m-1 0 q-9 0 -9 -10 l0 -24 q0 -10 10 -10 m84 44 l20 0 m-20 0 q10 0 10 -10 l0 -24 q0 -10 -10 -10 m-84 0 h10 m24 0 h10 m0 0 h40 m-124 44 h20 m124 0 h20 m-164 0 q10 0 10 10 m144 0 q0 -10 10 -10 m-154 10 v14 m144 0 v-14 m-144 14 q0 10 10 10 m124 0 q10 0 10 -10 m-134 10 h10 m0 0 h114 m-208 -34 h20 m208 0 h20 m-248 0 q10 0 10 10 m228 0 q0 -10 10 -10 m-238 10 v30 m228 0 v-30 m-228 30 q0 10 10 10 m208 0 q10 0 10 -10 m-218 10 h10 m0 0 h198 m40 -170 h10 m26 0 h10 m-814 -88 l20 0 m-1 0 q-9 0 -9 -10 l0 -24 q0 -10 10 -10 m814 44 l20 0 m-20 0 q10 0 10 -10 l0 -24 q0 -10 -10 -10 m-814 0 h10 m24 0 h10 m0 0 h770 m22 44 l2 0 m2 0 l2 0 m2 0 l2 0 m-764 350 l2 0 m2 0 l2 0 m2 0 l2 0 m22 0 h10 m60 0 h10 m20 0 h10 m78 0 h10 m-118 0 l20 0 m-1 0 q-9 0 -9 -10 l0 -24 q0 -10 10 -10 m98 44 l20 0 m-20 0 q10 0 10 -10 l0 -24 q0 -10 -10 -10 m-98 0 h10 m24 0 h10 m0 0 h54 m-218 44 h20 m218 0 h20 m-258 0 q10 0 10 10 m238 0 q0 -10 10 -10 m-248 10 v14 m238 0 v-14 m-238 14 q0 10 10 10 m218 0 q10 0 10 -10 m-228 10 h10 m0 0 h208 m40 -34 h10 m0 0 h164 m-194 0 h20 m174 0 h20 m-214 0 q10 0 10 10 m194 0 q0 -10 10 -10 m-204 10 v12 m194 0 v-12 m-194 12 q0 10 10 10 m174 0 q10 0 10 -10 m-184 10 h10 m70 0 h10 m0 0 h10 m64 0 h10 m40 -32 h10 m0 0 h104 m-134 0 h20 m114 0 h20 m-154 0 q10 0 10 10 m134 0 q0 -10 10 -10 m-144 10 v12 m134 0 v-12 m-134 12 q0 10 10 10 m114 0 q10 0 10 -10 m-124 10 h10 m94 0 h10 m22 -32 l2 0 m2 0 l2 0 m2 0 l2 0 m-376 86 l2 0 m2 0 l2 0 m2 0 l2 0 m22 0 h10 m0 0 h104 m-134 0 h20 m114 0 h20 m-154 0 q10 0 10 10 m134 0 q0 -10 10 -10 m-144 10 v12 m134 0 v-12 m-134 12 q0 10 10 10 m114 0 q10 0 10 -10 m-124 10 h10 m94 0 h10 m40 -32 h10 m0 0 h256 m-286 0 h20 m266 0 h20 m-306 0 q10 0 10 10 m286 0 q0 -10 10 -10 m-296 10 v12 m286 0 v-12 m-286 12 q0 10 10 10 m266 0 q10 0 10 -10 m-276 10 h10 m100 0 h10 m20 0 h10 m86 0 h10 m-126 0 h20 m106 0 h20 m-146 0 q10 0 10 10 m126 0 q0 -10 10 -10 m-136 10 v24 m126 0 v-24 m-126 24 q0 10 10 10 m106 0 q10 0 10 -10 m-116 10 h10 m86 0 h10 m43 -76 h-3"></path>
<polygon points="871 785 879 781 879 789"></polygon>
<polygon points="871 785 863 781 863 789"></polygon></svg>