<svg height="157" width="577" xmlns="http://www.w3.org/2000/svg"><style>svg {
  font-family: ui-monospace, SFMono-Regular, Menlo, Monaco, Consolas, "Liberation Mono", "Courier New", monospace;
}
text {
  fill: #2f3337;
  font-size: 14px;
}
rect {
  fill: #ffffff;
  stroke: #3a3d40;
  stroke-width: 2;
}
rect.terminal {
  fill: #ffffff;
}
rect.nonterminal {
  fill: #ffffff;
}
text.terminal {
  fill: #2f3337;
  font-weight: 600;
}
text.nonterminal {
  fill: #2563eb;
}
a text.nonterminal {
  text-decoration: underline;
}
path.line {
  fill: none;
  stroke: #3a3d40;
  stroke-width: 2;
}
polygon {
  fill: #2f3337;
  stroke: #2f3337;
}</style>
<polygon points="9 61 1 57 1 65"></polygon>
<polygon points="17 61 9 57 9 65"></polygon>
<rect height="32" rx="10" width="92" x="31" y="47"></rect>
<rect class="terminal" height="32" rx="10" width="92" x="29" y="45"></rect>
<text class="terminal" x="39" y="65">TRUNCATE</text>
<rect height="32" rx="10" width="62" x="163" y="79"></rect>
<rect class="terminal" height="32" rx="10" width="62" x="161" y="77"></rect>
<text class="terminal" x="171" y="97">TABLE</text>
<rect height="32" width="96" x="285" y="47"></rect>
<rect class="nonterminal" height="32" width="96" x="283" y="45"></rect>
<text lengthAdjust="spacingAndGlyphs" textLength="72" font-size="11" class="nonterminal" x="295" y="65">table_name</text><rect height="32" rx="10" width="24" x="285" y="3"></rect>
<rect class="terminal" height="32" rx="10" width="24" x="283" y="1"></rect>
<text class="terminal" x="293" y="21">,</text>
<rect height="32" rx="10" width="84" x="441" y="79"></rect>
<rect class="terminal" height="32" rx="10" width="84" x="439" y="77"></rect>
<text class="terminal" x="449" y="97">CASCADE</text>
<rect height="32" rx="10" width="88" x="441" y="123"></rect>
<rect class="terminal" height="32" rx="10" width="88" x="439" y="121"></rect>
<text class="terminal" x="449" y="141">RESTRICT</text>
<path class="line" d="m17 61 h2 m0 0 h10 m92 0 h10 m20 0 h10 m0 0 h72 m-102 0 h20 m82 0 h20 m-122 0 q10 0 10 10 m102 0 q0 -10 10 -10 m-112 10 v12 m102 0 v-12 m-102 12 q0 10 10 10 m82 0 q10 0 10 -10 m-92 10 h10 m62 0 h10 m40 -32 h10 m96 0 h10 m-136 0 l20 0 m-1 0 q-9 0 -9 -10 l0 -24 q0 -10 10 -10 m116 44 l20 0 m-20 0 q10 0 10 -10 l0 -24 q0 -10 -10 -10 m-116 0 h10 m24 0 h10 m0 0 h72 m40 44 h10 m0 0 h98 m-128 0 h20 m108 0 h20 m-148 0 q10 0 10 10 m128 0 q0 -10 10 -10 m-138 10 v12 m128 0 v-12 m-128 12 q0 10 10 10 m108 0 q10 0 10 -10 m-118 10 h10 m84 0 h10 m0 0 h4 m-118 -10 v20 m128 0 v-20 m-128 20 v24 m128 0 v-24 m-128 24 q0 10 10 10 m108 0 q10 0 10 -10 m-118 10 h10 m88 0 h10 m23 -76 h-3"></path>
<polygon points="567 61 575 57 575 65"></polygon>
<polygon points="567 61 559 57 559 65"></polygon></svg>