<svg height="177" width="377" xmlns="http://www.w3.org/2000/svg"><style>svg {
  font-family: ui-monospace, SFMono-Regular, Menlo, Monaco, Consolas, "Liberation Mono", "Courier New", monospace;
}
text {
  fill: #2f3337;
  font-size: 14px;
}
rect {
  fill: #ffffff;
  stroke: #3a3d40;
  stroke-width: 2;
}
rect.terminal {
  fill: #ffffff;
}
rect.nonterminal {
  fill: #ffffff;
}
text.terminal {
  fill: #2f3337;
  font-weight: 600;
}
text.nonterminal {
  fill: #2563eb;
}
a text.nonterminal {
  text-decoration: underline;
}
path.line {
  fill: none;
  stroke: #3a3d40;
  stroke-width: 2;
}
polygon {
  fill: #2f3337;
  stroke: #2f3337;
}</style>
<polygon points="9 5 1 1 1 9"></polygon>
<polygon points="17 5 9 1 9 9"></polygon>
<rect height="32" rx="10" width="64" x="71" y="55"></rect>
<rect class="terminal" height="32" rx="10" width="64" x="69" y="53"></rect>
<text class="terminal" x="79" y="73">LOCAL</text>
<rect height="32" rx="10" width="74" x="71" y="99"></rect>
<rect class="terminal" height="32" rx="10" width="74" x="69" y="97"></rect>
<text class="terminal" x="79" y="117">GLOBAL</text>
<rect height="32" rx="10" width="104" x="205" y="23"></rect>
<rect class="terminal" height="32" rx="10" width="104" x="203" y="21"></rect>
<text class="terminal" x="213" y="41">TEMPORARY</text>
<rect height="32" rx="10" width="56" x="205" y="67"></rect>
<rect class="terminal" height="32" rx="10" width="56" x="203" y="65"></rect>
<text class="terminal" x="213" y="85">TEMP</text>
<rect height="32" rx="10" width="96" x="51" y="143"></rect>
<rect class="terminal" height="32" rx="10" width="96" x="49" y="141"></rect>
<text class="terminal" x="59" y="161">UNLOGGED</text>
<path class="line" d="m17 5 h2 m20 0 h10 m0 0 h288 m-318 0 h20 m298 0 h20 m-338 0 q10 0 10 10 m318 0 q0 -10 10 -10 m-328 10 v12 m318 0 v-12 m-318 12 q0 10 10 10 m298 0 q10 0 10 -10 m-288 10 h10 m0 0 h84 m-114 0 h20 m94 0 h20 m-134 0 q10 0 10 10 m114 0 q0 -10 10 -10 m-124 10 v12 m114 0 v-12 m-114 12 q0 10 10 10 m94 0 q10 0 10 -10 m-104 10 h10 m64 0 h10 m0 0 h10 m-104 -10 v20 m114 0 v-20 m-114 20 v24 m114 0 v-24 m-114 24 q0 10 10 10 m94 0 q10 0 10 -10 m-104 10 h10 m74 0 h10 m40 -76 h10 m104 0 h10 m-144 0 h20 m124 0 h20 m-164 0 q10 0 10 10 m144 0 q0 -10 10 -10 m-154 10 v24 m144 0 v-24 m-144 24 q0 10 10 10 m124 0 q10 0 10 -10 m-134 10 h10 m56 0 h10 m0 0 h48 m-288 -54 v20 m318 0 v-20 m-318 20 v100 m318 0 v-100 m-318 100 q0 10 10 10 m298 0 q10 0 10 -10 m-308 10 h10 m96 0 h10 m0 0 h182 m23 -152 h-3"></path>
<polygon points="367 5 375 1 375 9"></polygon>
<polygon points="367 5 359 1 359 9"></polygon></svg>