<svg height="37" width="721" xmlns="http://www.w3.org/2000/svg" xmlns:xlink="http://www.w3.org/1999/xlink"><style>svg {
  font-family: ui-monospace, SFMono-Regular, Menlo, Monaco, Consolas, "Liberation Mono", "Courier New", monospace;
}
text {
  fill: #2f3337;
  font-size: 14px;
}
rect {
  fill: #ffffff;
  stroke: #3a3d40;
  stroke-width: 2;
}
rect.terminal {
  fill: #ffffff;
}
rect.nonterminal {
  fill: #ffffff;
}
text.terminal {
  fill: #2f3337;
  font-weight: 600;
}
text.nonterminal {
  fill: #2563eb;
}
a text.nonterminal {
  text-decoration: underline;
}
path.line {
  fill: none;
  stroke: #3a3d40;
  stroke-width: 2;
}
polygon {
  fill: #2f3337;
  stroke: #2f3337;
}</style>
<polygon points="9 17 1 13 1 21"></polygon>
<polygon points="17 17 9 13 9 21"></polygon>
<rect height="32" rx="10" width="80" x="31" y="3"></rect>
<rect class="terminal" height="32" rx="10" width="80" x="29" y="1"></rect>
<text class="terminal" x="39" y="21">INSPECT</text>
<rect height="32" rx="10" width="92" x="131" y="3"></rect>
<rect class="terminal" height="32" rx="10" width="92" x="129" y="1"></rect>
<text class="terminal" x="139" y="21">DATABASE</text><a xlink:href="/docs/stable/sql-grammar#db_name" xlink:title="db_name">
<rect height="32" width="80" x="243" y="3"></rect>
<rect class="nonterminal" height="32" width="80" x="241" y="1"></rect>
<text lengthAdjust="spacingAndGlyphs" textLength="56" font-size="12" class="nonterminal" x="253" y="21">db_name</text></a><a xlink:href="/docs/stable/sql-grammar#opt_as_of_clause" xlink:title="opt_as_of_clause">
<rect height="32" width="132" x="343" y="3"></rect>
<rect class="nonterminal" height="32" width="132" x="341" y="1"></rect>
<text lengthAdjust="spacingAndGlyphs" textLength="108" font-size="10" class="nonterminal" x="353" y="21">opt_as_of_clause</text></a><a xlink:href="/docs/stable/sql-grammar#opt_inspect_options_clause" xlink:title="opt_inspect_options_clause">
<rect height="32" width="198" x="495" y="3"></rect>
<rect class="nonterminal" height="32" width="198" x="493" y="1"></rect>
<text lengthAdjust="spacingAndGlyphs" textLength="174" font-size="10" class="nonterminal" x="505" y="21">opt_inspect_options_clause</text></a><path class="line" d="m17 17 h2 m0 0 h10 m80 0 h10 m0 0 h10 m92 0 h10 m0 0 h10 m80 0 h10 m0 0 h10 m132 0 h10 m0 0 h10 m198 0 h10 m3 0 h-3"></path>
<polygon points="711 17 719 13 719 21"></polygon>
<polygon points="711 17 703 13 703 21"></polygon></svg>