<svg height="37" width="243" xmlns="http://www.w3.org/2000/svg" xmlns:xlink="http://www.w3.org/1999/xlink"><style>svg {
  font-family: ui-monospace, SFMono-Regular, Menlo, Monaco, Consolas, "Liberation Mono", "Courier New", monospace;
}
text {
  fill: #2f3337;
  font-size: 14px;
}
rect {
  fill: #ffffff;
  stroke: #3a3d40;
  stroke-width: 2;
}
rect.terminal {
  fill: #ffffff;
}
rect.nonterminal {
  fill: #ffffff;
}
text.terminal {
  fill: #2f3337;
  font-weight: 600;
}
text.nonterminal {
  fill: #2563eb;
}
a text.nonterminal {
  text-decoration: underline;
}
path.line {
  fill: none;
  stroke: #3a3d40;
  stroke-width: 2;
}
polygon {
  fill: #2f3337;
  stroke: #2f3337;
}</style>
<polygon points="9 17 1 13 1 21"></polygon>
<polygon points="17 17 9 13 9 21"></polygon>
<rect height="32" rx="10" width="26" x="31" y="3"></rect>
<rect class="terminal" height="32" rx="10" width="26" x="29" y="1"></rect>
<text class="terminal" x="39" y="21">(</text><a xlink:href="#col_def_list" xlink:title="col_def_list">
<rect height="32" width="92" x="77" y="3"></rect>
<rect class="nonterminal" height="32" width="92" x="75" y="1"></rect>
<text lengthAdjust="spacingAndGlyphs" textLength="68" font-size="10" class="nonterminal" x="87" y="21">col_def_list</text></a><rect height="32" rx="10" width="26" x="189" y="3"></rect>
<rect class="terminal" height="32" rx="10" width="26" x="187" y="1"></rect>
<text class="terminal" x="197" y="21">)</text>
<path class="line" d="m17 17 h2 m0 0 h10 m26 0 h10 m0 0 h10 m92 0 h10 m0 0 h10 m26 0 h10 m3 0 h-3"></path>
<polygon points="233 17 241 13 241 21"></polygon>
<polygon points="233 17 225 13 225 21"></polygon></svg>