<svg height="57" width="291" xmlns="http://www.w3.org/2000/svg" xmlns:xlink="http://www.w3.org/1999/xlink"><style>svg {
  font-family: ui-monospace, SFMono-Regular, Menlo, Monaco, Consolas, "Liberation Mono", "Courier New", monospace;
}
text {
  fill: #2f3337;
  font-size: 14px;
}
rect {
  fill: #ffffff;
  stroke: #3a3d40;
  stroke-width: 2;
}
rect.terminal {
  fill: #ffffff;
}
rect.nonterminal {
  fill: #ffffff;
}
text.terminal {
  fill: #2f3337;
  font-weight: 600;
}
text.nonterminal {
  fill: #2563eb;
}
a text.nonterminal {
  text-decoration: underline;
}
path.line {
  fill: none;
  stroke: #3a3d40;
  stroke-width: 2;
}
polygon {
  fill: #2f3337;
  stroke: #2f3337;
}</style>
<polygon points="9 5 1 1 1 9"></polygon>
<polygon points="17 5 9 1 9 9"></polygon>
<rect height="32" rx="10" width="72" x="51" y="23"></rect>
<rect class="terminal" height="32" rx="10" width="72" x="49" y="21"></rect>
<text class="terminal" x="59" y="41">FAMILY</text><a xlink:href="#family_name" xlink:title="family_name">
<rect height="32" width="100" x="143" y="23"></rect>
<rect class="nonterminal" height="32" width="100" x="141" y="21"></rect>
<text lengthAdjust="spacingAndGlyphs" textLength="76" font-size="11" class="nonterminal" x="153" y="41">family_name</text></a><path class="line" d="m17 5 h2 m20 0 h10 m0 0 h202 m-232 0 h20 m212 0 h20 m-252 0 q10 0 10 10 m232 0 q0 -10 10 -10 m-242 10 v12 m232 0 v-12 m-232 12 q0 10 10 10 m212 0 q10 0 10 -10 m-222 10 h10 m72 0 h10 m0 0 h10 m100 0 h10 m23 -32 h-3"></path>
<polygon points="281 5 289 1 289 9"></polygon>
<polygon points="281 5 273 1 273 9"></polygon></svg>