<svg height="101" width="299" xmlns="http://www.w3.org/2000/svg"><style>svg {
  font-family: ui-monospace, SFMono-Regular, Menlo, Monaco, Consolas, "Liberation Mono", "Courier New", monospace;
}
text {
  fill: #2f3337;
  font-size: 14px;
}
rect {
  fill: #ffffff;
  stroke: #3a3d40;
  stroke-width: 2;
}
rect.terminal {
  fill: #ffffff;
}
rect.nonterminal {
  fill: #ffffff;
}
text.terminal {
  fill: #2f3337;
  font-weight: 600;
}
text.nonterminal {
  fill: #2563eb;
}
a text.nonterminal {
  text-decoration: underline;
}
path.line {
  fill: none;
  stroke: #3a3d40;
  stroke-width: 2;
}
polygon {
  fill: #2f3337;
  stroke: #2f3337;
}</style>
<polygon points="9 5 1 1 1 9"></polygon>
<polygon points="17 5 9 1 9 9"></polygon>
<rect height="32" rx="10" width="68" x="51" y="23"></rect>
<rect class="terminal" height="32" rx="10" width="68" x="49" y="21"></rect>
<text class="terminal" x="59" y="41">MATCH</text>
<rect height="32" rx="10" width="72" x="159" y="23"></rect>
<rect class="terminal" height="32" rx="10" width="72" x="157" y="21"></rect>
<text class="terminal" x="167" y="41">SIMPLE</text>
<rect height="32" rx="10" width="54" x="159" y="67"></rect>
<rect class="terminal" height="32" rx="10" width="54" x="157" y="65"></rect>
<text class="terminal" x="167" y="85">FULL</text>
<path class="line" d="m17 5 h2 m20 0 h10 m0 0 h210 m-240 0 h20 m220 0 h20 m-260 0 q10 0 10 10 m240 0 q0 -10 10 -10 m-250 10 v12 m240 0 v-12 m-240 12 q0 10 10 10 m220 0 q10 0 10 -10 m-230 10 h10 m68 0 h10 m20 0 h10 m72 0 h10 m-112 0 h20 m92 0 h20 m-132 0 q10 0 10 10 m112 0 q0 -10 10 -10 m-122 10 v24 m112 0 v-24 m-112 24 q0 10 10 10 m92 0 q10 0 10 -10 m-102 10 h10 m54 0 h10 m0 0 h18 m43 -76 h-3"></path>
<polygon points="289 5 297 1 297 9"></polygon>
<polygon points="289 5 281 1 281 9"></polygon></svg>