<svg height="81" width="217" xmlns="http://www.w3.org/2000/svg" xmlns:xlink="http://www.w3.org/1999/xlink"><style>svg {
  font-family: ui-monospace, SFMono-Regular, Menlo, Monaco, Consolas, "Liberation Mono", "Courier New", monospace;
}
text {
  fill: #2f3337;
  font-size: 14px;
}
rect {
  fill: #ffffff;
  stroke: #3a3d40;
  stroke-width: 2;
}
rect.terminal {
  fill: #ffffff;
}
rect.nonterminal {
  fill: #ffffff;
}
text.terminal {
  fill: #2f3337;
  font-weight: 600;
}
text.nonterminal {
  fill: #2563eb;
}
a text.nonterminal {
  text-decoration: underline;
}
path.line {
  fill: none;
  stroke: #3a3d40;
  stroke-width: 2;
}
polygon {
  fill: #2f3337;
  stroke: #2f3337;
}</style>
<polygon points="9 17 1 13 1 21"></polygon>
<polygon points="17 17 9 13 9 21"></polygon><a xlink:href="#alter_ddl_stmt" xlink:title="alter_ddl_stmt">
<rect height="32" width="112" x="51" y="3"></rect>
<rect class="nonterminal" height="32" width="112" x="49" y="1"></rect>
<text lengthAdjust="spacingAndGlyphs" textLength="88" font-size="10" class="nonterminal" x="61" y="21">alter_ddl_stmt</text></a><a xlink:href="#alter_role_stmt" xlink:title="alter_role_stmt">
<rect height="32" width="118" x="51" y="47"></rect>
<rect class="nonterminal" height="32" width="118" x="49" y="45"></rect>
<text lengthAdjust="spacingAndGlyphs" textLength="94" font-size="10" class="nonterminal" x="61" y="65">alter_role_stmt</text></a><path class="line" d="m17 17 h2 m20 0 h10 m112 0 h10 m0 0 h6 m-158 0 h20 m138 0 h20 m-178 0 q10 0 10 10 m158 0 q0 -10 10 -10 m-168 10 v24 m158 0 v-24 m-158 24 q0 10 10 10 m138 0 q10 0 10 -10 m-148 10 h10 m118 0 h10 m23 -44 h-3"></path>
<polygon points="207 17 215 13 215 21"></polygon>
<polygon points="207 17 199 13 199 21"></polygon></svg>