<svg height="81" width="331" xmlns="http://www.w3.org/2000/svg" xmlns:xlink="http://www.w3.org/1999/xlink"><style>svg {
  font-family: ui-monospace, SFMono-Regular, Menlo, Monaco, Consolas, "Liberation Mono", "Courier New", monospace;
}
text {
  fill: #2f3337;
  font-size: 14px;
}
rect {
  fill: #ffffff;
  stroke: #3a3d40;
  stroke-width: 2;
}
rect.terminal {
  fill: #ffffff;
}
rect.nonterminal {
  fill: #ffffff;
}
text.terminal {
  fill: #2f3337;
  font-weight: 600;
}
text.nonterminal {
  fill: #2563eb;
}
a text.nonterminal {
  text-decoration: underline;
}
path.line {
  fill: none;
  stroke: #3a3d40;
  stroke-width: 2;
}
polygon {
  fill: #2f3337;
  stroke: #2f3337;
}</style>
<polygon points="9 17 1 13 1 21"></polygon>
<polygon points="17 17 9 13 9 21"></polygon><a xlink:href="#create_as_col_qualification_elem" xlink:title="create_as_col_qualification_elem">
<rect height="32" width="232" x="51" y="3"></rect>
<rect class="nonterminal" height="32" width="232" x="49" y="1"></rect>
<text lengthAdjust="spacingAndGlyphs" textLength="208" font-size="10" class="nonterminal" x="61" y="21">create_as_col_qualification_elem</text></a><rect height="32" rx="10" width="72" x="51" y="47"></rect>
<rect class="terminal" height="32" rx="10" width="72" x="49" y="45"></rect>
<text class="terminal" x="59" y="65">FAMILY</text><a xlink:href="#family_name" xlink:title="family_name">
<rect height="32" width="100" x="143" y="47"></rect>
<rect class="nonterminal" height="32" width="100" x="141" y="45"></rect>
<text lengthAdjust="spacingAndGlyphs" textLength="76" font-size="11" class="nonterminal" x="153" y="65">family_name</text></a><path class="line" d="m17 17 h2 m20 0 h10 m232 0 h10 m-272 0 h20 m252 0 h20 m-292 0 q10 0 10 10 m272 0 q0 -10 10 -10 m-282 10 v24 m272 0 v-24 m-272 24 q0 10 10 10 m252 0 q10 0 10 -10 m-262 10 h10 m72 0 h10 m0 0 h10 m100 0 h10 m0 0 h40 m23 -44 h-3"></path>
<polygon points="321 17 329 13 329 21"></polygon>
<polygon points="321 17 313 13 313 21"></polygon></svg>