<svg height="81" width="203" xmlns="http://www.w3.org/2000/svg"><style>svg {
  font-family: ui-monospace, SFMono-Regular, Menlo, Monaco, Consolas, "Liberation Mono", "Courier New", monospace;
}
text {
  fill: #2f3337;
  font-size: 14px;
}
rect {
  fill: #ffffff;
  stroke: #3a3d40;
  stroke-width: 2;
}
rect.terminal {
  fill: #ffffff;
}
rect.nonterminal {
  fill: #ffffff;
}
text.terminal {
  fill: #2f3337;
  font-weight: 600;
}
text.nonterminal {
  fill: #2563eb;
}
a text.nonterminal {
  text-decoration: underline;
}
path.line {
  fill: none;
  stroke: #3a3d40;
  stroke-width: 2;
}
polygon {
  fill: #2f3337;
  stroke: #2f3337;
}</style>
<polygon points="9 17 1 13 1 21"></polygon>
<polygon points="17 17 9 13 9 21"></polygon>
<rect height="32" rx="10" width="92" x="51" y="3"></rect>
<rect class="terminal" height="32" rx="10" width="92" x="49" y="1"></rect>
<text class="terminal" x="59" y="21">FUNCTION</text>
<rect height="32" rx="10" width="104" x="51" y="47"></rect>
<rect class="terminal" height="32" rx="10" width="104" x="49" y="45"></rect>
<text class="terminal" x="59" y="65">PROCEDURE</text>
<path class="line" d="m17 17 h2 m20 0 h10 m92 0 h10 m0 0 h12 m-144 0 h20 m124 0 h20 m-164 0 q10 0 10 10 m144 0 q0 -10 10 -10 m-154 10 v24 m144 0 v-24 m-144 24 q0 10 10 10 m124 0 q10 0 10 -10 m-134 10 h10 m104 0 h10 m23 -44 h-3"></path>
<polygon points="193 17 201 13 201 21"></polygon>
<polygon points="193 17 185 13 185 21"></polygon></svg>