<svg height="69" width="497" xmlns="http://www.w3.org/2000/svg" xmlns:xlink="http://www.w3.org/1999/xlink"><style>svg {
  font-family: ui-monospace, SFMono-Regular, Menlo, Monaco, Consolas, "Liberation Mono", "Courier New", monospace;
}
text {
  fill: #2f3337;
  font-size: 14px;
}
rect {
  fill: #ffffff;
  stroke: #3a3d40;
  stroke-width: 2;
}
rect.terminal {
  fill: #ffffff;
}
rect.nonterminal {
  fill: #ffffff;
}
text.terminal {
  fill: #2f3337;
  font-weight: 600;
}
text.nonterminal {
  fill: #2563eb;
}
a text.nonterminal {
  text-decoration: underline;
}
path.line {
  fill: none;
  stroke: #3a3d40;
  stroke-width: 2;
}
polygon {
  fill: #2f3337;
  stroke: #2f3337;
}</style>
<polygon points="9 17 1 13 1 21"></polygon>
<polygon points="17 17 9 13 9 21"></polygon>
<rect height="32" rx="10" width="110" x="51" y="35"></rect>
<rect class="terminal" height="32" rx="10" width="110" x="49" y="33"></rect>
<text class="terminal" x="59" y="53">CONSTRAINT</text><a xlink:href="#constraint_name" xlink:title="constraint_name">
<rect height="32" width="126" x="181" y="35"></rect>
<rect class="nonterminal" height="32" width="126" x="179" y="33"></rect>
<text lengthAdjust="spacingAndGlyphs" textLength="102" font-size="10" class="nonterminal" x="191" y="53">constraint_name</text></a><a xlink:href="#constraint_elem" xlink:title="constraint_elem">
<rect height="32" width="122" x="347" y="3"></rect>
<rect class="nonterminal" height="32" width="122" x="345" y="1"></rect>
<text lengthAdjust="spacingAndGlyphs" textLength="98" font-size="10" class="nonterminal" x="357" y="21">constraint_elem</text></a><path class="line" d="m17 17 h2 m20 0 h10 m0 0 h266 m-296 0 h20 m276 0 h20 m-316 0 q10 0 10 10 m296 0 q0 -10 10 -10 m-306 10 v12 m296 0 v-12 m-296 12 q0 10 10 10 m276 0 q10 0 10 -10 m-286 10 h10 m110 0 h10 m0 0 h10 m126 0 h10 m20 -32 h10 m122 0 h10 m3 0 h-3"></path>
<polygon points="487 17 495 13 495 21"></polygon>
<polygon points="487 17 479 13 479 21"></polygon></svg>