<svg height="419" width="739" xmlns="http://www.w3.org/2000/svg" xmlns:xlink="http://www.w3.org/1999/xlink"><style>svg {
  font-family: ui-monospace, SFMono-Regular, Menlo, Monaco, Consolas, "Liberation Mono", "Courier New", monospace;
}
text {
  fill: #2f3337;
  font-size: 14px;
}
rect {
  fill: #ffffff;
  stroke: #3a3d40;
  stroke-width: 2;
}
rect.terminal {
  fill: #ffffff;
}
rect.nonterminal {
  fill: #ffffff;
}
text.terminal {
  fill: #2f3337;
  font-weight: 600;
}
text.nonterminal {
  fill: #2563eb;
}
a text.nonterminal {
  text-decoration: underline;
}
path.line {
  fill: none;
  stroke: #3a3d40;
  stroke-width: 2;
}
polygon {
  fill: #2f3337;
  stroke: #2f3337;
}</style>
<polygon points="11 17 3 13 3 21"></polygon>
<polygon points="19 17 11 13 11 21"></polygon>
<rect height="32" rx="10" width="88" x="33" y="3"></rect>
<rect class="terminal" height="32" rx="10" width="88" x="31" y="1"></rect>
<text class="terminal" x="41" y="21">LOCALITY</text>
<rect height="32" rx="10" width="74" x="45" y="69"></rect>
<rect class="terminal" height="32" rx="10" width="74" x="43" y="67"></rect>
<text class="terminal" x="53" y="87">GLOBAL</text>
<rect height="32" rx="10" width="92" x="45" y="113"></rect>
<rect class="terminal" height="32" rx="10" width="92" x="43" y="111"></rect>
<text class="terminal" x="53" y="131">REGIONAL</text>
<rect height="32" rx="10" width="38" x="177" y="145"></rect>
<rect class="terminal" height="32" rx="10" width="38" x="175" y="143"></rect>
<text class="terminal" x="185" y="163">BY</text>
<rect height="32" rx="10" width="62" x="255" y="145"></rect>
<rect class="terminal" height="32" rx="10" width="62" x="253" y="143"></rect>
<text class="terminal" x="263" y="163">TABLE</text>
<rect height="32" rx="10" width="36" x="357" y="177"></rect>
<rect class="terminal" height="32" rx="10" width="36" x="355" y="175"></rect>
<text class="terminal" x="365" y="195">IN</text><a xlink:href="#region_name" xlink:title="region_name">
<rect height="32" width="104" x="433" y="177"></rect>
<rect class="nonterminal" height="32" width="104" x="431" y="175"></rect>
<text lengthAdjust="spacingAndGlyphs" textLength="80" font-size="11" class="nonterminal" x="443" y="195">region_name</text></a><rect height="32" rx="10" width="84" x="433" y="221"></rect>
<rect class="terminal" height="32" rx="10" width="84" x="431" y="219"></rect>
<text class="terminal" x="441" y="239">PRIMARY</text>
<rect height="32" rx="10" width="74" x="537" y="221"></rect>
<rect class="terminal" height="32" rx="10" width="74" x="535" y="219"></rect>
<text class="terminal" x="545" y="239">REGION</text>
<rect height="32" rx="10" width="54" x="255" y="265"></rect>
<rect class="terminal" height="32" rx="10" width="54" x="253" y="263"></rect>
<text class="terminal" x="263" y="283">ROW</text>
<rect height="32" rx="10" width="38" x="349" y="297"></rect>
<rect class="terminal" height="32" rx="10" width="38" x="347" y="295"></rect>
<text class="terminal" x="357" y="315">AS</text><a xlink:href="#name" xlink:title="name">
<rect height="32" width="56" x="407" y="297"></rect>
<rect class="nonterminal" height="32" width="56" x="405" y="295"></rect>
<text lengthAdjust="spacingAndGlyphs" textLength="32" font-size="12" class="nonterminal" x="417" y="315">name</text></a><rect height="32" rx="10" width="36" x="177" y="341"></rect>
<rect class="terminal" height="32" rx="10" width="36" x="175" y="339"></rect>
<text class="terminal" x="185" y="359">IN</text><a xlink:href="#region_name" xlink:title="region_name">
<rect height="32" width="104" x="253" y="341"></rect>
<rect class="nonterminal" height="32" width="104" x="251" y="339"></rect>
<text lengthAdjust="spacingAndGlyphs" textLength="80" font-size="11" class="nonterminal" x="263" y="359">region_name</text></a><rect height="32" rx="10" width="84" x="253" y="385"></rect>
<rect class="terminal" height="32" rx="10" width="84" x="251" y="383"></rect>
<text class="terminal" x="261" y="403">PRIMARY</text>
<rect height="32" rx="10" width="74" x="357" y="385"></rect>
<rect class="terminal" height="32" rx="10" width="74" x="355" y="383"></rect>
<text class="terminal" x="365" y="403">REGION</text>
<path class="line" d="m19 17 h2 m0 0 h10 m88 0 h10 m2 0 l2 0 m2 0 l2 0 m2 0 l2 0 m-140 66 l2 0 m2 0 l2 0 m2 0 l2 0 m22 0 h10 m74 0 h10 m0 0 h572 m-686 0 h20 m666 0 h20 m-706 0 q10 0 10 10 m686 0 q0 -10 10 -10 m-696 10 v24 m686 0 v-24 m-686 24 q0 10 10 10 m666 0 q10 0 10 -10 m-676 10 h10 m92 0 h10 m20 0 h10 m0 0 h504 m-534 0 h20 m514 0 h20 m-554 0 q10 0 10 10 m534 0 q0 -10 10 -10 m-544 10 v12 m534 0 v-12 m-534 12 q0 10 10 10 m514 0 q10 0 10 -10 m-524 10 h10 m38 0 h10 m20 0 h10 m62 0 h10 m20 0 h10 m0 0 h284 m-314 0 h20 m294 0 h20 m-334 0 q10 0 10 10 m314 0 q0 -10 10 -10 m-324 10 v12 m314 0 v-12 m-314 12 q0 10 10 10 m294 0 q10 0 10 -10 m-304 10 h10 m36 0 h10 m20 0 h10 m104 0 h10 m0 0 h74 m-218 0 h20 m198 0 h20 m-238 0 q10 0 10 10 m218 0 q0 -10 10 -10 m-228 10 v24 m218 0 v-24 m-218 24 q0 10 10 10 m198 0 q10 0 10 -10 m-208 10 h10 m84 0 h10 m0 0 h10 m74 0 h10 m-396 -76 h20 m416 0 h20 m-456 0 q10 0 10 10 m436 0 q0 -10 10 -10 m-446 10 v100 m436 0 v-100 m-436 100 q0 10 10 10 m416 0 q10 0 10 -10 m-426 10 h10 m54 0 h10 m20 0 h10 m0 0 h124 m-154 0 h20 m134 0 h20 m-174 0 q10 0 10 10 m154 0 q0 -10 10 -10 m-164 10 v12 m154 0 v-12 m-154 12 q0 10 10 10 m134 0 q10 0 10 -10 m-144 10 h10 m38 0 h10 m0 0 h10 m56 0 h10 m20 -32 h168 m-504 -130 v20 m534 0 v-20 m-534 20 v176 m534 0 v-176 m-534 176 q0 10 10 10 m514 0 q10 0 10 -10 m-524 10 h10 m36 0 h10 m20 0 h10 m104 0 h10 m0 0 h74 m-218 0 h20 m198 0 h20 m-238 0 q10 0 10 10 m218 0 q0 -10 10 -10 m-228 10 v24 m218 0 v-24 m-218 24 q0 10 10 10 m198 0 q10 0 10 -10 m-208 10 h10 m84 0 h10 m0 0 h10 m74 0 h10 m20 -44 h220 m43 -272 h-3"></path>
<polygon points="729 83 737 79 737 87"></polygon>
<polygon points="729 83 721 79 721 87"></polygon></svg>