<svg height="157" width="383" xmlns="http://www.w3.org/2000/svg" xmlns:xlink="http://www.w3.org/1999/xlink"><style>svg {
  font-family: ui-monospace, SFMono-Regular, Menlo, Monaco, Consolas, "Liberation Mono", "Courier New", monospace;
}
text {
  fill: #2f3337;
  font-size: 14px;
}
rect {
  fill: #ffffff;
  stroke: #3a3d40;
  stroke-width: 2;
}
rect.terminal {
  fill: #ffffff;
}
rect.nonterminal {
  fill: #ffffff;
}
text.terminal {
  fill: #2f3337;
  font-weight: 600;
}
text.nonterminal {
  fill: #2563eb;
}
a text.nonterminal {
  text-decoration: underline;
}
path.line {
  fill: none;
  stroke: #3a3d40;
  stroke-width: 2;
}
polygon {
  fill: #2f3337;
  stroke: #2f3337;
}</style>
<polygon points="9 17 1 13 1 21"></polygon>
<polygon points="17 17 9 13 9 21"></polygon><a xlink:href="#a_expr" xlink:title="a_expr">
<rect height="32" width="64" x="51" y="3"></rect>
<rect class="nonterminal" height="32" width="64" x="49" y="1"></rect>
<text lengthAdjust="spacingAndGlyphs" textLength="40" font-size="10" class="nonterminal" x="61" y="21">a_expr</text></a><rect height="32" rx="10" width="38" x="155" y="35"></rect>
<rect class="terminal" height="32" rx="10" width="38" x="153" y="33"></rect>
<text class="terminal" x="163" y="53">AS</text><a xlink:href="#target_name" xlink:title="target_name">
<rect height="32" width="102" x="213" y="35"></rect>
<rect class="nonterminal" height="32" width="102" x="211" y="33"></rect>
<text lengthAdjust="spacingAndGlyphs" textLength="78" font-size="11" class="nonterminal" x="223" y="53">target_name</text></a><a xlink:href="#bare_col_label" xlink:title="bare_col_label">
<rect height="32" width="112" x="155" y="79"></rect>
<rect class="nonterminal" height="32" width="112" x="153" y="77"></rect>
<text lengthAdjust="spacingAndGlyphs" textLength="88" font-size="10" class="nonterminal" x="165" y="97">bare_col_label</text></a><rect height="32" rx="10" width="28" x="51" y="123"></rect>
<rect class="terminal" height="32" rx="10" width="28" x="49" y="121"></rect>
<text class="terminal" x="59" y="141">*</text>
<path class="line" d="m17 17 h2 m20 0 h10 m64 0 h10 m20 0 h10 m0 0 h170 m-200 0 h20 m180 0 h20 m-220 0 q10 0 10 10 m200 0 q0 -10 10 -10 m-210 10 v12 m200 0 v-12 m-200 12 q0 10 10 10 m180 0 q10 0 10 -10 m-190 10 h10 m38 0 h10 m0 0 h10 m102 0 h10 m-190 -10 v20 m200 0 v-20 m-200 20 v24 m200 0 v-24 m-200 24 q0 10 10 10 m180 0 q10 0 10 -10 m-190 10 h10 m112 0 h10 m0 0 h48 m-304 -76 h20 m304 0 h20 m-344 0 q10 0 10 10 m324 0 q0 -10 10 -10 m-334 10 v100 m324 0 v-100 m-324 100 q0 10 10 10 m304 0 q10 0 10 -10 m-314 10 h10 m28 0 h10 m0 0 h256 m23 -120 h-3"></path>
<polygon points="373 17 381 13 381 21"></polygon>
<polygon points="373 17 365 13 365 21"></polygon></svg>