<svg height="81" width="425" xmlns="http://www.w3.org/2000/svg" xmlns:xlink="http://www.w3.org/1999/xlink"><style>svg {
  font-family: ui-monospace, SFMono-Regular, Menlo, Monaco, Consolas, "Liberation Mono", "Courier New", monospace;
}
text {
  fill: #2f3337;
  font-size: 14px;
}
rect {
  fill: #ffffff;
  stroke: #3a3d40;
  stroke-width: 2;
}
rect.terminal {
  fill: #ffffff;
}
rect.nonterminal {
  fill: #ffffff;
}
text.terminal {
  fill: #2f3337;
  font-weight: 600;
}
text.nonterminal {
  fill: #2563eb;
}
a text.nonterminal {
  text-decoration: underline;
}
path.line {
  fill: none;
  stroke: #3a3d40;
  stroke-width: 2;
}
polygon {
  fill: #2f3337;
  stroke: #2f3337;
}</style>
<polygon points="9 17 1 13 1 21"></polygon>
<polygon points="17 17 9 13 9 21"></polygon>
<rect height="32" rx="10" width="108" x="31" y="3"></rect>
<rect class="terminal" height="32" rx="10" width="108" x="29" y="1"></rect>
<text class="terminal" x="39" y="21">DEALLOCATE</text>
<rect height="32" rx="10" width="82" x="179" y="35"></rect>
<rect class="terminal" height="32" rx="10" width="82" x="177" y="33"></rect>
<text class="terminal" x="187" y="53">PREPARE</text><a xlink:href="#name" xlink:title="name">
<rect height="32" width="56" x="321" y="3"></rect>
<rect class="nonterminal" height="32" width="56" x="319" y="1"></rect>
<text lengthAdjust="spacingAndGlyphs" textLength="32" font-size="12" class="nonterminal" x="331" y="21">name</text></a><rect height="32" rx="10" width="44" x="321" y="47"></rect>
<rect class="terminal" height="32" rx="10" width="44" x="319" y="45"></rect>
<text class="terminal" x="329" y="65">ALL</text>
<path class="line" d="m17 17 h2 m0 0 h10 m108 0 h10 m20 0 h10 m0 0 h92 m-122 0 h20 m102 0 h20 m-142 0 q10 0 10 10 m122 0 q0 -10 10 -10 m-132 10 v12 m122 0 v-12 m-122 12 q0 10 10 10 m102 0 q10 0 10 -10 m-112 10 h10 m82 0 h10 m40 -32 h10 m56 0 h10 m-96 0 h20 m76 0 h20 m-116 0 q10 0 10 10 m96 0 q0 -10 10 -10 m-106 10 v24 m96 0 v-24 m-96 24 q0 10 10 10 m76 0 q10 0 10 -10 m-86 10 h10 m44 0 h10 m0 0 h12 m23 -44 h-3"></path>
<polygon points="415 17 423 13 423 21"></polygon>
<polygon points="415 17 407 13 407 21"></polygon></svg>