<svg height="37" width="479" xmlns="http://www.w3.org/2000/svg"><style>svg {
  font-family: ui-monospace, SFMono-Regular, Menlo, Monaco, Consolas, "Liberation Mono", "Courier New", monospace;
}
text {
  fill: #2f3337;
  font-size: 14px;
}
rect {
  fill: #ffffff;
  stroke: #3a3d40;
  stroke-width: 2;
}
rect.terminal {
  fill: #ffffff;
}
rect.nonterminal {
  fill: #ffffff;
}
text.terminal {
  fill: #2f3337;
  font-weight: 600;
}
text.nonterminal {
  fill: #2563eb;
}
a text.nonterminal {
  text-decoration: underline;
}
path.line {
  fill: none;
  stroke: #3a3d40;
  stroke-width: 2;
}
polygon {
  fill: #2f3337;
  stroke: #2f3337;
}</style>
<polygon points="9 17 1 13 1 21"></polygon>
<polygon points="17 17 9 13 9 21"></polygon>
<rect height="32" rx="10" width="44" x="31" y="3"></rect>
<rect class="terminal" height="32" rx="10" width="44" x="29" y="1"></rect>
<text class="terminal" x="39" y="21">SET</text>
<rect height="32" rx="10" width="198" x="95" y="3"></rect>
<rect class="terminal" height="32" rx="10" width="198" x="93" y="1"></rect>
<text class="terminal" x="103" y="21">GENERATED_BY_DEFAULT</text>
<rect height="32" rx="10" width="38" x="313" y="3"></rect>
<rect class="terminal" height="32" rx="10" width="38" x="311" y="1"></rect>
<text class="terminal" x="321" y="21">BY</text>
<rect height="32" rx="10" width="80" x="371" y="3"></rect>
<rect class="terminal" height="32" rx="10" width="80" x="369" y="1"></rect>
<text class="terminal" x="379" y="21">DEFAULT</text>
<path class="line" d="m17 17 h2 m0 0 h10 m44 0 h10 m0 0 h10 m198 0 h10 m0 0 h10 m38 0 h10 m0 0 h10 m80 0 h10 m3 0 h-3"></path>
<polygon points="469 17 477 13 477 21"></polygon>
<polygon points="469 17 461 13 461 21"></polygon></svg>