<svg height="477" width="265" xmlns="http://www.w3.org/2000/svg" xmlns:xlink="http://www.w3.org/1999/xlink"><style>svg {
  font-family: ui-monospace, SFMono-Regular, Menlo, Monaco, Consolas, "Liberation Mono", "Courier New", monospace;
}
text {
  fill: #2f3337;
  font-size: 14px;
}
rect {
  fill: #ffffff;
  stroke: #3a3d40;
  stroke-width: 2;
}
rect.terminal {
  fill: #ffffff;
}
rect.nonterminal {
  fill: #ffffff;
}
text.terminal {
  fill: #2f3337;
  font-weight: 600;
}
text.nonterminal {
  fill: #2563eb;
}
a text.nonterminal {
  text-decoration: underline;
}
path.line {
  fill: none;
  stroke: #3a3d40;
  stroke-width: 2;
}
polygon {
  fill: #2f3337;
  stroke: #2f3337;
}</style>
<polygon points="9 17 1 13 1 21"></polygon>
<polygon points="17 17 9 13 9 21"></polygon><a xlink:href="#create_database_stmt" xlink:title="create_database_stmt">
<rect height="32" width="164" x="51" y="3"></rect>
<rect class="nonterminal" height="32" width="164" x="49" y="1"></rect>
<text lengthAdjust="spacingAndGlyphs" textLength="140" font-size="11" class="nonterminal" x="61" y="21">create_database_stmt</text></a><a xlink:href="#create_index_stmt" xlink:title="create_index_stmt">
<rect height="32" width="138" x="51" y="47"></rect>
<rect class="nonterminal" height="32" width="138" x="49" y="45"></rect>
<text lengthAdjust="spacingAndGlyphs" textLength="114" font-size="10" class="nonterminal" x="61" y="65">create_index_stmt</text></a><a xlink:href="#create_schema_stmt" xlink:title="create_schema_stmt">
<rect height="32" width="154" x="51" y="91"></rect>
<rect class="nonterminal" height="32" width="154" x="49" y="89"></rect>
<text lengthAdjust="spacingAndGlyphs" textLength="130" font-size="11" class="nonterminal" x="61" y="109">create_schema_stmt</text></a><a xlink:href="#create_table_stmt" xlink:title="create_table_stmt">
<rect height="32" width="136" x="51" y="135"></rect>
<rect class="nonterminal" height="32" width="136" x="49" y="133"></rect>
<text lengthAdjust="spacingAndGlyphs" textLength="112" font-size="10" class="nonterminal" x="61" y="153">create_table_stmt</text></a><a xlink:href="#create_table_as_stmt" xlink:title="create_table_as_stmt">
<rect height="32" width="160" x="51" y="179"></rect>
<rect class="nonterminal" height="32" width="160" x="49" y="177"></rect>
<text lengthAdjust="spacingAndGlyphs" textLength="136" font-size="10" class="nonterminal" x="61" y="197">create_table_as_stmt</text></a><a xlink:href="#create_type_stmt" xlink:title="create_type_stmt">
<rect height="32" width="132" x="51" y="223"></rect>
<rect class="nonterminal" height="32" width="132" x="49" y="221"></rect>
<text lengthAdjust="spacingAndGlyphs" textLength="108" font-size="10" class="nonterminal" x="61" y="241">create_type_stmt</text></a><a xlink:href="#create_view_stmt" xlink:title="create_view_stmt">
<rect height="32" width="132" x="51" y="267"></rect>
<rect class="nonterminal" height="32" width="132" x="49" y="265"></rect>
<text lengthAdjust="spacingAndGlyphs" textLength="108" font-size="10" class="nonterminal" x="61" y="285">create_view_stmt</text></a><a xlink:href="#create_sequence_stmt" xlink:title="create_sequence_stmt">
<rect height="32" width="166" x="51" y="311"></rect>
<rect class="nonterminal" height="32" width="166" x="49" y="309"></rect>
<text lengthAdjust="spacingAndGlyphs" textLength="142" font-size="11" class="nonterminal" x="61" y="329">create_sequence_stmt</text></a><a xlink:href="#create_func_stmt" xlink:title="create_func_stmt">
<rect height="32" width="130" x="51" y="355"></rect>
<rect class="nonterminal" height="32" width="130" x="49" y="353"></rect>
<text lengthAdjust="spacingAndGlyphs" textLength="106" font-size="10" class="nonterminal" x="61" y="373">create_func_stmt</text></a><a xlink:href="#create_proc_stmt" xlink:title="create_proc_stmt">
<rect height="32" width="132" x="51" y="399"></rect>
<rect class="nonterminal" height="32" width="132" x="49" y="397"></rect>
<text lengthAdjust="spacingAndGlyphs" textLength="108" font-size="10" class="nonterminal" x="61" y="417">create_proc_stmt</text></a><a xlink:href="#create_trigger_stmt" xlink:title="create_trigger_stmt">
<rect height="32" width="146" x="51" y="443"></rect>
<rect class="nonterminal" height="32" width="146" x="49" y="441"></rect>
<text lengthAdjust="spacingAndGlyphs" textLength="122" font-size="10" class="nonterminal" x="61" y="461">create_trigger_stmt</text></a><path class="line" d="m17 17 h2 m20 0 h10 m164 0 h10 m0 0 h2 m-206 0 h20 m186 0 h20 m-226 0 q10 0 10 10 m206 0 q0 -10 10 -10 m-216 10 v24 m206 0 v-24 m-206 24 q0 10 10 10 m186 0 q10 0 10 -10 m-196 10 h10 m138 0 h10 m0 0 h28 m-196 -10 v20 m206 0 v-20 m-206 20 v24 m206 0 v-24 m-206 24 q0 10 10 10 m186 0 q10 0 10 -10 m-196 10 h10 m154 0 h10 m0 0 h12 m-196 -10 v20 m206 0 v-20 m-206 20 v24 m206 0 v-24 m-206 24 q0 10 10 10 m186 0 q10 0 10 -10 m-196 10 h10 m136 0 h10 m0 0 h30 m-196 -10 v20 m206 0 v-20 m-206 20 v24 m206 0 v-24 m-206 24 q0 10 10 10 m186 0 q10 0 10 -10 m-196 10 h10 m160 0 h10 m0 0 h6 m-196 -10 v20 m206 0 v-20 m-206 20 v24 m206 0 v-24 m-206 24 q0 10 10 10 m186 0 q10 0 10 -10 m-196 10 h10 m132 0 h10 m0 0 h34 m-196 -10 v20 m206 0 v-20 m-206 20 v24 m206 0 v-24 m-206 24 q0 10 10 10 m186 0 q10 0 10 -10 m-196 10 h10 m132 0 h10 m0 0 h34 m-196 -10 v20 m206 0 v-20 m-206 20 v24 m206 0 v-24 m-206 24 q0 10 10 10 m186 0 q10 0 10 -10 m-196 10 h10 m166 0 h10 m-196 -10 v20 m206 0 v-20 m-206 20 v24 m206 0 v-24 m-206 24 q0 10 10 10 m186 0 q10 0 10 -10 m-196 10 h10 m130 0 h10 m0 0 h36 m-196 -10 v20 m206 0 v-20 m-206 20 v24 m206 0 v-24 m-206 24 q0 10 10 10 m186 0 q10 0 10 -10 m-196 10 h10 m132 0 h10 m0 0 h34 m-196 -10 v20 m206 0 v-20 m-206 20 v24 m206 0 v-24 m-206 24 q0 10 10 10 m186 0 q10 0 10 -10 m-196 10 h10 m146 0 h10 m0 0 h20 m23 -440 h-3"></path>
<polygon points="255 17 263 13 263 21"></polygon>
<polygon points="255 17 247 13 247 21"></polygon></svg>