<svg height="81" width="185" xmlns="http://www.w3.org/2000/svg"><style>svg {
  font-family: ui-monospace, SFMono-Regular, Menlo, Monaco, Consolas, "Liberation Mono", "Courier New", monospace;
}
text {
  fill: #2f3337;
  font-size: 14px;
}
rect {
  fill: #ffffff;
  stroke: #3a3d40;
  stroke-width: 2;
}
rect.terminal {
  fill: #ffffff;
}
rect.nonterminal {
  fill: #ffffff;
}
text.terminal {
  fill: #2f3337;
  font-weight: 600;
}
text.nonterminal {
  fill: #2563eb;
}
a text.nonterminal {
  text-decoration: underline;
}
path.line {
  fill: none;
  stroke: #3a3d40;
  stroke-width: 2;
}
polygon {
  fill: #2f3337;
  stroke: #2f3337;
}</style>
<polygon points="9 17 1 13 1 21"></polygon>
<polygon points="17 17 9 13 9 21"></polygon>
<rect height="32" rx="10" width="64" x="51" y="3"></rect>
<rect class="terminal" height="32" rx="10" width="64" x="49" y="1"></rect>
<text class="terminal" x="59" y="21">INDEX</text>
<rect height="32" rx="10" width="86" x="51" y="47"></rect>
<rect class="terminal" height="32" rx="10" width="86" x="49" y="45"></rect>
<text class="terminal" x="59" y="65">NOTHING</text>
<path class="line" d="m17 17 h2 m20 0 h10 m64 0 h10 m0 0 h22 m-126 0 h20 m106 0 h20 m-146 0 q10 0 10 10 m126 0 q0 -10 10 -10 m-136 10 v24 m126 0 v-24 m-126 24 q0 10 10 10 m106 0 q10 0 10 -10 m-116 10 h10 m86 0 h10 m23 -44 h-3"></path>
<polygon points="175 17 183 13 183 21"></polygon>
<polygon points="175 17 167 13 167 21"></polygon></svg>