<svg height="389" width="309" xmlns="http://www.w3.org/2000/svg" xmlns:xlink="http://www.w3.org/1999/xlink"><style>svg {
  font-family: ui-monospace, SFMono-Regular, Menlo, Monaco, Consolas, "Liberation Mono", "Courier New", monospace;
}
text {
  fill: #2f3337;
  font-size: 14px;
}
rect {
  fill: #ffffff;
  stroke: #3a3d40;
  stroke-width: 2;
}
rect.terminal {
  fill: #ffffff;
}
rect.nonterminal {
  fill: #ffffff;
}
text.terminal {
  fill: #2f3337;
  font-weight: 600;
}
text.nonterminal {
  fill: #2563eb;
}
a text.nonterminal {
  text-decoration: underline;
}
path.line {
  fill: none;
  stroke: #3a3d40;
  stroke-width: 2;
}
polygon {
  fill: #2f3337;
  stroke: #2f3337;
}</style>
<polygon points="9 17 1 13 1 21"></polygon>
<polygon points="17 17 9 13 9 21"></polygon><a xlink:href="#alter_onetable_stmt" xlink:title="alter_onetable_stmt">
<rect height="32" width="150" x="51" y="3"></rect>
<rect class="nonterminal" height="32" width="150" x="49" y="1"></rect>
<text lengthAdjust="spacingAndGlyphs" textLength="126" font-size="10" class="nonterminal" x="61" y="21">alter_onetable_stmt</text></a><a xlink:href="#alter_split_stmt" xlink:title="alter_split_stmt">
<rect height="32" width="120" x="51" y="47"></rect>
<rect class="nonterminal" height="32" width="120" x="49" y="45"></rect>
<text lengthAdjust="spacingAndGlyphs" textLength="96" font-size="10" class="nonterminal" x="61" y="65">alter_split_stmt</text></a><a xlink:href="#alter_unsplit_stmt" xlink:title="alter_unsplit_stmt">
<rect height="32" width="136" x="51" y="91"></rect>
<rect class="nonterminal" height="32" width="136" x="49" y="89"></rect>
<text lengthAdjust="spacingAndGlyphs" textLength="112" font-size="10" class="nonterminal" x="61" y="109">alter_unsplit_stmt</text></a><a xlink:href="#alter_scatter_stmt" xlink:title="alter_scatter_stmt">
<rect height="32" width="138" x="51" y="135"></rect>
<rect class="nonterminal" height="32" width="138" x="49" y="133"></rect>
<text lengthAdjust="spacingAndGlyphs" textLength="114" font-size="10" class="nonterminal" x="61" y="153">alter_scatter_stmt</text></a><a xlink:href="#alter_zone_table_stmt" xlink:title="alter_zone_table_stmt">
<rect height="32" width="164" x="51" y="179"></rect>
<rect class="nonterminal" height="32" width="164" x="49" y="177"></rect>
<text lengthAdjust="spacingAndGlyphs" textLength="140" font-size="10" class="nonterminal" x="61" y="197">alter_zone_table_stmt</text></a><a xlink:href="#alter_rename_table_stmt" xlink:title="alter_rename_table_stmt">
<rect height="32" width="182" x="51" y="223"></rect>
<rect class="nonterminal" height="32" width="182" x="49" y="221"></rect>
<text lengthAdjust="spacingAndGlyphs" textLength="158" font-size="11" class="nonterminal" x="61" y="241">alter_rename_table_stmt</text></a><a xlink:href="#alter_table_set_schema_stmt" xlink:title="alter_table_set_schema_stmt">
<rect height="32" width="210" x="51" y="267"></rect>
<rect class="nonterminal" height="32" width="210" x="49" y="265"></rect>
<text lengthAdjust="spacingAndGlyphs" textLength="186" font-size="11" class="nonterminal" x="61" y="285">alter_table_set_schema_stmt</text></a><a xlink:href="#alter_table_locality_stmt" xlink:title="alter_table_locality_stmt">
<rect height="32" width="178" x="51" y="311"></rect>
<rect class="nonterminal" height="32" width="178" x="49" y="309"></rect>
<text lengthAdjust="spacingAndGlyphs" textLength="154" font-size="10" class="nonterminal" x="61" y="329">alter_table_locality_stmt</text></a><a xlink:href="#alter_table_owner_stmt" xlink:title="alter_table_owner_stmt">
<rect height="32" width="172" x="51" y="355"></rect>
<rect class="nonterminal" height="32" width="172" x="49" y="353"></rect>
<text lengthAdjust="spacingAndGlyphs" textLength="148" font-size="10" class="nonterminal" x="61" y="373">alter_table_owner_stmt</text></a><path class="line" d="m17 17 h2 m20 0 h10 m150 0 h10 m0 0 h60 m-250 0 h20 m230 0 h20 m-270 0 q10 0 10 10 m250 0 q0 -10 10 -10 m-260 10 v24 m250 0 v-24 m-250 24 q0 10 10 10 m230 0 q10 0 10 -10 m-240 10 h10 m120 0 h10 m0 0 h90 m-240 -10 v20 m250 0 v-20 m-250 20 v24 m250 0 v-24 m-250 24 q0 10 10 10 m230 0 q10 0 10 -10 m-240 10 h10 m136 0 h10 m0 0 h74 m-240 -10 v20 m250 0 v-20 m-250 20 v24 m250 0 v-24 m-250 24 q0 10 10 10 m230 0 q10 0 10 -10 m-240 10 h10 m138 0 h10 m0 0 h72 m-240 -10 v20 m250 0 v-20 m-250 20 v24 m250 0 v-24 m-250 24 q0 10 10 10 m230 0 q10 0 10 -10 m-240 10 h10 m164 0 h10 m0 0 h46 m-240 -10 v20 m250 0 v-20 m-250 20 v24 m250 0 v-24 m-250 24 q0 10 10 10 m230 0 q10 0 10 -10 m-240 10 h10 m182 0 h10 m0 0 h28 m-240 -10 v20 m250 0 v-20 m-250 20 v24 m250 0 v-24 m-250 24 q0 10 10 10 m230 0 q10 0 10 -10 m-240 10 h10 m210 0 h10 m-240 -10 v20 m250 0 v-20 m-250 20 v24 m250 0 v-24 m-250 24 q0 10 10 10 m230 0 q10 0 10 -10 m-240 10 h10 m178 0 h10 m0 0 h32 m-240 -10 v20 m250 0 v-20 m-250 20 v24 m250 0 v-24 m-250 24 q0 10 10 10 m230 0 q10 0 10 -10 m-240 10 h10 m172 0 h10 m0 0 h38 m23 -352 h-3"></path>
<polygon points="299 17 307 13 307 21"></polygon>
<polygon points="299 17 291 13 291 21"></polygon></svg>