<svg height="81" width="601" xmlns="http://www.w3.org/2000/svg" xmlns:xlink="http://www.w3.org/1999/xlink"><style>svg {
  font-family: ui-monospace, SFMono-Regular, Menlo, Monaco, Consolas, "Liberation Mono", "Courier New", monospace;
}
text {
  fill: #2f3337;
  font-size: 14px;
}
rect {
  fill: #ffffff;
  stroke: #3a3d40;
  stroke-width: 2;
}
rect.terminal {
  fill: #ffffff;
}
rect.nonterminal {
  fill: #ffffff;
}
text.terminal {
  fill: #2f3337;
  font-weight: 600;
}
text.nonterminal {
  fill: #2563eb;
}
a text.nonterminal {
  text-decoration: underline;
}
path.line {
  fill: none;
  stroke: #3a3d40;
  stroke-width: 2;
}
polygon {
  fill: #2f3337;
  stroke: #2f3337;
}</style>
<polygon points="9 17 1 13 1 21"></polygon>
<polygon points="17 17 9 13 9 21"></polygon>
<rect height="32" rx="10" width="64" x="31" y="3"></rect>
<rect class="terminal" height="32" rx="10" width="64" x="29" y="1"></rect>
<text class="terminal" x="39" y="21">SHOW</text>
<rect height="32" rx="10" width="76" x="135" y="3"></rect>
<rect class="terminal" height="32" rx="10" width="76" x="133" y="1"></rect>
<text class="terminal" x="143" y="21">GRANTS</text><a xlink:href="#opt_on_targets_roles" xlink:title="opt_on_targets_roles">
<rect height="32" width="158" x="231" y="3"></rect>
<rect class="nonterminal" height="32" width="158" x="229" y="1"></rect>
<text lengthAdjust="spacingAndGlyphs" textLength="134" font-size="10" class="nonterminal" x="241" y="21">opt_on_targets_roles</text></a><rect height="32" rx="10" width="74" x="135" y="47"></rect>
<rect class="terminal" height="32" rx="10" width="74" x="133" y="45"></rect>
<text class="terminal" x="143" y="65">SYSTEM</text>
<rect height="32" rx="10" width="76" x="229" y="47"></rect>
<rect class="terminal" height="32" rx="10" width="76" x="227" y="45"></rect>
<text class="terminal" x="237" y="65">GRANTS</text><a xlink:href="#for_grantee_clause" xlink:title="for_grantee_clause">
<rect height="32" width="144" x="429" y="3"></rect>
<rect class="nonterminal" height="32" width="144" x="427" y="1"></rect>
<text lengthAdjust="spacingAndGlyphs" textLength="120" font-size="10" class="nonterminal" x="439" y="21">for_grantee_clause</text></a><path class="line" d="m17 17 h2 m0 0 h10 m64 0 h10 m20 0 h10 m76 0 h10 m0 0 h10 m158 0 h10 m-294 0 h20 m274 0 h20 m-314 0 q10 0 10 10 m294 0 q0 -10 10 -10 m-304 10 v24 m294 0 v-24 m-294 24 q0 10 10 10 m274 0 q10 0 10 -10 m-284 10 h10 m74 0 h10 m0 0 h10 m76 0 h10 m0 0 h84 m20 -44 h10 m144 0 h10 m3 0 h-3"></path>
<polygon points="591 17 599 13 599 21"></polygon>
<polygon points="591 17 583 13 583 21"></polygon></svg>