<svg width="29" height="28" viewBox="0 0 29 28" fill="none" xmlns="http://www.w3.org/2000/svg">
<path fill-rule="evenodd" clip-rule="evenodd" d="M3.52184 2.33333C2.87716 2.33333 2.35334 2.85633 2.35334 3.5V25.6667H25.7232V3.5C25.7232 2.85633 25.1994 2.33333 24.5547 2.33333H3.52184ZM0.0163574 3.5C0.0163574 1.56767 1.58648 0 3.52184 0H24.5547C26.4901 0 28.0602 1.56767 28.0602 3.5V26.8333C28.0602 27.4777 27.537 28 26.8917 28H1.18485C0.539509 28 0.0163574 27.4777 0.0163574 26.8333V3.5Z" fill="url(#paint0_linear)"/>
<path fill-rule="evenodd" clip-rule="evenodd" d="M0.0163574 10.4999C0.0163574 9.8556 0.539509 9.33327 1.18485 9.33327H26.8917C27.537 9.33327 28.0602 9.8556 28.0602 10.4999C28.0602 11.1443 27.537 11.6666 26.8917 11.6666H1.18485C0.539509 11.6666 0.0163574 11.1443 0.0163574 10.4999Z" fill="url(#paint1_linear)"/>
<path fill-rule="evenodd" clip-rule="evenodd" d="M11.358 14.3417C11.8143 14.7973 11.8143 15.536 11.358 15.9916L8.67884 18.6667L11.358 21.3417C11.8143 21.7973 11.8143 22.536 11.358 22.9916C10.9017 23.4472 10.1619 23.4472 9.70555 22.9916L6.20015 19.4916C5.74383 19.036 5.74383 18.2973 6.20015 17.8417L9.70555 14.3417C10.1619 13.8861 10.9017 13.8861 11.358 14.3417Z" fill="url(#paint2_linear)"/>
<path fill-rule="evenodd" clip-rule="evenodd" d="M16.7165 14.3417C17.1728 13.8861 17.9127 13.8861 18.369 14.3417L21.8745 17.8417C22.3308 18.2973 22.3308 19.036 21.8745 19.4916L18.369 22.9916C17.9127 23.4472 17.1728 23.4472 16.7165 22.9916C16.2602 22.536 16.2602 21.7973 16.7165 21.3417L19.3957 18.6667L16.7165 15.9916C16.2602 15.536 16.2602 14.7973 16.7165 14.3417Z" fill="url(#paint3_linear)"/>
<path fill-rule="evenodd" clip-rule="evenodd" d="M5.85886 4.65501C6.50416 4.65501 7.02728 5.17735 7.02728 5.82169V5.83336C7.02728 6.47769 6.50416 7.00003 5.85886 7.00003C5.21355 7.00003 4.69043 6.47769 4.69043 5.83336V5.82169C4.69043 5.17735 5.21355 4.65501 5.85886 4.65501Z" fill="url(#paint4_linear)"/>
<path fill-rule="evenodd" clip-rule="evenodd" d="M10.5317 4.65501C11.1771 4.65501 11.7002 5.17735 11.7002 5.82169V5.83336C11.7002 6.47769 11.1771 7.00003 10.5317 7.00003C9.88642 7.00003 9.36328 6.47769 9.36328 5.83336V5.82169C9.36328 5.17735 9.88642 4.65501 10.5317 4.65501Z" fill="url(#paint5_linear)"/>
<path fill-rule="evenodd" clip-rule="evenodd" d="M15.2068 4.65501C15.8521 4.65501 16.3752 5.17735 16.3752 5.82169V5.83336C16.3752 6.47769 15.8521 7.00003 15.2068 7.00003C14.5615 7.00003 14.0383 6.47769 14.0383 5.83336V5.82169C14.0383 5.17735 14.5615 4.65501 15.2068 4.65501Z" fill="url(#paint6_linear)"/>
<defs>
<linearGradient id="paint0_linear" x1="0.0163574" y1="0" x2="34.8479" y2="7.837" gradientUnits="userSpaceOnUse">
<stop offset="0.313546" stop-color="#37A806"/>
<stop offset="1" stop-color="#0788FF"/>
</linearGradient>
<linearGradient id="paint1_linear" x1="0.0163574" y1="9.33327" x2="4.43074" y2="21.252" gradientUnits="userSpaceOnUse">
<stop offset="0.313546" stop-color="#37A806"/>
<stop offset="1" stop-color="#0788FF"/>
</linearGradient>
<linearGradient id="paint2_linear" x1="5.85791" y1="14" x2="13.3339" y2="15.0513" gradientUnits="userSpaceOnUse">
<stop offset="0.313546" stop-color="#37A806"/>
<stop offset="1" stop-color="#0788FF"/>
</linearGradient>
<linearGradient id="paint3_linear" x1="16.3743" y1="14" x2="23.8504" y2="15.0513" gradientUnits="userSpaceOnUse">
<stop offset="0.313546" stop-color="#37A806"/>
<stop offset="1" stop-color="#0788FF"/>
</linearGradient>
<linearGradient id="paint4_linear" x1="4.69043" y1="4.65501" x2="7.5943" y2="5.30508" gradientUnits="userSpaceOnUse">
<stop offset="0.313546" stop-color="#37A806"/>
<stop offset="1" stop-color="#0788FF"/>
</linearGradient>
<linearGradient id="paint5_linear" x1="9.36328" y1="4.65501" x2="12.2672" y2="5.30512" gradientUnits="userSpaceOnUse">
<stop offset="0.313546" stop-color="#37A806"/>
<stop offset="1" stop-color="#0788FF"/>
</linearGradient>
<linearGradient id="paint6_linear" x1="14.0383" y1="4.65501" x2="16.9423" y2="5.30512" gradientUnits="userSpaceOnUse">
<stop offset="0.313546" stop-color="#37A806"/>
<stop offset="1" stop-color="#0788FF"/>
</linearGradient>
</defs>
</svg>
