<svg width="225" height="30" viewBox="0 0 225 30" fill="none" xmlns="http://www.w3.org/2000/svg">
<line x1="155.5" y1="3" x2="155.5" y2="27" stroke="#C0C6D9"/>
<path d="M168.494 21V9.228H171.644C173.444 9.228 174.848 9.714 175.856 10.686C176.864 11.658 177.368 13.116 177.368 15.06C177.368 16.032 177.236 16.89 176.972 17.634C176.72 18.378 176.348 19.002 175.856 19.506C175.376 19.998 174.788 20.37 174.092 20.622C173.408 20.874 172.628 21 171.752 21H168.494ZM170.582 19.308H171.5C172.7 19.308 173.618 18.966 174.254 18.282C174.902 17.586 175.226 16.512 175.226 15.06C175.226 13.62 174.902 12.57 174.254 11.91C173.606 11.25 172.688 10.92 171.5 10.92H170.582V19.308ZM184.316 21.216C183.548 21.216 182.846 21.078 182.21 20.802C181.574 20.514 181.028 20.106 180.572 19.578C180.116 19.038 179.762 18.39 179.51 17.634C179.258 16.878 179.132 16.02 179.132 15.06C179.132 14.112 179.258 13.266 179.51 12.522C179.762 11.766 180.116 11.13 180.572 10.614C181.028 10.098 181.574 9.702 182.21 9.426C182.846 9.15 183.548 9.012 184.316 9.012C185.084 9.012 185.786 9.15 186.422 9.426C187.058 9.702 187.604 10.098 188.06 10.614C188.528 11.13 188.888 11.766 189.14 12.522C189.392 13.266 189.518 14.112 189.518 15.06C189.518 16.02 189.392 16.878 189.14 17.634C188.888 18.39 188.528 19.038 188.06 19.578C187.604 20.106 187.058 20.514 186.422 20.802C185.786 21.078 185.084 21.216 184.316 21.216ZM184.316 19.398C184.784 19.398 185.204 19.296 185.576 19.092C185.948 18.888 186.266 18.6 186.53 18.228C186.794 17.844 186.998 17.388 187.142 16.86C187.286 16.32 187.358 15.72 187.358 15.06C187.358 13.74 187.082 12.708 186.53 11.964C185.99 11.208 185.252 10.83 184.316 10.83C183.38 10.83 182.636 11.208 182.084 11.964C181.544 12.708 181.274 13.74 181.274 15.06C181.274 15.72 181.346 16.32 181.49 16.86C181.634 17.388 181.838 17.844 182.102 18.228C182.366 18.6 182.684 18.888 183.056 19.092C183.428 19.296 183.848 19.398 184.316 19.398ZM196.571 21.216C195.827 21.216 195.131 21.084 194.483 20.82C193.835 20.556 193.271 20.166 192.791 19.65C192.323 19.134 191.951 18.498 191.675 17.742C191.399 16.986 191.261 16.122 191.261 15.15C191.261 14.19 191.399 13.332 191.675 12.576C191.963 11.808 192.347 11.16 192.827 10.632C193.319 10.104 193.889 9.702 194.537 9.426C195.197 9.15 195.899 9.012 196.643 9.012C197.387 9.012 198.047 9.162 198.623 9.462C199.199 9.762 199.673 10.11 200.045 10.506L198.929 11.856C198.617 11.544 198.281 11.298 197.921 11.118C197.561 10.926 197.153 10.83 196.697 10.83C196.217 10.83 195.773 10.932 195.365 11.136C194.969 11.328 194.621 11.61 194.321 11.982C194.033 12.342 193.805 12.786 193.637 13.314C193.481 13.842 193.403 14.436 193.403 15.096C193.403 16.44 193.691 17.496 194.267 18.264C194.855 19.02 195.647 19.398 196.643 19.398C197.171 19.398 197.639 19.29 198.047 19.074C198.455 18.846 198.827 18.552 199.163 18.192L200.279 19.506C199.799 20.058 199.247 20.484 198.623 20.784C198.011 21.072 197.327 21.216 196.571 21.216ZM205.207 21.216C204.415 21.216 203.647 21.066 202.903 20.766C202.171 20.466 201.523 20.04 200.959 19.488L202.183 18.066C202.603 18.462 203.083 18.786 203.623 19.038C204.163 19.278 204.703 19.398 205.243 19.398C205.915 19.398 206.425 19.26 206.773 18.984C207.121 18.708 207.295 18.342 207.295 17.886C207.295 17.646 207.247 17.442 207.151 17.274C207.067 17.106 206.941 16.962 206.773 16.842C206.617 16.71 206.425 16.59 206.197 16.482C205.981 16.374 205.741 16.266 205.477 16.158L203.857 15.456C203.569 15.336 203.281 15.186 202.993 15.006C202.717 14.826 202.465 14.61 202.237 14.358C202.009 14.106 201.823 13.812 201.679 13.476C201.547 13.14 201.481 12.756 201.481 12.324C201.481 11.856 201.577 11.424 201.769 11.028C201.973 10.62 202.249 10.266 202.597 9.966C202.945 9.666 203.359 9.432 203.839 9.264C204.331 9.096 204.865 9.012 205.441 9.012C206.125 9.012 206.785 9.15 207.421 9.426C208.057 9.69 208.603 10.05 209.059 10.506L207.997 11.838C207.613 11.526 207.217 11.28 206.809 11.1C206.401 10.92 205.945 10.83 205.441 10.83C204.877 10.83 204.427 10.956 204.091 11.208C203.755 11.448 203.587 11.784 203.587 12.216C203.587 12.444 203.635 12.642 203.731 12.81C203.839 12.966 203.977 13.11 204.145 13.242C204.325 13.362 204.529 13.476 204.757 13.584C204.985 13.68 205.219 13.776 205.459 13.872L207.061 14.538C207.409 14.682 207.727 14.85 208.015 15.042C208.303 15.234 208.549 15.456 208.753 15.708C208.969 15.96 209.137 16.254 209.257 16.59C209.377 16.914 209.437 17.292 209.437 17.724C209.437 18.204 209.341 18.654 209.149 19.074C208.957 19.494 208.675 19.866 208.303 20.19C207.943 20.502 207.499 20.754 206.971 20.946C206.455 21.126 205.867 21.216 205.207 21.216Z" fill="#152849"/>
<g clip-path="url(#clip0)">
<path d="M120.254 8.35355H125.317C129.625 8.35355 132.162 11.4406 132.162 15.0661C132.162 18.6916 129.65 21.7769 125.317 21.7769H120.254V8.35355ZM125.03 19.169C127.675 19.169 128.961 17.1947 128.961 15.0661C128.961 12.9375 127.675 10.9614 125.03 10.9614H123.361V19.169H125.03Z" fill="#152849"/>
<path d="M143.197 18.0562C143.197 20.359 141.566 21.7769 138.9 21.7769H133.166V8.35355H138.69C141.356 8.35355 142.998 9.67631 142.998 11.8426C142.998 13.589 141.98 14.6246 140.428 14.9118C141.987 15.0661 143.197 16.1968 143.197 18.0562ZM136.273 10.597V13.8564H137.999C139.188 13.8564 139.898 13.2426 139.898 12.2267C139.898 11.2109 139.207 10.597 137.999 10.597H136.273ZM140.071 17.6542C140.071 16.6563 139.322 16.0048 138.209 16.0048H136.273V19.4149H138.202C139.36 19.4185 140.071 18.767 140.071 17.6542Z" fill="#152849"/>
<path d="M27.1252 15.0158C27.1252 11.0852 29.7941 8.25296 33.9975 8.25296C37.7451 8.25296 40.1752 10.2452 40.5234 13.2605H37.3789C37.0505 11.8156 35.8444 10.9021 34.0155 10.9021C31.6033 10.9021 30.2141 12.5174 30.2141 15.0158C30.2141 17.5141 31.6033 19.1277 34.0155 19.1277C35.8444 19.1277 37.0505 18.2141 37.3789 16.7693H40.5234C40.1752 19.7864 37.7451 21.7768 33.9975 21.7768C29.7941 21.7768 27.1252 18.9446 27.1252 15.0158Z" fill="#152849"/>
<path d="M41.167 17.1355C41.167 14.4433 43.0318 12.4923 46.065 12.4923C49.0982 12.4923 50.9451 14.4487 50.9451 17.1355C50.9451 19.8223 49.0803 21.7768 46.065 21.7768C43.0497 21.7768 41.167 19.8223 41.167 17.1355ZM48.1667 17.1355C48.1667 15.8002 47.3806 14.8507 46.065 14.8507C44.7494 14.8507 43.9633 15.8002 43.9633 17.1355C43.9633 18.4708 44.7315 19.4203 46.065 19.4203C47.3985 19.4203 48.1667 18.469 48.1667 17.1355Z" fill="#152849"/>
<path d="M51.7288 17.1355C51.7288 14.3571 53.5379 12.4923 56.4455 12.4923C59.0767 12.4923 60.7943 13.8815 61.0133 16.0819H58.217C58.016 15.2599 57.4865 14.8758 56.4634 14.8758C55.2573 14.8758 54.5251 15.6799 54.5251 17.1427C54.5251 18.6054 55.2573 19.4095 56.4634 19.4095C57.4865 19.4095 58.016 19.0505 58.217 18.2752H61.0133C60.7943 20.4146 59.0767 21.784 56.4455 21.784C53.5379 21.7768 51.7288 19.9138 51.7288 17.1355Z" fill="#152849"/>
<path d="M67.5472 21.7769L64.7312 17.9396V21.7769H61.9546V8.98355H64.7312V16.6779L67.619 12.968H70.9089L67.4 17.1355L70.9645 21.7769H67.5472Z" fill="#152849"/>
<path d="M71.6484 12.9679H74.4448V14.8148C74.7571 13.4992 75.798 12.8226 76.8767 12.8226C77.2052 12.8226 77.819 13.0021 78.0775 13.3233L76.586 15.3802C75.0694 15.3802 74.4448 16.4229 74.4448 18.3775V21.7768H71.6484V12.9679Z" fill="#152849"/>
<path d="M77.4097 17.1355C77.4097 14.4433 79.2745 12.4923 82.3077 12.4923C85.3409 12.4923 87.1877 14.4487 87.1877 17.1355C87.1877 19.8223 85.3247 21.7768 82.3077 21.7768C79.2906 21.7768 77.4097 19.8223 77.4097 17.1355ZM84.4094 17.1355C84.4094 15.8002 83.6233 14.8507 82.3077 14.8507C80.9921 14.8507 80.206 15.8002 80.206 17.1355C80.206 18.4708 80.9741 19.4203 82.3077 19.4203C83.6412 19.4203 84.4094 18.469 84.4094 17.1355Z" fill="#152849"/>
<path d="M88.0071 17.1355C88.0071 14.5025 89.6332 12.4923 92.1926 12.4923C93.4723 12.4923 94.4774 13.0954 94.953 13.991V12.7346H97.7313V21.5435H94.9458V20.2997C94.4702 21.1774 93.3735 21.7804 92.1495 21.7804C89.5237 21.7769 88.0071 19.7846 88.0071 17.1355ZM95.0625 17.1355C95.0625 15.8791 94.3445 14.8328 92.9607 14.8328C91.6631 14.8328 90.859 15.8002 90.859 17.1355C90.859 18.4708 91.6631 19.4562 92.9607 19.4562C94.3499 19.4562 95.0625 18.4152 95.0625 17.1355Z" fill="#152849"/>
<path d="M98.7351 17.1355C98.7351 14.3571 100.544 12.4923 103.452 12.4923C106.083 12.4923 107.801 13.8815 108.02 16.0819H105.223C105.022 15.2599 104.493 14.8758 103.47 14.8758C102.264 14.8758 101.531 15.6799 101.531 17.1427C101.531 18.6054 102.264 19.4095 103.47 19.4095C104.493 19.4095 105.022 19.0505 105.223 18.2752H108.02C107.801 20.4146 106.083 21.784 103.452 21.784C100.544 21.7768 98.7351 19.9138 98.7351 17.1355Z" fill="#152849"/>
<path d="M117.799 16.3315V21.7769H114.984V17.245C114.984 15.7643 114.563 15.0913 113.43 15.0913C112.298 15.0913 111.73 15.8235 111.73 17.175V21.7805H108.934V8.98355H111.73V14.2477C112.242 13.2606 113.247 12.7311 114.582 12.7311C116.72 12.7311 117.799 13.9372 117.799 16.3315Z" fill="#152849"/>
<path d="M25.8112 2.91896C25.3471 2.74265 24.8738 2.59166 24.3933 2.46667C22.4521 1.95644 20.4248 1.86313 18.445 2.1929C16.4651 2.52267 14.5776 3.26804 12.9065 4.37993C10.5739 2.8223 7.8305 1.99386 5.02557 2.00003C3.80907 1.99833 2.59755 2.1552 1.4216 2.46667C0.939729 2.59087 0.465163 2.74187 0.000118913 2.91896C-0.0285979 2.93153 0.678554 5.07272 0.703682 5.05836C1.18665 4.88519 1.67925 4.74016 2.17901 4.62402C3.11231 4.4074 4.06746 4.299 5.02557 4.30096C7.34409 4.29664 9.61935 4.92862 11.6035 6.12807C10.3866 7.15828 6.56371 10.0084 6.56371 16.2059C6.5454 18.5462 7.11347 20.854 8.21608 22.9184C9.31869 24.9829 10.9207 26.7383 12.876 28.0246C12.8854 28.0307 12.8963 28.034 12.9074 28.034C12.9186 28.034 12.9295 28.0307 12.9389 28.0246C13.1829 27.8577 19.2494 24.2268 19.2494 16.2148C19.2494 9.98689 15.4354 7.16366 14.2114 6.12807C16.1923 4.92823 18.4643 4.29443 20.7803 4.29557C21.7414 4.29305 22.6996 4.40146 23.6359 4.61864C24.1351 4.7337 24.6272 4.87813 25.1094 5.05118C25.1274 5.06734 25.8453 2.93153 25.8112 2.91896Z" fill="#152849"/>
<path d="M16.5736 13.9336C18.46 17.2019 15.8396 23.0619 14.2045 24.2232C13.3233 19.8367 14.3086 16.335 16.5736 13.9336Z" fill="#54B30E"/>
<path d="M11.6146 24.2232C9.97958 23.0619 7.36097 17.2019 9.24551 13.9336C11.5088 16.335 12.4959 19.8367 11.6146 24.2232Z" fill="#93E600"/>
<path d="M15.4748 10.974C14.6335 11.1707 13.7722 11.2694 12.9082 11.2683C12.0436 11.2693 11.1818 11.1706 10.3398 10.974C11.0292 9.8828 11.8974 8.91561 12.9082 8.11304C13.9185 8.91561 14.7862 9.88281 15.4748 10.974Z" fill="white"/>
</g>
<defs>
<clipPath id="clip0">
<rect width="143.195" height="26.03" fill="white" transform="translate(0 2)"/>
</clipPath>
</defs>
</svg>
