<svg width="319" height="51" viewBox="0 0 319 51" fill="none" xmlns="http://www.w3.org/2000/svg">
<path d="M49.9866 2.78813C49.8393 2.47125 49.5692 2.20313 49.2501 2.08125C48.2926 1.71562 47.4087 1.4475 46.574 1.22813C44.4135 0.6675 42.1303 0.375 39.8225 0.375C34.7895 0.375 29.9285 1.76437 25.6811 4.39687C21.4338 1.76437 16.5727 0.375 11.5153 0.375C9.20747 0.375 6.92423 0.6675 4.73919 1.2525C3.90446 1.47188 3.02063 1.74 2.08769 2.10563C1.74398 2.20313 1.47392 2.47125 1.35116 2.78813C1.20386 3.105 1.22841 3.47063 1.37572 3.7875C1.74398 4.5675 2.16135 5.37188 2.62781 6.15188C2.84877 6.54188 3.26614 6.78563 3.70806 6.78563H3.90446L4.14997 6.7125C4.9847 6.42 5.81944 6.15188 6.65417 5.98125C8.22543 5.61563 9.84579 5.445 11.5153 5.445C14.9278 5.445 18.2913 6.24937 21.3111 7.785C19.568 9.4425 18.0458 11.3438 16.7937 13.44C16.5482 13.8544 16.2781 14.3175 15.9835 14.9269C15.7871 15.2681 15.6398 15.6338 15.468 15.9994C15.2224 16.5113 15.0015 17.0719 14.7805 17.6569C13.6757 20.6063 13.1111 23.7019 13.1111 26.895C13.1111 34.1588 16.0326 40.9594 21.3356 46.0294C21.7284 46.395 22.1213 46.7606 22.5877 47.1263C22.9069 47.3944 23.2506 47.6869 23.6189 47.955C23.9871 48.2475 24.4291 48.5644 24.9692 48.93C25.1656 49.0519 25.4111 49.125 25.6811 49.125C25.9267 49.125 26.1967 49.0519 26.3931 48.9056C26.9332 48.54 27.3506 48.2231 27.7434 47.9306C28.0871 47.6869 28.4309 47.4188 28.7746 47.1019C29.241 46.7119 29.6584 46.3462 30.0021 46.005C35.3051 40.9594 38.2267 34.1588 38.2267 26.895C38.2267 23.7263 37.662 20.6306 36.5572 17.6569C36.3363 17.0719 36.1153 16.5356 35.8698 15.9994C35.7225 15.6338 35.5506 15.2925 35.3788 14.9513C35.1087 14.4394 34.8387 13.9275 34.5195 13.4156C33.2674 11.3194 31.7452 9.41812 30.0021 7.73625C33.0219 6.20062 36.3854 5.39625 39.7979 5.39625C41.4674 5.39625 43.0878 5.59125 44.659 5.9325C45.5183 6.1275 46.353 6.37125 47.1878 6.66375L47.3842 6.73687H47.6297C48.0716 6.73687 48.489 6.49312 48.7099 6.1275C49.1518 5.39625 49.5692 4.59188 49.962 3.76313C50.1093 3.495 50.1339 3.105 49.9866 2.78813ZM23.2997 42.2025C23.2752 42.2756 23.2752 42.3244 23.2506 42.3975C19.3961 38.3513 17.0392 32.8913 17.0392 26.895C17.0392 26.2125 17.0883 25.53 17.1374 24.8475C17.2847 23.2144 17.6039 21.6056 18.0949 20.0944C19.5189 21.5813 20.7219 23.2875 21.7039 25.1156C23.3734 28.26 24.3063 31.8187 24.3063 35.5969C24.2817 37.8881 23.938 40.1063 23.2997 42.2025ZM34.3231 26.895C34.3231 29.5031 33.8812 32.0138 33.0464 34.3538C33.0464 34.3781 33.0464 34.3781 33.0464 34.3781C33.0219 34.4025 33.0219 34.4513 32.9973 34.4756C32.0153 37.1813 30.5177 39.6675 28.6518 41.8125C28.48 42.0075 28.2835 42.2025 28.1117 42.3975C27.8662 41.5931 27.6698 40.7644 27.4979 39.9112C27.2279 38.5219 27.056 37.0594 27.056 35.5969C27.056 32.5987 27.6452 29.7225 28.7255 27.1144C29.8057 24.5063 31.3524 22.1175 33.2919 20.0944C33.9303 22.2394 34.3231 24.5063 34.3231 26.895ZM30.8123 14.8294C29.1674 15.2194 27.4488 15.4144 25.6811 15.4144C23.9135 15.4144 22.1949 15.2194 20.55 14.8294C21.9249 12.66 23.668 10.7344 25.6811 9.15C27.6943 10.7588 29.4374 12.66 30.8123 14.8294Z" fill="#152849"/>
<path d="M17.9983 19.125C21.2149 21.6896 26.783 30.0299 23.3224 42.875C20.1058 39.7529 14.5377 30.632 17.9983 19.125Z" fill="#76DE49"/>
<path d="M28.0154 42.875C31.232 40.3104 36.8001 31.9701 33.3394 19.125C30.1228 22.2471 24.5548 31.368 28.0154 42.875Z" fill="#37A806"/>
<path d="M77.9646 30.8902H84.1156C83.4276 36.7785 78.6802 40.6743 71.3526 40.6743C63.1237 40.6743 57.9084 35.1364 57.9084 27.4617C57.8547 24.67 58.6539 21.9283 60.1996 19.6015C60.9214 18.5453 61.8143 17.6165 62.8416 16.8532C65.3192 15.0833 68.3074 14.169 71.3526 14.2491C78.6802 14.2491 83.4345 18.138 84.1156 24.0332H77.9646C77.3179 21.2093 74.9579 19.4297 71.387 19.4297C68.0432 19.4297 65.7038 21.01 64.6236 23.669C64.1538 24.8777 63.9202 26.1652 63.9356 27.4617C63.9119 28.8 64.1576 30.1295 64.658 31.3712C65.7589 33.9615 68.0982 35.4937 71.3733 35.4937C74.9579 35.4937 77.3179 33.7073 77.9646 30.8902Z" fill="#152849"/>
<path d="M94.953 22.5369C89.0222 22.5369 85.3756 26.357 85.3756 31.6063C85.3756 36.8557 89.0222 40.6758 94.953 40.6758C100.884 40.6758 104.503 36.8557 104.503 31.6063C104.503 26.357 100.856 22.5369 94.953 22.5369ZM94.953 36.0655C92.3454 36.0655 90.8248 34.2104 90.8248 31.6063C90.8248 29.0023 92.3248 27.1403 94.953 27.1403C97.5813 27.1403 99.0813 28.9954 99.0813 31.6063C99.0813 34.2173 97.5332 36.0655 94.953 36.0655Z" fill="#152849"/>
<path d="M115.298 36.0312C112.938 36.0312 111.507 34.4577 111.507 31.6063C111.507 28.755 112.938 27.1747 115.298 27.1747C117.3 27.1747 118.332 27.9236 118.738 29.5314H124.208C123.775 25.2508 120.417 22.5369 115.264 22.5369C109.574 22.5369 106.037 26.1784 106.037 31.6063C106.037 37.0343 109.574 40.6758 115.264 40.6758C120.41 40.6758 123.768 37.9962 124.208 33.805H118.731C118.332 35.3166 117.3 36.0312 115.298 36.0312Z" fill="#152849"/>
<path d="M136.696 31.6064L143.576 23.4644H137.136L131.474 30.7406V15.6798H126.025V40.6758H131.46V33.1729L136.964 40.6758H143.645L136.696 31.6064Z" fill="#152849"/>
<path d="M155.239 23.1828C154.116 23.1768 153.026 23.5629 152.158 24.2742C151.29 24.9856 150.698 25.9775 150.484 27.0786V23.4645H144.98V40.6759H150.484V34.0318C150.484 30.2117 151.702 28.1779 154.667 28.1779L157.585 24.1585C156.949 23.5569 156.114 23.2097 155.239 23.1828V23.1828Z" fill="#152849"/>
<path d="M165.862 22.5369C159.924 22.5369 156.278 26.357 156.278 31.6063C156.278 36.8557 159.924 40.6758 165.862 40.6758C171.8 40.6758 175.405 36.8557 175.405 31.6063C175.405 26.357 171.758 22.5369 165.862 22.5369ZM165.862 36.0655C163.247 36.0655 161.734 34.2104 161.734 31.6063C161.734 29.0023 163.234 27.1403 165.862 27.1403C168.49 27.1403 169.99 28.9954 169.99 31.6063C169.99 34.2173 168.435 36.0655 165.862 36.0655Z" fill="#152849"/>
<path d="M190.597 22.9973V25.4639C190.053 24.5273 189.261 23.7586 188.308 23.2422C187.355 22.7259 186.278 22.4818 185.196 22.5369C180.187 22.5369 177.008 26.4602 177.008 31.6064C177.008 36.7527 179.973 40.6759 185.12 40.6759C187.514 40.6759 189.661 39.4941 190.59 37.7833V40.2087H196.025V23.0316L190.597 22.9973ZM186.702 36.1412C184.163 36.1412 182.574 34.2105 182.574 31.6064C182.574 29.0024 184.15 27.106 186.702 27.106C189.42 27.106 190.831 29.1673 190.831 31.6064C190.831 34.0456 189.42 36.1412 186.702 36.1412Z" fill="#152849"/>
<path d="M207.261 36.0312C204.901 36.0312 203.47 34.4577 203.47 31.6063C203.47 28.755 204.901 27.1747 207.261 27.1747C209.263 27.1747 210.302 27.9236 210.701 29.5314H216.157C215.73 25.2508 212.366 22.5369 207.213 22.5369C201.522 22.5369 197.986 26.1784 197.986 31.6063C197.986 37.0343 201.522 40.6758 207.213 40.6758C212.359 40.6758 215.723 37.9962 216.157 33.805H210.687C210.302 35.3166 209.277 36.0312 207.261 36.0312Z" fill="#152849"/>
<path d="M229.003 22.9972C226.388 22.9972 224.428 24.0347 223.423 25.9654V15.6592H217.953V40.6758H223.423V31.6751C223.423 29.0367 224.565 27.6075 226.746 27.6075C228.927 27.6075 229.787 28.9267 229.787 31.8193V40.6758H235.292V30.0535C235.298 25.3539 233.186 22.9972 229.003 22.9972Z" fill="#152849"/>
<path d="M260.102 35.5502H253.311V15.6798H247.518V40.6758H263.177L260.102 35.5502Z" fill="#152849"/>
<path d="M275.184 22.9973V25.4639C274.64 24.5273 273.848 23.7586 272.895 23.2422C271.942 22.7259 270.865 22.4818 269.783 22.5369C264.781 22.5369 261.595 26.4602 261.595 31.6064C261.595 36.7527 264.56 40.6759 269.714 40.6759C272.108 40.6759 274.255 39.4941 275.218 37.7833V40.2087H280.653V23.0316L275.184 22.9973ZM271.282 36.1412C268.744 36.1412 267.154 34.2105 267.154 31.6064C267.154 29.0024 268.723 27.106 271.282 27.106C274 27.106 275.411 29.1673 275.411 31.6064C275.411 34.0456 274 36.1412 271.282 36.1412Z" fill="#152849"/>
<path d="M293.905 22.5369C292.791 22.4972 291.685 22.7458 290.695 23.2586C289.705 23.7715 288.865 24.5311 288.256 25.4639V15.2126H282.821V40.2087H288.256V37.7833C288.842 38.7025 289.658 39.453 290.623 39.9604C291.589 40.4678 292.67 40.7144 293.761 40.6759C298.515 40.6759 301.845 36.9931 301.845 31.6064C301.845 26.2197 298.604 22.5369 293.905 22.5369ZM292.185 36.1412C289.756 36.1412 288.057 34.3204 288.057 31.6064C288.057 28.8924 289.736 27.106 292.185 27.106C294.634 27.106 296.265 28.9612 296.265 31.6064C296.265 34.2517 294.593 36.1412 292.164 36.1412H292.185Z" fill="#152849"/>
<path d="M313.858 30.0536L310.211 29.0505C308.835 28.6932 308.312 28.1985 308.312 27.4083C308.312 26.6182 309.104 26.0342 310.28 26.0342C311.746 26.0342 312.64 26.6732 312.64 27.8893H317.986C317.986 24.4539 315.158 22.5713 310.294 22.5713C305.863 22.5713 302.932 24.7081 302.932 27.958C302.932 30.5689 304.508 32.3141 307.26 32.9943L310.872 33.8875C312.337 34.2448 312.73 34.712 312.73 35.4953C312.73 36.4916 311.904 37.0687 310.727 37.0687C309.049 37.0687 307.9 36.2442 307.9 35.0693H302.464C302.464 38.4223 305.719 40.7103 310.617 40.7103C315.193 40.7103 318.186 38.6009 318.186 35.0281C318.193 32.3897 316.548 30.7407 313.858 30.0536Z" fill="#152849"/>
</svg>
