<svg width="16" height="28" viewBox="0 0 16 24" fill="none" xmlns="http://www.w3.org/2000/svg">
<path d="M2.25 1.59375H9.375L14.375 6.34375V18.4055C14.375 18.9578 13.9273 19.4062 13.375 19.4062H2.25C1.69772 19.4062 1.25 18.9585 1.25 18.4062V2.59375C1.25 2.04147 1.69772 1.59375 2.25 1.59375Z" fill="#F7F7F7"/>
<path d="M9.375 1.59375H2.25C1.69772 1.59375 1.25 2.04147 1.25 2.59375V18.4062C1.25 18.9585 1.69772 19.4062 2.25 19.4062H13.375C13.9273 19.4062 14.375 18.9578 14.375 18.4055C14.375 13.91 14.375 11.1017 14.375 6.34375M9.375 1.59375L14.375 6.34375M9.375 1.59375V5.34375C9.375 5.89603 9.82271 6.34375 10.375 6.34375H14.375" stroke="#152849" stroke-width="1.5"/>
<line x1="3.75" y1="10" x2="11.25" y2="10" stroke="#152849"/>
<line x1="3.75" y1="12.375" x2="11.25" y2="12.375" stroke="#152849"/>
<line x1="3.75" y1="14.75" x2="10" y2="14.75" stroke="#152849"/>
</svg>