<?xml version="1.0" encoding="UTF-8" standalone="no"?>
<svg width="36px" height="36px" viewBox="0 0 36 36" version="1.1" xmlns="http://www.w3.org/2000/svg" xmlns:xlink="http://www.w3.org/1999/xlink">
    <!-- Generator: Sketch 39.1 (31720) - http://www.bohemiancoding.com/sketch -->
    <title>CL_Logo_Mark_reversed</title>
    <desc>Created with Sketch.</desc>
    <defs>
        <polygon id="path-1" points="0.0342857143 0 35.8028571 0 35.8028571 36 0.0342857143 36"></polygon>
    </defs>
    <g id="Symbols" stroke="none" stroke-width="1" fill="none" fill-rule="evenodd">
        <g id="Footer" transform="translate(-164.000000, -295.000000)">
            <g id="Group" transform="translate(164.000000, 294.000000)">
                <g id="CL_Logo_Mark_reversed" transform="translate(0.000000, 1.000000)">
                    <g id="Group-3">
                        <mask id="mask-2" fill="white">
                            <use xlink:href="#path-1"></use>
                        </mask>
                        <g id="Clip-2"></g>
                        <path d="M33.9742857,3.87428571 C33.3462857,3.64742857 32.6942857,3.45428571 32.0331429,3.30057143 C30.824,3.01828571 29.564,2.87485714 28.2737143,2.87485714 C25.108,2.87485714 22.148,3.76114286 19.6177143,5.28742857 C21.2205714,6.64457143 22.588,8.26857143 23.664,10.0868571 C23.8737143,10.4348571 24.0634286,10.7885714 24.2525714,11.1468571 C24.3708571,11.3874286 24.4885714,11.6337143 24.6011429,11.8897143 C24.7754286,12.2737143 24.9342857,12.6628571 25.0828571,13.0571429 C25.8405714,15.0908571 26.2554286,17.288 26.2554286,19.5771429 C26.2554286,24.8731429 24.0377143,29.6725714 20.4885714,33.0834286 C20.2114286,33.3502857 19.9148571,33.6114286 19.6177143,33.8622857 C19.3817143,34.0668571 19.1462857,34.2565714 18.8954286,34.4411429 C18.5857143,34.6817143 18.2668571,34.9085714 17.9428571,35.1302857 C17.9302857,35.1388571 17.916,35.1428571 17.9011429,35.1428571 C17.8874286,35.1428571 17.8731429,35.1388571 17.8605714,35.1302857 C17.5365714,34.9137143 17.2125714,34.6868571 16.9028571,34.4411429 C16.6571429,34.2565714 16.4217143,34.0668571 16.1862857,33.8622857 C15.884,33.6114286 15.5971429,33.3548571 15.3205714,33.0834286 C11.7657143,29.6725714 9.548,24.8782857 9.548,19.5771429 C9.548,17.288 9.96285714,15.0857143 10.7211429,13.052 C10.8645714,12.6577143 11.028,12.2737143 11.1971429,11.8897143 C11.3154286,11.6337143 11.4331429,11.3874286 11.556,11.1468571 C11.74,10.7885714 11.9297143,10.4348571 12.1394286,10.0868571 C13.2102857,8.26857143 14.5828571,6.64457143 16.1862857,5.28742857 C13.6554286,3.76114286 10.6954286,2.87485714 7.53028571,2.87485714 C6.23942857,2.87485714 4.97942857,3.01828571 3.77085714,3.30057143 C3.10914286,3.45428571 2.46171429,3.64742857 1.82914286,3.87428571 C1.82114286,3.87714286 1.81314286,3.87828571 1.80457143,3.87828571 C1.78,3.87828571 1.756,3.86571429 1.74285714,3.84285714 C1.42457143,3.30285714 1.12857143,2.74457143 0.863428571,2.16857143 C0.845714286,2.13028571 0.864571429,2.08342857 0.904,2.06857143 C1.51085714,1.83942857 2.132,1.63428571 2.772,1.472 C4.288,1.06742857 5.88628571,0.857142857 7.53028571,0.857142857 C11.3662857,0.857142857 14.9308571,2.00971429 17.9017143,3.99142857 C20.8777143,2.00971429 24.4422857,0.857142857 28.2737143,0.857142857 C29.9177143,0.857142857 31.5154286,1.06742857 33.0314286,1.472 C33.6668571,1.63428571 34.2874286,1.83942857 34.8982857,2.06857143 C34.9382857,2.08342857 34.9571429,2.13028571 34.9394286,2.16914286 C34.6702857,2.74457143 34.3788571,3.30285714 34.0605714,3.84285714 C34.0474286,3.86571429 34.024,3.87828571 33.9988571,3.87828571 C33.9908571,3.87828571 33.9822857,3.87714286 33.9742857,3.87428571 L33.9742857,3.87428571 Z M35.7342857,1.78571429 C35.6365714,1.54628571 35.4417143,1.35714286 35.2,1.26628571 C34.4994286,1.00285714 33.8594286,0.798857143 33.244,0.641142857 C31.6525714,0.216571429 29.9771429,0 28.2737143,0 C24.5862857,0 21.0131429,1.02571429 17.9022857,2.97142857 C14.7954286,1.02571429 11.2222857,0 7.53028571,0 C5.82628571,0 4.15085714,0.216571429 2.55085714,0.643428571 C1.93714286,0.799428571 1.296,1.004 0.601142857,1.26685714 C0.360571429,1.35771429 0.166857143,1.54685714 0.0691428571,1.78514286 C-0.0285714286,2.02342857 -0.0228571429,2.29371429 0.0851428571,2.52742857 C0.350857143,3.10457143 0.66,3.69371429 1.00457143,4.27828571 C1.17085714,4.56057143 1.47771429,4.73542857 1.80457143,4.73542857 C1.90342857,4.73542857 2.02571429,4.71428571 2.11828571,4.68114286 C2.72971429,4.46171429 3.35085714,4.27828571 3.96514286,4.13485714 C5.112,3.868 6.31142857,3.732 7.53028571,3.732 C10.0308571,3.732 12.4942857,4.32514286 14.7205714,5.45485714 C13.4262857,6.696 12.3125714,8.10342857 11.4011429,9.652 C11.2131429,9.964 11.024,10.3062857 10.7937143,10.7548571 C10.6645714,11.008 10.5417143,11.2645714 10.4188571,11.5314286 C10.2462857,11.9222857 10.0714286,12.3308571 9.91542857,12.7594286 C9.10342857,14.9365714 8.69085714,17.2325714 8.69085714,19.5771429 C8.69085714,24.9502857 10.8342857,29.9668571 14.7268571,33.7022857 C15.0028571,33.9731429 15.3034286,34.2428571 15.6382857,34.5217143 C15.8697143,34.7228571 16.12,34.9251429 16.3885714,35.1268571 C16.6554286,35.3388571 16.9777143,35.5708571 17.384,35.8428571 C17.5377143,35.9457143 17.7165714,36 17.9011429,36 C18.0897143,36 18.2708571,35.944 18.4262857,35.8377143 C18.8188571,35.5691429 19.1354286,35.3405714 19.4217143,35.1177143 C19.668,34.9371429 19.9222857,34.7331429 20.18,34.5091429 C20.5268571,34.216 20.8251429,33.9491429 21.0828571,33.7011429 C24.9708571,29.9645714 27.1125714,24.948 27.1125714,19.5771429 C27.1125714,17.236 26.7,14.9417143 25.8857143,12.7577143 C25.72,12.3182857 25.5554286,11.9194286 25.3817143,11.536 C25.268,11.2771429 25.1457143,11.0211429 25.0228571,10.7702857 C24.8245714,10.3942857 24.624,10.0188571 24.3977143,9.644 C23.4822857,8.09657143 22.3691429,6.69028571 21.0822857,5.45485714 C23.3091429,4.32514286 25.7725714,3.732 28.2737143,3.732 C29.492,3.732 30.6914286,3.868 31.8382857,4.13485714 C32.4651429,4.28114286 33.0862857,4.46457143 33.6834286,4.68 C33.7765714,4.71428571 33.9,4.73542857 33.9988571,4.73542857 C34.3268571,4.73542857 34.6337143,4.56 34.8,4.27714286 C35.1228571,3.72857143 35.4314286,3.14114286 35.716,2.532 C35.8251429,2.29714286 35.832,2.02571429 35.7342857,1.78571429 L35.7342857,1.78571429 Z" id="Fill-1" fill="#FFFFFF" mask="url(#mask-2)"></path>
                    </g>
                    <path d="M17.9068571,10.2537143 C17.1274286,10.2537143 16.3537143,10.1971429 15.5931429,10.0851429 C16.2737143,9.176 17.0474286,8.34571429 17.9057143,7.60285714 C18.7628571,8.34742857 19.536,9.17828571 20.2154286,10.0857143 C19.4577143,10.1977143 18.6851429,10.2537143 17.9068571,10.2537143 L17.9068571,10.2537143 Z M17.9068571,6.48971429 C16.4285714,7.66 15.152,9.08285714 14.1428571,10.6822857 C15.3537143,10.9645714 16.6148571,11.1108571 17.9068571,11.1108571 C19.1977143,11.1108571 20.4594286,10.9645714 21.6651429,10.6822857 C20.656,9.08285714 19.3845714,7.66514286 17.9068571,6.48971429 L17.9068571,6.48971429 Z" id="Fill-4" fill="#FFFFFF"></path>
                    <path d="M24.2377143,19.5788571 C24.2377143,24.0085714 22.5057143,28.0377143 19.6788571,31.0302857 C19.1817143,29.4422857 18.912,27.7571429 18.912,26.0142857 C18.912,21.5845714 20.644,17.548 23.4708571,14.5628571 C23.9674286,16.1474286 24.2377143,17.8325714 24.2377143,19.5788571" id="Fill-5" fill="#368440"></path>
                    <path d="M16.8914286,26.0142857 C16.8914286,27.7571429 16.6251429,29.4422857 16.1245714,31.0302857 C13.2977143,28.0377143 11.5657143,24.0085714 11.5657143,19.5788571 C11.5657143,17.8325714 11.8394286,16.1474286 12.34,14.5628571 C15.1668571,17.548 16.8914286,21.5845714 16.8914286,26.0142857" id="Fill-6" fill="#7DBC42"></path>
                </g>
            </g>
        </g>
    </g>
</svg>