<svg width="30" height="22" viewBox="0 0 30 22" fill="none" xmlns="http://www.w3.org/2000/svg">
<path fill-rule="evenodd" clip-rule="evenodd" d="M6.92449 6.26253C7.92789 2.65266 11.2336 0.000488281 15.1725 0.000488281C19.1101 0.000488281 22.4169 2.65256 23.4205 6.26253C27.0888 6.96816 29.8621 10.1838 29.8621 14.056C29.8621 18.4429 26.299 22.0005 21.9052 22.0005H8.43976C4.04601 22.0005 0.48291 18.4429 0.48291 14.056C0.48291 10.1838 3.25618 6.96817 6.92449 6.26253ZM15.1725 2.44493C12.1359 2.44493 9.61975 4.65565 9.14213 7.55767C9.05045 8.11471 8.58861 8.53659 8.02477 8.57836C5.17603 8.78938 2.93117 11.1592 2.93117 14.056C2.93117 17.0929 5.39815 19.556 8.43976 19.556H21.9052C24.9468 19.556 27.4138 17.0929 27.4138 14.056C27.4138 11.1592 25.1689 8.78938 22.3202 8.57836C21.7564 8.53659 21.2945 8.11471 21.2028 7.55767C20.7252 4.65577 18.208 2.44493 15.1725 2.44493Z" fill="url(#paint0_linear)"/>
<defs>
<linearGradient id="paint0_linear" x1="0.48291" y1="0.000488281" x2="35.6549" y2="10.5519" gradientUnits="userSpaceOnUse">
<stop offset="0.313546" stop-color="#37A806"/>
<stop offset="1" stop-color="#0788FF"/>
</linearGradient>
</defs>
</svg>
