<svg id="Layer_1" data-name="Layer 1" xmlns="http://www.w3.org/2000/svg" viewBox="0 0 238.4 184.7"><defs><style>.cls-1,.cls-12,.cls-3{fill:#132849;}.cls-1{opacity:0.1;}.cls-2,.cls-7{fill:#e7f0c9;}.cls-13,.cls-14,.cls-2,.cls-4,.cls-5,.cls-8,.cls-9{stroke:#132849;stroke-linecap:round;stroke-linejoin:round;}.cls-14,.cls-2,.cls-4,.cls-5,.cls-8,.cls-9{stroke-width:2.8px;}.cls-15,.cls-3{opacity:0.2;}.cls-4{fill:#677489;}.cls-5{fill:#939caa;}.cls-14,.cls-6{fill:#fff;}.cls-11,.cls-8{fill:#84c441;}.cls-10,.cls-13,.cls-9{fill:none;}.cls-13{stroke-width:2.4px;}</style></defs><title>ramen_catrina</title><path class="cls-1" d="M93.73,148.32a108.07,108.07,0,0,0,17.76,5.14,107.2,107.2,0,0,0,32.63,1.43l1.86-6.77H135.75a111.28,111.28,0,0,1-43.34-8.64c0.34,3,.76,5.94,1.3,8.83h0Z"/><path class="cls-2" d="M235.12,123.5l-4.35-4.35a97.83,97.83,0,0,1-31.86,25.28c-1,.52-2.11,1-3.18,1.51a110.79,110.79,0,0,1-45.83,9.73H88.49a110.82,110.82,0,0,1-45.83-9.73c-1.07-.49-2.13-1-3.18-1.51A97.87,97.87,0,0,1,7.62,119.16L3.28,123.5,1.4,125.38a106.65,106.65,0,0,0,34.16,26.89,118.91,118.91,0,0,0,52.92,12.17h61.42a118.91,118.91,0,0,0,52.92-12.17A106.62,106.62,0,0,0,237,125.38Z"/><path class="cls-3" d="M173.54,161.86a108.27,108.27,0,0,0,17.75-5.13l0,0q0.85-4.64,1.37-9.44a111.42,111.42,0,0,1-42.78,8.41H138.83l2.09,7.62A107.21,107.21,0,0,0,173.54,161.86Z"/><path class="cls-3" d="M47.09,156.74a108.48,108.48,0,0,0,17.76,5.14,107.28,107.28,0,0,0,32.63,1.43l2.09-7.63H88.48a111.4,111.4,0,0,1-42.79-8.41q0.52,4.8,1.37,9.46h0Z"/><path class="cls-4" d="M88.49,155.68h61.42a110.79,110.79,0,0,0,45.83-9.73h0L119.2,69.4,42.65,145.95A110.82,110.82,0,0,0,88.49,155.68Z"/><path class="cls-5" d="M63.63,63.14l-56,56a97.87,97.87,0,0,0,31.86,25.28c1,0.52,2.11,1,3.18,1.51L119.2,69.4l76.54,76.54c1.07-.49,2.13-1,3.18-1.51a97.83,97.83,0,0,0,31.86-25.28l-56-56H63.63Z"/><path class="cls-3" d="M192.69,147.27a142.53,142.53,0,0,0-3-47.3,144.34,144.34,0,0,0-13.5-36L119.43,84.92l19.4,70.76h11.08A111.42,111.42,0,0,0,192.69,147.27Z"/><path class="cls-3" d="M99.57,155.68L119,84.93,62.19,64a144.33,144.33,0,0,0-13.51,36,142.63,142.63,0,0,0-3,47.28,111.4,111.4,0,0,0,42.79,8.41H99.57Z"/><path class="cls-2" d="M145.33,183.28a4.88,4.88,0,0,1-5.22-4.06,94.37,94.37,0,0,0-12.57-34l-0.81-1.34,10.75-.94,0.31,0.55a104.25,104.25,0,0,1,11.91,34.12,4.85,4.85,0,0,1-4,5.58l-0.37,0h0Z"/><path class="cls-2" d="M93.06,183.28l-0.37,0a4.86,4.86,0,0,1-4-5.58,104.3,104.3,0,0,1,11.92-34.11l0.31-.55,10.75,0.94-0.81,1.34a94.35,94.35,0,0,0-12.57,34A4.88,4.88,0,0,1,93.06,183.28Z"/><path class="cls-3" d="M137.48,143l-10.75.94,0.81,1.34a94.39,94.39,0,0,1,10.4,24.11,108.33,108.33,0,0,0,7.73-7.95,104.62,104.62,0,0,0-7.89-17.89Z"/><path class="cls-3" d="M111.66,143.93L100.91,143l-0.31.55a104.59,104.59,0,0,0-7.88,17.86,109.18,109.18,0,0,0,7.73,8,94.36,94.36,0,0,1,10.39-24.09Z"/><path class="cls-6" d="M178.39,67.12l-4.54-4.54c-15.93,6.71-34.73,9.86-54.65,9.86s-38.87-3.18-54.83-9.94L60,66.86a123.16,123.16,0,0,0,4.2,35.81c8.63,31.86,29.06,56.34,55,70,25.93-13.71,46.36-38.19,55-70A123.06,123.06,0,0,0,178.39,67.12Z"/><path class="cls-7" d="M85.08,118c0.22-1.43.49-2.79,0.77-4.09-3.32-11.39-9-24.72-9-47.06A110.52,110.52,0,0,1,65,62.62L60.09,67.5a123,123,0,0,0,4.2,35.06,114.45,114.45,0,0,0,24.13,45.55c0.48,0.55,1,1.09,1.45,1.63L90.13,150q1.15,1.24,2.32,2.45C92.28,152.22,81.68,139.7,85.08,118Z"/><path class="cls-7" d="M153.36,118c-0.22-1.43-.49-2.79-0.78-4.09,3.32-11.39,9-23.22,9-47.06a110.38,110.38,0,0,0,11.92-4.18l4.89,4.89a123,123,0,0,1-4.2,35.06A114.43,114.43,0,0,1,150,148.12c-0.48.55-1,1.09-1.45,1.63l-0.26.29q-1.15,1.24-2.32,2.45C146.15,152.22,156.75,139.7,153.36,118Z"/><path class="cls-8" d="M83.49,114.85c1.58-11.09,11.29-25.59,35.79-25.59v83.45c-10.4-5.5-19.71-11.86-28-21.47C89.87,149.63,80.2,137.92,83.49,114.85Z"/><path class="cls-8" d="M155.06,114.85c-1.58-11.09-11.29-25.59-35.79-25.59v83.45c10.4-5.5,19.71-11.86,28-21.47C148.68,149.63,158.34,137.92,155.06,114.85Z"/><path class="cls-3" d="M171.25,109.28l-24-20.64c-2.94-2.84-5.67-5-8.14-5.62-4.56-1.16-8.1.17-10.37,2.55L130,92.41s7.1,11.23,12.75,15.58a113.27,113.27,0,0,0,9.15,6.77c-8.67,24.71-22.61,48.58-32.83,57.83-8.27-7.5-19-24.56-27.36-43.91A59.22,59.22,0,0,0,112.43,123a20.42,20.42,0,0,0,4.91-3.33s5.8-9.92,4.41-18H86.68a39.62,39.62,0,0,0,8.09,9.58,92.43,92.43,0,0,1-9.15,1.91l-1.87.27a64.46,64.46,0,0,1-15,.38,114.92,114.92,0,0,0,7,14.45,59.81,59.81,0,0,0,7,.71C84.2,143.12,90.89,151,91,151.25c7.27,9.46,17.62,15.89,28,21.36l-0.07.07,0.1-.05,0.1,0.05-0.07-.07c10.34-5.47,20.69-11.9,28-21.36,0.16-.21,7.3-8.63,8.34-23.72a94.09,94.09,0,0,0-.62-10.94A63,63,0,0,0,165.81,122,116.59,116.59,0,0,0,171.25,109.28Z"/><path class="cls-9" d="M178.39,67.12l-4.54-4.54c-15.93,6.71-34.73,9.86-54.65,9.86s-38.87-3.18-54.83-9.94L60,66.86a123.16,123.16,0,0,0,4.2,35.81c8.63,31.86,29.06,56.34,55,70,25.93-13.71,46.36-38.19,55-70A123.06,123.06,0,0,0,178.39,67.12Z"/><polygon class="cls-10" points="115.23 110.34 123.17 107.05 115.23 103.76 115.23 110.34"/><path class="cls-11" d="M138,31.44L154.84,8.8A4.4,4.4,0,0,1,158.35,7a4.31,4.31,0,0,1,2.59.87l8.84,6.58a1.4,1.4,0,0,0,1.92-.24L181.67,2a1.85,1.85,0,0,1,1.43-.64,1.71,1.71,0,0,1,1,.28A1.88,1.88,0,0,1,184.63,4l-10,18.33a3.6,3.6,0,0,1-3.08,1.7,3.67,3.67,0,0,1-.72-0.07,3.43,3.43,0,0,1-1.12-.43L161.1,18.4a1.4,1.4,0,0,0-1.92.48L147.78,38Z"/><path class="cls-12" d="M183.1,2.8a0.34,0.34,0,0,1,.18,0,0.49,0.49,0,0,1,.12.52l-9.94,18.27a2.22,2.22,0,0,1-1.88,1,2.29,2.29,0,0,1-.45,0,2.07,2.07,0,0,1-.69-0.27l-8.62-5.15a2.8,2.8,0,0,0-3.84,1L147.33,36,140,31.1,156,9.64a3,3,0,0,1,2.39-1.19,2.92,2.92,0,0,1,1.76.59L169,15.62a2.8,2.8,0,0,0,3.84-.48l10-12.21a0.47,0.47,0,0,1,.34-0.13h0m0-2.8a3.25,3.25,0,0,0-2.51,1.16l-10,12.21-8.84-6.58a5.72,5.72,0,0,0-3.43-1.14A5.8,5.8,0,0,0,153.71,8L136,31.79,148.23,40,160.39,19.6,169,24.75a4.82,4.82,0,0,0,1.58.61,5.07,5.07,0,0,0,1,.1A5,5,0,0,0,175.88,23l10-18.33a3.27,3.27,0,0,0-1-4.18A3.12,3.12,0,0,0,183.1,0h0Z"/><path class="cls-3" d="M139,27.51l12,8,8.38-14a63.55,63.55,0,0,0-10.06-7.78Z"/><path class="cls-11" d="M79.21,18.88a1.4,1.4,0,0,0-1.92-.48l-8.62,5.15a3.4,3.4,0,0,1-1.13.44,3.69,3.69,0,0,1-.72.07,3.63,3.63,0,0,1-3.11-1.75L53.77,4a1.88,1.88,0,0,1,.57-2.35,1.71,1.71,0,0,1,1-.28A1.85,1.85,0,0,1,56.73,2l10,12.21a1.4,1.4,0,0,0,1.92.24l8.84-6.58A4.32,4.32,0,0,1,80,7,4.41,4.41,0,0,1,83.56,8.8L100.4,31.44,90.62,38Z"/><path class="cls-12" d="M55.3,2.8a0.47,0.47,0,0,1,.34.13l10,12.21a2.8,2.8,0,0,0,3.84.48L78.29,9a2.88,2.88,0,0,1,1.19-.53A2.91,2.91,0,0,1,80,8.44a3,3,0,0,1,2.39,1.19l16,21.46L91.06,36,80.41,18.16a2.8,2.8,0,0,0-3.84-1l-8.64,5.16a2,2,0,0,1-.66.26,2.28,2.28,0,0,1-.44,0,2.22,2.22,0,0,1-1.88-1L55,3.36a0.49,0.49,0,0,1,.12-0.52,0.34,0.34,0,0,1,.18,0m0-2.8a3.11,3.11,0,0,0-1.74.52,3.26,3.26,0,0,0-1,4.18L62.51,23a5,5,0,0,0,4.31,2.43,5.08,5.08,0,0,0,1-.1,4.78,4.78,0,0,0,1.58-.61L78,19.6,90.17,40l12.23-8.18L84.68,8A5.81,5.81,0,0,0,80,5.64a5.72,5.72,0,0,0-3.43,1.14l-8.84,6.58-10-12.21A3.25,3.25,0,0,0,55.3,0h0Z"/><path class="cls-3" d="M89.07,13.69A63.49,63.49,0,0,0,79,21.47l8.38,14,12-8Z"/><path class="cls-2" d="M92,19.87c-13.8,8.36-25.31,24.84-27.73,43,15.31,8.18,34.47,12,55,12s39.65-3.78,55-12c-2.42-18.18-13.93-34.67-27.73-43H92Z"/><path class="cls-1" d="M64.23,62.89a87.68,87.68,0,0,0,12.3,5.36c0.1-12.42,1.14-29.66,3.83-38.85A61.92,61.92,0,0,0,64.23,62.89Z"/><path class="cls-1" d="M158,29.41c2.69,9.19,3.73,26.41,3.83,38.85a87.68,87.68,0,0,0,12.3-5.36A61.92,61.92,0,0,0,158,29.41Z"/><circle class="cls-12" cx="93.47" cy="37.27" r="5.13"/><circle class="cls-6" cx="94.51" cy="36.23" r="1.33"/><circle class="cls-12" cx="144.93" cy="37.27" r="5.14"/><circle class="cls-6" cx="145.96" cy="36.23" r="1.33"/><path class="cls-8" d="M104.15,50.25a6.08,6.08,0,0,0-7.95,3.29l-1.47,3.54a43.83,43.83,0,0,0,11.32,4.47l1.39-3.35A6.08,6.08,0,0,0,104.15,50.25Z"/><path class="cls-9" d="M130.54,61.08a47.57,47.57,0,0,1-13.14,1.83,44.72,44.72,0,0,1-26.88-8.59"/><path class="cls-2" d="M180.86,75.32c-0.79-2.23-1.65-6.25-2.52-7.81,0.08,5.27-2.18,16.08-2.18,16.08-0.43,11.8-2.61,18.44-2.61,18.44L147,79.19c-2.91-2.81-5.61-4.95-8.06-5.57-14.56-3.7-18.72,18.12-3.46,18.5,0,0,20.58,20.48,38.2,22.14C185.4,115.37,185,87.15,180.86,75.32Z"/><path class="cls-2" d="M110.05,91.82a10.71,10.71,0,0,0-10.81,8.47S83.58,105.71,68.8,104c0,0-8-8.54-8-23.59,0-.7,0-1.39.05-2.05a74.1,74.1,0,0,1-.74-10.87A44.89,44.89,0,0,0,56,76.68c-4.39,12.44.84,36.46,13.62,40.2,16.58,4.85,33.38,1.2,42.93-3.68,6.62-3.38,8.1-6.84,8.1-11.88C120.6,96.76,117.45,91.82,110.05,91.82Z"/><path class="cls-2" d="M106.66,134a5.34,5.34,0,0,0-7-2.88l-23.4,9.69a0.9,0.9,0,0,1-1.24-1.24l2.48-6Q75,129.44,72.74,125L72,124.34l-4.17,10.08c-3.27,7.89-.67,12.15,1.17,14s6.11,4.43,14,1.17l20.8-8.62h0A5.34,5.34,0,0,0,106.66,134Z"/><path class="cls-3" d="M75.57,140.88a0.8,0.8,0,0,1-.38-0.2,1,1,0,0,1-.12-1.12l2.48-6Q75,129.44,72.74,125L72,124.34l-4.17,10.08c-0.18.44-.34,0.87-0.49,1.29l-0.09.27c-0.14.4-.26,0.8-0.37,1.18l0,0.19c-0.07.26-.13,0.52-0.18,0.77l-0.05.21,0,0.23c0,0.21-.07.4-0.1,0.6s0,0.27-.06.4,0,0.19,0,.28c0,0.28-.05.55-0.07,0.82,0,0.05,0,.11,0,0.16h0C68.34,141.76,71.37,142.2,75.57,140.88Z"/><path class="cls-2" d="M131.73,134a5.34,5.34,0,0,1,7-2.88l23.4,9.69a0.9,0.9,0,0,0,1.24-1.24l-2.48-6q2.56-4.15,4.8-8.57l0.75-.68,4.17,10.08c3.27,7.89.67,12.15-1.17,14s-6.11,4.43-14,1.17L134.62,141h0A5.34,5.34,0,0,1,131.73,134Z"/><path class="cls-3" d="M162.82,140.88a0.8,0.8,0,0,0,.38-0.2,1,1,0,0,0,.12-1.12l-2.48-6q2.56-4.15,4.8-8.57l0.75-.68,4.17,10.08c0.18,0.44.34,0.87,0.49,1.29l0.09,0.27c0.14,0.4.26,0.8,0.37,1.18l0,0.19c0.07,0.26.13,0.52,0.18,0.77l0.05,0.21,0,0.23c0,0.21.07,0.4,0.1,0.6s0,0.27.06,0.4l0,0.28c0,0.28.05,0.55,0.07,0.82,0,0.05,0,.11,0,0.16h0C170,141.76,167,142.2,162.82,140.88Z"/><line class="cls-13" x1="150.82" y1="33.36" x2="148.49" y2="35.68"/><line class="cls-13" x1="100.01" y1="33.36" x2="97.68" y2="35.68"/><line class="cls-13" x1="148.75" y1="30.72" x2="145.85" y2="33.63"/><line class="cls-13" x1="97.94" y1="30.72" x2="95.03" y2="33.63"/><path class="cls-3" d="M117.35,119.64A34.73,34.73,0,0,0,142.71,108C137.05,103.64,130,92.41,130,92.41l-1.23-6.83c-4.85,5.11-3.82,15.08,5.77,16H121.76C123.15,109.72,117.35,119.64,117.35,119.64Z"/><path class="cls-14" d="M87,92c6.52,10.78,17.58,17.87,30.13,17.87s23.61-7.09,30.13-17.87H87Z"/><line class="cls-9" x1="129.95" y1="85.88" x2="148.25" y2="50.43"/><line class="cls-9" x1="124.11" y1="87.15" x2="159.81" y2="56.98"/><path class="cls-3" d="M117.12,101.45A34,34,0,0,1,93.86,92H87c6.52,10.78,17.58,17.87,30.13,17.87s23.61-7.09,30.13-17.87h-6.87A34,34,0,0,1,117.12,101.45Z"/><path class="cls-2" d="M129.1,85.22c-0.47,0-.95,0-1.42.06A23.95,23.95,0,0,0,90.35,92h53.53A19.39,19.39,0,0,0,129.1,85.22Z"/><g class="cls-15"><path class="cls-12" d="M89.4,93.8l2.23-2.94a23.55,23.55,0,0,1,18.18-8.35,32.36,32.36,0,0,1,14.58,3.83L125,86.66c4.2,2.13,6.73,3.42,9.06,3.84l9.15,1.68-9.3.28a39.35,39.35,0,0,1-13.67-1.93,43.49,43.49,0,0,0-8.6-1.8c-0.65-.06-1.34-0.09-2-0.09-7.86,0-16.7,3.69-16.79,3.73Zm20.19-7.14c0.77,0,1.52,0,2.23.1a45.19,45.19,0,0,1,9,1.86,45,45,0,0,0,6.87,1.58c-1.06-.51-2.23-1.11-3.55-1.78l-0.61-.31a30.39,30.39,0,0,0-13.68-3.62,22,22,0,0,0-13.28,4.45A46.05,46.05,0,0,1,109.58,86.66Z"/></g><path class="cls-9" d="M129.1,85.22c-0.47,0-.95,0-1.42.06A23.95,23.95,0,0,0,90.35,92h53.53A19.39,19.39,0,0,0,129.1,85.22Z"/><path class="cls-2" d="M180.86,75.32c-0.79-2.23-1.65-6.25-2.52-7.81,0.08,5.27-2.18,16.08-2.18,16.08-0.43,11.8-2.61,18.44-2.61,18.44L147,79.19c-2.91-2.81-5.61-4.95-8.06-5.57-14.56-3.7-18.72,18.12-3.46,18.5,0,0,20.58,20.48,38.2,22.14C185.4,115.37,185,87.15,180.86,75.32Z"/><path class="cls-2" d="M110.05,91.82a10.71,10.71,0,0,0-10.81,8.47S83.58,105.71,68.8,104c0,0-8-8.54-8-23.59,0-.7,0-1.39.05-2.05a74.1,74.1,0,0,1-.74-10.87A44.89,44.89,0,0,0,56,76.68c-4.39,12.44.84,36.46,13.62,40.2,16.58,4.85,33.38,1.2,42.93-3.68,6.62-3.38,8.1-6.84,8.1-11.88C120.6,96.76,117.45,91.82,110.05,91.82Z"/><path class="cls-2" d="M106.66,134a5.34,5.34,0,0,0-7-2.88l-23.4,9.69a0.9,0.9,0,0,1-1.24-1.24l2.48-6Q75,129.44,72.74,125L72,124.34l-4.17,10.08c-3.27,7.89-.67,12.15,1.17,14s6.11,4.43,14,1.17l20.8-8.62h0A5.34,5.34,0,0,0,106.66,134Z"/><path class="cls-3" d="M75.57,140.88a0.8,0.8,0,0,1-.38-0.2,1,1,0,0,1-.12-1.12l2.48-6Q75,129.44,72.74,125L72,124.34l-4.17,10.08c-0.18.44-.34,0.87-0.49,1.29l-0.09.27c-0.14.4-.26,0.8-0.37,1.18l0,0.19c-0.07.26-.13,0.52-0.18,0.77l-0.05.21,0,0.23c0,0.21-.07.4-0.1,0.6s0,0.27-.06.4,0,0.19,0,.28c0,0.28-.05.55-0.07,0.82,0,0.05,0,.11,0,0.16h0C68.34,141.76,71.37,142.2,75.57,140.88Z"/><path class="cls-2" d="M131.73,134a5.34,5.34,0,0,1,7-2.88l23.4,9.69a0.9,0.9,0,0,0,1.24-1.24l-2.48-6q2.56-4.15,4.8-8.57l0.75-.68,4.17,10.08c3.27,7.89.67,12.15-1.17,14s-6.11,4.43-14,1.17L134.62,141h0A5.34,5.34,0,0,1,131.73,134Z"/><path class="cls-3" d="M162.82,140.88a0.8,0.8,0,0,0,.38-0.2,1,1,0,0,0,.12-1.12l-2.48-6q2.56-4.15,4.8-8.57l0.75-.68,4.17,10.08c0.18,0.44.34,0.87,0.49,1.29l0.09,0.27c0.14,0.4.26,0.8,0.37,1.18l0,0.19c0.07,0.26.13,0.52,0.18,0.77l0.05,0.21,0,0.23c0,0.21.07,0.4,0.1,0.6s0,0.27.06,0.4l0,0.28c0,0.28.05,0.55,0.07,0.82,0,0.05,0,.11,0,0.16h0C170,141.76,167,142.2,162.82,140.88Z"/></svg>