<svg height="613" width="761" xmlns="http://www.w3.org/2000/svg" xmlns:xlink="http://www.w3.org/1999/xlink"><style>svg {
  font-family: ui-monospace, SFMono-Regular, Menlo, Monaco, Consolas, "Liberation Mono", "Courier New", monospace;
}
text {
  fill: #2f3337;
  font-size: 14px;
}
rect {
  fill: #ffffff;
  stroke: #3a3d40;
  stroke-width: 2;
}
rect.terminal {
  fill: #ffffff;
}
rect.nonterminal {
  fill: #ffffff;
}
text.terminal {
  fill: #2f3337;
  font-weight: 600;
}
text.nonterminal {
  fill: #2563eb;
}
a text.nonterminal {
  text-decoration: underline;
}
path.line {
  fill: none;
  stroke: #3a3d40;
  stroke-width: 2;
}
polygon {
  fill: #2f3337;
  stroke: #2f3337;
}</style>
<polygon points="9 61 1 57 1 65"></polygon>
<polygon points="17 61 9 57 9 65"></polygon>
<rect height="32" rx="10" width="58" x="51" y="47"></rect>
<rect class="terminal" height="32" rx="10" width="58" x="49" y="45"></rect>
<text class="terminal" x="59" y="65">WITH</text>
<rect height="32" rx="10" width="98" x="149" y="79"></rect>
<rect class="terminal" height="32" rx="10" width="98" x="147" y="77"></rect>
<text class="terminal" x="157" y="97">RECURSIVE</text><a xlink:href="/docs/v25.2/sql-grammar#common_table_expr" xlink:title="common_table_expr">
<rect height="32" width="150" x="307" y="47"></rect>
<rect class="nonterminal" height="32" width="150" x="305" y="45"></rect>
<text lengthAdjust="spacingAndGlyphs" textLength="126" font-size="11" class="nonterminal" x="317" y="65">common_table_expr</text></a><rect height="32" rx="10" width="24" x="307" y="3"></rect>
<rect class="terminal" height="32" rx="10" width="24" x="305" y="1"></rect>
<text class="terminal" x="315" y="21">,</text>
<rect height="32" rx="10" width="70" x="517" y="47"></rect>
<rect class="terminal" height="32" rx="10" width="70" x="515" y="45"></rect>
<text class="terminal" x="525" y="65">DELETE</text><a xlink:href="/docs/v25.2/sql-grammar#opt_batch_clause" xlink:title="opt_batch_clause">
<rect height="32" width="132" x="607" y="47"></rect>
<rect class="nonterminal" height="32" width="132" x="605" y="45"></rect>
<text lengthAdjust="spacingAndGlyphs" textLength="108" font-size="10" class="nonterminal" x="617" y="65">opt_batch_clause</text></a><rect height="32" rx="10" width="60" x="120" y="161"></rect>
<rect class="terminal" height="32" rx="10" width="60" x="118" y="159"></rect>
<text class="terminal" x="128" y="179">FROM</text>
<rect height="32" rx="10" width="58" x="220" y="193"></rect>
<rect class="terminal" height="32" rx="10" width="58" x="218" y="191"></rect>
<text class="terminal" x="228" y="211">ONLY</text><a xlink:href="/docs/v25.2/sql-grammar#table_name" xlink:title="table_name">
<rect height="32" width="96" x="318" y="161"></rect>
<rect class="nonterminal" height="32" width="96" x="316" y="159"></rect>
<text lengthAdjust="spacingAndGlyphs" textLength="72" font-size="11" class="nonterminal" x="328" y="179">table_name</text></a><a xlink:href="/docs/v25.2/sql-grammar#opt_index_flags" xlink:title="opt_index_flags">
<rect height="32" width="122" x="434" y="161"></rect>
<rect class="nonterminal" height="32" width="122" x="432" y="159"></rect>
<text lengthAdjust="spacingAndGlyphs" textLength="98" font-size="10" class="nonterminal" x="444" y="179">opt_index_flags</text></a><rect height="32" rx="10" width="28" x="596" y="193"></rect>
<rect class="terminal" height="32" rx="10" width="28" x="594" y="191"></rect>
<text class="terminal" x="604" y="211">*</text>
<rect height="32" rx="10" width="38" x="155" y="367"></rect>
<rect class="terminal" height="32" rx="10" width="38" x="153" y="365"></rect>
<text class="terminal" x="163" y="385">AS</text><a xlink:href="/docs/v25.2/sql-grammar#table_alias_name" xlink:title="table_alias_name">
<rect height="32" width="134" x="233" y="335"></rect>
<rect class="nonterminal" height="32" width="134" x="231" y="333"></rect>
<text lengthAdjust="spacingAndGlyphs" textLength="110" font-size="11" class="nonterminal" x="243" y="353">table_alias_name</text></a><rect height="32" rx="10" width="64" x="427" y="303"></rect>
<rect class="terminal" height="32" rx="10" width="64" x="425" y="301"></rect>
<text class="terminal" x="435" y="321">USING</text><a xlink:href="/docs/v25.2/sql-grammar#table_ref" xlink:title="table_ref">
<rect height="32" width="78" x="531" y="303"></rect>
<rect class="nonterminal" height="32" width="78" x="529" y="301"></rect>
<text lengthAdjust="spacingAndGlyphs" textLength="54" font-size="10" class="nonterminal" x="541" y="321">table_ref</text></a><rect height="32" rx="10" width="24" x="531" y="259"></rect>
<rect class="terminal" height="32" rx="10" width="24" x="529" y="257"></rect>
<text class="terminal" x="539" y="277">,</text>
<rect height="32" rx="10" width="70" x="151" y="449"></rect>
<rect class="terminal" height="32" rx="10" width="70" x="149" y="447"></rect>
<text class="terminal" x="159" y="467">WHERE</text><a xlink:href="/docs/v25.2/sql-grammar#a_expr" xlink:title="a_expr">
<rect height="32" width="64" x="241" y="449"></rect>
<rect class="nonterminal" height="32" width="64" x="239" y="447"></rect>
<text lengthAdjust="spacingAndGlyphs" textLength="40" font-size="10" class="nonterminal" x="251" y="467">a_expr</text></a><a xlink:href="/docs/v25.2/sql-grammar#sort_clause" xlink:title="sort_clause">
<rect height="32" width="94" x="365" y="449"></rect>
<rect class="nonterminal" height="32" width="94" x="363" y="447"></rect>
<text lengthAdjust="spacingAndGlyphs" textLength="70" font-size="10" class="nonterminal" x="375" y="467">sort_clause</text></a><a xlink:href="/docs/v25.2/sql-grammar#limit_clause" xlink:title="limit_clause">
<rect height="32" width="94" x="519" y="449"></rect>
<rect class="nonterminal" height="32" width="94" x="517" y="447"></rect>
<text lengthAdjust="spacingAndGlyphs" textLength="70" font-size="10" class="nonterminal" x="529" y="467">limit_clause</text></a><rect height="32" rx="10" width="100" x="467" y="535"></rect>
<rect class="terminal" height="32" rx="10" width="100" x="465" y="533"></rect>
<text class="terminal" x="475" y="553">RETURNING</text><a xlink:href="/docs/v25.2/sql-grammar#target_list" xlink:title="target_list">
<rect height="32" width="86" x="607" y="535"></rect>
<rect class="nonterminal" height="32" width="86" x="605" y="533"></rect>
<text lengthAdjust="spacingAndGlyphs" textLength="62" font-size="10" class="nonterminal" x="617" y="553">target_list</text></a><rect height="32" rx="10" width="86" x="607" y="579"></rect>
<rect class="terminal" height="32" rx="10" width="86" x="605" y="577"></rect>
<text class="terminal" x="615" y="597">NOTHING</text>
<path class="line" d="m17 61 h2 m20 0 h10 m58 0 h10 m20 0 h10 m0 0 h108 m-138 0 h20 m118 0 h20 m-158 0 q10 0 10 10 m138 0 q0 -10 10 -10 m-148 10 v12 m138 0 v-12 m-138 12 q0 10 10 10 m118 0 q10 0 10 -10 m-128 10 h10 m98 0 h10 m40 -32 h10 m150 0 h10 m-190 0 l20 0 m-1 0 q-9 0 -9 -10 l0 -24 q0 -10 10 -10 m170 44 l20 0 m-20 0 q10 0 10 -10 l0 -24 q0 -10 -10 -10 m-170 0 h10 m24 0 h10 m0 0 h126 m-446 44 h20 m446 0 h20 m-486 0 q10 0 10 10 m466 0 q0 -10 10 -10 m-476 10 v46 m466 0 v-46 m-466 46 q0 10 10 10 m446 0 q10 0 10 -10 m-456 10 h10 m0 0 h436 m20 -66 h10 m70 0 h10 m0 0 h10 m132 0 h10 m2 0 l2 0 m2 0 l2 0 m2 0 l2 0 m-663 114 l2 0 m2 0 l2 0 m2 0 l2 0 m2 0 h10 m60 0 h10 m20 0 h10 m0 0 h68 m-98 0 h20 m78 0 h20 m-118 0 q10 0 10 10 m98 0 q0 -10 10 -10 m-108 10 v12 m98 0 v-12 m-98 12 q0 10 10 10 m78 0 q10 0 10 -10 m-88 10 h10 m58 0 h10 m20 -32 h10 m96 0 h10 m0 0 h10 m122 0 h10 m20 0 h10 m0 0 h38 m-68 0 h20 m48 0 h20 m-88 0 q10 0 10 10 m68 0 q0 -10 10 -10 m-78 10 v12 m68 0 v-12 m-68 12 q0 10 10 10 m48 0 q10 0 10 -10 m-58 10 h10 m28 0 h10 m22 -32 l2 0 m2 0 l2 0 m2 0 l2 0 m-573 142 l2 0 m2 0 l2 0 m2 0 l2 0 m22 0 h10 m0 0 h242 m-272 0 h20 m252 0 h20 m-292 0 q10 0 10 10 m272 0 q0 -10 10 -10 m-282 10 v12 m272 0 v-12 m-272 12 q0 10 10 10 m252 0 q10 0 10 -10 m-242 10 h10 m0 0 h48 m-78 0 h20 m58 0 h20 m-98 0 q10 0 10 10 m78 0 q0 -10 10 -10 m-88 10 v12 m78 0 v-12 m-78 12 q0 10 10 10 m58 0 q10 0 10 -10 m-68 10 h10 m38 0 h10 m20 -32 h10 m134 0 h10 m40 -32 h10 m64 0 h10 m20 0 h10 m78 0 h10 m-118 0 l20 0 m-1 0 q-9 0 -9 -10 l0 -24 q0 -10 10 -10 m98 44 l20 0 m-20 0 q10 0 10 -10 l0 -24 q0 -10 -10 -10 m-98 0 h10 m24 0 h10 m0 0 h54 m-222 44 h20 m222 0 h20 m-262 0 q10 0 10 10 m242 0 q0 -10 10 -10 m-252 10 v14 m242 0 v-14 m-242 14 q0 10 10 10 m222 0 q10 0 10 -10 m-232 10 h10 m0 0 h212 m22 -34 l2 0 m2 0 l2 0 m2 0 l2 0 m-562 114 l2 0 m2 0 l2 0 m2 0 l2 0 m22 0 h10 m0 0 h164 m-194 0 h20 m174 0 h20 m-214 0 q10 0 10 10 m194 0 q0 -10 10 -10 m-204 10 v12 m194 0 v-12 m-194 12 q0 10 10 10 m174 0 q10 0 10 -10 m-184 10 h10 m70 0 h10 m0 0 h10 m64 0 h10 m40 -32 h10 m0 0 h104 m-134 0 h20 m114 0 h20 m-154 0 q10 0 10 10 m134 0 q0 -10 10 -10 m-144 10 v12 m134 0 v-12 m-134 12 q0 10 10 10 m114 0 q10 0 10 -10 m-124 10 h10 m94 0 h10 m40 -32 h10 m0 0 h104 m-134 0 h20 m114 0 h20 m-154 0 q10 0 10 10 m134 0 q0 -10 10 -10 m-144 10 v12 m134 0 v-12 m-134 12 q0 10 10 10 m114 0 q10 0 10 -10 m-124 10 h10 m94 0 h10 m22 -32 l2 0 m2 0 l2 0 m2 0 l2 0 m-230 86 l2 0 m2 0 l2 0 m2 0 l2 0 m22 0 h10 m0 0 h256 m-286 0 h20 m266 0 h20 m-306 0 q10 0 10 10 m286 0 q0 -10 10 -10 m-296 10 v12 m286 0 v-12 m-286 12 q0 10 10 10 m266 0 q10 0 10 -10 m-276 10 h10 m100 0 h10 m20 0 h10 m86 0 h10 m-126 0 h20 m106 0 h20 m-146 0 q10 0 10 10 m126 0 q0 -10 10 -10 m-136 10 v24 m126 0 v-24 m-126 24 q0 10 10 10 m106 0 q10 0 10 -10 m-116 10 h10 m86 0 h10 m43 -76 h-3"></path>
<polygon points="751 517 759 513 759 521"></polygon>
<polygon points="751 517 743 513 743 521"></polygon></svg>