<svg xmlns="http://www.w3.org/2000/svg" version="1.1" width="386" height="144">
<path d="M 2.878906 52.319336 L 2.878906 45.412109 L 6.729980 45.412109 L 6.729980 46.335938 L 3.738281 46.335938 L 3.738281 52.319336 Z " fill="rgb(0, 0, 0)" fill-opacity="1.000000" />
<path d="M 2.878906 65.319336 L 2.878906 51.300781 L 3.738281 51.300781 L 3.738281 65.319336 Z " fill="rgb(0, 0, 0)" fill-opacity="1.000000" />
<path d="M 2.878906 78.319336 L 2.878906 64.300781 L 3.738281 64.300781 L 3.738281 78.319336 Z " fill="rgb(0, 0, 0)" fill-opacity="1.000000" />
<path d="M 2.878906 91.319336 L 2.878906 77.300781 L 3.738281 77.300781 L 3.738281 91.319336 Z " fill="rgb(0, 0, 0)" fill-opacity="1.000000" />
<path d="M 2.878906 98.335938 L 2.878906 90.300781 L 3.738281 90.300781 L 3.738281 97.412109 L 6.729980 97.412109 L 6.729980 98.335938 Z " fill="rgb(0, 0, 0)" fill-opacity="1.000000" />
<path d="M 49.032227 114.418945 L 52.308594 107.866211 L 55.590332 114.418945 Z " fill="rgb(179, 0, 0)" fill-opacity="1.000000" />
<path d="M 51.019531 130.319336 L 51.019531 116.300781 L 51.878906 116.300781 L 51.878906 130.319336 Z M 52.738281 130.319336 L 52.738281 116.300781 L 53.597656 116.300781 L 53.597656 130.319336 Z " fill="rgb(179, 0, 0)" fill-opacity="1.000000" />
<path d="M 52.738281 136.412109 L 52.738281 129.300781 L 53.597656 129.300781 L 53.597656 135.488281 L 55.729980 135.488281 L 55.729980 136.412109 Z M 51.019531 138.259766 L 51.019531 129.300781 L 51.878906 129.300781 L 51.878906 137.335938 L 55.729980 137.335938 L 55.729980 138.259766 Z " fill="rgb(179, 0, 0)" fill-opacity="1.000000" />
<path d="M 55.892578 136.412109 L 55.892578 135.488281 L 62.729980 135.488281 L 62.729980 136.412109 Z M 55.892578 138.259766 L 55.892578 137.335938 L 62.729980 137.335938 L 62.729980 138.259766 Z " fill="rgb(179, 0, 0)" fill-opacity="1.000000" />
<path d="M 62.892578 136.412109 L 62.892578 135.488281 L 69.729980 135.488281 L 69.729980 136.412109 Z M 62.892578 138.259766 L 62.892578 137.335938 L 69.729980 137.335938 L 69.729980 138.259766 Z " fill="rgb(179, 0, 0)" fill-opacity="1.000000" />
<path d="M 69.892578 136.412109 L 69.892578 135.488281 L 76.729980 135.488281 L 76.729980 136.412109 Z M 69.892578 138.259766 L 69.892578 137.335938 L 76.729980 137.335938 L 76.729980 138.259766 Z " fill="rgb(179, 0, 0)" fill-opacity="1.000000" />
<path d="M 76.892578 136.412109 L 76.892578 135.488281 L 83.729980 135.488281 L 83.729980 136.412109 Z M 76.892578 138.259766 L 76.892578 137.335938 L 83.729980 137.335938 L 83.729980 138.259766 Z " fill="rgb(179, 0, 0)" fill-opacity="1.000000" />
<path d="M 83.892578 136.412109 L 83.892578 135.488281 L 90.729980 135.488281 L 90.729980 136.412109 Z M 83.892578 138.259766 L 83.892578 137.335938 L 90.729980 137.335938 L 90.729980 138.259766 Z " fill="rgb(179, 0, 0)" fill-opacity="1.000000" />
<path d="M 90.892578 136.412109 L 90.892578 135.488281 L 97.729980 135.488281 L 97.729980 136.412109 Z M 90.892578 138.259766 L 90.892578 137.335938 L 97.729980 137.335938 L 97.729980 138.259766 Z " fill="rgb(179, 0, 0)" fill-opacity="1.000000" />
<path d="M 97.892578 136.412109 L 97.892578 135.488281 L 104.729980 135.488281 L 104.729980 136.412109 Z M 97.892578 138.259766 L 97.892578 137.335938 L 104.729980 137.335938 L 104.729980 138.259766 Z " fill="rgb(179, 0, 0)" fill-opacity="1.000000" />
<path d="M 104.892578 136.412109 L 104.892578 135.488281 L 111.729980 135.488281 L 111.729980 136.412109 Z M 104.892578 138.259766 L 104.892578 137.335938 L 111.729980 137.335938 L 111.729980 138.259766 Z " fill="rgb(179, 0, 0)" fill-opacity="1.000000" />
<path d="M 111.892578 136.412109 L 111.892578 135.488281 L 118.729980 135.488281 L 118.729980 136.412109 Z M 111.892578 138.259766 L 111.892578 137.335938 L 118.729980 137.335938 L 118.729980 138.259766 Z " fill="rgb(179, 0, 0)" fill-opacity="1.000000" />
<path d="M 118.892578 136.412109 L 118.892578 135.488281 L 125.729980 135.488281 L 125.729980 136.412109 Z M 118.892578 138.259766 L 118.892578 137.335938 L 125.729980 137.335938 L 125.729980 138.259766 Z " fill="rgb(179, 0, 0)" fill-opacity="1.000000" />
<path d="M 127.058105 131.980957 L 131.816895 131.980957 L 131.816895 132.894043 L 128.143066 132.894043 L 128.143066 135.053223 L 131.655762 135.053223 L 131.655762 135.966309 L 128.143066 135.966309 L 128.143066 139.086914 L 131.918945 139.086914 L 131.918945 140.000000 L 127.058105 140.000000 Z " fill="rgb(0, 0, 0)" fill-opacity="1.000000" />
<path d="M 139.203613 135.225098 Q 138.886719 134.978027 138.559082 134.865234 Q 138.231445 134.752441 137.839355 134.752441 Q 136.915527 134.752441 136.426758 135.332520 Q 135.937988 135.912598 135.937988 137.008301 L 135.937988 140.000000 L 134.944336 140.000000 L 134.944336 133.984375 L 135.937988 133.984375 L 135.937988 135.160645 Q 136.185059 134.521484 136.697998 134.180420 Q 137.210938 133.839355 137.914551 133.839355 Q 138.279785 133.839355 138.596680 133.930664 Q 138.913574 134.021973 139.203613 134.215332 Z " fill="rgb(0, 0, 0)" fill-opacity="1.000000" />
<path d="M 146.203613 135.225098 Q 145.886719 134.978027 145.559082 134.865234 Q 145.231445 134.752441 144.839355 134.752441 Q 143.915527 134.752441 143.426758 135.332520 Q 142.937988 135.912598 142.937988 137.008301 L 142.937988 140.000000 L 141.944336 140.000000 L 141.944336 133.984375 L 142.937988 133.984375 L 142.937988 135.160645 Q 143.185059 134.521484 143.697998 134.180420 Q 144.210938 133.839355 144.914551 133.839355 Q 145.279785 133.839355 145.596680 133.930664 Q 145.913574 134.021973 146.203613 134.215332 Z " fill="rgb(0, 0, 0)" fill-opacity="1.000000" />
<path d="M 150.308594 134.677246 Q 149.556641 134.677246 149.169922 135.262695 Q 148.783203 135.848145 148.783203 136.997559 Q 148.783203 138.141602 149.169922 138.729736 Q 149.556641 139.317871 150.308594 139.317871 Q 151.065918 139.317871 151.452637 138.729736 Q 151.839355 138.141602 151.839355 136.997559 Q 151.839355 135.848145 151.452637 135.262695 Q 151.065918 134.677246 150.308594 134.677246 Z M 150.308594 133.839355 Q 151.560059 133.839355 152.223389 134.650391 Q 152.886719 135.461426 152.886719 136.997559 Q 152.886719 138.539062 152.226074 139.347412 Q 151.565430 140.155762 150.308594 140.155762 Q 149.057129 140.155762 148.396484 139.347412 Q 147.735840 138.539062 147.735840 136.997559 Q 147.735840 135.461426 148.396484 134.650391 Q 149.057129 133.839355 150.308594 133.839355 Z " fill="rgb(0, 0, 0)" fill-opacity="1.000000" />
<path d="M 160.203613 135.225098 Q 159.886719 134.978027 159.559082 134.865234 Q 159.231445 134.752441 158.839355 134.752441 Q 157.915527 134.752441 157.426758 135.332520 Q 156.937988 135.912598 156.937988 137.008301 L 156.937988 140.000000 L 155.944336 140.000000 L 155.944336 133.984375 L 156.937988 133.984375 L 156.937988 135.160645 Q 157.185059 134.521484 157.697998 134.180420 Q 158.210938 133.839355 158.914551 133.839355 Q 159.279785 133.839355 159.596680 133.930664 Q 159.913574 134.021973 160.203613 134.215332 Z " fill="rgb(0, 0, 0)" fill-opacity="1.000000" />
<path d="M 160.892578 136.412109 L 160.892578 135.488281 L 167.729980 135.488281 L 167.729980 136.412109 Z M 160.892578 138.259766 L 160.892578 137.335938 L 167.729980 137.335938 L 167.729980 138.259766 Z " fill="rgb(179, 0, 0)" fill-opacity="1.000000" />
<path d="M 167.892578 136.412109 L 167.892578 135.488281 L 174.729980 135.488281 L 174.729980 136.412109 Z M 167.892578 138.259766 L 167.892578 137.335938 L 174.729980 137.335938 L 174.729980 138.259766 Z " fill="rgb(179, 0, 0)" fill-opacity="1.000000" />
<path d="M 174.892578 136.412109 L 174.892578 135.488281 L 181.729980 135.488281 L 181.729980 136.412109 Z M 174.892578 138.259766 L 174.892578 137.335938 L 181.729980 137.335938 L 181.729980 138.259766 Z " fill="rgb(179, 0, 0)" fill-opacity="1.000000" />
<path d="M 181.892578 136.412109 L 181.892578 135.488281 L 188.729980 135.488281 L 188.729980 136.412109 Z M 181.892578 138.259766 L 181.892578 137.335938 L 188.729980 137.335938 L 188.729980 138.259766 Z " fill="rgb(179, 0, 0)" fill-opacity="1.000000" />
<path d="M 188.892578 136.412109 L 188.892578 135.488281 L 195.729980 135.488281 L 195.729980 136.412109 Z M 188.892578 138.259766 L 188.892578 137.335938 L 195.729980 137.335938 L 195.729980 138.259766 Z " fill="rgb(179, 0, 0)" fill-opacity="1.000000" />
<path d="M 195.892578 136.412109 L 195.892578 135.488281 L 202.729980 135.488281 L 202.729980 136.412109 Z M 195.892578 138.259766 L 195.892578 137.335938 L 202.729980 137.335938 L 202.729980 138.259766 Z " fill="rgb(179, 0, 0)" fill-opacity="1.000000" />
<path d="M 202.892578 136.412109 L 202.892578 135.488281 L 209.729980 135.488281 L 209.729980 136.412109 Z M 202.892578 138.259766 L 202.892578 137.335938 L 209.729980 137.335938 L 209.729980 138.259766 Z " fill="rgb(179, 0, 0)" fill-opacity="1.000000" />
<path d="M 209.892578 136.412109 L 209.892578 135.488281 L 216.729980 135.488281 L 216.729980 136.412109 Z M 209.892578 138.259766 L 209.892578 137.335938 L 216.729980 137.335938 L 216.729980 138.259766 Z " fill="rgb(179, 0, 0)" fill-opacity="1.000000" />
<path d="M 216.892578 136.412109 L 216.892578 135.488281 L 223.729980 135.488281 L 223.729980 136.412109 Z M 216.892578 138.259766 L 216.892578 137.335938 L 223.729980 137.335938 L 223.729980 138.259766 Z " fill="rgb(179, 0, 0)" fill-opacity="1.000000" />
<path d="M 223.892578 136.412109 L 223.892578 135.488281 L 230.729980 135.488281 L 230.729980 136.412109 Z M 223.892578 138.259766 L 223.892578 137.335938 L 230.729980 137.335938 L 230.729980 138.259766 Z " fill="rgb(179, 0, 0)" fill-opacity="1.000000" />
<path d="M 230.892578 136.412109 L 230.892578 135.488281 L 233.019531 135.488281 L 233.019531 129.300781 L 233.878906 129.300781 L 233.878906 136.412109 Z M 230.892578 138.259766 L 230.892578 137.335938 L 234.738281 137.335938 L 234.738281 129.300781 L 235.597656 129.300781 L 235.597656 138.259766 Z " fill="rgb(179, 0, 0)" fill-opacity="1.000000" />
<path d="M 282.878906 137.335938 L 282.878906 129.300781 L 283.738281 129.300781 L 283.738281 136.412109 L 286.729980 136.412109 L 286.729980 137.335938 Z " fill="rgb(0, 0, 0)" fill-opacity="1.000000" />
<path d="M 286.892578 137.335938 L 286.892578 136.412109 L 293.729980 136.412109 L 293.729980 137.335938 Z " fill="rgb(0, 0, 0)" fill-opacity="1.000000" />
<path d="M 293.892578 137.335938 L 293.892578 136.412109 L 300.729980 136.412109 L 300.729980 137.335938 Z " fill="rgb(0, 0, 0)" fill-opacity="1.000000" />
<path d="M 300.892578 137.335938 L 300.892578 136.412109 L 307.729980 136.412109 L 307.729980 137.335938 Z " fill="rgb(0, 0, 0)" fill-opacity="1.000000" />
<path d="M 307.892578 137.335938 L 307.892578 136.412109 L 314.729980 136.412109 L 314.729980 137.335938 Z " fill="rgb(0, 0, 0)" fill-opacity="1.000000" />
<path d="M 314.892578 137.335938 L 314.892578 136.412109 L 321.729980 136.412109 L 321.729980 137.335938 Z " fill="rgb(0, 0, 0)" fill-opacity="1.000000" />
<path d="M 321.892578 137.335938 L 321.892578 136.412109 L 328.729980 136.412109 L 328.729980 137.335938 Z " fill="rgb(0, 0, 0)" fill-opacity="1.000000" />
<path d="M 328.892578 137.335938 L 328.892578 136.412109 L 335.729980 136.412109 L 335.729980 137.335938 Z " fill="rgb(0, 0, 0)" fill-opacity="1.000000" />
<path d="M 335.892578 137.335938 L 335.892578 136.412109 L 342.729980 136.412109 L 342.729980 137.335938 Z " fill="rgb(0, 0, 0)" fill-opacity="1.000000" />
<path d="M 342.892578 137.335938 L 342.892578 136.412109 L 349.729980 136.412109 L 349.729980 137.335938 Z " fill="rgb(0, 0, 0)" fill-opacity="1.000000" />
<path d="M 349.892578 137.335938 L 349.892578 136.412109 L 356.729980 136.412109 L 356.729980 137.335938 Z " fill="rgb(0, 0, 0)" fill-opacity="1.000000" />
<path d="M 356.892578 137.335938 L 356.892578 136.412109 L 363.729980 136.412109 L 363.729980 137.335938 Z " fill="rgb(0, 0, 0)" fill-opacity="1.000000" />
<path d="M 363.892578 137.335938 L 363.892578 136.412109 L 370.729980 136.412109 L 370.729980 137.335938 Z " fill="rgb(0, 0, 0)" fill-opacity="1.000000" />
<path d="M 370.892578 137.335938 L 370.892578 136.412109 L 377.729980 136.412109 L 377.729980 137.335938 Z " fill="rgb(0, 0, 0)" fill-opacity="1.000000" />
<path d="M 377.892578 137.335938 L 377.892578 136.412109 L 380.878906 136.412109 L 380.878906 129.300781 L 381.738281 129.300781 L 381.738281 137.335938 Z " fill="rgb(0, 0, 0)" fill-opacity="1.000000" />
<path d="M 233.019531 130.319336 L 233.019531 116.300781 L 233.878906 116.300781 L 233.878906 130.319336 Z M 234.738281 130.319336 L 234.738281 116.300781 L 235.597656 116.300781 L 235.597656 130.319336 Z " fill="rgb(179, 0, 0)" fill-opacity="1.000000" />
<path d="M 282.878906 130.319336 L 282.878906 116.300781 L 283.738281 116.300781 L 283.738281 130.319336 Z " fill="rgb(0, 0, 0)" fill-opacity="1.000000" />
<path d="M 380.878906 130.319336 L 380.878906 116.300781 L 381.738281 116.300781 L 381.738281 130.319336 Z " fill="rgb(0, 0, 0)" fill-opacity="1.000000" />
<path d="M 233.878906 111.335938 L 233.878906 103.300781 L 234.738281 103.300781 L 234.738281 110.412109 L 237.729980 110.412109 L 237.729980 111.335938 Z " fill="rgb(0, 0, 0)" fill-opacity="1.000000" />
<path d="M 237.892578 111.335938 L 237.892578 110.412109 L 244.729980 110.412109 L 244.729980 111.335938 Z " fill="rgb(0, 0, 0)" fill-opacity="1.000000" />
<path d="M 244.892578 111.335938 L 244.892578 110.412109 L 251.729980 110.412109 L 251.729980 111.335938 Z " fill="rgb(0, 0, 0)" fill-opacity="1.000000" />
<path d="M 251.892578 111.335938 L 251.892578 110.412109 L 258.729980 110.412109 L 258.729980 111.335938 Z " fill="rgb(0, 0, 0)" fill-opacity="1.000000" />
<path d="M 258.892578 111.335938 L 258.892578 110.412109 L 265.729980 110.412109 L 265.729980 111.335938 Z " fill="rgb(0, 0, 0)" fill-opacity="1.000000" />
<path d="M 265.892578 111.335938 L 265.892578 110.412109 L 272.729980 110.412109 L 272.729980 111.335938 Z " fill="rgb(0, 0, 0)" fill-opacity="1.000000" />
<path d="M 273.032227 114.418945 L 273.032227 107.866211 L 279.590332 111.142578 Z " fill="rgb(0, 0, 0)" fill-opacity="1.000000" />
<path d="M 282.878906 117.319336 L 282.878906 103.300781 L 283.738281 103.300781 L 283.738281 117.319336 Z " fill="rgb(0, 0, 0)" fill-opacity="1.000000" />
<path d="M 308.252441 105.980957 L 314.370117 105.980957 L 314.370117 106.894043 L 311.861816 106.894043 L 311.861816 114.000000 L 310.771484 114.000000 L 310.771484 106.894043 L 308.252441 106.894043 Z " fill="rgb(0, 0, 0)" fill-opacity="1.000000" />
<path d="M 318.770508 110.976074 L 318.442871 110.976074 Q 317.578125 110.976074 317.140381 111.279541 Q 316.702637 111.583008 316.702637 112.184570 Q 316.702637 112.727051 317.030273 113.027832 Q 317.357910 113.328613 317.937988 113.328613 Q 318.754395 113.328613 319.221680 112.761963 Q 319.688965 112.195312 319.694336 111.196289 L 319.694336 110.976074 Z M 320.687988 110.567871 L 320.687988 114.000000 L 319.694336 114.000000 L 319.694336 113.108398 Q 319.377441 113.645508 318.896729 113.900635 Q 318.416016 114.155762 317.728516 114.155762 Q 316.810059 114.155762 316.262207 113.637451 Q 315.714355 113.119141 315.714355 112.249023 Q 315.714355 111.244629 316.388428 110.723633 Q 317.062500 110.202637 318.367676 110.202637 L 319.694336 110.202637 L 319.694336 110.046875 Q 319.688965 109.327148 319.329102 109.002197 Q 318.969238 108.677246 318.179688 108.677246 Q 317.674805 108.677246 317.159180 108.822266 Q 316.643555 108.967285 316.154785 109.246582 L 316.154785 108.258301 Q 316.702637 108.048828 317.204834 107.944092 Q 317.707031 107.839355 318.179688 107.839355 Q 318.926270 107.839355 319.455322 108.059570 Q 319.984375 108.279785 320.312012 108.720215 Q 320.516113 108.988770 320.602051 109.383545 Q 320.687988 109.778320 320.687988 110.567871 Z " fill="rgb(0, 0, 0)" fill-opacity="1.000000" />
<path d="M 328.203613 109.225098 Q 327.886719 108.978027 327.559082 108.865234 Q 327.231445 108.752441 326.839355 108.752441 Q 325.915527 108.752441 325.426758 109.332520 Q 324.937988 109.912598 324.937988 111.008301 L 324.937988 114.000000 L 323.944336 114.000000 L 323.944336 107.984375 L 324.937988 107.984375 L 324.937988 109.160645 Q 325.185059 108.521484 325.697998 108.180420 Q 326.210938 107.839355 326.914551 107.839355 Q 327.279785 107.839355 327.596680 107.930664 Q 327.913574 108.021973 328.203613 108.215332 Z " fill="rgb(0, 0, 0)" fill-opacity="1.000000" />
<path d="M 333.608398 110.943848 Q 333.608398 109.832031 333.245850 109.254639 Q 332.883301 108.677246 332.190430 108.677246 Q 331.465332 108.677246 331.083984 109.254639 Q 330.702637 109.832031 330.702637 110.943848 Q 330.702637 112.055664 331.086670 112.638428 Q 331.470703 113.221191 332.201172 113.221191 Q 332.883301 113.221191 333.245850 112.635742 Q 333.608398 112.050293 333.608398 110.943848 Z M 334.596680 113.613281 Q 334.596680 114.966797 333.957520 115.665039 Q 333.318359 116.363281 332.077637 116.363281 Q 331.669434 116.363281 331.223633 116.288086 Q 330.777832 116.212891 330.332031 116.067871 L 330.332031 115.090332 Q 330.858398 115.337402 331.288086 115.455566 Q 331.717773 115.573730 332.077637 115.573730 Q 332.877930 115.573730 333.243164 115.138672 Q 333.608398 114.703613 333.608398 113.758301 L 333.608398 113.715332 L 333.608398 113.043945 Q 333.372070 113.548828 332.963867 113.795898 Q 332.555664 114.042969 331.970215 114.042969 Q 330.917480 114.042969 330.289062 113.199707 Q 329.660645 112.356445 329.660645 110.943848 Q 329.660645 109.525879 330.289062 108.682617 Q 330.917480 107.839355 331.970215 107.839355 Q 332.550293 107.839355 332.953125 108.070312 Q 333.355957 108.301270 333.608398 108.784668 L 333.608398 108.005859 L 334.596680 108.005859 Z " fill="rgb(0, 0, 0)" fill-opacity="1.000000" />
<path d="M 342.015625 110.498047 L 342.015625 110.981445 L 337.734863 110.981445 L 337.734863 111.013672 Q 337.691895 112.243652 338.204834 112.780762 Q 338.717773 113.317871 339.652344 113.317871 Q 340.125000 113.317871 340.640625 113.167480 Q 341.156250 113.017090 341.741699 112.710938 L 341.741699 113.693848 Q 341.177734 113.924805 340.654053 114.040283 Q 340.130371 114.155762 339.641602 114.155762 Q 338.239746 114.155762 337.450195 113.315186 Q 336.660645 112.474609 336.660645 110.997559 Q 336.660645 109.558105 337.434082 108.698730 Q 338.207520 107.839355 339.496582 107.839355 Q 340.645996 107.839355 341.309326 108.618164 Q 341.972656 109.396973 342.015625 110.498047 Z M 341.027344 110.208008 Q 340.962891 109.584961 340.573486 109.131104 Q 340.184082 108.677246 339.453613 108.677246 Q 338.739258 108.677246 338.277344 109.149902 Q 337.815430 109.622559 337.772461 110.213379 Z " fill="rgb(0, 0, 0)" fill-opacity="1.000000" />
<path d="M 346.297852 106.276367 L 346.297852 107.984375 L 348.542969 107.984375 L 348.542969 108.752441 L 346.297852 108.752441 L 346.297852 112.018066 Q 346.297852 112.684082 346.550293 112.947266 Q 346.802734 113.210449 347.431152 113.210449 L 348.542969 113.210449 L 348.542969 114.000000 L 347.334473 114.000000 Q 346.222656 114.000000 345.766113 113.554199 Q 345.309570 113.108398 345.309570 112.018066 L 345.309570 108.752441 L 343.703613 108.752441 L 343.703613 107.984375 L 345.309570 107.984375 L 345.309570 106.276367 Z " fill="rgb(0, 0, 0)" fill-opacity="1.000000" />
<path d="M 380.878906 117.319336 L 380.878906 103.300781 L 381.738281 103.300781 L 381.738281 117.319336 Z " fill="rgb(0, 0, 0)" fill-opacity="1.000000" />
<path d="M 6.892578 98.335938 L 6.892578 97.412109 L 13.729980 97.412109 L 13.729980 98.335938 Z " fill="rgb(0, 0, 0)" fill-opacity="1.000000" />
<path d="M 13.892578 98.335938 L 13.892578 97.412109 L 20.729980 97.412109 L 20.729980 98.335938 Z " fill="rgb(0, 0, 0)" fill-opacity="1.000000" />
<path d="M 20.892578 98.335938 L 20.892578 97.412109 L 27.729980 97.412109 L 27.729980 98.335938 Z " fill="rgb(0, 0, 0)" fill-opacity="1.000000" />
<path d="M 27.892578 98.335938 L 27.892578 97.412109 L 34.729980 97.412109 L 34.729980 98.335938 Z " fill="rgb(0, 0, 0)" fill-opacity="1.000000" />
<path d="M 34.892578 98.335938 L 34.892578 97.412109 L 41.729980 97.412109 L 41.729980 98.335938 Z " fill="rgb(0, 0, 0)" fill-opacity="1.000000" />
<path d="M 41.892578 98.335938 L 41.892578 97.412109 L 48.729980 97.412109 L 48.729980 98.335938 Z " fill="rgb(0, 0, 0)" fill-opacity="1.000000" />
<path d="M 48.892578 98.335938 L 48.892578 97.412109 L 55.729980 97.412109 L 55.729980 98.335938 Z " fill="rgb(0, 0, 0)" fill-opacity="1.000000" />
<path d="M 55.892578 98.335938 L 55.892578 97.412109 L 62.729980 97.412109 L 62.729980 98.335938 Z " fill="rgb(0, 0, 0)" fill-opacity="1.000000" />
<path d="M 62.892578 98.335938 L 62.892578 97.412109 L 69.729980 97.412109 L 69.729980 98.335938 Z " fill="rgb(0, 0, 0)" fill-opacity="1.000000" />
<path d="M 69.892578 98.335938 L 69.892578 97.412109 L 76.729980 97.412109 L 76.729980 98.335938 Z " fill="rgb(0, 0, 0)" fill-opacity="1.000000" />
<path d="M 76.892578 98.335938 L 76.892578 97.412109 L 83.729980 97.412109 L 83.729980 98.335938 Z " fill="rgb(0, 0, 0)" fill-opacity="1.000000" />
<path d="M 83.892578 98.335938 L 83.892578 97.412109 L 90.729980 97.412109 L 90.729980 98.335938 Z " fill="rgb(0, 0, 0)" fill-opacity="1.000000" />
<path d="M 90.892578 98.335938 L 90.892578 97.412109 L 97.729980 97.412109 L 97.729980 98.335938 Z " fill="rgb(0, 0, 0)" fill-opacity="1.000000" />
<path d="M 97.892578 98.335938 L 97.892578 97.412109 L 100.878906 97.412109 L 100.878906 90.300781 L 101.738281 90.300781 L 101.738281 98.335938 Z " fill="rgb(0, 0, 0)" fill-opacity="1.000000" />
<path d="M 149.878906 98.335938 L 149.878906 90.300781 L 150.738281 90.300781 L 150.738281 97.412109 L 153.729980 97.412109 L 153.729980 98.335938 Z " fill="rgb(0, 0, 0)" fill-opacity="1.000000" />
<path d="M 153.892578 98.335938 L 153.892578 97.412109 L 160.729980 97.412109 L 160.729980 98.335938 Z " fill="rgb(0, 0, 0)" fill-opacity="1.000000" />
<path d="M 160.892578 98.335938 L 160.892578 97.412109 L 167.729980 97.412109 L 167.729980 98.335938 Z " fill="rgb(0, 0, 0)" fill-opacity="1.000000" />
<path d="M 167.892578 98.335938 L 167.892578 97.412109 L 174.729980 97.412109 L 174.729980 98.335938 Z " fill="rgb(0, 0, 0)" fill-opacity="1.000000" />
<path d="M 174.892578 98.335938 L 174.892578 97.412109 L 181.729980 97.412109 L 181.729980 98.335938 Z " fill="rgb(0, 0, 0)" fill-opacity="1.000000" />
<path d="M 181.892578 98.335938 L 181.892578 97.412109 L 188.729980 97.412109 L 188.729980 98.335938 Z " fill="rgb(0, 0, 0)" fill-opacity="1.000000" />
<path d="M 188.892578 98.335938 L 188.892578 97.412109 L 191.878906 97.412109 L 191.878906 90.300781 L 192.738281 90.300781 L 192.738281 98.335938 Z " fill="rgb(0, 0, 0)" fill-opacity="1.000000" />
<path d="M 233.878906 104.319336 L 233.878906 90.300781 L 234.738281 90.300781 L 234.738281 104.319336 Z " fill="rgb(0, 0, 0)" fill-opacity="1.000000" />
<path d="M 282.878906 104.319336 L 282.878906 90.300781 L 283.738281 90.300781 L 283.738281 104.319336 Z " fill="rgb(0, 0, 0)" fill-opacity="1.000000" />
<path d="M 380.878906 104.319336 L 380.878906 90.300781 L 381.738281 90.300781 L 381.738281 104.319336 Z " fill="rgb(0, 0, 0)" fill-opacity="1.000000" />
<path d="M 17.308594 67.937012 L 16.164551 72.040527 L 18.452637 72.040527 Z M 16.653320 66.980957 L 17.969238 66.980957 L 20.423828 75.000000 L 19.301270 75.000000 L 18.710449 72.910645 L 15.901367 72.910645 L 15.321289 75.000000 L 14.198730 75.000000 Z " fill="rgb(0, 0, 0)" fill-opacity="1.000000" />
<path d="M 100.878906 91.319336 L 100.878906 77.300781 L 101.738281 77.300781 L 101.738281 91.319336 Z " fill="rgb(0, 0, 0)" fill-opacity="1.000000" />
<path d="M 149.878906 91.319336 L 149.878906 77.300781 L 150.738281 77.300781 L 150.738281 91.319336 Z " fill="rgb(0, 0, 0)" fill-opacity="1.000000" />
<path d="M 191.878906 91.319336 L 191.878906 77.300781 L 192.738281 77.300781 L 192.738281 84.412109 L 195.729980 84.412109 L 195.729980 85.335938 L 192.738281 85.335938 L 192.738281 91.319336 Z " fill="rgb(0, 0, 0)" fill-opacity="1.000000" />
<path d="M 195.892578 85.335938 L 195.892578 84.412109 L 202.729980 84.412109 L 202.729980 85.335938 Z " fill="rgb(0, 0, 0)" fill-opacity="1.000000" />
<path d="M 202.892578 85.335938 L 202.892578 84.412109 L 209.729980 84.412109 L 209.729980 85.335938 Z " fill="rgb(0, 0, 0)" fill-opacity="1.000000" />
<path d="M 209.892578 85.335938 L 209.892578 84.412109 L 216.729980 84.412109 L 216.729980 85.335938 Z " fill="rgb(0, 0, 0)" fill-opacity="1.000000" />
<path d="M 216.892578 85.335938 L 216.892578 84.412109 L 223.729980 84.412109 L 223.729980 85.335938 Z " fill="rgb(0, 0, 0)" fill-opacity="1.000000" />
<path d="M 223.892578 85.335938 L 223.892578 84.412109 L 230.729980 84.412109 L 230.729980 85.335938 Z " fill="rgb(0, 0, 0)" fill-opacity="1.000000" />
<path d="M 233.878906 91.319336 L 233.878906 85.335938 L 230.892578 85.335938 L 230.892578 84.412109 L 234.738281 84.412109 L 234.738281 91.319336 Z " fill="rgb(0, 0, 0)" fill-opacity="1.000000" />
<path d="M 282.878906 91.319336 L 282.878906 84.412109 L 286.729980 84.412109 L 286.729980 85.335938 L 283.738281 85.335938 L 283.738281 91.319336 Z " fill="rgb(0, 0, 0)" fill-opacity="1.000000" />
<path d="M 286.892578 85.335938 L 286.892578 84.412109 L 293.729980 84.412109 L 293.729980 85.335938 Z " fill="rgb(0, 0, 0)" fill-opacity="1.000000" />
<path d="M 293.892578 85.335938 L 293.892578 84.412109 L 300.729980 84.412109 L 300.729980 85.335938 Z " fill="rgb(0, 0, 0)" fill-opacity="1.000000" />
<path d="M 300.892578 85.335938 L 300.892578 84.412109 L 307.729980 84.412109 L 307.729980 85.335938 Z " fill="rgb(0, 0, 0)" fill-opacity="1.000000" />
<path d="M 307.892578 85.335938 L 307.892578 84.412109 L 314.729980 84.412109 L 314.729980 85.335938 Z " fill="rgb(0, 0, 0)" fill-opacity="1.000000" />
<path d="M 314.892578 85.335938 L 314.892578 84.412109 L 321.729980 84.412109 L 321.729980 85.335938 Z " fill="rgb(0, 0, 0)" fill-opacity="1.000000" />
<path d="M 321.892578 85.335938 L 321.892578 84.412109 L 328.729980 84.412109 L 328.729980 85.335938 Z " fill="rgb(0, 0, 0)" fill-opacity="1.000000" />
<path d="M 328.892578 85.335938 L 328.892578 84.412109 L 335.729980 84.412109 L 335.729980 85.335938 Z " fill="rgb(0, 0, 0)" fill-opacity="1.000000" />
<path d="M 335.892578 85.335938 L 335.892578 84.412109 L 342.729980 84.412109 L 342.729980 85.335938 Z " fill="rgb(0, 0, 0)" fill-opacity="1.000000" />
<path d="M 342.892578 85.335938 L 342.892578 84.412109 L 349.729980 84.412109 L 349.729980 85.335938 Z " fill="rgb(0, 0, 0)" fill-opacity="1.000000" />
<path d="M 349.892578 85.335938 L 349.892578 84.412109 L 356.729980 84.412109 L 356.729980 85.335938 Z " fill="rgb(0, 0, 0)" fill-opacity="1.000000" />
<path d="M 356.892578 85.335938 L 356.892578 84.412109 L 363.729980 84.412109 L 363.729980 85.335938 Z " fill="rgb(0, 0, 0)" fill-opacity="1.000000" />
<path d="M 363.892578 85.335938 L 363.892578 84.412109 L 370.729980 84.412109 L 370.729980 85.335938 Z " fill="rgb(0, 0, 0)" fill-opacity="1.000000" />
<path d="M 370.892578 85.335938 L 370.892578 84.412109 L 377.729980 84.412109 L 377.729980 85.335938 Z " fill="rgb(0, 0, 0)" fill-opacity="1.000000" />
<path d="M 380.878906 91.319336 L 380.878906 85.335938 L 377.892578 85.335938 L 377.892578 84.412109 L 381.738281 84.412109 L 381.738281 91.319336 Z " fill="rgb(0, 0, 0)" fill-opacity="1.000000" />
<path d="M 23.014160 74.242676 L 23.014160 77.288086 L 22.020508 77.288086 L 22.020508 68.984375 L 23.014160 68.984375 L 23.014160 69.752441 Q 23.261230 69.306641 23.672119 69.072998 Q 24.083008 68.839355 24.620117 68.839355 Q 25.710449 68.839355 26.330811 69.682617 Q 26.951172 70.525879 26.951172 72.019043 Q 26.951172 73.485352 26.328125 74.320557 Q 25.705078 75.155762 24.620117 75.155762 Q 24.072266 75.155762 23.661377 74.922119 Q 23.250488 74.688477 23.014160 74.242676 Z M 25.914551 71.997559 Q 25.914551 70.848145 25.552002 70.262695 Q 25.189453 69.677246 24.475098 69.677246 Q 23.755371 69.677246 23.384766 70.265381 Q 23.014160 70.853516 23.014160 71.997559 Q 23.014160 73.136230 23.384766 73.727051 Q 23.755371 74.317871 24.475098 74.317871 Q 25.189453 74.317871 25.552002 73.732422 Q 25.914551 73.146973 25.914551 71.997559 Z " fill="rgb(0, 0, 0)" fill-opacity="1.000000" />
<path d="M 30.014160 74.242676 L 30.014160 77.288086 L 29.020508 77.288086 L 29.020508 68.984375 L 30.014160 68.984375 L 30.014160 69.752441 Q 30.261230 69.306641 30.672119 69.072998 Q 31.083008 68.839355 31.620117 68.839355 Q 32.710449 68.839355 33.330811 69.682617 Q 33.951172 70.525879 33.951172 72.019043 Q 33.951172 73.485352 33.328125 74.320557 Q 32.705078 75.155762 31.620117 75.155762 Q 31.072266 75.155762 30.661377 74.922119 Q 30.250488 74.688477 30.014160 74.242676 Z M 32.914551 71.997559 Q 32.914551 70.848145 32.552002 70.262695 Q 32.189453 69.677246 31.475098 69.677246 Q 30.755371 69.677246 30.384766 70.265381 Q 30.014160 70.853516 30.014160 71.997559 Q 30.014160 73.136230 30.384766 73.727051 Q 30.755371 74.317871 31.475098 74.317871 Q 32.189453 74.317871 32.552002 73.732422 Q 32.914551 73.146973 32.914551 71.997559 Z " fill="rgb(0, 0, 0)" fill-opacity="1.000000" />
<path d="M 38.861816 72.824707 Q 38.861816 73.490723 39.106201 73.829102 Q 39.350586 74.167480 39.828613 74.167480 L 40.983398 74.167480 L 40.983398 75.000000 L 39.731934 75.000000 Q 38.845703 75.000000 38.359619 74.433350 Q 37.873535 73.866699 37.873535 72.824707 L 37.873535 67.383789 L 36.289062 67.383789 L 36.289062 66.610352 L 38.861816 66.610352 Z " fill="rgb(0, 0, 0)" fill-opacity="1.000000" />
<path d="M 43.697266 69.005859 L 46.227051 69.005859 L 46.227051 74.231934 L 48.187500 74.231934 L 48.187500 75.000000 L 43.278320 75.000000 L 43.278320 74.231934 L 45.238770 74.231934 L 45.238770 69.773926 L 43.697266 69.773926 Z M 45.238770 66.669434 L 46.227051 66.669434 L 46.227051 67.915527 L 45.238770 67.915527 Z " fill="rgb(0, 0, 0)" fill-opacity="1.000000" />
<path d="M 54.698730 74.693848 Q 54.301270 74.924805 53.879639 75.040283 Q 53.458008 75.155762 53.017578 75.155762 Q 51.621094 75.155762 50.834229 74.317871 Q 50.047363 73.479980 50.047363 71.997559 Q 50.047363 70.515137 50.834229 69.677246 Q 51.621094 68.839355 53.017578 68.839355 Q 53.452637 68.839355 53.866211 68.952148 Q 54.279785 69.064941 54.698730 69.301270 L 54.698730 70.337891 Q 54.306641 69.988770 53.911865 69.833008 Q 53.517090 69.677246 53.017578 69.677246 Q 52.088379 69.677246 51.588867 70.278809 Q 51.089355 70.880371 51.089355 71.997559 Q 51.089355 73.109375 51.591553 73.713623 Q 52.093750 74.317871 53.017578 74.317871 Q 53.533203 74.317871 53.941406 74.159424 Q 54.349609 74.000977 54.698730 73.667969 Z " fill="rgb(0, 0, 0)" fill-opacity="1.000000" />
<path d="M 59.770508 71.976074 L 59.442871 71.976074 Q 58.578125 71.976074 58.140381 72.279541 Q 57.702637 72.583008 57.702637 73.184570 Q 57.702637 73.727051 58.030273 74.027832 Q 58.357910 74.328613 58.937988 74.328613 Q 59.754395 74.328613 60.221680 73.761963 Q 60.688965 73.195312 60.694336 72.196289 L 60.694336 71.976074 Z M 61.687988 71.567871 L 61.687988 75.000000 L 60.694336 75.000000 L 60.694336 74.108398 Q 60.377441 74.645508 59.896729 74.900635 Q 59.416016 75.155762 58.728516 75.155762 Q 57.810059 75.155762 57.262207 74.637451 Q 56.714355 74.119141 56.714355 73.249023 Q 56.714355 72.244629 57.388428 71.723633 Q 58.062500 71.202637 59.367676 71.202637 L 60.694336 71.202637 L 60.694336 71.046875 Q 60.688965 70.327148 60.329102 70.002197 Q 59.969238 69.677246 59.179688 69.677246 Q 58.674805 69.677246 58.159180 69.822266 Q 57.643555 69.967285 57.154785 70.246582 L 57.154785 69.258301 Q 57.702637 69.048828 58.204834 68.944092 Q 58.707031 68.839355 59.179688 68.839355 Q 59.926270 68.839355 60.455322 69.059570 Q 60.984375 69.279785 61.312012 69.720215 Q 61.516113 69.988770 61.602051 70.383545 Q 61.687988 70.778320 61.687988 71.567871 Z " fill="rgb(0, 0, 0)" fill-opacity="1.000000" />
<path d="M 66.297852 67.276367 L 66.297852 68.984375 L 68.542969 68.984375 L 68.542969 69.752441 L 66.297852 69.752441 L 66.297852 73.018066 Q 66.297852 73.684082 66.550293 73.947266 Q 66.802734 74.210449 67.431152 74.210449 L 68.542969 74.210449 L 68.542969 75.000000 L 67.334473 75.000000 Q 66.222656 75.000000 65.766113 74.554199 Q 65.309570 74.108398 65.309570 73.018066 L 65.309570 69.752441 L 63.703613 69.752441 L 63.703613 68.984375 L 65.309570 68.984375 L 65.309570 67.276367 Z " fill="rgb(0, 0, 0)" fill-opacity="1.000000" />
<path d="M 71.697266 69.005859 L 74.227051 69.005859 L 74.227051 74.231934 L 76.187500 74.231934 L 76.187500 75.000000 L 71.278320 75.000000 L 71.278320 74.231934 L 73.238770 74.231934 L 73.238770 69.773926 L 71.697266 69.773926 Z M 73.238770 66.669434 L 74.227051 66.669434 L 74.227051 67.915527 L 73.238770 67.915527 Z " fill="rgb(0, 0, 0)" fill-opacity="1.000000" />
<path d="M 80.308594 69.677246 Q 79.556641 69.677246 79.169922 70.262695 Q 78.783203 70.848145 78.783203 71.997559 Q 78.783203 73.141602 79.169922 73.729736 Q 79.556641 74.317871 80.308594 74.317871 Q 81.065918 74.317871 81.452637 73.729736 Q 81.839355 73.141602 81.839355 71.997559 Q 81.839355 70.848145 81.452637 70.262695 Q 81.065918 69.677246 80.308594 69.677246 Z M 80.308594 68.839355 Q 81.560059 68.839355 82.223389 69.650391 Q 82.886719 70.461426 82.886719 71.997559 Q 82.886719 73.539062 82.226074 74.347412 Q 81.565430 75.155762 80.308594 75.155762 Q 79.057129 75.155762 78.396484 74.347412 Q 77.735840 73.539062 77.735840 71.997559 Q 77.735840 70.461426 78.396484 69.650391 Q 79.057129 68.839355 80.308594 68.839355 Z " fill="rgb(0, 0, 0)" fill-opacity="1.000000" />
<path d="M 89.645020 71.272461 L 89.645020 75.000000 L 88.651367 75.000000 L 88.651367 71.272461 Q 88.651367 70.461426 88.366699 70.080078 Q 88.082031 69.698730 87.475098 69.698730 Q 86.782227 69.698730 86.408936 70.190186 Q 86.035645 70.681641 86.035645 71.600098 L 86.035645 75.000000 L 85.047363 75.000000 L 85.047363 68.984375 L 86.035645 68.984375 L 86.035645 69.886719 Q 86.298828 69.371094 86.750000 69.105225 Q 87.201172 68.839355 87.818848 68.839355 Q 88.737305 68.839355 89.191162 69.443604 Q 89.645020 70.047852 89.645020 71.272461 Z " fill="rgb(0, 0, 0)" fill-opacity="1.000000" />
<path d="M 100.878906 78.319336 L 100.878906 64.300781 L 101.738281 64.300781 L 101.738281 71.412109 L 104.729980 71.412109 L 104.729980 72.335938 L 101.738281 72.335938 L 101.738281 78.319336 Z " fill="rgb(0, 0, 0)" fill-opacity="1.000000" />
<path d="M 104.892578 72.335938 L 104.892578 71.412109 L 111.729980 71.412109 L 111.729980 72.335938 Z " fill="rgb(0, 0, 0)" fill-opacity="1.000000" />
<path d="M 111.892578 72.335938 L 111.892578 71.412109 L 118.729980 71.412109 L 118.729980 72.335938 Z " fill="rgb(0, 0, 0)" fill-opacity="1.000000" />
<path d="M 118.892578 72.335938 L 118.892578 71.412109 L 125.729980 71.412109 L 125.729980 72.335938 Z " fill="rgb(0, 0, 0)" fill-opacity="1.000000" />
<path d="M 125.892578 72.335938 L 125.892578 71.412109 L 132.729980 71.412109 L 132.729980 72.335938 Z " fill="rgb(0, 0, 0)" fill-opacity="1.000000" />
<path d="M 132.892578 72.335938 L 132.892578 71.412109 L 139.729980 71.412109 L 139.729980 72.335938 Z " fill="rgb(0, 0, 0)" fill-opacity="1.000000" />
<path d="M 140.032227 75.418945 L 140.032227 68.866211 L 146.590332 72.142578 Z " fill="rgb(0, 0, 0)" fill-opacity="1.000000" />
<path d="M 149.878906 78.319336 L 149.878906 64.300781 L 150.738281 64.300781 L 150.738281 78.319336 Z " fill="rgb(0, 0, 0)" fill-opacity="1.000000" />
<path d="M 162.154785 66.980957 L 163.245117 66.980957 L 163.245117 74.086914 L 167.117676 74.086914 L 167.117676 75.000000 L 162.154785 75.000000 Z " fill="rgb(0, 0, 0)" fill-opacity="1.000000" />
<path d="M 168.193359 67.007812 L 169.643555 67.007812 L 171.029297 71.079102 L 172.425781 67.007812 L 173.881348 67.007812 L 173.881348 75.000000 L 172.876953 75.000000 L 172.876953 67.937012 L 171.448242 72.147949 L 170.626465 72.147949 L 169.192383 67.937012 L 169.192383 75.000000 L 168.193359 75.000000 Z " fill="rgb(0, 0, 0)" fill-opacity="1.000000" />
<path d="M 180.435547 67.254883 L 180.435547 68.355957 Q 179.941406 68.039062 179.444580 67.877930 Q 178.947754 67.716797 178.442871 67.716797 Q 177.674805 67.716797 177.229004 68.073975 Q 176.783203 68.431152 176.783203 69.038086 Q 176.783203 69.569824 177.075928 69.849121 Q 177.368652 70.128418 178.168945 70.316406 L 178.738281 70.445312 Q 179.866211 70.708496 180.381836 71.272461 Q 180.897461 71.836426 180.897461 72.808594 Q 180.897461 73.952637 180.188477 74.554199 Q 179.479492 75.155762 178.125977 75.155762 Q 177.562012 75.155762 176.992676 75.034912 Q 176.423340 74.914062 175.848633 74.672363 L 175.848633 73.517578 Q 176.466309 73.909668 177.016846 74.092285 Q 177.567383 74.274902 178.125977 74.274902 Q 178.947754 74.274902 179.404297 73.906982 Q 179.860840 73.539062 179.860840 72.878418 Q 179.860840 72.276855 179.546631 71.959961 Q 179.232422 71.643066 178.453613 71.471191 L 177.873535 71.336914 Q 176.756348 71.084473 176.251465 70.574219 Q 175.746582 70.063965 175.746582 69.204590 Q 175.746582 68.130371 176.468994 67.483154 Q 177.191406 66.835938 178.389160 66.835938 Q 178.851074 66.835938 179.361328 66.940674 Q 179.871582 67.045410 180.435547 67.254883 Z " fill="rgb(0, 0, 0)" fill-opacity="1.000000" />
<path d="M 191.878906 78.319336 L 191.878906 64.300781 L 192.738281 64.300781 L 192.738281 78.319336 Z " fill="rgb(0, 0, 0)" fill-opacity="1.000000" />
<path d="M 100.878906 65.319336 L 100.878906 51.300781 L 101.738281 51.300781 L 101.738281 65.319336 Z " fill="rgb(0, 0, 0)" fill-opacity="1.000000" />
<path d="M 149.878906 65.319336 L 149.878906 51.300781 L 150.738281 51.300781 L 150.738281 65.319336 Z " fill="rgb(0, 0, 0)" fill-opacity="1.000000" />
<path d="M 191.878906 65.319336 L 191.878906 51.300781 L 192.738281 51.300781 L 192.738281 58.412109 L 195.729980 58.412109 L 195.729980 59.335938 L 192.738281 59.335938 L 192.738281 65.319336 Z " fill="rgb(0, 0, 0)" fill-opacity="1.000000" />
<path d="M 195.892578 59.335938 L 195.892578 58.412109 L 202.729980 58.412109 L 202.729980 59.335938 Z " fill="rgb(0, 0, 0)" fill-opacity="1.000000" />
<path d="M 202.892578 59.335938 L 202.892578 58.412109 L 209.729980 58.412109 L 209.729980 59.335938 Z " fill="rgb(0, 0, 0)" fill-opacity="1.000000" />
<path d="M 209.892578 59.335938 L 209.892578 58.412109 L 216.729980 58.412109 L 216.729980 59.335938 Z " fill="rgb(0, 0, 0)" fill-opacity="1.000000" />
<path d="M 216.892578 59.335938 L 216.892578 58.412109 L 223.729980 58.412109 L 223.729980 59.335938 Z " fill="rgb(0, 0, 0)" fill-opacity="1.000000" />
<path d="M 223.892578 59.335938 L 223.892578 58.412109 L 230.729980 58.412109 L 230.729980 59.335938 Z " fill="rgb(0, 0, 0)" fill-opacity="1.000000" />
<path d="M 230.892578 59.335938 L 230.892578 58.412109 L 233.878906 58.412109 L 233.878906 51.300781 L 234.738281 51.300781 L 234.738281 59.335938 Z " fill="rgb(0, 0, 0)" fill-opacity="1.000000" />
<path d="M 282.878906 59.335938 L 282.878906 51.300781 L 283.738281 51.300781 L 283.738281 58.412109 L 286.729980 58.412109 L 286.729980 59.335938 Z " fill="rgb(0, 0, 0)" fill-opacity="1.000000" />
<path d="M 286.892578 59.335938 L 286.892578 58.412109 L 293.729980 58.412109 L 293.729980 59.335938 Z " fill="rgb(0, 0, 0)" fill-opacity="1.000000" />
<path d="M 293.892578 59.335938 L 293.892578 58.412109 L 300.729980 58.412109 L 300.729980 59.335938 Z " fill="rgb(0, 0, 0)" fill-opacity="1.000000" />
<path d="M 300.892578 59.335938 L 300.892578 58.412109 L 307.729980 58.412109 L 307.729980 59.335938 Z " fill="rgb(0, 0, 0)" fill-opacity="1.000000" />
<path d="M 307.892578 59.335938 L 307.892578 58.412109 L 314.729980 58.412109 L 314.729980 59.335938 Z " fill="rgb(0, 0, 0)" fill-opacity="1.000000" />
<path d="M 314.892578 59.335938 L 314.892578 58.412109 L 321.729980 58.412109 L 321.729980 59.335938 Z " fill="rgb(0, 0, 0)" fill-opacity="1.000000" />
<path d="M 321.892578 59.335938 L 321.892578 58.412109 L 328.729980 58.412109 L 328.729980 59.335938 Z " fill="rgb(0, 0, 0)" fill-opacity="1.000000" />
<path d="M 328.892578 59.335938 L 328.892578 58.412109 L 335.729980 58.412109 L 335.729980 59.335938 Z " fill="rgb(0, 0, 0)" fill-opacity="1.000000" />
<path d="M 335.892578 59.335938 L 335.892578 58.412109 L 342.729980 58.412109 L 342.729980 59.335938 Z " fill="rgb(0, 0, 0)" fill-opacity="1.000000" />
<path d="M 342.892578 59.335938 L 342.892578 58.412109 L 349.729980 58.412109 L 349.729980 59.335938 Z " fill="rgb(0, 0, 0)" fill-opacity="1.000000" />
<path d="M 349.892578 59.335938 L 349.892578 58.412109 L 356.729980 58.412109 L 356.729980 59.335938 Z " fill="rgb(0, 0, 0)" fill-opacity="1.000000" />
<path d="M 356.892578 59.335938 L 356.892578 58.412109 L 363.729980 58.412109 L 363.729980 59.335938 Z " fill="rgb(0, 0, 0)" fill-opacity="1.000000" />
<path d="M 363.892578 59.335938 L 363.892578 58.412109 L 370.729980 58.412109 L 370.729980 59.335938 Z " fill="rgb(0, 0, 0)" fill-opacity="1.000000" />
<path d="M 370.892578 59.335938 L 370.892578 58.412109 L 377.729980 58.412109 L 377.729980 59.335938 Z " fill="rgb(0, 0, 0)" fill-opacity="1.000000" />
<path d="M 377.892578 59.335938 L 377.892578 58.412109 L 380.878906 58.412109 L 380.878906 51.300781 L 381.738281 51.300781 L 381.738281 59.335938 Z " fill="rgb(0, 0, 0)" fill-opacity="1.000000" />
<path d="M 6.892578 46.335938 L 6.892578 45.412109 L 13.729980 45.412109 L 13.729980 46.335938 Z " fill="rgb(0, 0, 0)" fill-opacity="1.000000" />
<path d="M 13.892578 46.335938 L 13.892578 45.412109 L 20.729980 45.412109 L 20.729980 46.335938 Z " fill="rgb(0, 0, 0)" fill-opacity="1.000000" />
<path d="M 20.892578 46.335938 L 20.892578 45.412109 L 27.729980 45.412109 L 27.729980 46.335938 Z " fill="rgb(0, 0, 0)" fill-opacity="1.000000" />
<path d="M 27.892578 46.335938 L 27.892578 45.412109 L 34.729980 45.412109 L 34.729980 46.335938 Z " fill="rgb(0, 0, 0)" fill-opacity="1.000000" />
<path d="M 34.892578 46.335938 L 34.892578 45.412109 L 41.729980 45.412109 L 41.729980 46.335938 Z " fill="rgb(0, 0, 0)" fill-opacity="1.000000" />
<path d="M 41.892578 46.335938 L 41.892578 45.412109 L 48.729980 45.412109 L 48.729980 46.335938 Z " fill="rgb(0, 0, 0)" fill-opacity="1.000000" />
<path d="M 48.892578 46.335938 L 48.892578 45.412109 L 55.729980 45.412109 L 55.729980 46.335938 Z " fill="rgb(0, 0, 0)" fill-opacity="1.000000" />
<path d="M 55.892578 46.335938 L 55.892578 45.412109 L 62.729980 45.412109 L 62.729980 46.335938 Z " fill="rgb(0, 0, 0)" fill-opacity="1.000000" />
<path d="M 62.892578 46.335938 L 62.892578 45.412109 L 69.729980 45.412109 L 69.729980 46.335938 Z " fill="rgb(0, 0, 0)" fill-opacity="1.000000" />
<path d="M 69.892578 46.335938 L 69.892578 45.412109 L 76.729980 45.412109 L 76.729980 46.335938 Z " fill="rgb(0, 0, 0)" fill-opacity="1.000000" />
<path d="M 76.892578 46.335938 L 76.892578 45.412109 L 83.729980 45.412109 L 83.729980 46.335938 Z " fill="rgb(0, 0, 0)" fill-opacity="1.000000" />
<path d="M 83.892578 46.335938 L 83.892578 45.412109 L 90.729980 45.412109 L 90.729980 46.335938 Z " fill="rgb(0, 0, 0)" fill-opacity="1.000000" />
<path d="M 90.892578 46.335938 L 90.892578 45.412109 L 97.729980 45.412109 L 97.729980 46.335938 Z " fill="rgb(0, 0, 0)" fill-opacity="1.000000" />
<path d="M 100.878906 52.319336 L 100.878906 46.335938 L 97.892578 46.335938 L 97.892578 45.412109 L 101.738281 45.412109 L 101.738281 52.319336 Z " fill="rgb(0, 0, 0)" fill-opacity="1.000000" />
<path d="M 149.878906 52.319336 L 149.878906 45.412109 L 153.729980 45.412109 L 153.729980 46.335938 L 150.738281 46.335938 L 150.738281 52.319336 Z " fill="rgb(0, 0, 0)" fill-opacity="1.000000" />
<path d="M 153.892578 46.335938 L 153.892578 45.412109 L 160.729980 45.412109 L 160.729980 46.335938 Z " fill="rgb(0, 0, 0)" fill-opacity="1.000000" />
<path d="M 160.892578 46.335938 L 160.892578 45.412109 L 167.729980 45.412109 L 167.729980 46.335938 Z " fill="rgb(0, 0, 0)" fill-opacity="1.000000" />
<path d="M 167.892578 46.335938 L 167.892578 45.412109 L 174.729980 45.412109 L 174.729980 46.335938 Z " fill="rgb(0, 0, 0)" fill-opacity="1.000000" />
<path d="M 174.892578 46.335938 L 174.892578 45.412109 L 181.729980 45.412109 L 181.729980 46.335938 Z " fill="rgb(0, 0, 0)" fill-opacity="1.000000" />
<path d="M 181.892578 46.335938 L 181.892578 45.412109 L 188.729980 45.412109 L 188.729980 46.335938 Z " fill="rgb(0, 0, 0)" fill-opacity="1.000000" />
<path d="M 191.878906 52.319336 L 191.878906 46.335938 L 188.892578 46.335938 L 188.892578 45.412109 L 192.738281 45.412109 L 192.738281 52.319336 Z " fill="rgb(0, 0, 0)" fill-opacity="1.000000" />
<path d="M 233.878906 52.319336 L 233.878906 38.300781 L 234.738281 38.300781 L 234.738281 52.319336 Z " fill="rgb(0, 0, 0)" fill-opacity="1.000000" />
<path d="M 282.878906 52.319336 L 282.878906 38.300781 L 283.738281 38.300781 L 283.738281 52.319336 Z " fill="rgb(0, 0, 0)" fill-opacity="1.000000" />
<path d="M 380.878906 52.319336 L 380.878906 38.300781 L 381.738281 38.300781 L 381.738281 52.319336 Z " fill="rgb(0, 0, 0)" fill-opacity="1.000000" />
<path d="M 51.878906 13.319336 L 51.878906 6.412109 L 55.729980 6.412109 L 55.729980 7.335938 L 52.738281 7.335938 L 52.738281 13.319336 Z " fill="rgb(0, 127, 0)" fill-opacity="1.000000" />
<path d="M 51.878906 26.319336 L 51.878906 12.300781 L 52.738281 12.300781 L 52.738281 26.319336 Z " fill="rgb(0, 127, 0)" fill-opacity="1.000000" />
<path d="M 52.308594 36.418945 L 49.032227 29.866211 L 55.590332 29.866211 Z " fill="rgb(0, 127, 0)" fill-opacity="1.000000" />
<path d="M 233.878906 39.319336 L 233.878906 32.412109 L 237.729980 32.412109 L 237.729980 33.335938 L 234.738281 33.335938 L 234.738281 39.319336 Z " fill="rgb(0, 0, 0)" fill-opacity="1.000000" />
<path d="M 237.892578 33.335938 L 237.892578 32.412109 L 244.729980 32.412109 L 244.729980 33.335938 Z " fill="rgb(0, 0, 0)" fill-opacity="1.000000" />
<path d="M 244.892578 33.335938 L 244.892578 32.412109 L 251.729980 32.412109 L 251.729980 33.335938 Z " fill="rgb(0, 0, 0)" fill-opacity="1.000000" />
<path d="M 251.892578 33.335938 L 251.892578 32.412109 L 258.729980 32.412109 L 258.729980 33.335938 Z " fill="rgb(0, 0, 0)" fill-opacity="1.000000" />
<path d="M 258.892578 33.335938 L 258.892578 32.412109 L 265.729980 32.412109 L 265.729980 33.335938 Z " fill="rgb(0, 0, 0)" fill-opacity="1.000000" />
<path d="M 265.892578 33.335938 L 265.892578 32.412109 L 272.729980 32.412109 L 272.729980 33.335938 Z " fill="rgb(0, 0, 0)" fill-opacity="1.000000" />
<path d="M 273.032227 36.418945 L 273.032227 29.866211 L 279.590332 33.142578 Z " fill="rgb(0, 0, 0)" fill-opacity="1.000000" />
<path d="M 282.878906 39.319336 L 282.878906 25.300781 L 283.738281 25.300781 L 283.738281 39.319336 Z " fill="rgb(0, 0, 0)" fill-opacity="1.000000" />
<path d="M 313.435547 28.254883 L 313.435547 29.355957 Q 312.941406 29.039062 312.444580 28.877930 Q 311.947754 28.716797 311.442871 28.716797 Q 310.674805 28.716797 310.229004 29.073975 Q 309.783203 29.431152 309.783203 30.038086 Q 309.783203 30.569824 310.075928 30.849121 Q 310.368652 31.128418 311.168945 31.316406 L 311.738281 31.445312 Q 312.866211 31.708496 313.381836 32.272461 Q 313.897461 32.836426 313.897461 33.808594 Q 313.897461 34.952637 313.188477 35.554199 Q 312.479492 36.155762 311.125977 36.155762 Q 310.562012 36.155762 309.992676 36.034912 Q 309.423340 35.914062 308.848633 35.672363 L 308.848633 34.517578 Q 309.466309 34.909668 310.016846 35.092285 Q 310.567383 35.274902 311.125977 35.274902 Q 311.947754 35.274902 312.404297 34.906982 Q 312.860840 34.539062 312.860840 33.878418 Q 312.860840 33.276855 312.546631 32.959961 Q 312.232422 32.643066 311.453613 32.471191 L 310.873535 32.336914 Q 309.756348 32.084473 309.251465 31.574219 Q 308.746582 31.063965 308.746582 30.204590 Q 308.746582 29.130371 309.468994 28.483154 Q 310.191406 27.835938 311.389160 27.835938 Q 311.851074 27.835938 312.361328 27.940674 Q 312.871582 28.045410 313.435547 28.254883 Z " fill="rgb(0, 0, 0)" fill-opacity="1.000000" />
<path d="M 318.308594 30.677246 Q 317.556641 30.677246 317.169922 31.262695 Q 316.783203 31.848145 316.783203 32.997559 Q 316.783203 34.141602 317.169922 34.729736 Q 317.556641 35.317871 318.308594 35.317871 Q 319.065918 35.317871 319.452637 34.729736 Q 319.839355 34.141602 319.839355 32.997559 Q 319.839355 31.848145 319.452637 31.262695 Q 319.065918 30.677246 318.308594 30.677246 Z M 318.308594 29.839355 Q 319.560059 29.839355 320.223389 30.650391 Q 320.886719 31.461426 320.886719 32.997559 Q 320.886719 34.539062 320.226074 35.347412 Q 319.565430 36.155762 318.308594 36.155762 Q 317.057129 36.155762 316.396484 35.347412 Q 315.735840 34.539062 315.735840 32.997559 Q 315.735840 31.461426 316.396484 30.650391 Q 317.057129 29.839355 318.308594 29.839355 Z " fill="rgb(0, 0, 0)" fill-opacity="1.000000" />
<path d="M 323.047363 33.722656 L 323.047363 29.995117 L 324.035645 29.995117 L 324.035645 33.722656 Q 324.035645 34.533691 324.322998 34.915039 Q 324.610352 35.296387 325.211914 35.296387 Q 325.910156 35.296387 326.280762 34.804932 Q 326.651367 34.313477 326.651367 33.395020 L 326.651367 29.995117 L 327.645020 29.995117 L 327.645020 36.000000 L 326.651367 36.000000 L 326.651367 35.097656 Q 326.388184 35.618652 325.934326 35.887207 Q 325.480469 36.155762 324.873535 36.155762 Q 323.949707 36.155762 323.498535 35.551514 Q 323.047363 34.947266 323.047363 33.722656 Z " fill="rgb(0, 0, 0)" fill-opacity="1.000000" />
<path d="M 335.203613 31.225098 Q 334.886719 30.978027 334.559082 30.865234 Q 334.231445 30.752441 333.839355 30.752441 Q 332.915527 30.752441 332.426758 31.332520 Q 331.937988 31.912598 331.937988 33.008301 L 331.937988 36.000000 L 330.944336 36.000000 L 330.944336 29.984375 L 331.937988 29.984375 L 331.937988 31.160645 Q 332.185059 30.521484 332.697998 30.180420 Q 333.210938 29.839355 333.914551 29.839355 Q 334.279785 29.839355 334.596680 29.930664 Q 334.913574 30.021973 335.203613 30.215332 Z " fill="rgb(0, 0, 0)" fill-opacity="1.000000" />
<path d="M 341.698730 35.693848 Q 341.301270 35.924805 340.879639 36.040283 Q 340.458008 36.155762 340.017578 36.155762 Q 338.621094 36.155762 337.834229 35.317871 Q 337.047363 34.479980 337.047363 32.997559 Q 337.047363 31.515137 337.834229 30.677246 Q 338.621094 29.839355 340.017578 29.839355 Q 340.452637 29.839355 340.866211 29.952148 Q 341.279785 30.064941 341.698730 30.301270 L 341.698730 31.337891 Q 341.306641 30.988770 340.911865 30.833008 Q 340.517090 30.677246 340.017578 30.677246 Q 339.088379 30.677246 338.588867 31.278809 Q 338.089355 31.880371 338.089355 32.997559 Q 338.089355 34.109375 338.591553 34.713623 Q 339.093750 35.317871 340.017578 35.317871 Q 340.533203 35.317871 340.941406 35.159424 Q 341.349609 35.000977 341.698730 34.667969 Z " fill="rgb(0, 0, 0)" fill-opacity="1.000000" />
<path d="M 349.015625 32.498047 L 349.015625 32.981445 L 344.734863 32.981445 L 344.734863 33.013672 Q 344.691895 34.243652 345.204834 34.780762 Q 345.717773 35.317871 346.652344 35.317871 Q 347.125000 35.317871 347.640625 35.167480 Q 348.156250 35.017090 348.741699 34.710938 L 348.741699 35.693848 Q 348.177734 35.924805 347.654053 36.040283 Q 347.130371 36.155762 346.641602 36.155762 Q 345.239746 36.155762 344.450195 35.315186 Q 343.660645 34.474609 343.660645 32.997559 Q 343.660645 31.558105 344.434082 30.698730 Q 345.207520 29.839355 346.496582 29.839355 Q 347.645996 29.839355 348.309326 30.618164 Q 348.972656 31.396973 349.015625 32.498047 Z M 348.027344 32.208008 Q 347.962891 31.584961 347.573486 31.131104 Q 347.184082 30.677246 346.453613 30.677246 Q 345.739258 30.677246 345.277344 31.149902 Q 344.815430 31.622559 344.772461 32.213379 Z " fill="rgb(0, 0, 0)" fill-opacity="1.000000" />
<path d="M 380.878906 39.319336 L 380.878906 25.300781 L 381.738281 25.300781 L 381.738281 39.319336 Z " fill="rgb(0, 0, 0)" fill-opacity="1.000000" />
<path d="M 233.878906 26.319336 L 233.878906 12.300781 L 234.738281 12.300781 L 234.738281 26.319336 Z " fill="rgb(0, 127, 0)" fill-opacity="1.000000" />
<path d="M 282.878906 26.319336 L 282.878906 12.300781 L 283.738281 12.300781 L 283.738281 26.319336 Z " fill="rgb(0, 0, 0)" fill-opacity="1.000000" />
<path d="M 380.878906 26.319336 L 380.878906 12.300781 L 381.738281 12.300781 L 381.738281 26.319336 Z " fill="rgb(0, 0, 0)" fill-opacity="1.000000" />
<path d="M 55.892578 7.335938 L 55.892578 6.412109 L 62.729980 6.412109 L 62.729980 7.335938 Z " fill="rgb(0, 127, 0)" fill-opacity="1.000000" />
<path d="M 62.892578 7.335938 L 62.892578 6.412109 L 69.729980 6.412109 L 69.729980 7.335938 Z " fill="rgb(0, 127, 0)" fill-opacity="1.000000" />
<path d="M 69.892578 7.335938 L 69.892578 6.412109 L 76.729980 6.412109 L 76.729980 7.335938 Z " fill="rgb(0, 127, 0)" fill-opacity="1.000000" />
<path d="M 76.892578 7.335938 L 76.892578 6.412109 L 83.729980 6.412109 L 83.729980 7.335938 Z " fill="rgb(0, 127, 0)" fill-opacity="1.000000" />
<path d="M 83.892578 7.335938 L 83.892578 6.412109 L 90.729980 6.412109 L 90.729980 7.335938 Z " fill="rgb(0, 127, 0)" fill-opacity="1.000000" />
<path d="M 90.892578 7.335938 L 90.892578 6.412109 L 97.729980 6.412109 L 97.729980 7.335938 Z " fill="rgb(0, 127, 0)" fill-opacity="1.000000" />
<path d="M 101.518066 10.145020 Q 101.480469 10.145020 101.410645 10.150391 Q 101.340820 10.155762 101.297852 10.155762 Q 99.955078 10.155762 99.291748 9.124512 Q 98.628418 8.093262 98.628418 5.998535 Q 98.628418 3.898438 99.291748 2.867188 Q 99.955078 1.835938 101.308594 1.835938 Q 102.667480 1.835938 103.330811 2.867188 Q 103.994141 3.898438 103.994141 5.998535 Q 103.994141 7.577637 103.626221 8.541748 Q 103.258301 9.505859 102.511719 9.892578 L 103.585938 10.913086 L 102.774902 11.450195 Z M 102.860840 5.998535 Q 102.860840 4.231445 102.498291 3.474121 Q 102.135742 2.716797 101.308594 2.716797 Q 100.486816 2.716797 100.124268 3.474121 Q 99.761719 4.231445 99.761719 5.998535 Q 99.761719 7.760254 100.124268 8.517578 Q 100.486816 9.274902 101.308594 9.274902 Q 102.135742 9.274902 102.498291 8.520264 Q 102.860840 7.765625 102.860840 5.998535 Z " fill="rgb(0, 0, 0)" fill-opacity="1.000000" />
<path d="M 106.047363 7.722656 L 106.047363 3.995117 L 107.035645 3.995117 L 107.035645 7.722656 Q 107.035645 8.533691 107.322998 8.915039 Q 107.610352 9.296387 108.211914 9.296387 Q 108.910156 9.296387 109.280762 8.804932 Q 109.651367 8.313477 109.651367 7.395020 L 109.651367 3.995117 L 110.645020 3.995117 L 110.645020 10.000000 L 109.651367 10.000000 L 109.651367 9.097656 Q 109.388184 9.618652 108.934326 9.887207 Q 108.480469 10.155762 107.873535 10.155762 Q 106.949707 10.155762 106.498535 9.551514 Q 106.047363 8.947266 106.047363 7.722656 Z " fill="rgb(0, 0, 0)" fill-opacity="1.000000" />
<path d="M 118.015625 6.498047 L 118.015625 6.981445 L 113.734863 6.981445 L 113.734863 7.013672 Q 113.691895 8.243652 114.204834 8.780762 Q 114.717773 9.317871 115.652344 9.317871 Q 116.125000 9.317871 116.640625 9.167480 Q 117.156250 9.017090 117.741699 8.710938 L 117.741699 9.693848 Q 117.177734 9.924805 116.654053 10.040283 Q 116.130371 10.155762 115.641602 10.155762 Q 114.239746 10.155762 113.450195 9.315186 Q 112.660645 8.474609 112.660645 6.997559 Q 112.660645 5.558105 113.434082 4.698730 Q 114.207520 3.839355 115.496582 3.839355 Q 116.645996 3.839355 117.309326 4.618164 Q 117.972656 5.396973 118.015625 6.498047 Z M 117.027344 6.208008 Q 116.962891 5.584961 116.573486 5.131104 Q 116.184082 4.677246 115.453613 4.677246 Q 114.739258 4.677246 114.277344 5.149902 Q 113.815430 5.622559 113.772461 6.213379 Z " fill="rgb(0, 0, 0)" fill-opacity="1.000000" />
<path d="M 125.203613 5.225098 Q 124.886719 4.978027 124.559082 4.865234 Q 124.231445 4.752441 123.839355 4.752441 Q 122.915527 4.752441 122.426758 5.332520 Q 121.937988 5.912598 121.937988 7.008301 L 121.937988 10.000000 L 120.944336 10.000000 L 120.944336 3.984375 L 121.937988 3.984375 L 121.937988 5.160645 Q 122.185059 4.521484 122.697998 4.180420 Q 123.210938 3.839355 123.914551 3.839355 Q 124.279785 3.839355 124.596680 3.930664 Q 124.913574 4.021973 125.203613 4.215332 Z " fill="rgb(0, 0, 0)" fill-opacity="1.000000" />
<path d="M 130.608398 8.066406 Q 130.361328 8.694824 129.979980 9.720703 Q 129.448242 11.138672 129.265625 11.450195 Q 129.018555 11.869141 128.647949 12.078613 Q 128.277344 12.288086 127.783203 12.288086 L 126.988281 12.288086 L 126.988281 11.460938 L 127.573730 11.460938 Q 128.008789 11.460938 128.255859 11.208496 Q 128.502930 10.956055 128.884277 9.903320 L 126.558594 3.984375 L 127.605957 3.984375 L 129.389160 8.689453 L 131.145508 3.984375 L 132.192871 3.984375 Z " fill="rgb(0, 0, 0)" fill-opacity="1.000000" />
<path d="M 146.203613 5.225098 Q 145.886719 4.978027 145.559082 4.865234 Q 145.231445 4.752441 144.839355 4.752441 Q 143.915527 4.752441 143.426758 5.332520 Q 142.937988 5.912598 142.937988 7.008301 L 142.937988 10.000000 L 141.944336 10.000000 L 141.944336 3.984375 L 142.937988 3.984375 L 142.937988 5.160645 Q 143.185059 4.521484 143.697998 4.180420 Q 144.210938 3.839355 144.914551 3.839355 Q 145.279785 3.839355 145.596680 3.930664 Q 145.913574 4.021973 146.203613 4.215332 Z " fill="rgb(0, 0, 0)" fill-opacity="1.000000" />
<path d="M 153.015625 6.498047 L 153.015625 6.981445 L 148.734863 6.981445 L 148.734863 7.013672 Q 148.691895 8.243652 149.204834 8.780762 Q 149.717773 9.317871 150.652344 9.317871 Q 151.125000 9.317871 151.640625 9.167480 Q 152.156250 9.017090 152.741699 8.710938 L 152.741699 9.693848 Q 152.177734 9.924805 151.654053 10.040283 Q 151.130371 10.155762 150.641602 10.155762 Q 149.239746 10.155762 148.450195 9.315186 Q 147.660645 8.474609 147.660645 6.997559 Q 147.660645 5.558105 148.434082 4.698730 Q 149.207520 3.839355 150.496582 3.839355 Q 151.645996 3.839355 152.309326 4.618164 Q 152.972656 5.396973 153.015625 6.498047 Z M 152.027344 6.208008 Q 151.962891 5.584961 151.573486 5.131104 Q 151.184082 4.677246 150.453613 4.677246 Q 149.739258 4.677246 149.277344 5.149902 Q 148.815430 5.622559 148.772461 6.213379 Z " fill="rgb(0, 0, 0)" fill-opacity="1.000000" />
<path d="M 159.226074 4.193848 L 159.226074 5.160645 Q 158.801758 4.913574 158.372070 4.790039 Q 157.942383 4.666504 157.496582 4.666504 Q 156.825195 4.666504 156.494873 4.884033 Q 156.164551 5.101562 156.164551 5.547363 Q 156.164551 5.950195 156.411621 6.148926 Q 156.658691 6.347656 157.641602 6.535645 L 158.039062 6.610840 Q 158.774902 6.750488 159.153564 7.169434 Q 159.532227 7.588379 159.532227 8.259766 Q 159.532227 9.151367 158.898438 9.653564 Q 158.264648 10.155762 157.136719 10.155762 Q 156.690918 10.155762 156.202148 10.061768 Q 155.713379 9.967773 155.144043 9.779785 L 155.144043 8.759277 Q 155.697266 9.043945 156.202148 9.186279 Q 156.707031 9.328613 157.158203 9.328613 Q 157.813477 9.328613 158.173340 9.062744 Q 158.533203 8.796875 158.533203 8.318848 Q 158.533203 7.631348 157.217285 7.368164 L 157.174316 7.357422 L 156.803711 7.282227 Q 155.949707 7.115723 155.557617 6.720947 Q 155.165527 6.326172 155.165527 5.644043 Q 155.165527 4.779297 155.750977 4.309326 Q 156.336426 3.839355 157.421387 3.839355 Q 157.904785 3.839355 158.350586 3.927979 Q 158.796387 4.016602 159.226074 4.193848 Z " fill="rgb(0, 0, 0)" fill-opacity="1.000000" />
<path d="M 162.047363 7.722656 L 162.047363 3.995117 L 163.035645 3.995117 L 163.035645 7.722656 Q 163.035645 8.533691 163.322998 8.915039 Q 163.610352 9.296387 164.211914 9.296387 Q 164.910156 9.296387 165.280762 8.804932 Q 165.651367 8.313477 165.651367 7.395020 L 165.651367 3.995117 L 166.645020 3.995117 L 166.645020 10.000000 L 165.651367 10.000000 L 165.651367 9.097656 Q 165.388184 9.618652 164.934326 9.887207 Q 164.480469 10.155762 163.873535 10.155762 Q 162.949707 10.155762 162.498535 9.551514 Q 162.047363 8.947266 162.047363 7.722656 Z " fill="rgb(0, 0, 0)" fill-opacity="1.000000" />
<path d="M 171.861816 7.824707 Q 171.861816 8.490723 172.106201 8.829102 Q 172.350586 9.167480 172.828613 9.167480 L 173.983398 9.167480 L 173.983398 10.000000 L 172.731934 10.000000 Q 171.845703 10.000000 171.359619 9.433350 Q 170.873535 8.866699 170.873535 7.824707 L 170.873535 2.383789 L 169.289062 2.383789 L 169.289062 1.610352 L 171.861816 1.610352 Z " fill="rgb(0, 0, 0)" fill-opacity="1.000000" />
<path d="M 178.297852 2.276367 L 178.297852 3.984375 L 180.542969 3.984375 L 180.542969 4.752441 L 178.297852 4.752441 L 178.297852 8.018066 Q 178.297852 8.684082 178.550293 8.947266 Q 178.802734 9.210449 179.431152 9.210449 L 180.542969 9.210449 L 180.542969 10.000000 L 179.334473 10.000000 Q 178.222656 10.000000 177.766113 9.554199 Q 177.309570 9.108398 177.309570 8.018066 L 177.309570 4.752441 L 175.703613 4.752441 L 175.703613 3.984375 L 177.309570 3.984375 L 177.309570 2.276367 Z " fill="rgb(0, 0, 0)" fill-opacity="1.000000" />
<path d="M 181.892578 7.335938 L 181.892578 6.412109 L 188.729980 6.412109 L 188.729980 7.335938 Z " fill="rgb(0, 127, 0)" fill-opacity="1.000000" />
<path d="M 188.892578 7.335938 L 188.892578 6.412109 L 195.729980 6.412109 L 195.729980 7.335938 Z " fill="rgb(0, 127, 0)" fill-opacity="1.000000" />
<path d="M 195.892578 7.335938 L 195.892578 6.412109 L 202.729980 6.412109 L 202.729980 7.335938 Z " fill="rgb(0, 127, 0)" fill-opacity="1.000000" />
<path d="M 202.892578 7.335938 L 202.892578 6.412109 L 209.729980 6.412109 L 209.729980 7.335938 Z " fill="rgb(0, 127, 0)" fill-opacity="1.000000" />
<path d="M 209.892578 7.335938 L 209.892578 6.412109 L 216.729980 6.412109 L 216.729980 7.335938 Z " fill="rgb(0, 127, 0)" fill-opacity="1.000000" />
<path d="M 216.892578 7.335938 L 216.892578 6.412109 L 223.729980 6.412109 L 223.729980 7.335938 Z " fill="rgb(0, 127, 0)" fill-opacity="1.000000" />
<path d="M 223.892578 7.335938 L 223.892578 6.412109 L 230.729980 6.412109 L 230.729980 7.335938 Z " fill="rgb(0, 127, 0)" fill-opacity="1.000000" />
<path d="M 233.878906 13.319336 L 233.878906 7.335938 L 230.892578 7.335938 L 230.892578 6.412109 L 234.738281 6.412109 L 234.738281 13.319336 Z " fill="rgb(0, 127, 0)" fill-opacity="1.000000" />
<path d="M 282.878906 13.319336 L 282.878906 6.412109 L 286.729980 6.412109 L 286.729980 7.335938 L 283.738281 7.335938 L 283.738281 13.319336 Z " fill="rgb(0, 0, 0)" fill-opacity="1.000000" />
<path d="M 286.892578 7.335938 L 286.892578 6.412109 L 293.729980 6.412109 L 293.729980 7.335938 Z " fill="rgb(0, 0, 0)" fill-opacity="1.000000" />
<path d="M 293.892578 7.335938 L 293.892578 6.412109 L 300.729980 6.412109 L 300.729980 7.335938 Z " fill="rgb(0, 0, 0)" fill-opacity="1.000000" />
<path d="M 300.892578 7.335938 L 300.892578 6.412109 L 307.729980 6.412109 L 307.729980 7.335938 Z " fill="rgb(0, 0, 0)" fill-opacity="1.000000" />
<path d="M 307.892578 7.335938 L 307.892578 6.412109 L 314.729980 6.412109 L 314.729980 7.335938 Z " fill="rgb(0, 0, 0)" fill-opacity="1.000000" />
<path d="M 314.892578 7.335938 L 314.892578 6.412109 L 321.729980 6.412109 L 321.729980 7.335938 Z " fill="rgb(0, 0, 0)" fill-opacity="1.000000" />
<path d="M 321.892578 7.335938 L 321.892578 6.412109 L 328.729980 6.412109 L 328.729980 7.335938 Z " fill="rgb(0, 0, 0)" fill-opacity="1.000000" />
<path d="M 328.892578 7.335938 L 328.892578 6.412109 L 335.729980 6.412109 L 335.729980 7.335938 Z " fill="rgb(0, 0, 0)" fill-opacity="1.000000" />
<path d="M 335.892578 7.335938 L 335.892578 6.412109 L 342.729980 6.412109 L 342.729980 7.335938 Z " fill="rgb(0, 0, 0)" fill-opacity="1.000000" />
<path d="M 342.892578 7.335938 L 342.892578 6.412109 L 349.729980 6.412109 L 349.729980 7.335938 Z " fill="rgb(0, 0, 0)" fill-opacity="1.000000" />
<path d="M 349.892578 7.335938 L 349.892578 6.412109 L 356.729980 6.412109 L 356.729980 7.335938 Z " fill="rgb(0, 0, 0)" fill-opacity="1.000000" />
<path d="M 356.892578 7.335938 L 356.892578 6.412109 L 363.729980 6.412109 L 363.729980 7.335938 Z " fill="rgb(0, 0, 0)" fill-opacity="1.000000" />
<path d="M 363.892578 7.335938 L 363.892578 6.412109 L 370.729980 6.412109 L 370.729980 7.335938 Z " fill="rgb(0, 0, 0)" fill-opacity="1.000000" />
<path d="M 370.892578 7.335938 L 370.892578 6.412109 L 377.729980 6.412109 L 377.729980 7.335938 Z " fill="rgb(0, 0, 0)" fill-opacity="1.000000" />
<path d="M 380.878906 13.319336 L 380.878906 7.335938 L 377.892578 7.335938 L 377.892578 6.412109 L 381.738281 6.412109 L 381.738281 13.319336 Z " fill="rgb(0, 0, 0)" fill-opacity="1.000000" />
</svg>