<svg height="421" width="621" xmlns="http://www.w3.org/2000/svg"><style>svg {
  font-family: ui-monospace, SFMono-Regular, Menlo, Monaco, Consolas, "Liberation Mono", "Courier New", monospace;
}
text {
  fill: #2f3337;
  font-size: 14px;
}
rect {
  fill: #ffffff;
  stroke: #3a3d40;
  stroke-width: 2;
}
rect.terminal {
  fill: #ffffff;
}
rect.nonterminal {
  fill: #ffffff;
}
text.terminal {
  fill: #2f3337;
  font-weight: 600;
}
text.nonterminal {
  fill: #2563eb;
}
a text.nonterminal {
  text-decoration: underline;
}
path.line {
  fill: none;
  stroke: #3a3d40;
  stroke-width: 2;
}
polygon {
  fill: #2f3337;
  stroke: #2f3337;
}</style>
<polygon points="9 61 1 57 1 65"></polygon>
<polygon points="17 61 9 57 9 65"></polygon>
<rect height="32" rx="10" width="76" x="31" y="47"></rect>
<rect class="terminal" height="32" rx="10" width="76" x="29" y="45"></rect>
<text class="terminal" x="39" y="65">IMPORT</text>
<rect height="32" rx="10" width="56" x="127" y="47"></rect>
<rect class="terminal" height="32" rx="10" width="56" x="125" y="45"></rect>
<text class="terminal" x="135" y="65">INTO</text>
<rect height="32" width="96" x="203" y="47"></rect>
<rect class="nonterminal" height="32" width="96" x="201" y="45"></rect>
<text lengthAdjust="spacingAndGlyphs" textLength="72" font-size="11" class="nonterminal" x="213" y="65">table_name</text><rect height="32" rx="10" width="26" x="339" y="47"></rect>
<rect class="terminal" height="32" rx="10" width="26" x="337" y="45"></rect>
<text class="terminal" x="347" y="65">(</text>
<rect height="32" width="108" x="405" y="47"></rect>
<rect class="nonterminal" height="32" width="108" x="403" y="45"></rect>
<text lengthAdjust="spacingAndGlyphs" textLength="84" font-size="12" class="nonterminal" x="415" y="65">column_name</text><rect height="32" rx="10" width="24" x="405" y="3"></rect>
<rect class="terminal" height="32" rx="10" width="24" x="403" y="1"></rect>
<text class="terminal" x="413" y="21">,</text>
<rect height="32" rx="10" width="26" x="553" y="47"></rect>
<rect class="terminal" height="32" rx="10" width="26" x="551" y="45"></rect>
<text class="terminal" x="561" y="65">)</text>
<rect height="32" rx="10" width="46" x="102" y="173"></rect>
<rect class="terminal" height="32" rx="10" width="46" x="100" y="171"></rect>
<text class="terminal" x="110" y="191">CSV</text>
<rect height="32" rx="10" width="58" x="102" y="217"></rect>
<rect class="terminal" height="32" rx="10" width="58" x="100" y="215"></rect>
<text class="terminal" x="110" y="235">AVRO</text>
<rect height="32" rx="10" width="96" x="102" y="261"></rect>
<rect class="terminal" height="32" rx="10" width="96" x="100" y="259"></rect>
<text class="terminal" x="110" y="279">DELIMITED</text>
<rect height="32" rx="10" width="56" x="238" y="173"></rect>
<rect class="terminal" height="32" rx="10" width="56" x="236" y="171"></rect>
<text class="terminal" x="246" y="191">DATA</text>
<rect height="32" rx="10" width="26" x="314" y="173"></rect>
<rect class="terminal" height="32" rx="10" width="26" x="312" y="171"></rect>
<text class="terminal" x="322" y="191">(</text>
<rect height="32" width="96" x="380" y="173"></rect>
<rect class="nonterminal" height="32" width="96" x="378" y="171"></rect>
<text lengthAdjust="spacingAndGlyphs" textLength="72" font-size="10" class="nonterminal" x="390" y="191">file_location</text><rect height="32" rx="10" width="24" x="380" y="129"></rect>
<rect class="terminal" height="32" rx="10" width="24" x="378" y="127"></rect>
<text class="terminal" x="388" y="147">,</text>
<rect height="32" rx="10" width="26" x="516" y="173"></rect>
<rect class="terminal" height="32" rx="10" width="26" x="514" y="171"></rect>
<text class="terminal" x="524" y="191">)</text>
<rect height="32" rx="10" width="58" x="271" y="371"></rect>
<rect class="terminal" height="32" rx="10" width="58" x="269" y="369"></rect>
<text class="terminal" x="279" y="389">WITH</text>
<rect height="32" width="60" x="369" y="371"></rect>
<rect class="nonterminal" height="32" width="60" x="367" y="369"></rect>
<text lengthAdjust="spacingAndGlyphs" textLength="36" font-size="10" class="nonterminal" x="379" y="389">option</text><rect height="32" rx="10" width="30" x="449" y="371"></rect>
<rect class="terminal" height="32" rx="10" width="30" x="447" y="369"></rect>
<text class="terminal" x="457" y="389">=</text>
<rect height="32" width="54" x="499" y="371"></rect>
<rect class="nonterminal" height="32" width="54" x="497" y="369"></rect>
<text lengthAdjust="spacingAndGlyphs" textLength="30" font-size="10" class="nonterminal" x="509" y="389">value</text><rect height="32" rx="10" width="24" x="369" y="327"></rect>
<rect class="terminal" height="32" rx="10" width="24" x="367" y="325"></rect>
<text class="terminal" x="377" y="345">,</text>
<path class="line" d="m17 61 h2 m0 0 h10 m76 0 h10 m0 0 h10 m56 0 h10 m0 0 h10 m96 0 h10 m20 0 h10 m26 0 h10 m20 0 h10 m108 0 h10 m-148 0 l20 0 m-1 0 q-9 0 -9 -10 l0 -24 q0 -10 10 -10 m128 44 l20 0 m-20 0 q10 0 10 -10 l0 -24 q0 -10 -10 -10 m-128 0 h10 m24 0 h10 m0 0 h84 m20 44 h10 m26 0 h10 m-280 0 h20 m260 0 h20 m-300 0 q10 0 10 10 m280 0 q0 -10 10 -10 m-290 10 v14 m280 0 v-14 m-280 14 q0 10 10 10 m260 0 q10 0 10 -10 m-270 10 h10 m0 0 h250 m22 -34 l2 0 m2 0 l2 0 m2 0 l2 0 m-561 126 l2 0 m2 0 l2 0 m2 0 l2 0 m22 0 h10 m46 0 h10 m0 0 h50 m-136 0 h20 m116 0 h20 m-156 0 q10 0 10 10 m136 0 q0 -10 10 -10 m-146 10 v24 m136 0 v-24 m-136 24 q0 10 10 10 m116 0 q10 0 10 -10 m-126 10 h10 m58 0 h10 m0 0 h38 m-126 -10 v20 m136 0 v-20 m-136 20 v24 m136 0 v-24 m-136 24 q0 10 10 10 m116 0 q10 0 10 -10 m-126 10 h10 m96 0 h10 m20 -88 h10 m56 0 h10 m0 0 h10 m26 0 h10 m20 0 h10 m96 0 h10 m-136 0 l20 0 m-1 0 q-9 0 -9 -10 l0 -24 q0 -10 10 -10 m116 44 l20 0 m-20 0 q10 0 10 -10 l0 -24 q0 -10 -10 -10 m-116 0 h10 m24 0 h10 m0 0 h72 m20 44 h10 m26 0 h10 m2 0 l2 0 m2 0 l2 0 m2 0 l2 0 m-335 198 l2 0 m2 0 l2 0 m2 0 l2 0 m22 0 h10 m58 0 h10 m20 0 h10 m60 0 h10 m0 0 h10 m30 0 h10 m0 0 h10 m54 0 h10 m-224 0 l20 0 m-1 0 q-9 0 -9 -10 l0 -24 q0 -10 10 -10 m204 44 l20 0 m-20 0 q10 0 10 -10 l0 -24 q0 -10 -10 -10 m-204 0 h10 m24 0 h10 m0 0 h160 m-322 44 h20 m322 0 h20 m-362 0 q10 0 10 10 m342 0 q0 -10 10 -10 m-352 10 v14 m342 0 v-14 m-342 14 q0 10 10 10 m322 0 q10 0 10 -10 m-332 10 h10 m0 0 h312 m23 -34 h-3"></path>
<polygon points="611 385 619 381 619 389"></polygon>
<polygon points="611 385 603 381 603 389"></polygon></svg>