<svg height="57" width="265" xmlns="http://www.w3.org/2000/svg" xmlns:xlink="http://www.w3.org/1999/xlink"><style>svg {
  font-family: ui-monospace, SFMono-Regular, Menlo, Monaco, Consolas, "Liberation Mono", "Courier New", monospace;
}
text {
  fill: #2f3337;
  font-size: 14px;
}
rect {
  fill: #ffffff;
  stroke: #3a3d40;
  stroke-width: 2;
}
rect.terminal {
  fill: #ffffff;
}
rect.nonterminal {
  fill: #ffffff;
}
text.terminal {
  fill: #2f3337;
  font-weight: 600;
}
text.nonterminal {
  fill: #2563eb;
}
a text.nonterminal {
  text-decoration: underline;
}
path.line {
  fill: none;
  stroke: #3a3d40;
  stroke-width: 2;
}
polygon {
  fill: #2f3337;
  stroke: #2f3337;
}</style>
<polygon points="9 5 1 1 1 9"></polygon>
<polygon points="17 5 9 1 9 9"></polygon>
<rect height="32" rx="10" width="26" x="51" y="23"></rect>
<rect class="terminal" height="32" rx="10" width="26" x="49" y="21"></rect>
<text class="terminal" x="59" y="41">(</text><a xlink:href="#type_list" xlink:title="type_list">
<rect height="32" width="74" x="97" y="23"></rect>
<rect class="nonterminal" height="32" width="74" x="95" y="21"></rect>
<text lengthAdjust="spacingAndGlyphs" textLength="50" font-size="10" class="nonterminal" x="107" y="41">type_list</text></a><rect height="32" rx="10" width="26" x="191" y="23"></rect>
<rect class="terminal" height="32" rx="10" width="26" x="189" y="21"></rect>
<text class="terminal" x="199" y="41">)</text>
<path class="line" d="m17 5 h2 m20 0 h10 m0 0 h176 m-206 0 h20 m186 0 h20 m-226 0 q10 0 10 10 m206 0 q0 -10 10 -10 m-216 10 v12 m206 0 v-12 m-206 12 q0 10 10 10 m186 0 q10 0 10 -10 m-196 10 h10 m26 0 h10 m0 0 h10 m74 0 h10 m0 0 h10 m26 0 h10 m23 -32 h-3"></path>
<polygon points="255 5 263 1 263 9"></polygon>
<polygon points="255 5 247 1 247 9"></polygon></svg>