<svg height="169" width="309" xmlns="http://www.w3.org/2000/svg" xmlns:xlink="http://www.w3.org/1999/xlink"><style>svg {
  font-family: ui-monospace, SFMono-Regular, Menlo, Monaco, Consolas, "Liberation Mono", "Courier New", monospace;
}
text {
  fill: #2f3337;
  font-size: 14px;
}
rect {
  fill: #ffffff;
  stroke: #3a3d40;
  stroke-width: 2;
}
rect.terminal {
  fill: #ffffff;
}
rect.nonterminal {
  fill: #ffffff;
}
text.terminal {
  fill: #2f3337;
  font-weight: 600;
}
text.nonterminal {
  fill: #2563eb;
}
a text.nonterminal {
  text-decoration: underline;
}
path.line {
  fill: none;
  stroke: #3a3d40;
  stroke-width: 2;
}
polygon {
  fill: #2f3337;
  stroke: #2f3337;
}</style>
<polygon points="9 17 1 13 1 21"></polygon>
<polygon points="17 17 9 13 9 21"></polygon>
<rect height="32" rx="10" width="54" x="71" y="3"></rect>
<rect class="terminal" height="32" rx="10" width="54" x="69" y="1"></rect>
<text class="terminal" x="79" y="21">FULL</text>
<rect height="32" rx="10" width="52" x="71" y="47"></rect>
<rect class="terminal" height="32" rx="10" width="52" x="69" y="45"></rect>
<text class="terminal" x="79" y="65">LEFT</text>
<rect height="32" rx="10" width="64" x="71" y="91"></rect>
<rect class="terminal" height="32" rx="10" width="64" x="69" y="89"></rect>
<text class="terminal" x="79" y="109">RIGHT</text><a xlink:href="#join_outer" xlink:title="join_outer">
<rect height="32" width="86" x="175" y="3"></rect>
<rect class="nonterminal" height="32" width="86" x="173" y="1"></rect>
<text lengthAdjust="spacingAndGlyphs" textLength="62" font-size="10" class="nonterminal" x="185" y="21">join_outer</text></a><rect height="32" rx="10" width="64" x="51" y="135"></rect>
<rect class="terminal" height="32" rx="10" width="64" x="49" y="133"></rect>
<text class="terminal" x="59" y="153">INNER</text>
<path class="line" d="m17 17 h2 m40 0 h10 m54 0 h10 m0 0 h10 m-104 0 h20 m84 0 h20 m-124 0 q10 0 10 10 m104 0 q0 -10 10 -10 m-114 10 v24 m104 0 v-24 m-104 24 q0 10 10 10 m84 0 q10 0 10 -10 m-94 10 h10 m52 0 h10 m0 0 h12 m-94 -10 v20 m104 0 v-20 m-104 20 v24 m104 0 v-24 m-104 24 q0 10 10 10 m84 0 q10 0 10 -10 m-94 10 h10 m64 0 h10 m20 -88 h10 m86 0 h10 m-250 0 h20 m230 0 h20 m-270 0 q10 0 10 10 m250 0 q0 -10 10 -10 m-260 10 v112 m250 0 v-112 m-250 112 q0 10 10 10 m230 0 q10 0 10 -10 m-240 10 h10 m64 0 h10 m0 0 h146 m23 -132 h-3"></path>
<polygon points="299 17 307 13 307 21"></polygon>
<polygon points="299 17 291 13 291 21"></polygon></svg>