<svg height="125" width="305" xmlns="http://www.w3.org/2000/svg" xmlns:xlink="http://www.w3.org/1999/xlink"><style>svg {
  font-family: ui-monospace, SFMono-Regular, Menlo, Monaco, Consolas, "Liberation Mono", "Courier New", monospace;
}
text {
  fill: #2f3337;
  font-size: 14px;
}
rect {
  fill: #ffffff;
  stroke: #3a3d40;
  stroke-width: 2;
}
rect.terminal {
  fill: #ffffff;
}
rect.nonterminal {
  fill: #ffffff;
}
text.terminal {
  fill: #2f3337;
  font-weight: 600;
}
text.nonterminal {
  fill: #2563eb;
}
a text.nonterminal {
  text-decoration: underline;
}
path.line {
  fill: none;
  stroke: #3a3d40;
  stroke-width: 2;
}
polygon {
  fill: #2f3337;
  stroke: #2f3337;
}</style>
<polygon points="9 17 1 13 1 21"></polygon>
<polygon points="17 17 9 13 9 21"></polygon><a xlink:href="#alter_rename_view_stmt" xlink:title="alter_rename_view_stmt">
<rect height="32" width="178" x="51" y="3"></rect>
<rect class="nonterminal" height="32" width="178" x="49" y="1"></rect>
<text lengthAdjust="spacingAndGlyphs" textLength="154" font-size="11" class="nonterminal" x="61" y="21">alter_rename_view_stmt</text></a><a xlink:href="#alter_view_set_schema_stmt" xlink:title="alter_view_set_schema_stmt">
<rect height="32" width="206" x="51" y="47"></rect>
<rect class="nonterminal" height="32" width="206" x="49" y="45"></rect>
<text lengthAdjust="spacingAndGlyphs" textLength="182" font-size="11" class="nonterminal" x="61" y="65">alter_view_set_schema_stmt</text></a><a xlink:href="#alter_view_owner_stmt" xlink:title="alter_view_owner_stmt">
<rect height="32" width="168" x="51" y="91"></rect>
<rect class="nonterminal" height="32" width="168" x="49" y="89"></rect>
<text lengthAdjust="spacingAndGlyphs" textLength="144" font-size="11" class="nonterminal" x="61" y="109">alter_view_owner_stmt</text></a><path class="line" d="m17 17 h2 m20 0 h10 m178 0 h10 m0 0 h28 m-246 0 h20 m226 0 h20 m-266 0 q10 0 10 10 m246 0 q0 -10 10 -10 m-256 10 v24 m246 0 v-24 m-246 24 q0 10 10 10 m226 0 q10 0 10 -10 m-236 10 h10 m206 0 h10 m-236 -10 v20 m246 0 v-20 m-246 20 v24 m246 0 v-24 m-246 24 q0 10 10 10 m226 0 q10 0 10 -10 m-236 10 h10 m168 0 h10 m0 0 h38 m23 -88 h-3"></path>
<polygon points="295 17 303 13 303 21"></polygon>
<polygon points="295 17 287 13 287 21"></polygon></svg>