<svg height="53" width="225" xmlns="http://www.w3.org/2000/svg"><style>svg {
  font-family: ui-monospace, SFMono-Regular, Menlo, Monaco, Consolas, "Liberation Mono", "Courier New", monospace;
}
text {
  fill: #2f3337;
  font-size: 14px;
}
rect {
  fill: #ffffff;
  stroke: #3a3d40;
  stroke-width: 2;
}
rect.terminal {
  fill: #ffffff;
}
rect.nonterminal {
  fill: #ffffff;
}
text.terminal {
  fill: #2f3337;
  font-weight: 600;
}
text.nonterminal {
  fill: #2563eb;
}
a text.nonterminal {
  text-decoration: underline;
}
path.line {
  fill: none;
  stroke: #3a3d40;
  stroke-width: 2;
}
polygon {
  fill: #2f3337;
  stroke: #2f3337;
}</style>
<polygon points="9 33 1 29 1 37"></polygon>
<polygon points="17 33 9 29 9 37"></polygon>
<rect height="32" rx="10" width="24" x="51" y="19"></rect>
<rect class="terminal" height="32" rx="10" width="24" x="49" y="17"></rect>
<text class="terminal" x="59" y="37">.</text>
<rect height="32" rx="10" width="82" x="95" y="19"></rect>
<rect class="terminal" height="32" rx="10" width="82" x="93" y="17"></rect>
<text class="terminal" x="103" y="37">identifier</text>
<path class="line" d="m17 33 h2 m20 0 h10 m24 0 h10 m0 0 h10 m82 0 h10 m-166 0 l20 0 m-1 0 q-9 0 -9 -10 l0 -12 q0 -10 10 -10 m146 32 l20 0 m-20 0 q10 0 10 -10 l0 -12 q0 -10 -10 -10 m-146 0 h10 m0 0 h136 m23 32 h-3"></path>
<polygon points="215 33 223 29 223 37"></polygon>
<polygon points="215 33 207 29 207 37"></polygon></svg>