<svg height="37" width="389" xmlns="http://www.w3.org/2000/svg"><style>svg {
  font-family: ui-monospace, SFMono-Regular, Menlo, Monaco, Consolas, "Liberation Mono", "Courier New", monospace;
}
text {
  fill: #2f3337;
  font-size: 14px;
}
rect {
  fill: #ffffff;
  stroke: #3a3d40;
  stroke-width: 2;
}
rect.terminal {
  fill: #ffffff;
}
rect.nonterminal {
  fill: #ffffff;
}
text.terminal {
  fill: #2f3337;
  font-weight: 600;
}
text.nonterminal {
  fill: #2563eb;
}
a text.nonterminal {
  text-decoration: underline;
}
path.line {
  fill: none;
  stroke: #3a3d40;
  stroke-width: 2;
}
polygon {
  fill: #2f3337;
  stroke: #2f3337;
}</style>
<polygon points="9 17 1 13 1 21"></polygon>
<polygon points="17 17 9 13 9 21"></polygon>
<rect height="32" rx="10" width="44" x="31" y="3"></rect>
<rect class="terminal" height="32" rx="10" width="44" x="29" y="1"></rect>
<text class="terminal" x="39" y="21">SET</text>
<rect height="32" rx="10" width="168" x="95" y="3"></rect>
<rect class="terminal" height="32" rx="10" width="168" x="93" y="1"></rect>
<text class="terminal" x="103" y="21">GENERATED_ALWAYS</text>
<rect height="32" rx="10" width="78" x="283" y="3"></rect>
<rect class="terminal" height="32" rx="10" width="78" x="281" y="1"></rect>
<text class="terminal" x="291" y="21">ALWAYS</text>
<path class="line" d="m17 17 h2 m0 0 h10 m44 0 h10 m0 0 h10 m168 0 h10 m0 0 h10 m78 0 h10 m3 0 h-3"></path>
<polygon points="379 17 387 13 387 21"></polygon>
<polygon points="379 17 371 13 371 21"></polygon></svg>