<svg height="57" width="171" xmlns="http://www.w3.org/2000/svg"><style>svg {
  font-family: ui-monospace, SFMono-Regular, Menlo, Monaco, Consolas, "Liberation Mono", "Courier New", monospace;
}
text {
  fill: #2f3337;
  font-size: 14px;
}
rect {
  fill: #ffffff;
  stroke: #3a3d40;
  stroke-width: 2;
}
rect.terminal {
  fill: #ffffff;
}
rect.nonterminal {
  fill: #ffffff;
}
text.terminal {
  fill: #2f3337;
  font-weight: 600;
}
text.nonterminal {
  fill: #2563eb;
}
a text.nonterminal {
  text-decoration: underline;
}
path.line {
  fill: none;
  stroke: #3a3d40;
  stroke-width: 2;
}
polygon {
  fill: #2f3337;
  stroke: #2f3337;
}</style>
<polygon points="9 5 1 1 1 9"></polygon>
<polygon points="17 5 9 1 9 9"></polygon>
<rect height="32" rx="10" width="26" x="51" y="23"></rect>
<rect class="terminal" height="32" rx="10" width="26" x="49" y="21"></rect>
<text class="terminal" x="59" y="41">[</text>
<rect height="32" rx="10" width="26" x="97" y="23"></rect>
<rect class="terminal" height="32" rx="10" width="26" x="95" y="21"></rect>
<text class="terminal" x="105" y="41">]</text>
<path class="line" d="m17 5 h2 m20 0 h10 m0 0 h82 m-112 0 h20 m92 0 h20 m-132 0 q10 0 10 10 m112 0 q0 -10 10 -10 m-122 10 v12 m112 0 v-12 m-112 12 q0 10 10 10 m92 0 q10 0 10 -10 m-102 10 h10 m26 0 h10 m0 0 h10 m26 0 h10 m23 -32 h-3"></path>
<polygon points="161 5 169 1 169 9"></polygon>
<polygon points="161 5 153 1 153 9"></polygon></svg>