<svg height="103" width="707" xmlns="http://www.w3.org/2000/svg" xmlns:xlink="http://www.w3.org/1999/xlink"><style>svg {
  font-family: ui-monospace, SFMono-Regular, Menlo, Monaco, Consolas, "Liberation Mono", "Courier New", monospace;
}
text {
  fill: #2f3337;
  font-size: 14px;
}
rect {
  fill: #ffffff;
  stroke: #3a3d40;
  stroke-width: 2;
}
rect.terminal {
  fill: #ffffff;
}
rect.nonterminal {
  fill: #ffffff;
}
text.terminal {
  fill: #2f3337;
  font-weight: 600;
}
text.nonterminal {
  fill: #2563eb;
}
a text.nonterminal {
  text-decoration: underline;
}
path.line {
  fill: none;
  stroke: #3a3d40;
  stroke-width: 2;
}
polygon {
  fill: #2f3337;
  stroke: #2f3337;
}</style>
<polygon points="9 17 1 13 1 21"></polygon>
<polygon points="17 17 9 13 9 21"></polygon>
<rect height="32" rx="10" width="62" x="31" y="3"></rect>
<rect class="terminal" height="32" rx="10" width="62" x="29" y="1"></rect>
<text class="terminal" x="39" y="21">ALTER</text>
<rect height="32" rx="10" width="92" x="113" y="3"></rect>
<rect class="terminal" height="32" rx="10" width="92" x="111" y="1"></rect>
<text class="terminal" x="121" y="21">DATABASE</text><a xlink:href="#database_name" xlink:title="database_name">
<rect height="32" width="124" x="225" y="3"></rect>
<rect class="nonterminal" height="32" width="124" x="223" y="1"></rect>
<text lengthAdjust="spacingAndGlyphs" textLength="100" font-size="12" class="nonterminal" x="235" y="21">database_name</text></a><rect height="32" rx="10" width="84" x="369" y="3"></rect>
<rect class="terminal" height="32" rx="10" width="84" x="367" y="1"></rect>
<text class="terminal" x="377" y="21">CONVERT</text>
<rect height="32" rx="10" width="38" x="473" y="3"></rect>
<rect class="terminal" height="32" rx="10" width="38" x="471" y="1"></rect>
<text class="terminal" x="481" y="21">TO</text>
<rect height="32" rx="10" width="76" x="531" y="3"></rect>
<rect class="terminal" height="32" rx="10" width="76" x="529" y="1"></rect>
<text class="terminal" x="539" y="21">SCHEMA</text>
<rect height="32" rx="10" width="58" x="627" y="3"></rect>
<rect class="terminal" height="32" rx="10" width="58" x="625" y="1"></rect>
<text class="terminal" x="635" y="21">WITH</text>
<rect height="32" rx="10" width="74" x="461" y="69"></rect>
<rect class="terminal" height="32" rx="10" width="74" x="459" y="67"></rect>
<text class="terminal" x="469" y="87">PARENT</text><a xlink:href="#database_name" xlink:title="database_name">
<rect height="32" width="124" x="555" y="69"></rect>
<rect class="nonterminal" height="32" width="124" x="553" y="67"></rect>
<text lengthAdjust="spacingAndGlyphs" textLength="100" font-size="12" class="nonterminal" x="565" y="87">database_name</text></a><path class="line" d="m17 17 h2 m0 0 h10 m62 0 h10 m0 0 h10 m92 0 h10 m0 0 h10 m124 0 h10 m0 0 h10 m84 0 h10 m0 0 h10 m38 0 h10 m0 0 h10 m76 0 h10 m0 0 h10 m58 0 h10 m2 0 l2 0 m2 0 l2 0 m2 0 l2 0 m-268 66 l2 0 m2 0 l2 0 m2 0 l2 0 m2 0 h10 m74 0 h10 m0 0 h10 m124 0 h10 m3 0 h-3"></path>
<polygon points="697 83 705 79 705 87"></polygon>
<polygon points="697 83 689 79 689 87"></polygon></svg>