<svg height="125" width="459" xmlns="http://www.w3.org/2000/svg" xmlns:xlink="http://www.w3.org/1999/xlink"><style>svg {
  font-family: ui-monospace, SFMono-Regular, Menlo, Monaco, Consolas, "Liberation Mono", "Courier New", monospace;
}
text {
  fill: #2f3337;
  font-size: 14px;
}
rect {
  fill: #ffffff;
  stroke: #3a3d40;
  stroke-width: 2;
}
rect.terminal {
  fill: #ffffff;
}
rect.nonterminal {
  fill: #ffffff;
}
text.terminal {
  fill: #2f3337;
  font-weight: 600;
}
text.nonterminal {
  fill: #2563eb;
}
a text.nonterminal {
  text-decoration: underline;
}
path.line {
  fill: none;
  stroke: #3a3d40;
  stroke-width: 2;
}
polygon {
  fill: #2f3337;
  stroke: #2f3337;
}</style>
<polygon points="9 17 1 13 1 21"></polygon>
<polygon points="17 17 9 13 9 21"></polygon>
<rect height="32" rx="10" width="92" x="71" y="3"></rect>
<rect class="terminal" height="32" rx="10" width="92" x="69" y="1"></rect>
<text class="terminal" x="79" y="21">TRANSFER</text>
<rect height="32" rx="10" width="54" x="71" y="47"></rect>
<rect class="terminal" height="32" rx="10" width="54" x="69" y="45"></rect>
<text class="terminal" x="79" y="65">TIME</text>
<rect height="32" rx="10" width="30" x="203" y="3"></rect>
<rect class="terminal" height="32" rx="10" width="30" x="201" y="1"></rect>
<text class="terminal" x="211" y="21">=</text><a xlink:href="#string_or_placeholder" xlink:title="string_or_placeholder">
<rect height="32" width="158" x="253" y="3"></rect>
<rect class="nonterminal" height="32" width="158" x="251" y="1"></rect>
<text lengthAdjust="spacingAndGlyphs" textLength="134" font-size="10" class="nonterminal" x="263" y="21">string_or_placeholder</text></a><rect height="32" rx="10" width="130" x="51" y="91"></rect>
<rect class="terminal" height="32" rx="10" width="130" x="49" y="89"></rect>
<text class="terminal" x="59" y="109">CONCURRENTLY</text>
<rect height="32" rx="10" width="30" x="201" y="91"></rect>
<rect class="terminal" height="32" rx="10" width="30" x="199" y="89"></rect>
<text class="terminal" x="209" y="109">=</text><a xlink:href="#a_expr" xlink:title="a_expr">
<rect height="32" width="64" x="251" y="91"></rect>
<rect class="nonterminal" height="32" width="64" x="249" y="89"></rect>
<text lengthAdjust="spacingAndGlyphs" textLength="40" font-size="10" class="nonterminal" x="261" y="109">a_expr</text></a><path class="line" d="m17 17 h2 m40 0 h10 m92 0 h10 m-132 0 h20 m112 0 h20 m-152 0 q10 0 10 10 m132 0 q0 -10 10 -10 m-142 10 v24 m132 0 v-24 m-132 24 q0 10 10 10 m112 0 q10 0 10 -10 m-122 10 h10 m54 0 h10 m0 0 h38 m20 -44 h10 m30 0 h10 m0 0 h10 m158 0 h10 m-400 0 h20 m380 0 h20 m-420 0 q10 0 10 10 m400 0 q0 -10 10 -10 m-410 10 v68 m400 0 v-68 m-400 68 q0 10 10 10 m380 0 q10 0 10 -10 m-390 10 h10 m130 0 h10 m0 0 h10 m30 0 h10 m0 0 h10 m64 0 h10 m0 0 h96 m23 -88 h-3"></path>
<polygon points="449 17 457 13 457 21"></polygon>
<polygon points="449 17 441 13 441 21"></polygon></svg>