<svg height="69" width="707" xmlns="http://www.w3.org/2000/svg" xmlns:xlink="http://www.w3.org/1999/xlink"><style>svg {
  font-family: ui-monospace, SFMono-Regular, Menlo, Monaco, Consolas, "Liberation Mono", "Courier New", monospace;
}
text {
  fill: #2f3337;
  font-size: 14px;
}
rect {
  fill: #ffffff;
  stroke: #3a3d40;
  stroke-width: 2;
}
rect.terminal {
  fill: #ffffff;
}
rect.nonterminal {
  fill: #ffffff;
}
text.terminal {
  fill: #2f3337;
  font-weight: 600;
}
text.nonterminal {
  fill: #2563eb;
}
a text.nonterminal {
  text-decoration: underline;
}
path.line {
  fill: none;
  stroke: #3a3d40;
  stroke-width: 2;
}
polygon {
  fill: #2f3337;
  stroke: #2f3337;
}</style>
<polygon points="9 17 1 13 1 21"></polygon>
<polygon points="17 17 9 13 9 21"></polygon>
<rect height="32" rx="10" width="62" x="31" y="3"></rect>
<rect class="terminal" height="32" rx="10" width="62" x="29" y="1"></rect>
<text class="terminal" x="39" y="21">ALTER</text>
<rect height="32" rx="10" width="64" x="113" y="3"></rect>
<rect class="terminal" height="32" rx="10" width="64" x="111" y="1"></rect>
<text class="terminal" x="121" y="21">INDEX</text>
<rect height="32" rx="10" width="34" x="217" y="35"></rect>
<rect class="terminal" height="32" rx="10" width="34" x="215" y="33"></rect>
<text class="terminal" x="225" y="53">IF</text>
<rect height="32" rx="10" width="70" x="271" y="35"></rect>
<rect class="terminal" height="32" rx="10" width="70" x="269" y="33"></rect>
<text class="terminal" x="279" y="53">EXISTS</text><a xlink:href="#table_index_name" xlink:title="table_index_name">
<rect height="32" width="138" x="381" y="3"></rect>
<rect class="nonterminal" height="32" width="138" x="379" y="1"></rect>
<text lengthAdjust="spacingAndGlyphs" textLength="114" font-size="11" class="nonterminal" x="391" y="21">table_index_name</text></a><a xlink:href="#alter_index_visible" xlink:title="alter_index_visible">
<rect height="32" width="140" x="539" y="3"></rect>
<rect class="nonterminal" height="32" width="140" x="537" y="1"></rect>
<text lengthAdjust="spacingAndGlyphs" textLength="116" font-size="10" class="nonterminal" x="549" y="21">alter_index_visible</text></a><path class="line" d="m17 17 h2 m0 0 h10 m62 0 h10 m0 0 h10 m64 0 h10 m20 0 h10 m0 0 h134 m-164 0 h20 m144 0 h20 m-184 0 q10 0 10 10 m164 0 q0 -10 10 -10 m-174 10 v12 m164 0 v-12 m-164 12 q0 10 10 10 m144 0 q10 0 10 -10 m-154 10 h10 m34 0 h10 m0 0 h10 m70 0 h10 m20 -32 h10 m138 0 h10 m0 0 h10 m140 0 h10 m3 0 h-3"></path>
<polygon points="697 17 705 13 705 21"></polygon>
<polygon points="697 17 689 13 689 21"></polygon></svg>