<svg height="125" width="429" xmlns="http://www.w3.org/2000/svg" xmlns:xlink="http://www.w3.org/1999/xlink"><style>svg {
  font-family: ui-monospace, SFMono-Regular, Menlo, Monaco, Consolas, "Liberation Mono", "Courier New", monospace;
}
text {
  fill: #2f3337;
  font-size: 14px;
}
rect {
  fill: #ffffff;
  stroke: #3a3d40;
  stroke-width: 2;
}
rect.terminal {
  fill: #ffffff;
}
rect.nonterminal {
  fill: #ffffff;
}
text.terminal {
  fill: #2f3337;
  font-weight: 600;
}
text.nonterminal {
  fill: #2563eb;
}
a text.nonterminal {
  text-decoration: underline;
}
path.line {
  fill: none;
  stroke: #3a3d40;
  stroke-width: 2;
}
polygon {
  fill: #2f3337;
  stroke: #2f3337;
}</style>
<polygon points="9 17 1 13 1 21"></polygon>
<polygon points="17 17 9 13 9 21"></polygon><a xlink:href="#func_expr_windowless" xlink:title="func_expr_windowless">
<rect height="32" width="162" x="51" y="3"></rect>
<rect class="nonterminal" height="32" width="162" x="49" y="1"></rect>
<text lengthAdjust="spacingAndGlyphs" textLength="138" font-size="11" class="nonterminal" x="61" y="21">func_expr_windowless</text></a><rect height="32" rx="10" width="26" x="51" y="47"></rect>
<rect class="terminal" height="32" rx="10" width="26" x="49" y="45"></rect>
<text class="terminal" x="59" y="65">(</text><a xlink:href="#a_expr" xlink:title="a_expr">
<rect height="32" width="64" x="97" y="47"></rect>
<rect class="nonterminal" height="32" width="64" x="95" y="45"></rect>
<text lengthAdjust="spacingAndGlyphs" textLength="40" font-size="10" class="nonterminal" x="107" y="65">a_expr</text></a><rect height="32" rx="10" width="26" x="181" y="47"></rect>
<rect class="terminal" height="32" rx="10" width="26" x="179" y="45"></rect>
<text class="terminal" x="189" y="65">)</text><a xlink:href="#name" xlink:title="name">
<rect height="32" width="56" x="51" y="91"></rect>
<rect class="nonterminal" height="32" width="56" x="49" y="89"></rect>
<text lengthAdjust="spacingAndGlyphs" textLength="32" font-size="12" class="nonterminal" x="61" y="109">name</text></a><a xlink:href="#index_elem_options" xlink:title="index_elem_options">
<rect height="32" width="148" x="253" y="3"></rect>
<rect class="nonterminal" height="32" width="148" x="251" y="1"></rect>
<text lengthAdjust="spacingAndGlyphs" textLength="124" font-size="11" class="nonterminal" x="263" y="21">index_elem_options</text></a><path class="line" d="m17 17 h2 m20 0 h10 m162 0 h10 m-202 0 h20 m182 0 h20 m-222 0 q10 0 10 10 m202 0 q0 -10 10 -10 m-212 10 v24 m202 0 v-24 m-202 24 q0 10 10 10 m182 0 q10 0 10 -10 m-192 10 h10 m26 0 h10 m0 0 h10 m64 0 h10 m0 0 h10 m26 0 h10 m0 0 h6 m-192 -10 v20 m202 0 v-20 m-202 20 v24 m202 0 v-24 m-202 24 q0 10 10 10 m182 0 q10 0 10 -10 m-192 10 h10 m56 0 h10 m0 0 h106 m20 -88 h10 m148 0 h10 m3 0 h-3"></path>
<polygon points="419 17 427 13 427 21"></polygon>
<polygon points="419 17 411 13 411 21"></polygon></svg>