<svg height="169" width="433" xmlns="http://www.w3.org/2000/svg"><style>svg {
  font-family: ui-monospace, SFMono-Regular, Menlo, Monaco, Consolas, "Liberation Mono", "Courier New", monospace;
}
text {
  fill: #2f3337;
  font-size: 14px;
}
rect {
  fill: #ffffff;
  stroke: #3a3d40;
  stroke-width: 2;
}
rect.terminal {
  fill: #ffffff;
}
rect.nonterminal {
  fill: #ffffff;
}
text.terminal {
  fill: #2f3337;
  font-weight: 600;
}
text.nonterminal {
  fill: #2563eb;
}
a text.nonterminal {
  text-decoration: underline;
}
path.line {
  fill: none;
  stroke: #3a3d40;
  stroke-width: 2;
}
polygon {
  fill: #2f3337;
  stroke: #2f3337;
}</style>
<polygon points="9 17 1 13 1 21"></polygon>
<polygon points="17 17 9 13 9 21"></polygon>
<rect height="32" rx="10" width="64" x="31" y="3"></rect>
<rect class="terminal" height="32" rx="10" width="64" x="29" y="1"></rect>
<text class="terminal" x="39" y="21">PAUSE</text>
<rect height="32" rx="10" width="44" x="115" y="3"></rect>
<rect class="terminal" height="32" rx="10" width="44" x="113" y="1"></rect>
<text class="terminal" x="123" y="21">ALL</text>
<rect height="32" rx="10" width="74" x="199" y="3"></rect>
<rect class="terminal" height="32" rx="10" width="74" x="197" y="1"></rect>
<text class="terminal" x="207" y="21">BACKUP</text>
<rect height="32" rx="10" width="110" x="199" y="47"></rect>
<rect class="terminal" height="32" rx="10" width="110" x="197" y="45"></rect>
<text class="terminal" x="207" y="65">CHANGEFEED</text>
<rect height="32" rx="10" width="82" x="199" y="91"></rect>
<rect class="terminal" height="32" rx="10" width="82" x="197" y="89"></rect>
<text class="terminal" x="207" y="109">RESTORE</text>
<rect height="32" rx="10" width="76" x="199" y="135"></rect>
<rect class="terminal" height="32" rx="10" width="76" x="197" y="133"></rect>
<text class="terminal" x="207" y="153">IMPORT</text>
<rect height="32" rx="10" width="56" x="349" y="3"></rect>
<rect class="terminal" height="32" rx="10" width="56" x="347" y="1"></rect>
<text class="terminal" x="357" y="21">JOBS</text>
<path class="line" d="m17 17 h2 m0 0 h10 m64 0 h10 m0 0 h10 m44 0 h10 m20 0 h10 m74 0 h10 m0 0 h36 m-150 0 h20 m130 0 h20 m-170 0 q10 0 10 10 m150 0 q0 -10 10 -10 m-160 10 v24 m150 0 v-24 m-150 24 q0 10 10 10 m130 0 q10 0 10 -10 m-140 10 h10 m110 0 h10 m-140 -10 v20 m150 0 v-20 m-150 20 v24 m150 0 v-24 m-150 24 q0 10 10 10 m130 0 q10 0 10 -10 m-140 10 h10 m82 0 h10 m0 0 h28 m-140 -10 v20 m150 0 v-20 m-150 20 v24 m150 0 v-24 m-150 24 q0 10 10 10 m130 0 q10 0 10 -10 m-140 10 h10 m76 0 h10 m0 0 h34 m20 -132 h10 m56 0 h10 m3 0 h-3"></path>
<polygon points="423 17 431 13 431 21"></polygon>
<polygon points="423 17 415 13 415 21"></polygon></svg>