<svg height="857" width="723" xmlns="http://www.w3.org/2000/svg" xmlns:xlink="http://www.w3.org/1999/xlink"><style>svg {
  font-family: ui-monospace, SFMono-Regular, Menlo, Monaco, Consolas, "Liberation Mono", "Courier New", monospace;
}
text {
  fill: #2f3337;
  font-size: 14px;
}
rect {
  fill: #ffffff;
  stroke: #3a3d40;
  stroke-width: 2;
}
rect.terminal {
  fill: #ffffff;
}
rect.nonterminal {
  fill: #ffffff;
}
text.terminal {
  fill: #2f3337;
  font-weight: 600;
}
text.nonterminal {
  fill: #2563eb;
}
a text.nonterminal {
  text-decoration: underline;
}
path.line {
  fill: none;
  stroke: #3a3d40;
  stroke-width: 2;
}
polygon {
  fill: #2f3337;
  stroke: #2f3337;
}</style>
<polygon points="9 17 1 13 1 21"></polygon>
<polygon points="17 17 9 13 9 21"></polygon>
<rect height="32" rx="10" width="72" x="31" y="3"></rect>
<rect class="terminal" height="32" rx="10" width="72" x="29" y="1"></rect>
<text class="terminal" x="39" y="21">CREATE</text>
<rect height="32" rx="10" width="40" x="143" y="35"></rect>
<rect class="terminal" height="32" rx="10" width="40" x="141" y="33"></rect>
<text class="terminal" x="151" y="53">OR</text>
<rect height="32" rx="10" width="80" x="203" y="35"></rect>
<rect class="terminal" height="32" rx="10" width="80" x="201" y="33"></rect>
<text class="terminal" x="211" y="53">REPLACE</text>
<rect height="32" rx="10" width="92" x="323" y="3"></rect>
<rect class="terminal" height="32" rx="10" width="92" x="321" y="1"></rect>
<text class="terminal" x="331" y="21">FUNCTION</text><a xlink:href="/docs/v24.3/sql-grammar#routine_create_name" xlink:title="routine_create_name">
<rect height="32" width="156" x="435" y="3"></rect>
<rect class="nonterminal" height="32" width="156" x="433" y="1"></rect>
<text lengthAdjust="spacingAndGlyphs" textLength="132" font-size="11" class="nonterminal" x="445" y="21">routine_create_name</text></a><rect height="32" rx="10" width="26" x="611" y="3"></rect>
<rect class="terminal" height="32" rx="10" width="26" x="609" y="1"></rect>
<text class="terminal" x="619" y="21">(</text><a xlink:href="/docs/v24.3/sql-grammar#routine_param" xlink:title="routine_param">
<rect height="32" width="114" x="65" y="145"></rect>
<rect class="nonterminal" height="32" width="114" x="63" y="143"></rect>
<text lengthAdjust="spacingAndGlyphs" textLength="90" font-size="11" class="nonterminal" x="75" y="163">routine_param</text></a><rect height="32" rx="10" width="24" x="65" y="101"></rect>
<rect class="terminal" height="32" rx="10" width="24" x="63" y="99"></rect>
<text class="terminal" x="73" y="119">,</text>
<rect height="32" rx="10" width="26" x="239" y="145"></rect>
<rect class="terminal" height="32" rx="10" width="26" x="237" y="143"></rect>
<text class="terminal" x="247" y="163">)</text>
<rect height="32" rx="10" width="84" x="305" y="177"></rect>
<rect class="terminal" height="32" rx="10" width="84" x="303" y="175"></rect>
<text class="terminal" x="313" y="195">RETURNS</text>
<rect height="32" rx="10" width="64" x="429" y="209"></rect>
<rect class="terminal" height="32" rx="10" width="64" x="427" y="207"></rect>
<text class="terminal" x="437" y="227">SETOF</text><a xlink:href="/docs/v24.3/sql-grammar#routine_return_type" xlink:title="routine_return_type">
<rect height="32" width="148" x="533" y="177"></rect>
<rect class="nonterminal" height="32" width="148" x="531" y="175"></rect>
<text lengthAdjust="spacingAndGlyphs" textLength="124" font-size="10" class="nonterminal" x="543" y="195">routine_return_type</text></a><rect height="32" rx="10" width="38" x="215" y="291"></rect>
<rect class="terminal" height="32" rx="10" width="38" x="213" y="289"></rect>
<text class="terminal" x="223" y="309">AS</text>
<rect height="32" width="130" x="273" y="291"></rect>
<rect class="nonterminal" height="32" width="130" x="271" y="289"></rect>
<text lengthAdjust="spacingAndGlyphs" textLength="106" font-size="10" class="nonterminal" x="283" y="309">routine_body_str</text><rect height="32" rx="10" width="94" x="215" y="335"></rect>
<rect class="terminal" height="32" rx="10" width="94" x="213" y="333"></rect>
<text class="terminal" x="223" y="353">LANGUAGE</text>
<rect height="32" rx="10" width="48" x="349" y="335"></rect>
<rect class="terminal" height="32" rx="10" width="48" x="347" y="333"></rect>
<text class="terminal" x="357" y="353">SQL</text>
<rect height="32" rx="10" width="84" x="349" y="379"></rect>
<rect class="terminal" height="32" rx="10" width="84" x="347" y="377"></rect>
<text class="terminal" x="357" y="397">PLPGSQL</text>
<rect height="32" rx="10" width="72" x="235" y="423"></rect>
<rect class="terminal" height="32" rx="10" width="72" x="233" y="421"></rect>
<text class="terminal" x="243" y="441">CALLED</text>
<rect height="32" rx="10" width="84" x="235" y="467"></rect>
<rect class="terminal" height="32" rx="10" width="84" x="233" y="465"></rect>
<text class="terminal" x="243" y="485">RETURNS</text>
<rect height="32" rx="10" width="56" x="339" y="467"></rect>
<rect class="terminal" height="32" rx="10" width="56" x="337" y="465"></rect>
<text class="terminal" x="347" y="485">NULL</text>
<rect height="32" rx="10" width="40" x="435" y="423"></rect>
<rect class="terminal" height="32" rx="10" width="40" x="433" y="421"></rect>
<text class="terminal" x="443" y="441">ON</text>
<rect height="32" rx="10" width="56" x="495" y="423"></rect>
<rect class="terminal" height="32" rx="10" width="56" x="493" y="421"></rect>
<text class="terminal" x="503" y="441">NULL</text>
<rect height="32" rx="10" width="64" x="571" y="423"></rect>
<rect class="terminal" height="32" rx="10" width="64" x="569" y="421"></rect>
<text class="terminal" x="579" y="441">INPUT</text>
<rect height="32" rx="10" width="70" x="215" y="511"></rect>
<rect class="terminal" height="32" rx="10" width="70" x="213" y="509"></rect>
<text class="terminal" x="223" y="529">STRICT</text>
<rect height="32" rx="10" width="102" x="215" y="555"></rect>
<rect class="terminal" height="32" rx="10" width="102" x="213" y="553"></rect>
<text class="terminal" x="223" y="573">IMMUTABLE</text>
<rect height="32" rx="10" width="72" x="215" y="599"></rect>
<rect class="terminal" height="32" rx="10" width="72" x="213" y="597"></rect>
<text class="terminal" x="223" y="617">STABLE</text>
<rect height="32" rx="10" width="88" x="215" y="643"></rect>
<rect class="terminal" height="32" rx="10" width="88" x="213" y="641"></rect>
<text class="terminal" x="223" y="661">VOLATILE</text>
<rect height="32" rx="10" width="90" x="235" y="719"></rect>
<rect class="terminal" height="32" rx="10" width="90" x="233" y="717"></rect>
<text class="terminal" x="243" y="737">EXTERNAL</text>
<rect height="32" rx="10" width="88" x="365" y="687"></rect>
<rect class="terminal" height="32" rx="10" width="88" x="363" y="685"></rect>
<text class="terminal" x="373" y="705">SECURITY</text>
<rect height="32" rx="10" width="80" x="493" y="687"></rect>
<rect class="terminal" height="32" rx="10" width="80" x="491" y="685"></rect>
<text class="terminal" x="501" y="705">DEFINER</text>
<rect height="32" rx="10" width="84" x="493" y="731"></rect>
<rect class="terminal" height="32" rx="10" width="84" x="491" y="729"></rect>
<text class="terminal" x="501" y="749">INVOKER</text>
<rect height="32" rx="10" width="48" x="235" y="807"></rect>
<rect class="terminal" height="32" rx="10" width="48" x="233" y="805"></rect>
<text class="terminal" x="243" y="825">NOT</text>
<rect height="32" rx="10" width="102" x="323" y="775"></rect>
<rect class="terminal" height="32" rx="10" width="102" x="321" y="773"></rect>
<text class="terminal" x="331" y="793">LEAKPROOF</text>
<path class="line" d="m17 17 h2 m0 0 h10 m72 0 h10 m20 0 h10 m0 0 h150 m-180 0 h20 m160 0 h20 m-200 0 q10 0 10 10 m180 0 q0 -10 10 -10 m-190 10 v12 m180 0 v-12 m-180 12 q0 10 10 10 m160 0 q10 0 10 -10 m-170 10 h10 m40 0 h10 m0 0 h10 m80 0 h10 m20 -32 h10 m92 0 h10 m0 0 h10 m156 0 h10 m0 0 h10 m26 0 h10 m2 0 l2 0 m2 0 l2 0 m2 0 l2 0 m-656 142 l2 0 m2 0 l2 0 m2 0 l2 0 m42 0 h10 m114 0 h10 m-154 0 l20 0 m-1 0 q-9 0 -9 -10 l0 -24 q0 -10 10 -10 m134 44 l20 0 m-20 0 q10 0 10 -10 l0 -24 q0 -10 -10 -10 m-134 0 h10 m24 0 h10 m0 0 h90 m-174 44 h20 m174 0 h20 m-214 0 q10 0 10 10 m194 0 q0 -10 10 -10 m-204 10 v14 m194 0 v-14 m-194 14 q0 10 10 10 m174 0 q10 0 10 -10 m-184 10 h10 m0 0 h164 m20 -34 h10 m26 0 h10 m20 0 h10 m0 0 h386 m-416 0 h20 m396 0 h20 m-436 0 q10 0 10 10 m416 0 q0 -10 10 -10 m-426 10 v12 m416 0 v-12 m-416 12 q0 10 10 10 m396 0 q10 0 10 -10 m-406 10 h10 m84 0 h10 m20 0 h10 m0 0 h74 m-104 0 h20 m84 0 h20 m-124 0 q10 0 10 10 m104 0 q0 -10 10 -10 m-114 10 v12 m104 0 v-12 m-104 12 q0 10 10 10 m84 0 q10 0 10 -10 m-94 10 h10 m64 0 h10 m20 -32 h10 m148 0 h10 m22 -32 l2 0 m2 0 l2 0 m2 0 l2 0 m-590 146 l2 0 m2 0 l2 0 m2 0 l2 0 m62 0 h10 m38 0 h10 m0 0 h10 m130 0 h10 m0 0 h232 m-460 0 h20 m440 0 h20 m-480 0 q10 0 10 10 m460 0 q0 -10 10 -10 m-470 10 v24 m460 0 v-24 m-460 24 q0 10 10 10 m440 0 q10 0 10 -10 m-450 10 h10 m94 0 h10 m20 0 h10 m48 0 h10 m0 0 h36 m-124 0 h20 m104 0 h20 m-144 0 q10 0 10 10 m124 0 q0 -10 10 -10 m-134 10 v24 m124 0 v-24 m-124 24 q0 10 10 10 m104 0 q10 0 10 -10 m-114 10 h10 m84 0 h10 m20 -44 h182 m-450 -10 v20 m460 0 v-20 m-460 20 v68 m460 0 v-68 m-460 68 q0 10 10 10 m440 0 q10 0 10 -10 m-430 10 h10 m72 0 h10 m0 0 h88 m-200 0 h20 m180 0 h20 m-220 0 q10 0 10 10 m200 0 q0 -10 10 -10 m-210 10 v24 m200 0 v-24 m-200 24 q0 10 10 10 m180 0 q10 0 10 -10 m-190 10 h10 m84 0 h10 m0 0 h10 m56 0 h10 m20 -44 h10 m40 0 h10 m0 0 h10 m56 0 h10 m0 0 h10 m64 0 h10 m-450 -10 v20 m460 0 v-20 m-460 20 v68 m460 0 v-68 m-460 68 q0 10 10 10 m440 0 q10 0 10 -10 m-450 10 h10 m70 0 h10 m0 0 h350 m-450 -10 v20 m460 0 v-20 m-460 20 v24 m460 0 v-24 m-460 24 q0 10 10 10 m440 0 q10 0 10 -10 m-450 10 h10 m102 0 h10 m0 0 h318 m-450 -10 v20 m460 0 v-20 m-460 20 v24 m460 0 v-24 m-460 24 q0 10 10 10 m440 0 q10 0 10 -10 m-450 10 h10 m72 0 h10 m0 0 h348 m-450 -10 v20 m460 0 v-20 m-460 20 v24 m460 0 v-24 m-460 24 q0 10 10 10 m440 0 q10 0 10 -10 m-450 10 h10 m88 0 h10 m0 0 h332 m-450 -10 v20 m460 0 v-20 m-460 20 v24 m460 0 v-24 m-460 24 q0 10 10 10 m440 0 q10 0 10 -10 m-430 10 h10 m0 0 h100 m-130 0 h20 m110 0 h20 m-150 0 q10 0 10 10 m130 0 q0 -10 10 -10 m-140 10 v12 m130 0 v-12 m-130 12 q0 10 10 10 m110 0 q10 0 10 -10 m-120 10 h10 m90 0 h10 m20 -32 h10 m88 0 h10 m20 0 h10 m80 0 h10 m0 0 h4 m-124 0 h20 m104 0 h20 m-144 0 q10 0 10 10 m124 0 q0 -10 10 -10 m-134 10 v24 m124 0 v-24 m-124 24 q0 10 10 10 m104 0 q10 0 10 -10 m-114 10 h10 m84 0 h10 m20 -44 h38 m-450 -10 v20 m460 0 v-20 m-460 20 v68 m460 0 v-68 m-460 68 q0 10 10 10 m440 0 q10 0 10 -10 m-430 10 h10 m0 0 h58 m-88 0 h20 m68 0 h20 m-108 0 q10 0 10 10 m88 0 q0 -10 10 -10 m-98 10 v12 m88 0 v-12 m-88 12 q0 10 10 10 m68 0 q10 0 10 -10 m-78 10 h10 m48 0 h10 m20 -32 h10 m102 0 h10 m0 0 h210 m-480 -484 l20 0 m-1 0 q-9 0 -9 -10 l0 -12 q0 -10 10 -10 m480 32 l20 0 m-20 0 q10 0 10 -10 l0 -12 q0 -10 -10 -10 m-480 0 h10 m0 0 h470 m-520 32 h20 m520 0 h20 m-560 0 q10 0 10 10 m540 0 q0 -10 10 -10 m-550 10 v530 m540 0 v-530 m-540 530 q0 10 10 10 m520 0 q10 0 10 -10 m-530 10 h10 m0 0 h510 m23 -550 h-3"></path>
<polygon points="713 305 721 301 721 309"></polygon>
<polygon points="713 305 705 301 705 309"></polygon></svg>