<svg xmlns="http://www.w3.org/2000/svg" version="1.1" width="750" height="92">
<path d="M 18.082031 71.213379 Q 18.500977 71.320801 18.796387 71.618896 Q 19.091797 71.916992 19.532227 72.808594 L 20.622559 75.000000 L 19.457031 75.000000 L 18.500977 72.975098 Q 18.087402 72.110352 17.757080 71.860596 Q 17.426758 71.610840 16.895020 71.610840 L 15.858398 71.610840 L 15.858398 75.000000 L 14.768066 75.000000 L 14.768066 66.980957 L 17.002441 66.980957 Q 18.323730 66.980957 19.027344 67.577148 Q 19.730957 68.173340 19.730957 69.301270 Q 19.730957 70.096191 19.298584 70.598389 Q 18.866211 71.100586 18.082031 71.213379 Z M 15.858398 67.872559 L 15.858398 70.719238 L 17.045410 70.719238 Q 17.824219 70.719238 18.205566 70.370117 Q 18.586914 70.020996 18.586914 69.301270 Q 18.586914 68.608398 18.181396 68.240479 Q 17.775879 67.872559 17.002441 67.872559 Z " fill="rgb(0, 0, 0)" fill-opacity="1.000000" />
<path d="M 27.015625 71.498047 L 27.015625 71.981445 L 22.734863 71.981445 L 22.734863 72.013672 Q 22.691895 73.243652 23.204834 73.780762 Q 23.717773 74.317871 24.652344 74.317871 Q 25.125000 74.317871 25.640625 74.167480 Q 26.156250 74.017090 26.741699 73.710938 L 26.741699 74.693848 Q 26.177734 74.924805 25.654053 75.040283 Q 25.130371 75.155762 24.641602 75.155762 Q 23.239746 75.155762 22.450195 74.315186 Q 21.660645 73.474609 21.660645 71.997559 Q 21.660645 70.558105 22.434082 69.698730 Q 23.207520 68.839355 24.496582 68.839355 Q 25.645996 68.839355 26.309326 69.618164 Q 26.972656 70.396973 27.015625 71.498047 Z M 26.027344 71.208008 Q 25.962891 70.584961 25.573486 70.131104 Q 25.184082 69.677246 24.453613 69.677246 Q 23.739258 69.677246 23.277344 70.149902 Q 22.815430 70.622559 22.772461 71.213379 Z " fill="rgb(0, 0, 0)" fill-opacity="1.000000" />
<path d="M 31.297852 67.276367 L 31.297852 68.984375 L 33.542969 68.984375 L 33.542969 69.752441 L 31.297852 69.752441 L 31.297852 73.018066 Q 31.297852 73.684082 31.550293 73.947266 Q 31.802734 74.210449 32.431152 74.210449 L 33.542969 74.210449 L 33.542969 75.000000 L 32.334473 75.000000 Q 31.222656 75.000000 30.766113 74.554199 Q 30.309570 74.108398 30.309570 73.018066 L 30.309570 69.752441 L 28.703613 69.752441 L 28.703613 68.984375 L 30.309570 68.984375 L 30.309570 67.276367 Z " fill="rgb(0, 0, 0)" fill-opacity="1.000000" />
<path d="M 38.770508 71.976074 L 38.442871 71.976074 Q 37.578125 71.976074 37.140381 72.279541 Q 36.702637 72.583008 36.702637 73.184570 Q 36.702637 73.727051 37.030273 74.027832 Q 37.357910 74.328613 37.937988 74.328613 Q 38.754395 74.328613 39.221680 73.761963 Q 39.688965 73.195312 39.694336 72.196289 L 39.694336 71.976074 Z M 40.687988 71.567871 L 40.687988 75.000000 L 39.694336 75.000000 L 39.694336 74.108398 Q 39.377441 74.645508 38.896729 74.900635 Q 38.416016 75.155762 37.728516 75.155762 Q 36.810059 75.155762 36.262207 74.637451 Q 35.714355 74.119141 35.714355 73.249023 Q 35.714355 72.244629 36.388428 71.723633 Q 37.062500 71.202637 38.367676 71.202637 L 39.694336 71.202637 L 39.694336 71.046875 Q 39.688965 70.327148 39.329102 70.002197 Q 38.969238 69.677246 38.179688 69.677246 Q 37.674805 69.677246 37.159180 69.822266 Q 36.643555 69.967285 36.154785 70.246582 L 36.154785 69.258301 Q 36.702637 69.048828 37.204834 68.944092 Q 37.707031 68.839355 38.179688 68.839355 Q 38.926270 68.839355 39.455322 69.059570 Q 39.984375 69.279785 40.312012 69.720215 Q 40.516113 69.988770 40.602051 70.383545 Q 40.687988 70.778320 40.687988 71.567871 Z " fill="rgb(0, 0, 0)" fill-opacity="1.000000" />
<path d="M 43.697266 69.005859 L 46.227051 69.005859 L 46.227051 74.231934 L 48.187500 74.231934 L 48.187500 75.000000 L 43.278320 75.000000 L 43.278320 74.231934 L 45.238770 74.231934 L 45.238770 69.773926 L 43.697266 69.773926 Z M 45.238770 66.669434 L 46.227051 66.669434 L 46.227051 67.915527 L 45.238770 67.915527 Z " fill="rgb(0, 0, 0)" fill-opacity="1.000000" />
<path d="M 54.645020 71.272461 L 54.645020 75.000000 L 53.651367 75.000000 L 53.651367 71.272461 Q 53.651367 70.461426 53.366699 70.080078 Q 53.082031 69.698730 52.475098 69.698730 Q 51.782227 69.698730 51.408936 70.190186 Q 51.035645 70.681641 51.035645 71.600098 L 51.035645 75.000000 L 50.047363 75.000000 L 50.047363 68.984375 L 51.035645 68.984375 L 51.035645 69.886719 Q 51.298828 69.371094 51.750000 69.105225 Q 52.201172 68.839355 52.818848 68.839355 Q 53.737305 68.839355 54.191162 69.443604 Q 54.645020 70.047852 54.645020 71.272461 Z " fill="rgb(0, 0, 0)" fill-opacity="1.000000" />
<path d="M 62.015625 71.498047 L 62.015625 71.981445 L 57.734863 71.981445 L 57.734863 72.013672 Q 57.691895 73.243652 58.204834 73.780762 Q 58.717773 74.317871 59.652344 74.317871 Q 60.125000 74.317871 60.640625 74.167480 Q 61.156250 74.017090 61.741699 73.710938 L 61.741699 74.693848 Q 61.177734 74.924805 60.654053 75.040283 Q 60.130371 75.155762 59.641602 75.155762 Q 58.239746 75.155762 57.450195 74.315186 Q 56.660645 73.474609 56.660645 71.997559 Q 56.660645 70.558105 57.434082 69.698730 Q 58.207520 68.839355 59.496582 68.839355 Q 60.645996 68.839355 61.309326 69.618164 Q 61.972656 70.396973 62.015625 71.498047 Z M 61.027344 71.208008 Q 60.962891 70.584961 60.573486 70.131104 Q 60.184082 69.677246 59.453613 69.677246 Q 58.739258 69.677246 58.277344 70.149902 Q 57.815430 70.622559 57.772461 71.213379 Z " fill="rgb(0, 0, 0)" fill-opacity="1.000000" />
<path d="M 67.608398 69.752441 L 67.608398 66.642578 L 68.596680 66.642578 L 68.596680 75.000000 L 67.608398 75.000000 L 67.608398 74.242676 Q 67.361328 74.688477 66.950439 74.922119 Q 66.539551 75.155762 66.002441 75.155762 Q 64.912109 75.155762 64.286377 74.309814 Q 63.660645 73.463867 63.660645 71.976074 Q 63.660645 70.509766 64.289062 69.674561 Q 64.917480 68.839355 66.002441 68.839355 Q 66.544922 68.839355 66.958496 69.072998 Q 67.372070 69.306641 67.608398 69.752441 Z M 64.702637 71.997559 Q 64.702637 73.146973 65.067871 73.732422 Q 65.433105 74.317871 66.147461 74.317871 Q 66.861816 74.317871 67.235107 73.727051 Q 67.608398 73.136230 67.608398 71.997559 Q 67.608398 70.853516 67.235107 70.265381 Q 66.861816 69.677246 66.147461 69.677246 Q 65.433105 69.677246 65.067871 70.262695 Q 64.702637 70.848145 64.702637 71.997559 Z " fill="rgb(0, 0, 0)" fill-opacity="1.000000" />
<path d="M 80.297852 67.276367 L 80.297852 68.984375 L 82.542969 68.984375 L 82.542969 69.752441 L 80.297852 69.752441 L 80.297852 73.018066 Q 80.297852 73.684082 80.550293 73.947266 Q 80.802734 74.210449 81.431152 74.210449 L 82.542969 74.210449 L 82.542969 75.000000 L 81.334473 75.000000 Q 80.222656 75.000000 79.766113 74.554199 Q 79.309570 74.108398 79.309570 73.018066 L 79.309570 69.752441 L 77.703613 69.752441 L 77.703613 68.984375 L 79.309570 68.984375 L 79.309570 67.276367 Z " fill="rgb(0, 0, 0)" fill-opacity="1.000000" />
<path d="M 85.697266 69.005859 L 88.227051 69.005859 L 88.227051 74.231934 L 90.187500 74.231934 L 90.187500 75.000000 L 85.278320 75.000000 L 85.278320 74.231934 L 87.238770 74.231934 L 87.238770 69.773926 L 85.697266 69.773926 Z M 87.238770 66.669434 L 88.227051 66.669434 L 88.227051 67.915527 L 87.238770 67.915527 Z " fill="rgb(0, 0, 0)" fill-opacity="1.000000" />
<path d="M 94.630859 69.596680 Q 94.813477 69.209961 95.095459 69.024658 Q 95.377441 68.839355 95.774902 68.839355 Q 96.500000 68.839355 96.798096 69.400635 Q 97.096191 69.961914 97.096191 71.514160 L 97.096191 75.000000 L 96.193848 75.000000 L 96.193848 71.557129 Q 96.193848 70.284180 96.051514 69.975342 Q 95.909180 69.666504 95.533203 69.666504 Q 95.103516 69.666504 94.945068 69.996826 Q 94.786621 70.327148 94.786621 71.557129 L 94.786621 75.000000 L 93.884277 75.000000 L 93.884277 71.557129 Q 93.884277 70.268066 93.731201 69.967285 Q 93.578125 69.666504 93.180664 69.666504 Q 92.788574 69.666504 92.635498 69.996826 Q 92.482422 70.327148 92.482422 71.557129 L 92.482422 75.000000 L 91.585449 75.000000 L 91.585449 68.984375 L 92.482422 68.984375 L 92.482422 69.500000 Q 92.659668 69.177734 92.925537 69.008545 Q 93.191406 68.839355 93.529785 68.839355 Q 93.937988 68.839355 94.209229 69.027344 Q 94.480469 69.215332 94.630859 69.596680 Z " fill="rgb(0, 0, 0)" fill-opacity="1.000000" />
<path d="M 104.015625 71.498047 L 104.015625 71.981445 L 99.734863 71.981445 L 99.734863 72.013672 Q 99.691895 73.243652 100.204834 73.780762 Q 100.717773 74.317871 101.652344 74.317871 Q 102.125000 74.317871 102.640625 74.167480 Q 103.156250 74.017090 103.741699 73.710938 L 103.741699 74.693848 Q 103.177734 74.924805 102.654053 75.040283 Q 102.130371 75.155762 101.641602 75.155762 Q 100.239746 75.155762 99.450195 74.315186 Q 98.660645 73.474609 98.660645 71.997559 Q 98.660645 70.558105 99.434082 69.698730 Q 100.207520 68.839355 101.496582 68.839355 Q 102.645996 68.839355 103.309326 69.618164 Q 103.972656 70.396973 104.015625 71.498047 Z M 103.027344 71.208008 Q 102.962891 70.584961 102.573486 70.131104 Q 102.184082 69.677246 101.453613 69.677246 Q 100.739258 69.677246 100.277344 70.149902 Q 99.815430 70.622559 99.772461 71.213379 Z " fill="rgb(0, 0, 0)" fill-opacity="1.000000" />
<path d="M 361.082031 71.213379 Q 361.500977 71.320801 361.796387 71.618896 Q 362.091797 71.916992 362.532227 72.808594 L 363.622559 75.000000 L 362.457031 75.000000 L 361.500977 72.975098 Q 361.087402 72.110352 360.757080 71.860596 Q 360.426758 71.610840 359.895020 71.610840 L 358.858398 71.610840 L 358.858398 75.000000 L 357.768066 75.000000 L 357.768066 66.980957 L 360.002441 66.980957 Q 361.323730 66.980957 362.027344 67.577148 Q 362.730957 68.173340 362.730957 69.301270 Q 362.730957 70.096191 362.298584 70.598389 Q 361.866211 71.100586 361.082031 71.213379 Z M 358.858398 67.872559 L 358.858398 70.719238 L 360.045410 70.719238 Q 360.824219 70.719238 361.205566 70.370117 Q 361.586914 70.020996 361.586914 69.301270 Q 361.586914 68.608398 361.181396 68.240479 Q 360.775879 67.872559 360.002441 67.872559 Z " fill="rgb(0, 0, 0)" fill-opacity="1.000000" />
<path d="M 370.015625 71.498047 L 370.015625 71.981445 L 365.734863 71.981445 L 365.734863 72.013672 Q 365.691895 73.243652 366.204834 73.780762 Q 366.717773 74.317871 367.652344 74.317871 Q 368.125000 74.317871 368.640625 74.167480 Q 369.156250 74.017090 369.741699 73.710938 L 369.741699 74.693848 Q 369.177734 74.924805 368.654053 75.040283 Q 368.130371 75.155762 367.641602 75.155762 Q 366.239746 75.155762 365.450195 74.315186 Q 364.660645 73.474609 364.660645 71.997559 Q 364.660645 70.558105 365.434082 69.698730 Q 366.207520 68.839355 367.496582 68.839355 Q 368.645996 68.839355 369.309326 69.618164 Q 369.972656 70.396973 370.015625 71.498047 Z M 369.027344 71.208008 Q 368.962891 70.584961 368.573486 70.131104 Q 368.184082 69.677246 367.453613 69.677246 Q 366.739258 69.677246 366.277344 70.149902 Q 365.815430 70.622559 365.772461 71.213379 Z " fill="rgb(0, 0, 0)" fill-opacity="1.000000" />
<path d="M 373.014160 74.242676 L 373.014160 77.288086 L 372.020508 77.288086 L 372.020508 68.984375 L 373.014160 68.984375 L 373.014160 69.752441 Q 373.261230 69.306641 373.672119 69.072998 Q 374.083008 68.839355 374.620117 68.839355 Q 375.710449 68.839355 376.330811 69.682617 Q 376.951172 70.525879 376.951172 72.019043 Q 376.951172 73.485352 376.328125 74.320557 Q 375.705078 75.155762 374.620117 75.155762 Q 374.072266 75.155762 373.661377 74.922119 Q 373.250488 74.688477 373.014160 74.242676 Z M 375.914551 71.997559 Q 375.914551 70.848145 375.552002 70.262695 Q 375.189453 69.677246 374.475098 69.677246 Q 373.755371 69.677246 373.384766 70.265381 Q 373.014160 70.853516 373.014160 71.997559 Q 373.014160 73.136230 373.384766 73.727051 Q 373.755371 74.317871 374.475098 74.317871 Q 375.189453 74.317871 375.552002 73.732422 Q 375.914551 73.146973 375.914551 71.997559 Z " fill="rgb(0, 0, 0)" fill-opacity="1.000000" />
<path d="M 381.861816 72.824707 Q 381.861816 73.490723 382.106201 73.829102 Q 382.350586 74.167480 382.828613 74.167480 L 383.983398 74.167480 L 383.983398 75.000000 L 382.731934 75.000000 Q 381.845703 75.000000 381.359619 74.433350 Q 380.873535 73.866699 380.873535 72.824707 L 380.873535 67.383789 L 379.289062 67.383789 L 379.289062 66.610352 L 381.861816 66.610352 Z " fill="rgb(0, 0, 0)" fill-opacity="1.000000" />
<path d="M 386.697266 69.005859 L 389.227051 69.005859 L 389.227051 74.231934 L 391.187500 74.231934 L 391.187500 75.000000 L 386.278320 75.000000 L 386.278320 74.231934 L 388.238770 74.231934 L 388.238770 69.773926 L 386.697266 69.773926 Z M 388.238770 66.669434 L 389.227051 66.669434 L 389.227051 67.915527 L 388.238770 67.915527 Z " fill="rgb(0, 0, 0)" fill-opacity="1.000000" />
<path d="M 397.698730 74.693848 Q 397.301270 74.924805 396.879639 75.040283 Q 396.458008 75.155762 396.017578 75.155762 Q 394.621094 75.155762 393.834229 74.317871 Q 393.047363 73.479980 393.047363 71.997559 Q 393.047363 70.515137 393.834229 69.677246 Q 394.621094 68.839355 396.017578 68.839355 Q 396.452637 68.839355 396.866211 68.952148 Q 397.279785 69.064941 397.698730 69.301270 L 397.698730 70.337891 Q 397.306641 69.988770 396.911865 69.833008 Q 396.517090 69.677246 396.017578 69.677246 Q 395.088379 69.677246 394.588867 70.278809 Q 394.089355 70.880371 394.089355 71.997559 Q 394.089355 73.109375 394.591553 73.713623 Q 395.093750 74.317871 396.017578 74.317871 Q 396.533203 74.317871 396.941406 74.159424 Q 397.349609 74.000977 397.698730 73.667969 Z " fill="rgb(0, 0, 0)" fill-opacity="1.000000" />
<path d="M 402.770508 71.976074 L 402.442871 71.976074 Q 401.578125 71.976074 401.140381 72.279541 Q 400.702637 72.583008 400.702637 73.184570 Q 400.702637 73.727051 401.030273 74.027832 Q 401.357910 74.328613 401.937988 74.328613 Q 402.754395 74.328613 403.221680 73.761963 Q 403.688965 73.195312 403.694336 72.196289 L 403.694336 71.976074 Z M 404.687988 71.567871 L 404.687988 75.000000 L 403.694336 75.000000 L 403.694336 74.108398 Q 403.377441 74.645508 402.896729 74.900635 Q 402.416016 75.155762 401.728516 75.155762 Q 400.810059 75.155762 400.262207 74.637451 Q 399.714355 74.119141 399.714355 73.249023 Q 399.714355 72.244629 400.388428 71.723633 Q 401.062500 71.202637 402.367676 71.202637 L 403.694336 71.202637 L 403.694336 71.046875 Q 403.688965 70.327148 403.329102 70.002197 Q 402.969238 69.677246 402.179688 69.677246 Q 401.674805 69.677246 401.159180 69.822266 Q 400.643555 69.967285 400.154785 70.246582 L 400.154785 69.258301 Q 400.702637 69.048828 401.204834 68.944092 Q 401.707031 68.839355 402.179688 68.839355 Q 402.926270 68.839355 403.455322 69.059570 Q 403.984375 69.279785 404.312012 69.720215 Q 404.516113 69.988770 404.602051 70.383545 Q 404.687988 70.778320 404.687988 71.567871 Z " fill="rgb(0, 0, 0)" fill-opacity="1.000000" />
<path d="M 409.297852 67.276367 L 409.297852 68.984375 L 411.542969 68.984375 L 411.542969 69.752441 L 409.297852 69.752441 L 409.297852 73.018066 Q 409.297852 73.684082 409.550293 73.947266 Q 409.802734 74.210449 410.431152 74.210449 L 411.542969 74.210449 L 411.542969 75.000000 L 410.334473 75.000000 Q 409.222656 75.000000 408.766113 74.554199 Q 408.309570 74.108398 408.309570 73.018066 L 408.309570 69.752441 L 406.703613 69.752441 L 406.703613 68.984375 L 408.309570 68.984375 L 408.309570 67.276367 Z " fill="rgb(0, 0, 0)" fill-opacity="1.000000" />
<path d="M 419.015625 71.498047 L 419.015625 71.981445 L 414.734863 71.981445 L 414.734863 72.013672 Q 414.691895 73.243652 415.204834 73.780762 Q 415.717773 74.317871 416.652344 74.317871 Q 417.125000 74.317871 417.640625 74.167480 Q 418.156250 74.017090 418.741699 73.710938 L 418.741699 74.693848 Q 418.177734 74.924805 417.654053 75.040283 Q 417.130371 75.155762 416.641602 75.155762 Q 415.239746 75.155762 414.450195 74.315186 Q 413.660645 73.474609 413.660645 71.997559 Q 413.660645 70.558105 414.434082 69.698730 Q 415.207520 68.839355 416.496582 68.839355 Q 417.645996 68.839355 418.309326 69.618164 Q 418.972656 70.396973 419.015625 71.498047 Z M 418.027344 71.208008 Q 417.962891 70.584961 417.573486 70.131104 Q 417.184082 69.677246 416.453613 69.677246 Q 415.739258 69.677246 415.277344 70.149902 Q 414.815430 70.622559 414.772461 71.213379 Z " fill="rgb(0, 0, 0)" fill-opacity="1.000000" />
<path d="M 424.608398 69.752441 L 424.608398 66.642578 L 425.596680 66.642578 L 425.596680 75.000000 L 424.608398 75.000000 L 424.608398 74.242676 Q 424.361328 74.688477 423.950439 74.922119 Q 423.539551 75.155762 423.002441 75.155762 Q 421.912109 75.155762 421.286377 74.309814 Q 420.660645 73.463867 420.660645 71.976074 Q 420.660645 70.509766 421.289062 69.674561 Q 421.917480 68.839355 423.002441 68.839355 Q 423.544922 68.839355 423.958496 69.072998 Q 424.372070 69.306641 424.608398 69.752441 Z M 421.702637 71.997559 Q 421.702637 73.146973 422.067871 73.732422 Q 422.433105 74.317871 423.147461 74.317871 Q 423.861816 74.317871 424.235107 73.727051 Q 424.608398 73.136230 424.608398 71.997559 Q 424.608398 70.853516 424.235107 70.265381 Q 423.861816 69.677246 423.147461 69.677246 Q 422.433105 69.677246 422.067871 70.262695 Q 421.702637 70.848145 421.702637 71.997559 Z " fill="rgb(0, 0, 0)" fill-opacity="1.000000" />
<path d="M 437.297852 67.276367 L 437.297852 68.984375 L 439.542969 68.984375 L 439.542969 69.752441 L 437.297852 69.752441 L 437.297852 73.018066 Q 437.297852 73.684082 437.550293 73.947266 Q 437.802734 74.210449 438.431152 74.210449 L 439.542969 74.210449 L 439.542969 75.000000 L 438.334473 75.000000 Q 437.222656 75.000000 436.766113 74.554199 Q 436.309570 74.108398 436.309570 73.018066 L 436.309570 69.752441 L 434.703613 69.752441 L 434.703613 68.984375 L 436.309570 68.984375 L 436.309570 67.276367 Z " fill="rgb(0, 0, 0)" fill-opacity="1.000000" />
<path d="M 442.697266 69.005859 L 445.227051 69.005859 L 445.227051 74.231934 L 447.187500 74.231934 L 447.187500 75.000000 L 442.278320 75.000000 L 442.278320 74.231934 L 444.238770 74.231934 L 444.238770 69.773926 L 442.697266 69.773926 Z M 444.238770 66.669434 L 445.227051 66.669434 L 445.227051 67.915527 L 444.238770 67.915527 Z " fill="rgb(0, 0, 0)" fill-opacity="1.000000" />
<path d="M 451.630859 69.596680 Q 451.813477 69.209961 452.095459 69.024658 Q 452.377441 68.839355 452.774902 68.839355 Q 453.500000 68.839355 453.798096 69.400635 Q 454.096191 69.961914 454.096191 71.514160 L 454.096191 75.000000 L 453.193848 75.000000 L 453.193848 71.557129 Q 453.193848 70.284180 453.051514 69.975342 Q 452.909180 69.666504 452.533203 69.666504 Q 452.103516 69.666504 451.945068 69.996826 Q 451.786621 70.327148 451.786621 71.557129 L 451.786621 75.000000 L 450.884277 75.000000 L 450.884277 71.557129 Q 450.884277 70.268066 450.731201 69.967285 Q 450.578125 69.666504 450.180664 69.666504 Q 449.788574 69.666504 449.635498 69.996826 Q 449.482422 70.327148 449.482422 71.557129 L 449.482422 75.000000 L 448.585449 75.000000 L 448.585449 68.984375 L 449.482422 68.984375 L 449.482422 69.500000 Q 449.659668 69.177734 449.925537 69.008545 Q 450.191406 68.839355 450.529785 68.839355 Q 450.937988 68.839355 451.209229 69.027344 Q 451.480469 69.215332 451.630859 69.596680 Z " fill="rgb(0, 0, 0)" fill-opacity="1.000000" />
<path d="M 461.015625 71.498047 L 461.015625 71.981445 L 456.734863 71.981445 L 456.734863 72.013672 Q 456.691895 73.243652 457.204834 73.780762 Q 457.717773 74.317871 458.652344 74.317871 Q 459.125000 74.317871 459.640625 74.167480 Q 460.156250 74.017090 460.741699 73.710938 L 460.741699 74.693848 Q 460.177734 74.924805 459.654053 75.040283 Q 459.130371 75.155762 458.641602 75.155762 Q 457.239746 75.155762 456.450195 74.315186 Q 455.660645 73.474609 455.660645 71.997559 Q 455.660645 70.558105 456.434082 69.698730 Q 457.207520 68.839355 458.496582 68.839355 Q 459.645996 68.839355 460.309326 69.618164 Q 460.972656 70.396973 461.015625 71.498047 Z M 460.027344 71.208008 Q 459.962891 70.584961 459.573486 70.131104 Q 459.184082 69.677246 458.453613 69.677246 Q 457.739258 69.677246 457.277344 70.149902 Q 456.815430 70.622559 456.772461 71.213379 Z " fill="rgb(0, 0, 0)" fill-opacity="1.000000" />
<path d="M 598.308594 67.937012 L 597.164551 72.040527 L 599.452637 72.040527 Z M 597.653320 66.980957 L 598.969238 66.980957 L 601.423828 75.000000 L 600.301270 75.000000 L 599.710449 72.910645 L 596.901367 72.910645 L 596.321289 75.000000 L 595.198730 75.000000 Z " fill="rgb(0, 0, 0)" fill-opacity="1.000000" />
<path d="M 607.698730 74.693848 Q 607.301270 74.924805 606.879639 75.040283 Q 606.458008 75.155762 606.017578 75.155762 Q 604.621094 75.155762 603.834229 74.317871 Q 603.047363 73.479980 603.047363 71.997559 Q 603.047363 70.515137 603.834229 69.677246 Q 604.621094 68.839355 606.017578 68.839355 Q 606.452637 68.839355 606.866211 68.952148 Q 607.279785 69.064941 607.698730 69.301270 L 607.698730 70.337891 Q 607.306641 69.988770 606.911865 69.833008 Q 606.517090 69.677246 606.017578 69.677246 Q 605.088379 69.677246 604.588867 70.278809 Q 604.089355 70.880371 604.089355 71.997559 Q 604.089355 73.109375 604.591553 73.713623 Q 605.093750 74.317871 606.017578 74.317871 Q 606.533203 74.317871 606.941406 74.159424 Q 607.349609 74.000977 607.698730 73.667969 Z " fill="rgb(0, 0, 0)" fill-opacity="1.000000" />
<path d="M 612.297852 67.276367 L 612.297852 68.984375 L 614.542969 68.984375 L 614.542969 69.752441 L 612.297852 69.752441 L 612.297852 73.018066 Q 612.297852 73.684082 612.550293 73.947266 Q 612.802734 74.210449 613.431152 74.210449 L 614.542969 74.210449 L 614.542969 75.000000 L 613.334473 75.000000 Q 612.222656 75.000000 611.766113 74.554199 Q 611.309570 74.108398 611.309570 73.018066 L 611.309570 69.752441 L 609.703613 69.752441 L 609.703613 68.984375 L 611.309570 68.984375 L 611.309570 67.276367 Z " fill="rgb(0, 0, 0)" fill-opacity="1.000000" />
<path d="M 617.047363 72.722656 L 617.047363 68.995117 L 618.035645 68.995117 L 618.035645 72.722656 Q 618.035645 73.533691 618.322998 73.915039 Q 618.610352 74.296387 619.211914 74.296387 Q 619.910156 74.296387 620.280762 73.804932 Q 620.651367 73.313477 620.651367 72.395020 L 620.651367 68.995117 L 621.645020 68.995117 L 621.645020 75.000000 L 620.651367 75.000000 L 620.651367 74.097656 Q 620.388184 74.618652 619.934326 74.887207 Q 619.480469 75.155762 618.873535 75.155762 Q 617.949707 75.155762 617.498535 74.551514 Q 617.047363 73.947266 617.047363 72.722656 Z " fill="rgb(0, 0, 0)" fill-opacity="1.000000" />
<path d="M 626.770508 71.976074 L 626.442871 71.976074 Q 625.578125 71.976074 625.140381 72.279541 Q 624.702637 72.583008 624.702637 73.184570 Q 624.702637 73.727051 625.030273 74.027832 Q 625.357910 74.328613 625.937988 74.328613 Q 626.754395 74.328613 627.221680 73.761963 Q 627.688965 73.195312 627.694336 72.196289 L 627.694336 71.976074 Z M 628.687988 71.567871 L 628.687988 75.000000 L 627.694336 75.000000 L 627.694336 74.108398 Q 627.377441 74.645508 626.896729 74.900635 Q 626.416016 75.155762 625.728516 75.155762 Q 624.810059 75.155762 624.262207 74.637451 Q 623.714355 74.119141 623.714355 73.249023 Q 623.714355 72.244629 624.388428 71.723633 Q 625.062500 71.202637 626.367676 71.202637 L 627.694336 71.202637 L 627.694336 71.046875 Q 627.688965 70.327148 627.329102 70.002197 Q 626.969238 69.677246 626.179688 69.677246 Q 625.674805 69.677246 625.159180 69.822266 Q 624.643555 69.967285 624.154785 70.246582 L 624.154785 69.258301 Q 624.702637 69.048828 625.204834 68.944092 Q 625.707031 68.839355 626.179688 68.839355 Q 626.926270 68.839355 627.455322 69.059570 Q 627.984375 69.279785 628.312012 69.720215 Q 628.516113 69.988770 628.602051 70.383545 Q 628.687988 70.778320 628.687988 71.567871 Z " fill="rgb(0, 0, 0)" fill-opacity="1.000000" />
<path d="M 633.861816 72.824707 Q 633.861816 73.490723 634.106201 73.829102 Q 634.350586 74.167480 634.828613 74.167480 L 635.983398 74.167480 L 635.983398 75.000000 L 634.731934 75.000000 Q 633.845703 75.000000 633.359619 74.433350 Q 632.873535 73.866699 632.873535 72.824707 L 632.873535 67.383789 L 631.289062 67.383789 L 631.289062 66.610352 L 633.861816 66.610352 Z " fill="rgb(0, 0, 0)" fill-opacity="1.000000" />
<path d="M 647.297852 67.276367 L 647.297852 68.984375 L 649.542969 68.984375 L 649.542969 69.752441 L 647.297852 69.752441 L 647.297852 73.018066 Q 647.297852 73.684082 647.550293 73.947266 Q 647.802734 74.210449 648.431152 74.210449 L 649.542969 74.210449 L 649.542969 75.000000 L 648.334473 75.000000 Q 647.222656 75.000000 646.766113 74.554199 Q 646.309570 74.108398 646.309570 73.018066 L 646.309570 69.752441 L 644.703613 69.752441 L 644.703613 68.984375 L 646.309570 68.984375 L 646.309570 67.276367 Z " fill="rgb(0, 0, 0)" fill-opacity="1.000000" />
<path d="M 652.697266 69.005859 L 655.227051 69.005859 L 655.227051 74.231934 L 657.187500 74.231934 L 657.187500 75.000000 L 652.278320 75.000000 L 652.278320 74.231934 L 654.238770 74.231934 L 654.238770 69.773926 L 652.697266 69.773926 Z M 654.238770 66.669434 L 655.227051 66.669434 L 655.227051 67.915527 L 654.238770 67.915527 Z " fill="rgb(0, 0, 0)" fill-opacity="1.000000" />
<path d="M 661.630859 69.596680 Q 661.813477 69.209961 662.095459 69.024658 Q 662.377441 68.839355 662.774902 68.839355 Q 663.500000 68.839355 663.798096 69.400635 Q 664.096191 69.961914 664.096191 71.514160 L 664.096191 75.000000 L 663.193848 75.000000 L 663.193848 71.557129 Q 663.193848 70.284180 663.051514 69.975342 Q 662.909180 69.666504 662.533203 69.666504 Q 662.103516 69.666504 661.945068 69.996826 Q 661.786621 70.327148 661.786621 71.557129 L 661.786621 75.000000 L 660.884277 75.000000 L 660.884277 71.557129 Q 660.884277 70.268066 660.731201 69.967285 Q 660.578125 69.666504 660.180664 69.666504 Q 659.788574 69.666504 659.635498 69.996826 Q 659.482422 70.327148 659.482422 71.557129 L 659.482422 75.000000 L 658.585449 75.000000 L 658.585449 68.984375 L 659.482422 68.984375 L 659.482422 69.500000 Q 659.659668 69.177734 659.925537 69.008545 Q 660.191406 68.839355 660.529785 68.839355 Q 660.937988 68.839355 661.209229 69.027344 Q 661.480469 69.215332 661.630859 69.596680 Z " fill="rgb(0, 0, 0)" fill-opacity="1.000000" />
<path d="M 671.015625 71.498047 L 671.015625 71.981445 L 666.734863 71.981445 L 666.734863 72.013672 Q 666.691895 73.243652 667.204834 73.780762 Q 667.717773 74.317871 668.652344 74.317871 Q 669.125000 74.317871 669.640625 74.167480 Q 670.156250 74.017090 670.741699 73.710938 L 670.741699 74.693848 Q 670.177734 74.924805 669.654053 75.040283 Q 669.130371 75.155762 668.641602 75.155762 Q 667.239746 75.155762 666.450195 74.315186 Q 665.660645 73.474609 665.660645 71.997559 Q 665.660645 70.558105 666.434082 69.698730 Q 667.207520 68.839355 668.496582 68.839355 Q 669.645996 68.839355 670.309326 69.618164 Q 670.972656 70.396973 671.015625 71.498047 Z M 670.027344 71.208008 Q 669.962891 70.584961 669.573486 70.131104 Q 669.184082 69.677246 668.453613 69.677246 Q 667.739258 69.677246 667.277344 70.149902 Q 666.815430 70.622559 666.772461 71.213379 Z " fill="rgb(0, 0, 0)" fill-opacity="1.000000" />
<path d="M 45.308594 62.418945 L 42.032227 55.866211 L 48.590332 55.866211 Z " fill="rgb(105, 51, 255)" fill-opacity="1.000000" />
<path d="M 409.308594 62.418945 L 406.032227 55.866211 L 412.590332 55.866211 Z " fill="rgb(105, 51, 255)" fill-opacity="1.000000" />
<path d="M 633.308594 62.418945 L 630.032227 55.866211 L 636.590332 55.866211 Z " fill="rgb(105, 51, 255)" fill-opacity="1.000000" />
<path d="M 34.892578 46.335938 L 34.892578 45.412109 L 41.729980 45.412109 L 41.729980 46.335938 Z " fill="rgb(0, 0, 0)" fill-opacity="1.000000" />
<path d="M 44.878906 52.319336 L 44.878906 38.300781 L 45.738281 38.300781 L 45.738281 52.319336 Z " fill="rgb(105, 51, 255)" fill-opacity="1.000000" />
<path d="M 48.892578 46.335938 L 48.892578 45.412109 L 55.729980 45.412109 L 55.729980 46.335938 Z " fill="rgb(0, 0, 0)" fill-opacity="1.000000" />
<path d="M 62.892578 46.335938 L 62.892578 45.412109 L 69.729980 45.412109 L 69.729980 46.335938 Z " fill="rgb(0, 0, 0)" fill-opacity="1.000000" />
<path d="M 76.892578 46.335938 L 76.892578 45.412109 L 83.729980 45.412109 L 83.729980 46.335938 Z " fill="rgb(0, 0, 0)" fill-opacity="1.000000" />
<path d="M 90.892578 46.335938 L 90.892578 45.412109 L 97.729980 45.412109 L 97.729980 46.335938 Z " fill="rgb(0, 0, 0)" fill-opacity="1.000000" />
<path d="M 104.892578 46.335938 L 104.892578 45.412109 L 111.729980 45.412109 L 111.729980 46.335938 Z " fill="rgb(0, 0, 0)" fill-opacity="1.000000" />
<path d="M 118.892578 46.335938 L 118.892578 45.412109 L 125.729980 45.412109 L 125.729980 46.335938 Z " fill="rgb(0, 0, 0)" fill-opacity="1.000000" />
<path d="M 132.892578 46.335938 L 132.892578 45.412109 L 139.729980 45.412109 L 139.729980 46.335938 Z " fill="rgb(0, 0, 0)" fill-opacity="1.000000" />
<path d="M 146.892578 46.335938 L 146.892578 45.412109 L 153.729980 45.412109 L 153.729980 46.335938 Z " fill="rgb(0, 0, 0)" fill-opacity="1.000000" />
<path d="M 160.892578 46.335938 L 160.892578 45.412109 L 167.729980 45.412109 L 167.729980 46.335938 Z " fill="rgb(0, 0, 0)" fill-opacity="1.000000" />
<path d="M 174.892578 46.335938 L 174.892578 45.412109 L 181.729980 45.412109 L 181.729980 46.335938 Z " fill="rgb(0, 0, 0)" fill-opacity="1.000000" />
<path d="M 188.892578 46.335938 L 188.892578 45.412109 L 195.729980 45.412109 L 195.729980 46.335938 Z " fill="rgb(0, 0, 0)" fill-opacity="1.000000" />
<path d="M 202.892578 46.335938 L 202.892578 45.412109 L 209.729980 45.412109 L 209.729980 46.335938 Z " fill="rgb(0, 0, 0)" fill-opacity="1.000000" />
<path d="M 216.892578 46.335938 L 216.892578 45.412109 L 223.729980 45.412109 L 223.729980 46.335938 Z " fill="rgb(0, 0, 0)" fill-opacity="1.000000" />
<path d="M 230.892578 46.335938 L 230.892578 45.412109 L 237.729980 45.412109 L 237.729980 46.335938 Z " fill="rgb(0, 0, 0)" fill-opacity="1.000000" />
<path d="M 244.892578 46.335938 L 244.892578 45.412109 L 251.729980 45.412109 L 251.729980 46.335938 Z " fill="rgb(0, 0, 0)" fill-opacity="1.000000" />
<path d="M 258.892578 46.335938 L 258.892578 45.412109 L 265.729980 45.412109 L 265.729980 46.335938 Z " fill="rgb(0, 0, 0)" fill-opacity="1.000000" />
<path d="M 272.892578 46.335938 L 272.892578 45.412109 L 279.729980 45.412109 L 279.729980 46.335938 Z " fill="rgb(0, 0, 0)" fill-opacity="1.000000" />
<path d="M 286.892578 46.335938 L 286.892578 45.412109 L 293.729980 45.412109 L 293.729980 46.335938 Z " fill="rgb(0, 0, 0)" fill-opacity="1.000000" />
<path d="M 300.892578 46.335938 L 300.892578 45.412109 L 307.729980 45.412109 L 307.729980 46.335938 Z " fill="rgb(0, 0, 0)" fill-opacity="1.000000" />
<path d="M 314.892578 46.335938 L 314.892578 45.412109 L 321.729980 45.412109 L 321.729980 46.335938 Z " fill="rgb(0, 0, 0)" fill-opacity="1.000000" />
<path d="M 328.892578 46.335938 L 328.892578 45.412109 L 335.729980 45.412109 L 335.729980 46.335938 Z " fill="rgb(0, 0, 0)" fill-opacity="1.000000" />
<path d="M 342.892578 46.335938 L 342.892578 45.412109 L 349.729980 45.412109 L 349.729980 46.335938 Z " fill="rgb(0, 0, 0)" fill-opacity="1.000000" />
<path d="M 356.892578 46.335938 L 356.892578 45.412109 L 363.729980 45.412109 L 363.729980 46.335938 Z " fill="rgb(0, 0, 0)" fill-opacity="1.000000" />
<path d="M 370.892578 46.335938 L 370.892578 45.412109 L 377.729980 45.412109 L 377.729980 46.335938 Z " fill="rgb(0, 0, 0)" fill-opacity="1.000000" />
<path d="M 384.892578 46.335938 L 384.892578 45.412109 L 391.729980 45.412109 L 391.729980 46.335938 Z " fill="rgb(0, 0, 0)" fill-opacity="1.000000" />
<path d="M 398.892578 46.335938 L 398.892578 45.412109 L 405.729980 45.412109 L 405.729980 46.335938 Z " fill="rgb(0, 0, 0)" fill-opacity="1.000000" />
<path d="M 408.878906 52.319336 L 408.878906 38.300781 L 409.738281 38.300781 L 409.738281 52.319336 Z " fill="rgb(105, 51, 255)" fill-opacity="1.000000" />
<path d="M 412.892578 46.335938 L 412.892578 45.412109 L 419.729980 45.412109 L 419.729980 46.335938 Z " fill="rgb(0, 0, 0)" fill-opacity="1.000000" />
<path d="M 426.892578 46.335938 L 426.892578 45.412109 L 433.729980 45.412109 L 433.729980 46.335938 Z " fill="rgb(0, 0, 0)" fill-opacity="1.000000" />
<path d="M 440.892578 46.335938 L 440.892578 45.412109 L 447.729980 45.412109 L 447.729980 46.335938 Z " fill="rgb(0, 0, 0)" fill-opacity="1.000000" />
<path d="M 454.892578 46.335938 L 454.892578 45.412109 L 461.729980 45.412109 L 461.729980 46.335938 Z " fill="rgb(0, 0, 0)" fill-opacity="1.000000" />
<path d="M 468.892578 46.335938 L 468.892578 45.412109 L 475.729980 45.412109 L 475.729980 46.335938 Z " fill="rgb(0, 0, 0)" fill-opacity="1.000000" />
<path d="M 482.892578 46.335938 L 482.892578 45.412109 L 489.729980 45.412109 L 489.729980 46.335938 Z " fill="rgb(0, 0, 0)" fill-opacity="1.000000" />
<path d="M 496.892578 46.335938 L 496.892578 45.412109 L 503.729980 45.412109 L 503.729980 46.335938 Z " fill="rgb(0, 0, 0)" fill-opacity="1.000000" />
<path d="M 510.892578 46.335938 L 510.892578 45.412109 L 517.729980 45.412109 L 517.729980 46.335938 Z " fill="rgb(0, 0, 0)" fill-opacity="1.000000" />
<path d="M 524.892578 46.335938 L 524.892578 45.412109 L 531.729980 45.412109 L 531.729980 46.335938 Z " fill="rgb(0, 0, 0)" fill-opacity="1.000000" />
<path d="M 538.892578 46.335938 L 538.892578 45.412109 L 545.729980 45.412109 L 545.729980 46.335938 Z " fill="rgb(0, 0, 0)" fill-opacity="1.000000" />
<path d="M 552.892578 46.335938 L 552.892578 45.412109 L 559.729980 45.412109 L 559.729980 46.335938 Z " fill="rgb(0, 0, 0)" fill-opacity="1.000000" />
<path d="M 566.892578 46.335938 L 566.892578 45.412109 L 573.729980 45.412109 L 573.729980 46.335938 Z " fill="rgb(0, 0, 0)" fill-opacity="1.000000" />
<path d="M 580.892578 46.335938 L 580.892578 45.412109 L 587.729980 45.412109 L 587.729980 46.335938 Z " fill="rgb(0, 0, 0)" fill-opacity="1.000000" />
<path d="M 594.892578 46.335938 L 594.892578 45.412109 L 601.729980 45.412109 L 601.729980 46.335938 Z " fill="rgb(0, 0, 0)" fill-opacity="1.000000" />
<path d="M 608.892578 46.335938 L 608.892578 45.412109 L 615.729980 45.412109 L 615.729980 46.335938 Z " fill="rgb(0, 0, 0)" fill-opacity="1.000000" />
<path d="M 622.892578 46.335938 L 622.892578 45.412109 L 629.729980 45.412109 L 629.729980 46.335938 Z " fill="rgb(0, 0, 0)" fill-opacity="1.000000" />
<path d="M 632.878906 52.319336 L 632.878906 38.300781 L 633.738281 38.300781 L 633.738281 52.319336 Z " fill="rgb(105, 51, 255)" fill-opacity="1.000000" />
<path d="M 636.892578 46.335938 L 636.892578 45.412109 L 643.729980 45.412109 L 643.729980 46.335938 Z " fill="rgb(0, 0, 0)" fill-opacity="1.000000" />
<path d="M 650.892578 46.335938 L 650.892578 45.412109 L 657.729980 45.412109 L 657.729980 46.335938 Z " fill="rgb(0, 0, 0)" fill-opacity="1.000000" />
<path d="M 664.892578 46.335938 L 664.892578 45.412109 L 671.729980 45.412109 L 671.729980 46.335938 Z " fill="rgb(0, 0, 0)" fill-opacity="1.000000" />
<path d="M 678.892578 46.335938 L 678.892578 45.412109 L 685.729980 45.412109 L 685.729980 46.335938 Z " fill="rgb(0, 0, 0)" fill-opacity="1.000000" />
<path d="M 693.032227 49.418945 L 693.032227 42.866211 L 699.590332 46.142578 Z " fill="rgb(0, 0, 0)" fill-opacity="1.000000" />
<path d="M 714.252441 40.980957 L 720.370117 40.980957 L 720.370117 41.894043 L 717.861816 41.894043 L 717.861816 49.000000 L 716.771484 49.000000 L 716.771484 41.894043 L 714.252441 41.894043 Z " fill="rgb(0, 0, 0)" fill-opacity="1.000000" />
<path d="M 722.697266 43.005859 L 725.227051 43.005859 L 725.227051 48.231934 L 727.187500 48.231934 L 727.187500 49.000000 L 722.278320 49.000000 L 722.278320 48.231934 L 724.238770 48.231934 L 724.238770 43.773926 L 722.697266 43.773926 Z M 724.238770 40.669434 L 725.227051 40.669434 L 725.227051 41.915527 L 724.238770 41.915527 Z " fill="rgb(0, 0, 0)" fill-opacity="1.000000" />
<path d="M 731.630859 43.596680 Q 731.813477 43.209961 732.095459 43.024658 Q 732.377441 42.839355 732.774902 42.839355 Q 733.500000 42.839355 733.798096 43.400635 Q 734.096191 43.961914 734.096191 45.514160 L 734.096191 49.000000 L 733.193848 49.000000 L 733.193848 45.557129 Q 733.193848 44.284180 733.051514 43.975342 Q 732.909180 43.666504 732.533203 43.666504 Q 732.103516 43.666504 731.945068 43.996826 Q 731.786621 44.327148 731.786621 45.557129 L 731.786621 49.000000 L 730.884277 49.000000 L 730.884277 45.557129 Q 730.884277 44.268066 730.731201 43.967285 Q 730.578125 43.666504 730.180664 43.666504 Q 729.788574 43.666504 729.635498 43.996826 Q 729.482422 44.327148 729.482422 45.557129 L 729.482422 49.000000 L 728.585449 49.000000 L 728.585449 42.984375 L 729.482422 42.984375 L 729.482422 43.500000 Q 729.659668 43.177734 729.925537 43.008545 Q 730.191406 42.839355 730.529785 42.839355 Q 730.937988 42.839355 731.209229 43.027344 Q 731.480469 43.215332 731.630859 43.596680 Z " fill="rgb(0, 0, 0)" fill-opacity="1.000000" />
<path d="M 741.015625 45.498047 L 741.015625 45.981445 L 736.734863 45.981445 L 736.734863 46.013672 Q 736.691895 47.243652 737.204834 47.780762 Q 737.717773 48.317871 738.652344 48.317871 Q 739.125000 48.317871 739.640625 48.167480 Q 740.156250 48.017090 740.741699 47.710938 L 740.741699 48.693848 Q 740.177734 48.924805 739.654053 49.040283 Q 739.130371 49.155762 738.641602 49.155762 Q 737.239746 49.155762 736.450195 48.315186 Q 735.660645 47.474609 735.660645 45.997559 Q 735.660645 44.558105 736.434082 43.698730 Q 737.207520 42.839355 738.496582 42.839355 Q 739.645996 42.839355 740.309326 43.618164 Q 740.972656 44.396973 741.015625 45.498047 Z M 740.027344 45.208008 Q 739.962891 44.584961 739.573486 44.131104 Q 739.184082 43.677246 738.453613 43.677246 Q 737.739258 43.677246 737.277344 44.149902 Q 736.815430 44.622559 736.772461 45.213379 Z " fill="rgb(0, 0, 0)" fill-opacity="1.000000" />
<path d="M 44.878906 13.319336 L 44.878906 6.412109 L 48.729980 6.412109 L 48.729980 7.335938 L 45.738281 7.335938 L 45.738281 13.319336 Z " fill="rgb(0, 0, 0)" fill-opacity="1.000000" />
<path d="M 44.878906 26.319336 L 44.878906 12.300781 L 45.738281 12.300781 L 45.738281 26.319336 Z " fill="rgb(0, 0, 0)" fill-opacity="1.000000" />
<path d="M 44.878906 39.319336 L 44.878906 25.300781 L 45.738281 25.300781 L 45.738281 32.412109 L 48.729980 32.412109 L 48.729980 33.335938 L 45.738281 33.335938 L 45.738281 39.319336 Z " fill="rgb(105, 51, 255)" fill-opacity="1.000000" />
<path d="M 48.892578 33.335938 L 48.892578 32.412109 L 55.729980 32.412109 L 55.729980 33.335938 Z " fill="rgb(0, 0, 0)" fill-opacity="1.000000" />
<path d="M 55.892578 33.335938 L 55.892578 32.412109 L 62.729980 32.412109 L 62.729980 33.335938 Z " fill="rgb(0, 0, 0)" fill-opacity="1.000000" />
<path d="M 62.892578 33.335938 L 62.892578 32.412109 L 69.729980 32.412109 L 69.729980 33.335938 Z " fill="rgb(0, 0, 0)" fill-opacity="1.000000" />
<path d="M 69.892578 33.335938 L 69.892578 32.412109 L 76.729980 32.412109 L 76.729980 33.335938 Z " fill="rgb(0, 0, 0)" fill-opacity="1.000000" />
<path d="M 76.892578 33.335938 L 76.892578 32.412109 L 83.729980 32.412109 L 83.729980 33.335938 Z " fill="rgb(0, 0, 0)" fill-opacity="1.000000" />
<path d="M 83.892578 33.335938 L 83.892578 32.412109 L 90.729980 32.412109 L 90.729980 33.335938 Z " fill="rgb(0, 0, 0)" fill-opacity="1.000000" />
<path d="M 90.892578 33.335938 L 90.892578 32.412109 L 97.729980 32.412109 L 97.729980 33.335938 Z " fill="rgb(0, 0, 0)" fill-opacity="1.000000" />
<path d="M 97.892578 33.335938 L 97.892578 32.412109 L 104.729980 32.412109 L 104.729980 33.335938 Z " fill="rgb(0, 0, 0)" fill-opacity="1.000000" />
<path d="M 104.892578 33.335938 L 104.892578 32.412109 L 111.729980 32.412109 L 111.729980 33.335938 Z " fill="rgb(0, 0, 0)" fill-opacity="1.000000" />
<path d="M 111.892578 33.335938 L 111.892578 32.412109 L 118.729980 32.412109 L 118.729980 33.335938 Z " fill="rgb(0, 0, 0)" fill-opacity="1.000000" />
<path d="M 118.892578 33.335938 L 118.892578 32.412109 L 125.729980 32.412109 L 125.729980 33.335938 Z " fill="rgb(0, 0, 0)" fill-opacity="1.000000" />
<path d="M 125.892578 33.335938 L 125.892578 32.412109 L 132.729980 32.412109 L 132.729980 33.335938 Z " fill="rgb(0, 0, 0)" fill-opacity="1.000000" />
<path d="M 132.892578 33.335938 L 132.892578 32.412109 L 139.729980 32.412109 L 139.729980 33.335938 Z " fill="rgb(0, 0, 0)" fill-opacity="1.000000" />
<path d="M 139.892578 33.335938 L 139.892578 32.412109 L 146.729980 32.412109 L 146.729980 33.335938 Z " fill="rgb(0, 0, 0)" fill-opacity="1.000000" />
<path d="M 146.892578 33.335938 L 146.892578 32.412109 L 153.729980 32.412109 L 153.729980 33.335938 Z " fill="rgb(0, 0, 0)" fill-opacity="1.000000" />
<path d="M 153.892578 33.335938 L 153.892578 32.412109 L 160.729980 32.412109 L 160.729980 33.335938 Z " fill="rgb(0, 0, 0)" fill-opacity="1.000000" />
<path d="M 160.892578 33.335938 L 160.892578 32.412109 L 167.729980 32.412109 L 167.729980 33.335938 Z " fill="rgb(0, 0, 0)" fill-opacity="1.000000" />
<path d="M 167.892578 33.335938 L 167.892578 32.412109 L 174.729980 32.412109 L 174.729980 33.335938 Z " fill="rgb(0, 0, 0)" fill-opacity="1.000000" />
<path d="M 174.892578 33.335938 L 174.892578 32.412109 L 181.729980 32.412109 L 181.729980 33.335938 Z " fill="rgb(0, 0, 0)" fill-opacity="1.000000" />
<path d="M 181.892578 33.335938 L 181.892578 32.412109 L 188.729980 32.412109 L 188.729980 33.335938 Z " fill="rgb(0, 0, 0)" fill-opacity="1.000000" />
<path d="M 188.892578 33.335938 L 188.892578 32.412109 L 195.729980 32.412109 L 195.729980 33.335938 Z " fill="rgb(0, 0, 0)" fill-opacity="1.000000" />
<path d="M 195.892578 33.335938 L 195.892578 32.412109 L 202.729980 32.412109 L 202.729980 33.335938 Z " fill="rgb(0, 0, 0)" fill-opacity="1.000000" />
<path d="M 202.892578 33.335938 L 202.892578 32.412109 L 209.729980 32.412109 L 209.729980 33.335938 Z " fill="rgb(0, 0, 0)" fill-opacity="1.000000" />
<path d="M 209.892578 33.335938 L 209.892578 32.412109 L 216.729980 32.412109 L 216.729980 33.335938 Z " fill="rgb(0, 0, 0)" fill-opacity="1.000000" />
<path d="M 216.892578 33.335938 L 216.892578 32.412109 L 223.729980 32.412109 L 223.729980 33.335938 Z " fill="rgb(0, 0, 0)" fill-opacity="1.000000" />
<path d="M 223.892578 33.335938 L 223.892578 32.412109 L 230.729980 32.412109 L 230.729980 33.335938 Z " fill="rgb(0, 0, 0)" fill-opacity="1.000000" />
<path d="M 230.892578 33.335938 L 230.892578 32.412109 L 237.729980 32.412109 L 237.729980 33.335938 Z " fill="rgb(0, 0, 0)" fill-opacity="1.000000" />
<path d="M 237.892578 33.335938 L 237.892578 32.412109 L 244.729980 32.412109 L 244.729980 33.335938 Z " fill="rgb(0, 0, 0)" fill-opacity="1.000000" />
<path d="M 244.892578 33.335938 L 244.892578 32.412109 L 251.729980 32.412109 L 251.729980 33.335938 Z " fill="rgb(0, 0, 0)" fill-opacity="1.000000" />
<path d="M 251.892578 33.335938 L 251.892578 32.412109 L 258.729980 32.412109 L 258.729980 33.335938 Z " fill="rgb(0, 0, 0)" fill-opacity="1.000000" />
<path d="M 258.892578 33.335938 L 258.892578 32.412109 L 265.729980 32.412109 L 265.729980 33.335938 Z " fill="rgb(0, 0, 0)" fill-opacity="1.000000" />
<path d="M 265.892578 33.335938 L 265.892578 32.412109 L 272.729980 32.412109 L 272.729980 33.335938 Z " fill="rgb(0, 0, 0)" fill-opacity="1.000000" />
<path d="M 272.892578 33.335938 L 272.892578 32.412109 L 279.729980 32.412109 L 279.729980 33.335938 Z " fill="rgb(0, 0, 0)" fill-opacity="1.000000" />
<path d="M 279.892578 33.335938 L 279.892578 32.412109 L 286.729980 32.412109 L 286.729980 33.335938 Z " fill="rgb(0, 0, 0)" fill-opacity="1.000000" />
<path d="M 286.892578 33.335938 L 286.892578 32.412109 L 293.729980 32.412109 L 293.729980 33.335938 Z " fill="rgb(0, 0, 0)" fill-opacity="1.000000" />
<path d="M 293.892578 33.335938 L 293.892578 32.412109 L 300.729980 32.412109 L 300.729980 33.335938 Z " fill="rgb(0, 0, 0)" fill-opacity="1.000000" />
<path d="M 300.892578 33.335938 L 300.892578 32.412109 L 307.729980 32.412109 L 307.729980 33.335938 Z " fill="rgb(0, 0, 0)" fill-opacity="1.000000" />
<path d="M 307.892578 33.335938 L 307.892578 32.412109 L 314.729980 32.412109 L 314.729980 33.335938 Z " fill="rgb(0, 0, 0)" fill-opacity="1.000000" />
<path d="M 314.892578 33.335938 L 314.892578 32.412109 L 321.729980 32.412109 L 321.729980 33.335938 Z " fill="rgb(0, 0, 0)" fill-opacity="1.000000" />
<path d="M 321.892578 33.335938 L 321.892578 32.412109 L 328.729980 32.412109 L 328.729980 33.335938 Z " fill="rgb(0, 0, 0)" fill-opacity="1.000000" />
<path d="M 328.892578 33.335938 L 328.892578 32.412109 L 335.729980 32.412109 L 335.729980 33.335938 Z " fill="rgb(0, 0, 0)" fill-opacity="1.000000" />
<path d="M 335.892578 33.335938 L 335.892578 32.412109 L 342.729980 32.412109 L 342.729980 33.335938 Z " fill="rgb(0, 0, 0)" fill-opacity="1.000000" />
<path d="M 342.892578 33.335938 L 342.892578 32.412109 L 349.729980 32.412109 L 349.729980 33.335938 Z " fill="rgb(0, 0, 0)" fill-opacity="1.000000" />
<path d="M 349.892578 33.335938 L 349.892578 32.412109 L 356.729980 32.412109 L 356.729980 33.335938 Z " fill="rgb(0, 0, 0)" fill-opacity="1.000000" />
<path d="M 356.892578 33.335938 L 356.892578 32.412109 L 363.729980 32.412109 L 363.729980 33.335938 Z " fill="rgb(0, 0, 0)" fill-opacity="1.000000" />
<path d="M 363.892578 33.335938 L 363.892578 32.412109 L 370.729980 32.412109 L 370.729980 33.335938 Z " fill="rgb(0, 0, 0)" fill-opacity="1.000000" />
<path d="M 370.892578 33.335938 L 370.892578 32.412109 L 377.729980 32.412109 L 377.729980 33.335938 Z " fill="rgb(0, 0, 0)" fill-opacity="1.000000" />
<path d="M 377.892578 33.335938 L 377.892578 32.412109 L 384.729980 32.412109 L 384.729980 33.335938 Z " fill="rgb(0, 0, 0)" fill-opacity="1.000000" />
<path d="M 384.892578 33.335938 L 384.892578 32.412109 L 391.729980 32.412109 L 391.729980 33.335938 Z " fill="rgb(0, 0, 0)" fill-opacity="1.000000" />
<path d="M 391.892578 33.335938 L 391.892578 32.412109 L 398.729980 32.412109 L 398.729980 33.335938 Z " fill="rgb(0, 0, 0)" fill-opacity="1.000000" />
<path d="M 398.892578 33.335938 L 398.892578 32.412109 L 405.729980 32.412109 L 405.729980 33.335938 Z " fill="rgb(0, 0, 0)" fill-opacity="1.000000" />
<path d="M 409.738281 33.335938 L 409.738281 39.319336 L 408.878906 39.319336 L 408.878906 33.335938 L 405.892578 33.335938 L 405.892578 32.412109 L 408.878906 32.412109 L 408.878906 25.300781 L 409.738281 25.300781 L 409.738281 32.412109 L 412.729980 32.412109 L 412.729980 33.335938 Z " fill="rgb(105, 51, 255)" fill-opacity="1.000000" />
<path d="M 412.892578 33.335938 L 412.892578 32.412109 L 419.729980 32.412109 L 419.729980 33.335938 Z " fill="rgb(0, 0, 0)" fill-opacity="1.000000" />
<path d="M 419.892578 33.335938 L 419.892578 32.412109 L 426.729980 32.412109 L 426.729980 33.335938 Z " fill="rgb(0, 0, 0)" fill-opacity="1.000000" />
<path d="M 426.892578 33.335938 L 426.892578 32.412109 L 433.729980 32.412109 L 433.729980 33.335938 Z " fill="rgb(0, 0, 0)" fill-opacity="1.000000" />
<path d="M 433.892578 33.335938 L 433.892578 32.412109 L 440.729980 32.412109 L 440.729980 33.335938 Z " fill="rgb(0, 0, 0)" fill-opacity="1.000000" />
<path d="M 440.892578 33.335938 L 440.892578 32.412109 L 447.729980 32.412109 L 447.729980 33.335938 Z " fill="rgb(0, 0, 0)" fill-opacity="1.000000" />
<path d="M 447.892578 33.335938 L 447.892578 32.412109 L 454.729980 32.412109 L 454.729980 33.335938 Z " fill="rgb(0, 0, 0)" fill-opacity="1.000000" />
<path d="M 454.892578 33.335938 L 454.892578 32.412109 L 461.729980 32.412109 L 461.729980 33.335938 Z " fill="rgb(0, 0, 0)" fill-opacity="1.000000" />
<path d="M 461.892578 33.335938 L 461.892578 32.412109 L 468.729980 32.412109 L 468.729980 33.335938 Z " fill="rgb(0, 0, 0)" fill-opacity="1.000000" />
<path d="M 468.892578 33.335938 L 468.892578 32.412109 L 475.729980 32.412109 L 475.729980 33.335938 Z " fill="rgb(0, 0, 0)" fill-opacity="1.000000" />
<path d="M 475.892578 33.335938 L 475.892578 32.412109 L 482.729980 32.412109 L 482.729980 33.335938 Z " fill="rgb(0, 0, 0)" fill-opacity="1.000000" />
<path d="M 482.892578 33.335938 L 482.892578 32.412109 L 489.729980 32.412109 L 489.729980 33.335938 Z " fill="rgb(0, 0, 0)" fill-opacity="1.000000" />
<path d="M 489.892578 33.335938 L 489.892578 32.412109 L 496.729980 32.412109 L 496.729980 33.335938 Z " fill="rgb(0, 0, 0)" fill-opacity="1.000000" />
<path d="M 496.892578 33.335938 L 496.892578 32.412109 L 503.729980 32.412109 L 503.729980 33.335938 Z " fill="rgb(0, 0, 0)" fill-opacity="1.000000" />
<path d="M 503.892578 33.335938 L 503.892578 32.412109 L 510.729980 32.412109 L 510.729980 33.335938 Z " fill="rgb(0, 0, 0)" fill-opacity="1.000000" />
<path d="M 510.892578 33.335938 L 510.892578 32.412109 L 517.729980 32.412109 L 517.729980 33.335938 Z " fill="rgb(0, 0, 0)" fill-opacity="1.000000" />
<path d="M 517.892578 33.335938 L 517.892578 32.412109 L 524.729980 32.412109 L 524.729980 33.335938 Z " fill="rgb(0, 0, 0)" fill-opacity="1.000000" />
<path d="M 524.892578 33.335938 L 524.892578 32.412109 L 531.729980 32.412109 L 531.729980 33.335938 Z " fill="rgb(0, 0, 0)" fill-opacity="1.000000" />
<path d="M 531.892578 33.335938 L 531.892578 32.412109 L 538.729980 32.412109 L 538.729980 33.335938 Z " fill="rgb(0, 0, 0)" fill-opacity="1.000000" />
<path d="M 538.892578 33.335938 L 538.892578 32.412109 L 545.729980 32.412109 L 545.729980 33.335938 Z " fill="rgb(0, 0, 0)" fill-opacity="1.000000" />
<path d="M 545.892578 33.335938 L 545.892578 32.412109 L 552.729980 32.412109 L 552.729980 33.335938 Z " fill="rgb(0, 0, 0)" fill-opacity="1.000000" />
<path d="M 552.892578 33.335938 L 552.892578 32.412109 L 559.729980 32.412109 L 559.729980 33.335938 Z " fill="rgb(0, 0, 0)" fill-opacity="1.000000" />
<path d="M 559.892578 33.335938 L 559.892578 32.412109 L 566.729980 32.412109 L 566.729980 33.335938 Z " fill="rgb(0, 0, 0)" fill-opacity="1.000000" />
<path d="M 566.892578 33.335938 L 566.892578 32.412109 L 573.729980 32.412109 L 573.729980 33.335938 Z " fill="rgb(0, 0, 0)" fill-opacity="1.000000" />
<path d="M 573.892578 33.335938 L 573.892578 32.412109 L 580.729980 32.412109 L 580.729980 33.335938 Z " fill="rgb(0, 0, 0)" fill-opacity="1.000000" />
<path d="M 580.892578 33.335938 L 580.892578 32.412109 L 587.729980 32.412109 L 587.729980 33.335938 Z " fill="rgb(0, 0, 0)" fill-opacity="1.000000" />
<path d="M 587.892578 33.335938 L 587.892578 32.412109 L 594.729980 32.412109 L 594.729980 33.335938 Z " fill="rgb(0, 0, 0)" fill-opacity="1.000000" />
<path d="M 594.892578 33.335938 L 594.892578 32.412109 L 601.729980 32.412109 L 601.729980 33.335938 Z " fill="rgb(0, 0, 0)" fill-opacity="1.000000" />
<path d="M 601.892578 33.335938 L 601.892578 32.412109 L 608.729980 32.412109 L 608.729980 33.335938 Z " fill="rgb(0, 0, 0)" fill-opacity="1.000000" />
<path d="M 608.892578 33.335938 L 608.892578 32.412109 L 615.729980 32.412109 L 615.729980 33.335938 Z " fill="rgb(0, 0, 0)" fill-opacity="1.000000" />
<path d="M 615.892578 33.335938 L 615.892578 32.412109 L 622.729980 32.412109 L 622.729980 33.335938 Z " fill="rgb(0, 0, 0)" fill-opacity="1.000000" />
<path d="M 622.892578 33.335938 L 622.892578 32.412109 L 629.729980 32.412109 L 629.729980 33.335938 Z " fill="rgb(0, 0, 0)" fill-opacity="1.000000" />
<path d="M 632.878906 39.319336 L 632.878906 33.335938 L 629.892578 33.335938 L 629.892578 32.412109 L 632.878906 32.412109 L 632.878906 25.300781 L 633.738281 25.300781 L 633.738281 39.319336 Z " fill="rgb(105, 51, 255)" fill-opacity="1.000000" />
<path d="M 176.251465 14.980957 L 180.972656 14.980957 L 180.972656 15.894043 L 177.341797 15.894043 L 177.341797 18.042480 L 180.634277 18.042480 L 180.634277 18.955566 L 177.341797 18.955566 L 177.341797 23.000000 L 176.251465 23.000000 Z " fill="rgb(0, 0, 0)" fill-opacity="1.000000" />
<path d="M 185.770508 19.976074 L 185.442871 19.976074 Q 184.578125 19.976074 184.140381 20.279541 Q 183.702637 20.583008 183.702637 21.184570 Q 183.702637 21.727051 184.030273 22.027832 Q 184.357910 22.328613 184.937988 22.328613 Q 185.754395 22.328613 186.221680 21.761963 Q 186.688965 21.195312 186.694336 20.196289 L 186.694336 19.976074 Z M 187.687988 19.567871 L 187.687988 23.000000 L 186.694336 23.000000 L 186.694336 22.108398 Q 186.377441 22.645508 185.896729 22.900635 Q 185.416016 23.155762 184.728516 23.155762 Q 183.810059 23.155762 183.262207 22.637451 Q 182.714355 22.119141 182.714355 21.249023 Q 182.714355 20.244629 183.388428 19.723633 Q 184.062500 19.202637 185.367676 19.202637 L 186.694336 19.202637 L 186.694336 19.046875 Q 186.688965 18.327148 186.329102 18.002197 Q 185.969238 17.677246 185.179688 17.677246 Q 184.674805 17.677246 184.159180 17.822266 Q 183.643555 17.967285 183.154785 18.246582 L 183.154785 17.258301 Q 183.702637 17.048828 184.204834 16.944092 Q 184.707031 16.839355 185.179688 16.839355 Q 185.926270 16.839355 186.455322 17.059570 Q 186.984375 17.279785 187.312012 17.720215 Q 187.516113 17.988770 187.602051 18.383545 Q 187.687988 18.778320 187.687988 19.567871 Z " fill="rgb(0, 0, 0)" fill-opacity="1.000000" />
<path d="M 190.697266 17.005859 L 193.227051 17.005859 L 193.227051 22.231934 L 195.187500 22.231934 L 195.187500 23.000000 L 190.278320 23.000000 L 190.278320 22.231934 L 192.238770 22.231934 L 192.238770 17.773926 L 190.697266 17.773926 Z M 192.238770 14.669434 L 193.227051 14.669434 L 193.227051 15.915527 L 192.238770 15.915527 Z " fill="rgb(0, 0, 0)" fill-opacity="1.000000" />
<path d="M 199.861816 20.824707 Q 199.861816 21.490723 200.106201 21.829102 Q 200.350586 22.167480 200.828613 22.167480 L 201.983398 22.167480 L 201.983398 23.000000 L 200.731934 23.000000 Q 199.845703 23.000000 199.359619 22.433350 Q 198.873535 21.866699 198.873535 20.824707 L 198.873535 15.383789 L 197.289062 15.383789 L 197.289062 14.610352 L 199.861816 14.610352 Z " fill="rgb(0, 0, 0)" fill-opacity="1.000000" />
<path d="M 206.308594 17.677246 Q 205.556641 17.677246 205.169922 18.262695 Q 204.783203 18.848145 204.783203 19.997559 Q 204.783203 21.141602 205.169922 21.729736 Q 205.556641 22.317871 206.308594 22.317871 Q 207.065918 22.317871 207.452637 21.729736 Q 207.839355 21.141602 207.839355 19.997559 Q 207.839355 18.848145 207.452637 18.262695 Q 207.065918 17.677246 206.308594 17.677246 Z M 206.308594 16.839355 Q 207.560059 16.839355 208.223389 17.650391 Q 208.886719 18.461426 208.886719 19.997559 Q 208.886719 21.539062 208.226074 22.347412 Q 207.565430 23.155762 206.308594 23.155762 Q 205.057129 23.155762 204.396484 22.347412 Q 203.735840 21.539062 203.735840 19.997559 Q 203.735840 18.461426 204.396484 17.650391 Q 205.057129 16.839355 206.308594 16.839355 Z " fill="rgb(0, 0, 0)" fill-opacity="1.000000" />
<path d="M 210.537109 16.984375 L 211.562988 16.984375 L 213.308594 22.033203 L 215.059570 16.984375 L 216.085449 16.984375 L 213.947754 23.000000 L 212.674805 23.000000 Z " fill="rgb(0, 0, 0)" fill-opacity="1.000000" />
<path d="M 223.015625 19.498047 L 223.015625 19.981445 L 218.734863 19.981445 L 218.734863 20.013672 Q 218.691895 21.243652 219.204834 21.780762 Q 219.717773 22.317871 220.652344 22.317871 Q 221.125000 22.317871 221.640625 22.167480 Q 222.156250 22.017090 222.741699 21.710938 L 222.741699 22.693848 Q 222.177734 22.924805 221.654053 23.040283 Q 221.130371 23.155762 220.641602 23.155762 Q 219.239746 23.155762 218.450195 22.315186 Q 217.660645 21.474609 217.660645 19.997559 Q 217.660645 18.558105 218.434082 17.698730 Q 219.207520 16.839355 220.496582 16.839355 Q 221.645996 16.839355 222.309326 17.618164 Q 222.972656 18.396973 223.015625 19.498047 Z M 222.027344 19.208008 Q 221.962891 18.584961 221.573486 18.131104 Q 221.184082 17.677246 220.453613 17.677246 Q 219.739258 17.677246 219.277344 18.149902 Q 218.815430 18.622559 218.772461 19.213379 Z " fill="rgb(0, 0, 0)" fill-opacity="1.000000" />
<path d="M 230.203613 18.225098 Q 229.886719 17.978027 229.559082 17.865234 Q 229.231445 17.752441 228.839355 17.752441 Q 227.915527 17.752441 227.426758 18.332520 Q 226.937988 18.912598 226.937988 20.008301 L 226.937988 23.000000 L 225.944336 23.000000 L 225.944336 16.984375 L 226.937988 16.984375 L 226.937988 18.160645 Q 227.185059 17.521484 227.697998 17.180420 Q 228.210938 16.839355 228.914551 16.839355 Q 229.279785 16.839355 229.596680 16.930664 Q 229.913574 17.021973 230.203613 17.215332 Z " fill="rgb(0, 0, 0)" fill-opacity="1.000000" />
<path d="M 238.000000 16.984375 L 238.977539 16.984375 L 240.024902 21.845215 L 240.884277 18.740723 L 241.727539 18.740723 L 242.597656 21.845215 L 243.645020 16.984375 L 244.622559 16.984375 L 243.215332 23.000000 L 242.270020 23.000000 L 241.308594 19.702148 L 240.352539 23.000000 L 239.407227 23.000000 Z " fill="rgb(0, 0, 0)" fill-opacity="1.000000" />
<path d="M 246.697266 17.005859 L 249.227051 17.005859 L 249.227051 22.231934 L 251.187500 22.231934 L 251.187500 23.000000 L 246.278320 23.000000 L 246.278320 22.231934 L 248.238770 22.231934 L 248.238770 17.773926 L 246.697266 17.773926 Z M 248.238770 14.669434 L 249.227051 14.669434 L 249.227051 15.915527 L 248.238770 15.915527 Z " fill="rgb(0, 0, 0)" fill-opacity="1.000000" />
<path d="M 257.645020 19.272461 L 257.645020 23.000000 L 256.651367 23.000000 L 256.651367 19.272461 Q 256.651367 18.461426 256.366699 18.080078 Q 256.082031 17.698730 255.475098 17.698730 Q 254.782227 17.698730 254.408936 18.190186 Q 254.035645 18.681641 254.035645 19.600098 L 254.035645 23.000000 L 253.047363 23.000000 L 253.047363 16.984375 L 254.035645 16.984375 L 254.035645 17.886719 Q 254.298828 17.371094 254.750000 17.105225 Q 255.201172 16.839355 255.818848 16.839355 Q 256.737305 16.839355 257.191162 17.443604 Q 257.645020 18.047852 257.645020 19.272461 Z " fill="rgb(0, 0, 0)" fill-opacity="1.000000" />
<path d="M 263.608398 17.752441 L 263.608398 14.642578 L 264.596680 14.642578 L 264.596680 23.000000 L 263.608398 23.000000 L 263.608398 22.242676 Q 263.361328 22.688477 262.950439 22.922119 Q 262.539551 23.155762 262.002441 23.155762 Q 260.912109 23.155762 260.286377 22.309814 Q 259.660645 21.463867 259.660645 19.976074 Q 259.660645 18.509766 260.289062 17.674561 Q 260.917480 16.839355 262.002441 16.839355 Q 262.544922 16.839355 262.958496 17.072998 Q 263.372070 17.306641 263.608398 17.752441 Z M 260.702637 19.997559 Q 260.702637 21.146973 261.067871 21.732422 Q 261.433105 22.317871 262.147461 22.317871 Q 262.861816 22.317871 263.235107 21.727051 Q 263.608398 21.136230 263.608398 19.997559 Q 263.608398 18.853516 263.235107 18.265381 Q 262.861816 17.677246 262.147461 17.677246 Q 261.433105 17.677246 261.067871 18.262695 Q 260.702637 18.848145 260.702637 19.997559 Z " fill="rgb(0, 0, 0)" fill-opacity="1.000000" />
<path d="M 269.308594 17.677246 Q 268.556641 17.677246 268.169922 18.262695 Q 267.783203 18.848145 267.783203 19.997559 Q 267.783203 21.141602 268.169922 21.729736 Q 268.556641 22.317871 269.308594 22.317871 Q 270.065918 22.317871 270.452637 21.729736 Q 270.839355 21.141602 270.839355 19.997559 Q 270.839355 18.848145 270.452637 18.262695 Q 270.065918 17.677246 269.308594 17.677246 Z M 269.308594 16.839355 Q 270.560059 16.839355 271.223389 17.650391 Q 271.886719 18.461426 271.886719 19.997559 Q 271.886719 21.539062 271.226074 22.347412 Q 270.565430 23.155762 269.308594 23.155762 Q 268.057129 23.155762 267.396484 22.347412 Q 266.735840 21.539062 266.735840 19.997559 Q 266.735840 18.461426 267.396484 17.650391 Q 268.057129 16.839355 269.308594 16.839355 Z " fill="rgb(0, 0, 0)" fill-opacity="1.000000" />
<path d="M 273.000000 16.984375 L 273.977539 16.984375 L 275.024902 21.845215 L 275.884277 18.740723 L 276.727539 18.740723 L 277.597656 21.845215 L 278.645020 16.984375 L 279.622559 16.984375 L 278.215332 23.000000 L 277.270020 23.000000 L 276.308594 19.702148 L 275.352539 23.000000 L 274.407227 23.000000 Z " fill="rgb(0, 0, 0)" fill-opacity="1.000000" />
<path d="M 408.878906 26.319336 L 408.878906 12.300781 L 409.738281 12.300781 L 409.738281 26.319336 Z " fill="rgb(0, 0, 0)" fill-opacity="1.000000" />
<path d="M 473.082031 19.213379 Q 473.500977 19.320801 473.796387 19.618896 Q 474.091797 19.916992 474.532227 20.808594 L 475.622559 23.000000 L 474.457031 23.000000 L 473.500977 20.975098 Q 473.087402 20.110352 472.757080 19.860596 Q 472.426758 19.610840 471.895020 19.610840 L 470.858398 19.610840 L 470.858398 23.000000 L 469.768066 23.000000 L 469.768066 14.980957 L 472.002441 14.980957 Q 473.323730 14.980957 474.027344 15.577148 Q 474.730957 16.173340 474.730957 17.301270 Q 474.730957 18.096191 474.298584 18.598389 Q 473.866211 19.100586 473.082031 19.213379 Z M 470.858398 15.872559 L 470.858398 18.719238 L 472.045410 18.719238 Q 472.824219 18.719238 473.205566 18.370117 Q 473.586914 18.020996 473.586914 17.301270 Q 473.586914 16.608398 473.181396 16.240479 Q 472.775879 15.872559 472.002441 15.872559 Z " fill="rgb(0, 0, 0)" fill-opacity="1.000000" />
<path d="M 482.015625 19.498047 L 482.015625 19.981445 L 477.734863 19.981445 L 477.734863 20.013672 Q 477.691895 21.243652 478.204834 21.780762 Q 478.717773 22.317871 479.652344 22.317871 Q 480.125000 22.317871 480.640625 22.167480 Q 481.156250 22.017090 481.741699 21.710938 L 481.741699 22.693848 Q 481.177734 22.924805 480.654053 23.040283 Q 480.130371 23.155762 479.641602 23.155762 Q 478.239746 23.155762 477.450195 22.315186 Q 476.660645 21.474609 476.660645 19.997559 Q 476.660645 18.558105 477.434082 17.698730 Q 478.207520 16.839355 479.496582 16.839355 Q 480.645996 16.839355 481.309326 17.618164 Q 481.972656 18.396973 482.015625 19.498047 Z M 481.027344 19.208008 Q 480.962891 18.584961 480.573486 18.131104 Q 480.184082 17.677246 479.453613 17.677246 Q 478.739258 17.677246 478.277344 18.149902 Q 477.815430 18.622559 477.772461 19.213379 Z " fill="rgb(0, 0, 0)" fill-opacity="1.000000" />
<path d="M 485.014160 22.242676 L 485.014160 25.288086 L 484.020508 25.288086 L 484.020508 16.984375 L 485.014160 16.984375 L 485.014160 17.752441 Q 485.261230 17.306641 485.672119 17.072998 Q 486.083008 16.839355 486.620117 16.839355 Q 487.710449 16.839355 488.330811 17.682617 Q 488.951172 18.525879 488.951172 20.019043 Q 488.951172 21.485352 488.328125 22.320557 Q 487.705078 23.155762 486.620117 23.155762 Q 486.072266 23.155762 485.661377 22.922119 Q 485.250488 22.688477 485.014160 22.242676 Z M 487.914551 19.997559 Q 487.914551 18.848145 487.552002 18.262695 Q 487.189453 17.677246 486.475098 17.677246 Q 485.755371 17.677246 485.384766 18.265381 Q 485.014160 18.853516 485.014160 19.997559 Q 485.014160 21.136230 485.384766 21.727051 Q 485.755371 22.317871 486.475098 22.317871 Q 487.189453 22.317871 487.552002 21.732422 Q 487.914551 21.146973 487.914551 19.997559 Z " fill="rgb(0, 0, 0)" fill-opacity="1.000000" />
<path d="M 493.861816 20.824707 Q 493.861816 21.490723 494.106201 21.829102 Q 494.350586 22.167480 494.828613 22.167480 L 495.983398 22.167480 L 495.983398 23.000000 L 494.731934 23.000000 Q 493.845703 23.000000 493.359619 22.433350 Q 492.873535 21.866699 492.873535 20.824707 L 492.873535 15.383789 L 491.289062 15.383789 L 491.289062 14.610352 L 493.861816 14.610352 Z " fill="rgb(0, 0, 0)" fill-opacity="1.000000" />
<path d="M 498.697266 17.005859 L 501.227051 17.005859 L 501.227051 22.231934 L 503.187500 22.231934 L 503.187500 23.000000 L 498.278320 23.000000 L 498.278320 22.231934 L 500.238770 22.231934 L 500.238770 17.773926 L 498.697266 17.773926 Z M 500.238770 14.669434 L 501.227051 14.669434 L 501.227051 15.915527 L 500.238770 15.915527 Z " fill="rgb(0, 0, 0)" fill-opacity="1.000000" />
<path d="M 509.698730 22.693848 Q 509.301270 22.924805 508.879639 23.040283 Q 508.458008 23.155762 508.017578 23.155762 Q 506.621094 23.155762 505.834229 22.317871 Q 505.047363 21.479980 505.047363 19.997559 Q 505.047363 18.515137 505.834229 17.677246 Q 506.621094 16.839355 508.017578 16.839355 Q 508.452637 16.839355 508.866211 16.952148 Q 509.279785 17.064941 509.698730 17.301270 L 509.698730 18.337891 Q 509.306641 17.988770 508.911865 17.833008 Q 508.517090 17.677246 508.017578 17.677246 Q 507.088379 17.677246 506.588867 18.278809 Q 506.089355 18.880371 506.089355 19.997559 Q 506.089355 21.109375 506.591553 21.713623 Q 507.093750 22.317871 508.017578 22.317871 Q 508.533203 22.317871 508.941406 22.159424 Q 509.349609 22.000977 509.698730 21.667969 Z " fill="rgb(0, 0, 0)" fill-opacity="1.000000" />
<path d="M 514.770508 19.976074 L 514.442871 19.976074 Q 513.578125 19.976074 513.140381 20.279541 Q 512.702637 20.583008 512.702637 21.184570 Q 512.702637 21.727051 513.030273 22.027832 Q 513.357910 22.328613 513.937988 22.328613 Q 514.754395 22.328613 515.221680 21.761963 Q 515.688965 21.195312 515.694336 20.196289 L 515.694336 19.976074 Z M 516.687988 19.567871 L 516.687988 23.000000 L 515.694336 23.000000 L 515.694336 22.108398 Q 515.377441 22.645508 514.896729 22.900635 Q 514.416016 23.155762 513.728516 23.155762 Q 512.810059 23.155762 512.262207 22.637451 Q 511.714355 22.119141 511.714355 21.249023 Q 511.714355 20.244629 512.388428 19.723633 Q 513.062500 19.202637 514.367676 19.202637 L 515.694336 19.202637 L 515.694336 19.046875 Q 515.688965 18.327148 515.329102 18.002197 Q 514.969238 17.677246 514.179688 17.677246 Q 513.674805 17.677246 513.159180 17.822266 Q 512.643555 17.967285 512.154785 18.246582 L 512.154785 17.258301 Q 512.702637 17.048828 513.204834 16.944092 Q 513.707031 16.839355 514.179688 16.839355 Q 514.926270 16.839355 515.455322 17.059570 Q 515.984375 17.279785 516.312012 17.720215 Q 516.516113 17.988770 516.602051 18.383545 Q 516.687988 18.778320 516.687988 19.567871 Z " fill="rgb(0, 0, 0)" fill-opacity="1.000000" />
<path d="M 521.297852 15.276367 L 521.297852 16.984375 L 523.542969 16.984375 L 523.542969 17.752441 L 521.297852 17.752441 L 521.297852 21.018066 Q 521.297852 21.684082 521.550293 21.947266 Q 521.802734 22.210449 522.431152 22.210449 L 523.542969 22.210449 L 523.542969 23.000000 L 522.334473 23.000000 Q 521.222656 23.000000 520.766113 22.554199 Q 520.309570 22.108398 520.309570 21.018066 L 520.309570 17.752441 L 518.703613 17.752441 L 518.703613 16.984375 L 520.309570 16.984375 L 520.309570 15.276367 Z " fill="rgb(0, 0, 0)" fill-opacity="1.000000" />
<path d="M 526.697266 17.005859 L 529.227051 17.005859 L 529.227051 22.231934 L 531.187500 22.231934 L 531.187500 23.000000 L 526.278320 23.000000 L 526.278320 22.231934 L 528.238770 22.231934 L 528.238770 17.773926 L 526.697266 17.773926 Z M 528.238770 14.669434 L 529.227051 14.669434 L 529.227051 15.915527 L 528.238770 15.915527 Z " fill="rgb(0, 0, 0)" fill-opacity="1.000000" />
<path d="M 535.308594 17.677246 Q 534.556641 17.677246 534.169922 18.262695 Q 533.783203 18.848145 533.783203 19.997559 Q 533.783203 21.141602 534.169922 21.729736 Q 534.556641 22.317871 535.308594 22.317871 Q 536.065918 22.317871 536.452637 21.729736 Q 536.839355 21.141602 536.839355 19.997559 Q 536.839355 18.848145 536.452637 18.262695 Q 536.065918 17.677246 535.308594 17.677246 Z M 535.308594 16.839355 Q 536.560059 16.839355 537.223389 17.650391 Q 537.886719 18.461426 537.886719 19.997559 Q 537.886719 21.539062 537.226074 22.347412 Q 536.565430 23.155762 535.308594 23.155762 Q 534.057129 23.155762 533.396484 22.347412 Q 532.735840 21.539062 532.735840 19.997559 Q 532.735840 18.461426 533.396484 17.650391 Q 534.057129 16.839355 535.308594 16.839355 Z " fill="rgb(0, 0, 0)" fill-opacity="1.000000" />
<path d="M 544.645020 19.272461 L 544.645020 23.000000 L 543.651367 23.000000 L 543.651367 19.272461 Q 543.651367 18.461426 543.366699 18.080078 Q 543.082031 17.698730 542.475098 17.698730 Q 541.782227 17.698730 541.408936 18.190186 Q 541.035645 18.681641 541.035645 19.600098 L 541.035645 23.000000 L 540.047363 23.000000 L 540.047363 16.984375 L 541.035645 16.984375 L 541.035645 17.886719 Q 541.298828 17.371094 541.750000 17.105225 Q 542.201172 16.839355 542.818848 16.839355 Q 543.737305 16.839355 544.191162 17.443604 Q 544.645020 18.047852 544.645020 19.272461 Z " fill="rgb(0, 0, 0)" fill-opacity="1.000000" />
<path d="M 556.861816 20.824707 Q 556.861816 21.490723 557.106201 21.829102 Q 557.350586 22.167480 557.828613 22.167480 L 558.983398 22.167480 L 558.983398 23.000000 L 557.731934 23.000000 Q 556.845703 23.000000 556.359619 22.433350 Q 555.873535 21.866699 555.873535 20.824707 L 555.873535 15.383789 L 554.289062 15.383789 L 554.289062 14.610352 L 556.861816 14.610352 Z " fill="rgb(0, 0, 0)" fill-opacity="1.000000" />
<path d="M 563.770508 19.976074 L 563.442871 19.976074 Q 562.578125 19.976074 562.140381 20.279541 Q 561.702637 20.583008 561.702637 21.184570 Q 561.702637 21.727051 562.030273 22.027832 Q 562.357910 22.328613 562.937988 22.328613 Q 563.754395 22.328613 564.221680 21.761963 Q 564.688965 21.195312 564.694336 20.196289 L 564.694336 19.976074 Z M 565.687988 19.567871 L 565.687988 23.000000 L 564.694336 23.000000 L 564.694336 22.108398 Q 564.377441 22.645508 563.896729 22.900635 Q 563.416016 23.155762 562.728516 23.155762 Q 561.810059 23.155762 561.262207 22.637451 Q 560.714355 22.119141 560.714355 21.249023 Q 560.714355 20.244629 561.388428 19.723633 Q 562.062500 19.202637 563.367676 19.202637 L 564.694336 19.202637 L 564.694336 19.046875 Q 564.688965 18.327148 564.329102 18.002197 Q 563.969238 17.677246 563.179688 17.677246 Q 562.674805 17.677246 562.159180 17.822266 Q 561.643555 17.967285 561.154785 18.246582 L 561.154785 17.258301 Q 561.702637 17.048828 562.204834 16.944092 Q 562.707031 16.839355 563.179688 16.839355 Q 563.926270 16.839355 564.455322 17.059570 Q 564.984375 17.279785 565.312012 17.720215 Q 565.516113 17.988770 565.602051 18.383545 Q 565.687988 18.778320 565.687988 19.567871 Z " fill="rgb(0, 0, 0)" fill-opacity="1.000000" />
<path d="M 571.608398 19.943848 Q 571.608398 18.832031 571.245850 18.254639 Q 570.883301 17.677246 570.190430 17.677246 Q 569.465332 17.677246 569.083984 18.254639 Q 568.702637 18.832031 568.702637 19.943848 Q 568.702637 21.055664 569.086670 21.638428 Q 569.470703 22.221191 570.201172 22.221191 Q 570.883301 22.221191 571.245850 21.635742 Q 571.608398 21.050293 571.608398 19.943848 Z M 572.596680 22.613281 Q 572.596680 23.966797 571.957520 24.665039 Q 571.318359 25.363281 570.077637 25.363281 Q 569.669434 25.363281 569.223633 25.288086 Q 568.777832 25.212891 568.332031 25.067871 L 568.332031 24.090332 Q 568.858398 24.337402 569.288086 24.455566 Q 569.717773 24.573730 570.077637 24.573730 Q 570.877930 24.573730 571.243164 24.138672 Q 571.608398 23.703613 571.608398 22.758301 L 571.608398 22.715332 L 571.608398 22.043945 Q 571.372070 22.548828 570.963867 22.795898 Q 570.555664 23.042969 569.970215 23.042969 Q 568.917480 23.042969 568.289062 22.199707 Q 567.660645 21.356445 567.660645 19.943848 Q 567.660645 18.525879 568.289062 17.682617 Q 568.917480 16.839355 569.970215 16.839355 Q 570.550293 16.839355 570.953125 17.070312 Q 571.355957 17.301270 571.608398 17.784668 L 571.608398 17.005859 L 572.596680 17.005859 Z " fill="rgb(0, 0, 0)" fill-opacity="1.000000" />
<path d="M 632.878906 26.319336 L 632.878906 12.300781 L 633.738281 12.300781 L 633.738281 26.319336 Z " fill="rgb(0, 0, 0)" fill-opacity="1.000000" />
<path d="M 48.892578 7.335938 L 48.892578 6.412109 L 55.729980 6.412109 L 55.729980 7.335938 Z " fill="rgb(0, 0, 0)" fill-opacity="1.000000" />
<path d="M 55.892578 7.335938 L 55.892578 6.412109 L 62.729980 6.412109 L 62.729980 7.335938 Z " fill="rgb(0, 0, 0)" fill-opacity="1.000000" />
<path d="M 62.892578 7.335938 L 62.892578 6.412109 L 69.729980 6.412109 L 69.729980 7.335938 Z " fill="rgb(0, 0, 0)" fill-opacity="1.000000" />
<path d="M 69.892578 7.335938 L 69.892578 6.412109 L 76.729980 6.412109 L 76.729980 7.335938 Z " fill="rgb(0, 0, 0)" fill-opacity="1.000000" />
<path d="M 76.892578 7.335938 L 76.892578 6.412109 L 83.729980 6.412109 L 83.729980 7.335938 Z " fill="rgb(0, 0, 0)" fill-opacity="1.000000" />
<path d="M 83.892578 7.335938 L 83.892578 6.412109 L 90.729980 6.412109 L 90.729980 7.335938 Z " fill="rgb(0, 0, 0)" fill-opacity="1.000000" />
<path d="M 90.892578 7.335938 L 90.892578 6.412109 L 97.729980 6.412109 L 97.729980 7.335938 Z " fill="rgb(0, 0, 0)" fill-opacity="1.000000" />
<path d="M 97.892578 7.335938 L 97.892578 6.412109 L 104.729980 6.412109 L 104.729980 7.335938 Z " fill="rgb(0, 0, 0)" fill-opacity="1.000000" />
<path d="M 104.892578 7.335938 L 104.892578 6.412109 L 111.729980 6.412109 L 111.729980 7.335938 Z " fill="rgb(0, 0, 0)" fill-opacity="1.000000" />
<path d="M 111.892578 7.335938 L 111.892578 6.412109 L 118.729980 6.412109 L 118.729980 7.335938 Z " fill="rgb(0, 0, 0)" fill-opacity="1.000000" />
<path d="M 118.892578 7.335938 L 118.892578 6.412109 L 125.729980 6.412109 L 125.729980 7.335938 Z " fill="rgb(0, 0, 0)" fill-opacity="1.000000" />
<path d="M 125.892578 7.335938 L 125.892578 6.412109 L 132.729980 6.412109 L 132.729980 7.335938 Z " fill="rgb(0, 0, 0)" fill-opacity="1.000000" />
<path d="M 132.892578 7.335938 L 132.892578 6.412109 L 139.729980 6.412109 L 139.729980 7.335938 Z " fill="rgb(0, 0, 0)" fill-opacity="1.000000" />
<path d="M 139.892578 7.335938 L 139.892578 6.412109 L 146.729980 6.412109 L 146.729980 7.335938 Z " fill="rgb(0, 0, 0)" fill-opacity="1.000000" />
<path d="M 146.892578 7.335938 L 146.892578 6.412109 L 153.729980 6.412109 L 153.729980 7.335938 Z " fill="rgb(0, 0, 0)" fill-opacity="1.000000" />
<path d="M 153.892578 7.335938 L 153.892578 6.412109 L 160.729980 6.412109 L 160.729980 7.335938 Z " fill="rgb(0, 0, 0)" fill-opacity="1.000000" />
<path d="M 160.892578 7.335938 L 160.892578 6.412109 L 167.729980 6.412109 L 167.729980 7.335938 Z " fill="rgb(0, 0, 0)" fill-opacity="1.000000" />
<path d="M 167.892578 7.335938 L 167.892578 6.412109 L 174.729980 6.412109 L 174.729980 7.335938 Z " fill="rgb(0, 0, 0)" fill-opacity="1.000000" />
<path d="M 174.892578 7.335938 L 174.892578 6.412109 L 181.729980 6.412109 L 181.729980 7.335938 Z " fill="rgb(0, 0, 0)" fill-opacity="1.000000" />
<path d="M 181.892578 7.335938 L 181.892578 6.412109 L 188.729980 6.412109 L 188.729980 7.335938 Z " fill="rgb(0, 0, 0)" fill-opacity="1.000000" />
<path d="M 188.892578 7.335938 L 188.892578 6.412109 L 195.729980 6.412109 L 195.729980 7.335938 Z " fill="rgb(0, 0, 0)" fill-opacity="1.000000" />
<path d="M 195.892578 7.335938 L 195.892578 6.412109 L 202.729980 6.412109 L 202.729980 7.335938 Z " fill="rgb(0, 0, 0)" fill-opacity="1.000000" />
<path d="M 202.892578 7.335938 L 202.892578 6.412109 L 209.729980 6.412109 L 209.729980 7.335938 Z " fill="rgb(0, 0, 0)" fill-opacity="1.000000" />
<path d="M 209.892578 7.335938 L 209.892578 6.412109 L 216.729980 6.412109 L 216.729980 7.335938 Z " fill="rgb(0, 0, 0)" fill-opacity="1.000000" />
<path d="M 216.892578 7.335938 L 216.892578 6.412109 L 223.729980 6.412109 L 223.729980 7.335938 Z " fill="rgb(0, 0, 0)" fill-opacity="1.000000" />
<path d="M 223.892578 7.335938 L 223.892578 6.412109 L 230.729980 6.412109 L 230.729980 7.335938 Z " fill="rgb(0, 0, 0)" fill-opacity="1.000000" />
<path d="M 230.892578 7.335938 L 230.892578 6.412109 L 237.729980 6.412109 L 237.729980 7.335938 Z " fill="rgb(0, 0, 0)" fill-opacity="1.000000" />
<path d="M 237.892578 7.335938 L 237.892578 6.412109 L 244.729980 6.412109 L 244.729980 7.335938 Z " fill="rgb(0, 0, 0)" fill-opacity="1.000000" />
<path d="M 244.892578 7.335938 L 244.892578 6.412109 L 251.729980 6.412109 L 251.729980 7.335938 Z " fill="rgb(0, 0, 0)" fill-opacity="1.000000" />
<path d="M 251.892578 7.335938 L 251.892578 6.412109 L 258.729980 6.412109 L 258.729980 7.335938 Z " fill="rgb(0, 0, 0)" fill-opacity="1.000000" />
<path d="M 258.892578 7.335938 L 258.892578 6.412109 L 265.729980 6.412109 L 265.729980 7.335938 Z " fill="rgb(0, 0, 0)" fill-opacity="1.000000" />
<path d="M 265.892578 7.335938 L 265.892578 6.412109 L 272.729980 6.412109 L 272.729980 7.335938 Z " fill="rgb(0, 0, 0)" fill-opacity="1.000000" />
<path d="M 272.892578 7.335938 L 272.892578 6.412109 L 279.729980 6.412109 L 279.729980 7.335938 Z " fill="rgb(0, 0, 0)" fill-opacity="1.000000" />
<path d="M 279.892578 7.335938 L 279.892578 6.412109 L 286.729980 6.412109 L 286.729980 7.335938 Z " fill="rgb(0, 0, 0)" fill-opacity="1.000000" />
<path d="M 286.892578 7.335938 L 286.892578 6.412109 L 293.729980 6.412109 L 293.729980 7.335938 Z " fill="rgb(0, 0, 0)" fill-opacity="1.000000" />
<path d="M 293.892578 7.335938 L 293.892578 6.412109 L 300.729980 6.412109 L 300.729980 7.335938 Z " fill="rgb(0, 0, 0)" fill-opacity="1.000000" />
<path d="M 300.892578 7.335938 L 300.892578 6.412109 L 307.729980 6.412109 L 307.729980 7.335938 Z " fill="rgb(0, 0, 0)" fill-opacity="1.000000" />
<path d="M 307.892578 7.335938 L 307.892578 6.412109 L 314.729980 6.412109 L 314.729980 7.335938 Z " fill="rgb(0, 0, 0)" fill-opacity="1.000000" />
<path d="M 314.892578 7.335938 L 314.892578 6.412109 L 321.729980 6.412109 L 321.729980 7.335938 Z " fill="rgb(0, 0, 0)" fill-opacity="1.000000" />
<path d="M 321.892578 7.335938 L 321.892578 6.412109 L 328.729980 6.412109 L 328.729980 7.335938 Z " fill="rgb(0, 0, 0)" fill-opacity="1.000000" />
<path d="M 328.892578 7.335938 L 328.892578 6.412109 L 335.729980 6.412109 L 335.729980 7.335938 Z " fill="rgb(0, 0, 0)" fill-opacity="1.000000" />
<path d="M 335.892578 7.335938 L 335.892578 6.412109 L 342.729980 6.412109 L 342.729980 7.335938 Z " fill="rgb(0, 0, 0)" fill-opacity="1.000000" />
<path d="M 342.892578 7.335938 L 342.892578 6.412109 L 349.729980 6.412109 L 349.729980 7.335938 Z " fill="rgb(0, 0, 0)" fill-opacity="1.000000" />
<path d="M 349.892578 7.335938 L 349.892578 6.412109 L 356.729980 6.412109 L 356.729980 7.335938 Z " fill="rgb(0, 0, 0)" fill-opacity="1.000000" />
<path d="M 356.892578 7.335938 L 356.892578 6.412109 L 363.729980 6.412109 L 363.729980 7.335938 Z " fill="rgb(0, 0, 0)" fill-opacity="1.000000" />
<path d="M 363.892578 7.335938 L 363.892578 6.412109 L 370.729980 6.412109 L 370.729980 7.335938 Z " fill="rgb(0, 0, 0)" fill-opacity="1.000000" />
<path d="M 370.892578 7.335938 L 370.892578 6.412109 L 377.729980 6.412109 L 377.729980 7.335938 Z " fill="rgb(0, 0, 0)" fill-opacity="1.000000" />
<path d="M 377.892578 7.335938 L 377.892578 6.412109 L 384.729980 6.412109 L 384.729980 7.335938 Z " fill="rgb(0, 0, 0)" fill-opacity="1.000000" />
<path d="M 384.892578 7.335938 L 384.892578 6.412109 L 391.729980 6.412109 L 391.729980 7.335938 Z " fill="rgb(0, 0, 0)" fill-opacity="1.000000" />
<path d="M 391.892578 7.335938 L 391.892578 6.412109 L 398.729980 6.412109 L 398.729980 7.335938 Z " fill="rgb(0, 0, 0)" fill-opacity="1.000000" />
<path d="M 398.892578 7.335938 L 398.892578 6.412109 L 405.729980 6.412109 L 405.729980 7.335938 Z " fill="rgb(0, 0, 0)" fill-opacity="1.000000" />
<path d="M 408.878906 13.319336 L 408.878906 7.335938 L 405.892578 7.335938 L 405.892578 6.412109 L 412.729980 6.412109 L 412.729980 7.335938 L 409.738281 7.335938 L 409.738281 13.319336 Z " fill="rgb(0, 0, 0)" fill-opacity="1.000000" />
<path d="M 412.892578 7.335938 L 412.892578 6.412109 L 419.729980 6.412109 L 419.729980 7.335938 Z " fill="rgb(0, 0, 0)" fill-opacity="1.000000" />
<path d="M 419.892578 7.335938 L 419.892578 6.412109 L 426.729980 6.412109 L 426.729980 7.335938 Z " fill="rgb(0, 0, 0)" fill-opacity="1.000000" />
<path d="M 426.892578 7.335938 L 426.892578 6.412109 L 433.729980 6.412109 L 433.729980 7.335938 Z " fill="rgb(0, 0, 0)" fill-opacity="1.000000" />
<path d="M 433.892578 7.335938 L 433.892578 6.412109 L 440.729980 6.412109 L 440.729980 7.335938 Z " fill="rgb(0, 0, 0)" fill-opacity="1.000000" />
<path d="M 440.892578 7.335938 L 440.892578 6.412109 L 447.729980 6.412109 L 447.729980 7.335938 Z " fill="rgb(0, 0, 0)" fill-opacity="1.000000" />
<path d="M 447.892578 7.335938 L 447.892578 6.412109 L 454.729980 6.412109 L 454.729980 7.335938 Z " fill="rgb(0, 0, 0)" fill-opacity="1.000000" />
<path d="M 454.892578 7.335938 L 454.892578 6.412109 L 461.729980 6.412109 L 461.729980 7.335938 Z " fill="rgb(0, 0, 0)" fill-opacity="1.000000" />
<path d="M 461.892578 7.335938 L 461.892578 6.412109 L 468.729980 6.412109 L 468.729980 7.335938 Z " fill="rgb(0, 0, 0)" fill-opacity="1.000000" />
<path d="M 468.892578 7.335938 L 468.892578 6.412109 L 475.729980 6.412109 L 475.729980 7.335938 Z " fill="rgb(0, 0, 0)" fill-opacity="1.000000" />
<path d="M 475.892578 7.335938 L 475.892578 6.412109 L 482.729980 6.412109 L 482.729980 7.335938 Z " fill="rgb(0, 0, 0)" fill-opacity="1.000000" />
<path d="M 482.892578 7.335938 L 482.892578 6.412109 L 489.729980 6.412109 L 489.729980 7.335938 Z " fill="rgb(0, 0, 0)" fill-opacity="1.000000" />
<path d="M 489.892578 7.335938 L 489.892578 6.412109 L 496.729980 6.412109 L 496.729980 7.335938 Z " fill="rgb(0, 0, 0)" fill-opacity="1.000000" />
<path d="M 496.892578 7.335938 L 496.892578 6.412109 L 503.729980 6.412109 L 503.729980 7.335938 Z " fill="rgb(0, 0, 0)" fill-opacity="1.000000" />
<path d="M 503.892578 7.335938 L 503.892578 6.412109 L 510.729980 6.412109 L 510.729980 7.335938 Z " fill="rgb(0, 0, 0)" fill-opacity="1.000000" />
<path d="M 510.892578 7.335938 L 510.892578 6.412109 L 517.729980 6.412109 L 517.729980 7.335938 Z " fill="rgb(0, 0, 0)" fill-opacity="1.000000" />
<path d="M 517.892578 7.335938 L 517.892578 6.412109 L 524.729980 6.412109 L 524.729980 7.335938 Z " fill="rgb(0, 0, 0)" fill-opacity="1.000000" />
<path d="M 524.892578 7.335938 L 524.892578 6.412109 L 531.729980 6.412109 L 531.729980 7.335938 Z " fill="rgb(0, 0, 0)" fill-opacity="1.000000" />
<path d="M 531.892578 7.335938 L 531.892578 6.412109 L 538.729980 6.412109 L 538.729980 7.335938 Z " fill="rgb(0, 0, 0)" fill-opacity="1.000000" />
<path d="M 538.892578 7.335938 L 538.892578 6.412109 L 545.729980 6.412109 L 545.729980 7.335938 Z " fill="rgb(0, 0, 0)" fill-opacity="1.000000" />
<path d="M 545.892578 7.335938 L 545.892578 6.412109 L 552.729980 6.412109 L 552.729980 7.335938 Z " fill="rgb(0, 0, 0)" fill-opacity="1.000000" />
<path d="M 552.892578 7.335938 L 552.892578 6.412109 L 559.729980 6.412109 L 559.729980 7.335938 Z " fill="rgb(0, 0, 0)" fill-opacity="1.000000" />
<path d="M 559.892578 7.335938 L 559.892578 6.412109 L 566.729980 6.412109 L 566.729980 7.335938 Z " fill="rgb(0, 0, 0)" fill-opacity="1.000000" />
<path d="M 566.892578 7.335938 L 566.892578 6.412109 L 573.729980 6.412109 L 573.729980 7.335938 Z " fill="rgb(0, 0, 0)" fill-opacity="1.000000" />
<path d="M 573.892578 7.335938 L 573.892578 6.412109 L 580.729980 6.412109 L 580.729980 7.335938 Z " fill="rgb(0, 0, 0)" fill-opacity="1.000000" />
<path d="M 580.892578 7.335938 L 580.892578 6.412109 L 587.729980 6.412109 L 587.729980 7.335938 Z " fill="rgb(0, 0, 0)" fill-opacity="1.000000" />
<path d="M 587.892578 7.335938 L 587.892578 6.412109 L 594.729980 6.412109 L 594.729980 7.335938 Z " fill="rgb(0, 0, 0)" fill-opacity="1.000000" />
<path d="M 594.892578 7.335938 L 594.892578 6.412109 L 601.729980 6.412109 L 601.729980 7.335938 Z " fill="rgb(0, 0, 0)" fill-opacity="1.000000" />
<path d="M 601.892578 7.335938 L 601.892578 6.412109 L 608.729980 6.412109 L 608.729980 7.335938 Z " fill="rgb(0, 0, 0)" fill-opacity="1.000000" />
<path d="M 608.892578 7.335938 L 608.892578 6.412109 L 615.729980 6.412109 L 615.729980 7.335938 Z " fill="rgb(0, 0, 0)" fill-opacity="1.000000" />
<path d="M 615.892578 7.335938 L 615.892578 6.412109 L 622.729980 6.412109 L 622.729980 7.335938 Z " fill="rgb(0, 0, 0)" fill-opacity="1.000000" />
<path d="M 622.892578 7.335938 L 622.892578 6.412109 L 629.729980 6.412109 L 629.729980 7.335938 Z " fill="rgb(0, 0, 0)" fill-opacity="1.000000" />
<path d="M 632.878906 13.319336 L 632.878906 7.335938 L 629.892578 7.335938 L 629.892578 6.412109 L 633.738281 6.412109 L 633.738281 13.319336 Z " fill="rgb(0, 0, 0)" fill-opacity="1.000000" />
</svg>