<svg height="81" width="481" xmlns="http://www.w3.org/2000/svg"><style>svg {
  font-family: ui-monospace, SFMono-Regular, Menlo, Monaco, Consolas, "Liberation Mono", "Courier New", monospace;
}
text {
  fill: #2f3337;
  font-size: 14px;
}
rect {
  fill: #ffffff;
  stroke: #3a3d40;
  stroke-width: 2;
}
rect.terminal {
  fill: #ffffff;
}
rect.nonterminal {
  fill: #ffffff;
}
text.terminal {
  fill: #2f3337;
  font-weight: 600;
}
text.nonterminal {
  fill: #2563eb;
}
a text.nonterminal {
  text-decoration: underline;
}
path.line {
  fill: none;
  stroke: #3a3d40;
  stroke-width: 2;
}
polygon {
  fill: #2f3337;
  stroke: #2f3337;
}</style>
<polygon points="9 17 1 13 1 21"></polygon>
<polygon points="17 17 9 13 9 21"></polygon>
<rect height="32" rx="10" width="64" x="31" y="3"></rect>
<rect class="terminal" height="32" rx="10" width="64" x="29" y="1"></rect>
<text class="terminal" x="39" y="21">SHOW</text>
<rect height="32" rx="10" width="44" x="135" y="35"></rect>
<rect class="terminal" height="32" rx="10" width="44" x="133" y="33"></rect>
<text class="terminal" x="143" y="53">ALL</text>
<rect height="32" rx="10" width="82" x="239" y="3"></rect>
<rect class="terminal" height="32" rx="10" width="82" x="237" y="1"></rect>
<text class="terminal" x="247" y="21">CLUSTER</text>
<rect height="32" rx="10" width="64" x="239" y="47"></rect>
<rect class="terminal" height="32" rx="10" width="64" x="237" y="45"></rect>
<text class="terminal" x="247" y="65">LOCAL</text>
<rect height="32" rx="10" width="92" x="361" y="3"></rect>
<rect class="terminal" height="32" rx="10" width="92" x="359" y="1"></rect>
<text class="terminal" x="369" y="21">SESSIONS</text>
<path class="line" d="m17 17 h2 m0 0 h10 m64 0 h10 m20 0 h10 m0 0 h54 m-84 0 h20 m64 0 h20 m-104 0 q10 0 10 10 m84 0 q0 -10 10 -10 m-94 10 v12 m84 0 v-12 m-84 12 q0 10 10 10 m64 0 q10 0 10 -10 m-74 10 h10 m44 0 h10 m40 -32 h10 m82 0 h10 m-122 0 h20 m102 0 h20 m-142 0 q10 0 10 10 m122 0 q0 -10 10 -10 m-132 10 v24 m122 0 v-24 m-122 24 q0 10 10 10 m102 0 q10 0 10 -10 m-112 10 h10 m64 0 h10 m0 0 h18 m20 -44 h10 m92 0 h10 m3 0 h-3"></path>
<polygon points="471 17 479 13 479 21"></polygon>
<polygon points="471 17 463 13 463 21"></polygon></svg>