<svg height="187" width="689" xmlns="http://www.w3.org/2000/svg" xmlns:xlink="http://www.w3.org/1999/xlink"><style>svg {
  font-family: ui-monospace, SFMono-Regular, Menlo, Monaco, Consolas, "Liberation Mono", "Courier New", monospace;
}
text {
  fill: #2f3337;
  font-size: 14px;
}
rect {
  fill: #ffffff;
  stroke: #3a3d40;
  stroke-width: 2;
}
rect.terminal {
  fill: #ffffff;
}
rect.nonterminal {
  fill: #ffffff;
}
text.terminal {
  fill: #2f3337;
  font-weight: 600;
}
text.nonterminal {
  fill: #2563eb;
}
a text.nonterminal {
  text-decoration: underline;
}
path.line {
  fill: none;
  stroke: #3a3d40;
  stroke-width: 2;
}
polygon {
  fill: #2f3337;
  stroke: #2f3337;
}</style>
<polygon points="9 17 1 13 1 21"></polygon>
<polygon points="17 17 9 13 9 21"></polygon>
<rect height="32" rx="10" width="64" x="31" y="3"></rect>
<rect class="terminal" height="32" rx="10" width="64" x="29" y="1"></rect>
<text class="terminal" x="39" y="21">SHOW</text>
<rect height="32" rx="10" width="72" x="115" y="3"></rect>
<rect class="terminal" height="32" rx="10" width="72" x="113" y="1"></rect>
<text class="terminal" x="123" y="21">TABLES</text>
<rect height="32" rx="10" width="60" x="227" y="35"></rect>
<rect class="terminal" height="32" rx="10" width="60" x="225" y="33"></rect>
<text class="terminal" x="235" y="53">FROM</text><a xlink:href="/docs/stable/sql-grammar#database_name" xlink:title="database_name">
<rect height="32" width="124" x="307" y="35"></rect>
<rect class="nonterminal" height="32" width="124" x="305" y="33"></rect>
<text lengthAdjust="spacingAndGlyphs" textLength="100" font-size="12" class="nonterminal" x="317" y="53">database_name</text></a><rect height="32" rx="10" width="24" x="471" y="67"></rect>
<rect class="terminal" height="32" rx="10" width="24" x="469" y="65"></rect>
<text class="terminal" x="479" y="85">.</text>
<rect height="32" width="112" x="515" y="67"></rect>
<rect class="nonterminal" height="32" width="112" x="513" y="65"></rect>
<text lengthAdjust="spacingAndGlyphs" textLength="88" font-size="12" class="nonterminal" x="525" y="85">schema_name</text><rect height="32" rx="10" width="58" x="475" y="153"></rect>
<rect class="terminal" height="32" rx="10" width="58" x="473" y="151"></rect>
<text class="terminal" x="483" y="171">WITH</text>
<rect height="32" rx="10" width="88" x="553" y="153"></rect>
<rect class="terminal" height="32" rx="10" width="88" x="551" y="151"></rect>
<text class="terminal" x="561" y="171">COMMENT</text>
<path class="line" d="m17 17 h2 m0 0 h10 m64 0 h10 m0 0 h10 m72 0 h10 m20 0 h10 m0 0 h430 m-460 0 h20 m440 0 h20 m-480 0 q10 0 10 10 m460 0 q0 -10 10 -10 m-470 10 v12 m460 0 v-12 m-460 12 q0 10 10 10 m440 0 q10 0 10 -10 m-450 10 h10 m60 0 h10 m0 0 h10 m124 0 h10 m20 0 h10 m0 0 h166 m-196 0 h20 m176 0 h20 m-216 0 q10 0 10 10 m196 0 q0 -10 10 -10 m-206 10 v12 m196 0 v-12 m-196 12 q0 10 10 10 m176 0 q10 0 10 -10 m-186 10 h10 m24 0 h10 m0 0 h10 m112 0 h10 m42 -64 l2 0 m2 0 l2 0 m2 0 l2 0 m-256 118 l2 0 m2 0 l2 0 m2 0 l2 0 m22 0 h10 m0 0 h176 m-206 0 h20 m186 0 h20 m-226 0 q10 0 10 10 m206 0 q0 -10 10 -10 m-216 10 v12 m206 0 v-12 m-206 12 q0 10 10 10 m186 0 q10 0 10 -10 m-196 10 h10 m58 0 h10 m0 0 h10 m88 0 h10 m23 -32 h-3"></path>
<polygon points="679 135 687 131 687 139"></polygon>
<polygon points="679 135 671 131 671 139"></polygon></svg>