<svg height="737" width="683" xmlns="http://www.w3.org/2000/svg" xmlns:xlink="http://www.w3.org/1999/xlink"><style>svg {
  font-family: ui-monospace, SFMono-Regular, Menlo, Monaco, Consolas, "Liberation Mono", "Courier New", monospace;
}
text {
  fill: #2f3337;
  font-size: 14px;
}
rect {
  fill: #ffffff;
  stroke: #3a3d40;
  stroke-width: 2;
}
rect.terminal {
  fill: #ffffff;
}
rect.nonterminal {
  fill: #ffffff;
}
text.terminal {
  fill: #2f3337;
  font-weight: 600;
}
text.nonterminal {
  fill: #2563eb;
}
a text.nonterminal {
  text-decoration: underline;
}
path.line {
  fill: none;
  stroke: #3a3d40;
  stroke-width: 2;
}
polygon {
  fill: #2f3337;
  stroke: #2f3337;
}</style>
<polygon points="9 17 1 13 1 21"></polygon>
<polygon points="17 17 9 13 9 21"></polygon>
<rect height="32" rx="10" width="72" x="31" y="3"></rect>
<rect class="terminal" height="32" rx="10" width="72" x="29" y="1"></rect>
<text class="terminal" x="39" y="21">CREATE</text>
<rect height="32" rx="10" width="40" x="143" y="35"></rect>
<rect class="terminal" height="32" rx="10" width="40" x="141" y="33"></rect>
<text class="terminal" x="151" y="53">OR</text>
<rect height="32" rx="10" width="80" x="203" y="35"></rect>
<rect class="terminal" height="32" rx="10" width="80" x="201" y="33"></rect>
<text class="terminal" x="211" y="53">REPLACE</text>
<rect height="32" rx="10" width="92" x="323" y="3"></rect>
<rect class="terminal" height="32" rx="10" width="92" x="321" y="1"></rect>
<text class="terminal" x="331" y="21">FUNCTION</text><a xlink:href="/docs/v23.2/sql-grammar#routine_create_name" xlink:title="routine_create_name">
<rect height="32" width="156" x="435" y="3"></rect>
<rect class="nonterminal" height="32" width="156" x="433" y="1"></rect>
<text lengthAdjust="spacingAndGlyphs" textLength="132" font-size="11" class="nonterminal" x="445" y="21">routine_create_name</text></a><rect height="32" rx="10" width="26" x="611" y="3"></rect>
<rect class="terminal" height="32" rx="10" width="26" x="609" y="1"></rect>
<text class="terminal" x="619" y="21">(</text><a xlink:href="/docs/v23.2/sql-grammar#routine_param" xlink:title="routine_param">
<rect height="32" width="114" x="65" y="145"></rect>
<rect class="nonterminal" height="32" width="114" x="63" y="143"></rect>
<text lengthAdjust="spacingAndGlyphs" textLength="90" font-size="11" class="nonterminal" x="75" y="163">routine_param</text></a><rect height="32" rx="10" width="24" x="65" y="101"></rect>
<rect class="terminal" height="32" rx="10" width="24" x="63" y="99"></rect>
<text class="terminal" x="73" y="119">,</text>
<rect height="32" rx="10" width="26" x="239" y="145"></rect>
<rect class="terminal" height="32" rx="10" width="26" x="237" y="143"></rect>
<text class="terminal" x="247" y="163">)</text>
<rect height="32" rx="10" width="84" x="285" y="145"></rect>
<rect class="terminal" height="32" rx="10" width="84" x="283" y="143"></rect>
<text class="terminal" x="293" y="163">RETURNS</text>
<rect height="32" rx="10" width="64" x="409" y="177"></rect>
<rect class="terminal" height="32" rx="10" width="64" x="407" y="175"></rect>
<text class="terminal" x="417" y="195">SETOF</text><a xlink:href="/docs/v23.2/sql-grammar#routine_return_type" xlink:title="routine_return_type">
<rect height="32" width="148" x="513" y="145"></rect>
<rect class="nonterminal" height="32" width="148" x="511" y="143"></rect>
<text lengthAdjust="spacingAndGlyphs" textLength="124" font-size="10" class="nonterminal" x="523" y="163">routine_return_type</text></a><rect height="32" rx="10" width="38" x="175" y="259"></rect>
<rect class="terminal" height="32" rx="10" width="38" x="173" y="257"></rect>
<text class="terminal" x="183" y="277">AS</text>
<rect height="32" width="130" x="233" y="259"></rect>
<rect class="nonterminal" height="32" width="130" x="231" y="257"></rect>
<text lengthAdjust="spacingAndGlyphs" textLength="106" font-size="10" class="nonterminal" x="243" y="277">routine_body_str</text><rect height="32" rx="10" width="94" x="175" y="303"></rect>
<rect class="terminal" height="32" rx="10" width="94" x="173" y="301"></rect>
<text class="terminal" x="183" y="321">LANGUAGE</text>
<rect height="32" rx="10" width="48" x="309" y="303"></rect>
<rect class="terminal" height="32" rx="10" width="48" x="307" y="301"></rect>
<text class="terminal" x="317" y="321">SQL</text>
<rect height="32" rx="10" width="84" x="309" y="347"></rect>
<rect class="terminal" height="32" rx="10" width="84" x="307" y="345"></rect>
<text class="terminal" x="317" y="365">PLPGSQL</text>
<rect height="32" rx="10" width="72" x="195" y="391"></rect>
<rect class="terminal" height="32" rx="10" width="72" x="193" y="389"></rect>
<text class="terminal" x="203" y="409">CALLED</text>
<rect height="32" rx="10" width="84" x="195" y="435"></rect>
<rect class="terminal" height="32" rx="10" width="84" x="193" y="433"></rect>
<text class="terminal" x="203" y="453">RETURNS</text>
<rect height="32" rx="10" width="56" x="299" y="435"></rect>
<rect class="terminal" height="32" rx="10" width="56" x="297" y="433"></rect>
<text class="terminal" x="307" y="453">NULL</text>
<rect height="32" rx="10" width="40" x="395" y="391"></rect>
<rect class="terminal" height="32" rx="10" width="40" x="393" y="389"></rect>
<text class="terminal" x="403" y="409">ON</text>
<rect height="32" rx="10" width="56" x="455" y="391"></rect>
<rect class="terminal" height="32" rx="10" width="56" x="453" y="389"></rect>
<text class="terminal" x="463" y="409">NULL</text>
<rect height="32" rx="10" width="64" x="531" y="391"></rect>
<rect class="terminal" height="32" rx="10" width="64" x="529" y="389"></rect>
<text class="terminal" x="539" y="409">INPUT</text>
<rect height="32" rx="10" width="70" x="175" y="479"></rect>
<rect class="terminal" height="32" rx="10" width="70" x="173" y="477"></rect>
<text class="terminal" x="183" y="497">STRICT</text>
<rect height="32" rx="10" width="102" x="175" y="523"></rect>
<rect class="terminal" height="32" rx="10" width="102" x="173" y="521"></rect>
<text class="terminal" x="183" y="541">IMMUTABLE</text>
<rect height="32" rx="10" width="72" x="175" y="567"></rect>
<rect class="terminal" height="32" rx="10" width="72" x="173" y="565"></rect>
<text class="terminal" x="183" y="585">STABLE</text>
<rect height="32" rx="10" width="88" x="175" y="611"></rect>
<rect class="terminal" height="32" rx="10" width="88" x="173" y="609"></rect>
<text class="terminal" x="183" y="629">VOLATILE</text>
<rect height="32" rx="10" width="48" x="195" y="687"></rect>
<rect class="terminal" height="32" rx="10" width="48" x="193" y="685"></rect>
<text class="terminal" x="203" y="705">NOT</text>
<rect height="32" rx="10" width="102" x="283" y="655"></rect>
<rect class="terminal" height="32" rx="10" width="102" x="281" y="653"></rect>
<text class="terminal" x="291" y="673">LEAKPROOF</text>
<path class="line" d="m17 17 h2 m0 0 h10 m72 0 h10 m20 0 h10 m0 0 h150 m-180 0 h20 m160 0 h20 m-200 0 q10 0 10 10 m180 0 q0 -10 10 -10 m-190 10 v12 m180 0 v-12 m-180 12 q0 10 10 10 m160 0 q10 0 10 -10 m-170 10 h10 m40 0 h10 m0 0 h10 m80 0 h10 m20 -32 h10 m92 0 h10 m0 0 h10 m156 0 h10 m0 0 h10 m26 0 h10 m2 0 l2 0 m2 0 l2 0 m2 0 l2 0 m-656 142 l2 0 m2 0 l2 0 m2 0 l2 0 m42 0 h10 m114 0 h10 m-154 0 l20 0 m-1 0 q-9 0 -9 -10 l0 -24 q0 -10 10 -10 m134 44 l20 0 m-20 0 q10 0 10 -10 l0 -24 q0 -10 -10 -10 m-134 0 h10 m24 0 h10 m0 0 h90 m-174 44 h20 m174 0 h20 m-214 0 q10 0 10 10 m194 0 q0 -10 10 -10 m-204 10 v14 m194 0 v-14 m-194 14 q0 10 10 10 m174 0 q10 0 10 -10 m-184 10 h10 m0 0 h164 m20 -34 h10 m26 0 h10 m0 0 h10 m84 0 h10 m20 0 h10 m0 0 h74 m-104 0 h20 m84 0 h20 m-124 0 q10 0 10 10 m104 0 q0 -10 10 -10 m-114 10 v12 m104 0 v-12 m-104 12 q0 10 10 10 m84 0 q10 0 10 -10 m-94 10 h10 m64 0 h10 m20 -32 h10 m148 0 h10 m2 0 l2 0 m2 0 l2 0 m2 0 l2 0 m-590 114 l2 0 m2 0 l2 0 m2 0 l2 0 m62 0 h10 m38 0 h10 m0 0 h10 m130 0 h10 m0 0 h232 m-460 0 h20 m440 0 h20 m-480 0 q10 0 10 10 m460 0 q0 -10 10 -10 m-470 10 v24 m460 0 v-24 m-460 24 q0 10 10 10 m440 0 q10 0 10 -10 m-450 10 h10 m94 0 h10 m20 0 h10 m48 0 h10 m0 0 h36 m-124 0 h20 m104 0 h20 m-144 0 q10 0 10 10 m124 0 q0 -10 10 -10 m-134 10 v24 m124 0 v-24 m-124 24 q0 10 10 10 m104 0 q10 0 10 -10 m-114 10 h10 m84 0 h10 m20 -44 h182 m-450 -10 v20 m460 0 v-20 m-460 20 v68 m460 0 v-68 m-460 68 q0 10 10 10 m440 0 q10 0 10 -10 m-430 10 h10 m72 0 h10 m0 0 h88 m-200 0 h20 m180 0 h20 m-220 0 q10 0 10 10 m200 0 q0 -10 10 -10 m-210 10 v24 m200 0 v-24 m-200 24 q0 10 10 10 m180 0 q10 0 10 -10 m-190 10 h10 m84 0 h10 m0 0 h10 m56 0 h10 m20 -44 h10 m40 0 h10 m0 0 h10 m56 0 h10 m0 0 h10 m64 0 h10 m-450 -10 v20 m460 0 v-20 m-460 20 v68 m460 0 v-68 m-460 68 q0 10 10 10 m440 0 q10 0 10 -10 m-450 10 h10 m70 0 h10 m0 0 h350 m-450 -10 v20 m460 0 v-20 m-460 20 v24 m460 0 v-24 m-460 24 q0 10 10 10 m440 0 q10 0 10 -10 m-450 10 h10 m102 0 h10 m0 0 h318 m-450 -10 v20 m460 0 v-20 m-460 20 v24 m460 0 v-24 m-460 24 q0 10 10 10 m440 0 q10 0 10 -10 m-450 10 h10 m72 0 h10 m0 0 h348 m-450 -10 v20 m460 0 v-20 m-460 20 v24 m460 0 v-24 m-460 24 q0 10 10 10 m440 0 q10 0 10 -10 m-450 10 h10 m88 0 h10 m0 0 h332 m-450 -10 v20 m460 0 v-20 m-460 20 v24 m460 0 v-24 m-460 24 q0 10 10 10 m440 0 q10 0 10 -10 m-430 10 h10 m0 0 h58 m-88 0 h20 m68 0 h20 m-108 0 q10 0 10 10 m88 0 q0 -10 10 -10 m-98 10 v12 m88 0 v-12 m-88 12 q0 10 10 10 m68 0 q10 0 10 -10 m-78 10 h10 m48 0 h10 m20 -32 h10 m102 0 h10 m0 0 h210 m-480 -396 l20 0 m-1 0 q-9 0 -9 -10 l0 -12 q0 -10 10 -10 m480 32 l20 0 m-20 0 q10 0 10 -10 l0 -12 q0 -10 -10 -10 m-480 0 h10 m0 0 h470 m-520 32 h20 m520 0 h20 m-560 0 q10 0 10 10 m540 0 q0 -10 10 -10 m-550 10 v442 m540 0 v-442 m-540 442 q0 10 10 10 m520 0 q10 0 10 -10 m-530 10 h10 m0 0 h510 m23 -462 h-3"></path>
<polygon points="673 273 681 269 681 277"></polygon>
<polygon points="673 273 665 269 665 277"></polygon></svg>