<svg height="147" width="723" xmlns="http://www.w3.org/2000/svg"><style>svg {
  font-family: ui-monospace, SFMono-Regular, Menlo, Monaco, Consolas, "Liberation Mono", "Courier New", monospace;
}
text {
  fill: #2f3337;
  font-size: 14px;
}
rect {
  fill: #ffffff;
  stroke: #3a3d40;
  stroke-width: 2;
}
rect.terminal {
  fill: #ffffff;
}
rect.nonterminal {
  fill: #ffffff;
}
text.terminal {
  fill: #2f3337;
  font-weight: 600;
}
text.nonterminal {
  fill: #2563eb;
}
a text.nonterminal {
  text-decoration: underline;
}
path.line {
  fill: none;
  stroke: #3a3d40;
  stroke-width: 2;
}
polygon {
  fill: #2f3337;
  stroke: #2f3337;
}</style>
<polygon points="9 17 1 13 1 21"></polygon>
<polygon points="17 17 9 13 9 21"></polygon>
<rect height="32" rx="10" width="62" x="31" y="3"></rect>
<rect class="terminal" height="32" rx="10" width="62" x="29" y="1"></rect>
<text class="terminal" x="39" y="21">ALTER</text>
<rect height="32" rx="10" width="74" x="113" y="3"></rect>
<rect class="terminal" height="32" rx="10" width="74" x="111" y="1"></rect>
<text class="terminal" x="121" y="21">BACKUP</text>
<rect height="32" rx="10" width="70" x="227" y="3"></rect>
<rect class="terminal" height="32" rx="10" width="70" x="225" y="1"></rect>
<text class="terminal" x="235" y="21">LATEST</text>
<rect height="32" width="98" x="227" y="47"></rect>
<rect class="nonterminal" height="32" width="98" x="225" y="45"></rect>
<text lengthAdjust="spacingAndGlyphs" textLength="74" font-size="10" class="nonterminal" x="237" y="65">subdirectory</text><rect height="32" rx="10" width="36" x="365" y="3"></rect>
<rect class="terminal" height="32" rx="10" width="36" x="363" y="1"></rect>
<text class="terminal" x="373" y="21">IN</text>
<rect height="32" width="102" x="421" y="3"></rect>
<rect class="nonterminal" height="32" width="102" x="419" y="1"></rect>
<text lengthAdjust="spacingAndGlyphs" textLength="78" font-size="10" class="nonterminal" x="431" y="21">collectionURI</text><rect height="32" rx="10" width="48" x="543" y="3"></rect>
<rect class="terminal" height="32" rx="10" width="48" x="541" y="1"></rect>
<text class="terminal" x="551" y="21">ADD</text>
<rect height="32" rx="10" width="90" x="611" y="3"></rect>
<rect class="terminal" height="32" rx="10" width="90" x="609" y="1"></rect>
<text class="terminal" x="619" y="21">NEW_KMS</text>
<rect height="32" width="68" x="353" y="113"></rect>
<rect class="nonterminal" height="32" width="68" x="351" y="111"></rect>
<text lengthAdjust="spacingAndGlyphs" textLength="44" font-size="11" class="nonterminal" x="363" y="131">kmsURI</text><rect height="32" rx="10" width="58" x="441" y="113"></rect>
<rect class="terminal" height="32" rx="10" width="58" x="439" y="111"></rect>
<text class="terminal" x="449" y="131">WITH</text>
<rect height="32" rx="10" width="88" x="519" y="113"></rect>
<rect class="terminal" height="32" rx="10" width="88" x="517" y="111"></rect>
<text class="terminal" x="527" y="131">OLD_KMS</text>
<rect height="32" width="68" x="627" y="113"></rect>
<rect class="nonterminal" height="32" width="68" x="625" y="111"></rect>
<text lengthAdjust="spacingAndGlyphs" textLength="44" font-size="11" class="nonterminal" x="637" y="131">kmsURI</text><path class="line" d="m17 17 h2 m0 0 h10 m62 0 h10 m0 0 h10 m74 0 h10 m20 0 h10 m70 0 h10 m0 0 h28 m-138 0 h20 m118 0 h20 m-158 0 q10 0 10 10 m138 0 q0 -10 10 -10 m-148 10 v24 m138 0 v-24 m-138 24 q0 10 10 10 m118 0 q10 0 10 -10 m-128 10 h10 m98 0 h10 m20 -44 h10 m36 0 h10 m0 0 h10 m102 0 h10 m0 0 h10 m48 0 h10 m0 0 h10 m90 0 h10 m2 0 l2 0 m2 0 l2 0 m2 0 l2 0 m-392 110 l2 0 m2 0 l2 0 m2 0 l2 0 m2 0 h10 m68 0 h10 m0 0 h10 m58 0 h10 m0 0 h10 m88 0 h10 m0 0 h10 m68 0 h10 m3 0 h-3"></path>
<polygon points="713 127 721 123 721 131"></polygon>
<polygon points="713 127 705 123 705 131"></polygon></svg>