<svg height="37" width="473" xmlns="http://www.w3.org/2000/svg"><style>svg {
  font-family: ui-monospace, SFMono-Regular, Menlo, Monaco, Consolas, "Liberation Mono", "Courier New", monospace;
}
text {
  fill: #2f3337;
  font-size: 14px;
}
rect {
  fill: #ffffff;
  stroke: #3a3d40;
  stroke-width: 2;
}
rect.terminal {
  fill: #ffffff;
}
rect.nonterminal {
  fill: #ffffff;
}
text.terminal {
  fill: #2f3337;
  font-weight: 600;
}
text.nonterminal {
  fill: #2563eb;
}
a text.nonterminal {
  text-decoration: underline;
}
path.line {
  fill: none;
  stroke: #3a3d40;
  stroke-width: 2;
}
polygon {
  fill: #2f3337;
  stroke: #2f3337;
}</style>
<polygon points="9 17 1 13 1 21"></polygon>
<polygon points="17 17 9 13 9 21"></polygon>
<rect height="32" rx="10" width="198" x="31" y="3"></rect>
<rect class="terminal" height="32" rx="10" width="198" x="29" y="1"></rect>
<text class="terminal" x="39" y="21">GENERATED_BY_DEFAULT</text>
<rect height="32" rx="10" width="38" x="249" y="3"></rect>
<rect class="terminal" height="32" rx="10" width="38" x="247" y="1"></rect>
<text class="terminal" x="257" y="21">BY</text>
<rect height="32" rx="10" width="80" x="307" y="3"></rect>
<rect class="terminal" height="32" rx="10" width="80" x="305" y="1"></rect>
<text class="terminal" x="315" y="21">DEFAULT</text>
<rect height="32" rx="10" width="38" x="407" y="3"></rect>
<rect class="terminal" height="32" rx="10" width="38" x="405" y="1"></rect>
<text class="terminal" x="415" y="21">AS</text>
<path class="line" d="m17 17 h2 m0 0 h10 m198 0 h10 m0 0 h10 m38 0 h10 m0 0 h10 m80 0 h10 m0 0 h10 m38 0 h10 m3 0 h-3"></path>
<polygon points="463 17 471 13 471 21"></polygon>
<polygon points="463 17 455 13 455 21"></polygon></svg>