<svg height="233" width="281" xmlns="http://www.w3.org/2000/svg"><style>svg {
  font-family: ui-monospace, SFMono-Regular, Menlo, Monaco, Consolas, "Liberation Mono", "Courier New", monospace;
}
text {
  fill: #2f3337;
  font-size: 14px;
}
rect {
  fill: #ffffff;
  stroke: #3a3d40;
  stroke-width: 2;
}
rect.terminal {
  fill: #ffffff;
}
rect.nonterminal {
  fill: #ffffff;
}
text.terminal {
  fill: #2f3337;
  font-weight: 600;
}
text.nonterminal {
  fill: #2563eb;
}
a text.nonterminal {
  text-decoration: underline;
}
path.line {
  fill: none;
  stroke: #3a3d40;
  stroke-width: 2;
}
polygon {
  fill: #2f3337;
  stroke: #2f3337;
}</style>
<polygon points="9 5 1 1 1 9"></polygon>
<polygon points="17 5 9 1 9 9"></polygon>
<rect height="32" rx="10" width="48" x="51" y="23"></rect>
<rect class="terminal" height="32" rx="10" width="48" x="49" y="21"></rect>
<text class="terminal" x="59" y="41">FOR</text>
<rect height="32" rx="10" width="44" x="139" y="23"></rect>
<rect class="terminal" height="32" rx="10" width="44" x="137" y="21"></rect>
<text class="terminal" x="147" y="41">ALL</text>
<rect height="32" rx="10" width="70" x="139" y="67"></rect>
<rect class="terminal" height="32" rx="10" width="70" x="137" y="65"></rect>
<text class="terminal" x="147" y="85">SELECT</text>
<rect height="32" rx="10" width="70" x="139" y="111"></rect>
<rect class="terminal" height="32" rx="10" width="70" x="137" y="109"></rect>
<text class="terminal" x="147" y="129">INSERT</text>
<rect height="32" rx="10" width="74" x="139" y="155"></rect>
<rect class="terminal" height="32" rx="10" width="74" x="137" y="153"></rect>
<text class="terminal" x="147" y="173">UPDATE</text>
<rect height="32" rx="10" width="70" x="139" y="199"></rect>
<rect class="terminal" height="32" rx="10" width="70" x="137" y="197"></rect>
<text class="terminal" x="147" y="217">DELETE</text>
<path class="line" d="m17 5 h2 m20 0 h10 m0 0 h192 m-222 0 h20 m202 0 h20 m-242 0 q10 0 10 10 m222 0 q0 -10 10 -10 m-232 10 v12 m222 0 v-12 m-222 12 q0 10 10 10 m202 0 q10 0 10 -10 m-212 10 h10 m48 0 h10 m20 0 h10 m44 0 h10 m0 0 h30 m-114 0 h20 m94 0 h20 m-134 0 q10 0 10 10 m114 0 q0 -10 10 -10 m-124 10 v24 m114 0 v-24 m-114 24 q0 10 10 10 m94 0 q10 0 10 -10 m-104 10 h10 m70 0 h10 m0 0 h4 m-104 -10 v20 m114 0 v-20 m-114 20 v24 m114 0 v-24 m-114 24 q0 10 10 10 m94 0 q10 0 10 -10 m-104 10 h10 m70 0 h10 m0 0 h4 m-104 -10 v20 m114 0 v-20 m-114 20 v24 m114 0 v-24 m-114 24 q0 10 10 10 m94 0 q10 0 10 -10 m-104 10 h10 m74 0 h10 m-104 -10 v20 m114 0 v-20 m-114 20 v24 m114 0 v-24 m-114 24 q0 10 10 10 m94 0 q10 0 10 -10 m-104 10 h10 m70 0 h10 m0 0 h4 m43 -208 h-3"></path>
<polygon points="271 5 279 1 279 9"></polygon>
<polygon points="271 5 263 1 263 9"></polygon></svg>