<svg height="101" width="633" xmlns="http://www.w3.org/2000/svg" xmlns:xlink="http://www.w3.org/1999/xlink"><style>svg {
  font-family: ui-monospace, SFMono-Regular, Menlo, Monaco, Consolas, "Liberation Mono", "Courier New", monospace;
}
text {
  fill: #2f3337;
  font-size: 14px;
}
rect {
  fill: #ffffff;
  stroke: #3a3d40;
  stroke-width: 2;
}
rect.terminal {
  fill: #ffffff;
}
rect.nonterminal {
  fill: #ffffff;
}
text.terminal {
  fill: #2f3337;
  font-weight: 600;
}
text.nonterminal {
  fill: #2563eb;
}
a text.nonterminal {
  text-decoration: underline;
}
path.line {
  fill: none;
  stroke: #3a3d40;
  stroke-width: 2;
}
polygon {
  fill: #2f3337;
  stroke: #2f3337;
}</style>
<polygon points="9 5 1 1 1 9"></polygon>
<polygon points="17 5 9 1 9 9"></polygon>
<rect height="32" rx="10" width="58" x="51" y="23"></rect>
<rect class="terminal" height="32" rx="10" width="58" x="49" y="21"></rect>
<text class="terminal" x="59" y="41">WITH</text>
<rect height="32" rx="10" width="92" x="129" y="23"></rect>
<rect class="terminal" height="32" rx="10" width="92" x="127" y="21"></rect>
<text class="terminal" x="137" y="41">SCHEDULE</text>
<rect height="32" rx="10" width="84" x="241" y="23"></rect>
<rect class="terminal" height="32" rx="10" width="84" x="239" y="21"></rect>
<text class="terminal" x="249" y="41">OPTIONS</text><a xlink:href="#kv_option_list" xlink:title="kv_option_list">
<rect height="32" width="108" x="365" y="23"></rect>
<rect class="nonterminal" height="32" width="108" x="363" y="21"></rect>
<text lengthAdjust="spacingAndGlyphs" textLength="84" font-size="10" class="nonterminal" x="375" y="41">kv_option_list</text></a><rect height="32" rx="10" width="26" x="365" y="67"></rect>
<rect class="terminal" height="32" rx="10" width="26" x="363" y="65"></rect>
<text class="terminal" x="373" y="85">(</text><a xlink:href="#kv_option_list" xlink:title="kv_option_list">
<rect height="32" width="108" x="411" y="67"></rect>
<rect class="nonterminal" height="32" width="108" x="409" y="65"></rect>
<text lengthAdjust="spacingAndGlyphs" textLength="84" font-size="10" class="nonterminal" x="421" y="85">kv_option_list</text></a><rect height="32" rx="10" width="26" x="539" y="67"></rect>
<rect class="terminal" height="32" rx="10" width="26" x="537" y="65"></rect>
<text class="terminal" x="547" y="85">)</text>
<path class="line" d="m17 5 h2 m20 0 h10 m0 0 h544 m-574 0 h20 m554 0 h20 m-594 0 q10 0 10 10 m574 0 q0 -10 10 -10 m-584 10 v12 m574 0 v-12 m-574 12 q0 10 10 10 m554 0 q10 0 10 -10 m-564 10 h10 m58 0 h10 m0 0 h10 m92 0 h10 m0 0 h10 m84 0 h10 m20 0 h10 m108 0 h10 m0 0 h92 m-240 0 h20 m220 0 h20 m-260 0 q10 0 10 10 m240 0 q0 -10 10 -10 m-250 10 v24 m240 0 v-24 m-240 24 q0 10 10 10 m220 0 q10 0 10 -10 m-230 10 h10 m26 0 h10 m0 0 h10 m108 0 h10 m0 0 h10 m26 0 h10 m43 -76 h-3"></path>
<polygon points="623 5 631 1 631 9"></polygon>
<polygon points="623 5 615 1 615 9"></polygon></svg>