<svg height="213" width="283" xmlns="http://www.w3.org/2000/svg"><style>svg {
  font-family: ui-monospace, SFMono-Regular, Menlo, Monaco, Consolas, "Liberation Mono", "Courier New", monospace;
}
text {
  fill: #2f3337;
  font-size: 14px;
}
rect {
  fill: #ffffff;
  stroke: #3a3d40;
  stroke-width: 2;
}
rect.terminal {
  fill: #ffffff;
}
rect.nonterminal {
  fill: #ffffff;
}
text.terminal {
  fill: #2f3337;
  font-weight: 600;
}
text.nonterminal {
  fill: #2563eb;
}
a text.nonterminal {
  text-decoration: underline;
}
path.line {
  fill: none;
  stroke: #3a3d40;
  stroke-width: 2;
}
polygon {
  fill: #2f3337;
  stroke: #2f3337;
}</style>
<polygon points="9 17 1 13 1 21"></polygon>
<polygon points="17 17 9 13 9 21"></polygon>
<rect height="32" rx="10" width="40" x="51" y="3"></rect>
<rect class="terminal" height="32" rx="10" width="40" x="49" y="1"></rect>
<text class="terminal" x="59" y="21">NO</text>
<rect height="32" rx="10" width="74" x="111" y="3"></rect>
<rect class="terminal" height="32" rx="10" width="74" x="109" y="1"></rect>
<text class="terminal" x="119" y="21">ACTION</text>
<rect height="32" rx="10" width="88" x="51" y="47"></rect>
<rect class="terminal" height="32" rx="10" width="88" x="49" y="45"></rect>
<text class="terminal" x="59" y="65">RESTRICT</text>
<rect height="32" rx="10" width="84" x="51" y="91"></rect>
<rect class="terminal" height="32" rx="10" width="84" x="49" y="89"></rect>
<text class="terminal" x="59" y="109">CASCADE</text>
<rect height="32" rx="10" width="44" x="51" y="135"></rect>
<rect class="terminal" height="32" rx="10" width="44" x="49" y="133"></rect>
<text class="terminal" x="59" y="153">SET</text>
<rect height="32" rx="10" width="56" x="135" y="135"></rect>
<rect class="terminal" height="32" rx="10" width="56" x="133" y="133"></rect>
<text class="terminal" x="143" y="153">NULL</text>
<rect height="32" rx="10" width="80" x="135" y="179"></rect>
<rect class="terminal" height="32" rx="10" width="80" x="133" y="177"></rect>
<text class="terminal" x="143" y="197">DEFAULT</text>
<path class="line" d="m17 17 h2 m20 0 h10 m40 0 h10 m0 0 h10 m74 0 h10 m0 0 h50 m-224 0 h20 m204 0 h20 m-244 0 q10 0 10 10 m224 0 q0 -10 10 -10 m-234 10 v24 m224 0 v-24 m-224 24 q0 10 10 10 m204 0 q10 0 10 -10 m-214 10 h10 m88 0 h10 m0 0 h96 m-214 -10 v20 m224 0 v-20 m-224 20 v24 m224 0 v-24 m-224 24 q0 10 10 10 m204 0 q10 0 10 -10 m-214 10 h10 m84 0 h10 m0 0 h100 m-214 -10 v20 m224 0 v-20 m-224 20 v24 m224 0 v-24 m-224 24 q0 10 10 10 m204 0 q10 0 10 -10 m-214 10 h10 m44 0 h10 m20 0 h10 m56 0 h10 m0 0 h24 m-120 0 h20 m100 0 h20 m-140 0 q10 0 10 10 m120 0 q0 -10 10 -10 m-130 10 v24 m120 0 v-24 m-120 24 q0 10 10 10 m100 0 q10 0 10 -10 m-110 10 h10 m80 0 h10 m43 -176 h-3"></path>
<polygon points="273 17 281 13 281 21"></polygon>
<polygon points="273 17 265 13 265 21"></polygon></svg>