<svg height="125" width="237" xmlns="http://www.w3.org/2000/svg"><style>svg {
  font-family: ui-monospace, SFMono-Regular, Menlo, Monaco, Consolas, "Liberation Mono", "Courier New", monospace;
}
text {
  fill: #2f3337;
  font-size: 14px;
}
rect {
  fill: #ffffff;
  stroke: #3a3d40;
  stroke-width: 2;
}
rect.terminal {
  fill: #ffffff;
}
rect.nonterminal {
  fill: #ffffff;
}
text.terminal {
  fill: #2f3337;
  font-weight: 600;
}
text.nonterminal {
  fill: #2563eb;
}
a text.nonterminal {
  text-decoration: underline;
}
path.line {
  fill: none;
  stroke: #3a3d40;
  stroke-width: 2;
}
polygon {
  fill: #2f3337;
  stroke: #2f3337;
}</style>
<polygon points="9 17 1 13 1 21"></polygon>
<polygon points="17 17 9 13 9 21"></polygon>
<rect height="32" rx="10" width="74" x="51" y="3"></rect>
<rect class="terminal" height="32" rx="10" width="74" x="49" y="1"></rect>
<text class="terminal" x="59" y="21">BEFORE</text>
<rect height="32" rx="10" width="62" x="51" y="47"></rect>
<rect class="terminal" height="32" rx="10" width="62" x="49" y="45"></rect>
<text class="terminal" x="59" y="65">AFTER</text>
<rect height="32" rx="10" width="80" x="51" y="91"></rect>
<rect class="terminal" height="32" rx="10" width="80" x="49" y="89"></rect>
<text class="terminal" x="59" y="109">INSTEAD</text>
<rect height="32" rx="10" width="38" x="151" y="91"></rect>
<rect class="terminal" height="32" rx="10" width="38" x="149" y="89"></rect>
<text class="terminal" x="159" y="109">OF</text>
<path class="line" d="m17 17 h2 m20 0 h10 m74 0 h10 m0 0 h64 m-178 0 h20 m158 0 h20 m-198 0 q10 0 10 10 m178 0 q0 -10 10 -10 m-188 10 v24 m178 0 v-24 m-178 24 q0 10 10 10 m158 0 q10 0 10 -10 m-168 10 h10 m62 0 h10 m0 0 h76 m-168 -10 v20 m178 0 v-20 m-178 20 v24 m178 0 v-24 m-178 24 q0 10 10 10 m158 0 q10 0 10 -10 m-168 10 h10 m80 0 h10 m0 0 h10 m38 0 h10 m23 -88 h-3"></path>
<polygon points="227 17 235 13 235 21"></polygon>
<polygon points="227 17 219 13 219 21"></polygon></svg>