<svg height="1093" width="317" xmlns="http://www.w3.org/2000/svg" xmlns:xlink="http://www.w3.org/1999/xlink"><style>svg {
  font-family: ui-monospace, SFMono-Regular, Menlo, Monaco, Consolas, "Liberation Mono", "Courier New", monospace;
}
text {
  fill: #2f3337;
  font-size: 14px;
}
rect {
  fill: #ffffff;
  stroke: #3a3d40;
  stroke-width: 2;
}
rect.terminal {
  fill: #ffffff;
}
rect.nonterminal {
  fill: #ffffff;
}
text.terminal {
  fill: #2f3337;
  font-weight: 600;
}
text.nonterminal {
  fill: #2563eb;
}
a text.nonterminal {
  text-decoration: underline;
}
path.line {
  fill: none;
  stroke: #3a3d40;
  stroke-width: 2;
}
polygon {
  fill: #2f3337;
  stroke: #2f3337;
}</style>
<polygon points="9 17 1 13 1 21"></polygon>
<polygon points="17 17 9 13 9 21"></polygon><a xlink:href="#preparable_stmt" xlink:title="preparable_stmt">
<rect height="32" width="126" x="51" y="3"></rect>
<rect class="nonterminal" height="32" width="126" x="49" y="1"></rect>
<text lengthAdjust="spacingAndGlyphs" textLength="102" font-size="10" class="nonterminal" x="61" y="21">preparable_stmt</text></a><a xlink:href="#analyze_stmt" xlink:title="analyze_stmt">
<rect height="32" width="106" x="51" y="47"></rect>
<rect class="nonterminal" height="32" width="106" x="49" y="45"></rect>
<text lengthAdjust="spacingAndGlyphs" textLength="82" font-size="11" class="nonterminal" x="61" y="65">analyze_stmt</text></a><a xlink:href="#call_stmt" xlink:title="call_stmt">
<rect height="32" width="76" x="51" y="91"></rect>
<rect class="nonterminal" height="32" width="76" x="49" y="89"></rect>
<text lengthAdjust="spacingAndGlyphs" textLength="52" font-size="10" class="nonterminal" x="61" y="109">call_stmt</text></a><a xlink:href="#copy_stmt" xlink:title="copy_stmt">
<rect height="32" width="86" x="51" y="135"></rect>
<rect class="nonterminal" height="32" width="86" x="49" y="133"></rect>
<text lengthAdjust="spacingAndGlyphs" textLength="62" font-size="11" class="nonterminal" x="61" y="153">copy_stmt</text></a><a xlink:href="#comment_stmt" xlink:title="comment_stmt">
<rect height="32" width="114" x="51" y="179"></rect>
<rect class="nonterminal" height="32" width="114" x="49" y="177"></rect>
<text lengthAdjust="spacingAndGlyphs" textLength="90" font-size="12" class="nonterminal" x="61" y="197">comment_stmt</text></a><a xlink:href="#execute_stmt" xlink:title="execute_stmt">
<rect height="32" width="106" x="51" y="223"></rect>
<rect class="nonterminal" height="32" width="106" x="49" y="221"></rect>
<text lengthAdjust="spacingAndGlyphs" textLength="82" font-size="11" class="nonterminal" x="61" y="241">execute_stmt</text></a><a xlink:href="#deallocate_stmt" xlink:title="deallocate_stmt">
<rect height="32" width="122" x="51" y="267"></rect>
<rect class="nonterminal" height="32" width="122" x="49" y="265"></rect>
<text lengthAdjust="spacingAndGlyphs" textLength="98" font-size="10" class="nonterminal" x="61" y="285">deallocate_stmt</text></a><a xlink:href="#discard_stmt" xlink:title="discard_stmt">
<rect height="32" width="102" x="51" y="311"></rect>
<rect class="nonterminal" height="32" width="102" x="49" y="309"></rect>
<text lengthAdjust="spacingAndGlyphs" textLength="78" font-size="10" class="nonterminal" x="61" y="329">discard_stmt</text></a><a xlink:href="#do_stmt" xlink:title="do_stmt">
<rect height="32" width="72" x="51" y="355"></rect>
<rect class="nonterminal" height="32" width="72" x="49" y="353"></rect>
<text lengthAdjust="spacingAndGlyphs" textLength="48" font-size="11" class="nonterminal" x="61" y="373">do_stmt</text></a><a xlink:href="#grant_stmt" xlink:title="grant_stmt">
<rect height="32" width="90" x="51" y="399"></rect>
<rect class="nonterminal" height="32" width="90" x="49" y="397"></rect>
<text lengthAdjust="spacingAndGlyphs" textLength="66" font-size="10" class="nonterminal" x="61" y="417">grant_stmt</text></a><a xlink:href="#prepare_stmt" xlink:title="prepare_stmt">
<rect height="32" width="106" x="51" y="443"></rect>
<rect class="nonterminal" height="32" width="106" x="49" y="441"></rect>
<text lengthAdjust="spacingAndGlyphs" textLength="82" font-size="11" class="nonterminal" x="61" y="461">prepare_stmt</text></a><a xlink:href="#revoke_stmt" xlink:title="revoke_stmt">
<rect height="32" width="100" x="51" y="487"></rect>
<rect class="nonterminal" height="32" width="100" x="49" y="485"></rect>
<text lengthAdjust="spacingAndGlyphs" textLength="76" font-size="11" class="nonterminal" x="61" y="505">revoke_stmt</text></a><a xlink:href="#savepoint_stmt" xlink:title="savepoint_stmt">
<rect height="32" width="118" x="51" y="531"></rect>
<rect class="nonterminal" height="32" width="118" x="49" y="529"></rect>
<text lengthAdjust="spacingAndGlyphs" textLength="94" font-size="10" class="nonterminal" x="61" y="549">savepoint_stmt</text></a><a xlink:href="#reassign_owned_by_stmt" xlink:title="reassign_owned_by_stmt">
<rect height="32" width="184" x="51" y="575"></rect>
<rect class="nonterminal" height="32" width="184" x="49" y="573"></rect>
<text lengthAdjust="spacingAndGlyphs" textLength="160" font-size="11" class="nonterminal" x="61" y="593">reassign_owned_by_stmt</text></a><a xlink:href="#drop_owned_by_stmt" xlink:title="drop_owned_by_stmt">
<rect height="32" width="158" x="51" y="619"></rect>
<rect class="nonterminal" height="32" width="158" x="49" y="617"></rect>
<text lengthAdjust="spacingAndGlyphs" textLength="134" font-size="12" class="nonterminal" x="61" y="637">drop_owned_by_stmt</text></a><a xlink:href="#release_stmt" xlink:title="release_stmt">
<rect height="32" width="104" x="51" y="663"></rect>
<rect class="nonterminal" height="32" width="104" x="49" y="661"></rect>
<text lengthAdjust="spacingAndGlyphs" textLength="80" font-size="10" class="nonterminal" x="61" y="681">release_stmt</text></a><a xlink:href="#refresh_stmt" xlink:title="refresh_stmt">
<rect height="32" width="102" x="51" y="707"></rect>
<rect class="nonterminal" height="32" width="102" x="49" y="705"></rect>
<text lengthAdjust="spacingAndGlyphs" textLength="78" font-size="10" class="nonterminal" x="61" y="725">refresh_stmt</text></a><a xlink:href="#nonpreparable_set_stmt" xlink:title="nonpreparable_set_stmt">
<rect height="32" width="178" x="51" y="751"></rect>
<rect class="nonterminal" height="32" width="178" x="49" y="749"></rect>
<text lengthAdjust="spacingAndGlyphs" textLength="154" font-size="11" class="nonterminal" x="61" y="769">nonpreparable_set_stmt</text></a><a xlink:href="#transaction_stmt" xlink:title="transaction_stmt">
<rect height="32" width="128" x="51" y="795"></rect>
<rect class="nonterminal" height="32" width="128" x="49" y="793"></rect>
<text lengthAdjust="spacingAndGlyphs" textLength="104" font-size="10" class="nonterminal" x="61" y="813">transaction_stmt</text></a><a xlink:href="#close_cursor_stmt" xlink:title="close_cursor_stmt">
<rect height="32" width="136" x="51" y="839"></rect>
<rect class="nonterminal" height="32" width="136" x="49" y="837"></rect>
<text lengthAdjust="spacingAndGlyphs" textLength="112" font-size="10" class="nonterminal" x="61" y="857">close_cursor_stmt</text></a><a xlink:href="#declare_cursor_stmt" xlink:title="declare_cursor_stmt">
<rect height="32" width="150" x="51" y="883"></rect>
<rect class="nonterminal" height="32" width="150" x="49" y="881"></rect>
<text lengthAdjust="spacingAndGlyphs" textLength="126" font-size="10" class="nonterminal" x="61" y="901">declare_cursor_stmt</text></a><a xlink:href="#fetch_cursor_stmt" xlink:title="fetch_cursor_stmt">
<rect height="32" width="134" x="51" y="927"></rect>
<rect class="nonterminal" height="32" width="134" x="49" y="925"></rect>
<text lengthAdjust="spacingAndGlyphs" textLength="110" font-size="10" class="nonterminal" x="61" y="945">fetch_cursor_stmt</text></a><a xlink:href="#move_cursor_stmt" xlink:title="move_cursor_stmt">
<rect height="32" width="138" x="51" y="971"></rect>
<rect class="nonterminal" height="32" width="138" x="49" y="969"></rect>
<text lengthAdjust="spacingAndGlyphs" textLength="114" font-size="11" class="nonterminal" x="61" y="989">move_cursor_stmt</text></a><a xlink:href="#unlisten_stmt" xlink:title="unlisten_stmt">
<rect height="32" width="106" x="51" y="1015"></rect>
<rect class="nonterminal" height="32" width="106" x="49" y="1013"></rect>
<text lengthAdjust="spacingAndGlyphs" textLength="82" font-size="10" class="nonterminal" x="61" y="1033">unlisten_stmt</text></a><a xlink:href="#show_commit_timestamp_stmt" xlink:title="show_commit_timestamp_stmt">
<rect height="32" width="218" x="51" y="1059"></rect>
<rect class="nonterminal" height="32" width="218" x="49" y="1057"></rect>
<text lengthAdjust="spacingAndGlyphs" textLength="194" font-size="12" class="nonterminal" x="61" y="1077">show_commit_timestamp_stmt</text></a><path class="line" d="m17 17 h2 m20 0 h10 m126 0 h10 m0 0 h92 m-258 0 h20 m238 0 h20 m-278 0 q10 0 10 10 m258 0 q0 -10 10 -10 m-268 10 v24 m258 0 v-24 m-258 24 q0 10 10 10 m238 0 q10 0 10 -10 m-248 10 h10 m106 0 h10 m0 0 h112 m-248 -10 v20 m258 0 v-20 m-258 20 v24 m258 0 v-24 m-258 24 q0 10 10 10 m238 0 q10 0 10 -10 m-248 10 h10 m76 0 h10 m0 0 h142 m-248 -10 v20 m258 0 v-20 m-258 20 v24 m258 0 v-24 m-258 24 q0 10 10 10 m238 0 q10 0 10 -10 m-248 10 h10 m86 0 h10 m0 0 h132 m-248 -10 v20 m258 0 v-20 m-258 20 v24 m258 0 v-24 m-258 24 q0 10 10 10 m238 0 q10 0 10 -10 m-248 10 h10 m114 0 h10 m0 0 h104 m-248 -10 v20 m258 0 v-20 m-258 20 v24 m258 0 v-24 m-258 24 q0 10 10 10 m238 0 q10 0 10 -10 m-248 10 h10 m106 0 h10 m0 0 h112 m-248 -10 v20 m258 0 v-20 m-258 20 v24 m258 0 v-24 m-258 24 q0 10 10 10 m238 0 q10 0 10 -10 m-248 10 h10 m122 0 h10 m0 0 h96 m-248 -10 v20 m258 0 v-20 m-258 20 v24 m258 0 v-24 m-258 24 q0 10 10 10 m238 0 q10 0 10 -10 m-248 10 h10 m102 0 h10 m0 0 h116 m-248 -10 v20 m258 0 v-20 m-258 20 v24 m258 0 v-24 m-258 24 q0 10 10 10 m238 0 q10 0 10 -10 m-248 10 h10 m72 0 h10 m0 0 h146 m-248 -10 v20 m258 0 v-20 m-258 20 v24 m258 0 v-24 m-258 24 q0 10 10 10 m238 0 q10 0 10 -10 m-248 10 h10 m90 0 h10 m0 0 h128 m-248 -10 v20 m258 0 v-20 m-258 20 v24 m258 0 v-24 m-258 24 q0 10 10 10 m238 0 q10 0 10 -10 m-248 10 h10 m106 0 h10 m0 0 h112 m-248 -10 v20 m258 0 v-20 m-258 20 v24 m258 0 v-24 m-258 24 q0 10 10 10 m238 0 q10 0 10 -10 m-248 10 h10 m100 0 h10 m0 0 h118 m-248 -10 v20 m258 0 v-20 m-258 20 v24 m258 0 v-24 m-258 24 q0 10 10 10 m238 0 q10 0 10 -10 m-248 10 h10 m118 0 h10 m0 0 h100 m-248 -10 v20 m258 0 v-20 m-258 20 v24 m258 0 v-24 m-258 24 q0 10 10 10 m238 0 q10 0 10 -10 m-248 10 h10 m184 0 h10 m0 0 h34 m-248 -10 v20 m258 0 v-20 m-258 20 v24 m258 0 v-24 m-258 24 q0 10 10 10 m238 0 q10 0 10 -10 m-248 10 h10 m158 0 h10 m0 0 h60 m-248 -10 v20 m258 0 v-20 m-258 20 v24 m258 0 v-24 m-258 24 q0 10 10 10 m238 0 q10 0 10 -10 m-248 10 h10 m104 0 h10 m0 0 h114 m-248 -10 v20 m258 0 v-20 m-258 20 v24 m258 0 v-24 m-258 24 q0 10 10 10 m238 0 q10 0 10 -10 m-248 10 h10 m102 0 h10 m0 0 h116 m-248 -10 v20 m258 0 v-20 m-258 20 v24 m258 0 v-24 m-258 24 q0 10 10 10 m238 0 q10 0 10 -10 m-248 10 h10 m178 0 h10 m0 0 h40 m-248 -10 v20 m258 0 v-20 m-258 20 v24 m258 0 v-24 m-258 24 q0 10 10 10 m238 0 q10 0 10 -10 m-248 10 h10 m128 0 h10 m0 0 h90 m-248 -10 v20 m258 0 v-20 m-258 20 v24 m258 0 v-24 m-258 24 q0 10 10 10 m238 0 q10 0 10 -10 m-248 10 h10 m136 0 h10 m0 0 h82 m-248 -10 v20 m258 0 v-20 m-258 20 v24 m258 0 v-24 m-258 24 q0 10 10 10 m238 0 q10 0 10 -10 m-248 10 h10 m150 0 h10 m0 0 h68 m-248 -10 v20 m258 0 v-20 m-258 20 v24 m258 0 v-24 m-258 24 q0 10 10 10 m238 0 q10 0 10 -10 m-248 10 h10 m134 0 h10 m0 0 h84 m-248 -10 v20 m258 0 v-20 m-258 20 v24 m258 0 v-24 m-258 24 q0 10 10 10 m238 0 q10 0 10 -10 m-248 10 h10 m138 0 h10 m0 0 h80 m-248 -10 v20 m258 0 v-20 m-258 20 v24 m258 0 v-24 m-258 24 q0 10 10 10 m238 0 q10 0 10 -10 m-248 10 h10 m106 0 h10 m0 0 h112 m-248 -10 v20 m258 0 v-20 m-258 20 v24 m258 0 v-24 m-258 24 q0 10 10 10 m238 0 q10 0 10 -10 m-248 10 h10 m218 0 h10 m23 -1056 h-3"></path>
<polygon points="307 17 315 13 315 21"></polygon>
<polygon points="307 17 299 13 299 21"></polygon></svg>