<svg height="113" width="497" xmlns="http://www.w3.org/2000/svg" xmlns:xlink="http://www.w3.org/1999/xlink"><style>svg {
  font-family: ui-monospace, SFMono-Regular, Menlo, Monaco, Consolas, "Liberation Mono", "Courier New", monospace;
}
text {
  fill: #2f3337;
  font-size: 14px;
}
rect {
  fill: #ffffff;
  stroke: #3a3d40;
  stroke-width: 2;
}
rect.terminal {
  fill: #ffffff;
}
rect.nonterminal {
  fill: #ffffff;
}
text.terminal {
  fill: #2f3337;
  font-weight: 600;
}
text.nonterminal {
  fill: #2563eb;
}
a text.nonterminal {
  text-decoration: underline;
}
path.line {
  fill: none;
  stroke: #3a3d40;
  stroke-width: 2;
}
polygon {
  fill: #2f3337;
  stroke: #2f3337;
}</style>
<polygon points="9 17 1 13 1 21"></polygon>
<polygon points="17 17 9 13 9 21"></polygon>
<rect height="32" rx="10" width="68" x="31" y="3"></rect>
<rect class="terminal" height="32" rx="10" width="68" x="29" y="1"></rect>
<text class="terminal" x="39" y="21">ORDER</text>
<rect height="32" rx="10" width="38" x="119" y="3"></rect>
<rect class="terminal" height="32" rx="10" width="38" x="117" y="1"></rect>
<text class="terminal" x="127" y="21">BY</text><a xlink:href="#sortby" xlink:title="sortby">
<rect height="32" width="60" x="197" y="3"></rect>
<rect class="nonterminal" height="32" width="60" x="195" y="1"></rect>
<text lengthAdjust="spacingAndGlyphs" textLength="36" font-size="10" class="nonterminal" x="207" y="21">sortby</text></a><rect height="32" rx="10" width="24" x="297" y="35"></rect>
<rect class="terminal" height="32" rx="10" width="24" x="295" y="33"></rect>
<text class="terminal" x="305" y="53">,</text><a xlink:href="#sortby_list" xlink:title="sortby_list">
<rect height="32" width="86" x="341" y="35"></rect>
<rect class="nonterminal" height="32" width="86" x="339" y="33"></rect>
<text lengthAdjust="spacingAndGlyphs" textLength="62" font-size="10" class="nonterminal" x="351" y="53">sortby_list</text></a><a xlink:href="#sortby_index" xlink:title="sortby_index">
<rect height="32" width="102" x="197" y="79"></rect>
<rect class="nonterminal" height="32" width="102" x="195" y="77"></rect>
<text lengthAdjust="spacingAndGlyphs" textLength="78" font-size="10" class="nonterminal" x="207" y="97">sortby_index</text></a><rect height="32" rx="10" width="24" x="319" y="79"></rect>
<rect class="terminal" height="32" rx="10" width="24" x="317" y="77"></rect>
<text class="terminal" x="327" y="97">,</text><a xlink:href="#sortby_list" xlink:title="sortby_list">
<rect height="32" width="86" x="363" y="79"></rect>
<rect class="nonterminal" height="32" width="86" x="361" y="77"></rect>
<text lengthAdjust="spacingAndGlyphs" textLength="62" font-size="10" class="nonterminal" x="373" y="97">sortby_list</text></a><path class="line" d="m17 17 h2 m0 0 h10 m68 0 h10 m0 0 h10 m38 0 h10 m20 0 h10 m60 0 h10 m20 0 h10 m0 0 h140 m-170 0 h20 m150 0 h20 m-190 0 q10 0 10 10 m170 0 q0 -10 10 -10 m-180 10 v12 m170 0 v-12 m-170 12 q0 10 10 10 m150 0 q10 0 10 -10 m-160 10 h10 m24 0 h10 m0 0 h10 m86 0 h10 m20 -32 h2 m-292 0 h20 m272 0 h20 m-312 0 q10 0 10 10 m292 0 q0 -10 10 -10 m-302 10 v56 m292 0 v-56 m-292 56 q0 10 10 10 m272 0 q10 0 10 -10 m-282 10 h10 m102 0 h10 m0 0 h10 m24 0 h10 m0 0 h10 m86 0 h10 m23 -76 h-3"></path>
<polygon points="487 17 495 13 495 21"></polygon>
<polygon points="487 17 479 13 479 21"></polygon></svg>