<svg height="147" width="753" xmlns="http://www.w3.org/2000/svg" xmlns:xlink="http://www.w3.org/1999/xlink"><style>svg {
  font-family: ui-monospace, SFMono-Regular, Menlo, Monaco, Consolas, "Liberation Mono", "Courier New", monospace;
}
text {
  fill: #2f3337;
  font-size: 14px;
}
rect {
  fill: #ffffff;
  stroke: #3a3d40;
  stroke-width: 2;
}
rect.terminal {
  fill: #ffffff;
}
rect.nonterminal {
  fill: #ffffff;
}
text.terminal {
  fill: #2f3337;
  font-weight: 600;
}
text.nonterminal {
  fill: #2563eb;
}
a text.nonterminal {
  text-decoration: underline;
}
path.line {
  fill: none;
  stroke: #3a3d40;
  stroke-width: 2;
}
polygon {
  fill: #2f3337;
  stroke: #2f3337;
}</style>
<polygon points="9 17 1 13 1 21"></polygon>
<polygon points="17 17 9 13 9 21"></polygon>
<rect height="32" rx="10" width="64" x="31" y="3"></rect>
<rect class="terminal" height="32" rx="10" width="64" x="29" y="1"></rect>
<text class="terminal" x="39" y="21">SHOW</text>
<rect height="32" rx="10" width="66" x="115" y="3"></rect>
<rect class="terminal" height="32" rx="10" width="66" x="113" y="1"></rect>
<text class="terminal" x="123" y="21">RANGE</text>
<rect height="32" rx="10" width="60" x="201" y="3"></rect>
<rect class="terminal" height="32" rx="10" width="60" x="199" y="1"></rect>
<text class="terminal" x="209" y="21">FROM</text>
<rect height="32" rx="10" width="62" x="301" y="3"></rect>
<rect class="terminal" height="32" rx="10" width="62" x="299" y="1"></rect>
<text class="terminal" x="309" y="21">TABLE</text><a xlink:href="#table_name" xlink:title="table_name">
<rect height="32" width="96" x="383" y="3"></rect>
<rect class="nonterminal" height="32" width="96" x="381" y="1"></rect>
<text lengthAdjust="spacingAndGlyphs" textLength="72" font-size="11" class="nonterminal" x="393" y="21">table_name</text></a><rect height="32" rx="10" width="64" x="301" y="47"></rect>
<rect class="terminal" height="32" rx="10" width="64" x="299" y="45"></rect>
<text class="terminal" x="309" y="65">INDEX</text><a xlink:href="#table_index_name" xlink:title="table_index_name">
<rect height="32" width="138" x="385" y="47"></rect>
<rect class="nonterminal" height="32" width="138" x="383" y="45"></rect>
<text lengthAdjust="spacingAndGlyphs" textLength="114" font-size="11" class="nonterminal" x="395" y="65">table_index_name</text></a><rect height="32" rx="10" width="48" x="563" y="3"></rect>
<rect class="terminal" height="32" rx="10" width="48" x="561" y="1"></rect>
<text class="terminal" x="571" y="21">FOR</text>
<rect height="32" rx="10" width="54" x="631" y="3"></rect>
<rect class="terminal" height="32" rx="10" width="54" x="629" y="1"></rect>
<text class="terminal" x="639" y="21">ROW</text>
<rect height="32" rx="10" width="26" x="705" y="3"></rect>
<rect class="terminal" height="32" rx="10" width="26" x="703" y="1"></rect>
<text class="terminal" x="713" y="21">(</text><a xlink:href="#expr_list" xlink:title="expr_list">
<rect height="32" width="74" x="605" y="113"></rect>
<rect class="nonterminal" height="32" width="74" x="603" y="111"></rect>
<text lengthAdjust="spacingAndGlyphs" textLength="50" font-size="10" class="nonterminal" x="615" y="131">expr_list</text></a><rect height="32" rx="10" width="26" x="699" y="113"></rect>
<rect class="terminal" height="32" rx="10" width="26" x="697" y="111"></rect>
<text class="terminal" x="707" y="131">)</text>
<path class="line" d="m17 17 h2 m0 0 h10 m64 0 h10 m0 0 h10 m66 0 h10 m0 0 h10 m60 0 h10 m20 0 h10 m62 0 h10 m0 0 h10 m96 0 h10 m0 0 h44 m-262 0 h20 m242 0 h20 m-282 0 q10 0 10 10 m262 0 q0 -10 10 -10 m-272 10 v24 m262 0 v-24 m-262 24 q0 10 10 10 m242 0 q10 0 10 -10 m-252 10 h10 m64 0 h10 m0 0 h10 m138 0 h10 m20 -44 h10 m48 0 h10 m0 0 h10 m54 0 h10 m0 0 h10 m26 0 h10 m2 0 l2 0 m2 0 l2 0 m2 0 l2 0 m-170 110 l2 0 m2 0 l2 0 m2 0 l2 0 m2 0 h10 m74 0 h10 m0 0 h10 m26 0 h10 m3 0 h-3"></path>
<polygon points="743 127 751 123 751 131"></polygon>
<polygon points="743 127 735 123 735 131"></polygon></svg>