<svg height="69" width="461" xmlns="http://www.w3.org/2000/svg" xmlns:xlink="http://www.w3.org/1999/xlink"><style>svg {
  font-family: ui-monospace, SFMono-Regular, Menlo, Monaco, Consolas, "Liberation Mono", "Courier New", monospace;
}
text {
  fill: #2f3337;
  font-size: 14px;
}
rect {
  fill: #ffffff;
  stroke: #3a3d40;
  stroke-width: 2;
}
rect.terminal {
  fill: #ffffff;
}
rect.nonterminal {
  fill: #ffffff;
}
text.terminal {
  fill: #2f3337;
  font-weight: 600;
}
text.nonterminal {
  fill: #2563eb;
}
a text.nonterminal {
  text-decoration: underline;
}
path.line {
  fill: none;
  stroke: #3a3d40;
  stroke-width: 2;
}
polygon {
  fill: #2f3337;
  stroke: #2f3337;
}</style>
<polygon points="9 17 1 13 1 21"></polygon>
<polygon points="17 17 9 13 9 21"></polygon><a xlink:href="#table_name_opt_idx" xlink:title="table_name_opt_idx">
<rect height="32" width="150" x="31" y="3"></rect>
<rect class="nonterminal" height="32" width="150" x="29" y="1"></rect>
<text lengthAdjust="spacingAndGlyphs" textLength="126" font-size="11" class="nonterminal" x="41" y="21">table_name_opt_idx</text></a><rect height="32" rx="10" width="38" x="221" y="35"></rect>
<rect class="terminal" height="32" rx="10" width="38" x="219" y="33"></rect>
<text class="terminal" x="229" y="53">AS</text><a xlink:href="#table_alias_name" xlink:title="table_alias_name">
<rect height="32" width="134" x="279" y="35"></rect>
<rect class="nonterminal" height="32" width="134" x="277" y="33"></rect>
<text lengthAdjust="spacingAndGlyphs" textLength="110" font-size="11" class="nonterminal" x="289" y="53">table_alias_name</text></a><path class="line" d="m17 17 h2 m0 0 h10 m150 0 h10 m20 0 h10 m0 0 h202 m-232 0 h20 m212 0 h20 m-252 0 q10 0 10 10 m232 0 q0 -10 10 -10 m-242 10 v12 m232 0 v-12 m-232 12 q0 10 10 10 m212 0 q10 0 10 -10 m-222 10 h10 m38 0 h10 m0 0 h10 m134 0 h10 m23 -32 h-3"></path>
<polygon points="451 17 459 13 459 21"></polygon>
<polygon points="451 17 443 13 443 21"></polygon></svg>