<svg height="191" width="877" xmlns="http://www.w3.org/2000/svg" xmlns:xlink="http://www.w3.org/1999/xlink"><style>svg {
  font-family: ui-monospace, SFMono-Regular, Menlo, Monaco, Consolas, "Liberation Mono", "Courier New", monospace;
}
text {
  fill: #2f3337;
  font-size: 14px;
}
rect {
  fill: #ffffff;
  stroke: #3a3d40;
  stroke-width: 2;
}
rect.terminal {
  fill: #ffffff;
}
rect.nonterminal {
  fill: #ffffff;
}
text.terminal {
  fill: #2f3337;
  font-weight: 600;
}
text.nonterminal {
  fill: #2563eb;
}
a text.nonterminal {
  text-decoration: underline;
}
path.line {
  fill: none;
  stroke: #3a3d40;
  stroke-width: 2;
}
polygon {
  fill: #2f3337;
  stroke: #2f3337;
}</style>
<polygon points="11 17 3 13 3 21"></polygon>
<polygon points="19 17 11 13 11 21"></polygon>
<rect height="32" rx="10" width="58" x="33" y="3"></rect>
<rect class="terminal" height="32" rx="10" width="58" x="31" y="1"></rect>
<text class="terminal" x="41" y="21">COPY</text><a xlink:href="#table_name" xlink:title="table_name">
<rect height="32" width="96" x="45" y="69"></rect>
<rect class="nonterminal" height="32" width="96" x="43" y="67"></rect>
<text lengthAdjust="spacingAndGlyphs" textLength="72" font-size="11" class="nonterminal" x="55" y="87">table_name</text></a><a xlink:href="#opt_column_list" xlink:title="opt_column_list">
<rect height="32" width="120" x="161" y="69"></rect>
<rect class="nonterminal" height="32" width="120" x="159" y="67"></rect>
<text lengthAdjust="spacingAndGlyphs" textLength="96" font-size="10" class="nonterminal" x="171" y="87">opt_column_list</text></a><rect height="32" rx="10" width="60" x="321" y="69"></rect>
<rect class="terminal" height="32" rx="10" width="60" x="319" y="67"></rect>
<text class="terminal" x="329" y="87">FROM</text>
<rect height="32" rx="10" width="64" x="401" y="69"></rect>
<rect class="terminal" height="32" rx="10" width="64" x="399" y="67"></rect>
<text class="terminal" x="409" y="87">STDIN</text><a xlink:href="#opt_with_copy_options" xlink:title="opt_with_copy_options">
<rect height="32" width="168" x="485" y="69"></rect>
<rect class="nonterminal" height="32" width="168" x="483" y="67"></rect>
<text lengthAdjust="spacingAndGlyphs" textLength="144" font-size="11" class="nonterminal" x="495" y="87">opt_with_copy_options</text></a><a xlink:href="#opt_where_clause" xlink:title="opt_where_clause">
<rect height="32" width="136" x="673" y="69"></rect>
<rect class="nonterminal" height="32" width="136" x="671" y="67"></rect>
<text lengthAdjust="spacingAndGlyphs" textLength="112" font-size="11" class="nonterminal" x="683" y="87">opt_where_clause</text></a><rect height="32" rx="10" width="38" x="321" y="113"></rect>
<rect class="terminal" height="32" rx="10" width="38" x="319" y="111"></rect>
<text class="terminal" x="329" y="131">TO</text>
<rect height="32" rx="10" width="76" x="379" y="113"></rect>
<rect class="terminal" height="32" rx="10" width="76" x="377" y="111"></rect>
<text class="terminal" x="387" y="131">STDOUT</text><a xlink:href="#opt_with_copy_options" xlink:title="opt_with_copy_options">
<rect height="32" width="168" x="475" y="113"></rect>
<rect class="nonterminal" height="32" width="168" x="473" y="111"></rect>
<text lengthAdjust="spacingAndGlyphs" textLength="144" font-size="11" class="nonterminal" x="485" y="131">opt_with_copy_options</text></a><rect height="32" rx="10" width="26" x="45" y="157"></rect>
<rect class="terminal" height="32" rx="10" width="26" x="43" y="155"></rect>
<text class="terminal" x="53" y="175">(</text><a xlink:href="#copy_to_stmt" xlink:title="copy_to_stmt">
<rect height="32" width="106" x="91" y="157"></rect>
<rect class="nonterminal" height="32" width="106" x="89" y="155"></rect>
<text lengthAdjust="spacingAndGlyphs" textLength="82" font-size="11" class="nonterminal" x="101" y="175">copy_to_stmt</text></a><rect height="32" rx="10" width="26" x="217" y="157"></rect>
<rect class="terminal" height="32" rx="10" width="26" x="215" y="155"></rect>
<text class="terminal" x="225" y="175">)</text>
<rect height="32" rx="10" width="38" x="263" y="157"></rect>
<rect class="terminal" height="32" rx="10" width="38" x="261" y="155"></rect>
<text class="terminal" x="271" y="175">TO</text>
<rect height="32" rx="10" width="76" x="321" y="157"></rect>
<rect class="terminal" height="32" rx="10" width="76" x="319" y="155"></rect>
<text class="terminal" x="329" y="175">STDOUT</text><a xlink:href="#opt_with_copy_options" xlink:title="opt_with_copy_options">
<rect height="32" width="168" x="417" y="157"></rect>
<rect class="nonterminal" height="32" width="168" x="415" y="155"></rect>
<text lengthAdjust="spacingAndGlyphs" textLength="144" font-size="11" class="nonterminal" x="427" y="175">opt_with_copy_options</text></a><path class="line" d="m19 17 h2 m0 0 h10 m58 0 h10 m2 0 l2 0 m2 0 l2 0 m2 0 l2 0 m-110 66 l2 0 m2 0 l2 0 m2 0 l2 0 m22 0 h10 m96 0 h10 m0 0 h10 m120 0 h10 m20 0 h10 m60 0 h10 m0 0 h10 m64 0 h10 m0 0 h10 m168 0 h10 m0 0 h10 m136 0 h10 m-528 0 h20 m508 0 h20 m-548 0 q10 0 10 10 m528 0 q0 -10 10 -10 m-538 10 v24 m528 0 v-24 m-528 24 q0 10 10 10 m508 0 q10 0 10 -10 m-518 10 h10 m38 0 h10 m0 0 h10 m76 0 h10 m0 0 h10 m168 0 h10 m0 0 h166 m-804 -44 h20 m804 0 h20 m-844 0 q10 0 10 10 m824 0 q0 -10 10 -10 m-834 10 v68 m824 0 v-68 m-824 68 q0 10 10 10 m804 0 q10 0 10 -10 m-814 10 h10 m26 0 h10 m0 0 h10 m106 0 h10 m0 0 h10 m26 0 h10 m0 0 h10 m38 0 h10 m0 0 h10 m76 0 h10 m0 0 h10 m168 0 h10 m0 0 h244 m23 -88 h-3"></path>
<polygon points="867 83 875 79 875 87"></polygon>
<polygon points="867 83 859 79 859 87"></polygon></svg>