<svg height="81" width="477" xmlns="http://www.w3.org/2000/svg" xmlns:xlink="http://www.w3.org/1999/xlink"><style>svg {
  font-family: ui-monospace, SFMono-Regular, Menlo, Monaco, Consolas, "Liberation Mono", "Courier New", monospace;
}
text {
  fill: #2f3337;
  font-size: 14px;
}
rect {
  fill: #ffffff;
  stroke: #3a3d40;
  stroke-width: 2;
}
rect.terminal {
  fill: #ffffff;
}
rect.nonterminal {
  fill: #ffffff;
}
text.terminal {
  fill: #2f3337;
  font-weight: 600;
}
text.nonterminal {
  fill: #2563eb;
}
a text.nonterminal {
  text-decoration: underline;
}
path.line {
  fill: none;
  stroke: #3a3d40;
  stroke-width: 2;
}
polygon {
  fill: #2f3337;
  stroke: #2f3337;
}</style>
<polygon points="9 17 1 13 1 21"></polygon>
<polygon points="17 17 9 13 9 21"></polygon>
<rect height="32" rx="10" width="102" x="31" y="3"></rect>
<rect class="terminal" height="32" rx="10" width="102" x="29" y="1"></rect>
<text class="terminal" x="39" y="21">CONFIGURE</text>
<rect height="32" rx="10" width="58" x="153" y="3"></rect>
<rect class="terminal" height="32" rx="10" width="58" x="151" y="1"></rect>
<text class="terminal" x="161" y="21">ZONE</text>
<rect height="32" rx="10" width="64" x="251" y="3"></rect>
<rect class="terminal" height="32" rx="10" width="64" x="249" y="1"></rect>
<text class="terminal" x="259" y="21">USING</text><a xlink:href="#var_set_list" xlink:title="var_set_list">
<rect height="32" width="94" x="335" y="3"></rect>
<rect class="nonterminal" height="32" width="94" x="333" y="1"></rect>
<text lengthAdjust="spacingAndGlyphs" textLength="70" font-size="10" class="nonterminal" x="345" y="21">var_set_list</text></a><rect height="32" rx="10" width="82" x="251" y="47"></rect>
<rect class="terminal" height="32" rx="10" width="82" x="249" y="45"></rect>
<text class="terminal" x="259" y="65">DISCARD</text>
<path class="line" d="m17 17 h2 m0 0 h10 m102 0 h10 m0 0 h10 m58 0 h10 m20 0 h10 m64 0 h10 m0 0 h10 m94 0 h10 m-218 0 h20 m198 0 h20 m-238 0 q10 0 10 10 m218 0 q0 -10 10 -10 m-228 10 v24 m218 0 v-24 m-218 24 q0 10 10 10 m198 0 q10 0 10 -10 m-208 10 h10 m82 0 h10 m0 0 h96 m23 -44 h-3"></path>
<polygon points="467 17 475 13 475 21"></polygon>
<polygon points="467 17 459 13 459 21"></polygon></svg>