<svg height="169" width="239" xmlns="http://www.w3.org/2000/svg" xmlns:xlink="http://www.w3.org/1999/xlink"><style>svg {
  font-family: ui-monospace, SFMono-Regular, Menlo, Monaco, Consolas, "Liberation Mono", "Courier New", monospace;
}
text {
  fill: #2f3337;
  font-size: 14px;
}
rect {
  fill: #ffffff;
  stroke: #3a3d40;
  stroke-width: 2;
}
rect.terminal {
  fill: #ffffff;
}
rect.nonterminal {
  fill: #ffffff;
}
text.terminal {
  fill: #2f3337;
  font-weight: 600;
}
text.nonterminal {
  fill: #2563eb;
}
a text.nonterminal {
  text-decoration: underline;
}
path.line {
  fill: none;
  stroke: #3a3d40;
  stroke-width: 2;
}
polygon {
  fill: #2f3337;
  stroke: #2f3337;
}</style>
<polygon points="9 17 1 13 1 21"></polygon>
<polygon points="17 17 9 13 9 21"></polygon>
<rect height="32" rx="10" width="74" x="51" y="3"></rect>
<rect class="terminal" height="32" rx="10" width="74" x="49" y="1"></rect>
<text class="terminal" x="59" y="21">ICONST</text>
<rect height="32" rx="10" width="74" x="51" y="47"></rect>
<rect class="terminal" height="32" rx="10" width="74" x="49" y="45"></rect>
<text class="terminal" x="59" y="65">FCONST</text>
<rect height="32" rx="10" width="76" x="51" y="91"></rect>
<rect class="terminal" height="32" rx="10" width="76" x="49" y="89"></rect>
<text class="terminal" x="59" y="109">SCONST</text><a xlink:href="#unrestricted_name" xlink:title="unrestricted_name">
<rect height="32" width="140" x="51" y="135"></rect>
<rect class="nonterminal" height="32" width="140" x="49" y="133"></rect>
<text lengthAdjust="spacingAndGlyphs" textLength="116" font-size="11" class="nonterminal" x="61" y="153">unrestricted_name</text></a><path class="line" d="m17 17 h2 m20 0 h10 m74 0 h10 m0 0 h66 m-180 0 h20 m160 0 h20 m-200 0 q10 0 10 10 m180 0 q0 -10 10 -10 m-190 10 v24 m180 0 v-24 m-180 24 q0 10 10 10 m160 0 q10 0 10 -10 m-170 10 h10 m74 0 h10 m0 0 h66 m-170 -10 v20 m180 0 v-20 m-180 20 v24 m180 0 v-24 m-180 24 q0 10 10 10 m160 0 q10 0 10 -10 m-170 10 h10 m76 0 h10 m0 0 h64 m-170 -10 v20 m180 0 v-20 m-180 20 v24 m180 0 v-24 m-180 24 q0 10 10 10 m160 0 q10 0 10 -10 m-170 10 h10 m140 0 h10 m23 -132 h-3"></path>
<polygon points="229 17 237 13 237 21"></polygon>
<polygon points="229 17 221 13 221 21"></polygon></svg>