<svg height="1709" width="275" xmlns="http://www.w3.org/2000/svg"><style>svg {
  font-family: ui-monospace, SFMono-Regular, Menlo, Monaco, Consolas, "Liberation Mono", "Courier New", monospace;
}
text {
  fill: #2f3337;
  font-size: 14px;
}
rect {
  fill: #ffffff;
  stroke: #3a3d40;
  stroke-width: 2;
}
rect.terminal {
  fill: #ffffff;
}
rect.nonterminal {
  fill: #ffffff;
}
text.terminal {
  fill: #2f3337;
  font-weight: 600;
}
text.nonterminal {
  fill: #2563eb;
}
a text.nonterminal {
  text-decoration: underline;
}
path.line {
  fill: none;
  stroke: #3a3d40;
  stroke-width: 2;
}
polygon {
  fill: #2f3337;
  stroke: #2f3337;
}</style>
<polygon points="9 17 1 13 1 21"></polygon>
<polygon points="17 17 9 13 9 21"></polygon>
<rect height="32" rx="10" width="30" x="51" y="3"></rect>
<rect class="terminal" height="32" rx="10" width="30" x="49" y="1"></rect>
<text class="terminal" x="59" y="21">+</text>
<rect height="32" rx="10" width="26" x="51" y="47"></rect>
<rect class="terminal" height="32" rx="10" width="26" x="49" y="45"></rect>
<text class="terminal" x="59" y="65">-</text>
<rect height="32" rx="10" width="28" x="51" y="91"></rect>
<rect class="terminal" height="32" rx="10" width="28" x="49" y="89"></rect>
<text class="terminal" x="59" y="109">*</text>
<rect height="32" rx="10" width="28" x="51" y="135"></rect>
<rect class="terminal" height="32" rx="10" width="28" x="49" y="133"></rect>
<text class="terminal" x="59" y="153">/</text>
<rect height="32" rx="10" width="34" x="51" y="179"></rect>
<rect class="terminal" height="32" rx="10" width="34" x="49" y="177"></rect>
<text class="terminal" x="59" y="197">%</text>
<rect height="32" rx="10" width="30" x="51" y="223"></rect>
<rect class="terminal" height="32" rx="10" width="30" x="49" y="221"></rect>
<text class="terminal" x="59" y="241">^</text>
<rect height="32" rx="10" width="30" x="51" y="267"></rect>
<rect class="terminal" height="32" rx="10" width="30" x="49" y="265"></rect>
<text class="terminal" x="59" y="285">&lt;</text>
<rect height="32" rx="10" width="30" x="51" y="311"></rect>
<rect class="terminal" height="32" rx="10" width="30" x="49" y="309"></rect>
<text class="terminal" x="59" y="329">&gt;</text>
<rect height="32" rx="10" width="30" x="51" y="355"></rect>
<rect class="terminal" height="32" rx="10" width="30" x="49" y="353"></rect>
<text class="terminal" x="59" y="373">=</text>
<rect height="32" rx="10" width="118" x="51" y="399"></rect>
<rect class="terminal" height="32" rx="10" width="118" x="49" y="397"></rect>
<text class="terminal" x="59" y="417">LESS_EQUALS</text>
<rect height="32" rx="10" width="146" x="51" y="443"></rect>
<rect class="terminal" height="32" rx="10" width="146" x="49" y="441"></rect>
<text class="terminal" x="59" y="461">GREATER_EQUALS</text>
<rect height="32" rx="10" width="114" x="51" y="487"></rect>
<rect class="terminal" height="32" rx="10" width="114" x="49" y="485"></rect>
<text class="terminal" x="59" y="505">NOT_EQUALS</text>
<rect height="32" rx="10" width="26" x="51" y="531"></rect>
<rect class="terminal" height="32" rx="10" width="26" x="49" y="529"></rect>
<text class="terminal" x="59" y="549">?</text>
<rect height="32" rx="10" width="30" x="51" y="575"></rect>
<rect class="terminal" height="32" rx="10" width="30" x="49" y="573"></rect>
<text class="terminal" x="59" y="593">&amp;</text>
<rect height="32" rx="10" width="26" x="51" y="619"></rect>
<rect class="terminal" height="32" rx="10" width="26" x="49" y="617"></rect>
<text class="terminal" x="59" y="637">|</text>
<rect height="32" rx="10" width="30" x="51" y="663"></rect>
<rect class="terminal" height="32" rx="10" width="30" x="49" y="661"></rect>
<text class="terminal" x="59" y="681">#</text>
<rect height="32" rx="10" width="92" x="51" y="707"></rect>
<rect class="terminal" height="32" rx="10" width="92" x="49" y="705"></rect>
<text class="terminal" x="59" y="725">FLOORDIV</text>
<rect height="32" rx="10" width="92" x="51" y="751"></rect>
<rect class="terminal" height="32" rx="10" width="92" x="49" y="749"></rect>
<text class="terminal" x="59" y="769">CONTAINS</text>
<rect height="32" rx="10" width="128" x="51" y="795"></rect>
<rect class="terminal" height="32" rx="10" width="128" x="49" y="793"></rect>
<text class="terminal" x="59" y="813">CONTAINED_BY</text>
<rect height="32" rx="10" width="70" x="51" y="839"></rect>
<rect class="terminal" height="32" rx="10" width="70" x="49" y="837"></rect>
<text class="terminal" x="59" y="857">LSHIFT</text>
<rect height="32" rx="10" width="70" x="51" y="883"></rect>
<rect class="terminal" height="32" rx="10" width="70" x="49" y="881"></rect>
<text class="terminal" x="59" y="901">RSHIFT</text>
<rect height="32" rx="10" width="76" x="51" y="927"></rect>
<rect class="terminal" height="32" rx="10" width="76" x="49" y="925"></rect>
<text class="terminal" x="59" y="945">CONCAT</text>
<rect height="32" rx="10" width="90" x="51" y="971"></rect>
<rect class="terminal" height="32" rx="10" width="90" x="49" y="969"></rect>
<text class="terminal" x="59" y="989">FETCHVAL</text>
<rect height="32" rx="10" width="96" x="51" y="1015"></rect>
<rect class="terminal" height="32" rx="10" width="96" x="49" y="1013"></rect>
<text class="terminal" x="59" y="1033">FETCHTEXT</text>
<rect height="32" rx="10" width="134" x="51" y="1059"></rect>
<rect class="terminal" height="32" rx="10" width="134" x="49" y="1057"></rect>
<text class="terminal" x="59" y="1077">FETCHVAL_PATH</text>
<rect height="32" rx="10" width="142" x="51" y="1103"></rect>
<rect class="terminal" height="32" rx="10" width="142" x="49" y="1101"></rect>
<text class="terminal" x="59" y="1121">FETCHTEXT_PATH</text>
<rect height="32" rx="10" width="164" x="51" y="1147"></rect>
<rect class="terminal" height="32" rx="10" width="164" x="49" y="1145"></rect>
<text class="terminal" x="59" y="1165">JSON_SOME_EXISTS</text>
<rect height="32" rx="10" width="150" x="51" y="1191"></rect>
<rect class="terminal" height="32" rx="10" width="150" x="49" y="1189"></rect>
<text class="terminal" x="59" y="1209">JSON_ALL_EXISTS</text>
<rect height="32" rx="10" width="134" x="51" y="1235"></rect>
<rect class="terminal" height="32" rx="10" width="134" x="49" y="1233"></rect>
<text class="terminal" x="59" y="1253">NOT_REGMATCH</text>
<rect height="32" rx="10" width="102" x="51" y="1279"></rect>
<rect class="terminal" height="32" rx="10" width="102" x="49" y="1277"></rect>
<text class="terminal" x="59" y="1297">REGIMATCH</text>
<rect height="32" rx="10" width="140" x="51" y="1323"></rect>
<rect class="terminal" height="32" rx="10" width="140" x="49" y="1321"></rect>
<text class="terminal" x="59" y="1341">NOT_REGIMATCH</text>
<rect height="32" rx="10" width="88" x="51" y="1367"></rect>
<rect class="terminal" height="32" rx="10" width="88" x="49" y="1365"></rect>
<text class="terminal" x="59" y="1385">AND_AND</text>
<rect height="32" rx="10" width="64" x="51" y="1411"></rect>
<rect class="terminal" height="32" rx="10" width="64" x="49" y="1409"></rect>
<text class="terminal" x="59" y="1429">AT_AT</text>
<rect height="32" rx="10" width="90" x="51" y="1455"></rect>
<rect class="terminal" height="32" rx="10" width="90" x="49" y="1453"></rect>
<text class="terminal" x="59" y="1473">DISTANCE</text>
<rect height="32" rx="10" width="128" x="51" y="1499"></rect>
<rect class="terminal" height="32" rx="10" width="128" x="49" y="1497"></rect>
<text class="terminal" x="59" y="1517">COS_DISTANCE</text>
<rect height="32" rx="10" width="176" x="51" y="1543"></rect>
<rect class="terminal" height="32" rx="10" width="176" x="49" y="1541"></rect>
<text class="terminal" x="59" y="1561">NEG_INNER_PRODUCT</text>
<rect height="32" rx="10" width="30" x="51" y="1587"></rect>
<rect class="terminal" height="32" rx="10" width="30" x="49" y="1585"></rect>
<text class="terminal" x="59" y="1605">~</text>
<rect height="32" rx="10" width="58" x="51" y="1631"></rect>
<rect class="terminal" height="32" rx="10" width="58" x="49" y="1629"></rect>
<text class="terminal" x="59" y="1649">SQRT</text>
<rect height="32" rx="10" width="56" x="51" y="1675"></rect>
<rect class="terminal" height="32" rx="10" width="56" x="49" y="1673"></rect>
<text class="terminal" x="59" y="1693">CBRT</text>
<path class="line" d="m17 17 h2 m20 0 h10 m30 0 h10 m0 0 h146 m-216 0 h20 m196 0 h20 m-236 0 q10 0 10 10 m216 0 q0 -10 10 -10 m-226 10 v24 m216 0 v-24 m-216 24 q0 10 10 10 m196 0 q10 0 10 -10 m-206 10 h10 m26 0 h10 m0 0 h150 m-206 -10 v20 m216 0 v-20 m-216 20 v24 m216 0 v-24 m-216 24 q0 10 10 10 m196 0 q10 0 10 -10 m-206 10 h10 m28 0 h10 m0 0 h148 m-206 -10 v20 m216 0 v-20 m-216 20 v24 m216 0 v-24 m-216 24 q0 10 10 10 m196 0 q10 0 10 -10 m-206 10 h10 m28 0 h10 m0 0 h148 m-206 -10 v20 m216 0 v-20 m-216 20 v24 m216 0 v-24 m-216 24 q0 10 10 10 m196 0 q10 0 10 -10 m-206 10 h10 m34 0 h10 m0 0 h142 m-206 -10 v20 m216 0 v-20 m-216 20 v24 m216 0 v-24 m-216 24 q0 10 10 10 m196 0 q10 0 10 -10 m-206 10 h10 m30 0 h10 m0 0 h146 m-206 -10 v20 m216 0 v-20 m-216 20 v24 m216 0 v-24 m-216 24 q0 10 10 10 m196 0 q10 0 10 -10 m-206 10 h10 m30 0 h10 m0 0 h146 m-206 -10 v20 m216 0 v-20 m-216 20 v24 m216 0 v-24 m-216 24 q0 10 10 10 m196 0 q10 0 10 -10 m-206 10 h10 m30 0 h10 m0 0 h146 m-206 -10 v20 m216 0 v-20 m-216 20 v24 m216 0 v-24 m-216 24 q0 10 10 10 m196 0 q10 0 10 -10 m-206 10 h10 m30 0 h10 m0 0 h146 m-206 -10 v20 m216 0 v-20 m-216 20 v24 m216 0 v-24 m-216 24 q0 10 10 10 m196 0 q10 0 10 -10 m-206 10 h10 m118 0 h10 m0 0 h58 m-206 -10 v20 m216 0 v-20 m-216 20 v24 m216 0 v-24 m-216 24 q0 10 10 10 m196 0 q10 0 10 -10 m-206 10 h10 m146 0 h10 m0 0 h30 m-206 -10 v20 m216 0 v-20 m-216 20 v24 m216 0 v-24 m-216 24 q0 10 10 10 m196 0 q10 0 10 -10 m-206 10 h10 m114 0 h10 m0 0 h62 m-206 -10 v20 m216 0 v-20 m-216 20 v24 m216 0 v-24 m-216 24 q0 10 10 10 m196 0 q10 0 10 -10 m-206 10 h10 m26 0 h10 m0 0 h150 m-206 -10 v20 m216 0 v-20 m-216 20 v24 m216 0 v-24 m-216 24 q0 10 10 10 m196 0 q10 0 10 -10 m-206 10 h10 m30 0 h10 m0 0 h146 m-206 -10 v20 m216 0 v-20 m-216 20 v24 m216 0 v-24 m-216 24 q0 10 10 10 m196 0 q10 0 10 -10 m-206 10 h10 m26 0 h10 m0 0 h150 m-206 -10 v20 m216 0 v-20 m-216 20 v24 m216 0 v-24 m-216 24 q0 10 10 10 m196 0 q10 0 10 -10 m-206 10 h10 m30 0 h10 m0 0 h146 m-206 -10 v20 m216 0 v-20 m-216 20 v24 m216 0 v-24 m-216 24 q0 10 10 10 m196 0 q10 0 10 -10 m-206 10 h10 m92 0 h10 m0 0 h84 m-206 -10 v20 m216 0 v-20 m-216 20 v24 m216 0 v-24 m-216 24 q0 10 10 10 m196 0 q10 0 10 -10 m-206 10 h10 m92 0 h10 m0 0 h84 m-206 -10 v20 m216 0 v-20 m-216 20 v24 m216 0 v-24 m-216 24 q0 10 10 10 m196 0 q10 0 10 -10 m-206 10 h10 m128 0 h10 m0 0 h48 m-206 -10 v20 m216 0 v-20 m-216 20 v24 m216 0 v-24 m-216 24 q0 10 10 10 m196 0 q10 0 10 -10 m-206 10 h10 m70 0 h10 m0 0 h106 m-206 -10 v20 m216 0 v-20 m-216 20 v24 m216 0 v-24 m-216 24 q0 10 10 10 m196 0 q10 0 10 -10 m-206 10 h10 m70 0 h10 m0 0 h106 m-206 -10 v20 m216 0 v-20 m-216 20 v24 m216 0 v-24 m-216 24 q0 10 10 10 m196 0 q10 0 10 -10 m-206 10 h10 m76 0 h10 m0 0 h100 m-206 -10 v20 m216 0 v-20 m-216 20 v24 m216 0 v-24 m-216 24 q0 10 10 10 m196 0 q10 0 10 -10 m-206 10 h10 m90 0 h10 m0 0 h86 m-206 -10 v20 m216 0 v-20 m-216 20 v24 m216 0 v-24 m-216 24 q0 10 10 10 m196 0 q10 0 10 -10 m-206 10 h10 m96 0 h10 m0 0 h80 m-206 -10 v20 m216 0 v-20 m-216 20 v24 m216 0 v-24 m-216 24 q0 10 10 10 m196 0 q10 0 10 -10 m-206 10 h10 m134 0 h10 m0 0 h42 m-206 -10 v20 m216 0 v-20 m-216 20 v24 m216 0 v-24 m-216 24 q0 10 10 10 m196 0 q10 0 10 -10 m-206 10 h10 m142 0 h10 m0 0 h34 m-206 -10 v20 m216 0 v-20 m-216 20 v24 m216 0 v-24 m-216 24 q0 10 10 10 m196 0 q10 0 10 -10 m-206 10 h10 m164 0 h10 m0 0 h12 m-206 -10 v20 m216 0 v-20 m-216 20 v24 m216 0 v-24 m-216 24 q0 10 10 10 m196 0 q10 0 10 -10 m-206 10 h10 m150 0 h10 m0 0 h26 m-206 -10 v20 m216 0 v-20 m-216 20 v24 m216 0 v-24 m-216 24 q0 10 10 10 m196 0 q10 0 10 -10 m-206 10 h10 m134 0 h10 m0 0 h42 m-206 -10 v20 m216 0 v-20 m-216 20 v24 m216 0 v-24 m-216 24 q0 10 10 10 m196 0 q10 0 10 -10 m-206 10 h10 m102 0 h10 m0 0 h74 m-206 -10 v20 m216 0 v-20 m-216 20 v24 m216 0 v-24 m-216 24 q0 10 10 10 m196 0 q10 0 10 -10 m-206 10 h10 m140 0 h10 m0 0 h36 m-206 -10 v20 m216 0 v-20 m-216 20 v24 m216 0 v-24 m-216 24 q0 10 10 10 m196 0 q10 0 10 -10 m-206 10 h10 m88 0 h10 m0 0 h88 m-206 -10 v20 m216 0 v-20 m-216 20 v24 m216 0 v-24 m-216 24 q0 10 10 10 m196 0 q10 0 10 -10 m-206 10 h10 m64 0 h10 m0 0 h112 m-206 -10 v20 m216 0 v-20 m-216 20 v24 m216 0 v-24 m-216 24 q0 10 10 10 m196 0 q10 0 10 -10 m-206 10 h10 m90 0 h10 m0 0 h86 m-206 -10 v20 m216 0 v-20 m-216 20 v24 m216 0 v-24 m-216 24 q0 10 10 10 m196 0 q10 0 10 -10 m-206 10 h10 m128 0 h10 m0 0 h48 m-206 -10 v20 m216 0 v-20 m-216 20 v24 m216 0 v-24 m-216 24 q0 10 10 10 m196 0 q10 0 10 -10 m-206 10 h10 m176 0 h10 m-206 -10 v20 m216 0 v-20 m-216 20 v24 m216 0 v-24 m-216 24 q0 10 10 10 m196 0 q10 0 10 -10 m-206 10 h10 m30 0 h10 m0 0 h146 m-206 -10 v20 m216 0 v-20 m-216 20 v24 m216 0 v-24 m-216 24 q0 10 10 10 m196 0 q10 0 10 -10 m-206 10 h10 m58 0 h10 m0 0 h118 m-206 -10 v20 m216 0 v-20 m-216 20 v24 m216 0 v-24 m-216 24 q0 10 10 10 m196 0 q10 0 10 -10 m-206 10 h10 m56 0 h10 m0 0 h120 m23 -1672 h-3"></path>
<polygon points="265 17 273 13 273 21"></polygon>
<polygon points="265 17 257 13 257 21"></polygon></svg>