<svg height="81" width="393" xmlns="http://www.w3.org/2000/svg" xmlns:xlink="http://www.w3.org/1999/xlink"><style>svg {
  font-family: ui-monospace, SFMono-Regular, Menlo, Monaco, Consolas, "Liberation Mono", "Courier New", monospace;
}
text {
  fill: #2f3337;
  font-size: 14px;
}
rect {
  fill: #ffffff;
  stroke: #3a3d40;
  stroke-width: 2;
}
rect.terminal {
  fill: #ffffff;
}
rect.nonterminal {
  fill: #ffffff;
}
text.terminal {
  fill: #2f3337;
  font-weight: 600;
}
text.nonterminal {
  fill: #2563eb;
}
a text.nonterminal {
  text-decoration: underline;
}
path.line {
  fill: none;
  stroke: #3a3d40;
  stroke-width: 2;
}
polygon {
  fill: #2f3337;
  stroke: #2f3337;
}</style>
<polygon points="9 17 1 13 1 21"></polygon>
<polygon points="17 17 9 13 9 21"></polygon><a xlink:href="#row" xlink:title="row">
<rect height="32" width="42" x="51" y="3"></rect>
<rect class="nonterminal" height="32" width="42" x="49" y="1"></rect>
<text lengthAdjust="spacingAndGlyphs" textLength="18" font-size="10" class="nonterminal" x="61" y="21">row</text></a><rect height="32" rx="10" width="26" x="51" y="47"></rect>
<rect class="terminal" height="32" rx="10" width="26" x="49" y="45"></rect>
<text class="terminal" x="59" y="65">(</text><a xlink:href="#row" xlink:title="row">
<rect height="32" width="42" x="97" y="47"></rect>
<rect class="nonterminal" height="32" width="42" x="95" y="45"></rect>
<text lengthAdjust="spacingAndGlyphs" textLength="18" font-size="10" class="nonterminal" x="107" y="65">row</text></a><rect height="32" rx="10" width="38" x="159" y="47"></rect>
<rect class="terminal" height="32" rx="10" width="38" x="157" y="45"></rect>
<text class="terminal" x="167" y="65">AS</text><a xlink:href="#name_list" xlink:title="name_list">
<rect height="32" width="82" x="217" y="47"></rect>
<rect class="nonterminal" height="32" width="82" x="215" y="45"></rect>
<text lengthAdjust="spacingAndGlyphs" textLength="58" font-size="10" class="nonterminal" x="227" y="65">name_list</text></a><rect height="32" rx="10" width="26" x="319" y="47"></rect>
<rect class="terminal" height="32" rx="10" width="26" x="317" y="45"></rect>
<text class="terminal" x="327" y="65">)</text>
<path class="line" d="m17 17 h2 m20 0 h10 m42 0 h10 m0 0 h252 m-334 0 h20 m314 0 h20 m-354 0 q10 0 10 10 m334 0 q0 -10 10 -10 m-344 10 v24 m334 0 v-24 m-334 24 q0 10 10 10 m314 0 q10 0 10 -10 m-324 10 h10 m26 0 h10 m0 0 h10 m42 0 h10 m0 0 h10 m38 0 h10 m0 0 h10 m82 0 h10 m0 0 h10 m26 0 h10 m23 -44 h-3"></path>
<polygon points="383 17 391 13 391 21"></polygon>
<polygon points="383 17 375 13 375 21"></polygon></svg>