<svg height="37" width="657" xmlns="http://www.w3.org/2000/svg" xmlns:xlink="http://www.w3.org/1999/xlink"><style>svg {
  font-family: ui-monospace, SFMono-Regular, Menlo, Monaco, Consolas, "Liberation Mono", "Courier New", monospace;
}
text {
  fill: #2f3337;
  font-size: 14px;
}
rect {
  fill: #ffffff;
  stroke: #3a3d40;
  stroke-width: 2;
}
rect.terminal {
  fill: #ffffff;
}
rect.nonterminal {
  fill: #ffffff;
}
text.terminal {
  fill: #2f3337;
  font-weight: 600;
}
text.nonterminal {
  fill: #2563eb;
}
a text.nonterminal {
  text-decoration: underline;
}
path.line {
  fill: none;
  stroke: #3a3d40;
  stroke-width: 2;
}
polygon {
  fill: #2f3337;
  stroke: #2f3337;
}</style>
<polygon points="9 17 1 13 1 21"></polygon>
<polygon points="17 17 9 13 9 21"></polygon>
<rect height="32" rx="10" width="62" x="31" y="3"></rect>
<rect class="terminal" height="32" rx="10" width="62" x="29" y="1"></rect>
<text class="terminal" x="39" y="21">ALTER</text><a xlink:href="#virtual_cluster" xlink:title="virtual_cluster">
<rect height="32" width="110" x="113" y="3"></rect>
<rect class="nonterminal" height="32" width="110" x="111" y="1"></rect>
<text lengthAdjust="spacingAndGlyphs" textLength="86" font-size="10" class="nonterminal" x="123" y="21">virtual_cluster</text></a><a xlink:href="#virtual_cluster_spec" xlink:title="virtual_cluster_spec">
<rect height="32" width="148" x="243" y="3"></rect>
<rect class="nonterminal" height="32" width="148" x="241" y="1"></rect>
<text lengthAdjust="spacingAndGlyphs" textLength="124" font-size="10" class="nonterminal" x="253" y="21">virtual_cluster_spec</text></a><rect height="32" rx="10" width="76" x="411" y="3"></rect>
<rect class="terminal" height="32" rx="10" width="76" x="409" y="1"></rect>
<text class="terminal" x="419" y="21">RENAME</text>
<rect height="32" rx="10" width="38" x="507" y="3"></rect>
<rect class="terminal" height="32" rx="10" width="38" x="505" y="1"></rect>
<text class="terminal" x="515" y="21">TO</text><a xlink:href="#d_expr" xlink:title="d_expr">
<rect height="32" width="64" x="565" y="3"></rect>
<rect class="nonterminal" height="32" width="64" x="563" y="1"></rect>
<text lengthAdjust="spacingAndGlyphs" textLength="40" font-size="10" class="nonterminal" x="575" y="21">d_expr</text></a><path class="line" d="m17 17 h2 m0 0 h10 m62 0 h10 m0 0 h10 m110 0 h10 m0 0 h10 m148 0 h10 m0 0 h10 m76 0 h10 m0 0 h10 m38 0 h10 m0 0 h10 m64 0 h10 m3 0 h-3"></path>
<polygon points="647 17 655 13 655 21"></polygon>
<polygon points="647 17 639 13 639 21"></polygon></svg>