<svg height="213" width="201" xmlns="http://www.w3.org/2000/svg"><style>svg {
  font-family: ui-monospace, SFMono-Regular, Menlo, Monaco, Consolas, "Liberation Mono", "Courier New", monospace;
}
text {
  fill: #2f3337;
  font-size: 14px;
}
rect {
  fill: #ffffff;
  stroke: #3a3d40;
  stroke-width: 2;
}
rect.terminal {
  fill: #ffffff;
}
rect.nonterminal {
  fill: #ffffff;
}
text.terminal {
  fill: #2f3337;
  font-weight: 600;
}
text.nonterminal {
  fill: #2563eb;
}
a text.nonterminal {
  text-decoration: underline;
}
path.line {
  fill: none;
  stroke: #3a3d40;
  stroke-width: 2;
}
polygon {
  fill: #2f3337;
  stroke: #2f3337;
}</style>
<polygon points="9 17 1 13 1 21"></polygon>
<polygon points="17 17 9 13 9 21"></polygon>
<rect height="32" rx="10" width="72" x="51" y="3"></rect>
<rect class="terminal" height="32" rx="10" width="72" x="49" y="1"></rect>
<text class="terminal" x="59" y="21">TABLES</text>
<rect height="32" rx="10" width="102" x="51" y="47"></rect>
<rect class="terminal" height="32" rx="10" width="102" x="49" y="45"></rect>
<text class="terminal" x="59" y="65">SEQUENCES</text>
<rect height="32" rx="10" width="62" x="51" y="91"></rect>
<rect class="terminal" height="32" rx="10" width="62" x="49" y="89"></rect>
<text class="terminal" x="59" y="109">TYPES</text>
<rect height="32" rx="10" width="86" x="51" y="135"></rect>
<rect class="terminal" height="32" rx="10" width="86" x="49" y="133"></rect>
<text class="terminal" x="59" y="153">SCHEMAS</text>
<rect height="32" rx="10" width="102" x="51" y="179"></rect>
<rect class="terminal" height="32" rx="10" width="102" x="49" y="177"></rect>
<text class="terminal" x="59" y="197">FUNCTIONS</text>
<path class="line" d="m17 17 h2 m20 0 h10 m72 0 h10 m0 0 h30 m-142 0 h20 m122 0 h20 m-162 0 q10 0 10 10 m142 0 q0 -10 10 -10 m-152 10 v24 m142 0 v-24 m-142 24 q0 10 10 10 m122 0 q10 0 10 -10 m-132 10 h10 m102 0 h10 m-132 -10 v20 m142 0 v-20 m-142 20 v24 m142 0 v-24 m-142 24 q0 10 10 10 m122 0 q10 0 10 -10 m-132 10 h10 m62 0 h10 m0 0 h40 m-132 -10 v20 m142 0 v-20 m-142 20 v24 m142 0 v-24 m-142 24 q0 10 10 10 m122 0 q10 0 10 -10 m-132 10 h10 m86 0 h10 m0 0 h16 m-132 -10 v20 m142 0 v-20 m-142 20 v24 m142 0 v-24 m-142 24 q0 10 10 10 m122 0 q10 0 10 -10 m-132 10 h10 m102 0 h10 m23 -176 h-3"></path>
<polygon points="191 17 199 13 199 21"></polygon>
<polygon points="191 17 183 13 183 21"></polygon></svg>