<svg height="69" width="379" xmlns="http://www.w3.org/2000/svg" xmlns:xlink="http://www.w3.org/1999/xlink"><style>svg {
  font-family: ui-monospace, SFMono-Regular, Menlo, Monaco, Consolas, "Liberation Mono", "Courier New", monospace;
}
text {
  fill: #2f3337;
  font-size: 14px;
}
rect {
  fill: #ffffff;
  stroke: #3a3d40;
  stroke-width: 2;
}
rect.terminal {
  fill: #ffffff;
}
rect.nonterminal {
  fill: #ffffff;
}
text.terminal {
  fill: #2f3337;
  font-weight: 600;
}
text.nonterminal {
  fill: #2563eb;
}
a text.nonterminal {
  text-decoration: underline;
}
path.line {
  fill: none;
  stroke: #3a3d40;
  stroke-width: 2;
}
polygon {
  fill: #2f3337;
  stroke: #2f3337;
}</style>
<polygon points="9 17 1 13 1 21"></polygon>
<polygon points="17 17 9 13 9 21"></polygon>
<rect height="32" rx="10" width="26" x="31" y="3"></rect>
<rect class="terminal" height="32" rx="10" width="26" x="29" y="1"></rect>
<text class="terminal" x="39" y="21">(</text><a xlink:href="#tuple1_ambiguous_values" xlink:title="tuple1_ambiguous_values">
<rect height="32" width="188" x="97" y="35"></rect>
<rect class="nonterminal" height="32" width="188" x="95" y="33"></rect>
<text lengthAdjust="spacingAndGlyphs" textLength="164" font-size="11" class="nonterminal" x="107" y="53">tuple1_ambiguous_values</text></a><rect height="32" rx="10" width="26" x="325" y="3"></rect>
<rect class="terminal" height="32" rx="10" width="26" x="323" y="1"></rect>
<text class="terminal" x="333" y="21">)</text>
<path class="line" d="m17 17 h2 m0 0 h10 m26 0 h10 m20 0 h10 m0 0 h198 m-228 0 h20 m208 0 h20 m-248 0 q10 0 10 10 m228 0 q0 -10 10 -10 m-238 10 v12 m228 0 v-12 m-228 12 q0 10 10 10 m208 0 q10 0 10 -10 m-218 10 h10 m188 0 h10 m20 -32 h10 m26 0 h10 m3 0 h-3"></path>
<polygon points="369 17 377 13 377 21"></polygon>
<polygon points="369 17 361 13 361 21"></polygon></svg>