<svg height="81" width="197" xmlns="http://www.w3.org/2000/svg"><style>svg {
  font-family: ui-monospace, SFMono-Regular, Menlo, Monaco, Consolas, "Liberation Mono", "Courier New", monospace;
}
text {
  fill: #2f3337;
  font-size: 14px;
}
rect {
  fill: #ffffff;
  stroke: #3a3d40;
  stroke-width: 2;
}
rect.terminal {
  fill: #ffffff;
}
rect.nonterminal {
  fill: #ffffff;
}
text.terminal {
  fill: #2f3337;
  font-weight: 600;
}
text.nonterminal {
  fill: #2563eb;
}
a text.nonterminal {
  text-decoration: underline;
}
path.line {
  fill: none;
  stroke: #3a3d40;
  stroke-width: 2;
}
polygon {
  fill: #2f3337;
  stroke: #2f3337;
}</style>
<polygon points="9 17 1 13 1 21"></polygon>
<polygon points="17 17 9 13 9 21"></polygon>
<rect height="32" rx="10" width="90" x="51" y="3"></rect>
<rect class="terminal" height="32" rx="10" width="90" x="49" y="1"></rect>
<text class="terminal" x="59" y="21">FORWARD</text>
<rect height="32" rx="10" width="98" x="51" y="47"></rect>
<rect class="terminal" height="32" rx="10" width="98" x="49" y="45"></rect>
<text class="terminal" x="59" y="65">BACKWARD</text>
<path class="line" d="m17 17 h2 m20 0 h10 m90 0 h10 m0 0 h8 m-138 0 h20 m118 0 h20 m-158 0 q10 0 10 10 m138 0 q0 -10 10 -10 m-148 10 v24 m138 0 v-24 m-138 24 q0 10 10 10 m118 0 q10 0 10 -10 m-128 10 h10 m98 0 h10 m23 -44 h-3"></path>
<polygon points="187 17 195 13 195 21"></polygon>
<polygon points="187 17 179 13 179 21"></polygon></svg>