<svg height="37" width="345" xmlns="http://www.w3.org/2000/svg"><style>svg {
  font-family: ui-monospace, SFMono-Regular, Menlo, Monaco, Consolas, "Liberation Mono", "Courier New", monospace;
}
text {
  fill: #2f3337;
  font-size: 14px;
}
rect {
  fill: #ffffff;
  stroke: #3a3d40;
  stroke-width: 2;
}
rect.terminal {
  fill: #ffffff;
}
rect.nonterminal {
  fill: #ffffff;
}
text.terminal {
  fill: #2f3337;
  font-weight: 600;
}
text.nonterminal {
  fill: #2563eb;
}
a text.nonterminal {
  text-decoration: underline;
}
path.line {
  fill: none;
  stroke: #3a3d40;
  stroke-width: 2;
}
polygon {
  fill: #2f3337;
  stroke: #2f3337;
}</style>
<polygon points="9 17 1 13 1 21"></polygon>
<polygon points="17 17 9 13 9 21"></polygon>
<rect height="32" rx="10" width="78" x="31" y="3"></rect>
<rect class="terminal" height="32" rx="10" width="78" x="29" y="1"></rect>
<text class="terminal" x="39" y="21">COMMIT</text>
<rect height="32" rx="10" width="92" x="129" y="3"></rect>
<rect class="terminal" height="32" rx="10" width="92" x="127" y="1"></rect>
<text class="terminal" x="137" y="21">PREPARED</text>
<rect height="32" rx="10" width="76" x="241" y="3"></rect>
<rect class="terminal" height="32" rx="10" width="76" x="239" y="1"></rect>
<text class="terminal" x="249" y="21">SCONST</text>
<path class="line" d="m17 17 h2 m0 0 h10 m78 0 h10 m0 0 h10 m92 0 h10 m0 0 h10 m76 0 h10 m3 0 h-3"></path>
<polygon points="335 17 343 13 343 21"></polygon>
<polygon points="335 17 327 13 327 21"></polygon></svg>