<svg height="785" width="237" xmlns="http://www.w3.org/2000/svg"><style>svg {
  font-family: ui-monospace, SFMono-Regular, Menlo, Monaco, Consolas, "Liberation Mono", "Courier New", monospace;
}
text {
  fill: #2f3337;
  font-size: 14px;
}
rect {
  fill: #ffffff;
  stroke: #3a3d40;
  stroke-width: 2;
}
rect.terminal {
  fill: #ffffff;
}
rect.nonterminal {
  fill: #ffffff;
}
text.terminal {
  fill: #2f3337;
  font-weight: 600;
}
text.nonterminal {
  fill: #2563eb;
}
a text.nonterminal {
  text-decoration: underline;
}
path.line {
  fill: none;
  stroke: #3a3d40;
  stroke-width: 2;
}
polygon {
  fill: #2f3337;
  stroke: #2f3337;
}</style>
<polygon points="9 17 1 13 1 21"></polygon>
<polygon points="17 17 9 13 9 21"></polygon>
<rect height="32" rx="10" width="138" x="51" y="3"></rect>
<rect class="terminal" height="32" rx="10" width="138" x="49" y="1"></rect>
<text class="terminal" x="59" y="21">AUTHORIZATION</text>
<rect height="32" rx="10" width="100" x="51" y="47"></rect>
<rect class="terminal" height="32" rx="10" width="100" x="49" y="45"></rect>
<text class="terminal" x="59" y="65">COLLATION</text>
<rect height="32" rx="10" width="66" x="51" y="91"></rect>
<rect class="terminal" height="32" rx="10" width="66" x="49" y="89"></rect>
<text class="terminal" x="59" y="109">CROSS</text>
<rect height="32" rx="10" width="54" x="51" y="135"></rect>
<rect class="terminal" height="32" rx="10" width="54" x="49" y="133"></rect>
<text class="terminal" x="59" y="153">FULL</text>
<rect height="32" rx="10" width="64" x="51" y="179"></rect>
<rect class="terminal" height="32" rx="10" width="64" x="49" y="177"></rect>
<text class="terminal" x="59" y="197">INNER</text>
<rect height="32" rx="10" width="58" x="51" y="223"></rect>
<rect class="terminal" height="32" rx="10" width="58" x="49" y="221"></rect>
<text class="terminal" x="59" y="241">ILIKE</text>
<rect height="32" rx="10" width="36" x="51" y="267"></rect>
<rect class="terminal" height="32" rx="10" width="36" x="49" y="265"></rect>
<text class="terminal" x="59" y="285">IS</text>
<rect height="32" rx="10" width="70" x="51" y="311"></rect>
<rect class="terminal" height="32" rx="10" width="70" x="49" y="309"></rect>
<text class="terminal" x="59" y="329">ISNULL</text>
<rect height="32" rx="10" width="54" x="51" y="355"></rect>
<rect class="terminal" height="32" rx="10" width="54" x="49" y="353"></rect>
<text class="terminal" x="59" y="373">JOIN</text>
<rect height="32" rx="10" width="52" x="51" y="399"></rect>
<rect class="terminal" height="32" rx="10" width="52" x="49" y="397"></rect>
<text class="terminal" x="59" y="417">LEFT</text>
<rect height="32" rx="10" width="52" x="51" y="443"></rect>
<rect class="terminal" height="32" rx="10" width="52" x="49" y="441"></rect>
<text class="terminal" x="59" y="461">LIKE</text>
<rect height="32" rx="10" width="84" x="51" y="487"></rect>
<rect class="terminal" height="32" rx="10" width="84" x="49" y="485"></rect>
<text class="terminal" x="59" y="505">NATURAL</text>
<rect height="32" rx="10" width="58" x="51" y="531"></rect>
<rect class="terminal" height="32" rx="10" width="58" x="49" y="529"></rect>
<text class="terminal" x="59" y="549">NONE</text>
<rect height="32" rx="10" width="84" x="51" y="575"></rect>
<rect class="terminal" height="32" rx="10" width="84" x="49" y="573"></rect>
<text class="terminal" x="59" y="593">NOTNULL</text>
<rect height="32" rx="10" width="66" x="51" y="619"></rect>
<rect class="terminal" height="32" rx="10" width="66" x="49" y="617"></rect>
<text class="terminal" x="59" y="637">OUTER</text>
<rect height="32" rx="10" width="92" x="51" y="663"></rect>
<rect class="terminal" height="32" rx="10" width="92" x="49" y="661"></rect>
<text class="terminal" x="59" y="681">OVERLAPS</text>
<rect height="32" rx="10" width="64" x="51" y="707"></rect>
<rect class="terminal" height="32" rx="10" width="64" x="49" y="705"></rect>
<text class="terminal" x="59" y="725">RIGHT</text>
<rect height="32" rx="10" width="80" x="51" y="751"></rect>
<rect class="terminal" height="32" rx="10" width="80" x="49" y="749"></rect>
<text class="terminal" x="59" y="769">SIMILAR</text>
<path class="line" d="m17 17 h2 m20 0 h10 m138 0 h10 m-178 0 h20 m158 0 h20 m-198 0 q10 0 10 10 m178 0 q0 -10 10 -10 m-188 10 v24 m178 0 v-24 m-178 24 q0 10 10 10 m158 0 q10 0 10 -10 m-168 10 h10 m100 0 h10 m0 0 h38 m-168 -10 v20 m178 0 v-20 m-178 20 v24 m178 0 v-24 m-178 24 q0 10 10 10 m158 0 q10 0 10 -10 m-168 10 h10 m66 0 h10 m0 0 h72 m-168 -10 v20 m178 0 v-20 m-178 20 v24 m178 0 v-24 m-178 24 q0 10 10 10 m158 0 q10 0 10 -10 m-168 10 h10 m54 0 h10 m0 0 h84 m-168 -10 v20 m178 0 v-20 m-178 20 v24 m178 0 v-24 m-178 24 q0 10 10 10 m158 0 q10 0 10 -10 m-168 10 h10 m64 0 h10 m0 0 h74 m-168 -10 v20 m178 0 v-20 m-178 20 v24 m178 0 v-24 m-178 24 q0 10 10 10 m158 0 q10 0 10 -10 m-168 10 h10 m58 0 h10 m0 0 h80 m-168 -10 v20 m178 0 v-20 m-178 20 v24 m178 0 v-24 m-178 24 q0 10 10 10 m158 0 q10 0 10 -10 m-168 10 h10 m36 0 h10 m0 0 h102 m-168 -10 v20 m178 0 v-20 m-178 20 v24 m178 0 v-24 m-178 24 q0 10 10 10 m158 0 q10 0 10 -10 m-168 10 h10 m70 0 h10 m0 0 h68 m-168 -10 v20 m178 0 v-20 m-178 20 v24 m178 0 v-24 m-178 24 q0 10 10 10 m158 0 q10 0 10 -10 m-168 10 h10 m54 0 h10 m0 0 h84 m-168 -10 v20 m178 0 v-20 m-178 20 v24 m178 0 v-24 m-178 24 q0 10 10 10 m158 0 q10 0 10 -10 m-168 10 h10 m52 0 h10 m0 0 h86 m-168 -10 v20 m178 0 v-20 m-178 20 v24 m178 0 v-24 m-178 24 q0 10 10 10 m158 0 q10 0 10 -10 m-168 10 h10 m52 0 h10 m0 0 h86 m-168 -10 v20 m178 0 v-20 m-178 20 v24 m178 0 v-24 m-178 24 q0 10 10 10 m158 0 q10 0 10 -10 m-168 10 h10 m84 0 h10 m0 0 h54 m-168 -10 v20 m178 0 v-20 m-178 20 v24 m178 0 v-24 m-178 24 q0 10 10 10 m158 0 q10 0 10 -10 m-168 10 h10 m58 0 h10 m0 0 h80 m-168 -10 v20 m178 0 v-20 m-178 20 v24 m178 0 v-24 m-178 24 q0 10 10 10 m158 0 q10 0 10 -10 m-168 10 h10 m84 0 h10 m0 0 h54 m-168 -10 v20 m178 0 v-20 m-178 20 v24 m178 0 v-24 m-178 24 q0 10 10 10 m158 0 q10 0 10 -10 m-168 10 h10 m66 0 h10 m0 0 h72 m-168 -10 v20 m178 0 v-20 m-178 20 v24 m178 0 v-24 m-178 24 q0 10 10 10 m158 0 q10 0 10 -10 m-168 10 h10 m92 0 h10 m0 0 h46 m-168 -10 v20 m178 0 v-20 m-178 20 v24 m178 0 v-24 m-178 24 q0 10 10 10 m158 0 q10 0 10 -10 m-168 10 h10 m64 0 h10 m0 0 h74 m-168 -10 v20 m178 0 v-20 m-178 20 v24 m178 0 v-24 m-178 24 q0 10 10 10 m158 0 q10 0 10 -10 m-168 10 h10 m80 0 h10 m0 0 h58 m23 -748 h-3"></path>
<polygon points="227 17 235 13 235 21"></polygon>
<polygon points="227 17 219 13 219 21"></polygon></svg>