<svg height="125" width="387" xmlns="http://www.w3.org/2000/svg" xmlns:xlink="http://www.w3.org/1999/xlink"><style>svg {
  font-family: ui-monospace, SFMono-Regular, Menlo, Monaco, Consolas, "Liberation Mono", "Courier New", monospace;
}
text {
  fill: #2f3337;
  font-size: 14px;
}
rect {
  fill: #ffffff;
  stroke: #3a3d40;
  stroke-width: 2;
}
rect.terminal {
  fill: #ffffff;
}
rect.nonterminal {
  fill: #ffffff;
}
text.terminal {
  fill: #2f3337;
  font-weight: 600;
}
text.nonterminal {
  fill: #2563eb;
}
a text.nonterminal {
  text-decoration: underline;
}
path.line {
  fill: none;
  stroke: #3a3d40;
  stroke-width: 2;
}
polygon {
  fill: #2f3337;
  stroke: #2f3337;
}</style>
<polygon points="9 17 1 13 1 21"></polygon>
<polygon points="17 17 9 13 9 21"></polygon>
<rect height="32" rx="10" width="82" x="51" y="3"></rect>
<rect class="terminal" height="32" rx="10" width="82" x="49" y="1"></rect>
<text class="terminal" x="59" y="21">identifier</text><a xlink:href="#unreserved_keyword" xlink:title="unreserved_keyword">
<rect height="32" width="152" x="51" y="47"></rect>
<rect class="nonterminal" height="32" width="152" x="49" y="45"></rect>
<text lengthAdjust="spacingAndGlyphs" textLength="128" font-size="11" class="nonterminal" x="61" y="65">unreserved_keyword</text></a><a xlink:href="#type_func_name_no_crdb_extra_keyword" xlink:title="type_func_name_no_crdb_extra_keyword">
<rect height="32" width="288" x="51" y="91"></rect>
<rect class="nonterminal" height="32" width="288" x="49" y="89"></rect>
<text lengthAdjust="spacingAndGlyphs" textLength="264" font-size="11" class="nonterminal" x="61" y="109">type_func_name_no_crdb_extra_keyword</text></a><path class="line" d="m17 17 h2 m20 0 h10 m82 0 h10 m0 0 h206 m-328 0 h20 m308 0 h20 m-348 0 q10 0 10 10 m328 0 q0 -10 10 -10 m-338 10 v24 m328 0 v-24 m-328 24 q0 10 10 10 m308 0 q10 0 10 -10 m-318 10 h10 m152 0 h10 m0 0 h136 m-318 -10 v20 m328 0 v-20 m-328 20 v24 m328 0 v-24 m-328 24 q0 10 10 10 m308 0 q10 0 10 -10 m-318 10 h10 m288 0 h10 m23 -88 h-3"></path>
<polygon points="377 17 385 13 385 21"></polygon>
<polygon points="377 17 369 13 369 21"></polygon></svg>