<svg height="81" width="357" xmlns="http://www.w3.org/2000/svg" xmlns:xlink="http://www.w3.org/1999/xlink"><style>svg {
  font-family: ui-monospace, SFMono-Regular, Menlo, Monaco, Consolas, "Liberation Mono", "Courier New", monospace;
}
text {
  fill: #2f3337;
  font-size: 14px;
}
rect {
  fill: #ffffff;
  stroke: #3a3d40;
  stroke-width: 2;
}
rect.terminal {
  fill: #ffffff;
}
rect.nonterminal {
  fill: #ffffff;
}
text.terminal {
  fill: #2f3337;
  font-weight: 600;
}
text.nonterminal {
  fill: #2563eb;
}
a text.nonterminal {
  text-decoration: underline;
}
path.line {
  fill: none;
  stroke: #3a3d40;
  stroke-width: 2;
}
polygon {
  fill: #2f3337;
  stroke: #2f3337;
}</style>
<polygon points="9 17 1 13 1 21"></polygon>
<polygon points="17 17 9 13 9 21"></polygon>
<rect height="32" rx="10" width="100" x="51" y="3"></rect>
<rect class="terminal" height="32" rx="10" width="100" x="49" y="1"></rect>
<text class="terminal" x="59" y="21">RETENTION</text>
<rect height="32" rx="10" width="30" x="171" y="3"></rect>
<rect class="terminal" height="32" rx="10" width="30" x="169" y="1"></rect>
<text class="terminal" x="179" y="21">=</text><a xlink:href="#d_expr" xlink:title="d_expr">
<rect height="32" width="64" x="221" y="3"></rect>
<rect class="nonterminal" height="32" width="64" x="219" y="1"></rect>
<text lengthAdjust="spacingAndGlyphs" textLength="40" font-size="10" class="nonterminal" x="231" y="21">d_expr</text></a><rect height="32" rx="10" width="56" x="51" y="47"></rect>
<rect class="terminal" height="32" rx="10" width="56" x="49" y="45"></rect>
<text class="terminal" x="59" y="65">READ</text>
<rect height="32" rx="10" width="80" x="127" y="47"></rect>
<rect class="terminal" height="32" rx="10" width="80" x="125" y="45"></rect>
<text class="terminal" x="135" y="65">VIRTUAL</text>
<rect height="32" rx="10" width="82" x="227" y="47"></rect>
<rect class="terminal" height="32" rx="10" width="82" x="225" y="45"></rect>
<text class="terminal" x="235" y="65">CLUSTER</text>
<path class="line" d="m17 17 h2 m20 0 h10 m100 0 h10 m0 0 h10 m30 0 h10 m0 0 h10 m64 0 h10 m0 0 h24 m-298 0 h20 m278 0 h20 m-318 0 q10 0 10 10 m298 0 q0 -10 10 -10 m-308 10 v24 m298 0 v-24 m-298 24 q0 10 10 10 m278 0 q10 0 10 -10 m-288 10 h10 m56 0 h10 m0 0 h10 m80 0 h10 m0 0 h10 m82 0 h10 m23 -44 h-3"></path>
<polygon points="347 17 355 13 355 21"></polygon>
<polygon points="347 17 339 13 339 21"></polygon></svg>