<svg height="57" width="523" xmlns="http://www.w3.org/2000/svg" xmlns:xlink="http://www.w3.org/1999/xlink"><style>svg {
  font-family: ui-monospace, SFMono-Regular, Menlo, Monaco, Consolas, "Liberation Mono", "Courier New", monospace;
}
text {
  fill: #2f3337;
  font-size: 14px;
}
rect {
  fill: #ffffff;
  stroke: #3a3d40;
  stroke-width: 2;
}
rect.terminal {
  fill: #ffffff;
}
rect.nonterminal {
  fill: #ffffff;
}
text.terminal {
  fill: #2f3337;
  font-weight: 600;
}
text.nonterminal {
  fill: #2563eb;
}
a text.nonterminal {
  text-decoration: underline;
}
path.line {
  fill: none;
  stroke: #3a3d40;
  stroke-width: 2;
}
polygon {
  fill: #2f3337;
  stroke: #2f3337;
}</style>
<polygon points="9 5 1 1 1 9"></polygon>
<polygon points="17 5 9 1 9 9"></polygon>
<rect height="32" rx="10" width="112" x="51" y="23"></rect>
<rect class="terminal" height="32" rx="10" width="112" x="49" y="21"></rect>
<text class="terminal" x="59" y="41">CONNECTION</text>
<rect height="32" rx="10" width="60" x="183" y="23"></rect>
<rect class="terminal" height="32" rx="10" width="60" x="181" y="21"></rect>
<text class="terminal" x="191" y="41">LIMIT</text><a xlink:href="#opt_equal" xlink:title="opt_equal">
<rect height="32" width="84" x="263" y="23"></rect>
<rect class="nonterminal" height="32" width="84" x="261" y="21"></rect>
<text lengthAdjust="spacingAndGlyphs" textLength="60" font-size="10" class="nonterminal" x="273" y="41">opt_equal</text></a><a xlink:href="#signed_iconst" xlink:title="signed_iconst">
<rect height="32" width="108" x="367" y="23"></rect>
<rect class="nonterminal" height="32" width="108" x="365" y="21"></rect>
<text lengthAdjust="spacingAndGlyphs" textLength="84" font-size="10" class="nonterminal" x="377" y="41">signed_iconst</text></a><path class="line" d="m17 5 h2 m20 0 h10 m0 0 h434 m-464 0 h20 m444 0 h20 m-484 0 q10 0 10 10 m464 0 q0 -10 10 -10 m-474 10 v12 m464 0 v-12 m-464 12 q0 10 10 10 m444 0 q10 0 10 -10 m-454 10 h10 m112 0 h10 m0 0 h10 m60 0 h10 m0 0 h10 m84 0 h10 m0 0 h10 m108 0 h10 m23 -32 h-3"></path>
<polygon points="513 5 521 1 521 9"></polygon>
<polygon points="513 5 505 1 505 9"></polygon></svg>