<svg height="277" width="1051" xmlns="http://www.w3.org/2000/svg" xmlns:xlink="http://www.w3.org/1999/xlink"><style>svg {
  font-family: ui-monospace, SFMono-Regular, Menlo, Monaco, Consolas, "Liberation Mono", "Courier New", monospace;
}
text {
  fill: #2f3337;
  font-size: 14px;
}
rect {
  fill: #ffffff;
  stroke: #3a3d40;
  stroke-width: 2;
}
rect.terminal {
  fill: #ffffff;
}
rect.nonterminal {
  fill: #ffffff;
}
text.terminal {
  fill: #2f3337;
  font-weight: 600;
}
text.nonterminal {
  fill: #2563eb;
}
a text.nonterminal {
  text-decoration: underline;
}
path.line {
  fill: none;
  stroke: #3a3d40;
  stroke-width: 2;
}
polygon {
  fill: #2f3337;
  stroke: #2f3337;
}</style>
<polygon points="9 17 1 13 1 21"></polygon>
<polygon points="17 17 9 13 9 21"></polygon>
<rect height="32" rx="10" width="76" x="31" y="3"></rect>
<rect class="terminal" height="32" rx="10" width="76" x="29" y="1"></rect>
<text class="terminal" x="39" y="21">IMPORT</text>
<rect height="32" rx="10" width="62" x="65" y="101"></rect>
<rect class="terminal" height="32" rx="10" width="62" x="63" y="99"></rect>
<text class="terminal" x="73" y="119">TABLE</text><a xlink:href="#table_name" xlink:title="table_name">
<rect height="32" width="96" x="147" y="101"></rect>
<rect class="nonterminal" height="32" width="96" x="145" y="99"></rect>
<text lengthAdjust="spacingAndGlyphs" textLength="72" font-size="11" class="nonterminal" x="157" y="119">table_name</text></a><rect height="32" rx="10" width="60" x="263" y="101"></rect>
<rect class="terminal" height="32" rx="10" width="60" x="261" y="99"></rect>
<text class="terminal" x="271" y="119">FROM</text><a xlink:href="#import_format" xlink:title="import_format">
<rect height="32" width="110" x="363" y="69"></rect>
<rect class="nonterminal" height="32" width="110" x="361" y="67"></rect>
<text lengthAdjust="spacingAndGlyphs" textLength="86" font-size="10" class="nonterminal" x="373" y="87">import_format</text></a><a xlink:href="#string_or_placeholder" xlink:title="string_or_placeholder">
<rect height="32" width="158" x="493" y="69"></rect>
<rect class="nonterminal" height="32" width="158" x="491" y="67"></rect>
<text lengthAdjust="spacingAndGlyphs" textLength="134" font-size="10" class="nonterminal" x="503" y="87">string_or_placeholder</text></a><rect height="32" rx="10" width="56" x="45" y="145"></rect>
<rect class="terminal" height="32" rx="10" width="56" x="43" y="143"></rect>
<text class="terminal" x="53" y="163">INTO</text><a xlink:href="#table_name" xlink:title="table_name">
<rect height="32" width="96" x="121" y="145"></rect>
<rect class="nonterminal" height="32" width="96" x="119" y="143"></rect>
<text lengthAdjust="spacingAndGlyphs" textLength="72" font-size="11" class="nonterminal" x="131" y="163">table_name</text></a><rect height="32" rx="10" width="26" x="257" y="177"></rect>
<rect class="terminal" height="32" rx="10" width="26" x="255" y="175"></rect>
<text class="terminal" x="265" y="195">(</text><a xlink:href="#insert_column_list" xlink:title="insert_column_list">
<rect height="32" width="136" x="303" y="177"></rect>
<rect class="nonterminal" height="32" width="136" x="301" y="175"></rect>
<text lengthAdjust="spacingAndGlyphs" textLength="112" font-size="10" class="nonterminal" x="313" y="195">insert_column_list</text></a><rect height="32" rx="10" width="26" x="459" y="177"></rect>
<rect class="terminal" height="32" rx="10" width="26" x="457" y="175"></rect>
<text class="terminal" x="467" y="195">)</text><a xlink:href="#import_format" xlink:title="import_format">
<rect height="32" width="110" x="525" y="145"></rect>
<rect class="nonterminal" height="32" width="110" x="523" y="143"></rect>
<text lengthAdjust="spacingAndGlyphs" textLength="86" font-size="10" class="nonterminal" x="535" y="163">import_format</text></a><rect height="32" rx="10" width="56" x="655" y="145"></rect>
<rect class="terminal" height="32" rx="10" width="56" x="653" y="143"></rect>
<text class="terminal" x="663" y="163">DATA</text>
<rect height="32" rx="10" width="26" x="731" y="145"></rect>
<rect class="terminal" height="32" rx="10" width="26" x="729" y="143"></rect>
<text class="terminal" x="739" y="163">(</text><a xlink:href="#string_or_placeholder_list" xlink:title="string_or_placeholder_list">
<rect height="32" width="186" x="777" y="145"></rect>
<rect class="nonterminal" height="32" width="186" x="775" y="143"></rect>
<text lengthAdjust="spacingAndGlyphs" textLength="162" font-size="10" class="nonterminal" x="787" y="163">string_or_placeholder_list</text></a><rect height="32" rx="10" width="26" x="983" y="145"></rect>
<rect class="terminal" height="32" rx="10" width="26" x="981" y="143"></rect>
<text class="terminal" x="991" y="163">)</text><a xlink:href="#opt_with_options" xlink:title="opt_with_options">
<rect height="32" width="130" x="893" y="243"></rect>
<rect class="nonterminal" height="32" width="130" x="891" y="241"></rect>
<text lengthAdjust="spacingAndGlyphs" textLength="106" font-size="10" class="nonterminal" x="903" y="261">opt_with_options</text></a><path class="line" d="m17 17 h2 m0 0 h10 m76 0 h10 m2 0 l2 0 m2 0 l2 0 m2 0 l2 0 m-126 66 l2 0 m2 0 l2 0 m2 0 l2 0 m42 0 h10 m0 0 h268 m-298 0 h20 m278 0 h20 m-318 0 q10 0 10 10 m298 0 q0 -10 10 -10 m-308 10 v12 m298 0 v-12 m-298 12 q0 10 10 10 m278 0 q10 0 10 -10 m-288 10 h10 m62 0 h10 m0 0 h10 m96 0 h10 m0 0 h10 m60 0 h10 m20 -32 h10 m110 0 h10 m0 0 h10 m158 0 h10 m0 0 h358 m-1004 0 h20 m984 0 h20 m-1024 0 q10 0 10 10 m1004 0 q0 -10 10 -10 m-1014 10 v56 m1004 0 v-56 m-1004 56 q0 10 10 10 m984 0 q10 0 10 -10 m-994 10 h10 m56 0 h10 m0 0 h10 m96 0 h10 m20 0 h10 m0 0 h238 m-268 0 h20 m248 0 h20 m-288 0 q10 0 10 10 m268 0 q0 -10 10 -10 m-278 10 v12 m268 0 v-12 m-268 12 q0 10 10 10 m248 0 q10 0 10 -10 m-258 10 h10 m26 0 h10 m0 0 h10 m136 0 h10 m0 0 h10 m26 0 h10 m20 -32 h10 m110 0 h10 m0 0 h10 m56 0 h10 m0 0 h10 m26 0 h10 m0 0 h10 m186 0 h10 m0 0 h10 m26 0 h10 m22 -76 l2 0 m2 0 l2 0 m2 0 l2 0 m-180 174 l2 0 m2 0 l2 0 m2 0 l2 0 m2 0 h10 m130 0 h10 m3 0 h-3"></path>
<polygon points="1041 257 1049 253 1049 261"></polygon>
<polygon points="1041 257 1033 253 1033 261"></polygon></svg>