<svg height="37" width="721" xmlns="http://www.w3.org/2000/svg"><style>svg {
  font-family: ui-monospace, SFMono-Regular, Menlo, Monaco, Consolas, "Liberation Mono", "Courier New", monospace;
}
text {
  fill: #2f3337;
  font-size: 14px;
}
rect {
  fill: #ffffff;
  stroke: #3a3d40;
  stroke-width: 2;
}
rect.terminal {
  fill: #ffffff;
}
rect.nonterminal {
  fill: #ffffff;
}
text.terminal {
  fill: #2f3337;
  font-weight: 600;
}
text.nonterminal {
  fill: #2563eb;
}
a text.nonterminal {
  text-decoration: underline;
}
path.line {
  fill: none;
  stroke: #3a3d40;
  stroke-width: 2;
}
polygon {
  fill: #2f3337;
  stroke: #2f3337;
}</style>
<polygon points="9 17 1 13 1 21"></polygon>
<polygon points="17 17 9 13 9 21"></polygon>
<rect height="32" rx="10" width="72" x="31" y="3"></rect>
<rect class="terminal" height="32" rx="10" width="72" x="29" y="1"></rect>
<text class="terminal" x="39" y="21">CREATE</text>
<rect height="32" rx="10" width="90" x="123" y="3"></rect>
<rect class="terminal" height="32" rx="10" width="90" x="121" y="1"></rect>
<text class="terminal" x="131" y="21">EXTERNAL</text>
<rect height="32" rx="10" width="112" x="233" y="3"></rect>
<rect class="terminal" height="32" rx="10" width="112" x="231" y="1"></rect>
<text class="terminal" x="241" y="21">CONNECTION</text>
<rect height="32" width="132" x="365" y="3"></rect>
<rect class="nonterminal" height="32" width="132" x="363" y="1"></rect>
<text lengthAdjust="spacingAndGlyphs" textLength="108" font-size="11" class="nonterminal" x="375" y="21">connection_name</text><rect height="32" rx="10" width="38" x="517" y="3"></rect>
<rect class="terminal" height="32" rx="10" width="38" x="515" y="1"></rect>
<text class="terminal" x="525" y="21">AS</text>
<rect height="32" width="118" x="575" y="3"></rect>
<rect class="nonterminal" height="32" width="118" x="573" y="1"></rect>
<text lengthAdjust="spacingAndGlyphs" textLength="94" font-size="10" class="nonterminal" x="585" y="21">connection_URI</text><path class="line" d="m17 17 h2 m0 0 h10 m72 0 h10 m0 0 h10 m90 0 h10 m0 0 h10 m112 0 h10 m0 0 h10 m132 0 h10 m0 0 h10 m38 0 h10 m0 0 h10 m118 0 h10 m3 0 h-3"></path>
<polygon points="711 17 719 13 719 21"></polygon>
<polygon points="711 17 703 13 703 21"></polygon></svg>