<svg height="125" width="467" xmlns="http://www.w3.org/2000/svg" xmlns:xlink="http://www.w3.org/1999/xlink"><style>svg {
  font-family: ui-monospace, SFMono-Regular, Menlo, Monaco, Consolas, "Liberation Mono", "Courier New", monospace;
}
text {
  fill: #2f3337;
  font-size: 14px;
}
rect {
  fill: #ffffff;
  stroke: #3a3d40;
  stroke-width: 2;
}
rect.terminal {
  fill: #ffffff;
}
rect.nonterminal {
  fill: #ffffff;
}
text.terminal {
  fill: #2f3337;
  font-weight: 600;
}
text.nonterminal {
  fill: #2563eb;
}
a text.nonterminal {
  text-decoration: underline;
}
path.line {
  fill: none;
  stroke: #3a3d40;
  stroke-width: 2;
}
polygon {
  fill: #2f3337;
  stroke: #2f3337;
}</style>
<polygon points="9 17 1 13 1 21"></polygon>
<polygon points="17 17 9 13 9 21"></polygon>
<rect height="32" rx="10" width="76" x="31" y="3"></rect>
<rect class="terminal" height="32" rx="10" width="76" x="29" y="1"></rect>
<text class="terminal" x="39" y="21">RESUME</text>
<rect height="32" rx="10" width="46" x="147" y="3"></rect>
<rect class="terminal" height="32" rx="10" width="46" x="145" y="1"></rect>
<text class="terminal" x="155" y="21">JOB</text>
<rect height="32" width="58" x="213" y="3"></rect>
<rect class="nonterminal" height="32" width="58" x="211" y="1"></rect>
<text lengthAdjust="spacingAndGlyphs" textLength="34" font-size="10" class="nonterminal" x="223" y="21">job_id</text><rect height="32" rx="10" width="56" x="147" y="47"></rect>
<rect class="terminal" height="32" rx="10" width="56" x="145" y="45"></rect>
<text class="terminal" x="155" y="65">JOBS</text><a xlink:href="/docs/stable/sql-grammar#select_stmt" xlink:title="select_stmt">
<rect height="32" width="94" x="243" y="47"></rect>
<rect class="nonterminal" height="32" width="94" x="241" y="45"></rect>
<text lengthAdjust="spacingAndGlyphs" textLength="70" font-size="10" class="nonterminal" x="253" y="65">select_stmt</text></a><a xlink:href="/docs/stable/sql-grammar#for_schedules_clause" xlink:title="for_schedules_clause">
<rect height="32" width="156" x="243" y="91"></rect>
<rect class="nonterminal" height="32" width="156" x="241" y="89"></rect>
<text lengthAdjust="spacingAndGlyphs" textLength="132" font-size="10" class="nonterminal" x="253" y="109">for_schedules_clause</text></a><path class="line" d="m17 17 h2 m0 0 h10 m76 0 h10 m20 0 h10 m46 0 h10 m0 0 h10 m58 0 h10 m0 0 h148 m-312 0 h20 m292 0 h20 m-332 0 q10 0 10 10 m312 0 q0 -10 10 -10 m-322 10 v24 m312 0 v-24 m-312 24 q0 10 10 10 m292 0 q10 0 10 -10 m-302 10 h10 m56 0 h10 m20 0 h10 m94 0 h10 m0 0 h62 m-196 0 h20 m176 0 h20 m-216 0 q10 0 10 10 m196 0 q0 -10 10 -10 m-206 10 v24 m196 0 v-24 m-196 24 q0 10 10 10 m176 0 q10 0 10 -10 m-186 10 h10 m156 0 h10 m43 -88 h-3"></path>
<polygon points="457 17 465 13 465 21"></polygon>
<polygon points="457 17 449 13 449 21"></polygon></svg>