<svg height="135" width="707" xmlns="http://www.w3.org/2000/svg" xmlns:xlink="http://www.w3.org/1999/xlink"><style>svg {
  font-family: ui-monospace, SFMono-Regular, Menlo, Monaco, Consolas, "Liberation Mono", "Courier New", monospace;
}
text {
  fill: #2f3337;
  font-size: 14px;
}
rect {
  fill: #ffffff;
  stroke: #3a3d40;
  stroke-width: 2;
}
rect.terminal {
  fill: #ffffff;
}
rect.nonterminal {
  fill: #ffffff;
}
text.terminal {
  fill: #2f3337;
  font-weight: 600;
}
text.nonterminal {
  fill: #2563eb;
}
a text.nonterminal {
  text-decoration: underline;
}
path.line {
  fill: none;
  stroke: #3a3d40;
  stroke-width: 2;
}
polygon {
  fill: #2f3337;
  stroke: #2f3337;
}</style>
<polygon points="9 17 1 13 1 21"></polygon>
<polygon points="17 17 9 13 9 21"></polygon>
<rect height="32" rx="10" width="62" x="31" y="3"></rect>
<rect class="terminal" height="32" rx="10" width="62" x="29" y="1"></rect>
<text class="terminal" x="39" y="21">ALTER</text>
<rect height="32" rx="10" width="90" x="113" y="3"></rect>
<rect class="terminal" height="32" rx="10" width="90" x="111" y="1"></rect>
<text class="terminal" x="121" y="21">EXTERNAL</text>
<rect height="32" rx="10" width="112" x="223" y="3"></rect>
<rect class="terminal" height="32" rx="10" width="112" x="221" y="1"></rect>
<text class="terminal" x="231" y="21">CONNECTION</text>
<rect height="32" rx="10" width="34" x="375" y="35"></rect>
<rect class="terminal" height="32" rx="10" width="34" x="373" y="33"></rect>
<text class="terminal" x="383" y="53">IF</text>
<rect height="32" rx="10" width="70" x="429" y="35"></rect>
<rect class="terminal" height="32" rx="10" width="70" x="427" y="33"></rect>
<text class="terminal" x="437" y="53">EXISTS</text><a xlink:href="#label_spec" xlink:title="label_spec">
<rect height="32" width="88" x="539" y="3"></rect>
<rect class="nonterminal" height="32" width="88" x="537" y="1"></rect>
<text lengthAdjust="spacingAndGlyphs" textLength="64" font-size="10" class="nonterminal" x="549" y="21">label_spec</text></a><rect height="32" rx="10" width="38" x="647" y="3"></rect>
<rect class="terminal" height="32" rx="10" width="38" x="645" y="1"></rect>
<text class="terminal" x="655" y="21">AS</text><a xlink:href="#string_or_placeholder" xlink:title="string_or_placeholder">
<rect height="32" width="158" x="521" y="101"></rect>
<rect class="nonterminal" height="32" width="158" x="519" y="99"></rect>
<text lengthAdjust="spacingAndGlyphs" textLength="134" font-size="10" class="nonterminal" x="531" y="119">string_or_placeholder</text></a><path class="line" d="m17 17 h2 m0 0 h10 m62 0 h10 m0 0 h10 m90 0 h10 m0 0 h10 m112 0 h10 m20 0 h10 m0 0 h134 m-164 0 h20 m144 0 h20 m-184 0 q10 0 10 10 m164 0 q0 -10 10 -10 m-174 10 v12 m164 0 v-12 m-164 12 q0 10 10 10 m144 0 q10 0 10 -10 m-154 10 h10 m34 0 h10 m0 0 h10 m70 0 h10 m20 -32 h10 m88 0 h10 m0 0 h10 m38 0 h10 m2 0 l2 0 m2 0 l2 0 m2 0 l2 0 m-208 98 l2 0 m2 0 l2 0 m2 0 l2 0 m2 0 h10 m158 0 h10 m3 0 h-3"></path>
<polygon points="697 115 705 111 705 119"></polygon>
<polygon points="697 115 689 111 689 119"></polygon></svg>