<svg height="81" width="269" xmlns="http://www.w3.org/2000/svg" xmlns:xlink="http://www.w3.org/1999/xlink"><style>svg {
  font-family: ui-monospace, SFMono-Regular, Menlo, Monaco, Consolas, "Liberation Mono", "Courier New", monospace;
}
text {
  fill: #2f3337;
  font-size: 14px;
}
rect {
  fill: #ffffff;
  stroke: #3a3d40;
  stroke-width: 2;
}
rect.terminal {
  fill: #ffffff;
}
rect.nonterminal {
  fill: #ffffff;
}
text.terminal {
  fill: #2f3337;
  font-weight: 600;
}
text.nonterminal {
  fill: #2563eb;
}
a text.nonterminal {
  text-decoration: underline;
}
path.line {
  fill: none;
  stroke: #3a3d40;
  stroke-width: 2;
}
polygon {
  fill: #2f3337;
  stroke: #2f3337;
}</style>
<polygon points="9 17 1 13 1 21"></polygon>
<polygon points="17 17 9 13 9 21"></polygon><a xlink:href="#inspect_table_stmt" xlink:title="inspect_table_stmt">
<rect height="32" width="142" x="51" y="3"></rect>
<rect class="nonterminal" height="32" width="142" x="49" y="1"></rect>
<text lengthAdjust="spacingAndGlyphs" textLength="118" font-size="10" class="nonterminal" x="61" y="21">inspect_table_stmt</text></a><a xlink:href="#inspect_database_stmt" xlink:title="inspect_database_stmt">
<rect height="32" width="170" x="51" y="47"></rect>
<rect class="nonterminal" height="32" width="170" x="49" y="45"></rect>
<text lengthAdjust="spacingAndGlyphs" textLength="146" font-size="11" class="nonterminal" x="61" y="65">inspect_database_stmt</text></a><path class="line" d="m17 17 h2 m20 0 h10 m142 0 h10 m0 0 h28 m-210 0 h20 m190 0 h20 m-230 0 q10 0 10 10 m210 0 q0 -10 10 -10 m-220 10 v24 m210 0 v-24 m-210 24 q0 10 10 10 m190 0 q10 0 10 -10 m-200 10 h10 m170 0 h10 m23 -44 h-3"></path>
<polygon points="259 17 267 13 267 21"></polygon>
<polygon points="259 17 251 13 251 21"></polygon></svg>