<svg height="213" width="443" xmlns="http://www.w3.org/2000/svg" xmlns:xlink="http://www.w3.org/1999/xlink"><style>svg {
  font-family: ui-monospace, SFMono-Regular, Menlo, Monaco, Consolas, "Liberation Mono", "Courier New", monospace;
}
text {
  fill: #2f3337;
  font-size: 14px;
}
rect {
  fill: #ffffff;
  stroke: #3a3d40;
  stroke-width: 2;
}
rect.terminal {
  fill: #ffffff;
}
rect.nonterminal {
  fill: #ffffff;
}
text.terminal {
  fill: #2f3337;
  font-weight: 600;
}
text.nonterminal {
  fill: #2563eb;
}
a text.nonterminal {
  text-decoration: underline;
}
path.line {
  fill: none;
  stroke: #3a3d40;
  stroke-width: 2;
}
polygon {
  fill: #2f3337;
  stroke: #2f3337;
}</style>
<polygon points="9 17 1 13 1 21"></polygon>
<polygon points="17 17 9 13 9 21"></polygon><a xlink:href="#column_table_def" xlink:title="column_table_def">
<rect height="32" width="134" x="51" y="3"></rect>
<rect class="nonterminal" height="32" width="134" x="49" y="1"></rect>
<text lengthAdjust="spacingAndGlyphs" textLength="110" font-size="11" class="nonterminal" x="61" y="21">column_table_def</text></a><a xlink:href="#index_def" xlink:title="index_def">
<rect height="32" width="82" x="51" y="47"></rect>
<rect class="nonterminal" height="32" width="82" x="49" y="45"></rect>
<text lengthAdjust="spacingAndGlyphs" textLength="58" font-size="10" class="nonterminal" x="61" y="65">index_def</text></a><a xlink:href="#family_def" xlink:title="family_def">
<rect height="32" width="86" x="51" y="91"></rect>
<rect class="nonterminal" height="32" width="86" x="49" y="89"></rect>
<text lengthAdjust="spacingAndGlyphs" textLength="62" font-size="10" class="nonterminal" x="61" y="109">family_def</text></a><a xlink:href="#table_constraint" xlink:title="table_constraint">
<rect height="32" width="124" x="51" y="135"></rect>
<rect class="nonterminal" height="32" width="124" x="49" y="133"></rect>
<text lengthAdjust="spacingAndGlyphs" textLength="100" font-size="10" class="nonterminal" x="61" y="153">table_constraint</text></a><a xlink:href="#opt_validate_behavior" xlink:title="opt_validate_behavior">
<rect height="32" width="162" x="195" y="135"></rect>
<rect class="nonterminal" height="32" width="162" x="193" y="133"></rect>
<text lengthAdjust="spacingAndGlyphs" textLength="138" font-size="10" class="nonterminal" x="205" y="153">opt_validate_behavior</text></a><rect height="32" rx="10" width="52" x="51" y="179"></rect>
<rect class="terminal" height="32" rx="10" width="52" x="49" y="177"></rect>
<text class="terminal" x="59" y="197">LIKE</text><a xlink:href="#table_name" xlink:title="table_name">
<rect height="32" width="96" x="123" y="179"></rect>
<rect class="nonterminal" height="32" width="96" x="121" y="177"></rect>
<text lengthAdjust="spacingAndGlyphs" textLength="72" font-size="11" class="nonterminal" x="133" y="197">table_name</text></a><a xlink:href="#like_table_option_list" xlink:title="like_table_option_list">
<rect height="32" width="156" x="239" y="179"></rect>
<rect class="nonterminal" height="32" width="156" x="237" y="177"></rect>
<text lengthAdjust="spacingAndGlyphs" textLength="132" font-size="10" class="nonterminal" x="249" y="197">like_table_option_list</text></a><path class="line" d="m17 17 h2 m20 0 h10 m134 0 h10 m0 0 h210 m-384 0 h20 m364 0 h20 m-404 0 q10 0 10 10 m384 0 q0 -10 10 -10 m-394 10 v24 m384 0 v-24 m-384 24 q0 10 10 10 m364 0 q10 0 10 -10 m-374 10 h10 m82 0 h10 m0 0 h262 m-374 -10 v20 m384 0 v-20 m-384 20 v24 m384 0 v-24 m-384 24 q0 10 10 10 m364 0 q10 0 10 -10 m-374 10 h10 m86 0 h10 m0 0 h258 m-374 -10 v20 m384 0 v-20 m-384 20 v24 m384 0 v-24 m-384 24 q0 10 10 10 m364 0 q10 0 10 -10 m-374 10 h10 m124 0 h10 m0 0 h10 m162 0 h10 m0 0 h38 m-374 -10 v20 m384 0 v-20 m-384 20 v24 m384 0 v-24 m-384 24 q0 10 10 10 m364 0 q10 0 10 -10 m-374 10 h10 m52 0 h10 m0 0 h10 m96 0 h10 m0 0 h10 m156 0 h10 m23 -176 h-3"></path>
<polygon points="433 17 441 13 441 21"></polygon>
<polygon points="433 17 425 13 425 21"></polygon></svg>