<svg height="101" width="187" xmlns="http://www.w3.org/2000/svg"><style>svg {
  font-family: ui-monospace, SFMono-Regular, Menlo, Monaco, Consolas, "Liberation Mono", "Courier New", monospace;
}
text {
  fill: #2f3337;
  font-size: 14px;
}
rect {
  fill: #ffffff;
  stroke: #3a3d40;
  stroke-width: 2;
}
rect.terminal {
  fill: #ffffff;
}
rect.nonterminal {
  fill: #ffffff;
}
text.terminal {
  fill: #2f3337;
  font-weight: 600;
}
text.nonterminal {
  fill: #2563eb;
}
a text.nonterminal {
  text-decoration: underline;
}
path.line {
  fill: none;
  stroke: #3a3d40;
  stroke-width: 2;
}
polygon {
  fill: #2f3337;
  stroke: #2f3337;
}</style>
<polygon points="9 5 1 1 1 9"></polygon>
<polygon points="17 5 9 1 9 9"></polygon>
<rect height="32" rx="10" width="84" x="51" y="23"></rect>
<rect class="terminal" height="32" rx="10" width="84" x="49" y="21"></rect>
<text class="terminal" x="59" y="41">CASCADE</text>
<rect height="32" rx="10" width="88" x="51" y="67"></rect>
<rect class="terminal" height="32" rx="10" width="88" x="49" y="65"></rect>
<text class="terminal" x="59" y="85">RESTRICT</text>
<path class="line" d="m17 5 h2 m20 0 h10 m0 0 h98 m-128 0 h20 m108 0 h20 m-148 0 q10 0 10 10 m128 0 q0 -10 10 -10 m-138 10 v12 m128 0 v-12 m-128 12 q0 10 10 10 m108 0 q10 0 10 -10 m-118 10 h10 m84 0 h10 m0 0 h4 m-118 -10 v20 m128 0 v-20 m-128 20 v24 m128 0 v-24 m-128 24 q0 10 10 10 m108 0 q10 0 10 -10 m-118 10 h10 m88 0 h10 m23 -76 h-3"></path>
<polygon points="177 5 185 1 185 9"></polygon>
<polygon points="177 5 169 1 169 9"></polygon></svg>