<svg height="37" width="613" xmlns="http://www.w3.org/2000/svg" xmlns:xlink="http://www.w3.org/1999/xlink"><style>svg {
  font-family: ui-monospace, SFMono-Regular, Menlo, Monaco, Consolas, "Liberation Mono", "Courier New", monospace;
}
text {
  fill: #2f3337;
  font-size: 14px;
}
rect {
  fill: #ffffff;
  stroke: #3a3d40;
  stroke-width: 2;
}
rect.terminal {
  fill: #ffffff;
}
rect.nonterminal {
  fill: #ffffff;
}
text.terminal {
  fill: #2f3337;
  font-weight: 600;
}
text.nonterminal {
  fill: #2563eb;
}
a text.nonterminal {
  text-decoration: underline;
}
path.line {
  fill: none;
  stroke: #3a3d40;
  stroke-width: 2;
}
polygon {
  fill: #2f3337;
  stroke: #2f3337;
}</style>
<polygon points="9 17 1 13 1 21"></polygon>
<polygon points="17 17 9 13 9 21"></polygon><a xlink:href="#partition" xlink:title="partition">
<rect height="32" width="74" x="31" y="3"></rect>
<rect class="nonterminal" height="32" width="74" x="29" y="1"></rect>
<text lengthAdjust="spacingAndGlyphs" textLength="50" font-size="10" class="nonterminal" x="41" y="21">partition</text></a><rect height="32" rx="10" width="72" x="125" y="3"></rect>
<rect class="terminal" height="32" rx="10" width="72" x="123" y="1"></rect>
<text class="terminal" x="133" y="21">VALUES</text>
<rect height="32" rx="10" width="36" x="217" y="3"></rect>
<rect class="terminal" height="32" rx="10" width="36" x="215" y="1"></rect>
<text class="terminal" x="225" y="21">IN</text>
<rect height="32" rx="10" width="26" x="273" y="3"></rect>
<rect class="terminal" height="32" rx="10" width="26" x="271" y="1"></rect>
<text class="terminal" x="281" y="21">(</text><a xlink:href="#expr_list" xlink:title="expr_list">
<rect height="32" width="74" x="319" y="3"></rect>
<rect class="nonterminal" height="32" width="74" x="317" y="1"></rect>
<text lengthAdjust="spacingAndGlyphs" textLength="50" font-size="10" class="nonterminal" x="329" y="21">expr_list</text></a><rect height="32" rx="10" width="26" x="413" y="3"></rect>
<rect class="terminal" height="32" rx="10" width="26" x="411" y="1"></rect>
<text class="terminal" x="421" y="21">)</text><a xlink:href="#opt_partition_by" xlink:title="opt_partition_by">
<rect height="32" width="126" x="459" y="3"></rect>
<rect class="nonterminal" height="32" width="126" x="457" y="1"></rect>
<text lengthAdjust="spacingAndGlyphs" textLength="102" font-size="10" class="nonterminal" x="469" y="21">opt_partition_by</text></a><path class="line" d="m17 17 h2 m0 0 h10 m74 0 h10 m0 0 h10 m72 0 h10 m0 0 h10 m36 0 h10 m0 0 h10 m26 0 h10 m0 0 h10 m74 0 h10 m0 0 h10 m26 0 h10 m0 0 h10 m126 0 h10 m3 0 h-3"></path>
<polygon points="603 17 611 13 611 21"></polygon>
<polygon points="603 17 595 13 595 21"></polygon></svg>