<svg height="101" width="341" xmlns="http://www.w3.org/2000/svg" xmlns:xlink="http://www.w3.org/1999/xlink"><style>svg {
  font-family: ui-monospace, SFMono-Regular, Menlo, Monaco, Consolas, "Liberation Mono", "Courier New", monospace;
}
text {
  fill: #2f3337;
  font-size: 14px;
}
rect {
  fill: #ffffff;
  stroke: #3a3d40;
  stroke-width: 2;
}
rect.terminal {
  fill: #ffffff;
}
rect.nonterminal {
  fill: #ffffff;
}
text.terminal {
  fill: #2f3337;
  font-weight: 600;
}
text.nonterminal {
  fill: #2563eb;
}
a text.nonterminal {
  text-decoration: underline;
}
path.line {
  fill: none;
  stroke: #3a3d40;
  stroke-width: 2;
}
polygon {
  fill: #2f3337;
  stroke: #2f3337;
}</style>
<polygon points="9 17 1 13 1 21"></polygon>
<polygon points="17 17 9 13 9 21"></polygon><a xlink:href="#a_expr" xlink:title="a_expr">
<rect height="32" width="64" x="31" y="3"></rect>
<rect class="nonterminal" height="32" width="64" x="29" y="1"></rect>
<text lengthAdjust="spacingAndGlyphs" textLength="40" font-size="10" class="nonterminal" x="41" y="21">a_expr</text></a><rect height="32" rx="10" width="24" x="135" y="35"></rect>
<rect class="terminal" height="32" rx="10" width="24" x="133" y="33"></rect>
<text class="terminal" x="143" y="53">,</text><a xlink:href="#expr_list" xlink:title="expr_list">
<rect height="32" width="74" x="199" y="67"></rect>
<rect class="nonterminal" height="32" width="74" x="197" y="65"></rect>
<text lengthAdjust="spacingAndGlyphs" textLength="50" font-size="10" class="nonterminal" x="209" y="85">expr_list</text></a><path class="line" d="m17 17 h2 m0 0 h10 m64 0 h10 m20 0 h10 m0 0 h168 m-198 0 h20 m178 0 h20 m-218 0 q10 0 10 10 m198 0 q0 -10 10 -10 m-208 10 v12 m198 0 v-12 m-198 12 q0 10 10 10 m178 0 q10 0 10 -10 m-188 10 h10 m24 0 h10 m20 0 h10 m0 0 h84 m-114 0 h20 m94 0 h20 m-134 0 q10 0 10 10 m114 0 q0 -10 10 -10 m-124 10 v12 m114 0 v-12 m-114 12 q0 10 10 10 m94 0 q10 0 10 -10 m-104 10 h10 m74 0 h10 m43 -64 h-3"></path>
<polygon points="331 17 339 13 339 21"></polygon>
<polygon points="331 17 323 13 323 21"></polygon></svg>