<svg height="169" width="753" xmlns="http://www.w3.org/2000/svg" xmlns:xlink="http://www.w3.org/1999/xlink"><style>svg {
  font-family: ui-monospace, SFMono-Regular, Menlo, Monaco, Consolas, "Liberation Mono", "Courier New", monospace;
}
text {
  fill: #2f3337;
  font-size: 14px;
}
rect {
  fill: #ffffff;
  stroke: #3a3d40;
  stroke-width: 2;
}
rect.terminal {
  fill: #ffffff;
}
rect.nonterminal {
  fill: #ffffff;
}
text.terminal {
  fill: #2f3337;
  font-weight: 600;
}
text.nonterminal {
  fill: #2563eb;
}
a text.nonterminal {
  text-decoration: underline;
}
path.line {
  fill: none;
  stroke: #3a3d40;
  stroke-width: 2;
}
polygon {
  fill: #2f3337;
  stroke: #2f3337;
}</style>
<polygon points="9 17 1 13 1 21"></polygon>
<polygon points="17 17 9 13 9 21"></polygon>
<rect height="32" rx="10" width="72" x="31" y="3"></rect>
<rect class="terminal" height="32" rx="10" width="72" x="29" y="1"></rect>
<text class="terminal" x="39" y="21">CREATE</text><a xlink:href="#opt_or_replace" xlink:title="opt_or_replace">
<rect height="32" width="116" x="123" y="3"></rect>
<rect class="nonterminal" height="32" width="116" x="121" y="1"></rect>
<text lengthAdjust="spacingAndGlyphs" textLength="92" font-size="10" class="nonterminal" x="133" y="21">opt_or_replace</text></a><rect height="32" rx="10" width="80" x="259" y="3"></rect>
<rect class="terminal" height="32" rx="10" width="80" x="257" y="1"></rect>
<text class="terminal" x="267" y="21">TRIGGER</text><a xlink:href="#name" xlink:title="name">
<rect height="32" width="56" x="359" y="3"></rect>
<rect class="nonterminal" height="32" width="56" x="357" y="1"></rect>
<text lengthAdjust="spacingAndGlyphs" textLength="32" font-size="12" class="nonterminal" x="369" y="21">name</text></a><a xlink:href="#trigger_action_time" xlink:title="trigger_action_time">
<rect height="32" width="144" x="435" y="3"></rect>
<rect class="nonterminal" height="32" width="144" x="433" y="1"></rect>
<text lengthAdjust="spacingAndGlyphs" textLength="120" font-size="10" class="nonterminal" x="445" y="21">trigger_action_time</text></a><a xlink:href="#trigger_event_list" xlink:title="trigger_event_list">
<rect height="32" width="132" x="599" y="3"></rect>
<rect class="nonterminal" height="32" width="132" x="597" y="1"></rect>
<text lengthAdjust="spacingAndGlyphs" textLength="108" font-size="10" class="nonterminal" x="609" y="21">trigger_event_list</text></a><rect height="32" rx="10" width="40" x="62" y="69"></rect>
<rect class="terminal" height="32" rx="10" width="40" x="60" y="67"></rect>
<text class="terminal" x="70" y="87">ON</text><a xlink:href="#table_name" xlink:title="table_name">
<rect height="32" width="96" x="122" y="69"></rect>
<rect class="nonterminal" height="32" width="96" x="120" y="67"></rect>
<text lengthAdjust="spacingAndGlyphs" textLength="72" font-size="11" class="nonterminal" x="132" y="87">table_name</text></a><a xlink:href="#opt_trigger_transition_list" xlink:title="opt_trigger_transition_list">
<rect height="32" width="186" x="238" y="69"></rect>
<rect class="nonterminal" height="32" width="186" x="236" y="67"></rect>
<text lengthAdjust="spacingAndGlyphs" textLength="162" font-size="10" class="nonterminal" x="248" y="87">opt_trigger_transition_list</text></a><a xlink:href="#trigger_for_each" xlink:title="trigger_for_each">
<rect height="32" width="126" x="444" y="69"></rect>
<rect class="nonterminal" height="32" width="126" x="442" y="67"></rect>
<text lengthAdjust="spacingAndGlyphs" textLength="102" font-size="10" class="nonterminal" x="454" y="87">trigger_for_each</text></a><a xlink:href="#trigger_when" xlink:title="trigger_when">
<rect height="32" width="104" x="590" y="69"></rect>
<rect class="nonterminal" height="32" width="104" x="588" y="67"></rect>
<text lengthAdjust="spacingAndGlyphs" textLength="80" font-size="10" class="nonterminal" x="600" y="87">trigger_when</text></a><rect height="32" rx="10" width="80" x="107" y="135"></rect>
<rect class="terminal" height="32" rx="10" width="80" x="105" y="133"></rect>
<text class="terminal" x="115" y="153">EXECUTE</text><a xlink:href="#function_or_procedure" xlink:title="function_or_procedure">
<rect height="32" width="164" x="207" y="135"></rect>
<rect class="nonterminal" height="32" width="164" x="205" y="133"></rect>
<text lengthAdjust="spacingAndGlyphs" textLength="140" font-size="10" class="nonterminal" x="217" y="153">function_or_procedure</text></a><a xlink:href="#func_name" xlink:title="func_name">
<rect height="32" width="90" x="391" y="135"></rect>
<rect class="nonterminal" height="32" width="90" x="389" y="133"></rect>
<text lengthAdjust="spacingAndGlyphs" textLength="66" font-size="11" class="nonterminal" x="401" y="153">func_name</text></a><rect height="32" rx="10" width="26" x="501" y="135"></rect>
<rect class="terminal" height="32" rx="10" width="26" x="499" y="133"></rect>
<text class="terminal" x="509" y="153">(</text><a xlink:href="#trigger_func_args" xlink:title="trigger_func_args">
<rect height="32" width="132" x="547" y="135"></rect>
<rect class="nonterminal" height="32" width="132" x="545" y="133"></rect>
<text lengthAdjust="spacingAndGlyphs" textLength="108" font-size="10" class="nonterminal" x="557" y="153">trigger_func_args</text></a><rect height="32" rx="10" width="26" x="699" y="135"></rect>
<rect class="terminal" height="32" rx="10" width="26" x="697" y="133"></rect>
<text class="terminal" x="707" y="153">)</text>
<path class="line" d="m17 17 h2 m0 0 h10 m72 0 h10 m0 0 h10 m116 0 h10 m0 0 h10 m80 0 h10 m0 0 h10 m56 0 h10 m0 0 h10 m144 0 h10 m0 0 h10 m132 0 h10 m2 0 l2 0 m2 0 l2 0 m2 0 l2 0 m-713 66 l2 0 m2 0 l2 0 m2 0 l2 0 m2 0 h10 m40 0 h10 m0 0 h10 m96 0 h10 m0 0 h10 m186 0 h10 m0 0 h10 m126 0 h10 m0 0 h10 m104 0 h10 m2 0 l2 0 m2 0 l2 0 m2 0 l2 0 m-631 66 l2 0 m2 0 l2 0 m2 0 l2 0 m2 0 h10 m80 0 h10 m0 0 h10 m164 0 h10 m0 0 h10 m90 0 h10 m0 0 h10 m26 0 h10 m0 0 h10 m132 0 h10 m0 0 h10 m26 0 h10 m3 0 h-3"></path>
<polygon points="743 149 751 145 751 153"></polygon>
<polygon points="743 149 735 145 735 153"></polygon></svg>