<svg height="213" width="225" xmlns="http://www.w3.org/2000/svg" xmlns:xlink="http://www.w3.org/1999/xlink"><style>svg {
  font-family: ui-monospace, SFMono-Regular, Menlo, Monaco, Consolas, "Liberation Mono", "Courier New", monospace;
}
text {
  fill: #2f3337;
  font-size: 14px;
}
rect {
  fill: #ffffff;
  stroke: #3a3d40;
  stroke-width: 2;
}
rect.terminal {
  fill: #ffffff;
}
rect.nonterminal {
  fill: #ffffff;
}
text.terminal {
  fill: #2f3337;
  font-weight: 600;
}
text.nonterminal {
  fill: #2563eb;
}
a text.nonterminal {
  text-decoration: underline;
}
path.line {
  fill: none;
  stroke: #3a3d40;
  stroke-width: 2;
}
polygon {
  fill: #2f3337;
  stroke: #2f3337;
}</style>
<polygon points="9 17 1 13 1 21"></polygon>
<polygon points="17 17 9 13 9 21"></polygon><a xlink:href="#preparable_stmt" xlink:title="preparable_stmt">
<rect height="32" width="126" x="51" y="3"></rect>
<rect class="nonterminal" height="32" width="126" x="49" y="1"></rect>
<text lengthAdjust="spacingAndGlyphs" textLength="102" font-size="10" class="nonterminal" x="61" y="21">preparable_stmt</text></a><a xlink:href="#comment_stmt" xlink:title="comment_stmt">
<rect height="32" width="114" x="51" y="47"></rect>
<rect class="nonterminal" height="32" width="114" x="49" y="45"></rect>
<text lengthAdjust="spacingAndGlyphs" textLength="90" font-size="12" class="nonterminal" x="61" y="65">comment_stmt</text></a><a xlink:href="#execute_stmt" xlink:title="execute_stmt">
<rect height="32" width="106" x="51" y="91"></rect>
<rect class="nonterminal" height="32" width="106" x="49" y="89"></rect>
<text lengthAdjust="spacingAndGlyphs" textLength="82" font-size="11" class="nonterminal" x="61" y="109">execute_stmt</text></a><a xlink:href="#call_stmt" xlink:title="call_stmt">
<rect height="32" width="76" x="51" y="135"></rect>
<rect class="nonterminal" height="32" width="76" x="49" y="133"></rect>
<text lengthAdjust="spacingAndGlyphs" textLength="52" font-size="10" class="nonterminal" x="61" y="153">call_stmt</text></a><a xlink:href="#do_stmt" xlink:title="do_stmt">
<rect height="32" width="72" x="51" y="179"></rect>
<rect class="nonterminal" height="32" width="72" x="49" y="177"></rect>
<text lengthAdjust="spacingAndGlyphs" textLength="48" font-size="11" class="nonterminal" x="61" y="197">do_stmt</text></a><path class="line" d="m17 17 h2 m20 0 h10 m126 0 h10 m-166 0 h20 m146 0 h20 m-186 0 q10 0 10 10 m166 0 q0 -10 10 -10 m-176 10 v24 m166 0 v-24 m-166 24 q0 10 10 10 m146 0 q10 0 10 -10 m-156 10 h10 m114 0 h10 m0 0 h12 m-156 -10 v20 m166 0 v-20 m-166 20 v24 m166 0 v-24 m-166 24 q0 10 10 10 m146 0 q10 0 10 -10 m-156 10 h10 m106 0 h10 m0 0 h20 m-156 -10 v20 m166 0 v-20 m-166 20 v24 m166 0 v-24 m-166 24 q0 10 10 10 m146 0 q10 0 10 -10 m-156 10 h10 m76 0 h10 m0 0 h50 m-156 -10 v20 m166 0 v-20 m-166 20 v24 m166 0 v-24 m-166 24 q0 10 10 10 m146 0 q10 0 10 -10 m-156 10 h10 m72 0 h10 m0 0 h54 m23 -176 h-3"></path>
<polygon points="215 17 223 13 223 21"></polygon>
<polygon points="215 17 207 13 207 21"></polygon></svg>