<svg height="135" width="725" xmlns="http://www.w3.org/2000/svg" xmlns:xlink="http://www.w3.org/1999/xlink"><style>svg {
  font-family: ui-monospace, SFMono-Regular, Menlo, Monaco, Consolas, "Liberation Mono", "Courier New", monospace;
}
text {
  fill: #2f3337;
  font-size: 14px;
}
rect {
  fill: #ffffff;
  stroke: #3a3d40;
  stroke-width: 2;
}
rect.terminal {
  fill: #ffffff;
}
rect.nonterminal {
  fill: #ffffff;
}
text.terminal {
  fill: #2f3337;
  font-weight: 600;
}
text.nonterminal {
  fill: #2563eb;
}
a text.nonterminal {
  text-decoration: underline;
}
path.line {
  fill: none;
  stroke: #3a3d40;
  stroke-width: 2;
}
polygon {
  fill: #2f3337;
  stroke: #2f3337;
}</style>
<polygon points="9 17 1 13 1 21"></polygon>
<polygon points="17 17 9 13 9 21"></polygon><a xlink:href="#opt_with_clause" xlink:title="opt_with_clause">
<rect height="32" width="124" x="31" y="3"></rect>
<rect class="nonterminal" height="32" width="124" x="29" y="1"></rect>
<text lengthAdjust="spacingAndGlyphs" textLength="100" font-size="10" class="nonterminal" x="41" y="21">opt_with_clause</text></a><rect height="32" rx="10" width="70" x="175" y="3"></rect>
<rect class="terminal" height="32" rx="10" width="70" x="173" y="1"></rect>
<text class="terminal" x="183" y="21">INSERT</text>
<rect height="32" rx="10" width="56" x="265" y="3"></rect>
<rect class="terminal" height="32" rx="10" width="56" x="263" y="1"></rect>
<text class="terminal" x="273" y="21">INTO</text><a xlink:href="#insert_target" xlink:title="insert_target">
<rect height="32" width="104" x="341" y="3"></rect>
<rect class="nonterminal" height="32" width="104" x="339" y="1"></rect>
<text lengthAdjust="spacingAndGlyphs" textLength="80" font-size="10" class="nonterminal" x="351" y="21">insert_target</text></a><a xlink:href="#insert_rest" xlink:title="insert_rest">
<rect height="32" width="90" x="465" y="3"></rect>
<rect class="nonterminal" height="32" width="90" x="463" y="1"></rect>
<text lengthAdjust="spacingAndGlyphs" textLength="66" font-size="10" class="nonterminal" x="475" y="21">insert_rest</text></a><a xlink:href="#on_conflict" xlink:title="on_conflict">
<rect height="32" width="88" x="595" y="35"></rect>
<rect class="nonterminal" height="32" width="88" x="593" y="33"></rect>
<text lengthAdjust="spacingAndGlyphs" textLength="64" font-size="10" class="nonterminal" x="605" y="53">on_conflict</text></a><a xlink:href="#returning_clause" xlink:title="returning_clause">
<rect height="32" width="126" x="571" y="101"></rect>
<rect class="nonterminal" height="32" width="126" x="569" y="99"></rect>
<text lengthAdjust="spacingAndGlyphs" textLength="102" font-size="10" class="nonterminal" x="581" y="119">returning_clause</text></a><path class="line" d="m17 17 h2 m0 0 h10 m124 0 h10 m0 0 h10 m70 0 h10 m0 0 h10 m56 0 h10 m0 0 h10 m104 0 h10 m0 0 h10 m90 0 h10 m20 0 h10 m0 0 h98 m-128 0 h20 m108 0 h20 m-148 0 q10 0 10 10 m128 0 q0 -10 10 -10 m-138 10 v12 m128 0 v-12 m-128 12 q0 10 10 10 m108 0 q10 0 10 -10 m-118 10 h10 m88 0 h10 m22 -32 l2 0 m2 0 l2 0 m2 0 l2 0 m-176 98 l2 0 m2 0 l2 0 m2 0 l2 0 m2 0 h10 m126 0 h10 m3 0 h-3"></path>
<polygon points="715 115 723 111 723 119"></polygon>
<polygon points="715 115 707 111 707 119"></polygon></svg>