<svg height="81" width="175" xmlns="http://www.w3.org/2000/svg"><style>svg {
  font-family: ui-monospace, SFMono-Regular, Menlo, Monaco, Consolas, "Liberation Mono", "Courier New", monospace;
}
text {
  fill: #2f3337;
  font-size: 14px;
}
rect {
  fill: #ffffff;
  stroke: #3a3d40;
  stroke-width: 2;
}
rect.terminal {
  fill: #ffffff;
}
rect.nonterminal {
  fill: #ffffff;
}
text.terminal {
  fill: #2f3337;
  font-weight: 600;
}
text.nonterminal {
  fill: #2563eb;
}
a text.nonterminal {
  text-decoration: underline;
}
path.line {
  fill: none;
  stroke: #3a3d40;
  stroke-width: 2;
}
polygon {
  fill: #2f3337;
  stroke: #2f3337;
}</style>
<polygon points="9 17 1 13 1 21"></polygon>
<polygon points="17 17 9 13 9 21"></polygon>
<rect height="32" rx="10" width="76" x="51" y="3"></rect>
<rect class="terminal" height="32" rx="10" width="76" x="49" y="1"></rect>
<text class="terminal" x="59" y="21">SCONST</text>
<rect height="32" rx="10" width="56" x="51" y="47"></rect>
<rect class="terminal" height="32" rx="10" width="56" x="49" y="45"></rect>
<text class="terminal" x="59" y="65">NULL</text>
<path class="line" d="m17 17 h2 m20 0 h10 m76 0 h10 m-116 0 h20 m96 0 h20 m-136 0 q10 0 10 10 m116 0 q0 -10 10 -10 m-126 10 v24 m116 0 v-24 m-116 24 q0 10 10 10 m96 0 q10 0 10 -10 m-106 10 h10 m56 0 h10 m0 0 h20 m23 -44 h-3"></path>
<polygon points="165 17 173 13 173 21"></polygon>
<polygon points="165 17 157 13 157 21"></polygon></svg>