<svg height="277" width="635" xmlns="http://www.w3.org/2000/svg" xmlns:xlink="http://www.w3.org/1999/xlink"><style>svg {
  font-family: ui-monospace, SFMono-Regular, Menlo, Monaco, Consolas, "Liberation Mono", "Courier New", monospace;
}
text {
  fill: #2f3337;
  font-size: 14px;
}
rect {
  fill: #ffffff;
  stroke: #3a3d40;
  stroke-width: 2;
}
rect.terminal {
  fill: #ffffff;
}
rect.nonterminal {
  fill: #ffffff;
}
text.terminal {
  fill: #2f3337;
  font-weight: 600;
}
text.nonterminal {
  fill: #2563eb;
}
a text.nonterminal {
  text-decoration: underline;
}
path.line {
  fill: none;
  stroke: #3a3d40;
  stroke-width: 2;
}
polygon {
  fill: #2f3337;
  stroke: #2f3337;
}</style>
<polygon points="9 17 1 13 1 21"></polygon>
<polygon points="17 17 9 13 9 21"></polygon>
<rect height="32" rx="10" width="110" x="71" y="35"></rect>
<rect class="terminal" height="32" rx="10" width="110" x="69" y="33"></rect>
<text class="terminal" x="79" y="53">CONSTRAINT</text><a xlink:href="#constraint_name" xlink:title="constraint_name">
<rect height="32" width="126" x="201" y="35"></rect>
<rect class="nonterminal" height="32" width="126" x="199" y="33"></rect>
<text lengthAdjust="spacingAndGlyphs" textLength="102" font-size="10" class="nonterminal" x="211" y="53">constraint_name</text></a><a xlink:href="#col_qualification_elem" xlink:title="col_qualification_elem">
<rect height="32" width="160" x="367" y="3"></rect>
<rect class="nonterminal" height="32" width="160" x="365" y="1"></rect>
<text lengthAdjust="spacingAndGlyphs" textLength="136" font-size="10" class="nonterminal" x="377" y="21">col_qualification_elem</text></a><rect height="32" rx="10" width="82" x="51" y="79"></rect>
<rect class="terminal" height="32" rx="10" width="82" x="49" y="77"></rect>
<text class="terminal" x="59" y="97">COLLATE</text><a xlink:href="#collation_name" xlink:title="collation_name">
<rect height="32" width="116" x="153" y="79"></rect>
<rect class="nonterminal" height="32" width="116" x="151" y="77"></rect>
<text lengthAdjust="spacingAndGlyphs" textLength="92" font-size="10" class="nonterminal" x="163" y="97">collation_name</text></a><rect height="32" rx="10" width="72" x="51" y="123"></rect>
<rect class="terminal" height="32" rx="10" width="72" x="49" y="121"></rect>
<text class="terminal" x="59" y="141">FAMILY</text><a xlink:href="#family_name" xlink:title="family_name">
<rect height="32" width="100" x="143" y="123"></rect>
<rect class="nonterminal" height="32" width="100" x="141" y="121"></rect>
<text lengthAdjust="spacingAndGlyphs" textLength="76" font-size="11" class="nonterminal" x="153" y="141">family_name</text></a><rect height="32" rx="10" width="72" x="51" y="167"></rect>
<rect class="terminal" height="32" rx="10" width="72" x="49" y="165"></rect>
<text class="terminal" x="59" y="185">CREATE</text>
<rect height="32" rx="10" width="72" x="163" y="167"></rect>
<rect class="terminal" height="32" rx="10" width="72" x="161" y="165"></rect>
<text class="terminal" x="171" y="185">FAMILY</text><a xlink:href="#family_name" xlink:title="family_name">
<rect height="32" width="100" x="275" y="199"></rect>
<rect class="nonterminal" height="32" width="100" x="273" y="197"></rect>
<text lengthAdjust="spacingAndGlyphs" textLength="76" font-size="11" class="nonterminal" x="285" y="217">family_name</text></a><rect height="32" rx="10" width="34" x="163" y="243"></rect>
<rect class="terminal" height="32" rx="10" width="34" x="161" y="241"></rect>
<text class="terminal" x="171" y="261">IF</text>
<rect height="32" rx="10" width="48" x="217" y="243"></rect>
<rect class="terminal" height="32" rx="10" width="48" x="215" y="241"></rect>
<text class="terminal" x="225" y="261">NOT</text>
<rect height="32" rx="10" width="70" x="285" y="243"></rect>
<rect class="terminal" height="32" rx="10" width="70" x="283" y="241"></rect>
<text class="terminal" x="293" y="261">EXISTS</text>
<rect height="32" rx="10" width="72" x="375" y="243"></rect>
<rect class="terminal" height="32" rx="10" width="72" x="373" y="241"></rect>
<text class="terminal" x="383" y="261">FAMILY</text><a xlink:href="#family_name" xlink:title="family_name">
<rect height="32" width="100" x="467" y="243"></rect>
<rect class="nonterminal" height="32" width="100" x="465" y="241"></rect>
<text lengthAdjust="spacingAndGlyphs" textLength="76" font-size="11" class="nonterminal" x="477" y="261">family_name</text></a><path class="line" d="m17 17 h2 m40 0 h10 m0 0 h266 m-296 0 h20 m276 0 h20 m-316 0 q10 0 10 10 m296 0 q0 -10 10 -10 m-306 10 v12 m296 0 v-12 m-296 12 q0 10 10 10 m276 0 q10 0 10 -10 m-286 10 h10 m110 0 h10 m0 0 h10 m126 0 h10 m20 -32 h10 m160 0 h10 m0 0 h60 m-576 0 h20 m556 0 h20 m-596 0 q10 0 10 10 m576 0 q0 -10 10 -10 m-586 10 v56 m576 0 v-56 m-576 56 q0 10 10 10 m556 0 q10 0 10 -10 m-566 10 h10 m82 0 h10 m0 0 h10 m116 0 h10 m0 0 h318 m-566 -10 v20 m576 0 v-20 m-576 20 v24 m576 0 v-24 m-576 24 q0 10 10 10 m556 0 q10 0 10 -10 m-566 10 h10 m72 0 h10 m0 0 h10 m100 0 h10 m0 0 h344 m-566 -10 v20 m576 0 v-20 m-576 20 v24 m576 0 v-24 m-576 24 q0 10 10 10 m556 0 q10 0 10 -10 m-566 10 h10 m72 0 h10 m20 0 h10 m72 0 h10 m20 0 h10 m0 0 h110 m-140 0 h20 m120 0 h20 m-160 0 q10 0 10 10 m140 0 q0 -10 10 -10 m-150 10 v12 m140 0 v-12 m-140 12 q0 10 10 10 m120 0 q10 0 10 -10 m-130 10 h10 m100 0 h10 m20 -32 h172 m-444 0 h20 m424 0 h20 m-464 0 q10 0 10 10 m444 0 q0 -10 10 -10 m-454 10 v56 m444 0 v-56 m-444 56 q0 10 10 10 m424 0 q10 0 10 -10 m-434 10 h10 m34 0 h10 m0 0 h10 m48 0 h10 m0 0 h10 m70 0 h10 m0 0 h10 m72 0 h10 m0 0 h10 m100 0 h10 m43 -240 h-3"></path>
<polygon points="625 17 633 13 633 21"></polygon>
<polygon points="625 17 617 13 617 21"></polygon></svg>