<svg height="101" width="203" xmlns="http://www.w3.org/2000/svg"><style>svg {
  font-family: ui-monospace, SFMono-Regular, Menlo, Monaco, Consolas, "Liberation Mono", "Courier New", monospace;
}
text {
  fill: #2f3337;
  font-size: 14px;
}
rect {
  fill: #ffffff;
  stroke: #3a3d40;
  stroke-width: 2;
}
rect.terminal {
  fill: #ffffff;
}
rect.nonterminal {
  fill: #ffffff;
}
text.terminal {
  fill: #2f3337;
  font-weight: 600;
}
text.nonterminal {
  fill: #2563eb;
}
a text.nonterminal {
  text-decoration: underline;
}
path.line {
  fill: none;
  stroke: #3a3d40;
  stroke-width: 2;
}
polygon {
  fill: #2f3337;
  stroke: #2f3337;
}</style>
<polygon points="9 5 1 1 1 9"></polygon>
<polygon points="17 5 9 1 9 9"></polygon>
<rect height="32" rx="10" width="104" x="51" y="23"></rect>
<rect class="terminal" height="32" rx="10" width="104" x="49" y="21"></rect>
<text class="terminal" x="59" y="41">TEMPORARY</text>
<rect height="32" rx="10" width="56" x="51" y="67"></rect>
<rect class="terminal" height="32" rx="10" width="56" x="49" y="65"></rect>
<text class="terminal" x="59" y="85">TEMP</text>
<path class="line" d="m17 5 h2 m20 0 h10 m0 0 h114 m-144 0 h20 m124 0 h20 m-164 0 q10 0 10 10 m144 0 q0 -10 10 -10 m-154 10 v12 m144 0 v-12 m-144 12 q0 10 10 10 m124 0 q10 0 10 -10 m-134 10 h10 m104 0 h10 m-134 -10 v20 m144 0 v-20 m-144 20 v24 m144 0 v-24 m-144 24 q0 10 10 10 m124 0 q10 0 10 -10 m-134 10 h10 m56 0 h10 m0 0 h48 m23 -76 h-3"></path>
<polygon points="193 5 201 1 201 9"></polygon>
<polygon points="193 5 185 1 185 9"></polygon></svg>