<svg height="37" width="733" xmlns="http://www.w3.org/2000/svg" xmlns:xlink="http://www.w3.org/1999/xlink"><style>svg {
  font-family: ui-monospace, SFMono-Regular, Menlo, Monaco, Consolas, "Liberation Mono", "Courier New", monospace;
}
text {
  fill: #2f3337;
  font-size: 14px;
}
rect {
  fill: #ffffff;
  stroke: #3a3d40;
  stroke-width: 2;
}
rect.terminal {
  fill: #ffffff;
}
rect.nonterminal {
  fill: #ffffff;
}
text.terminal {
  fill: #2f3337;
  font-weight: 600;
}
text.nonterminal {
  fill: #2563eb;
}
a text.nonterminal {
  text-decoration: underline;
}
path.line {
  fill: none;
  stroke: #3a3d40;
  stroke-width: 2;
}
polygon {
  fill: #2f3337;
  stroke: #2f3337;
}</style>
<polygon points="9 17 1 13 1 21"></polygon>
<polygon points="17 17 9 13 9 21"></polygon>
<rect height="32" rx="10" width="62" x="31" y="3"></rect>
<rect class="terminal" height="32" rx="10" width="62" x="29" y="1"></rect>
<text class="terminal" x="39" y="21">ALTER</text>
<rect height="32" rx="10" width="92" x="113" y="3"></rect>
<rect class="terminal" height="32" rx="10" width="92" x="111" y="1"></rect>
<text class="terminal" x="121" y="21">FUNCTION</text><a xlink:href="#function_with_paramtypes" xlink:title="function_with_paramtypes">
<rect height="32" width="188" x="225" y="3"></rect>
<rect class="nonterminal" height="32" width="188" x="223" y="1"></rect>
<text lengthAdjust="spacingAndGlyphs" textLength="164" font-size="11" class="nonterminal" x="235" y="21">function_with_paramtypes</text></a><rect height="32" rx="10" width="44" x="433" y="3"></rect>
<rect class="terminal" height="32" rx="10" width="44" x="431" y="1"></rect>
<text class="terminal" x="441" y="21">SET</text>
<rect height="32" rx="10" width="76" x="497" y="3"></rect>
<rect class="terminal" height="32" rx="10" width="76" x="495" y="1"></rect>
<text class="terminal" x="505" y="21">SCHEMA</text><a xlink:href="#schema_name" xlink:title="schema_name">
<rect height="32" width="112" x="593" y="3"></rect>
<rect class="nonterminal" height="32" width="112" x="591" y="1"></rect>
<text lengthAdjust="spacingAndGlyphs" textLength="88" font-size="12" class="nonterminal" x="603" y="21">schema_name</text></a><path class="line" d="m17 17 h2 m0 0 h10 m62 0 h10 m0 0 h10 m92 0 h10 m0 0 h10 m188 0 h10 m0 0 h10 m44 0 h10 m0 0 h10 m76 0 h10 m0 0 h10 m112 0 h10 m3 0 h-3"></path>
<polygon points="723 17 731 13 731 21"></polygon>
<polygon points="723 17 715 13 715 21"></polygon></svg>