<svg height="213" width="593" xmlns="http://www.w3.org/2000/svg" xmlns:xlink="http://www.w3.org/1999/xlink"><style>svg {
  font-family: ui-monospace, SFMono-Regular, Menlo, Monaco, Consolas, "Liberation Mono", "Courier New", monospace;
}
text {
  fill: #2f3337;
  font-size: 14px;
}
rect {
  fill: #ffffff;
  stroke: #3a3d40;
  stroke-width: 2;
}
rect.terminal {
  fill: #ffffff;
}
rect.nonterminal {
  fill: #ffffff;
}
text.terminal {
  fill: #2f3337;
  font-weight: 600;
}
text.nonterminal {
  fill: #2563eb;
}
a text.nonterminal {
  text-decoration: underline;
}
path.line {
  fill: none;
  stroke: #3a3d40;
  stroke-width: 2;
}
polygon {
  fill: #2f3337;
  stroke: #2f3337;
}</style>
<polygon points="9 17 1 13 1 21"></polygon>
<polygon points="17 17 9 13 9 21"></polygon>
<rect height="32" rx="10" width="56" x="51" y="3"></rect>
<rect class="terminal" height="32" rx="10" width="56" x="49" y="1"></rect>
<text class="terminal" x="59" y="21">DATE</text>
<rect height="32" rx="10" width="54" x="71" y="47"></rect>
<rect class="terminal" height="32" rx="10" width="54" x="69" y="45"></rect>
<text class="terminal" x="79" y="65">TIME</text>
<rect height="32" rx="10" width="100" x="71" y="91"></rect>
<rect class="terminal" height="32" rx="10" width="100" x="69" y="89"></rect>
<text class="terminal" x="79" y="109">TIMESTAMP</text>
<rect height="32" rx="10" width="26" x="231" y="79"></rect>
<rect class="terminal" height="32" rx="10" width="26" x="229" y="77"></rect>
<text class="terminal" x="239" y="97">(</text>
<rect height="32" rx="10" width="74" x="277" y="79"></rect>
<rect class="terminal" height="32" rx="10" width="74" x="275" y="77"></rect>
<text class="terminal" x="285" y="97">ICONST</text>
<rect height="32" rx="10" width="26" x="371" y="79"></rect>
<rect class="terminal" height="32" rx="10" width="26" x="369" y="77"></rect>
<text class="terminal" x="379" y="97">)</text><a xlink:href="#opt_timezone" xlink:title="opt_timezone">
<rect height="32" width="108" x="437" y="47"></rect>
<rect class="nonterminal" height="32" width="108" x="435" y="45"></rect>
<text lengthAdjust="spacingAndGlyphs" textLength="84" font-size="11" class="nonterminal" x="447" y="65">opt_timezone</text></a><rect height="32" rx="10" width="70" x="71" y="135"></rect>
<rect class="terminal" height="32" rx="10" width="70" x="69" y="133"></rect>
<text class="terminal" x="79" y="153">TIMETZ</text>
<rect height="32" rx="10" width="118" x="71" y="179"></rect>
<rect class="terminal" height="32" rx="10" width="118" x="69" y="177"></rect>
<text class="terminal" x="79" y="197">TIMESTAMPTZ</text>
<rect height="32" rx="10" width="26" x="249" y="167"></rect>
<rect class="terminal" height="32" rx="10" width="26" x="247" y="165"></rect>
<text class="terminal" x="257" y="185">(</text>
<rect height="32" rx="10" width="74" x="295" y="167"></rect>
<rect class="terminal" height="32" rx="10" width="74" x="293" y="165"></rect>
<text class="terminal" x="303" y="185">ICONST</text>
<rect height="32" rx="10" width="26" x="389" y="167"></rect>
<rect class="terminal" height="32" rx="10" width="26" x="387" y="165"></rect>
<text class="terminal" x="397" y="185">)</text>
<path class="line" d="m17 17 h2 m20 0 h10 m56 0 h10 m0 0 h438 m-534 0 h20 m514 0 h20 m-554 0 q10 0 10 10 m534 0 q0 -10 10 -10 m-544 10 v24 m534 0 v-24 m-534 24 q0 10 10 10 m514 0 q10 0 10 -10 m-504 10 h10 m54 0 h10 m0 0 h46 m-140 0 h20 m120 0 h20 m-160 0 q10 0 10 10 m140 0 q0 -10 10 -10 m-150 10 v24 m140 0 v-24 m-140 24 q0 10 10 10 m120 0 q10 0 10 -10 m-130 10 h10 m100 0 h10 m40 -44 h10 m0 0 h176 m-206 0 h20 m186 0 h20 m-226 0 q10 0 10 10 m206 0 q0 -10 10 -10 m-216 10 v12 m206 0 v-12 m-206 12 q0 10 10 10 m186 0 q10 0 10 -10 m-196 10 h10 m26 0 h10 m0 0 h10 m74 0 h10 m0 0 h10 m26 0 h10 m20 -32 h10 m108 0 h10 m-524 -10 v20 m534 0 v-20 m-534 20 v68 m534 0 v-68 m-534 68 q0 10 10 10 m514 0 q10 0 10 -10 m-504 10 h10 m70 0 h10 m0 0 h48 m-158 0 h20 m138 0 h20 m-178 0 q10 0 10 10 m158 0 q0 -10 10 -10 m-168 10 v24 m158 0 v-24 m-158 24 q0 10 10 10 m138 0 q10 0 10 -10 m-148 10 h10 m118 0 h10 m40 -44 h10 m0 0 h176 m-206 0 h20 m186 0 h20 m-226 0 q10 0 10 10 m206 0 q0 -10 10 -10 m-216 10 v12 m206 0 v-12 m-206 12 q0 10 10 10 m186 0 q10 0 10 -10 m-196 10 h10 m26 0 h10 m0 0 h10 m74 0 h10 m0 0 h10 m26 0 h10 m20 -32 h110 m23 -132 h-3"></path>
<polygon points="583 17 591 13 591 21"></polygon>
<polygon points="583 17 575 13 575 21"></polygon></svg>