<svg height="85" width="495" xmlns="http://www.w3.org/2000/svg" xmlns:xlink="http://www.w3.org/1999/xlink"><style>svg {
  font-family: ui-monospace, SFMono-Regular, Menlo, Monaco, Consolas, "Liberation Mono", "Courier New", monospace;
}
text {
  fill: #2f3337;
  font-size: 14px;
}
rect {
  fill: #ffffff;
  stroke: #3a3d40;
  stroke-width: 2;
}
rect.terminal {
  fill: #ffffff;
}
rect.nonterminal {
  fill: #ffffff;
}
text.terminal {
  fill: #2f3337;
  font-weight: 600;
}
text.nonterminal {
  fill: #2563eb;
}
a text.nonterminal {
  text-decoration: underline;
}
path.line {
  fill: none;
  stroke: #3a3d40;
  stroke-width: 2;
}
polygon {
  fill: #2f3337;
  stroke: #2f3337;
}</style>
<polygon points="9 33 1 29 1 37"></polygon>
<polygon points="17 33 9 29 9 37"></polygon><a xlink:href="#trigger_func_arg" xlink:title="trigger_func_arg">
<rect height="32" width="126" x="51" y="51"></rect>
<rect class="nonterminal" height="32" width="126" x="49" y="49"></rect>
<text lengthAdjust="spacingAndGlyphs" textLength="102" font-size="10" class="nonterminal" x="61" y="69">trigger_func_arg</text></a><rect height="32" rx="10" width="24" x="257" y="19"></rect>
<rect class="terminal" height="32" rx="10" width="24" x="255" y="17"></rect>
<text class="terminal" x="265" y="37">,</text><a xlink:href="#trigger_func_arg" xlink:title="trigger_func_arg">
<rect height="32" width="126" x="301" y="19"></rect>
<rect class="nonterminal" height="32" width="126" x="299" y="17"></rect>
<text lengthAdjust="spacingAndGlyphs" textLength="102" font-size="10" class="nonterminal" x="311" y="37">trigger_func_arg</text></a><path class="line" d="m17 33 h2 m20 0 h10 m0 0 h136 m-166 0 h20 m146 0 h20 m-186 0 q10 0 10 10 m166 0 q0 -10 10 -10 m-176 10 v12 m166 0 v-12 m-166 12 q0 10 10 10 m146 0 q10 0 10 -10 m-156 10 h10 m126 0 h10 m60 -32 h10 m24 0 h10 m0 0 h10 m126 0 h10 m-210 0 l20 0 m-1 0 q-9 0 -9 -10 l0 -12 q0 -10 10 -10 m190 32 l20 0 m-20 0 q10 0 10 -10 l0 -12 q0 -10 -10 -10 m-190 0 h10 m0 0 h180 m-230 32 h20 m230 0 h20 m-270 0 q10 0 10 10 m250 0 q0 -10 10 -10 m-260 10 v14 m250 0 v-14 m-250 14 q0 10 10 10 m230 0 q10 0 10 -10 m-240 10 h10 m0 0 h220 m23 -34 h-3"></path>
<polygon points="485 33 493 29 493 37"></polygon>
<polygon points="485 33 477 29 477 37"></polygon></svg>