<svg height="147" width="1087" xmlns="http://www.w3.org/2000/svg" xmlns:xlink="http://www.w3.org/1999/xlink"><style>svg {
  font-family: ui-monospace, SFMono-Regular, Menlo, Monaco, Consolas, "Liberation Mono", "Courier New", monospace;
}
text {
  fill: #2f3337;
  font-size: 14px;
}
rect {
  fill: #ffffff;
  stroke: #3a3d40;
  stroke-width: 2;
}
rect.terminal {
  fill: #ffffff;
}
rect.nonterminal {
  fill: #ffffff;
}
text.terminal {
  fill: #2f3337;
  font-weight: 600;
}
text.nonterminal {
  fill: #2563eb;
}
a text.nonterminal {
  text-decoration: underline;
}
path.line {
  fill: none;
  stroke: #3a3d40;
  stroke-width: 2;
}
polygon {
  fill: #2f3337;
  stroke: #2f3337;
}</style>
<polygon points="11 17 3 13 3 21"></polygon>
<polygon points="19 17 11 13 11 21"></polygon>
<rect height="32" rx="10" width="72" x="33" y="3"></rect>
<rect class="terminal" height="32" rx="10" width="72" x="31" y="1"></rect>
<text class="terminal" x="41" y="21">CREATE</text>
<rect height="32" rx="10" width="110" x="125" y="3"></rect>
<rect class="terminal" height="32" rx="10" width="110" x="123" y="1"></rect>
<text class="terminal" x="133" y="21">CHANGEFEED</text><a xlink:href="#for_with_lookahead_variants" xlink:title="for_with_lookahead_variants">
<rect height="32" width="204" x="45" y="69"></rect>
<rect class="nonterminal" height="32" width="204" x="43" y="67"></rect>
<text lengthAdjust="spacingAndGlyphs" textLength="180" font-size="10" class="nonterminal" x="55" y="87">for_with_lookahead_variants</text></a><a xlink:href="#changefeed_table_targets" xlink:title="changefeed_table_targets">
<rect height="32" width="188" x="269" y="69"></rect>
<rect class="nonterminal" height="32" width="188" x="267" y="67"></rect>
<text lengthAdjust="spacingAndGlyphs" textLength="164" font-size="11" class="nonterminal" x="279" y="87">changefeed_table_targets</text></a><a xlink:href="#opt_changefeed_sink" xlink:title="opt_changefeed_sink">
<rect height="32" width="156" x="477" y="69"></rect>
<rect class="nonterminal" height="32" width="156" x="475" y="67"></rect>
<text lengthAdjust="spacingAndGlyphs" textLength="132" font-size="11" class="nonterminal" x="487" y="87">opt_changefeed_sink</text></a><a xlink:href="#opt_with_options" xlink:title="opt_with_options">
<rect height="32" width="130" x="653" y="69"></rect>
<rect class="nonterminal" height="32" width="130" x="651" y="67"></rect>
<text lengthAdjust="spacingAndGlyphs" textLength="106" font-size="10" class="nonterminal" x="663" y="87">opt_with_options</text></a><a xlink:href="#opt_changefeed_sink" xlink:title="opt_changefeed_sink">
<rect height="32" width="156" x="45" y="113"></rect>
<rect class="nonterminal" height="32" width="156" x="43" y="111"></rect>
<text lengthAdjust="spacingAndGlyphs" textLength="132" font-size="11" class="nonterminal" x="55" y="131">opt_changefeed_sink</text></a><a xlink:href="#opt_with_options" xlink:title="opt_with_options">
<rect height="32" width="130" x="221" y="113"></rect>
<rect class="nonterminal" height="32" width="130" x="219" y="111"></rect>
<text lengthAdjust="spacingAndGlyphs" textLength="106" font-size="10" class="nonterminal" x="231" y="131">opt_with_options</text></a><rect height="32" rx="10" width="38" x="371" y="113"></rect>
<rect class="terminal" height="32" rx="10" width="38" x="369" y="111"></rect>
<text class="terminal" x="379" y="131">AS</text>
<rect height="32" rx="10" width="70" x="429" y="113"></rect>
<rect class="terminal" height="32" rx="10" width="70" x="427" y="111"></rect>
<text class="terminal" x="437" y="131">SELECT</text><a xlink:href="#target_list" xlink:title="target_list">
<rect height="32" width="86" x="519" y="113"></rect>
<rect class="nonterminal" height="32" width="86" x="517" y="111"></rect>
<text lengthAdjust="spacingAndGlyphs" textLength="62" font-size="10" class="nonterminal" x="529" y="131">target_list</text></a><rect height="32" rx="10" width="60" x="625" y="113"></rect>
<rect class="terminal" height="32" rx="10" width="60" x="623" y="111"></rect>
<text class="terminal" x="633" y="131">FROM</text><a xlink:href="#changefeed_target_expr" xlink:title="changefeed_target_expr">
<rect height="32" width="178" x="705" y="113"></rect>
<rect class="nonterminal" height="32" width="178" x="703" y="111"></rect>
<text lengthAdjust="spacingAndGlyphs" textLength="154" font-size="11" class="nonterminal" x="715" y="131">changefeed_target_expr</text></a><a xlink:href="#opt_where_clause" xlink:title="opt_where_clause">
<rect height="32" width="136" x="903" y="113"></rect>
<rect class="nonterminal" height="32" width="136" x="901" y="111"></rect>
<text lengthAdjust="spacingAndGlyphs" textLength="112" font-size="11" class="nonterminal" x="913" y="131">opt_where_clause</text></a><path class="line" d="m19 17 h2 m0 0 h10 m72 0 h10 m0 0 h10 m110 0 h10 m2 0 l2 0 m2 0 l2 0 m2 0 l2 0 m-254 66 l2 0 m2 0 l2 0 m2 0 l2 0 m22 0 h10 m204 0 h10 m0 0 h10 m188 0 h10 m0 0 h10 m156 0 h10 m0 0 h10 m130 0 h10 m0 0 h256 m-1034 0 h20 m1014 0 h20 m-1054 0 q10 0 10 10 m1034 0 q0 -10 10 -10 m-1044 10 v24 m1034 0 v-24 m-1034 24 q0 10 10 10 m1014 0 q10 0 10 -10 m-1024 10 h10 m156 0 h10 m0 0 h10 m130 0 h10 m0 0 h10 m38 0 h10 m0 0 h10 m70 0 h10 m0 0 h10 m86 0 h10 m0 0 h10 m60 0 h10 m0 0 h10 m178 0 h10 m0 0 h10 m136 0 h10 m23 -44 h-3"></path>
<polygon points="1077 83 1085 79 1085 87"></polygon>
<polygon points="1077 83 1069 79 1069 87"></polygon></svg>