<svg height="213" width="219" xmlns="http://www.w3.org/2000/svg"><style>svg {
  font-family: ui-monospace, SFMono-Regular, Menlo, Monaco, Consolas, "Liberation Mono", "Courier New", monospace;
}
text {
  fill: #2f3337;
  font-size: 14px;
}
rect {
  fill: #ffffff;
  stroke: #3a3d40;
  stroke-width: 2;
}
rect.terminal {
  fill: #ffffff;
}
rect.nonterminal {
  fill: #ffffff;
}
text.terminal {
  fill: #2f3337;
  font-weight: 600;
}
text.nonterminal {
  fill: #2563eb;
}
a text.nonterminal {
  text-decoration: underline;
}
path.line {
  fill: none;
  stroke: #3a3d40;
  stroke-width: 2;
}
polygon {
  fill: #2f3337;
  stroke: #2f3337;
}</style>
<polygon points="9 17 1 13 1 21"></polygon>
<polygon points="17 17 9 13 9 21"></polygon>
<rect height="32" rx="10" width="120" x="51" y="3"></rect>
<rect class="terminal" height="32" rx="10" width="120" x="49" y="1"></rect>
<text class="terminal" x="59" y="21">CONSTRAINTS</text>
<rect height="32" rx="10" width="90" x="51" y="47"></rect>
<rect class="terminal" height="32" rx="10" width="90" x="49" y="45"></rect>
<text class="terminal" x="59" y="65">DEFAULTS</text>
<rect height="32" rx="10" width="100" x="51" y="91"></rect>
<rect class="terminal" height="32" rx="10" width="100" x="49" y="89"></rect>
<text class="terminal" x="59" y="109">GENERATED</text>
<rect height="32" rx="10" width="80" x="51" y="135"></rect>
<rect class="terminal" height="32" rx="10" width="80" x="49" y="133"></rect>
<text class="terminal" x="59" y="153">INDEXES</text>
<rect height="32" rx="10" width="44" x="51" y="179"></rect>
<rect class="terminal" height="32" rx="10" width="44" x="49" y="177"></rect>
<text class="terminal" x="59" y="197">ALL</text>
<path class="line" d="m17 17 h2 m20 0 h10 m120 0 h10 m-160 0 h20 m140 0 h20 m-180 0 q10 0 10 10 m160 0 q0 -10 10 -10 m-170 10 v24 m160 0 v-24 m-160 24 q0 10 10 10 m140 0 q10 0 10 -10 m-150 10 h10 m90 0 h10 m0 0 h30 m-150 -10 v20 m160 0 v-20 m-160 20 v24 m160 0 v-24 m-160 24 q0 10 10 10 m140 0 q10 0 10 -10 m-150 10 h10 m100 0 h10 m0 0 h20 m-150 -10 v20 m160 0 v-20 m-160 20 v24 m160 0 v-24 m-160 24 q0 10 10 10 m140 0 q10 0 10 -10 m-150 10 h10 m80 0 h10 m0 0 h40 m-150 -10 v20 m160 0 v-20 m-160 20 v24 m160 0 v-24 m-160 24 q0 10 10 10 m140 0 q10 0 10 -10 m-150 10 h10 m44 0 h10 m0 0 h76 m23 -176 h-3"></path>
<polygon points="209 17 217 13 217 21"></polygon>
<polygon points="209 17 201 13 201 21"></polygon></svg>