<svg height="69" width="535" xmlns="http://www.w3.org/2000/svg" xmlns:xlink="http://www.w3.org/1999/xlink"><style>svg {
  font-family: ui-monospace, SFMono-Regular, Menlo, Monaco, Consolas, "Liberation Mono", "Courier New", monospace;
}
text {
  fill: #2f3337;
  font-size: 14px;
}
rect {
  fill: #ffffff;
  stroke: #3a3d40;
  stroke-width: 2;
}
rect.terminal {
  fill: #ffffff;
}
rect.nonterminal {
  fill: #ffffff;
}
text.terminal {
  fill: #2f3337;
  font-weight: 600;
}
text.nonterminal {
  fill: #2563eb;
}
a text.nonterminal {
  text-decoration: underline;
}
path.line {
  fill: none;
  stroke: #3a3d40;
  stroke-width: 2;
}
polygon {
  fill: #2f3337;
  stroke: #2f3337;
}</style>
<polygon points="9 17 1 13 1 21"></polygon>
<polygon points="17 17 9 13 9 21"></polygon>
<rect height="32" rx="10" width="92" x="31" y="3"></rect>
<rect class="terminal" height="32" rx="10" width="92" x="29" y="1"></rect>
<text class="terminal" x="39" y="21">ROLLBACK</text><a xlink:href="#opt_transaction" xlink:title="opt_transaction">
<rect height="32" width="120" x="143" y="3"></rect>
<rect class="nonterminal" height="32" width="120" x="141" y="1"></rect>
<text lengthAdjust="spacingAndGlyphs" textLength="96" font-size="10" class="nonterminal" x="153" y="21">opt_transaction</text></a><rect height="32" rx="10" width="38" x="303" y="35"></rect>
<rect class="terminal" height="32" rx="10" width="38" x="301" y="33"></rect>
<text class="terminal" x="311" y="53">TO</text><a xlink:href="#savepoint_name" xlink:title="savepoint_name">
<rect height="32" width="126" x="361" y="35"></rect>
<rect class="nonterminal" height="32" width="126" x="359" y="33"></rect>
<text lengthAdjust="spacingAndGlyphs" textLength="102" font-size="11" class="nonterminal" x="371" y="53">savepoint_name</text></a><path class="line" d="m17 17 h2 m0 0 h10 m92 0 h10 m0 0 h10 m120 0 h10 m20 0 h10 m0 0 h194 m-224 0 h20 m204 0 h20 m-244 0 q10 0 10 10 m224 0 q0 -10 10 -10 m-234 10 v12 m224 0 v-12 m-224 12 q0 10 10 10 m204 0 q10 0 10 -10 m-214 10 h10 m38 0 h10 m0 0 h10 m126 0 h10 m23 -32 h-3"></path>
<polygon points="525 17 533 13 533 21"></polygon>
<polygon points="525 17 517 13 517 21"></polygon></svg>