<svg height="301" width="285" xmlns="http://www.w3.org/2000/svg" xmlns:xlink="http://www.w3.org/1999/xlink"><style>svg {
  font-family: ui-monospace, SFMono-Regular, Menlo, Monaco, Consolas, "Liberation Mono", "Courier New", monospace;
}
text {
  fill: #2f3337;
  font-size: 14px;
}
rect {
  fill: #ffffff;
  stroke: #3a3d40;
  stroke-width: 2;
}
rect.terminal {
  fill: #ffffff;
}
rect.nonterminal {
  fill: #ffffff;
}
text.terminal {
  fill: #2f3337;
  font-weight: 600;
}
text.nonterminal {
  fill: #2563eb;
}
a text.nonterminal {
  text-decoration: underline;
}
path.line {
  fill: none;
  stroke: #3a3d40;
  stroke-width: 2;
}
polygon {
  fill: #2f3337;
  stroke: #2f3337;
}</style>
<polygon points="9 17 1 13 1 21"></polygon>
<polygon points="17 17 9 13 9 21"></polygon><a xlink:href="#begin_stmt" xlink:title="begin_stmt">
<rect height="32" width="92" x="51" y="3"></rect>
<rect class="nonterminal" height="32" width="92" x="49" y="1"></rect>
<text lengthAdjust="spacingAndGlyphs" textLength="68" font-size="10" class="nonterminal" x="61" y="21">begin_stmt</text></a><a xlink:href="#commit_stmt" xlink:title="commit_stmt">
<rect height="32" width="102" x="51" y="47"></rect>
<rect class="nonterminal" height="32" width="102" x="49" y="45"></rect>
<text lengthAdjust="spacingAndGlyphs" textLength="78" font-size="11" class="nonterminal" x="61" y="65">commit_stmt</text></a><a xlink:href="#rollback_stmt" xlink:title="rollback_stmt">
<rect height="32" width="106" x="51" y="91"></rect>
<rect class="nonterminal" height="32" width="106" x="49" y="89"></rect>
<text lengthAdjust="spacingAndGlyphs" textLength="82" font-size="10" class="nonterminal" x="61" y="109">rollback_stmt</text></a><a xlink:href="#abort_stmt" xlink:title="abort_stmt">
<rect height="32" width="90" x="51" y="135"></rect>
<rect class="nonterminal" height="32" width="90" x="49" y="133"></rect>
<text lengthAdjust="spacingAndGlyphs" textLength="66" font-size="10" class="nonterminal" x="61" y="153">abort_stmt</text></a><a xlink:href="#prepare_transaction_stmt" xlink:title="prepare_transaction_stmt">
<rect height="32" width="186" x="51" y="179"></rect>
<rect class="nonterminal" height="32" width="186" x="49" y="177"></rect>
<text lengthAdjust="spacingAndGlyphs" textLength="162" font-size="10" class="nonterminal" x="61" y="197">prepare_transaction_stmt</text></a><a xlink:href="#commit_prepared_stmt" xlink:title="commit_prepared_stmt">
<rect height="32" width="168" x="51" y="223"></rect>
<rect class="nonterminal" height="32" width="168" x="49" y="221"></rect>
<text lengthAdjust="spacingAndGlyphs" textLength="144" font-size="11" class="nonterminal" x="61" y="241">commit_prepared_stmt</text></a><a xlink:href="#rollback_prepared_stmt" xlink:title="rollback_prepared_stmt">
<rect height="32" width="172" x="51" y="267"></rect>
<rect class="nonterminal" height="32" width="172" x="49" y="265"></rect>
<text lengthAdjust="spacingAndGlyphs" textLength="148" font-size="10" class="nonterminal" x="61" y="285">rollback_prepared_stmt</text></a><path class="line" d="m17 17 h2 m20 0 h10 m92 0 h10 m0 0 h94 m-226 0 h20 m206 0 h20 m-246 0 q10 0 10 10 m226 0 q0 -10 10 -10 m-236 10 v24 m226 0 v-24 m-226 24 q0 10 10 10 m206 0 q10 0 10 -10 m-216 10 h10 m102 0 h10 m0 0 h84 m-216 -10 v20 m226 0 v-20 m-226 20 v24 m226 0 v-24 m-226 24 q0 10 10 10 m206 0 q10 0 10 -10 m-216 10 h10 m106 0 h10 m0 0 h80 m-216 -10 v20 m226 0 v-20 m-226 20 v24 m226 0 v-24 m-226 24 q0 10 10 10 m206 0 q10 0 10 -10 m-216 10 h10 m90 0 h10 m0 0 h96 m-216 -10 v20 m226 0 v-20 m-226 20 v24 m226 0 v-24 m-226 24 q0 10 10 10 m206 0 q10 0 10 -10 m-216 10 h10 m186 0 h10 m-216 -10 v20 m226 0 v-20 m-226 20 v24 m226 0 v-24 m-226 24 q0 10 10 10 m206 0 q10 0 10 -10 m-216 10 h10 m168 0 h10 m0 0 h18 m-216 -10 v20 m226 0 v-20 m-226 20 v24 m226 0 v-24 m-226 24 q0 10 10 10 m206 0 q10 0 10 -10 m-216 10 h10 m172 0 h10 m0 0 h14 m23 -264 h-3"></path>
<polygon points="275 17 283 13 283 21"></polygon>
<polygon points="275 17 267 13 267 21"></polygon></svg>