<svg height="81" width="445" xmlns="http://www.w3.org/2000/svg" xmlns:xlink="http://www.w3.org/1999/xlink"><style>svg {
  font-family: ui-monospace, SFMono-Regular, Menlo, Monaco, Consolas, "Liberation Mono", "Courier New", monospace;
}
text {
  fill: #2f3337;
  font-size: 14px;
}
rect {
  fill: #ffffff;
  stroke: #3a3d40;
  stroke-width: 2;
}
rect.terminal {
  fill: #ffffff;
}
rect.nonterminal {
  fill: #ffffff;
}
text.terminal {
  fill: #2f3337;
  font-weight: 600;
}
text.nonterminal {
  fill: #2563eb;
}
a text.nonterminal {
  text-decoration: underline;
}
path.line {
  fill: none;
  stroke: #3a3d40;
  stroke-width: 2;
}
polygon {
  fill: #2f3337;
  stroke: #2f3337;
}</style>
<polygon points="9 17 1 13 1 21"></polygon>
<polygon points="17 17 9 13 9 21"></polygon>
<rect height="32" rx="10" width="44" x="51" y="3"></rect>
<rect class="terminal" height="32" rx="10" width="44" x="49" y="1"></rect>
<text class="terminal" x="59" y="21">BIT</text><a xlink:href="#opt_varying" xlink:title="opt_varying">
<rect height="32" width="96" x="115" y="3"></rect>
<rect class="nonterminal" height="32" width="96" x="113" y="1"></rect>
<text lengthAdjust="spacingAndGlyphs" textLength="72" font-size="10" class="nonterminal" x="125" y="21">opt_varying</text></a><rect height="32" rx="10" width="72" x="51" y="47"></rect>
<rect class="terminal" height="32" rx="10" width="72" x="49" y="45"></rect>
<text class="terminal" x="59" y="65">VARBIT</text>
<rect height="32" rx="10" width="26" x="251" y="3"></rect>
<rect class="terminal" height="32" rx="10" width="26" x="249" y="1"></rect>
<text class="terminal" x="259" y="21">(</text>
<rect height="32" rx="10" width="74" x="297" y="3"></rect>
<rect class="terminal" height="32" rx="10" width="74" x="295" y="1"></rect>
<text class="terminal" x="305" y="21">ICONST</text>
<rect height="32" rx="10" width="26" x="391" y="3"></rect>
<rect class="terminal" height="32" rx="10" width="26" x="389" y="1"></rect>
<text class="terminal" x="399" y="21">)</text>
<path class="line" d="m17 17 h2 m20 0 h10 m44 0 h10 m0 0 h10 m96 0 h10 m-200 0 h20 m180 0 h20 m-220 0 q10 0 10 10 m200 0 q0 -10 10 -10 m-210 10 v24 m200 0 v-24 m-200 24 q0 10 10 10 m180 0 q10 0 10 -10 m-190 10 h10 m72 0 h10 m0 0 h88 m20 -44 h10 m26 0 h10 m0 0 h10 m74 0 h10 m0 0 h10 m26 0 h10 m3 0 h-3"></path>
<polygon points="435 17 443 13 443 21"></polygon>
<polygon points="435 17 427 13 427 21"></polygon></svg>