<svg height="255" width="711" xmlns="http://www.w3.org/2000/svg" xmlns:xlink="http://www.w3.org/1999/xlink"><style>svg {
  font-family: ui-monospace, SFMono-Regular, Menlo, Monaco, Consolas, "Liberation Mono", "Courier New", monospace;
}
text {
  fill: #2f3337;
  font-size: 14px;
}
rect {
  fill: #ffffff;
  stroke: #3a3d40;
  stroke-width: 2;
}
rect.terminal {
  fill: #ffffff;
}
rect.nonterminal {
  fill: #ffffff;
}
text.terminal {
  fill: #2f3337;
  font-weight: 600;
}
text.nonterminal {
  fill: #2563eb;
}
a text.nonterminal {
  text-decoration: underline;
}
path.line {
  fill: none;
  stroke: #3a3d40;
  stroke-width: 2;
}
polygon {
  fill: #2f3337;
  stroke: #2f3337;
}</style>
<polygon points="9 17 1 13 1 21"></polygon>
<polygon points="17 17 9 13 9 21"></polygon><a xlink:href="#func_application_name" xlink:title="func_application_name">
<rect height="32" width="166" x="31" y="3"></rect>
<rect class="nonterminal" height="32" width="166" x="29" y="1"></rect>
<text lengthAdjust="spacingAndGlyphs" textLength="142" font-size="10" class="nonterminal" x="41" y="21">func_application_name</text></a><rect height="32" rx="10" width="26" x="217" y="3"></rect>
<rect class="terminal" height="32" rx="10" width="26" x="215" y="1"></rect>
<text class="terminal" x="225" y="21">(</text>
<rect height="32" rx="10" width="44" x="303" y="67"></rect>
<rect class="terminal" height="32" rx="10" width="44" x="301" y="65"></rect>
<text class="terminal" x="311" y="85">ALL</text><a xlink:href="#expr_list" xlink:title="expr_list">
<rect height="32" width="74" x="387" y="35"></rect>
<rect class="nonterminal" height="32" width="74" x="385" y="33"></rect>
<text lengthAdjust="spacingAndGlyphs" textLength="50" font-size="10" class="nonterminal" x="397" y="53">expr_list</text></a><a xlink:href="#opt_sort_clause_no_index" xlink:title="opt_sort_clause_no_index">
<rect height="32" width="188" x="481" y="35"></rect>
<rect class="nonterminal" height="32" width="188" x="479" y="33"></rect>
<text lengthAdjust="spacingAndGlyphs" textLength="164" font-size="11" class="nonterminal" x="491" y="53">opt_sort_clause_no_index</text></a><rect height="32" rx="10" width="86" x="283" y="111"></rect>
<rect class="terminal" height="32" rx="10" width="86" x="281" y="109"></rect>
<text class="terminal" x="291" y="129">DISTINCT</text><a xlink:href="#expr_list" xlink:title="expr_list">
<rect height="32" width="74" x="389" y="111"></rect>
<rect class="nonterminal" height="32" width="74" x="387" y="109"></rect>
<text lengthAdjust="spacingAndGlyphs" textLength="50" font-size="10" class="nonterminal" x="399" y="129">expr_list</text></a><rect height="32" rx="10" width="28" x="283" y="155"></rect>
<rect class="terminal" height="32" rx="10" width="28" x="281" y="153"></rect>
<text class="terminal" x="291" y="173">*</text>
<rect height="32" rx="10" width="26" x="657" y="221"></rect>
<rect class="terminal" height="32" rx="10" width="26" x="655" y="219"></rect>
<text class="terminal" x="665" y="239">)</text>
<path class="line" d="m17 17 h2 m0 0 h10 m166 0 h10 m0 0 h10 m26 0 h10 m20 0 h10 m0 0 h396 m-426 0 h20 m406 0 h20 m-446 0 q10 0 10 10 m426 0 q0 -10 10 -10 m-436 10 v12 m426 0 v-12 m-426 12 q0 10 10 10 m406 0 q10 0 10 -10 m-396 10 h10 m0 0 h54 m-84 0 h20 m64 0 h20 m-104 0 q10 0 10 10 m84 0 q0 -10 10 -10 m-94 10 v12 m84 0 v-12 m-84 12 q0 10 10 10 m64 0 q10 0 10 -10 m-74 10 h10 m44 0 h10 m20 -32 h10 m74 0 h10 m0 0 h10 m188 0 h10 m-416 -10 v20 m426 0 v-20 m-426 20 v56 m426 0 v-56 m-426 56 q0 10 10 10 m406 0 q10 0 10 -10 m-416 10 h10 m86 0 h10 m0 0 h10 m74 0 h10 m0 0 h206 m-416 -10 v20 m426 0 v-20 m-426 20 v24 m426 0 v-24 m-426 24 q0 10 10 10 m406 0 q10 0 10 -10 m-416 10 h10 m28 0 h10 m0 0 h358 m22 -152 l2 0 m2 0 l2 0 m2 0 l2 0 m-76 218 l2 0 m2 0 l2 0 m2 0 l2 0 m2 0 h10 m26 0 h10 m3 0 h-3"></path>
<polygon points="701 235 709 231 709 239"></polygon>
<polygon points="701 235 693 231 693 239"></polygon></svg>