<svg height="81" width="367" xmlns="http://www.w3.org/2000/svg"><style>svg {
  font-family: ui-monospace, SFMono-Regular, Menlo, Monaco, Consolas, "Liberation Mono", "Courier New", monospace;
}
text {
  fill: #2f3337;
  font-size: 14px;
}
rect {
  fill: #ffffff;
  stroke: #3a3d40;
  stroke-width: 2;
}
rect.terminal {
  fill: #ffffff;
}
rect.nonterminal {
  fill: #ffffff;
}
text.terminal {
  fill: #2f3337;
  font-weight: 600;
}
text.nonterminal {
  fill: #2563eb;
}
a text.nonterminal {
  text-decoration: underline;
}
path.line {
  fill: none;
  stroke: #3a3d40;
  stroke-width: 2;
}
polygon {
  fill: #2f3337;
  stroke: #2f3337;
}</style>
<polygon points="9 17 1 13 1 21"></polygon>
<polygon points="17 17 9 13 9 21"></polygon>
<rect height="32" rx="10" width="58" x="31" y="3"></rect>
<rect class="terminal" height="32" rx="10" width="58" x="29" y="1"></rect>
<text class="terminal" x="39" y="21">WITH</text>
<rect height="32" rx="10" width="74" x="129" y="3"></rect>
<rect class="terminal" height="32" rx="10" width="74" x="127" y="1"></rect>
<text class="terminal" x="137" y="21">REDACT</text>
<rect height="32" rx="10" width="190" x="129" y="47"></rect>
<rect class="terminal" height="32" rx="10" width="190" x="127" y="45"></rect>
<text class="terminal" x="137" y="65">IGNORE_FOREIGN_KEYS</text>
<path class="line" d="m17 17 h2 m0 0 h10 m58 0 h10 m20 0 h10 m74 0 h10 m0 0 h116 m-230 0 h20 m210 0 h20 m-250 0 q10 0 10 10 m230 0 q0 -10 10 -10 m-240 10 v24 m230 0 v-24 m-230 24 q0 10 10 10 m210 0 q10 0 10 -10 m-220 10 h10 m190 0 h10 m23 -44 h-3"></path>
<polygon points="357 17 365 13 365 21"></polygon>
<polygon points="357 17 349 13 349 21"></polygon></svg>