<svg height="81" width="749" xmlns="http://www.w3.org/2000/svg" xmlns:xlink="http://www.w3.org/1999/xlink"><style>svg {
  font-family: ui-monospace, SFMono-Regular, Menlo, Monaco, Consolas, "Liberation Mono", "Courier New", monospace;
}
text {
  fill: #2f3337;
  font-size: 14px;
}
rect {
  fill: #ffffff;
  stroke: #3a3d40;
  stroke-width: 2;
}
rect.terminal {
  fill: #ffffff;
}
rect.nonterminal {
  fill: #ffffff;
}
text.terminal {
  fill: #2f3337;
  font-weight: 600;
}
text.nonterminal {
  fill: #2563eb;
}
a text.nonterminal {
  text-decoration: underline;
}
path.line {
  fill: none;
  stroke: #3a3d40;
  stroke-width: 2;
}
polygon {
  fill: #2f3337;
  stroke: #2f3337;
}</style>
<polygon points="9 17 1 13 1 21"></polygon>
<polygon points="17 17 9 13 9 21"></polygon>
<rect height="32" rx="10" width="62" x="31" y="3"></rect>
<rect class="terminal" height="32" rx="10" width="62" x="29" y="1"></rect>
<text class="terminal" x="39" y="21">ALTER</text>
<rect height="32" rx="10" width="76" x="113" y="3"></rect>
<rect class="terminal" height="32" rx="10" width="76" x="111" y="1"></rect>
<text class="terminal" x="121" y="21">SCHEMA</text><a xlink:href="#qualifiable_schema_name" xlink:title="qualifiable_schema_name">
<rect height="32" width="186" x="209" y="3"></rect>
<rect class="nonterminal" height="32" width="186" x="207" y="1"></rect>
<text lengthAdjust="spacingAndGlyphs" textLength="162" font-size="11" class="nonterminal" x="219" y="21">qualifiable_schema_name</text></a><rect height="32" rx="10" width="76" x="435" y="3"></rect>
<rect class="terminal" height="32" rx="10" width="76" x="433" y="1"></rect>
<text class="terminal" x="443" y="21">RENAME</text>
<rect height="32" rx="10" width="38" x="531" y="3"></rect>
<rect class="terminal" height="32" rx="10" width="38" x="529" y="1"></rect>
<text class="terminal" x="539" y="21">TO</text><a xlink:href="#schema_name" xlink:title="schema_name">
<rect height="32" width="112" x="589" y="3"></rect>
<rect class="nonterminal" height="32" width="112" x="587" y="1"></rect>
<text lengthAdjust="spacingAndGlyphs" textLength="88" font-size="12" class="nonterminal" x="599" y="21">schema_name</text></a><rect height="32" rx="10" width="72" x="435" y="47"></rect>
<rect class="terminal" height="32" rx="10" width="72" x="433" y="45"></rect>
<text class="terminal" x="443" y="65">OWNER</text>
<rect height="32" rx="10" width="38" x="527" y="47"></rect>
<rect class="terminal" height="32" rx="10" width="38" x="525" y="45"></rect>
<text class="terminal" x="535" y="65">TO</text><a xlink:href="#role_spec" xlink:title="role_spec">
<rect height="32" width="82" x="585" y="47"></rect>
<rect class="nonterminal" height="32" width="82" x="583" y="45"></rect>
<text lengthAdjust="spacingAndGlyphs" textLength="58" font-size="10" class="nonterminal" x="595" y="65">role_spec</text></a><path class="line" d="m17 17 h2 m0 0 h10 m62 0 h10 m0 0 h10 m76 0 h10 m0 0 h10 m186 0 h10 m20 0 h10 m76 0 h10 m0 0 h10 m38 0 h10 m0 0 h10 m112 0 h10 m-306 0 h20 m286 0 h20 m-326 0 q10 0 10 10 m306 0 q0 -10 10 -10 m-316 10 v24 m306 0 v-24 m-306 24 q0 10 10 10 m286 0 q10 0 10 -10 m-296 10 h10 m72 0 h10 m0 0 h10 m38 0 h10 m0 0 h10 m82 0 h10 m0 0 h34 m23 -44 h-3"></path>
<polygon points="739 17 747 13 747 21"></polygon>
<polygon points="739 17 731 13 731 21"></polygon></svg>