<svg height="37" width="407" xmlns="http://www.w3.org/2000/svg" xmlns:xlink="http://www.w3.org/1999/xlink"><style>svg {
  font-family: ui-monospace, SFMono-Regular, Menlo, Monaco, Consolas, "Liberation Mono", "Courier New", monospace;
}
text {
  fill: #2f3337;
  font-size: 14px;
}
rect {
  fill: #ffffff;
  stroke: #3a3d40;
  stroke-width: 2;
}
rect.terminal {
  fill: #ffffff;
}
rect.nonterminal {
  fill: #ffffff;
}
text.terminal {
  fill: #2f3337;
  font-weight: 600;
}
text.nonterminal {
  fill: #2563eb;
}
a text.nonterminal {
  text-decoration: underline;
}
path.line {
  fill: none;
  stroke: #3a3d40;
  stroke-width: 2;
}
polygon {
  fill: #2f3337;
  stroke: #2f3337;
}</style>
<polygon points="9 17 1 13 1 21"></polygon>
<polygon points="17 17 9 13 9 21"></polygon>
<rect height="32" rx="10" width="38" x="31" y="3"></rect>
<rect class="terminal" height="32" rx="10" width="38" x="29" y="1"></rect>
<text class="terminal" x="39" y="21">AS</text>
<rect height="32" rx="10" width="38" x="89" y="3"></rect>
<rect class="terminal" height="32" rx="10" width="38" x="87" y="1"></rect>
<text class="terminal" x="97" y="21">OF</text>
<rect height="32" rx="10" width="74" x="147" y="3"></rect>
<rect class="terminal" height="32" rx="10" width="74" x="145" y="1"></rect>
<text class="terminal" x="155" y="21">SYSTEM</text>
<rect height="32" rx="10" width="54" x="241" y="3"></rect>
<rect class="terminal" height="32" rx="10" width="54" x="239" y="1"></rect>
<text class="terminal" x="249" y="21">TIME</text><a xlink:href="#a_expr" xlink:title="a_expr">
<rect height="32" width="64" x="315" y="3"></rect>
<rect class="nonterminal" height="32" width="64" x="313" y="1"></rect>
<text lengthAdjust="spacingAndGlyphs" textLength="40" font-size="10" class="nonterminal" x="325" y="21">a_expr</text></a><path class="line" d="m17 17 h2 m0 0 h10 m38 0 h10 m0 0 h10 m38 0 h10 m0 0 h10 m74 0 h10 m0 0 h10 m54 0 h10 m0 0 h10 m64 0 h10 m3 0 h-3"></path>
<polygon points="397 17 405 13 405 21"></polygon>
<polygon points="397 17 389 13 389 21"></polygon></svg>