<svg height="135" width="665" xmlns="http://www.w3.org/2000/svg" xmlns:xlink="http://www.w3.org/1999/xlink"><style>svg {
  font-family: ui-monospace, SFMono-Regular, Menlo, Monaco, Consolas, "Liberation Mono", "Courier New", monospace;
}
text {
  fill: #2f3337;
  font-size: 14px;
}
rect {
  fill: #ffffff;
  stroke: #3a3d40;
  stroke-width: 2;
}
rect.terminal {
  fill: #ffffff;
}
rect.nonterminal {
  fill: #ffffff;
}
text.terminal {
  fill: #2f3337;
  font-weight: 600;
}
text.nonterminal {
  fill: #2563eb;
}
a text.nonterminal {
  text-decoration: underline;
}
path.line {
  fill: none;
  stroke: #3a3d40;
  stroke-width: 2;
}
polygon {
  fill: #2f3337;
  stroke: #2f3337;
}</style>
<polygon points="9 17 1 13 1 21"></polygon>
<polygon points="17 17 9 13 9 21"></polygon>
<rect height="32" rx="10" width="62" x="31" y="3"></rect>
<rect class="terminal" height="32" rx="10" width="62" x="29" y="1"></rect>
<text class="terminal" x="39" y="21">ALTER</text>
<rect height="32" rx="10" width="62" x="113" y="3"></rect>
<rect class="terminal" height="32" rx="10" width="62" x="111" y="1"></rect>
<text class="terminal" x="121" y="21">TABLE</text>
<rect height="32" rx="10" width="34" x="215" y="35"></rect>
<rect class="terminal" height="32" rx="10" width="34" x="213" y="33"></rect>
<text class="terminal" x="223" y="53">IF</text>
<rect height="32" rx="10" width="70" x="269" y="35"></rect>
<rect class="terminal" height="32" rx="10" width="70" x="267" y="33"></rect>
<text class="terminal" x="277" y="53">EXISTS</text><a xlink:href="#relation_expr" xlink:title="relation_expr">
<rect height="32" width="104" x="379" y="3"></rect>
<rect class="nonterminal" height="32" width="104" x="377" y="1"></rect>
<text lengthAdjust="spacingAndGlyphs" textLength="80" font-size="10" class="nonterminal" x="389" y="21">relation_expr</text></a><rect height="32" rx="10" width="44" x="503" y="3"></rect>
<rect class="terminal" height="32" rx="10" width="44" x="501" y="1"></rect>
<text class="terminal" x="511" y="21">SET</text>
<rect height="32" rx="10" width="76" x="567" y="3"></rect>
<rect class="terminal" height="32" rx="10" width="76" x="565" y="1"></rect>
<text class="terminal" x="575" y="21">SCHEMA</text><a xlink:href="#schema_name" xlink:title="schema_name">
<rect height="32" width="112" x="525" y="101"></rect>
<rect class="nonterminal" height="32" width="112" x="523" y="99"></rect>
<text lengthAdjust="spacingAndGlyphs" textLength="88" font-size="12" class="nonterminal" x="535" y="119">schema_name</text></a><path class="line" d="m17 17 h2 m0 0 h10 m62 0 h10 m0 0 h10 m62 0 h10 m20 0 h10 m0 0 h134 m-164 0 h20 m144 0 h20 m-184 0 q10 0 10 10 m164 0 q0 -10 10 -10 m-174 10 v12 m164 0 v-12 m-164 12 q0 10 10 10 m144 0 q10 0 10 -10 m-154 10 h10 m34 0 h10 m0 0 h10 m70 0 h10 m20 -32 h10 m104 0 h10 m0 0 h10 m44 0 h10 m0 0 h10 m76 0 h10 m2 0 l2 0 m2 0 l2 0 m2 0 l2 0 m-162 98 l2 0 m2 0 l2 0 m2 0 l2 0 m2 0 h10 m112 0 h10 m3 0 h-3"></path>
<polygon points="655 115 663 111 663 119"></polygon>
<polygon points="655 115 647 111 647 119"></polygon></svg>