<svg height="81" width="457" xmlns="http://www.w3.org/2000/svg" xmlns:xlink="http://www.w3.org/1999/xlink"><style>svg {
  font-family: ui-monospace, SFMono-Regular, Menlo, Monaco, Consolas, "Liberation Mono", "Courier New", monospace;
}
text {
  fill: #2f3337;
  font-size: 14px;
}
rect {
  fill: #ffffff;
  stroke: #3a3d40;
  stroke-width: 2;
}
rect.terminal {
  fill: #ffffff;
}
rect.nonterminal {
  fill: #ffffff;
}
text.terminal {
  fill: #2f3337;
  font-weight: 600;
}
text.nonterminal {
  fill: #2563eb;
}
a text.nonterminal {
  text-decoration: underline;
}
path.line {
  fill: none;
  stroke: #3a3d40;
  stroke-width: 2;
}
polygon {
  fill: #2f3337;
  stroke: #2f3337;
}</style>
<polygon points="9 17 1 13 1 21"></polygon>
<polygon points="17 17 9 13 9 21"></polygon><a xlink:href="#func_expr_windowless" xlink:title="func_expr_windowless">
<rect height="32" width="162" x="51" y="3"></rect>
<rect class="nonterminal" height="32" width="162" x="49" y="1"></rect>
<text lengthAdjust="spacingAndGlyphs" textLength="138" font-size="11" class="nonterminal" x="61" y="21">func_expr_windowless</text></a><rect height="32" rx="10" width="62" x="51" y="47"></rect>
<rect class="terminal" height="32" rx="10" width="62" x="49" y="45"></rect>
<text class="terminal" x="59" y="65">ROWS</text>
<rect height="32" rx="10" width="60" x="133" y="47"></rect>
<rect class="terminal" height="32" rx="10" width="60" x="131" y="45"></rect>
<text class="terminal" x="141" y="65">FROM</text>
<rect height="32" rx="10" width="26" x="213" y="47"></rect>
<rect class="terminal" height="32" rx="10" width="26" x="211" y="45"></rect>
<text class="terminal" x="221" y="65">(</text><a xlink:href="#rowsfrom_list" xlink:title="rowsfrom_list">
<rect height="32" width="104" x="259" y="47"></rect>
<rect class="nonterminal" height="32" width="104" x="257" y="45"></rect>
<text lengthAdjust="spacingAndGlyphs" textLength="80" font-size="10" class="nonterminal" x="269" y="65">rowsfrom_list</text></a><rect height="32" rx="10" width="26" x="383" y="47"></rect>
<rect class="terminal" height="32" rx="10" width="26" x="381" y="45"></rect>
<text class="terminal" x="391" y="65">)</text>
<path class="line" d="m17 17 h2 m20 0 h10 m162 0 h10 m0 0 h196 m-398 0 h20 m378 0 h20 m-418 0 q10 0 10 10 m398 0 q0 -10 10 -10 m-408 10 v24 m398 0 v-24 m-398 24 q0 10 10 10 m378 0 q10 0 10 -10 m-388 10 h10 m62 0 h10 m0 0 h10 m60 0 h10 m0 0 h10 m26 0 h10 m0 0 h10 m104 0 h10 m0 0 h10 m26 0 h10 m23 -44 h-3"></path>
<polygon points="447 17 455 13 455 21"></polygon>
<polygon points="447 17 439 13 439 21"></polygon></svg>