<svg height="103" width="729" xmlns="http://www.w3.org/2000/svg" xmlns:xlink="http://www.w3.org/1999/xlink"><style>svg {
  font-family: ui-monospace, SFMono-Regular, Menlo, Monaco, Consolas, "Liberation Mono", "Courier New", monospace;
}
text {
  fill: #2f3337;
  font-size: 14px;
}
rect {
  fill: #ffffff;
  stroke: #3a3d40;
  stroke-width: 2;
}
rect.terminal {
  fill: #ffffff;
}
rect.nonterminal {
  fill: #ffffff;
}
text.terminal {
  fill: #2f3337;
  font-weight: 600;
}
text.nonterminal {
  fill: #2563eb;
}
a text.nonterminal {
  text-decoration: underline;
}
path.line {
  fill: none;
  stroke: #3a3d40;
  stroke-width: 2;
}
polygon {
  fill: #2f3337;
  stroke: #2f3337;
}</style>
<polygon points="9 17 1 13 1 21"></polygon>
<polygon points="17 17 9 13 9 21"></polygon><a xlink:href="#partition" xlink:title="partition">
<rect height="32" width="74" x="31" y="3"></rect>
<rect class="nonterminal" height="32" width="74" x="29" y="1"></rect>
<text lengthAdjust="spacingAndGlyphs" textLength="50" font-size="10" class="nonterminal" x="41" y="21">partition</text></a><rect height="32" rx="10" width="72" x="125" y="3"></rect>
<rect class="terminal" height="32" rx="10" width="72" x="123" y="1"></rect>
<text class="terminal" x="133" y="21">VALUES</text>
<rect height="32" rx="10" width="60" x="217" y="3"></rect>
<rect class="terminal" height="32" rx="10" width="60" x="215" y="1"></rect>
<text class="terminal" x="225" y="21">FROM</text>
<rect height="32" rx="10" width="26" x="297" y="3"></rect>
<rect class="terminal" height="32" rx="10" width="26" x="295" y="1"></rect>
<text class="terminal" x="305" y="21">(</text><a xlink:href="#expr_list" xlink:title="expr_list">
<rect height="32" width="74" x="343" y="3"></rect>
<rect class="nonterminal" height="32" width="74" x="341" y="1"></rect>
<text lengthAdjust="spacingAndGlyphs" textLength="50" font-size="10" class="nonterminal" x="353" y="21">expr_list</text></a><rect height="32" rx="10" width="26" x="437" y="3"></rect>
<rect class="terminal" height="32" rx="10" width="26" x="435" y="1"></rect>
<text class="terminal" x="445" y="21">)</text>
<rect height="32" rx="10" width="38" x="483" y="3"></rect>
<rect class="terminal" height="32" rx="10" width="38" x="481" y="1"></rect>
<text class="terminal" x="491" y="21">TO</text>
<rect height="32" rx="10" width="26" x="541" y="3"></rect>
<rect class="terminal" height="32" rx="10" width="26" x="539" y="1"></rect>
<text class="terminal" x="549" y="21">(</text><a xlink:href="#expr_list" xlink:title="expr_list">
<rect height="32" width="74" x="587" y="3"></rect>
<rect class="nonterminal" height="32" width="74" x="585" y="1"></rect>
<text lengthAdjust="spacingAndGlyphs" textLength="50" font-size="10" class="nonterminal" x="597" y="21">expr_list</text></a><rect height="32" rx="10" width="26" x="681" y="3"></rect>
<rect class="terminal" height="32" rx="10" width="26" x="679" y="1"></rect>
<text class="terminal" x="689" y="21">)</text><a xlink:href="#opt_partition_by" xlink:title="opt_partition_by">
<rect height="32" width="126" x="575" y="69"></rect>
<rect class="nonterminal" height="32" width="126" x="573" y="67"></rect>
<text lengthAdjust="spacingAndGlyphs" textLength="102" font-size="10" class="nonterminal" x="585" y="87">opt_partition_by</text></a><path class="line" d="m17 17 h2 m0 0 h10 m74 0 h10 m0 0 h10 m72 0 h10 m0 0 h10 m60 0 h10 m0 0 h10 m26 0 h10 m0 0 h10 m74 0 h10 m0 0 h10 m26 0 h10 m0 0 h10 m38 0 h10 m0 0 h10 m26 0 h10 m0 0 h10 m74 0 h10 m0 0 h10 m26 0 h10 m2 0 l2 0 m2 0 l2 0 m2 0 l2 0 m-176 66 l2 0 m2 0 l2 0 m2 0 l2 0 m2 0 h10 m126 0 h10 m3 0 h-3"></path>
<polygon points="719 83 727 79 727 87"></polygon>
<polygon points="719 83 711 79 711 87"></polygon></svg>