<svg height="169" width="305" xmlns="http://www.w3.org/2000/svg"><style>svg {
  font-family: ui-monospace, SFMono-Regular, Menlo, Monaco, Consolas, "Liberation Mono", "Courier New", monospace;
}
text {
  fill: #2f3337;
  font-size: 14px;
}
rect {
  fill: #ffffff;
  stroke: #3a3d40;
  stroke-width: 2;
}
rect.terminal {
  fill: #ffffff;
}
rect.nonterminal {
  fill: #ffffff;
}
text.terminal {
  fill: #2f3337;
  font-weight: 600;
}
text.nonterminal {
  fill: #2563eb;
}
a text.nonterminal {
  text-decoration: underline;
}
path.line {
  fill: none;
  stroke: #3a3d40;
  stroke-width: 2;
}
polygon {
  fill: #2f3337;
  stroke: #2f3337;
}</style>
<polygon points="9 17 1 13 1 21"></polygon>
<polygon points="17 17 9 13 9 21"></polygon>
<rect height="32" rx="10" width="82" x="31" y="3"></rect>
<rect class="terminal" height="32" rx="10" width="82" x="29" y="1"></rect>
<text class="terminal" x="39" y="21">DISCARD</text>
<rect height="32" rx="10" width="44" x="153" y="3"></rect>
<rect class="terminal" height="32" rx="10" width="44" x="151" y="1"></rect>
<text class="terminal" x="161" y="21">ALL</text>
<rect height="32" rx="10" width="102" x="153" y="47"></rect>
<rect class="terminal" height="32" rx="10" width="102" x="151" y="45"></rect>
<text class="terminal" x="161" y="65">SEQUENCES</text>
<rect height="32" rx="10" width="56" x="153" y="91"></rect>
<rect class="terminal" height="32" rx="10" width="56" x="151" y="89"></rect>
<text class="terminal" x="161" y="109">TEMP</text>
<rect height="32" rx="10" width="104" x="153" y="135"></rect>
<rect class="terminal" height="32" rx="10" width="104" x="151" y="133"></rect>
<text class="terminal" x="161" y="153">TEMPORARY</text>
<path class="line" d="m17 17 h2 m0 0 h10 m82 0 h10 m20 0 h10 m44 0 h10 m0 0 h60 m-144 0 h20 m124 0 h20 m-164 0 q10 0 10 10 m144 0 q0 -10 10 -10 m-154 10 v24 m144 0 v-24 m-144 24 q0 10 10 10 m124 0 q10 0 10 -10 m-134 10 h10 m102 0 h10 m0 0 h2 m-134 -10 v20 m144 0 v-20 m-144 20 v24 m144 0 v-24 m-144 24 q0 10 10 10 m124 0 q10 0 10 -10 m-134 10 h10 m56 0 h10 m0 0 h48 m-134 -10 v20 m144 0 v-20 m-144 20 v24 m144 0 v-24 m-144 24 q0 10 10 10 m124 0 q10 0 10 -10 m-134 10 h10 m104 0 h10 m23 -132 h-3"></path>
<polygon points="295 17 303 13 303 21"></polygon>
<polygon points="295 17 287 13 287 21"></polygon></svg>