<svg height="81" width="301" xmlns="http://www.w3.org/2000/svg" xmlns:xlink="http://www.w3.org/1999/xlink"><style>svg {
  font-family: ui-monospace, SFMono-Regular, Menlo, Monaco, Consolas, "Liberation Mono", "Courier New", monospace;
}
text {
  fill: #2f3337;
  font-size: 14px;
}
rect {
  fill: #ffffff;
  stroke: #3a3d40;
  stroke-width: 2;
}
rect.terminal {
  fill: #ffffff;
}
rect.nonterminal {
  fill: #ffffff;
}
text.terminal {
  fill: #2f3337;
  font-weight: 600;
}
text.nonterminal {
  fill: #2563eb;
}
a text.nonterminal {
  text-decoration: underline;
}
path.line {
  fill: none;
  stroke: #3a3d40;
  stroke-width: 2;
}
polygon {
  fill: #2f3337;
  stroke: #2f3337;
}</style>
<polygon points="9 17 1 13 1 21"></polygon>
<polygon points="17 17 9 13 9 21"></polygon><a xlink:href="#for_locking_items" xlink:title="for_locking_items">
<rect height="32" width="132" x="51" y="3"></rect>
<rect class="nonterminal" height="32" width="132" x="49" y="1"></rect>
<text lengthAdjust="spacingAndGlyphs" textLength="108" font-size="10" class="nonterminal" x="61" y="21">for_locking_items</text></a><rect height="32" rx="10" width="48" x="51" y="47"></rect>
<rect class="terminal" height="32" rx="10" width="48" x="49" y="45"></rect>
<text class="terminal" x="59" y="65">FOR</text>
<rect height="32" rx="10" width="56" x="119" y="47"></rect>
<rect class="terminal" height="32" rx="10" width="56" x="117" y="45"></rect>
<text class="terminal" x="127" y="65">READ</text>
<rect height="32" rx="10" width="58" x="195" y="47"></rect>
<rect class="terminal" height="32" rx="10" width="58" x="193" y="45"></rect>
<text class="terminal" x="203" y="65">ONLY</text>
<path class="line" d="m17 17 h2 m20 0 h10 m132 0 h10 m0 0 h70 m-242 0 h20 m222 0 h20 m-262 0 q10 0 10 10 m242 0 q0 -10 10 -10 m-252 10 v24 m242 0 v-24 m-242 24 q0 10 10 10 m222 0 q10 0 10 -10 m-232 10 h10 m48 0 h10 m0 0 h10 m56 0 h10 m0 0 h10 m58 0 h10 m23 -44 h-3"></path>
<polygon points="291 17 299 13 299 21"></polygon>
<polygon points="291 17 283 13 283 21"></polygon></svg>