<svg height="81" width="575" xmlns="http://www.w3.org/2000/svg" xmlns:xlink="http://www.w3.org/1999/xlink"><style>svg {
  font-family: ui-monospace, SFMono-Regular, Menlo, Monaco, Consolas, "Liberation Mono", "Courier New", monospace;
}
text {
  fill: #2f3337;
  font-size: 14px;
}
rect {
  fill: #ffffff;
  stroke: #3a3d40;
  stroke-width: 2;
}
rect.terminal {
  fill: #ffffff;
}
rect.nonterminal {
  fill: #ffffff;
}
text.terminal {
  fill: #2f3337;
  font-weight: 600;
}
text.nonterminal {
  fill: #2563eb;
}
a text.nonterminal {
  text-decoration: underline;
}
path.line {
  fill: none;
  stroke: #3a3d40;
  stroke-width: 2;
}
polygon {
  fill: #2f3337;
  stroke: #2f3337;
}</style>
<polygon points="9 17 1 13 1 21"></polygon>
<polygon points="17 17 9 13 9 21"></polygon>
<rect height="32" rx="10" width="84" x="51" y="3"></rect>
<rect class="terminal" height="32" rx="10" width="84" x="49" y="1"></rect>
<text class="terminal" x="59" y="21">PRIMARY</text>
<rect height="32" rx="10" width="46" x="155" y="3"></rect>
<rect class="terminal" height="32" rx="10" width="46" x="153" y="1"></rect>
<text class="terminal" x="163" y="21">KEY</text><a xlink:href="#table_name" xlink:title="table_name">
<rect height="32" width="96" x="221" y="3"></rect>
<rect class="nonterminal" height="32" width="96" x="219" y="1"></rect>
<text lengthAdjust="spacingAndGlyphs" textLength="72" font-size="11" class="nonterminal" x="231" y="21">table_name</text></a><rect height="32" rx="10" width="64" x="51" y="47"></rect>
<rect class="terminal" height="32" rx="10" width="64" x="49" y="45"></rect>
<text class="terminal" x="59" y="65">INDEX</text><a xlink:href="#table_name" xlink:title="table_name">
<rect height="32" width="96" x="135" y="47"></rect>
<rect class="nonterminal" height="32" width="96" x="133" y="45"></rect>
<text lengthAdjust="spacingAndGlyphs" textLength="72" font-size="11" class="nonterminal" x="145" y="65">table_name</text></a><rect height="32" rx="10" width="32" x="251" y="47"></rect>
<rect class="terminal" height="32" rx="10" width="32" x="249" y="45"></rect>
<text class="terminal" x="259" y="65">@</text><a xlink:href="#index_name" xlink:title="index_name">
<rect height="32" width="98" x="303" y="47"></rect>
<rect class="nonterminal" height="32" width="98" x="301" y="45"></rect>
<text lengthAdjust="spacingAndGlyphs" textLength="74" font-size="11" class="nonterminal" x="313" y="65">index_name</text></a><a xlink:href="#opt_asc_desc" xlink:title="opt_asc_desc">
<rect height="32" width="106" x="441" y="3"></rect>
<rect class="nonterminal" height="32" width="106" x="439" y="1"></rect>
<text lengthAdjust="spacingAndGlyphs" textLength="82" font-size="11" class="nonterminal" x="451" y="21">opt_asc_desc</text></a><path class="line" d="m17 17 h2 m20 0 h10 m84 0 h10 m0 0 h10 m46 0 h10 m0 0 h10 m96 0 h10 m0 0 h84 m-390 0 h20 m370 0 h20 m-410 0 q10 0 10 10 m390 0 q0 -10 10 -10 m-400 10 v24 m390 0 v-24 m-390 24 q0 10 10 10 m370 0 q10 0 10 -10 m-380 10 h10 m64 0 h10 m0 0 h10 m96 0 h10 m0 0 h10 m32 0 h10 m0 0 h10 m98 0 h10 m20 -44 h10 m106 0 h10 m3 0 h-3"></path>
<polygon points="565 17 573 13 573 21"></polygon>
<polygon points="565 17 557 13 557 21"></polygon></svg>