<?xml version="1.0" encoding="UTF-8" standalone="no"?>
<svg
   xmlns:dc="http://purl.org/dc/elements/1.1/"
   xmlns:cc="http://creativecommons.org/ns#"
   xmlns:rdf="http://www.w3.org/1999/02/22-rdf-syntax-ns#"
   xmlns:svg="http://www.w3.org/2000/svg"
   xmlns="http://www.w3.org/2000/svg"
   height="1654"
   width="2450.7"
   xml:space="preserve"
   enable-background="new 0 0 2887.1 2940.8"
   viewBox="0 0 2450.6998 1654"
   y="0px"
   x="0px"
   id="Layer_1"
   version="1.1"><metadata
     id="metadata57"><rdf:RDF><cc:Work
         rdf:about=""><dc:format>image/svg+xml</dc:format><dc:type
           rdf:resource="http://purl.org/dc/dcmitype/StillImage" /><dc:title></dc:title></cc:Work></rdf:RDF></metadata><defs
     id="defs55" /><g
     transform="matrix(0,-1,1,0,-490.10006,2887.1)"
     id="iPad_x5F_Mini_x5F_FRONT_1_"><path
       style="fill:#231f20"
       id="path29"
       d="m 2887.1,2820.2 c 0,69.4 -52,120.6 -120.6,120.6 l -88.9,0 -1235.1,0 -88.8,0 c -68.6,0 -120.6,-51.2 -120.6,-120.6 l 0,-2209.5 c 0,-69.4 52,-120.6 120.6,-120.6 l 88.8,0 1235.1,0 88.9,0 c 68.6,0 120.6,51.2 120.6,120.6 l 0,2209.5 z" /><path
       style="fill:#010101"
       id="path31"
       d="m 2765.3,507.2 -89.9,0 -1231.6,0 -88.9,0 c -29,0 -55.6,10.5 -74.8,29.7 -19.3,19.2 -29.9,45.9 -29.9,75.1 l 0,2207 c 0,29.2 10.6,55.9 29.9,75.1 19.2,19.1 45.8,29.7 74.8,29.7 l 88.9,0 1231.5,0 89.9,0 c 29,0 55.6,-10.5 74.8,-29.7 19.3,-19.2 29.9,-45.9 29.9,-75.1 l 0,-2207 c 0,-29.2 -10.6,-55.9 -29.9,-75.1 -19.1,-19.1 -45.7,-29.7 -74.7,-29.7 z" /><path
       style="clip-rule:evenodd;fill:#231f20;fill-rule:evenodd"
       id="path33"
       d="m 1330,2690.8 c -1,0 -1.9,-0.9 -1.9,-1.9 l 0,-1946.9 c 0,-1 0.9,-1.9 1.9,-1.9 l 1460.1,0 c 1.1,0 1.9,0.9 1.9,1.9 l 0,1946.8 c 0,1.1 -0.9,1.9 -1.9,1.9 l -1460.1,0 z" /><path
       style="fill:#151517"
       id="path35"
       d="m 2790.2,742 0,1946.9 -1460.2,0 0,-1946.9 1460.2,0 m 0,-3.8 -1460.2,0 c -2.1,0 -3.8,1.7 -3.8,3.8 l 0,1946.9 c 0,2.1 1.7,3.8 3.8,3.8 l 1460.1,0 c 2.1,0 3.8,-1.7 3.8,-3.8 l 0,-1946.9 c 0.1,-2.1 -1.6,-3.8 -3.7,-3.8 l 0,0 z" /><g
       id="g37"><g
         id="g39"><path
           style="fill:#231f20"
           id="path41"
           d="m 2120.9,2807.9 c 0,33.6 -27.2,60.8 -60.8,60.8 -33.6,0 -60.8,-27.2 -60.8,-60.8 0,-33.6 27.2,-60.8 60.8,-60.8 33.6,0 60.8,27.2 60.8,60.8 z" /></g><g
         style="opacity:0.5"
         id="g43"><path
           style="fill:#ffffff"
           id="path45"
           d="m 2072.1,2792.7 c 3.4,0 6.2,2.8 6.2,6.2 l 0,24 c 0,3.4 -2.8,6.2 -6.2,6.2 l -24,0 c -3.4,0 -6.2,-2.8 -6.2,-6.2 l 0,-24 c 0,-3.4 2.8,-6.2 6.2,-6.2 l 24,0 m 0,-4 -24,0 c -5.7,0 -10.3,4.6 -10.3,10.3 l 0,24 c 0,5.7 4.6,10.3 10.3,10.3 l 24,0 c 5.7,0 10.3,-4.6 10.3,-10.3 l 0,-24 c 0,-5.7 -4.6,-10.3 -10.3,-10.3 l 0,0 z" /></g></g><g
       id="g47"><path
         style="clip-rule:evenodd;fill:#424143;fill-rule:evenodd"
         id="path49"
         d="m 2060.1,615.9 c 8.4,0 15.3,6.8 15.3,15.3 0,8.4 -6.8,15.3 -15.3,15.3 -8.5,0 -15.3,-6.8 -15.3,-15.3 0,-8.5 6.9,-15.3 15.3,-15.3 z" /><path
         style="clip-rule:evenodd;fill:#818285;fill-rule:evenodd"
         id="path51"
         d="m 2060.1,624.1 c 4.1,0 7.4,3.3 7.4,7.4 0,4.1 -3.3,7.4 -7.4,7.4 -4.1,0 -7.4,-3.3 -7.4,-7.4 0,-4.1 3.3,-7.4 7.4,-7.4 z" /></g></g></svg>