<svg height="945" width="555" xmlns="http://www.w3.org/2000/svg" xmlns:xlink="http://www.w3.org/1999/xlink"><style>svg {
  font-family: ui-monospace, SFMono-Regular, Menlo, Monaco, Consolas, "Liberation Mono", "Courier New", monospace;
}
text {
  fill: #2f3337;
  font-size: 14px;
}
rect {
  fill: #ffffff;
  stroke: #3a3d40;
  stroke-width: 2;
}
rect.terminal {
  fill: #ffffff;
}
rect.nonterminal {
  fill: #ffffff;
}
text.terminal {
  fill: #2f3337;
  font-weight: 600;
}
text.nonterminal {
  fill: #2563eb;
}
a text.nonterminal {
  text-decoration: underline;
}
path.line {
  fill: none;
  stroke: #3a3d40;
  stroke-width: 2;
}
polygon {
  fill: #2f3337;
  stroke: #2f3337;
}</style>
<polygon points="9 17 1 13 1 21"></polygon>
<polygon points="17 17 9 13 9 21"></polygon>
<rect height="32" rx="10" width="62" x="31" y="3"></rect>
<rect class="terminal" height="32" rx="10" width="62" x="29" y="1"></rect>
<text class="terminal" x="39" y="21">ALTER</text>
<rect height="32" rx="10" width="92" x="113" y="3"></rect>
<rect class="terminal" height="32" rx="10" width="92" x="111" y="1"></rect>
<text class="terminal" x="121" y="21">SEQUENCE</text>
<rect height="32" rx="10" width="34" x="245" y="35"></rect>
<rect class="terminal" height="32" rx="10" width="34" x="243" y="33"></rect>
<text class="terminal" x="253" y="53">IF</text>
<rect height="32" rx="10" width="70" x="299" y="35"></rect>
<rect class="terminal" height="32" rx="10" width="70" x="297" y="33"></rect>
<text class="terminal" x="307" y="53">EXISTS</text>
<rect height="32" width="124" x="409" y="3"></rect>
<rect class="nonterminal" height="32" width="124" x="407" y="1"></rect>
<text lengthAdjust="spacingAndGlyphs" textLength="100" font-size="12" class="nonterminal" x="419" y="21">sequence_name</text><rect height="32" rx="10" width="76" x="103" y="101"></rect>
<rect class="terminal" height="32" rx="10" width="76" x="101" y="99"></rect>
<text class="terminal" x="111" y="119">RENAME</text>
<rect height="32" rx="10" width="38" x="199" y="101"></rect>
<rect class="terminal" height="32" rx="10" width="38" x="197" y="99"></rect>
<text class="terminal" x="207" y="119">TO</text>
<rect height="32" width="124" x="257" y="101"></rect>
<rect class="nonterminal" height="32" width="124" x="255" y="99"></rect>
<text lengthAdjust="spacingAndGlyphs" textLength="100" font-size="12" class="nonterminal" x="267" y="119">sequence_name</text><rect height="32" rx="10" width="38" x="143" y="167"></rect>
<rect class="terminal" height="32" rx="10" width="38" x="141" y="165"></rect>
<text class="terminal" x="151" y="185">AS</text><a xlink:href="/docs/v23.2/sql-grammar#typename" xlink:title="typename">
<rect height="32" width="84" x="201" y="167"></rect>
<rect class="nonterminal" height="32" width="84" x="199" y="165"></rect>
<text lengthAdjust="spacingAndGlyphs" textLength="60" font-size="12" class="nonterminal" x="211" y="185">typename</text></a><rect height="32" rx="10" width="40" x="143" y="211"></rect>
<rect class="terminal" height="32" rx="10" width="40" x="141" y="209"></rect>
<text class="terminal" x="151" y="229">NO</text>
<rect height="32" rx="10" width="62" x="223" y="211"></rect>
<rect class="terminal" height="32" rx="10" width="62" x="221" y="209"></rect>
<text class="terminal" x="231" y="229">CYCLE</text>
<rect height="32" rx="10" width="92" x="223" y="255"></rect>
<rect class="terminal" height="32" rx="10" width="92" x="221" y="253"></rect>
<text class="terminal" x="231" y="273">MINVALUE</text>
<rect height="32" rx="10" width="94" x="223" y="299"></rect>
<rect class="terminal" height="32" rx="10" width="94" x="221" y="297"></rect>
<text class="terminal" x="231" y="317">MAXVALUE</text>
<rect height="32" rx="10" width="72" x="143" y="343"></rect>
<rect class="terminal" height="32" rx="10" width="72" x="141" y="341"></rect>
<text class="terminal" x="151" y="361">OWNED</text>
<rect height="32" rx="10" width="38" x="235" y="343"></rect>
<rect class="terminal" height="32" rx="10" width="38" x="233" y="341"></rect>
<text class="terminal" x="243" y="361">BY</text>
<rect height="32" rx="10" width="58" x="313" y="343"></rect>
<rect class="terminal" height="32" rx="10" width="58" x="311" y="341"></rect>
<text class="terminal" x="321" y="361">NONE</text><a xlink:href="/docs/v23.2/sql-grammar#column_name" xlink:title="column_name">
<rect height="32" width="108" x="313" y="387"></rect>
<rect class="nonterminal" height="32" width="108" x="311" y="385"></rect>
<text lengthAdjust="spacingAndGlyphs" textLength="84" font-size="12" class="nonterminal" x="323" y="405">column_name</text></a><rect height="32" rx="10" width="66" x="163" y="431"></rect>
<rect class="terminal" height="32" rx="10" width="66" x="161" y="429"></rect>
<text class="terminal" x="171" y="449">CACHE</text>
<rect height="32" rx="10" width="92" x="163" y="475"></rect>
<rect class="terminal" height="32" rx="10" width="92" x="161" y="473"></rect>
<text class="terminal" x="171" y="493">MINVALUE</text>
<rect height="32" rx="10" width="94" x="163" y="519"></rect>
<rect class="terminal" height="32" rx="10" width="94" x="161" y="517"></rect>
<text class="terminal" x="171" y="537">MAXVALUE</text>
<rect height="32" rx="10" width="100" x="163" y="563"></rect>
<rect class="terminal" height="32" rx="10" width="100" x="161" y="561"></rect>
<text class="terminal" x="171" y="581">INCREMENT</text>
<rect height="32" rx="10" width="38" x="303" y="595"></rect>
<rect class="terminal" height="32" rx="10" width="38" x="301" y="593"></rect>
<text class="terminal" x="311" y="613">BY</text>
<rect height="32" rx="10" width="64" x="163" y="639"></rect>
<rect class="terminal" height="32" rx="10" width="64" x="161" y="637"></rect>
<text class="terminal" x="171" y="657">START</text>
<rect height="32" rx="10" width="58" x="267" y="671"></rect>
<rect class="terminal" height="32" rx="10" width="58" x="265" y="669"></rect>
<text class="terminal" x="275" y="689">WITH</text>
<rect height="32" width="64" x="401" y="431"></rect>
<rect class="nonterminal" height="32" width="64" x="399" y="429"></rect>
<text lengthAdjust="spacingAndGlyphs" textLength="40" font-size="10" class="nonterminal" x="411" y="449">integer</text><rect height="32" rx="10" width="82" x="143" y="715"></rect>
<rect class="terminal" height="32" rx="10" width="82" x="141" y="713"></rect>
<text class="terminal" x="151" y="733">RESTART</text>
<rect height="32" rx="10" width="58" x="285" y="779"></rect>
<rect class="terminal" height="32" rx="10" width="58" x="283" y="777"></rect>
<text class="terminal" x="293" y="797">WITH</text>
<rect height="32" width="64" x="383" y="747"></rect>
<rect class="nonterminal" height="32" width="64" x="381" y="745"></rect>
<text lengthAdjust="spacingAndGlyphs" textLength="40" font-size="10" class="nonterminal" x="393" y="765">integer</text><rect height="32" rx="10" width="80" x="143" y="823"></rect>
<rect class="terminal" height="32" rx="10" width="80" x="141" y="821"></rect>
<text class="terminal" x="151" y="841">VIRTUAL</text>
<rect height="32" rx="10" width="44" x="103" y="867"></rect>
<rect class="terminal" height="32" rx="10" width="44" x="101" y="865"></rect>
<text class="terminal" x="111" y="885">SET</text>
<rect height="32" rx="10" width="76" x="167" y="867"></rect>
<rect class="terminal" height="32" rx="10" width="76" x="165" y="865"></rect>
<text class="terminal" x="175" y="885">SCHEMA</text><a xlink:href="/docs/v23.2/sql-grammar#schema_name" xlink:title="schema_name">
<rect height="32" width="112" x="263" y="867"></rect>
<rect class="nonterminal" height="32" width="112" x="261" y="865"></rect>
<text lengthAdjust="spacingAndGlyphs" textLength="88" font-size="12" class="nonterminal" x="273" y="885">schema_name</text></a><rect height="32" rx="10" width="72" x="103" y="911"></rect>
<rect class="terminal" height="32" rx="10" width="72" x="101" y="909"></rect>
<text class="terminal" x="111" y="929">OWNER</text>
<rect height="32" rx="10" width="38" x="195" y="911"></rect>
<rect class="terminal" height="32" rx="10" width="38" x="193" y="909"></rect>
<text class="terminal" x="203" y="929">TO</text><a xlink:href="/docs/v23.2/sql-grammar#role_spec" xlink:title="role_spec">
<rect height="32" width="82" x="253" y="911"></rect>
<rect class="nonterminal" height="32" width="82" x="251" y="909"></rect>
<text lengthAdjust="spacingAndGlyphs" textLength="58" font-size="10" class="nonterminal" x="263" y="929">role_spec</text></a><path class="line" d="m17 17 h2 m0 0 h10 m62 0 h10 m0 0 h10 m92 0 h10 m20 0 h10 m0 0 h134 m-164 0 h20 m144 0 h20 m-184 0 q10 0 10 10 m164 0 q0 -10 10 -10 m-174 10 v12 m164 0 v-12 m-164 12 q0 10 10 10 m144 0 q10 0 10 -10 m-154 10 h10 m34 0 h10 m0 0 h10 m70 0 h10 m20 -32 h10 m124 0 h10 m2 0 l2 0 m2 0 l2 0 m2 0 l2 0 m-494 98 l2 0 m2 0 l2 0 m2 0 l2 0 m22 0 h10 m76 0 h10 m0 0 h10 m38 0 h10 m0 0 h10 m124 0 h10 m0 0 h126 m-444 0 h20 m424 0 h20 m-464 0 q10 0 10 10 m444 0 q0 -10 10 -10 m-454 10 v46 m444 0 v-46 m-444 46 q0 10 10 10 m424 0 q10 0 10 -10 m-394 10 h10 m38 0 h10 m0 0 h10 m84 0 h10 m0 0 h182 m-364 0 h20 m344 0 h20 m-384 0 q10 0 10 10 m364 0 q0 -10 10 -10 m-374 10 v24 m364 0 v-24 m-364 24 q0 10 10 10 m344 0 q10 0 10 -10 m-354 10 h10 m40 0 h10 m20 0 h10 m62 0 h10 m0 0 h32 m-134 0 h20 m114 0 h20 m-154 0 q10 0 10 10 m134 0 q0 -10 10 -10 m-144 10 v24 m134 0 v-24 m-134 24 q0 10 10 10 m114 0 q10 0 10 -10 m-124 10 h10 m92 0 h10 m0 0 h2 m-124 -10 v20 m134 0 v-20 m-134 20 v24 m134 0 v-24 m-134 24 q0 10 10 10 m114 0 q10 0 10 -10 m-124 10 h10 m94 0 h10 m20 -88 h130 m-354 -10 v20 m364 0 v-20 m-364 20 v112 m364 0 v-112 m-364 112 q0 10 10 10 m344 0 q10 0 10 -10 m-354 10 h10 m72 0 h10 m0 0 h10 m38 0 h10 m20 0 h10 m58 0 h10 m0 0 h50 m-148 0 h20 m128 0 h20 m-168 0 q10 0 10 10 m148 0 q0 -10 10 -10 m-158 10 v24 m148 0 v-24 m-148 24 q0 10 10 10 m128 0 q10 0 10 -10 m-138 10 h10 m108 0 h10 m20 -44 h26 m-354 -10 v20 m364 0 v-20 m-364 20 v68 m364 0 v-68 m-364 68 q0 10 10 10 m344 0 q10 0 10 -10 m-334 10 h10 m66 0 h10 m0 0 h132 m-238 0 h20 m218 0 h20 m-258 0 q10 0 10 10 m238 0 q0 -10 10 -10 m-248 10 v24 m238 0 v-24 m-238 24 q0 10 10 10 m218 0 q10 0 10 -10 m-228 10 h10 m92 0 h10 m0 0 h106 m-228 -10 v20 m238 0 v-20 m-238 20 v24 m238 0 v-24 m-238 24 q0 10 10 10 m218 0 q10 0 10 -10 m-228 10 h10 m94 0 h10 m0 0 h104 m-228 -10 v20 m238 0 v-20 m-238 20 v24 m238 0 v-24 m-238 24 q0 10 10 10 m218 0 q10 0 10 -10 m-228 10 h10 m100 0 h10 m20 0 h10 m0 0 h48 m-78 0 h20 m58 0 h20 m-98 0 q10 0 10 10 m78 0 q0 -10 10 -10 m-88 10 v12 m78 0 v-12 m-78 12 q0 10 10 10 m58 0 q10 0 10 -10 m-68 10 h10 m38 0 h10 m-208 -42 v20 m238 0 v-20 m-238 20 v56 m238 0 v-56 m-238 56 q0 10 10 10 m218 0 q10 0 10 -10 m-228 10 h10 m64 0 h10 m20 0 h10 m0 0 h68 m-98 0 h20 m78 0 h20 m-118 0 q10 0 10 10 m98 0 q0 -10 10 -10 m-108 10 v12 m98 0 v-12 m-98 12 q0 10 10 10 m78 0 q10 0 10 -10 m-88 10 h10 m58 0 h10 m20 -32 h16 m20 -208 h10 m64 0 h10 m0 0 h2 m-354 -10 v20 m364 0 v-20 m-364 20 v264 m364 0 v-264 m-364 264 q0 10 10 10 m344 0 q10 0 10 -10 m-354 10 h10 m82 0 h10 m20 0 h10 m0 0 h192 m-222 0 h20 m202 0 h20 m-242 0 q10 0 10 10 m222 0 q0 -10 10 -10 m-232 10 v12 m222 0 v-12 m-222 12 q0 10 10 10 m202 0 q10 0 10 -10 m-192 10 h10 m0 0 h68 m-98 0 h20 m78 0 h20 m-118 0 q10 0 10 10 m98 0 q0 -10 10 -10 m-108 10 v12 m98 0 v-12 m-98 12 q0 10 10 10 m78 0 q10 0 10 -10 m-88 10 h10 m58 0 h10 m20 -32 h10 m64 0 h10 m-334 -42 v20 m364 0 v-20 m-364 20 v88 m364 0 v-88 m-364 88 q0 10 10 10 m344 0 q10 0 10 -10 m-354 10 h10 m80 0 h10 m0 0 h244 m-384 -656 l20 0 m-1 0 q-9 0 -9 -10 l0 -12 q0 -10 10 -10 m384 32 l20 0 m-20 0 q10 0 10 -10 l0 -12 q0 -10 -10 -10 m-384 0 h10 m0 0 h374 m-414 22 v20 m444 0 v-20 m-444 20 v680 m444 0 v-680 m-444 680 q0 10 10 10 m424 0 q10 0 10 -10 m-434 10 h10 m44 0 h10 m0 0 h10 m76 0 h10 m0 0 h10 m112 0 h10 m0 0 h132 m-434 -10 v20 m444 0 v-20 m-444 20 v24 m444 0 v-24 m-444 24 q0 10 10 10 m424 0 q10 0 10 -10 m-434 10 h10 m72 0 h10 m0 0 h10 m38 0 h10 m0 0 h10 m82 0 h10 m0 0 h172 m23 -810 h-3"></path>
<polygon points="545 115 553 111 553 119"></polygon>
<polygon points="545 115 537 111 537 119"></polygon></svg>