<svg height="37" width="557" xmlns="http://www.w3.org/2000/svg" xmlns:xlink="http://www.w3.org/1999/xlink"><style>svg {
  font-family: ui-monospace, SFMono-Regular, Menlo, Monaco, Consolas, "Liberation Mono", "Courier New", monospace;
}
text {
  fill: #2f3337;
  font-size: 14px;
}
rect {
  fill: #ffffff;
  stroke: #3a3d40;
  stroke-width: 2;
}
rect.terminal {
  fill: #ffffff;
}
rect.nonterminal {
  fill: #ffffff;
}
text.terminal {
  fill: #2f3337;
  font-weight: 600;
}
text.nonterminal {
  fill: #2563eb;
}
a text.nonterminal {
  text-decoration: underline;
}
path.line {
  fill: none;
  stroke: #3a3d40;
  stroke-width: 2;
}
polygon {
  fill: #2f3337;
  stroke: #2f3337;
}</style>
<polygon points="9 17 1 13 1 21"></polygon>
<polygon points="17 17 9 13 9 21"></polygon>
<rect height="32" rx="10" width="58" x="31" y="3"></rect>
<rect class="terminal" height="32" rx="10" width="58" x="29" y="1"></rect>
<text class="terminal" x="39" y="21">DROP</text>
<rect height="32" rx="10" width="72" x="109" y="3"></rect>
<rect class="terminal" height="32" rx="10" width="72" x="107" y="1"></rect>
<text class="terminal" x="117" y="21">OWNED</text>
<rect height="32" rx="10" width="38" x="201" y="3"></rect>
<rect class="terminal" height="32" rx="10" width="38" x="199" y="1"></rect>
<text class="terminal" x="209" y="21">BY</text><a xlink:href="/docs/v25.2/sql-grammar#role_spec_list" xlink:title="role_spec_list">
<rect height="32" width="108" x="259" y="3"></rect>
<rect class="nonterminal" height="32" width="108" x="257" y="1"></rect>
<text lengthAdjust="spacingAndGlyphs" textLength="84" font-size="10" class="nonterminal" x="269" y="21">role_spec_list</text></a><a xlink:href="/docs/v25.2/sql-grammar#opt_drop_behavior" xlink:title="opt_drop_behavior">
<rect height="32" width="142" x="387" y="3"></rect>
<rect class="nonterminal" height="32" width="142" x="385" y="1"></rect>
<text lengthAdjust="spacingAndGlyphs" textLength="118" font-size="11" class="nonterminal" x="397" y="21">opt_drop_behavior</text></a><path class="line" d="m17 17 h2 m0 0 h10 m58 0 h10 m0 0 h10 m72 0 h10 m0 0 h10 m38 0 h10 m0 0 h10 m108 0 h10 m0 0 h10 m142 0 h10 m3 0 h-3"></path>
<polygon points="547 17 555 13 555 21"></polygon>
<polygon points="547 17 539 13 539 21"></polygon></svg>