<svg height="103" width="627" xmlns="http://www.w3.org/2000/svg" xmlns:xlink="http://www.w3.org/1999/xlink"><style>svg {
  font-family: ui-monospace, SFMono-Regular, Menlo, Monaco, Consolas, "Liberation Mono", "Courier New", monospace;
}
text {
  fill: #2f3337;
  font-size: 14px;
}
rect {
  fill: #ffffff;
  stroke: #3a3d40;
  stroke-width: 2;
}
rect.terminal {
  fill: #ffffff;
}
rect.nonterminal {
  fill: #ffffff;
}
text.terminal {
  fill: #2f3337;
  font-weight: 600;
}
text.nonterminal {
  fill: #2563eb;
}
a text.nonterminal {
  text-decoration: underline;
}
path.line {
  fill: none;
  stroke: #3a3d40;
  stroke-width: 2;
}
polygon {
  fill: #2f3337;
  stroke: #2f3337;
}</style>
<polygon points="9 17 1 13 1 21"></polygon>
<polygon points="17 17 9 13 9 21"></polygon>
<rect height="32" rx="10" width="72" x="31" y="3"></rect>
<rect class="terminal" height="32" rx="10" width="72" x="29" y="1"></rect>
<text class="terminal" x="39" y="21">CREATE</text>
<rect height="32" rx="10" width="102" x="123" y="3"></rect>
<rect class="terminal" height="32" rx="10" width="102" x="121" y="1"></rect>
<text class="terminal" x="131" y="21">STATISTICS</text>
<rect height="32" width="120" x="245" y="3"></rect>
<rect class="nonterminal" height="32" width="120" x="243" y="1"></rect>
<text lengthAdjust="spacingAndGlyphs" textLength="96" font-size="10" class="nonterminal" x="255" y="21">statistics_name</text><a xlink:href="/docs/stable/sql-grammar#opt_stats_columns" xlink:title="opt_stats_columns">
<rect height="32" width="140" x="385" y="3"></rect>
<rect class="nonterminal" height="32" width="140" x="383" y="1"></rect>
<text lengthAdjust="spacingAndGlyphs" textLength="116" font-size="11" class="nonterminal" x="395" y="21">opt_stats_columns</text></a><rect height="32" rx="10" width="60" x="545" y="3"></rect>
<rect class="terminal" height="32" rx="10" width="60" x="543" y="1"></rect>
<text class="terminal" x="553" y="21">FROM</text><a xlink:href="/docs/stable/sql-grammar#create_stats_target" xlink:title="create_stats_target">
<rect height="32" width="146" x="249" y="69"></rect>
<rect class="nonterminal" height="32" width="146" x="247" y="67"></rect>
<text lengthAdjust="spacingAndGlyphs" textLength="122" font-size="10" class="nonterminal" x="259" y="87">create_stats_target</text></a><a xlink:href="/docs/stable/sql-grammar#opt_create_stats_options" xlink:title="opt_create_stats_options">
<rect height="32" width="184" x="415" y="69"></rect>
<rect class="nonterminal" height="32" width="184" x="413" y="67"></rect>
<text lengthAdjust="spacingAndGlyphs" textLength="160" font-size="10" class="nonterminal" x="425" y="87">opt_create_stats_options</text></a><path class="line" d="m17 17 h2 m0 0 h10 m72 0 h10 m0 0 h10 m102 0 h10 m0 0 h10 m120 0 h10 m0 0 h10 m140 0 h10 m0 0 h10 m60 0 h10 m2 0 l2 0 m2 0 l2 0 m2 0 l2 0 m-400 66 l2 0 m2 0 l2 0 m2 0 l2 0 m2 0 h10 m146 0 h10 m0 0 h10 m184 0 h10 m3 0 h-3"></path>
<polygon points="617 83 625 79 625 87"></polygon>
<polygon points="617 83 609 79 609 87"></polygon></svg>