<svg height="81" width="409" xmlns="http://www.w3.org/2000/svg" xmlns:xlink="http://www.w3.org/1999/xlink"><style>svg {
  font-family: ui-monospace, SFMono-Regular, Menlo, Monaco, Consolas, "Liberation Mono", "Courier New", monospace;
}
text {
  fill: #2f3337;
  font-size: 14px;
}
rect {
  fill: #ffffff;
  stroke: #3a3d40;
  stroke-width: 2;
}
rect.terminal {
  fill: #ffffff;
}
rect.nonterminal {
  fill: #ffffff;
}
text.terminal {
  fill: #2f3337;
  font-weight: 600;
}
text.nonterminal {
  fill: #2563eb;
}
a text.nonterminal {
  text-decoration: underline;
}
path.line {
  fill: none;
  stroke: #3a3d40;
  stroke-width: 2;
}
polygon {
  fill: #2f3337;
  stroke: #2f3337;
}</style>
<polygon points="9 17 1 13 1 21"></polygon>
<polygon points="17 17 9 13 9 21"></polygon>
<rect height="32" rx="10" width="76" x="31" y="3"></rect>
<rect class="terminal" height="32" rx="10" width="76" x="29" y="1"></rect>
<text class="terminal" x="39" y="21">RESUME</text>
<rect height="32" rx="10" width="92" x="147" y="3"></rect>
<rect class="terminal" height="32" rx="10" width="92" x="145" y="1"></rect>
<text class="terminal" x="155" y="21">SCHEDULE</text>
<rect height="32" width="96" x="259" y="3"></rect>
<rect class="nonterminal" height="32" width="96" x="257" y="1"></rect>
<text lengthAdjust="spacingAndGlyphs" textLength="72" font-size="10" class="nonterminal" x="269" y="21">schedule_id</text><rect height="32" rx="10" width="100" x="147" y="47"></rect>
<rect class="terminal" height="32" rx="10" width="100" x="145" y="45"></rect>
<text class="terminal" x="155" y="65">SCHEDULES</text><a xlink:href="/docs/v23.2/sql-grammar#select_stmt" xlink:title="select_stmt">
<rect height="32" width="94" x="267" y="47"></rect>
<rect class="nonterminal" height="32" width="94" x="265" y="45"></rect>
<text lengthAdjust="spacingAndGlyphs" textLength="70" font-size="10" class="nonterminal" x="277" y="65">select_stmt</text></a><path class="line" d="m17 17 h2 m0 0 h10 m76 0 h10 m20 0 h10 m92 0 h10 m0 0 h10 m96 0 h10 m0 0 h6 m-254 0 h20 m234 0 h20 m-274 0 q10 0 10 10 m254 0 q0 -10 10 -10 m-264 10 v24 m254 0 v-24 m-254 24 q0 10 10 10 m234 0 q10 0 10 -10 m-244 10 h10 m100 0 h10 m0 0 h10 m94 0 h10 m23 -44 h-3"></path>
<polygon points="399 17 407 13 407 21"></polygon>
<polygon points="399 17 391 13 391 21"></polygon></svg>