<svg width="70" height="49" viewBox="0 0 70 49" fill="none" xmlns="http://www.w3.org/2000/svg">
<path d="M53.747 48.2918H15.7394C7.11186 48.2918 0 41.3099 0 32.5824C0 23.855 6.99527 16.873 15.7394 16.873H17.0218C17.4882 7.44741 25.2996 0 34.7432 0H34.8598C44.42 0 52.2313 7.44741 52.6977 16.873H53.747C62.3745 16.873 69.4863 23.855 69.4863 32.5824C69.4863 41.3099 62.3745 48.2918 53.747 48.2918ZM15.7394 18.7349C8.04456 18.7349 1.74882 25.0187 1.74882 32.6988C1.74882 40.379 8.04456 46.6627 15.7394 46.6627H53.8636C61.5584 46.6627 67.8541 40.379 67.8541 32.6988C67.8541 25.0187 61.5584 18.7349 53.8636 18.7349H51.0655V17.804C51.0655 8.96017 43.837 1.74549 34.9763 1.74549H34.8598C25.9991 1.74549 18.7706 8.96017 18.7706 17.804V18.7349H15.7394Z" fill="url(#paint0_linear)"/>
<path d="M34.7432 41.3099C33.8105 41.3099 25.4161 41.1935 25.4161 38.168V20.2477C25.4161 17.6877 31.2455 17.1058 34.7432 17.1058C35.6759 17.1058 44.0702 17.2222 44.0702 20.2477V38.168C44.0702 40.6117 38.2408 41.3099 34.7432 41.3099ZM34.7432 18.735C29.8465 18.735 27.3981 19.7823 27.165 20.2477V38.0516C27.3981 38.4007 29.8465 39.4481 34.7432 39.4481C39.6398 39.4481 42.0882 38.4008 42.3214 37.9353V20.1313C42.0882 19.7823 39.5233 18.735 34.7432 18.735Z" fill="black"/>
<path d="M34.7432 23.1568C31.2455 23.1568 25.4161 22.4586 25.4161 19.8986H27.165C27.3981 20.364 30.1962 21.4113 34.7432 21.4113C39.1735 21.4113 42.0882 20.364 42.3214 19.8986H44.0702C43.9536 22.4586 38.1242 23.1568 34.7432 23.1568Z" fill="black"/>
<path d="M34.7432 29.2078C30.8958 29.2078 27.3981 28.626 25.7659 27.5787L26.6986 26.0659C28.0977 26.8805 31.1289 27.4623 34.7432 27.4623C38.2408 27.4623 41.3887 26.8805 42.7877 26.0659L43.7204 27.5787C41.9716 28.626 38.5906 29.2078 34.7432 29.2078Z" fill="black"/>
<path d="M34.7432 35.2589C30.8958 35.2589 27.3981 34.677 25.7659 33.6297L26.6986 32.1169C28.0977 32.9315 31.1289 33.5134 34.7432 33.5134C38.2408 33.5134 41.3887 32.9315 42.7877 32.1169L43.7204 33.6297C41.9716 34.5607 38.5906 35.2589 34.7432 35.2589Z" fill="black"/>
<defs>
<linearGradient id="paint0_linear" x1="0" y1="24.2047" x2="69.4596" y2="24.2047" gradientUnits="userSpaceOnUse">
<stop stop-color="#1BF8EC"/>
<stop offset="0.33" stop-color="#6933FF"/>
<stop offset="1" stop-color="#0037A5"/>
</linearGradient>
</defs>
</svg>
