<?xml version="1.0" encoding="utf-8"?>
<!-- Generator: Adobe Illustrator 16.0.0, SVG Export Plug-In . SVG Version: 6.00 Build 0)  -->
<!DOCTYPE svg PUBLIC "-//W3C//DTD SVG 1.1//EN" "http://www.w3.org/Graphics/SVG/1.1/DTD/svg11.dtd">
<svg version="1.1" id="Layer_1" xmlns="http://www.w3.org/2000/svg" xmlns:xlink="http://www.w3.org/1999/xlink" x="0px" y="0px"
	 width="393.3px" height="269.7px" viewBox="0 0 393.3 269.7" enable-background="new 0 0 393.3 269.7" xml:space="preserve">
<g>
	<path fill="#FFFFFF" d="M343.3,90.9c-3.6-21.4-19.4-38.5-39.9-44.5c0.3-2.1,0.6-4.2,0.6-6.3c0,0,0,0,0,0c0-22.1-17.9-40-40-40
		c-11.2,0-21.2,4.6-28.5,12c-2-5.3-7-9.1-13-9.1c-7.7,0-14,6.3-14,14c0,7.7,5.3,11.1,16.4,16.4c1.5,0.7,3,1.5,4.4,2.3
		c0.9,0.5,1.7,1,2.6,1.5c0.6,0.4,1.3,0.8,1.9,1.2c0.4,0.2,0.7,0.5,1.1,0.7c3.4,2.3,6.5,4.8,9.5,7.5c0.2,0.1,0.3,0.3,0.5,0.4
		c1.2,1.1,2.4,2.3,3.5,3.6c0.3,0.3,0.6,0.7,0.9,1c1.3,1.4,2.5,2.9,3.6,4.4c9.4,12.4,15,27.9,15,44.6s-5.7,32.2-15,44.6
		c-1.1,1.5-2.4,2.9-3.6,4.4c-0.3,0.3-0.6,0.7-0.9,1c-1.1,1.2-2.3,2.4-3.5,3.6c-0.2,0.1-0.3,0.3-0.5,0.4c-3,2.7-6.1,5.3-9.5,7.5
		c-0.4,0.2-0.7,0.5-1.1,0.7c-0.6,0.4-1.2,0.8-1.9,1.2c-0.8,0.5-1.7,1-2.6,1.5c-1.5,0.8-2.9,1.6-4.4,2.3
		c-11.2,5.2-16.4,8.6-16.4,16.4c0,7.7,6.3,14,14,14c6,0,11-3.8,13-9.1c7.3,7.4,17.4,12,28.5,12c22.1,0,40-17.9,40-40v0
		c0-2.2-0.3-4.2-0.6-6.3c20.5-6,36.2-23.2,39.9-44.5c0.5-3.1,0.8-6.2,0.8-9.4C344.1,97.1,343.8,93.9,343.3,90.9z"/>
	<path fill="#FFFFFF" d="M168.8,167.4c-1.5-0.7-3-1.5-4.4-2.3c-0.9-0.5-1.7-1-2.6-1.5c-0.6-0.4-1.3-0.8-1.9-1.2
		c-0.4-0.2-0.7-0.5-1.1-0.7c-3.4-2.2-6.5-4.8-9.5-7.5c-0.2-0.1-0.3-0.3-0.5-0.4c-1.2-1.2-2.4-2.3-3.5-3.6c-0.3-0.3-0.6-0.7-0.9-1
		c-1.3-1.4-2.5-2.9-3.6-4.4c-9.4-12.4-15-27.9-15-44.6s5.7-32.2,15-44.6c1.1-1.5,2.4-2.9,3.6-4.4c0.3-0.3,0.6-0.7,0.9-1
		c1.1-1.2,2.3-2.4,3.5-3.6c0.2-0.1,0.3-0.3,0.5-0.4c3-2.7,6.1-5.3,9.5-7.5c0.4-0.2,0.7-0.5,1.1-0.7c0.6-0.4,1.2-0.8,1.9-1.2
		c0.8-0.5,1.7-1,2.6-1.5c1.5-0.8,2.9-1.6,4.4-2.3c11.2-5.2,16.4-8.6,16.4-16.4c0-7.7-6.3-14-14-14c-6,0-11,3.8-13,9.1
		c-7.3-7.4-17.4-12-28.5-12c-22.1,0-40,17.9-40,40c0,0,0,0,0,0c0,2.2,0.3,4.2,0.6,6.3c-20.5,6-36.2,23.2-39.9,44.5
		c-0.5,3.1-0.8,6.2-0.8,9.4c0,3.2,0.3,6.3,0.8,9.4c3.6,21.4,19.4,38.5,39.9,44.5c-0.3,2.1-0.6,4.2-0.6,6.3v0c0,22.1,17.9,40,40,40
		c11.2,0,21.2-4.6,28.5-12c2,5.3,7,9.1,13,9.1c7.7,0,14-6.3,14-14C185.2,176,180,172.6,168.8,167.4z"/>
	<path fill="#FFFFFF" d="M240.5,100.3c0-24.1-19.5-43.6-43.6-43.6c-24.1,0-43.6,19.5-43.6,43.6c0,24.1,19.5,43.6,43.6,43.6
		C221,143.9,240.5,124.4,240.5,100.3z"/>
</g>
<g>
	<path fill="#FFFFFF" d="M28.6,264.9c0,0.6-0.3,1-0.7,1.3c-3,2.3-6.8,3.5-10.6,3.5C7.9,269.7,0,262,0,252.5
		c0-9.6,7.9-17.5,17.3-17.5c3.8,0,7.7,1.2,10.6,3.7c1.2,1,0.5,2.7-0.9,2.7c-0.3,0-0.7-0.1-0.9-0.3c-2.4-1.8-5.6-3.1-8.8-3.1
		C9.5,238,3,244.5,3,252.5c0,7.8,6.5,14.2,14.3,14.2c3.3,0,6.4-1,8.8-2.9C27,263.1,28.6,263.5,28.6,264.9z"/>
	<path fill="#FFFFFF" d="M37.8,225.4c0-0.3-0.1-0.7-0.5-0.9c-1.1-0.6-1.2-1.2-1.2-1.6c0-1.6,1.6-1.6,1.6-1.6c0.9,0,3.1,0.9,3.1,4.1
		v39.9c0,0.3,0.1,0.7,0.5,0.9c1.1,0.6,1.2,1.2,1.2,1.6c0,1.6-1.6,1.6-1.6,1.6c-0.9,0-3.1-0.9-3.1-4.1V225.4z"/>
	<path fill="#FFFFFF" d="M50,252.4c0-9.6,7.8-17.4,17.4-17.4s17.3,7.9,17.3,17.4c0,9.6-7.7,17.3-17.3,17.3S50,262,50,252.4z
		 M53,252.4c0,7.9,6.5,14.3,14.4,14.3c7.9,0,14.3-6.4,14.3-14.3c0-7.9-6.4-14.4-14.3-14.4C59.5,238,53,244.5,53,252.4z"/>
	<path fill="#FFFFFF" d="M118.1,263.1c-1.8,3.9-6.8,6.3-10.8,6.3c-9.7,0-14.7-5.1-14.7-14.8v-15.3c0-0.3-0.1-0.7-0.5-0.9
		c-1.1-0.6-1.2-1.2-1.2-1.6c0-1.6,1.6-1.6,1.6-1.6c0.9,0,3.1,0.9,3.1,4.1v15.3c0,8,3.8,11.9,11.7,11.9c6.1,0,10.8-4.5,10.8-10.5
		v-16.7c0-3.2,2.2-4.1,3.1-4.1c0,0,1.6,0,1.6,1.6c0,0.3-0.1,1-1.2,1.6c-0.3,0.2-0.5,0.6-0.5,0.9v26c0,0.3,0.1,0.7,0.5,0.9
		c1.1,0.6,1.2,1.2,1.2,1.6c0,1.6-1.6,1.6-1.6,1.6c-0.9,0-3.1-0.9-3.1-4.1V263.1z"/>
	<path fill="#FFFFFF" d="M157.8,225.4c0-3.2,2.2-4.1,3.1-4.1c0,0,1.6,0,1.6,1.6c0,0.3-0.1,1-1.2,1.6c-0.3,0.2-0.5,0.6-0.5,0.9v39.9
		c0,0.3,0.1,0.7,0.5,0.9c1.1,0.6,1.2,1.2,1.2,1.6c0,1.6-1.6,1.6-1.6,1.6c-0.9,0-3.1-0.9-3.1-4.1v-3.7c-2.7,6-8.2,7.8-12.7,7.8
		c-9.2,0-15.5-8.1-15.5-17.4c0-8.9,6.6-16.7,15.5-16.7c5,0,9.3,1.5,12.7,7V225.4z M157.8,251.3c0-7-5.4-13.1-12.6-13.1
		c-7.7,0-12.6,6.4-12.6,13.6c0,7.1,4.8,14.4,12.6,14.4c8,0,12.6-7.5,12.6-14.5V251.3z"/>
	<path fill="#FFFFFF" d="M198.8,241.1c0,1.9-1.5,3.3-3.3,3.3c-0.8,0-1.4-0.2-2-0.6c-1.9-1.5-4.3-2.5-6.5-2.5c-6,0.1-11,5.1-11,11
		c0,5.8,4.9,10.9,10.9,10.9c2.2,0,4.6-0.9,6.6-2.4c0.6-0.4,1.2-0.6,2-0.6c1.8,0,3.3,1.5,3.3,3.3c0,1-0.6,1.8-1.4,2.5
		c-2.9,2.4-6.7,3.6-10.4,3.6c-9.7,0-17.4-7.7-17.4-17.3c0-9.6,7.8-17.4,17.4-17.4c3.9,0,7.6,1.2,10.5,3.6
		C198.3,239.2,198.8,240.1,198.8,241.1z"/>
	<path fill="#FFFFFF" d="M225.5,265.3c-0.7,1-3.1,4.4-8.7,4.4c-6.6,0-12.9-4.4-12.9-11.6c0-8,6.4-11.2,13.2-11.2
		c2.8,0,5.6,0.7,8.1,1.9c0-6.7-2.9-7.7-6.7-7.7c-4.5,0-6.6,0.9-6.6,0.9c-2,0.7-4.1-0.6-4.1-2.7c0-1.6,1-2.8,2.4-3.2
		c2.5-0.7,5.1-1.2,8.1-1.2c9.1,0,13.6,4.3,13.6,11.7v15.7c0,0.7,0.3,1,0.6,1.2c0,0,1.1,0.5,1.1,2.5s-1.4,3.3-3.4,3.3
		C227.6,269.4,225.6,267.9,225.5,265.3z M218.9,252.2c-4,0-8.4,1.2-8.4,6c0,3.5,3.3,5.2,6.4,5.2c3.9,0,8.3-2.4,8.5-6.6v-2.6
		C223.1,252.6,220.3,252.2,218.9,252.2z"/>
	<path fill="#FFFFFF" d="M265.2,250.4c0-5.6-3.5-8.9-8.9-8.9c-5,0-8.9,4.3-8.9,8.6v14.3c0,3-2,5-4.9,5c-1.8,0-3.4-1.3-3.4-3.3
		c0-2,1.2-2.6,1.2-2.6c0.3-0.2,0.6-0.4,0.6-1.1v-20.1c0-0.7-0.3-0.9-0.6-1.1c0,0-1.2-0.6-1.2-2.6c0-2,1.6-3.3,3.4-3.3
		c2.7,0,4.6,1.8,4.9,4.4c2.1-2.6,6.2-4.7,9.4-4.7c10.6,0,15,5.1,15,15.9v11.5c0,0.7,0.3,0.9,0.6,1.1c0,0,1.2,0.6,1.2,2.6
		c0,2-1.6,3.3-3.4,3.3c-2.9,0-4.9-2-4.9-5V250.4z"/>
	<path fill="#FFFFFF" d="M305.8,250.4c0-5.6-3.5-8.9-8.9-8.9c-5,0-8.9,4.3-8.9,8.6v14.3c0,3-2,5-4.9,5c-1.8,0-3.4-1.3-3.4-3.3
		c0-2,1.2-2.6,1.2-2.6c0.3-0.2,0.6-0.4,0.6-1.1v-20.1c0-0.7-0.3-0.9-0.6-1.1c0,0-1.2-0.6-1.2-2.6c0-2,1.6-3.3,3.4-3.3
		c2.7,0,4.6,1.8,4.9,4.4c2.1-2.6,6.2-4.7,9.4-4.7c10.6,0,15,5.1,15,15.9v11.5c0,0.7,0.3,0.9,0.6,1.1c0,0,1.2,0.6,1.2,2.6
		c0,2-1.6,3.3-3.4,3.3c-2.9,0-4.9-2-4.9-5V250.4z"/>
	<path fill="#FFFFFF" d="M318.9,252.3c0-9.6,7.9-17.4,17.4-17.4c9.6,0,17.4,7.8,17.4,17.4c0,9.5-7.8,17.4-17.4,17.4
		C326.7,269.7,318.9,261.8,318.9,252.3z M325.4,252.3c0,6,4.9,10.8,10.8,10.8c6,0,10.8-4.9,10.8-10.8c0-6-4.9-10.8-10.8-10.8
		C330.3,241.5,325.4,246.3,325.4,252.3z"/>
	<path fill="#FFFFFF" d="M384.9,250.4c0-5.6-3.5-8.9-8.9-8.9c-5,0-8.9,4.3-8.9,8.6v14.3c0,3-2,5-4.9,5c-1.8,0-3.4-1.3-3.4-3.3
		c0-2,1.2-2.6,1.2-2.6c0.3-0.2,0.6-0.4,0.6-1.1v-20.1c0-0.7-0.3-0.9-0.6-1.1c0,0-1.2-0.6-1.2-2.6c0-2,1.6-3.3,3.4-3.3
		c2.7,0,4.6,1.8,4.9,4.4c2.1-2.6,6.2-4.7,9.4-4.7c10.6,0,15,5.1,15,15.9v11.5c0,0.7,0.3,0.9,0.6,1.1c0,0,1.2,0.6,1.2,2.6
		c0,2-1.6,3.3-3.4,3.3c-2.9,0-4.9-2-4.9-5V250.4z"/>
</g>
</svg>
