<svg height="69" width="515" xmlns="http://www.w3.org/2000/svg" xmlns:xlink="http://www.w3.org/1999/xlink"><style>svg {
  font-family: ui-monospace, SFMono-Regular, Menlo, Monaco, Consolas, "Liberation Mono", "Courier New", monospace;
}
text {
  fill: #2f3337;
  font-size: 14px;
}
rect {
  fill: #ffffff;
  stroke: #3a3d40;
  stroke-width: 2;
}
rect.terminal {
  fill: #ffffff;
}
rect.nonterminal {
  fill: #ffffff;
}
text.terminal {
  fill: #2f3337;
  font-weight: 600;
}
text.nonterminal {
  fill: #2563eb;
}
a text.nonterminal {
  text-decoration: underline;
}
path.line {
  fill: none;
  stroke: #3a3d40;
  stroke-width: 2;
}
polygon {
  fill: #2f3337;
  stroke: #2f3337;
}</style>
<polygon points="9 17 1 13 1 21"></polygon>
<polygon points="17 17 9 13 9 21"></polygon>
<rect height="32" rx="10" width="92" x="31" y="3"></rect>
<rect class="terminal" height="32" rx="10" width="92" x="29" y="1"></rect>
<text class="terminal" x="39" y="21">ROLLBACK</text>
<rect height="32" rx="10" width="38" x="163" y="35"></rect>
<rect class="terminal" height="32" rx="10" width="38" x="161" y="33"></rect>
<text class="terminal" x="171" y="53">TO</text>
<rect height="32" rx="10" width="100" x="221" y="35"></rect>
<rect class="terminal" height="32" rx="10" width="100" x="219" y="33"></rect>
<text class="terminal" x="229" y="53">SAVEPOINT</text><a xlink:href="/docs/v24.1/sql-grammar#savepoint_name" xlink:title="savepoint_name">
<rect height="32" width="126" x="341" y="35"></rect>
<rect class="nonterminal" height="32" width="126" x="339" y="33"></rect>
<text lengthAdjust="spacingAndGlyphs" textLength="102" font-size="11" class="nonterminal" x="351" y="53">savepoint_name</text></a><path class="line" d="m17 17 h2 m0 0 h10 m92 0 h10 m20 0 h10 m0 0 h314 m-344 0 h20 m324 0 h20 m-364 0 q10 0 10 10 m344 0 q0 -10 10 -10 m-354 10 v12 m344 0 v-12 m-344 12 q0 10 10 10 m324 0 q10 0 10 -10 m-334 10 h10 m38 0 h10 m0 0 h10 m100 0 h10 m0 0 h10 m126 0 h10 m23 -32 h-3"></path>
<polygon points="505 17 513 13 513 21"></polygon>
<polygon points="505 17 497 13 497 21"></polygon></svg>