<svg height="411" width="493" xmlns="http://www.w3.org/2000/svg"><style>svg {
  font-family: ui-monospace, SFMono-Regular, Menlo, Monaco, Consolas, "Liberation Mono", "Courier New", monospace;
}
text {
  fill: #2f3337;
  font-size: 14px;
}
rect {
  fill: #ffffff;
  stroke: #3a3d40;
  stroke-width: 2;
}
rect.terminal {
  fill: #ffffff;
}
rect.nonterminal {
  fill: #ffffff;
}
text.terminal {
  fill: #2f3337;
  font-weight: 600;
}
text.nonterminal {
  fill: #2563eb;
}
a text.nonterminal {
  text-decoration: underline;
}
path.line {
  fill: none;
  stroke: #3a3d40;
  stroke-width: 2;
}
polygon {
  fill: #2f3337;
  stroke: #2f3337;
}</style>
<polygon points="11 17 3 13 3 21"></polygon>
<polygon points="19 17 11 13 11 21"></polygon>
<rect height="32" rx="10" width="62" x="33" y="3"></rect>
<rect class="terminal" height="32" rx="10" width="62" x="31" y="1"></rect>
<text class="terminal" x="41" y="21">ALTER</text>
<rect height="32" rx="10" width="74" x="115" y="3"></rect>
<rect class="terminal" height="32" rx="10" width="74" x="113" y="1"></rect>
<text class="terminal" x="123" y="21">BACKUP</text>
<rect height="32" rx="10" width="92" x="209" y="3"></rect>
<rect class="terminal" height="32" rx="10" width="92" x="207" y="1"></rect>
<text class="terminal" x="217" y="21">SCHEDULE</text>
<rect height="32" width="96" x="321" y="3"></rect>
<rect class="nonterminal" height="32" width="96" x="319" y="1"></rect>
<text lengthAdjust="spacingAndGlyphs" textLength="72" font-size="10" class="nonterminal" x="331" y="21">schedule_id</text><rect height="32" rx="10" width="44" x="45" y="113"></rect>
<rect class="terminal" height="32" rx="10" width="44" x="43" y="111"></rect>
<text class="terminal" x="53" y="131">SET</text>
<rect height="32" rx="10" width="62" x="129" y="113"></rect>
<rect class="terminal" height="32" rx="10" width="62" x="127" y="111"></rect>
<text class="terminal" x="137" y="131">LABEL</text>
<rect height="32" width="114" x="211" y="113"></rect>
<rect class="nonterminal" height="32" width="114" x="209" y="111"></rect>
<text lengthAdjust="spacingAndGlyphs" textLength="90" font-size="10" class="nonterminal" x="221" y="131">schedule_label</text><rect height="32" rx="10" width="56" x="129" y="157"></rect>
<rect class="terminal" height="32" rx="10" width="56" x="127" y="155"></rect>
<text class="terminal" x="137" y="175">INTO</text>
<rect height="32" width="102" x="205" y="157"></rect>
<rect class="nonterminal" height="32" width="102" x="203" y="155"></rect>
<text lengthAdjust="spacingAndGlyphs" textLength="78" font-size="10" class="nonterminal" x="215" y="175">collectionURI</text><rect height="32" rx="10" width="58" x="129" y="201"></rect>
<rect class="terminal" height="32" rx="10" width="58" x="127" y="199"></rect>
<text class="terminal" x="137" y="219">WITH</text>
<rect height="32" width="60" x="207" y="201"></rect>
<rect class="nonterminal" height="32" width="60" x="205" y="199"></rect>
<text lengthAdjust="spacingAndGlyphs" textLength="36" font-size="10" class="nonterminal" x="217" y="219">option</text><rect height="32" rx="10" width="100" x="129" y="245"></rect>
<rect class="terminal" height="32" rx="10" width="100" x="127" y="243"></rect>
<text class="terminal" x="137" y="263">RECURRING</text>
<rect height="32" width="68" x="249" y="245"></rect>
<rect class="nonterminal" height="32" width="68" x="247" y="243"></rect>
<text lengthAdjust="spacingAndGlyphs" textLength="44" font-size="10" class="nonterminal" x="259" y="263">crontab</text><rect height="32" rx="10" width="112" x="129" y="289"></rect>
<rect class="terminal" height="32" rx="10" width="112" x="127" y="287"></rect>
<text class="terminal" x="137" y="307">FULL BACKUP</text>
<rect height="32" width="68" x="281" y="289"></rect>
<rect class="nonterminal" height="32" width="68" x="279" y="287"></rect>
<text lengthAdjust="spacingAndGlyphs" textLength="44" font-size="10" class="nonterminal" x="291" y="307">crontab</text><rect height="32" rx="10" width="78" x="281" y="333"></rect>
<rect class="terminal" height="32" rx="10" width="78" x="279" y="331"></rect>
<text class="terminal" x="289" y="351">ALWAYS</text>
<rect height="32" rx="10" width="152" x="129" y="377"></rect>
<rect class="terminal" height="32" rx="10" width="152" x="127" y="375"></rect>
<text class="terminal" x="137" y="395">SCHEDULE OPTION</text>
<rect height="32" width="124" x="301" y="377"></rect>
<rect class="nonterminal" height="32" width="124" x="299" y="375"></rect>
<text lengthAdjust="spacingAndGlyphs" textLength="100" font-size="10" class="nonterminal" x="311" y="395">schedule_option</text><rect height="32" rx="10" width="24" x="45" y="69"></rect>
<rect class="terminal" height="32" rx="10" width="24" x="43" y="67"></rect>
<text class="terminal" x="53" y="87">,</text>
<path class="line" d="m19 17 h2 m0 0 h10 m62 0 h10 m0 0 h10 m74 0 h10 m0 0 h10 m92 0 h10 m0 0 h10 m96 0 h10 m2 0 l2 0 m2 0 l2 0 m2 0 l2 0 m-436 110 l2 0 m2 0 l2 0 m2 0 l2 0 m22 0 h10 m44 0 h10 m20 0 h10 m62 0 h10 m0 0 h10 m114 0 h10 m0 0 h100 m-336 0 h20 m316 0 h20 m-356 0 q10 0 10 10 m336 0 q0 -10 10 -10 m-346 10 v24 m336 0 v-24 m-336 24 q0 10 10 10 m316 0 q10 0 10 -10 m-326 10 h10 m56 0 h10 m0 0 h10 m102 0 h10 m0 0 h118 m-326 -10 v20 m336 0 v-20 m-336 20 v24 m336 0 v-24 m-336 24 q0 10 10 10 m316 0 q10 0 10 -10 m-326 10 h10 m58 0 h10 m0 0 h10 m60 0 h10 m0 0 h158 m-326 -10 v20 m336 0 v-20 m-336 20 v24 m336 0 v-24 m-336 24 q0 10 10 10 m316 0 q10 0 10 -10 m-326 10 h10 m100 0 h10 m0 0 h10 m68 0 h10 m0 0 h108 m-326 -10 v20 m336 0 v-20 m-336 20 v24 m336 0 v-24 m-336 24 q0 10 10 10 m316 0 q10 0 10 -10 m-326 10 h10 m112 0 h10 m20 0 h10 m68 0 h10 m0 0 h10 m-118 0 h20 m98 0 h20 m-138 0 q10 0 10 10 m118 0 q0 -10 10 -10 m-128 10 v24 m118 0 v-24 m-118 24 q0 10 10 10 m98 0 q10 0 10 -10 m-108 10 h10 m78 0 h10 m20 -44 h46 m-326 -10 v20 m336 0 v-20 m-336 20 v68 m336 0 v-68 m-336 68 q0 10 10 10 m316 0 q10 0 10 -10 m-326 10 h10 m152 0 h10 m0 0 h10 m124 0 h10 m-420 -264 l20 0 m-1 0 q-9 0 -9 -10 l0 -24 q0 -10 10 -10 m420 44 l20 0 m-20 0 q10 0 10 -10 l0 -24 q0 -10 -10 -10 m-420 0 h10 m24 0 h10 m0 0 h376 m23 44 h-3"></path>
<polygon points="483 127 491 123 491 131"></polygon>
<polygon points="483 127 475 123 475 131"></polygon></svg>